<?xml version="1.0" standalone="no"?>
<!DOCTYPE svg PUBLIC "-//W3C//DTD SVG 1.1//EN" "http://www.w3.org/Graphics/SVG/1.1/DTD/svg11.dtd" >
<svg xmlns="http://www.w3.org/2000/svg" xmlns:xlink="http://www.w3.org/1999/xlink" version="1.1">
<metadata>
Created by FontForge 20201107 at Wed Aug 15 19:59:20 2018
 By 
(c)2018, McDonald's Corporation. All rights reserved.
</metadata>
<defs>
<font id="Speedee-BoldItalic" horiz-adv-x="0" >
  <font-face 
    font-family="Speedee"
    font-weight="700"
    font-style="italic"
    font-stretch="normal"
    units-per-em="1000"
    panose-1="2 11 8 3 3 5 2 9 2 4"
    ascent="800"
    descent="-200"
    x-height="504"
    cap-height="670"
    bbox="-214 -361 1240 960"
    underline-thickness="40"
    underline-position="-105"
    slope="-12"
    unicode-range="U+000D-FB04"
  />
<missing-glyph horiz-adv-x="500" 
d="M401 0h-408l142 670h408zM351 54l119 562h-287l-119 -562h287z" />
    <glyph glyph-name="f_f" unicode="ff" horiz-adv-x="686" 
d="M19 0l84 397h-60l23 107h60l3 15q20 95 72 144.5t144 49.5q61 0 107 -26l-34 -96q-27 14 -51 14q-25 0 -43 -16.5t-27 -58.5l-5 -26h154l3 15q20 95 72 144.5t144 49.5q61 0 107 -26l-34 -96q-27 14 -51 14q-25 0 -43 -16.5t-27 -58.5l-5 -26h102l-23 -107h-102l-84 -397
h-166l84 397h-154l-84 -397h-166z" />
    <glyph glyph-name="f_i" unicode="fi" horiz-adv-x="621" 
d="M549 563q-37 0 -59.5 22.5t-22.5 55.5q0 41 30 70.5t75 29.5q38 0 60 -22.5t22 -55.5q0 -41 -30.5 -70.5t-74.5 -29.5zM19 0l84 397h-60l23 107h60l3 15q20 95 72 144.5t144 49.5q27 0 50 -4.5t43 -12.5l-42 -96q-12 5 -29 5q-25 0 -43 -16.5t-27 -58.5l-5 -26h83
l-23 -107h-83l-84 -397h-166zM339 0l107 504h166l-107 -504h-166z" />
    <glyph glyph-name="f_l" unicode="fl" horiz-adv-x="617" 
d="M19 0l84 397h-60l23 107h60l3 15q20 95 72 144.5t144 49.5q27 0 50 -4.5t43 -12.5l-42 -96q-12 5 -29 5q-25 0 -43 -16.5t-27 -58.5l-5 -26h83l-23 -107h-83l-84 -397h-166zM335 0l149 700h166l-149 -700h-166z" />
    <glyph glyph-name="f_f_i" unicode="ffi" horiz-adv-x="941" 
d="M869 563q-37 0 -59.5 22.5t-22.5 55.5q0 41 30 70.5t75 29.5q38 0 60 -22.5t22 -55.5q0 -41 -30.5 -70.5t-74.5 -29.5zM19 0l84 397h-60l23 107h60l3 15q20 95 72 144.5t144 49.5q61 0 107 -26l-34 -96q-27 14 -51 14q-25 0 -43 -16.5t-27 -58.5l-5 -26h154l3 15
q20 95 72 144.5t144 49.5q27 0 50 -4.5t43 -12.5l-42 -96q-12 5 -29 5q-25 0 -43 -16.5t-27 -58.5l-5 -26h84l-23 -107h-84l-84 -397h-166l84 397h-154l-84 -397h-166zM659 0l107 504h166l-107 -504h-166z" />
    <glyph glyph-name="f_f_l" unicode="ffl" horiz-adv-x="938" 
d="M19 0l84 397h-60l23 107h60l3 15q20 95 72 144.5t144 49.5q61 0 107 -26l-34 -96q-27 14 -51 14q-25 0 -43 -16.5t-27 -58.5l-5 -26h154l3 15q20 95 72 144.5t144 49.5q27 0 50 -4.5t43 -12.5l-42 -96q-12 5 -29 5q-25 0 -43 -16.5t-27 -58.5l-5 -26h84l-23 -107h-84
l-84 -397h-166l84 397h-154l-84 -397h-166zM656 0l149 700h166l-149 -700h-166z" />
    <glyph glyph-name=".notdef" horiz-adv-x="500" 
d="M401 0h-408l142 670h408zM351 54l119 562h-287l-119 -562h287z" />
    <glyph glyph-name="uni0000" 
 />
    <glyph glyph-name="uni0000" 
 />
    <glyph glyph-name="uni000D" unicode="&#xd;" horiz-adv-x="190" 
 />
    <glyph glyph-name="space" unicode=" " horiz-adv-x="190" 
 />
    <glyph glyph-name="exclam" unicode="!" horiz-adv-x="273" 
d="M69 212l71 458h175l-132 -458h-114zM92 -10q-40 0 -61.5 21.5t-21.5 58.5q0 42 29.5 71t73.5 29q38 0 59 -22t21 -58q0 -43 -29.5 -71.5t-70.5 -28.5z" />
    <glyph glyph-name="quotedbl" unicode="&#x22;" horiz-adv-x="470" 
d="M134 440q-3 36 -3 67q0 68 16 138l12 55h148l-12 -55q-6 -27 -14.5 -55t-24.5 -64t-43 -86h-79zM336 440q-3 36 -3 67q0 68 16 138l12 55h148l-12 -55q-6 -27 -14.5 -55t-24.5 -64t-43 -86h-79z" />
    <glyph glyph-name="numbersign" unicode="#" horiz-adv-x="590" 
d="M-7 0l63 158h-67l26 110h84l55 137h-80l26 110h97l62 155h130l-62 -155h103l62 155h130l-62 -155h64l-26 -110h-81l-55 -137h78l-26 -110h-95l-63 -158h-130l63 158h-103l-63 -158h-130zM229 268h103l55 137h-103z" />
    <glyph glyph-name="dollar" unicode="$" horiz-adv-x="590" 
d="M180 -110l26 114q-88 13 -137 63.5t-49 129.5q0 17 2 31h168q-1 -9 -1 -12.5v-5.5q0 -74 50 -92l36 160l-54 20q-122 45 -122 154q0 61 32.5 109t90 76.5t131.5 32.5l22 100h66l-23 -103q85 -11 131 -63t46 -139v-8t-1 -9h-167q1 7 1.5 15.5t0.5 14.5q0 55 -44 74
l-34 -148l60 -21q135 -47 135 -166q0 -64 -35.5 -113t-97.5 -76.5t-143 -27.5l-24 -110h-66zM261 483q0 -22 10.5 -36t36.5 -26l31 136q-34 -3 -56 -23.5t-22 -50.5zM380 191q0 25 -13.5 41t-47.5 30l-35 -150q43 2 69.5 23.5t26.5 55.5z" />
    <glyph glyph-name="percent" unicode="%" horiz-adv-x="902" 
d="M167 0l456 660h137l-456 -660h-137zM666 -10q-130 0 -130 148q0 46 13 92.5t39.5 85.5t65.5 62.5t90 23.5q130 0 130 -148q0 -46 -13 -92.5t-39.5 -85.5t-65.5 -62.5t-90 -23.5zM678 69q16 0 30 23t24 57t16 68.5t6 56.5q0 28 -5 38.5t-17 10.5q-16 0 -30 -23t-24 -57
t-16 -68.5t-6 -56.5q0 -28 5 -38.5t17 -10.5zM185 258q-130 0 -130 148q0 46 13 92.5t39.5 85.5t65.5 62.5t90 23.5q130 0 130 -148q0 -46 -13 -92.5t-39.5 -85.5t-65.5 -62.5t-90 -23.5zM197 337q16 0 30 23t24 57t16 68.5t6 56.5q0 28 -5 38.5t-17 10.5q-16 0 -30 -23
t-24 -57t-16 -68.5t-6 -56.5q0 -28 5 -38.5t17 -10.5z" />
    <glyph glyph-name="ampersand" unicode="&#x26;" horiz-adv-x="702" 
d="M240 -10q-63 0 -111.5 21.5t-76.5 61.5t-28 96q0 69 45 121.5t117 80.5q-22 42 -28.5 67.5t-6.5 56.5q0 45 27 85t74.5 65t111.5 25q72 0 121 -33.5t49 -102.5t-50 -116t-123 -74l66 -111q12 -19 21 -33q16 25 30 57t25 72h144q-15 -58 -42.5 -110.5t-65.5 -95.5
q17 -5 38 -5q15 0 36 3l-8 -114q-17 -6 -34 -8.5t-36 -2.5q-37 0 -66 8.5t-53 25.5q-39 -19 -83 -29.5t-93 -10.5zM295 498q0 -17 3.5 -33.5t16.5 -42.5q36 22 55.5 50.5t19.5 54.5q0 42 -38 42q-21 0 -39 -18t-18 -53zM199 184q0 -40 24.5 -63.5t65.5 -23.5q28 0 55 10
q-8 11 -16 24l-16 26l-71 120q-22 -21 -32 -45.5t-10 -47.5z" />
    <glyph glyph-name="quotesingle" unicode="'" horiz-adv-x="268" 
d="M134 440q-3 36 -3 67q0 68 16 138l12 55h148l-12 -55q-6 -27 -14.5 -55t-24.5 -64t-43 -86h-79z" />
    <glyph glyph-name="parenleft" unicode="(" horiz-adv-x="357" 
d="M137 -100q-37 77 -56 147t-19 147q0 108 34 204.5t92 178t130 143.5h118q-64 -70 -113 -162t-77.5 -193t-28.5 -200q0 -55 3.5 -97t11.5 -81t22 -87h-117z" />
    <glyph glyph-name="parenright" unicode=")" horiz-adv-x="357" 
d="M-53 -100q63 70 112.5 162t78 193t28.5 200q0 55 -3.5 97t-12 81t-21.5 87h117q38 -77 56.5 -147t18.5 -147q0 -108 -34 -204.5t-92 -178t-130 -143.5h-118z" />
    <glyph glyph-name="asterisk" unicode="*" horiz-adv-x="364" 
d="M158 360l-80 67q53 47 113 87q-32 2 -62 5t-62 7l58 109q26 -16 50 -32t48 -34q-1 32 -1.5 63t0.5 64h114q-13 -33 -26 -64t-28 -62q31 17 62 33t63 32l12 -109q-34 -4 -67 -7t-67 -5q21 -21 42 -42.5t41 -44.5l-99 -67q-11 30 -20 59t-15 59q-18 -30 -36.5 -58.5
t-39.5 -59.5z" />
    <glyph glyph-name="plus" unicode="+" horiz-adv-x="590" 
d="M200 107l37 165h-152l25 113h152l37 167h115l-37 -167h152l-25 -113h-152l-37 -165h-115z" />
    <glyph glyph-name="comma" unicode="," horiz-adv-x="220" 
d="M-69 -149l14 65q78 12 103 75q-32 4 -49.5 25t-17.5 54q0 42 30 71t72 29t63.5 -25.5t21.5 -71.5q0 -53 -31.5 -102t-85 -82t-120.5 -38z" />
    <glyph glyph-name="hyphen" unicode="-" horiz-adv-x="414" 
d="M35 184l28 126h314l-28 -126h-314z" />
    <glyph glyph-name="period" unicode="." horiz-adv-x="220" 
d="M66 -10q-40 0 -61.5 21.5t-21.5 58.5q0 42 29.5 71t73.5 29q38 0 59 -22t21 -58q0 -43 -29.5 -71.5t-70.5 -28.5z" />
    <glyph glyph-name="slash" unicode="/" horiz-adv-x="370" 
d="M-66 -104l373 789h147l-373 -789h-147z" />
    <glyph glyph-name="zero" unicode="0" horiz-adv-x="565" 
d="M244 -16q-109 0 -160.5 60t-51.5 164q0 85 22 167t63.5 148.5t102 106.5t136.5 40q109 0 160.5 -60t51.5 -164q0 -85 -22 -167t-63.5 -148.5t-102 -106.5t-136.5 -40zM254 103q24 0 45.5 27t39 70t30 93t19 97t6.5 80q0 81 -48 81q-24 0 -45.5 -27t-39 -70t-30 -93
t-19 -97t-6.5 -80q0 -81 48 -81z" />
    <glyph glyph-name="one" unicode="1" horiz-adv-x="415" 
d="M112 0l103 468q-40 -14 -80.5 -24.5t-79.5 -15.5l32 135q55 11 108 31.5t102 59.5h131l-145 -654h-171z" />
    <glyph glyph-name="two" unicode="2" horiz-adv-x="545" 
d="M-22 0l8 36q12 56 36.5 100t66 81.5t103.5 75.5l86 52q54 33 81.5 66t27.5 80q0 59 -54 59q-35 0 -61 -28.5t-39 -92.5h-161q25 121 99.5 181t174.5 60q106 0 161 -46.5t55 -125.5q0 -75 -47 -133.5t-124 -105.5l-97 -59q-36 -22 -57 -38t-31 -36h282l-29 -126h-481z" />
    <glyph glyph-name="three" unicode="3" horiz-adv-x="548" 
d="M243 -16q-67 0 -120 21t-83 64.5t-30 111.5v12t2 15h159q-1 -11 -1.5 -16t-0.5 -10q0 -40 21.5 -59.5t55.5 -19.5q50 0 74.5 33.5t24.5 73.5q0 44 -26 66t-70 22h-33l22 102h51q44 0 69 24.5t25 63.5q0 28 -15 45.5t-45 17.5q-29 0 -51.5 -17.5t-30.5 -51.5h-157
q25 91 91 139.5t166 48.5q97 0 155.5 -45.5t58.5 -125.5q0 -57 -30 -97t-86 -65q42 -23 59.5 -59.5t17.5 -77.5q0 -62 -33.5 -111t-95 -77t-144.5 -28z" />
    <glyph glyph-name="four" unicode="4" horiz-adv-x="556" 
d="M263 0l28 128h-294l26 113l395 413h148l-90 -404h70l-27 -122h-70l-29 -128h-157zM176 250h142l42 192z" />
    <glyph glyph-name="five" unicode="5" horiz-adv-x="548" 
d="M238 -16q-100 0 -159.5 48.5t-59.5 144.5h163q0 -35 15 -54.5t49 -19.5q40 0 64 24t35 58t11 65q0 44 -19 64t-50 20q-30 0 -54.5 -16t-40.5 -43h-131l111 379h401l-28 -126h-270l-34 -118q22 14 49 21.5t59 7.5q77 0 129 -47t52 -139q0 -73 -34.5 -134t-100 -98
t-157.5 -37z" />
    <glyph glyph-name="six" unicode="6" horiz-adv-x="549" 
d="M260 -16q-65 0 -116.5 26.5t-81.5 83t-30 146.5q0 55 12 115t37 116t64.5 101t94.5 71.5t127 26.5q96 0 149.5 -48t53.5 -125h-169q-1 32 -15 46.5t-37 14.5q-37 0 -66.5 -40.5t-55.5 -130.5q54 43 127 43q78 0 125.5 -48.5t47.5 -137.5q0 -75 -33.5 -133.5t-93.5 -92.5
t-140 -34zM254 96q34 0 56.5 19.5t34 51t11.5 67.5q0 90 -69 90q-34 0 -56.5 -21t-34 -53t-11.5 -66q0 -88 69 -88z" />
    <glyph glyph-name="seven" unicode="7" horiz-adv-x="491" 
d="M21 0q32 103 79.5 191.5t115 170.5t161.5 166h-310l28 126h466l-29 -129q-92 -87 -159 -171t-112 -171t-72 -183h-168z" />
    <glyph glyph-name="eight" unicode="8" horiz-adv-x="566" 
d="M251 -16q-63 0 -118.5 19t-90 59t-34.5 103q0 71 46 121.5t123 72.5q-34 19 -55 49.5t-21 74.5q0 55 34 97.5t92 66t131 23.5q58 0 110 -16.5t85 -52t33 -90.5q0 -60 -39.5 -104t-104.5 -65q42 -20 67.5 -55t25.5 -86q0 -61 -36.5 -110t-100.5 -78t-147 -29zM325 399
q31 0 50 17t28 41t9 44q0 37 -15.5 54.5t-43.5 17.5q-29 0 -48 -18t-28 -43t-9 -47q0 -35 14.5 -50.5t42.5 -15.5zM258 84q33 0 55.5 21.5t34.5 53t12 60.5q0 43 -19 62t-51 19q-33 0 -55.5 -20t-34.5 -50t-12 -60q0 -45 19 -65.5t51 -20.5z" />
    <glyph glyph-name="nine" unicode="9" horiz-adv-x="549" 
d="M323 670q66 0 117.5 -26.5t81.5 -83t30 -146.5q0 -55 -12 -115t-37 -116t-64.5 -101t-94.5 -71.5t-127 -26.5q-96 0 -149.5 48t-53.5 125h169q1 -32 15 -46.5t37 -14.5q37 0 66.5 40.5t55.5 130.5q-54 -43 -127 -43q-78 0 -125.5 48.5t-47.5 137.5q0 75 33.5 133.5
t93.5 92.5t139 34zM330 558q-34 0 -56.5 -19.5t-34 -51t-11.5 -67.5q0 -90 69 -90q34 0 56.5 21t34 53t11.5 65q0 89 -69 89z" />
    <glyph glyph-name="colon" unicode=":" horiz-adv-x="220" 
d="M66 -10q-40 0 -61.5 21.5t-21.5 58.5q0 42 29.5 71t73.5 29q38 0 59 -22t21 -58q0 -43 -29.5 -71.5t-70.5 -28.5zM137 324q-40 0 -61.5 21.5t-21.5 58.5q0 42 29.5 71t73.5 29q38 0 59 -22t21 -58q0 -43 -29.5 -71.5t-70.5 -28.5z" />
    <glyph glyph-name="semicolon" unicode=";" horiz-adv-x="220" 
d="M-69 -149l14 65q78 12 103 75q-32 4 -49.5 25t-17.5 54q0 42 30 71t72 29t63.5 -25.5t21.5 -71.5q0 -53 -31.5 -102t-85 -82t-120.5 -38zM135 324q-40 0 -61.5 21.5t-21.5 58.5q0 42 29.5 71t73.5 29q38 0 59 -22t21 -58q0 -43 -29.5 -71.5t-70.5 -28.5z" />
    <glyph glyph-name="less" unicode="&#x3c;" horiz-adv-x="590" 
d="M460 89l-381 183l27 116l461 182l-29 -129l-320 -117l268 -119z" />
    <glyph glyph-name="equal" unicode="=" horiz-adv-x="590" 
d="M63 156l25 113h420l-25 -113h-420zM110 369l25 113h420l-25 -113h-420z" />
    <glyph glyph-name="greater" unicode="&#x3e;" horiz-adv-x="590" 
d="M154 570l381 -183l-27 -116l-461 -182l29 129l320 117l-268 119z" />
    <glyph glyph-name="question" unicode="?" horiz-adv-x="462" 
d="M116 212l7 37q8 45 32 75t73 62l42 28q33 22 51 41t18 51q0 28 -14 44t-39 16q-27 0 -49 -22t-32 -67h-161q23 99 91.5 154t172.5 55q59 0 105.5 -20t73 -57.5t26.5 -91.5q0 -67 -38 -108t-101 -80l-50 -31q-28 -17 -39.5 -36t-15.5 -43l-1 -7h-152zM163 -10
q-41 0 -62 21.5t-21 58.5q0 42 30 71t73 29q38 0 59 -22t21 -58q0 -43 -29.5 -71.5t-70.5 -28.5z" />
    <glyph glyph-name="at" unicode="@" horiz-adv-x="919" 
d="M421 -184q-119 0 -209.5 44t-141.5 130.5t-51 214.5q0 106 36 197.5t102 160t157.5 107t203.5 38.5q118 0 207.5 -44t139.5 -126t50 -194q0 -90 -32.5 -163t-91.5 -116t-138 -43q-48 0 -88 20t-47 68q-29 -38 -68.5 -55.5t-80.5 -17.5q-71 0 -109 46.5t-38 121.5
q0 49 16 96t45 84.5t68 59.5t85 22q44 0 77 -21.5t47 -61.5l25 70h133l-62 -276q-2 -10 -3 -18t-1 -15q0 -25 9.5 -34.5t26.5 -9.5q36 0 67 32.5t50 87.5t19 121q0 86 -35.5 150.5t-103.5 100.5t-165 36q-94 0 -169.5 -33t-128.5 -91.5t-81.5 -135t-28.5 -163.5
q0 -152 85.5 -231.5t234.5 -79.5q53 0 98.5 9.5t86.5 26.5l21 -75q-52 -21 -108 -30.5t-109 -9.5zM428 144q29 0 54.5 24t35.5 67l4 18q2 7 3 15.5t1 17.5q0 30 -15 48.5t-41 18.5q-30 0 -50.5 -24t-31 -57.5t-10.5 -62.5t12 -47t38 -18z" />
    <glyph glyph-name="A" unicode="A" horiz-adv-x="641" 
d="M-46 0l365 670h181l81 -670h-173l-9 127h-212l-62 -127h-171zM246 245h145l-18 260z" />
    <glyph glyph-name="B" unicode="B" horiz-adv-x="638" 
d="M21 0l143 670h252q113 0 163 -40t50 -111q0 -61 -34 -101t-94 -62q52 -18 75.5 -53t23.5 -84q0 -65 -36.5 -114t-104 -77t-160.5 -28h-278zM366 556h-60l-34 -159h60q64 0 94.5 26.5t30.5 65.5q0 33 -22 50t-69 17zM329 291h-79l-38 -177h74q72 0 105 29.5t33 72.5
q0 75 -95 75z" />
    <glyph glyph-name="C" unicode="C" horiz-adv-x="660" 
d="M309 -16q-133 0 -200 73t-67 205q0 82 26 158t75 136t119 95t158 35q76 0 132.5 -28t88 -88t31.5 -156h-178q0 83 -24 116.5t-67 33.5q-42 0 -76 -27.5t-57.5 -73t-36.5 -100t-13 -107.5q0 -150 101 -150q48 0 79.5 30.5t56.5 87.5h177q-39 -118 -122.5 -179t-202.5 -61z
" />
    <glyph glyph-name="D" unicode="D" horiz-adv-x="694" 
d="M21 0l142 670h214q154 0 232 -72.5t78 -205.5q0 -81 -29 -152t-86 -125t-141 -84.5t-195 -30.5h-215zM336 546h-33l-88 -421h40q81 0 136.5 34.5t84 92.5t28.5 131q0 85 -41 124t-127 39z" />
    <glyph glyph-name="E" unicode="E" horiz-adv-x="561" 
d="M21 0l142 670h438l-27 -123h-263l-31 -148h236l-25 -118h-236l-34 -158h269l-27 -123h-442z" />
    <glyph glyph-name="F" unicode="F" horiz-adv-x="560" 
d="M21 0l143 670h450l-28 -131h-272l-34 -160h225l-27 -127h-225l-54 -252h-178z" />
    <glyph glyph-name="G" unicode="G" horiz-adv-x="696" 
d="M325 -16q-133 0 -208 72.5t-75 214.5q0 84 27 159t77 132.5t120 90.5t156 33q78 0 138 -28t95 -80.5t36 -126.5h-181q-3 57 -29 85t-70 28q-47 0 -83 -27.5t-60 -72t-36 -97t-12 -103.5q0 -86 33 -122t91 -36q56 0 96 31.5t61 95.5h-124l27 120h284l-6 -36
q-17 -102 -62.5 -176.5t-119.5 -115.5t-175 -41z" />
    <glyph glyph-name="H" unicode="H" horiz-adv-x="703" 
d="M21 0l142 670h174l-58 -272h207l58 272h174l-142 -670h-174l58 275h-207l-58 -275h-174z" />
    <glyph glyph-name="I" unicode="I" horiz-adv-x="322" 
d="M21 0l142 670h174l-142 -670h-174z" />
    <glyph glyph-name="J" unicode="J" horiz-adv-x="585" 
d="M231 -16q-112 0 -169.5 51.5t-57.5 144.5q0 15 1.5 31t3.5 37h171q-2 -16 -3 -30t-1 -26q0 -37 16 -58t50 -21q38 0 63.5 30.5t41.5 103.5l91 423h174l-88 -406q-32 -148 -103 -214t-190 -66z" />
    <glyph glyph-name="K" unicode="K" horiz-adv-x="667" 
d="M21 0l142 670h174l-60 -283l254 283h207l-330 -330q52 -30 90 -85t60 -122t28 -133h-192q-1 45 -11 93.5t-28 91.5t-43 71.5t-56 32.5l-61 -289h-174z" />
    <glyph glyph-name="L" unicode="L" horiz-adv-x="542" 
d="M21 0l143 670h174l-114 -539h262l-29 -131h-436z" />
    <glyph glyph-name="M" unicode="M" horiz-adv-x="841" 
d="M-18 0l226 670h175l33 -426l234 426h170l-84 -670h-175l57 398l-194 -349h-107l-30 369l-136 -418h-169z" />
    <glyph glyph-name="N" unicode="N" horiz-adv-x="716" 
d="M21 0l142 670h162l148 -442l93 442h165l-143 -670h-161l-148 439l-93 -439h-165z" />
    <glyph glyph-name="O" unicode="O" horiz-adv-x="706" 
d="M323 -16q-133 0 -207 76.5t-74 218.5q0 81 25 154.5t73.5 130.5t118.5 89.5t159 32.5q133 0 207 -76.5t74 -218.5q0 -81 -25 -154.5t-73.5 -130.5t-118.5 -89.5t-159 -32.5zM332 106q46 0 81.5 28t59.5 73t36 97.5t12 100.5q0 80 -30.5 119.5t-81.5 39.5q-47 0 -82 -28
t-59 -73t-36 -97.5t-12 -100.5q0 -80 30.5 -119.5t81.5 -39.5z" />
    <glyph glyph-name="P" unicode="P" horiz-adv-x="613" 
d="M21 0l142 670h232q125 0 181.5 -50.5t56.5 -136.5q0 -73 -37.5 -129.5t-109.5 -88t-173 -31.5h-68l-50 -234h-174zM361 555h-48l-44 -206h54q67 0 100 35.5t33 85.5q0 45 -25 65t-70 20z" />
    <glyph glyph-name="Q" unicode="Q" horiz-adv-x="706" 
d="M580 -5l-32 -149q-107 6 -168 40.5t-85 98.5q-120 8 -186.5 84t-66.5 210q0 81 25 154.5t73.5 130.5t118.5 89.5t159 32.5q133 0 207 -76.5t74 -218.5q0 -90 -30.5 -170t-89.5 -138t-142 -83q23 -3 57.5 -4t85.5 -1zM332 106q46 0 81.5 28t59.5 73t36 97.5t12 100.5
q0 80 -30.5 119.5t-81.5 39.5q-47 0 -82 -28t-59 -73t-36 -97.5t-12 -100.5q0 -80 30.5 -119.5t81.5 -39.5z" />
    <glyph glyph-name="R" unicode="R" horiz-adv-x="645" 
d="M21 0l143 670h242q122 0 178.5 -48t56.5 -127t-53.5 -134.5t-161.5 -69.5q66 -35 103.5 -113t47.5 -178h-183q-9 110 -45 181.5t-98 79.5l-56 -261h-174zM366 555h-53l-40 -186h58q65 0 99 30t34 76q0 38 -24.5 59t-73.5 21z" />
    <glyph glyph-name="S" unicode="S" horiz-adv-x="602" 
d="M271 -16q-71 0 -128 21.5t-90.5 66t-33.5 113.5q0 19 2 31h168q-1 -10 -1 -15v-10q0 -53 27.5 -74t65.5 -21q49 0 73 27.5t24 60.5q0 38 -23.5 53.5t-49.5 25.5l-80 31q-23 9 -53 27.5t-52 52t-22 88.5q0 62 34 113t96 81t146 30q66 0 118 -21.5t82 -67.5t30 -119v-8
t-1 -11h-167q1 6 1.5 14.5t0.5 15.5q0 38 -22.5 61.5t-58.5 23.5q-40 0 -63 -24t-23 -60q0 -35 23 -51.5t45 -24.5l76 -29q19 -7 43 -19t46 -32t36.5 -51t14.5 -75q0 -60 -32.5 -111t-96 -82t-155.5 -31z" />
    <glyph glyph-name="T" unicode="T" horiz-adv-x="576" 
d="M146 0l116 543h-188l28 127h550l-28 -127h-188l-116 -543h-174z" />
    <glyph glyph-name="U" unicode="U" horiz-adv-x="685" 
d="M297 -16q-119 0 -179.5 55t-60.5 150q0 18 2.5 40t7.5 45l85 396h174l-88 -411q-4 -18 -5.5 -34.5t-1.5 -27.5q0 -41 22.5 -62.5t60.5 -21.5q53 0 87.5 42t51.5 122l85 393h174l-87 -405q-29 -132 -109 -206.5t-219 -74.5z" />
    <glyph glyph-name="V" unicode="V" horiz-adv-x="627" 
d="M163 0l-66 670h174l24 -478l243 478h170l-377 -670h-168z" />
    <glyph glyph-name="W" unicode="W" horiz-adv-x="890" 
d="M102 0l10 670h173l-15 -440l210 440h120l14 -438l185 438h167l-300 -670h-176l-7 429l-205 -429h-176z" />
    <glyph glyph-name="X" unicode="X" horiz-adv-x="647" 
d="M-48 0l303 347l-139 323h180l74 -199l164 199h187l-290 -329l145 -341h-179l-80 220l-178 -220h-187z" />
    <glyph glyph-name="Y" unicode="Y" horiz-adv-x="611" 
d="M155 0l59 272l-124 398h178l61 -270l188 270h182l-312 -403l-58 -267h-174z" />
    <glyph glyph-name="Z" unicode="Z" horiz-adv-x="600" 
d="M120 547l27 123h503l-22 -99l-399 -448h303l-27 -123h-518l22 99l398 448h-287z" />
    <glyph glyph-name="bracketleft" unicode="[" horiz-adv-x="359" 
d="M-4 -100l182 820h264l-23 -107h-112l-134 -606h111l-24 -107h-264z" />
    <glyph glyph-name="backslash" unicode="\" horiz-adv-x="370" 
d="M158 -104l-71 789h143l71 -789h-143z" />
    <glyph glyph-name="bracketright" unicode="]" horiz-adv-x="359" 
d="M389 720l-182 -820h-264l23 107h112l134 606h-111l24 107h264z" />
    <glyph glyph-name="asciicircum" unicode="^" horiz-adv-x="590" 
d="M89 322l234 338h122l80 -338h-116l-44 231l-150 -231h-126z" />
    <glyph glyph-name="underscore" unicode="_" horiz-adv-x="475" 
d="M-84 -125l9 40h475l-9 -40h-475z" />
    <glyph glyph-name="grave" unicode="`" horiz-adv-x="500" 
d="M285 781l129 -165l-67 -60l-157 137z" />
    <glyph glyph-name="a" unicode="a" horiz-adv-x="533" 
d="M134 -13q-58 0 -96.5 34.5t-38.5 93.5q0 86 81 138.5t254 57.5l3 13q3 12 4.5 24t1.5 20q0 23 -14.5 37t-40.5 14q-32 0 -51 -21t-30 -50h-155q25 75 85.5 122t164.5 47q98 0 146 -43.5t48 -124.5q0 -37 -9 -81l-58 -268h-144l6 66q-27 -37 -66.5 -58t-90.5 -21zM162 146
q0 -24 14 -39t40 -15q30 0 55 24.5t38 82.5l9 39q-89 -2 -122.5 -28.5t-33.5 -63.5z" />
    <glyph glyph-name="b" unicode="b" horiz-adv-x="583" 
d="M308 -13q-52 0 -87 24.5t-46 67.5l-23 -79h-144l151 700h166l-52 -242q54 59 133 59q69 0 110 -50.5t41 -147.5q0 -60 -17 -119t-49 -107t-78.5 -77t-104.5 -29zM266 99q27 0 49 20.5t37.5 53t24 70t8.5 72.5q0 37 -11.5 60.5t-40.5 23.5q-27 0 -50 -19.5t-39 -51
t-23 -67.5l-3 -15q-2 -7 -5 -25t-3 -39q0 -43 15 -63t41 -20z" />
    <glyph glyph-name="c" unicode="c" horiz-adv-x="536" 
d="M524 323h-158q-2 35 -13 62t-42 27q-26 0 -47 -20.5t-36 -53.5t-23 -72t-8 -76q0 -42 12.5 -70t46.5 -28q28 0 49.5 23t33.5 73h161q-24 -95 -90 -148t-166 -53q-103 0 -160.5 56.5t-57.5 161.5q0 59 19.5 114.5t57 100t92 71t124.5 26.5q71 0 115.5 -27t66 -71t23.5 -96
z" />
    <glyph glyph-name="d" unicode="d" horiz-adv-x="583" 
d="M178 -13q-70 0 -111 51t-41 147q0 60 17 119t49 107t78 77t105 29q89 0 123 -65l52 248h166l-149 -700h-144l11 78q-29 -45 -69.5 -68t-86.5 -23zM252 105q24 0 46.5 18.5t39 49.5t24.5 70l3 15q1 7 4.5 25t3.5 39q0 43 -15.5 63t-40.5 20q-27 0 -49 -20.5t-37.5 -53
t-24 -71t-8.5 -74.5q0 -35 11.5 -58t42.5 -23z" />
    <glyph glyph-name="e" unicode="e" horiz-adv-x="552" 
d="M247 -13q-105 0 -163 57t-58 162q0 57 18.5 112.5t55.5 100.5t91 71.5t126 26.5q73 0 119 -28.5t68 -77.5t22 -109q0 -20 -3 -41.5t-7 -43.5h-327q-1 -10 -1 -20q0 -55 18 -80t53 -25q32 0 50.5 18t27.5 47h162q-31 -90 -97.5 -130t-154.5 -40zM308 412
q-40 0 -66.5 -34.5t-40.5 -81.5h167q1 10 1 21q0 41 -13.5 68t-47.5 27z" />
    <glyph glyph-name="f" unicode="f" horiz-adv-x="366" 
d="M19 0l84 397h-60l23 107h60l3 15q20 95 72 144.5t144 49.5q61 0 107 -26l-34 -96q-27 14 -51 14q-25 0 -43 -16.5t-27 -58.5l-5 -26h102l-23 -107h-102l-84 -397h-166z" />
    <glyph glyph-name="g" unicode="g" horiz-adv-x="575" 
d="M208 -123q37 0 59 30.5t32 76.5l18 86q-58 -70 -144 -70q-71 0 -113 49t-42 143q0 58 17 116t49 105t78 75.5t104 28.5q51 0 86.5 -24t46.5 -68l23 79h144l-105 -494q-24 -113 -88 -173t-172 -60q-96 0 -149 45.5t-60 127.5h155q0 -35 17 -54t44 -19zM241 118q27 0 50 18
t39 48t24 65l3 14q1 7 4 21.5t3 35.5q0 44 -15 64.5t-41 20.5q-27 0 -49 -19.5t-37.5 -51.5t-24 -68t-8.5 -69q0 -36 11.5 -57.5t40.5 -21.5z" />
    <glyph glyph-name="h" unicode="h" horiz-adv-x="587" 
d="M10 0l149 700h166l-52 -239q56 56 137 56q74 0 107 -42t33 -101q0 -19 -2.5 -35.5t-6.5 -33.5l-65 -305h-166l67 312q2 11 3.5 20t1.5 18q0 55 -50 55q-35 0 -58.5 -29.5t-34.5 -78.5l-63 -297h-166z" />
    <glyph glyph-name="i" unicode="i" horiz-adv-x="292" 
d="M220 563q-38 0 -60 22.5t-22 55.5q0 41 30 70.5t75 29.5q37 0 59.5 -22.5t22.5 -55.5q0 -41 -30.5 -70.5t-74.5 -29.5zM10 0l107 504h166l-107 -504h-166z" />
    <glyph glyph-name="j" unicode="j" horiz-adv-x="286" 
d="M220 563q-38 0 -60.5 22.5t-22.5 56.5q0 40 30 69.5t74 29.5q38 0 60.5 -22.5t22.5 -56.5q0 -40 -30 -69.5t-74 -29.5zM-52 -223q-28 0 -53 4.5t-42 14.5l36 104q22 -7 39 -7q27 0 46.5 20.5t29.5 65.5l112 525h166l-110 -520q-23 -111 -79 -159t-145 -48z" />
    <glyph glyph-name="k" unicode="k" horiz-adv-x="548" 
d="M6 0l153 700h166l-87 -396l177 200h179l-236 -239q53 -39 89 -111t43 -154h-172q-9 71 -31.5 127.5t-64.5 99.5l-50 -227h-166z" />
    <glyph glyph-name="l" unicode="l" horiz-adv-x="292" 
d="M10 0l149 700h166l-149 -700h-166z" />
    <glyph glyph-name="m" unicode="m" horiz-adv-x="853" 
d="M10 0l110 504h144l-10 -67q27 39 63.5 59.5t83.5 20.5q52 0 82.5 -24t42.5 -64q27 43 67 65.5t91 22.5q68 0 100 -41t32 -103q0 -16 -2 -33t-6 -35l-67 -305h-166l68 312q2 11 3.5 21.5t1.5 18.5q0 53 -42 53q-29 0 -48.5 -23t-29.5 -62q-1 -7 -3 -15l-68 -305h-166
l69 312q2 11 3.5 21t1.5 19q0 53 -42 53q-59 0 -83 -107l-64 -298h-166z" />
    <glyph glyph-name="n" unicode="n" horiz-adv-x="586" 
d="M10 0l106 504h144l-11 -71q61 84 159 84q70 0 105.5 -41.5t35.5 -104.5q0 -16 -2 -32.5t-6 -33.5l-65 -305h-166l67 312q2 11 3.5 20t1.5 18q0 55 -50 55q-35 0 -58.5 -29.5t-34.5 -78.5l-63 -297h-166z" />
    <glyph glyph-name="o" unicode="o" horiz-adv-x="570" 
d="M250 -13q-72 0 -122 28t-76 77.5t-26 114.5q0 55 19 110t56.5 100t92.5 72.5t126 27.5q72 0 122 -28.5t76 -78.5t26 -114q0 -55 -19 -110t-56.5 -100t-92.5 -72t-126 -27zM255 92q30 0 52 21.5t36.5 56t22 73.5t7.5 74q0 44 -13 69.5t-44 25.5q-30 0 -52.5 -22t-37 -56.5
t-22 -73.5t-7.5 -73q0 -43 13 -69t45 -26z" />
    <glyph glyph-name="p" unicode="p" horiz-adv-x="577" 
d="M-36 -210l152 714h144l-11 -78q29 45 69.5 68t86.5 23q71 0 111.5 -51t40.5 -147q0 -60 -17 -119t-49 -107t-78.5 -77t-104.5 -29q-89 0 -123 65l-55 -262h-166zM266 99q27 0 49 20.5t37.5 53t24 71t8.5 74.5q0 35 -11.5 58t-42.5 23q-24 0 -46.5 -18.5t-39.5 -49.5
t-24 -70l-3 -15q-2 -7 -5 -25t-3 -39q0 -43 15 -63t41 -20z" />
    <glyph glyph-name="q" unicode="q" horiz-adv-x="583" 
d="M177 -13q-69 0 -110 50.5t-41 147.5q0 60 17 119t49 107t78 77t105 29q52 0 87 -24.5t46 -67.5l23 79h144l-154 -714h-166l55 256q-54 -59 -133 -59zM250 105q27 0 50 19.5t39 51t23 67.5l3 15q1 7 4.5 25t3.5 39q0 43 -15.5 63t-40.5 20q-27 0 -49 -20.5t-37.5 -53
t-24 -70t-8.5 -72.5q0 -37 11.5 -60.5t40.5 -23.5z" />
    <glyph glyph-name="r" unicode="r" horiz-adv-x="397" 
d="M9 0l107 504h144l-15 -103q20 43 56 77t90 34q17 0 30 -3l-34 -155q-17 5 -36 5q-51 0 -85.5 -42.5t-50.5 -117.5l-42 -199h-164z" />
    <glyph glyph-name="s" unicode="s" horiz-adv-x="500" 
d="M221 -13q-85 0 -133 26t-68 65.5t-22 80.5h158q2 -33 19 -53.5t52 -20.5q26 0 45.5 12.5t19.5 38.5q0 25 -17 36.5t-48 22.5l-53 20q-27 10 -54.5 26t-45.5 42t-18 66q0 46 26.5 84t77 61t120.5 23t114 -22t66.5 -59.5t26.5 -81.5h-154q-2 26 -15.5 45.5t-47.5 19.5
q-26 0 -42 -13.5t-16 -35.5q0 -24 18 -35.5t44 -21.5l54 -20q24 -9 52 -24.5t48 -43t20 -72.5q0 -73 -58.5 -119.5t-168.5 -46.5z" />
    <glyph glyph-name="t" unicode="t" horiz-adv-x="393" 
d="M205 -13q-73 0 -112.5 34t-39.5 99q0 25 6 52l49 228h-60l22 104h60l30 142h166l-30 -142h113l-22 -104h-114l-49 -230q-3 -14 -3 -23q0 -44 48 -44q21 0 41 6l14 -101q-26 -9 -56 -15t-63 -6z" />
    <glyph glyph-name="u" unicode="u" horiz-adv-x="575" 
d="M171 -13q-69 0 -101.5 41.5t-32.5 102.5q0 17 2 34t6 34l65 305h166l-67 -313q-2 -11 -3.5 -20.5t-1.5 -18.5q0 -53 45 -53q32 0 55.5 29t33.5 78l63 298h166l-108 -504h-145l10 70q-27 -39 -65.5 -61t-87.5 -22z" />
    <glyph glyph-name="v" unicode="v" horiz-adv-x="510" 
d="M121 0l-62 504h164l17 -345l160 345h163l-273 -504h-169z" />
    <glyph glyph-name="w" unicode="w" horiz-adv-x="749" 
d="M73 0l-14 504h173l-25 -345l158 345h145l-4 -342l140 342h156l-255 -504h-169l-2 277l-135 -277h-168z" />
    <glyph glyph-name="x" unicode="x" horiz-adv-x="513" 
d="M-54 0l233 258l-106 246h175l40 -136l108 136h173l-223 -245l110 -259h-176l-43 146l-117 -146h-174z" />
    <glyph glyph-name="y" unicode="y" horiz-adv-x="507" 
d="M2 -223q-33 0 -58 6.5t-39 15.5l40 106q31 -13 58 -13q24 0 45.5 15.5t49.5 60.5l26 41l-64 495h165l11 -323l162 323h162l-339 -573q-45 -77 -94 -115.5t-125 -38.5z" />
    <glyph glyph-name="z" unicode="z" horiz-adv-x="470" 
d="M-17 0l17 80l271 305h-202l26 119h398l-17 -80l-279 -305h226l-26 -119h-414z" />
    <glyph glyph-name="braceleft" unicode="{" horiz-adv-x="383" 
d="M232 -100q-96 0 -134.5 32t-38.5 81q0 30 10.5 61t20.5 57q10 24 17.5 46.5t7.5 41.5q0 23 -14 37.5t-45 14.5h-27l25 110h27q41 0 61.5 16.5t28 45.5t8.5 67q3 86 27.5 131.5t76 62t137.5 16.5h50l-24 -107h-33q-38 0 -56.5 -15.5t-25 -44.5t-8.5 -72q-3 -72 -31 -114
t-93 -52q26 -8 45 -28t19 -54q0 -23 -8.5 -48.5t-19.5 -50.5q-9 -22 -16.5 -43.5t-7.5 -38.5q0 -22 15 -33.5t50 -11.5h36l-24 -107h-56z" />
    <glyph glyph-name="bar" unicode="|" horiz-adv-x="285" 
d="M-6 -100l189 820h134l-189 -820h-134z" />
    <glyph glyph-name="braceright" unicode="}" horiz-adv-x="383" 
d="M177 720q96 0 134.5 -32t38.5 -81q0 -30 -10 -61t-21 -57q-10 -24 -17.5 -46.5t-7.5 -41.5q0 -23 14 -37.5t45 -14.5h27l-25 -110h-27q-42 0 -62 -16.5t-27 -45.5t-9 -67q-4 -86 -28 -131.5t-76 -62t-137 -16.5h-50l24 107h33q38 0 56.5 15.5t25 44.5t8.5 72q3 72 31 114
t93 52q-26 8 -45 28t-19 54q0 23 9 48.5t19 50.5q9 22 16.5 43.5t7.5 38.5q0 22 -15 33.5t-50 11.5h-36l24 107h56z" />
    <glyph glyph-name="asciitilde" unicode="~" horiz-adv-x="590" 
d="M50 205q11 89 53 144.5t111 55.5q50 0 75 -18.5t45 -43.5q17 -22 28 -33t24 -11q39 0 54 99h114q-11 -89 -53.5 -144.5t-109.5 -55.5q-51 0 -77 19.5t-44 42.5t-28.5 33.5t-23.5 10.5q-19 0 -32.5 -23.5t-21.5 -75.5h-114z" />
    <glyph glyph-name="uni00A0" unicode="&#xa0;" horiz-adv-x="190" 
 />
    <glyph glyph-name="exclamdown" unicode="&#xa1;" horiz-adv-x="273" 
d="M186 514q40 0 61.5 -21.5t21.5 -58.5q0 -42 -29.5 -71t-73.5 -29q-38 0 -59 22t-21 58q0 43 29.5 71.5t70.5 28.5zM209 292l-71 -458h-175l132 458h114z" />
    <glyph glyph-name="cent" unicode="&#xa2;" horiz-adv-x="590" 
d="M206 0l16 74q-74 14 -117 66.5t-43 142.5q0 81 35 149t95.5 110.5t139.5 47.5l15 70h66l-16 -74q70 -11 110.5 -58.5t40.5 -133.5h-146q0 26 -7 53.5t-29 38.5l-66 -314q23 6 43.5 27t34.5 64h145q-21 -67 -58 -108.5t-83.5 -61.5t-94.5 -23l-15 -70h-66zM220 267
q0 -40 9 -61.5t24 -29.5l66 310q-27 -10 -46 -35.5t-30.5 -59t-17 -66.5t-5.5 -58z" />
    <glyph glyph-name="sterling" unicode="&#xa3;" horiz-adv-x="590" 
d="M433 266h-113q-8 -51 -33.5 -89t-71.5 -57h296l-26 -120h-488l23 106q44 1 74 26t44.5 61.5t14.5 72.5h-99l23 110h71v27q0 88 32.5 147.5t89 89.5t127.5 30q97 0 149.5 -49.5t55.5 -136.5h-169q-1 46 -14.5 62t-33.5 16q-35 0 -51 -37t-16 -87q0 -17 0.5 -32.5
t1.5 -29.5h136z" />
    <glyph glyph-name="currency" unicode="&#xa4;" horiz-adv-x="590" 
d="M100 301q0 40 14 78t38 70l-65 74l79 71l64 -74q27 16 57 25t62 9q66 0 114 -31l77 71l66 -71l-80 -74q17 -38 17 -87q0 -40 -14 -78t-38 -70l65 -74l-79 -71l-64 74q-27 -16 -57 -25t-62 -9q-66 0 -114 31l-77 -71l-66 71l80 74q-17 38 -17 87zM225 302
q0 -41 19.5 -64.5t54.5 -23.5t62 21t42 54.5t15 71.5q0 41 -19.5 64.5t-54.5 23.5t-62 -21t-42 -54.5t-15 -71.5z" />
    <glyph glyph-name="yen" unicode="&#xa5;" horiz-adv-x="590" 
d="M160 0l25 117h-128l16 76h128l12 57h-128l16 76h102l-91 328h162l51 -260l160 260h165l-231 -328h98l-16 -76h-128l-12 -57h128l-16 -76h-128l-25 -117h-160z" />
    <glyph glyph-name="section" unicode="&#xa7;" horiz-adv-x="504" 
d="M529 516h-150q0 34 -16 55.5t-53 21.5q-34 0 -53.5 -21.5t-19.5 -57.5q0 -54 51 -74l167 -65l-25 -117l-194 68q-87 31 -119.5 71.5t-32.5 102.5q0 54 29 96t81.5 66t121.5 24q38 0 76 -8t69 -27t49.5 -52t18.5 -83zM-11 61h150q0 -34 16 -55.5t53 -21.5q34 0 53.5 21.5
t19.5 57.5q0 26 -12 44.5t-39 29.5l-167 65l25 117l194 -68q87 -31 119.5 -71.5t32.5 -102.5q0 -55 -29 -96.5t-81.5 -65.5t-121.5 -24q-38 0 -76 8t-69 27t-49.5 52t-18.5 83z" />
    <glyph glyph-name="dieresis" unicode="&#xa8;" horiz-adv-x="500" 
d="M210 563q-33 0 -52 19.5t-19 47.5q0 35 26 61t65 26q33 0 52 -19.5t19 -47.5q0 -35 -26.5 -61t-64.5 -26zM410 563q-33 0 -52 19.5t-19 47.5q0 35 26 61t65 26q33 0 52 -19.5t19 -47.5q0 -35 -26.5 -61t-64.5 -26z" />
    <glyph glyph-name="copyright" unicode="&#xa9;" horiz-adv-x="833" 
d="M437 0q-97 0 -173 43t-119 119t-43 173t43 173t119 119t173 43t173 -43t119 -119t43 -173t-43 -173t-119 -119t-173 -43zM437 73q76 0 133 33t88.5 91.5t31.5 137.5t-31.5 137.5t-88.5 91.5t-133 33t-133 -33t-88.5 -91.5t-31.5 -137.5t31.5 -137.5t88.5 -91.5t133 -33z
M445 142q-53 0 -95 23t-66 66.5t-24 103.5q0 59 25 102.5t67 67.5t93 24q62 0 110.5 -36t59.5 -111h-126q-4 34 -16 48t-28 14q-21 0 -37 -25t-16 -84q0 -58 16 -83t37 -25q17 0 29 13.5t17 44.5h125q-14 -75 -62.5 -109t-108.5 -34z" />
    <glyph glyph-name="ordfeminine" unicode="&#xaa;" horiz-adv-x="437" 
d="M149 278q-45 0 -69.5 23t-24.5 66q0 66 66 104.5t181 41.5l2 11q3 14 3 29q0 37 -30 37q-36 0 -50 -47h-121q20 60 69 93.5t117 33.5t108 -30.5t40 -81.5q0 -30 -6 -58l-46 -215h-115l2 51q-22 -27 -55 -42.5t-71 -15.5zM221 363q22 0 39 17t23 44l8 37q-98 -6 -98 -67
q0 -31 28 -31z" />
    <glyph glyph-name="guillemotleft" unicode="&#xab;" horiz-adv-x="621" 
d="M126 52l-96 201l174 201h164l-182 -211l99 -191h-159zM406 52l-96 201l174 201h164l-182 -211l99 -191h-159z" />
    <glyph glyph-name="logicalnot" unicode="&#xac;" horiz-adv-x="590" 
d="M372 181l31 140h-305l25 113h420l-56 -253h-115z" />
    <glyph glyph-name="uni00AD" unicode="&#xad;" horiz-adv-x="414" 
d="M35 184l28 126h314l-28 -126h-314z" />
    <glyph glyph-name="registered" unicode="&#xae;" horiz-adv-x="550" 
d="M317 188q-73 0 -128 31t-86 86t-31 129t31 129t86 86t128 31t128 -31t86 -86t31 -129t-31 -129t-86 -86t-128 -31zM317 247q82 0 129 49.5t47 137.5t-47 138t-129 50q-85 0 -130.5 -50t-45.5 -138t45.5 -137.5t130.5 -49.5zM219 314v247h105q47 0 72 -19.5t25 -53.5
q0 -26 -16 -41t-41 -21q28 -12 45 -41.5t24 -70.5h-69q-8 44 -25 68.5t-49 24.5h-5v-93h-66zM312 517h-27v-66h27q23 0 32.5 9t9.5 25q0 13 -9.5 22.5t-32.5 9.5z" />
    <glyph glyph-name="macron" unicode="&#xaf;" horiz-adv-x="500" 
d="M151 594l22 101h325l-22 -101h-325z" />
    <glyph glyph-name="degree" unicode="&#xb0;" horiz-adv-x="306" 
d="M198 424q-60 0 -92 34t-32 87q0 40 20.5 75.5t56.5 57.5t82 22q60 0 92 -34t32 -87q0 -40 -20.5 -75.5t-56.5 -57.5t-82 -22zM205 494q31 0 49.5 25.5t18.5 53.5q0 57 -47 57q-31 0 -49.5 -25.5t-18.5 -53.5q0 -57 47 -57z" />
    <glyph glyph-name="uni00B2" unicode="&#xb2;" horiz-adv-x="358" 
d="M48 378l5 22q8 34 21 59.5t38.5 49t70.5 50.5l48 28q36 21 52 39t16 44q0 33 -28 33q-18 0 -31.5 -14t-23.5 -57h-109q16 74 63.5 111t111.5 37q67 0 101.5 -29.5t34.5 -81.5q0 -41 -29 -75.5t-79 -64.5l-55 -33q-17 -10 -27.5 -18t-16.5 -15h162l-20 -85h-305z" />
    <glyph glyph-name="uni00B3" unicode="&#xb3;" horiz-adv-x="358" 
d="M215 369q-67 0 -109.5 29t-42.5 91v9t1 8h109q-1 -5 -1 -9v-6q0 -24 11.5 -34.5t31.5 -10.5q27 0 40 17.5t13 40.5q0 49 -54 49h-17l15 67h27q26 0 39 13.5t13 36.5q0 14 -8 23.5t-24 9.5q-13 0 -25 -9.5t-17 -31.5h-108q32 118 163 118q61 0 98.5 -28t37.5 -79
q0 -33 -18.5 -56t-52.5 -38q26 -13 36.5 -34.5t10.5 -47.5q0 -55 -46.5 -91.5t-122.5 -36.5z" />
    <glyph glyph-name="acute" unicode="&#xb4;" horiz-adv-x="500" 
d="M193 635l180 146l70 -103l-199 -114z" />
    <glyph glyph-name="paragraph" unicode="&#xb6;" horiz-adv-x="600" 
d="M253 215l-13 1q-92 8 -140 59t-48 136q0 66 30.5 125t89.5 96.5t146 37.5h294l-165 -775h-94l144 677h-74l-144 -677h-94z" />
    <glyph glyph-name="periodcentered" unicode="&#xb7;" horiz-adv-x="220" 
d="M99 158q-40 0 -61.5 21.5t-21.5 58.5q0 42 29.5 71t73.5 29q38 0 59 -22t21 -58q0 -43 -29.5 -71.5t-70.5 -28.5z" />
    <glyph glyph-name="cedilla" unicode="&#xb8;" horiz-adv-x="500" 
d="M165 0h64l-19 -57q7 1 14 1q37 0 63 -24t26 -71q0 -53 -37.5 -87t-107.5 -34q-40 0 -83 13l16 72q28 -9 57 -9q58 0 58 45q0 34 -33 34q-16 0 -29 -11h-28z" />
    <glyph glyph-name="uni00B9" unicode="&#xb9;" horiz-adv-x="278" 
d="M129 378l56 267q-48 -14 -95 -20l22 93q35 6 67 17.5t62 34.5h90l-84 -392h-118z" />
    <glyph glyph-name="ordmasculine" unicode="&#xba;" horiz-adv-x="444" 
d="M244 278q-74 0 -122.5 42.5t-48.5 122.5q0 56 26.5 108t75.5 85.5t118 33.5q74 0 122.5 -42.5t48.5 -122.5q0 -56 -26 -108t-75.5 -85.5t-118.5 -33.5zM248 364q21 0 36 17t24.5 43t14 52t4.5 44q0 64 -38 64q-21 0 -36 -17t-24.5 -43t-14 -52t-4.5 -44q0 -64 38 -64z
" />
    <glyph glyph-name="guillemotright" unicode="&#xbb;" horiz-adv-x="621" 
d="M215 454l96 -201l-174 -201h-164l182 211l-99 191h159zM495 454l96 -201l-174 -201h-164l182 211l-99 191h159z" />
    <glyph glyph-name="onequarter" unicode="&#xbc;" horiz-adv-x="817" 
d="M110 0l456 660h137l-456 -660h-137zM601 0l15 72h-176l16 75l238 245h100l-52 -238h42l-17 -82h-42l-16 -72h-108zM555 154h79l21 101zM106 268l56 267q-48 -14 -95 -20l22 93q35 6 67 17.5t62 34.5h90l-84 -392h-118z" />
    <glyph glyph-name="onehalf" unicode="&#xbd;" horiz-adv-x="853" 
d="M110 0l456 660h137l-456 -660h-137zM468 0l5 22q8 34 21 59.5t38.5 49t70.5 50.5l48 28q36 21 52 39t16 44q0 33 -28 33q-18 0 -31.5 -14t-23.5 -57h-109q16 74 63.5 111t111.5 37q67 0 101.5 -29.5t34.5 -81.5q0 -41 -29 -75.5t-79 -64.5l-55 -33q-17 -10 -27.5 -18
t-16.5 -15h162l-20 -85h-305zM106 268l56 267q-48 -14 -95 -20l22 93q35 6 67 17.5t62 34.5h90l-84 -392h-118z" />
    <glyph glyph-name="threequarters" unicode="&#xbe;" horiz-adv-x="887" 
d="M180 0l456 660h137l-456 -660h-137zM671 0l15 72h-176l16 75l238 245h100l-52 -238h42l-17 -82h-42l-16 -72h-108zM625 154h79l21 101zM193 259q-67 0 -109.5 29t-42.5 91v9t1 8h109q-1 -5 -1 -9v-6q0 -24 11.5 -34.5t31.5 -10.5q27 0 40 17.5t13 40.5q0 49 -54 49h-17
l15 67h27q26 0 39 13.5t13 36.5q0 14 -8 23.5t-24 9.5q-13 0 -25 -9.5t-17 -31.5h-108q32 118 163 118q61 0 98.5 -28t37.5 -79q0 -33 -18.5 -56t-52.5 -38q26 -13 36.5 -34.5t10.5 -47.5q0 -55 -46.5 -91.5t-122.5 -36.5z" />
    <glyph glyph-name="questiondown" unicode="&#xbf;" horiz-adv-x="462" 
d="M310 514q40 0 61.5 -21.5t21.5 -58.5q0 -42 -29.5 -71t-73.5 -29q-38 0 -59 22t-21 58q0 43 29.5 71.5t70.5 28.5zM357 292l-7 -37q-8 -45 -33 -75t-72 -60l-42 -27q-31 -20 -50 -41.5t-19 -53.5q0 -28 14 -44t39 -16q27 0 49 22t32 67h161q-23 -99 -91 -154t-169 -55
q-91 0 -150 44t-59 125q0 67 39 110.5t100 80.5l50 30q26 16 38.5 34.5t16.5 42.5l1 7h152z" />
    <glyph glyph-name="Agrave" unicode="&#xc0;" horiz-adv-x="641" 
d="M-46 0l365 670h181l81 -670h-173l-9 127h-212l-62 -127h-171zM246 245h145l-18 260zM352 940l207 -150l-50 -78l-232 109z" />
    <glyph glyph-name="Aacute" unicode="&#xc1;" horiz-adv-x="641" 
d="M-46 0l365 670h181l81 -670h-173l-9 127h-212l-62 -127h-171zM246 245h145l-18 260zM308 803l246 137l57 -129l-264 -93z" />
    <glyph glyph-name="Acircumflex" unicode="&#xc2;" horiz-adv-x="641" 
d="M-46 0l365 670h181l81 -670h-173l-9 127h-212l-62 -127h-171zM246 245h145l-18 260zM484 915l139 -140l-55 -65l-131 88l-154 -88l-48 74l178 131h71z" />
    <glyph glyph-name="Atilde" unicode="&#xc3;" horiz-adv-x="641" 
d="M-46 0l365 670h181l81 -670h-173l-9 127h-212l-62 -127h-171zM246 245h145l-18 260zM409 778q-10 10 -20 16.5t-24 6.5q-17 0 -29.5 -13.5t-23.5 -48.5h-94q8 47 28.5 85.5t52.5 61.5t73 23q34 0 55.5 -14.5t39.5 -30.5q10 -9 20 -16t24 -7q16 0 30 13.5t24 48.5h93
q-12 -75 -53.5 -122.5t-101.5 -47.5q-33 0 -53.5 13.5t-40.5 31.5z" />
    <glyph glyph-name="Adieresis" unicode="&#xc4;" horiz-adv-x="641" 
d="M-46 0l365 670h181l81 -670h-173l-9 127h-212l-62 -127h-171zM246 245h145l-18 260zM314 738q-35 0 -55.5 20.5t-20.5 51.5q0 38 27.5 65t69.5 27q34 0 54.5 -20.5t20.5 -51.5q0 -38 -27.5 -65t-68.5 -27zM544 738q-35 0 -55.5 20.5t-20.5 51.5q0 38 27.5 65t69.5 27
q34 0 54.5 -20.5t20.5 -51.5q0 -38 -27.5 -65t-68.5 -27z" />
    <glyph glyph-name="Aring" unicode="&#xc5;" horiz-adv-x="641" 
d="M-46 0l365 670h181l81 -670h-173l-9 127h-212l-62 -127h-171zM246 245h145l-18 260zM431 719q-56 0 -84.5 31t-28.5 77q0 36 17.5 66.5t48 48.5t69.5 18q56 0 84.5 -31t28.5 -77q0 -36 -17.5 -66t-48 -48.5t-69.5 -18.5zM434 787q24 0 39.5 18.5t15.5 45.5q0 19 -10 30
t-29 11q-24 0 -39.5 -18.5t-15.5 -45.5q0 -19 10 -30t29 -11z" />
    <glyph glyph-name="AE" unicode="&#xc6;" horiz-adv-x="930" 
d="M-49 0l508 670h511l-27 -123h-267l-31 -148h241l-26 -118h-240l-34 -158h273l-27 -123h-440l27 127h-205l-90 -127h-173zM297 245h147l63 296z" />
    <glyph glyph-name="Ccedilla" unicode="&#xc7;" horiz-adv-x="660" 
d="M309 -16q-133 0 -200 73t-67 205q0 82 26 158t75 136t119 95t158 35q76 0 132.5 -28t88 -88t31.5 -156h-178q0 83 -24 116.5t-67 33.5q-42 0 -76 -27.5t-57.5 -73t-36.5 -100t-13 -107.5q0 -150 101 -150q48 0 79.5 30.5t56.5 87.5h177q-39 -118 -122.5 -179t-202.5 -61z
M242 0h73l-20 -56h7q44 0 72.5 -25t28.5 -73q0 -55 -40 -89.5t-116 -34.5q-19 0 -43.5 3t-49.5 12l18 76q16 -5 35 -8.5t36 -3.5q31 0 46 12t15 32q0 19 -10.5 27.5t-25.5 8.5q-21 0 -38 -11h-29z" />
    <glyph glyph-name="Egrave" unicode="&#xc8;" horiz-adv-x="561" 
d="M21 0l142 670h438l-27 -123h-263l-31 -148h236l-25 -118h-236l-34 -158h269l-27 -123h-442zM333 940l207 -150l-50 -78l-232 109z" />
    <glyph glyph-name="Eacute" unicode="&#xc9;" horiz-adv-x="561" 
d="M21 0l142 670h438l-27 -123h-263l-31 -148h236l-25 -118h-236l-34 -158h269l-27 -123h-442zM289 803l246 137l57 -129l-264 -93z" />
    <glyph glyph-name="Ecircumflex" unicode="&#xca;" horiz-adv-x="561" 
d="M21 0l142 670h438l-27 -123h-263l-31 -148h236l-25 -118h-236l-34 -158h269l-27 -123h-442zM465 915l139 -140l-55 -65l-131 88l-154 -88l-48 74l178 131h71z" />
    <glyph glyph-name="Edieresis" unicode="&#xcb;" horiz-adv-x="561" 
d="M21 0l142 670h438l-27 -123h-263l-31 -148h236l-25 -118h-236l-34 -158h269l-27 -123h-442zM295 738q-35 0 -55.5 20.5t-20.5 51.5q0 38 27.5 65t69.5 27q34 0 54.5 -20.5t20.5 -51.5q0 -38 -27.5 -65t-68.5 -27zM525 738q-35 0 -55.5 20.5t-20.5 51.5q0 38 27.5 65
t69.5 27q34 0 54.5 -20.5t20.5 -51.5q0 -38 -27.5 -65t-68.5 -27z" />
    <glyph glyph-name="Igrave" unicode="&#xcc;" horiz-adv-x="322" 
d="M21 0l142 670h174l-142 -670h-174zM198 940l207 -150l-50 -78l-232 109z" />
    <glyph glyph-name="Iacute" unicode="&#xcd;" horiz-adv-x="322" 
d="M21 0l142 670h174l-142 -670h-174zM154 803l246 137l57 -129l-264 -93z" />
    <glyph glyph-name="Icircumflex" unicode="&#xce;" horiz-adv-x="322" 
d="M21 0l142 670h174l-142 -670h-174zM330 915l139 -140l-55 -65l-131 88l-154 -88l-48 74l178 131h71z" />
    <glyph glyph-name="Idieresis" unicode="&#xcf;" horiz-adv-x="322" 
d="M21 0l142 670h174l-142 -670h-174zM160 738q-35 0 -55.5 20.5t-20.5 51.5q0 38 27.5 65t69.5 27q34 0 54.5 -20.5t20.5 -51.5q0 -38 -27.5 -65t-68.5 -27zM390 738q-35 0 -55.5 20.5t-20.5 51.5q0 38 27.5 65t69.5 27q34 0 54.5 -20.5t20.5 -51.5q0 -38 -27.5 -65
t-68.5 -27z" />
    <glyph glyph-name="Eth" unicode="&#xd0;" horiz-adv-x="707" 
d="M34 0l60 282h-78l25 115h77l58 273h214q154 0 232 -72.5t78 -205.5q0 -81 -29 -152t-86 -125t-141 -84.5t-195 -30.5h-215zM397 282h-136l-33 -157h40q81 0 136.5 34.5t84 92.5t28.5 131q0 85 -41 124t-127 39h-33l-31 -149h137z" />
    <glyph glyph-name="Ntilde" unicode="&#xd1;" horiz-adv-x="716" 
d="M21 0l142 670h162l148 -442l93 442h165l-143 -670h-161l-148 439l-93 -439h-165zM450 778q-10 10 -20 16.5t-24 6.5q-17 0 -29.5 -13.5t-23.5 -48.5h-94q8 47 28.5 85.5t52.5 61.5t73 23q34 0 55.5 -14.5t39.5 -30.5q10 -9 20 -16t24 -7q16 0 30 13.5t24 48.5h93
q-12 -75 -53.5 -122.5t-101.5 -47.5q-33 0 -53.5 13.5t-40.5 31.5z" />
    <glyph glyph-name="Ograve" unicode="&#xd2;" horiz-adv-x="706" 
d="M323 -16q-133 0 -207 76.5t-74 218.5q0 81 25 154.5t73.5 130.5t118.5 89.5t159 32.5q133 0 207 -76.5t74 -218.5q0 -81 -25 -154.5t-73.5 -130.5t-118.5 -89.5t-159 -32.5zM332 106q46 0 81.5 28t59.5 73t36 97.5t12 100.5q0 80 -30.5 119.5t-81.5 39.5q-47 0 -82 -28
t-59 -73t-36 -97.5t-12 -100.5q0 -80 30.5 -119.5t81.5 -39.5zM377 940l207 -150l-50 -78l-232 109z" />
    <glyph glyph-name="Oacute" unicode="&#xd3;" horiz-adv-x="706" 
d="M323 -16q-133 0 -207 76.5t-74 218.5q0 81 25 154.5t73.5 130.5t118.5 89.5t159 32.5q133 0 207 -76.5t74 -218.5q0 -81 -25 -154.5t-73.5 -130.5t-118.5 -89.5t-159 -32.5zM332 106q46 0 81.5 28t59.5 73t36 97.5t12 100.5q0 80 -30.5 119.5t-81.5 39.5q-47 0 -82 -28
t-59 -73t-36 -97.5t-12 -100.5q0 -80 30.5 -119.5t81.5 -39.5zM333 803l246 137l57 -129l-264 -93z" />
    <glyph glyph-name="Ocircumflex" unicode="&#xd4;" horiz-adv-x="706" 
d="M323 -16q-133 0 -207 76.5t-74 218.5q0 81 25 154.5t73.5 130.5t118.5 89.5t159 32.5q133 0 207 -76.5t74 -218.5q0 -81 -25 -154.5t-73.5 -130.5t-118.5 -89.5t-159 -32.5zM332 106q46 0 81.5 28t59.5 73t36 97.5t12 100.5q0 80 -30.5 119.5t-81.5 39.5q-47 0 -82 -28
t-59 -73t-36 -97.5t-12 -100.5q0 -80 30.5 -119.5t81.5 -39.5zM509 915l139 -140l-55 -65l-131 88l-154 -88l-48 74l178 131h71z" />
    <glyph glyph-name="Otilde" unicode="&#xd5;" horiz-adv-x="706" 
d="M323 -16q-133 0 -207 76.5t-74 218.5q0 81 25 154.5t73.5 130.5t118.5 89.5t159 32.5q133 0 207 -76.5t74 -218.5q0 -81 -25 -154.5t-73.5 -130.5t-118.5 -89.5t-159 -32.5zM332 106q46 0 81.5 28t59.5 73t36 97.5t12 100.5q0 80 -30.5 119.5t-81.5 39.5q-47 0 -82 -28
t-59 -73t-36 -97.5t-12 -100.5q0 -80 30.5 -119.5t81.5 -39.5zM434 778q-10 10 -20 16.5t-24 6.5q-17 0 -29.5 -13.5t-23.5 -48.5h-94q8 47 28.5 85.5t52.5 61.5t73 23q34 0 55.5 -14.5t39.5 -30.5q10 -9 20 -16t24 -7q16 0 30 13.5t24 48.5h93q-12 -75 -53.5 -122.5
t-101.5 -47.5q-33 0 -53.5 13.5t-40.5 31.5z" />
    <glyph glyph-name="Odieresis" unicode="&#xd6;" horiz-adv-x="706" 
d="M323 -16q-133 0 -207 76.5t-74 218.5q0 81 25 154.5t73.5 130.5t118.5 89.5t159 32.5q133 0 207 -76.5t74 -218.5q0 -81 -25 -154.5t-73.5 -130.5t-118.5 -89.5t-159 -32.5zM332 106q46 0 81.5 28t59.5 73t36 97.5t12 100.5q0 80 -30.5 119.5t-81.5 39.5q-47 0 -82 -28
t-59 -73t-36 -97.5t-12 -100.5q0 -80 30.5 -119.5t81.5 -39.5zM339 738q-35 0 -55.5 20.5t-20.5 51.5q0 38 27.5 65t69.5 27q34 0 54.5 -20.5t20.5 -51.5q0 -38 -27.5 -65t-68.5 -27zM569 738q-35 0 -55.5 20.5t-20.5 51.5q0 38 27.5 65t69.5 27q34 0 54.5 -20.5t20.5 -51.5
q0 -38 -27.5 -65t-68.5 -27z" />
    <glyph glyph-name="multiply" unicode="&#xd7;" horiz-adv-x="590" 
d="M133 115l-73 84l162 134l-105 133l93 79l106 -133l160 133l71 -84l-162 -135l105 -132l-96 -79l-104 131z" />
    <glyph glyph-name="Oslash" unicode="&#xd8;" horiz-adv-x="706" 
d="M18 8l73 84q-49 73 -49 187q0 81 25 154.5t73.5 130.5t118.5 89.5t159 32.5t153 -35l67 78l81 -67l-70 -82q50 -73 50 -189q0 -81 -25 -154.5t-73.5 -130.5t-118.5 -89.5t-159 -32.5q-91 0 -156 37l-68 -80zM220 265q0 -16 1 -30l259 301q-27 28 -71 28q-47 0 -82 -28
t-59 -73t-36 -97.5t-12 -100.5zM332 106q46 0 81.5 28t59.5 73t36 97.5t12 100.5q0 18 -2 34l-260 -303q28 -30 73 -30z" />
    <glyph glyph-name="Ugrave" unicode="&#xd9;" horiz-adv-x="685" 
d="M297 -16q-119 0 -179.5 55t-60.5 150q0 18 2.5 40t7.5 45l85 396h174l-88 -411q-4 -18 -5.5 -34.5t-1.5 -27.5q0 -41 22.5 -62.5t60.5 -21.5q53 0 87.5 42t51.5 122l85 393h174l-87 -405q-29 -132 -109 -206.5t-219 -74.5zM378 940l207 -150l-50 -78l-232 109z" />
    <glyph glyph-name="Uacute" unicode="&#xda;" horiz-adv-x="685" 
d="M297 -16q-119 0 -179.5 55t-60.5 150q0 18 2.5 40t7.5 45l85 396h174l-88 -411q-4 -18 -5.5 -34.5t-1.5 -27.5q0 -41 22.5 -62.5t60.5 -21.5q53 0 87.5 42t51.5 122l85 393h174l-87 -405q-29 -132 -109 -206.5t-219 -74.5zM334 803l246 137l57 -129l-264 -93z" />
    <glyph glyph-name="Ucircumflex" unicode="&#xdb;" horiz-adv-x="685" 
d="M297 -16q-119 0 -179.5 55t-60.5 150q0 18 2.5 40t7.5 45l85 396h174l-88 -411q-4 -18 -5.5 -34.5t-1.5 -27.5q0 -41 22.5 -62.5t60.5 -21.5q53 0 87.5 42t51.5 122l85 393h174l-87 -405q-29 -132 -109 -206.5t-219 -74.5zM510 915l139 -140l-55 -65l-131 88l-154 -88
l-48 74l178 131h71z" />
    <glyph glyph-name="Udieresis" unicode="&#xdc;" horiz-adv-x="685" 
d="M297 -16q-119 0 -179.5 55t-60.5 150q0 18 2.5 40t7.5 45l85 396h174l-88 -411q-4 -18 -5.5 -34.5t-1.5 -27.5q0 -41 22.5 -62.5t60.5 -21.5q53 0 87.5 42t51.5 122l85 393h174l-87 -405q-29 -132 -109 -206.5t-219 -74.5zM340 738q-35 0 -55.5 20.5t-20.5 51.5
q0 38 27.5 65t69.5 27q34 0 54.5 -20.5t20.5 -51.5q0 -38 -27.5 -65t-68.5 -27zM570 738q-35 0 -55.5 20.5t-20.5 51.5q0 38 27.5 65t69.5 27q34 0 54.5 -20.5t20.5 -51.5q0 -38 -27.5 -65t-68.5 -27z" />
    <glyph glyph-name="Yacute" unicode="&#xdd;" horiz-adv-x="611" 
d="M155 0l59 272l-124 398h178l61 -270l188 270h182l-312 -403l-58 -267h-174zM288 803l246 137l57 -129l-264 -93z" />
    <glyph glyph-name="Thorn" unicode="&#xde;" horiz-adv-x="609" 
d="M195 0h-174l142 670h174l-25 -117h58q124 0 181 -50.5t57 -136.5q0 -74 -37.5 -130t-109 -87.5t-173.5 -31.5h-68zM298 232q68 0 100.5 35.5t32.5 85.5q0 45 -25 65t-70 20h-48l-44 -206h54z" />
    <glyph glyph-name="germandbls" unicode="&#xdf;" horiz-adv-x="602" 
d="M293 103q47 0 73.5 36.5t26.5 83.5q0 41 -20 67t-59 26h-22l23 109h21q42 0 64.5 30.5t22.5 70.5q0 33 -14.5 52.5t-42.5 19.5q-32 0 -53 -27t-32 -76l-105 -495h-166l94 448q28 136 98.5 200.5t178.5 64.5q97 0 152.5 -47t55.5 -126q0 -58 -31 -102.5t-90 -63.5
q55 -20 76 -61.5t21 -89.5q0 -64 -31 -117.5t-87.5 -86t-132.5 -32.5q-27 0 -53.5 4.5t-45.5 12.5l31 107q13 -5 25.5 -6.5t21.5 -1.5z" />
    <glyph glyph-name="agrave" unicode="&#xe0;" horiz-adv-x="533" 
d="M134 -13q-58 0 -96.5 34.5t-38.5 93.5q0 86 81 138.5t254 57.5l3 13q3 12 4.5 24t1.5 20q0 23 -14.5 37t-40.5 14q-32 0 -51 -21t-30 -50h-155q25 75 85.5 122t164.5 47q98 0 146 -43.5t48 -124.5q0 -37 -9 -81l-58 -268h-144l6 66q-27 -37 -66.5 -58t-90.5 -21zM162 146
q0 -24 14 -39t40 -15q30 0 55 24.5t38 82.5l9 39q-89 -2 -122.5 -28.5t-33.5 -63.5zM323 781l129 -165l-67 -60l-157 137z" />
    <glyph glyph-name="aacute" unicode="&#xe1;" horiz-adv-x="533" 
d="M134 -13q-58 0 -96.5 34.5t-38.5 93.5q0 86 81 138.5t254 57.5l3 13q3 12 4.5 24t1.5 20q0 23 -14.5 37t-40.5 14q-32 0 -51 -21t-30 -50h-155q25 75 85.5 122t164.5 47q98 0 146 -43.5t48 -124.5q0 -37 -9 -81l-58 -268h-144l6 66q-27 -37 -66.5 -58t-90.5 -21zM162 146
q0 -24 14 -39t40 -15q30 0 55 24.5t38 82.5l9 39q-89 -2 -122.5 -28.5t-33.5 -63.5zM248 635l180 146l70 -103l-199 -114z" />
    <glyph glyph-name="acircumflex" unicode="&#xe2;" horiz-adv-x="533" 
d="M134 -13q-58 0 -96.5 34.5t-38.5 93.5q0 86 81 138.5t254 57.5l3 13q3 12 4.5 24t1.5 20q0 23 -14.5 37t-40.5 14q-32 0 -51 -21t-30 -50h-155q25 75 85.5 122t164.5 47q98 0 146 -43.5t48 -124.5q0 -37 -9 -81l-58 -268h-144l6 66q-27 -37 -66.5 -58t-90.5 -21zM162 146
q0 -24 14 -39t40 -15q30 0 55 24.5t38 82.5l9 39q-89 -2 -122.5 -28.5t-33.5 -63.5zM406 770l109 -158l-63 -55l-100 103l-140 -103l-51 64l162 149h83z" />
    <glyph glyph-name="atilde" unicode="&#xe3;" horiz-adv-x="533" 
d="M134 -13q-58 0 -96.5 34.5t-38.5 93.5q0 86 81 138.5t254 57.5l3 13q3 12 4.5 24t1.5 20q0 23 -14.5 37t-40.5 14q-32 0 -51 -21t-30 -50h-155q25 75 85.5 122t164.5 47q98 0 146 -43.5t48 -124.5q0 -37 -9 -81l-58 -268h-144l6 66q-27 -37 -66.5 -58t-90.5 -21zM162 146
q0 -24 14 -39t40 -15q30 0 55 24.5t38 82.5l9 39q-89 -2 -122.5 -28.5t-33.5 -63.5zM322 611q-14 13 -22 18t-16 5q-26 0 -39 -57h-94q12 71 51 115.5t92 44.5q31 0 50.5 -12t35.5 -28q14 -13 22 -18t16 -5q26 0 39 57h93q-11 -71 -50 -115.5t-92 -44.5q-31 0 -50.5 12
t-35.5 28z" />
    <glyph glyph-name="adieresis" unicode="&#xe4;" horiz-adv-x="533" 
d="M134 -13q-58 0 -96.5 34.5t-38.5 93.5q0 86 81 138.5t254 57.5l3 13q3 12 4.5 24t1.5 20q0 23 -14.5 37t-40.5 14q-32 0 -51 -21t-30 -50h-155q25 75 85.5 122t164.5 47q98 0 146 -43.5t48 -124.5q0 -37 -9 -81l-58 -268h-144l6 66q-27 -37 -66.5 -58t-90.5 -21zM162 146
q0 -24 14 -39t40 -15q30 0 55 24.5t38 82.5l9 39q-89 -2 -122.5 -28.5t-33.5 -63.5zM238 563q-33 0 -52 19.5t-19 47.5q0 35 26 61t65 26q33 0 52 -19.5t19 -47.5q0 -35 -26.5 -61t-64.5 -26zM438 563q-33 0 -52 19.5t-19 47.5q0 35 26 61t65 26q33 0 52 -19.5t19 -47.5
q0 -35 -26.5 -61t-64.5 -26z" />
    <glyph glyph-name="aring" unicode="&#xe5;" horiz-adv-x="533" 
d="M134 -13q-58 0 -96.5 34.5t-38.5 93.5q0 86 81 138.5t254 57.5l3 13q3 12 4.5 24t1.5 20q0 23 -14.5 37t-40.5 14q-32 0 -51 -21t-30 -50h-155q25 75 85.5 122t164.5 47q98 0 146 -43.5t48 -124.5q0 -37 -9 -81l-58 -268h-144l6 66q-27 -37 -66.5 -58t-90.5 -21zM162 146
q0 -24 14 -39t40 -15q30 0 55 24.5t38 82.5l9 39q-89 -2 -122.5 -28.5t-33.5 -63.5zM343 552q-56 0 -83.5 29.5t-27.5 76.5q0 36 17 65.5t47 47.5t69 18q56 0 83.5 -29.5t27.5 -76.5q0 -35 -17 -65t-47 -48t-69 -18zM344 616q26 0 42.5 19t16.5 48q0 19 -10 30.5t-29 11.5
q-26 0 -42.5 -19.5t-16.5 -47.5q0 -19 10 -30.5t29 -11.5z" />
    <glyph glyph-name="ae" unicode="&#xe6;" horiz-adv-x="798" 
d="M149 -13q-71 0 -110.5 36t-39.5 96q0 66 44.5 107t118 61t162.5 23l2 10q6 27 6 48q0 51 -45 51q-29 0 -49 -19.5t-31 -51.5h-155q27 81 89.5 125t151.5 44q100 0 136 -61q25 29 63 45t85 16q64 0 107.5 -27.5t65.5 -75.5t22 -110q0 -20 -2.5 -42t-7.5 -45h-318
q-3 -22 -3 -41q0 -45 17 -64.5t48 -19.5q57 0 77 65h162q-27 -83 -93 -126.5t-152 -43.5q-60 0 -103 24t-60 78q-29 -53 -80.5 -77.5t-107.5 -24.5zM559 412q-33 0 -59 -32t-39 -84h153q1 7 1 18q0 53 -15.5 75.5t-40.5 22.5zM214 92q28 0 50 22t32 67l12 57
q-34 -2 -68 -10.5t-56 -27.5t-22 -52q0 -27 15 -41.5t37 -14.5z" />
    <glyph glyph-name="ccedilla" unicode="&#xe7;" horiz-adv-x="536" 
d="M524 323h-158q-2 35 -13 62t-42 27q-26 0 -47 -20.5t-36 -53.5t-23 -72t-8 -76q0 -42 12.5 -70t46.5 -28q28 0 49.5 23t33.5 73h161q-24 -95 -90 -148t-166 -53q-103 0 -160.5 56.5t-57.5 161.5q0 59 19.5 114.5t57 100t92 71t124.5 26.5q71 0 115.5 -27t66 -71t23.5 -96
zM181 0h64l-19 -57q7 1 14 1q37 0 63 -24t26 -71q0 -53 -37.5 -87t-107.5 -34q-40 0 -83 13l16 72q28 -9 57 -9q58 0 58 45q0 34 -33 34q-16 0 -29 -11h-28z" />
    <glyph glyph-name="egrave" unicode="&#xe8;" horiz-adv-x="552" 
d="M247 -13q-105 0 -163 57t-58 162q0 57 18.5 112.5t55.5 100.5t91 71.5t126 26.5q73 0 119 -28.5t68 -77.5t22 -109q0 -20 -3 -41.5t-7 -43.5h-327q-1 -10 -1 -20q0 -55 18 -80t53 -25q32 0 50.5 18t27.5 47h162q-31 -90 -97.5 -130t-154.5 -40zM308 412
q-40 0 -66.5 -34.5t-40.5 -81.5h167q1 10 1 21q0 41 -13.5 68t-47.5 27zM332 781l129 -165l-67 -60l-157 137z" />
    <glyph glyph-name="eacute" unicode="&#xe9;" horiz-adv-x="552" 
d="M247 -13q-105 0 -163 57t-58 162q0 57 18.5 112.5t55.5 100.5t91 71.5t126 26.5q73 0 119 -28.5t68 -77.5t22 -109q0 -20 -3 -41.5t-7 -43.5h-327q-1 -10 -1 -20q0 -55 18 -80t53 -25q32 0 50.5 18t27.5 47h162q-31 -90 -97.5 -130t-154.5 -40zM308 412
q-40 0 -66.5 -34.5t-40.5 -81.5h167q1 10 1 21q0 41 -13.5 68t-47.5 27zM257 635l180 146l70 -103l-199 -114z" />
    <glyph glyph-name="ecircumflex" unicode="&#xea;" horiz-adv-x="552" 
d="M247 -13q-105 0 -163 57t-58 162q0 57 18.5 112.5t55.5 100.5t91 71.5t126 26.5q73 0 119 -28.5t68 -77.5t22 -109q0 -20 -3 -41.5t-7 -43.5h-327q-1 -10 -1 -20q0 -55 18 -80t53 -25q32 0 50.5 18t27.5 47h162q-31 -90 -97.5 -130t-154.5 -40zM308 412
q-40 0 -66.5 -34.5t-40.5 -81.5h167q1 10 1 21q0 41 -13.5 68t-47.5 27zM415 770l109 -158l-63 -55l-100 103l-140 -103l-51 64l162 149h83z" />
    <glyph glyph-name="edieresis" unicode="&#xeb;" horiz-adv-x="552" 
d="M247 -13q-105 0 -163 57t-58 162q0 57 18.5 112.5t55.5 100.5t91 71.5t126 26.5q73 0 119 -28.5t68 -77.5t22 -109q0 -20 -3 -41.5t-7 -43.5h-327q-1 -10 -1 -20q0 -55 18 -80t53 -25q32 0 50.5 18t27.5 47h162q-31 -90 -97.5 -130t-154.5 -40zM308 412
q-40 0 -66.5 -34.5t-40.5 -81.5h167q1 10 1 21q0 41 -13.5 68t-47.5 27zM247 563q-33 0 -52 19.5t-19 47.5q0 35 26 61t65 26q33 0 52 -19.5t19 -47.5q0 -35 -26.5 -61t-64.5 -26zM447 563q-33 0 -52 19.5t-19 47.5q0 35 26 61t65 26q33 0 52 -19.5t19 -47.5
q0 -35 -26.5 -61t-64.5 -26z" />
    <glyph glyph-name="igrave" unicode="&#xec;" horiz-adv-x="295" 
d="M6 0l110 504h170l-110 -504h-170zM225 781l81 -181l-76 -40l-114 160z" />
    <glyph glyph-name="iacute" unicode="&#xed;" horiz-adv-x="295" 
d="M6 0l110 504h170l-110 -504h-170zM145 623l143 158l83 -88l-165 -133z" />
    <glyph glyph-name="icircumflex" unicode="&#xee;" horiz-adv-x="295" 
d="M6 0l110 504h170l-110 -504h-170zM288 755l88 -169l-67 -44l-77 98l-122 -98l-55 60l150 153h83z" />
    <glyph glyph-name="idieresis" unicode="&#xef;" horiz-adv-x="295" 
d="M6 0l110 504h170l-110 -504h-170zM130 563q-33 0 -52 19.5t-19 47.5q0 35 26 61t65 26q33 0 52 -19.5t19 -47.5q0 -35 -26.5 -61t-64.5 -26zM310 563q-33 0 -52 19.5t-19 47.5q0 35 26 61t65 26q33 0 52 -19.5t19 -47.5q0 -35 -26.5 -61t-64.5 -26z" />
    <glyph glyph-name="eth" unicode="&#xf0;" horiz-adv-x="573" 
d="M238 -13q-100 0 -156 53.5t-56 157.5q0 55 16 107.5t46.5 95.5t74 68.5t97.5 25.5q47 0 80.5 -20.5t47.5 -59.5q1 7 1 16q0 34 -12 67t-37 59l-65 -44l-39 61l39 27q-29 12 -63 17l40 119q90 -12 152 -48l90 62l40 -61l-70 -48q43 -45 63 -109t20 -146
q0 -75 -17.5 -146.5t-54.5 -129t-96 -91t-141 -33.5zM253 94q32 0 54 21.5t36 54t20 66t6 57.5q0 41 -16.5 64t-47.5 23q-32 0 -53.5 -22t-34.5 -55t-18.5 -66.5t-5.5 -57.5q0 -39 14.5 -62t45.5 -23z" />
    <glyph glyph-name="ntilde" unicode="&#xf1;" horiz-adv-x="586" 
d="M10 0l106 504h144l-11 -71q61 84 159 84q70 0 105.5 -41.5t35.5 -104.5q0 -16 -2 -32.5t-6 -33.5l-65 -305h-166l67 312q2 11 3.5 20t1.5 18q0 55 -50 55q-35 0 -58.5 -29.5t-34.5 -78.5l-63 -297h-166zM346 611q-14 13 -22 18t-16 5q-26 0 -39 -57h-94q12 71 51 115.5
t92 44.5q31 0 50.5 -12t35.5 -28q14 -13 22 -18t16 -5q26 0 39 57h93q-11 -71 -50 -115.5t-92 -44.5q-31 0 -50.5 12t-35.5 28z" />
    <glyph glyph-name="ograve" unicode="&#xf2;" horiz-adv-x="570" 
d="M250 -13q-72 0 -122 28t-76 77.5t-26 114.5q0 55 19 110t56.5 100t92.5 72.5t126 27.5q72 0 122 -28.5t76 -78.5t26 -114q0 -55 -19 -110t-56.5 -100t-92.5 -72t-126 -27zM255 92q30 0 52 21.5t36.5 56t22 73.5t7.5 74q0 44 -13 69.5t-44 25.5q-30 0 -52.5 -22t-37 -56.5
t-22 -73.5t-7.5 -73q0 -43 13 -69t45 -26zM338 781l129 -165l-67 -60l-157 137z" />
    <glyph glyph-name="oacute" unicode="&#xf3;" horiz-adv-x="570" 
d="M250 -13q-72 0 -122 28t-76 77.5t-26 114.5q0 55 19 110t56.5 100t92.5 72.5t126 27.5q72 0 122 -28.5t76 -78.5t26 -114q0 -55 -19 -110t-56.5 -100t-92.5 -72t-126 -27zM255 92q30 0 52 21.5t36.5 56t22 73.5t7.5 74q0 44 -13 69.5t-44 25.5q-30 0 -52.5 -22t-37 -56.5
t-22 -73.5t-7.5 -73q0 -43 13 -69t45 -26zM263 635l180 146l70 -103l-199 -114z" />
    <glyph glyph-name="ocircumflex" unicode="&#xf4;" horiz-adv-x="570" 
d="M250 -13q-72 0 -122 28t-76 77.5t-26 114.5q0 55 19 110t56.5 100t92.5 72.5t126 27.5q72 0 122 -28.5t76 -78.5t26 -114q0 -55 -19 -110t-56.5 -100t-92.5 -72t-126 -27zM255 92q30 0 52 21.5t36.5 56t22 73.5t7.5 74q0 44 -13 69.5t-44 25.5q-30 0 -52.5 -22t-37 -56.5
t-22 -73.5t-7.5 -73q0 -43 13 -69t45 -26zM421 770l109 -158l-63 -55l-100 103l-140 -103l-51 64l162 149h83z" />
    <glyph glyph-name="otilde" unicode="&#xf5;" horiz-adv-x="570" 
d="M250 -13q-72 0 -122 28t-76 77.5t-26 114.5q0 55 19 110t56.5 100t92.5 72.5t126 27.5q72 0 122 -28.5t76 -78.5t26 -114q0 -55 -19 -110t-56.5 -100t-92.5 -72t-126 -27zM255 92q30 0 52 21.5t36.5 56t22 73.5t7.5 74q0 44 -13 69.5t-44 25.5q-30 0 -52.5 -22t-37 -56.5
t-22 -73.5t-7.5 -73q0 -43 13 -69t45 -26zM337 611q-14 13 -22 18t-16 5q-26 0 -39 -57h-94q12 71 51 115.5t92 44.5q31 0 50.5 -12t35.5 -28q14 -13 22 -18t16 -5q26 0 39 57h93q-11 -71 -50 -115.5t-92 -44.5q-31 0 -50.5 12t-35.5 28z" />
    <glyph glyph-name="odieresis" unicode="&#xf6;" horiz-adv-x="570" 
d="M250 -13q-72 0 -122 28t-76 77.5t-26 114.5q0 55 19 110t56.5 100t92.5 72.5t126 27.5q72 0 122 -28.5t76 -78.5t26 -114q0 -55 -19 -110t-56.5 -100t-92.5 -72t-126 -27zM255 92q30 0 52 21.5t36.5 56t22 73.5t7.5 74q0 44 -13 69.5t-44 25.5q-30 0 -52.5 -22t-37 -56.5
t-22 -73.5t-7.5 -73q0 -43 13 -69t45 -26zM253 563q-33 0 -52 19.5t-19 47.5q0 35 26 61t65 26q33 0 52 -19.5t19 -47.5q0 -35 -26.5 -61t-64.5 -26zM453 563q-33 0 -52 19.5t-19 47.5q0 35 26 61t65 26q33 0 52 -19.5t19 -47.5q0 -35 -26.5 -61t-64.5 -26z" />
    <glyph glyph-name="divide" unicode="&#xf7;" horiz-adv-x="590" 
d="M338 454q-33 0 -50.5 18t-17.5 48q0 34 24.5 58t60.5 24q33 0 50.5 -18t17.5 -48q0 -34 -24.5 -58t-60.5 -24zM82 273l25 113h420l-25 -113h-420zM254 57q-33 0 -50.5 18t-17.5 48q0 34 24.5 58t60.5 24q33 0 50.5 -18t17.5 -48q0 -34 -24.5 -58t-60.5 -24z" />
    <glyph glyph-name="oslash" unicode="&#xf8;" horiz-adv-x="570" 
d="M7 -3l61 70q-42 57 -42 140q0 55 19 110t56.5 100t92.5 72.5t126 27.5q63 0 112 -23l62 72l68 -59l-61 -71q43 -56 43 -140q0 -55 -19 -110t-56.5 -100t-92.5 -72t-126 -27q-63 0 -112 23l-63 -72zM316 412q-28 0 -49.5 -19t-36 -50t-23 -67t-9.5 -70l158 187
q-14 19 -40 19zM255 92q28 0 49 19.5t36 50.5t23 67.5t10 70.5l-159 -188q14 -20 41 -20z" />
    <glyph glyph-name="ugrave" unicode="&#xf9;" horiz-adv-x="575" 
d="M171 -13q-69 0 -101.5 41.5t-32.5 102.5q0 17 2 34t6 34l65 305h166l-67 -313q-2 -11 -3.5 -20.5t-1.5 -18.5q0 -53 45 -53q32 0 55.5 29t33.5 78l63 298h166l-108 -504h-145l10 70q-27 -39 -65.5 -61t-87.5 -22zM343 781l129 -165l-67 -60l-157 137z" />
    <glyph glyph-name="uacute" unicode="&#xfa;" horiz-adv-x="575" 
d="M171 -13q-69 0 -101.5 41.5t-32.5 102.5q0 17 2 34t6 34l65 305h166l-67 -313q-2 -11 -3.5 -20.5t-1.5 -18.5q0 -53 45 -53q32 0 55.5 29t33.5 78l63 298h166l-108 -504h-145l10 70q-27 -39 -65.5 -61t-87.5 -22zM268 635l180 146l70 -103l-199 -114z" />
    <glyph glyph-name="ucircumflex" unicode="&#xfb;" horiz-adv-x="575" 
d="M171 -13q-69 0 -101.5 41.5t-32.5 102.5q0 17 2 34t6 34l65 305h166l-67 -313q-2 -11 -3.5 -20.5t-1.5 -18.5q0 -53 45 -53q32 0 55.5 29t33.5 78l63 298h166l-108 -504h-145l10 70q-27 -39 -65.5 -61t-87.5 -22zM426 770l109 -158l-63 -55l-100 103l-140 -103l-51 64
l162 149h83z" />
    <glyph glyph-name="udieresis" unicode="&#xfc;" horiz-adv-x="575" 
d="M171 -13q-69 0 -101.5 41.5t-32.5 102.5q0 17 2 34t6 34l65 305h166l-67 -313q-2 -11 -3.5 -20.5t-1.5 -18.5q0 -53 45 -53q32 0 55.5 29t33.5 78l63 298h166l-108 -504h-145l10 70q-27 -39 -65.5 -61t-87.5 -22zM258 563q-33 0 -52 19.5t-19 47.5q0 35 26 61t65 26
q33 0 52 -19.5t19 -47.5q0 -35 -26.5 -61t-64.5 -26zM458 563q-33 0 -52 19.5t-19 47.5q0 35 26 61t65 26q33 0 52 -19.5t19 -47.5q0 -35 -26.5 -61t-64.5 -26z" />
    <glyph glyph-name="yacute" unicode="&#xfd;" horiz-adv-x="507" 
d="M2 -223q-33 0 -58 6.5t-39 15.5l40 106q31 -13 58 -13q24 0 45.5 15.5t49.5 60.5l26 41l-64 495h165l11 -323l162 323h162l-339 -573q-45 -77 -94 -115.5t-125 -38.5zM236 635l180 146l70 -103l-199 -114z" />
    <glyph glyph-name="thorn" unicode="&#xfe;" horiz-adv-x="583" 
d="M-36 -210l194 910h166l-52 -244q54 61 133 61q71 0 111.5 -51t40.5 -147q0 -60 -17 -119t-49 -107t-78.5 -77t-104.5 -29q-89 0 -123 65l-55 -262h-166zM266 99q27 0 49 20.5t37.5 53t24 71t8.5 74.5q0 35 -11.5 58t-42.5 23q-24 0 -46.5 -18.5t-39.5 -49.5t-24 -70
l-3 -15q-2 -7 -5 -25t-3 -39q0 -43 15 -63t41 -20z" />
    <glyph glyph-name="ydieresis" unicode="&#xff;" horiz-adv-x="507" 
d="M2 -223q-33 0 -58 6.5t-39 15.5l40 106q31 -13 58 -13q24 0 45.5 15.5t49.5 60.5l26 41l-64 495h165l11 -323l162 323h162l-339 -573q-45 -77 -94 -115.5t-125 -38.5zM226 563q-33 0 -52 19.5t-19 47.5q0 35 26 61t65 26q33 0 52 -19.5t19 -47.5q0 -35 -26.5 -61
t-64.5 -26zM426 563q-33 0 -52 19.5t-19 47.5q0 35 26 61t65 26q33 0 52 -19.5t19 -47.5q0 -35 -26.5 -61t-64.5 -26z" />
    <glyph glyph-name="Amacron" unicode="&#x100;" horiz-adv-x="641" 
d="M-46 0l365 670h181l81 -670h-173l-9 127h-212l-62 -127h-171zM246 245h145l-18 260zM238 757l24 113h375l-24 -113h-375z" />
    <glyph glyph-name="amacron" unicode="&#x101;" horiz-adv-x="533" 
d="M134 -13q-58 0 -96.5 34.5t-38.5 93.5q0 86 81 138.5t254 57.5l3 13q3 12 4.5 24t1.5 20q0 23 -14.5 37t-40.5 14q-32 0 -51 -21t-30 -50h-155q25 75 85.5 122t164.5 47q98 0 146 -43.5t48 -124.5q0 -37 -9 -81l-58 -268h-144l6 66q-27 -37 -66.5 -58t-90.5 -21zM162 146
q0 -24 14 -39t40 -15q30 0 55 24.5t38 82.5l9 39q-89 -2 -122.5 -28.5t-33.5 -63.5zM176 594l22 101h325l-22 -101h-325z" />
    <glyph glyph-name="Abreve" unicode="&#x102;" horiz-adv-x="641" 
d="M-46 0l365 670h181l81 -670h-173l-9 127h-212l-62 -127h-171zM246 245h145l-18 260zM434 738q-44 0 -81 15.5t-59.5 46t-22.5 74.5q0 8 0.5 13.5t1.5 12.5h104q0 -24 15.5 -41.5t52.5 -17.5q36 0 56 17t26 42h102q-6 -46 -32 -82.5t-68 -58t-95 -21.5z" />
    <glyph glyph-name="abreve" unicode="&#x103;" horiz-adv-x="533" 
d="M134 -13q-58 0 -96.5 34.5t-38.5 93.5q0 86 81 138.5t254 57.5l3 13q3 12 4.5 24t1.5 20q0 23 -14.5 37t-40.5 14q-32 0 -51 -21t-30 -50h-155q25 75 85.5 122t164.5 47q98 0 146 -43.5t48 -124.5q0 -37 -9 -81l-58 -268h-144l6 66q-27 -37 -66.5 -58t-90.5 -21zM162 146
q0 -24 14 -39t40 -15q30 0 55 24.5t38 82.5l9 39q-89 -2 -122.5 -28.5t-33.5 -63.5zM342 569q-70 0 -104.5 38t-34.5 94q0 18 3 36h97q-1 -5 -1 -8v-8q0 -25 13 -40.5t41 -15.5q32 0 51.5 19.5t27.5 52.5h95q-15 -75 -63 -121.5t-125 -46.5z" />
    <glyph glyph-name="Aogonek" unicode="&#x104;" horiz-adv-x="641" 
d="M-46 0l365 670h181l81 -670h-173l-9 127h-212l-62 -127h-171zM246 245h145l-18 260zM424 -267q-76 0 -109 31.5t-33 78.5q0 55 37 96t89 61h140q-62 -8 -98 -38t-36 -73q0 -57 62 -57q23 0 47 10l-21 -97q-22 -7 -40 -9.5t-38 -2.5z" />
    <glyph glyph-name="aogonek" unicode="&#x105;" horiz-adv-x="533" 
d="M134 -13q-58 0 -96.5 34.5t-38.5 93.5q0 86 81 138.5t254 57.5l3 13q3 12 4.5 24t1.5 20q0 23 -14.5 37t-40.5 14q-32 0 -51 -21t-30 -50h-155q25 75 85.5 122t164.5 47q98 0 146 -43.5t48 -124.5q0 -37 -9 -81l-58 -268h-144l6 66q-27 -37 -66.5 -58t-90.5 -21zM162 146
q0 -24 14 -39t40 -15q30 0 55 24.5t38 82.5l9 39q-89 -2 -122.5 -28.5t-33.5 -63.5zM296 -262q-67 0 -98.5 30.5t-31.5 75.5q0 53 36 94.5t83 61.5h143q-63 -8 -99 -38t-36 -73q0 -55 56 -55q22 0 46 10l-20 -94q-42 -12 -79 -12z" />
    <glyph glyph-name="Cacute" unicode="&#x106;" horiz-adv-x="660" 
d="M309 -16q-133 0 -200 73t-67 205q0 82 26 158t75 136t119 95t158 35q76 0 132.5 -28t88 -88t31.5 -156h-178q0 83 -24 116.5t-67 33.5q-42 0 -76 -27.5t-57.5 -73t-36.5 -100t-13 -107.5q0 -150 101 -150q48 0 79.5 30.5t56.5 87.5h177q-39 -118 -122.5 -179t-202.5 -61z
M326 803l246 137l57 -129l-264 -93z" />
    <glyph glyph-name="cacute" unicode="&#x107;" horiz-adv-x="536" 
d="M524 323h-158q-2 35 -13 62t-42 27q-26 0 -47 -20.5t-36 -53.5t-23 -72t-8 -76q0 -42 12.5 -70t46.5 -28q28 0 49.5 23t33.5 73h161q-24 -95 -90 -148t-166 -53q-103 0 -160.5 56.5t-57.5 161.5q0 59 19.5 114.5t57 100t92 71t124.5 26.5q71 0 115.5 -27t66 -71t23.5 -96
zM262 635l180 146l70 -103l-199 -114z" />
    <glyph glyph-name="Cdotaccent" unicode="&#x10a;" horiz-adv-x="660" 
d="M309 -16q-133 0 -200 73t-67 205q0 82 26 158t75 136t119 95t158 35q76 0 132.5 -28t88 -88t31.5 -156h-178q0 83 -24 116.5t-67 33.5q-42 0 -76 -27.5t-57.5 -73t-36.5 -100t-13 -107.5q0 -150 101 -150q48 0 79.5 30.5t56.5 87.5h177q-39 -118 -122.5 -179t-202.5 -61z
M445 729q-38 0 -61 23t-23 57q0 41 30.5 71.5t76.5 30.5q38 0 61 -23t23 -57q0 -41 -31 -71.5t-76 -30.5z" />
    <glyph glyph-name="cdotaccent" unicode="&#x10b;" horiz-adv-x="536" 
d="M524 323h-158q-2 35 -13 62t-42 27q-26 0 -47 -20.5t-36 -53.5t-23 -72t-8 -76q0 -42 12.5 -70t46.5 -28q28 0 49.5 23t33.5 73h161q-24 -95 -90 -148t-166 -53q-103 0 -160.5 56.5t-57.5 161.5q0 59 19.5 114.5t57 100t92 71t124.5 26.5q71 0 115.5 -27t66 -71t23.5 -96
zM354 563q-38 0 -60 22.5t-22 55.5q0 41 30 70.5t75 29.5q37 0 59.5 -22.5t22.5 -55.5q0 -41 -30.5 -70.5t-74.5 -29.5z" />
    <glyph glyph-name="Ccaron" unicode="&#x10c;" horiz-adv-x="660" 
d="M309 -16q-133 0 -200 73t-67 205q0 82 26 158t75 136t119 95t158 35q76 0 132.5 -28t88 -88t31.5 -156h-178q0 83 -24 116.5t-67 33.5q-42 0 -76 -27.5t-57.5 -73t-36.5 -100t-13 -107.5q0 -150 101 -150q48 0 79.5 30.5t56.5 87.5h177q-39 -118 -122.5 -179t-202.5 -61z
M404 725l-139 140l55 65l131 -88l154 88l48 -74l-178 -131h-71z" />
    <glyph glyph-name="ccaron" unicode="&#x10d;" horiz-adv-x="536" 
d="M524 323h-158q-2 35 -13 62t-42 27q-26 0 -47 -20.5t-36 -53.5t-23 -72t-8 -76q0 -42 12.5 -70t46.5 -28q28 0 49.5 23t33.5 73h161q-24 -95 -90 -148t-166 -53q-103 0 -160.5 56.5t-57.5 161.5q0 59 19.5 114.5t57 100t92 71t124.5 26.5q71 0 115.5 -27t66 -71t23.5 -96
zM300 567l-109 158l63 55l100 -103l140 103l51 -64l-162 -149h-83z" />
    <glyph glyph-name="Dcaron" unicode="&#x10e;" horiz-adv-x="694" 
d="M21 0l142 670h214q154 0 232 -72.5t78 -205.5q0 -81 -29 -152t-86 -125t-141 -84.5t-195 -30.5h-215zM336 546h-33l-88 -421h40q81 0 136.5 34.5t84 92.5t28.5 131q0 85 -41 124t-127 39zM416 725l-139 140l55 65l131 -88l154 88l48 -74l-178 -131h-71z" />
    <glyph glyph-name="dcaron" unicode="&#x10f;" horiz-adv-x="688" 
d="M178 -13q-70 0 -111 51t-41 147q0 60 17 119t49 107t78 77t105 29q89 0 123 -65l52 248h166l-149 -700h-144l11 78q-29 -45 -69.5 -68t-86.5 -23zM252 105q24 0 46.5 18.5t39 49.5t24.5 70l3 15q1 7 4.5 25t3.5 39q0 43 -15.5 63t-40.5 20q-27 0 -49 -20.5t-37.5 -53
t-24 -71t-8.5 -74.5q0 -35 11.5 -58t42.5 -23zM727 516h-76l39 184h125l-2 -8q-29 -119 -86 -176z" />
    <glyph glyph-name="Dcroat" unicode="&#x110;" horiz-adv-x="707" 
d="M34 0l60 282h-78l25 115h77l58 273h214q154 0 232 -72.5t78 -205.5q0 -81 -29 -152t-86 -125t-141 -84.5t-195 -30.5h-215zM397 282h-136l-33 -157h40q81 0 136.5 34.5t84 92.5t28.5 131q0 85 -41 124t-127 39h-33l-31 -149h137z" />
    <glyph glyph-name="dcroat" unicode="&#x111;" horiz-adv-x="593" 
d="M177 -13q-70 0 -110.5 49.5t-40.5 140.5q0 58 17 114.5t49 103t78 74.5t104 28q45 0 76 -17t47 -44l23 108h-123l19 90h123l14 66h163l-14 -66h72l-20 -90h-71l-116 -544h-144l11 78q-60 -91 -157 -91zM250 105q38 0 65.5 35.5t42.5 83.5l4 16q9 34 9 68q0 32 -11 54.5
t-42 22.5q-28 0 -50.5 -19.5t-38 -50.5t-23.5 -66t-8 -67q0 -34 11.5 -55.5t40.5 -21.5z" />
    <glyph glyph-name="Emacron" unicode="&#x112;" horiz-adv-x="561" 
d="M21 0l142 670h438l-27 -123h-263l-31 -148h236l-25 -118h-236l-34 -158h269l-27 -123h-442zM219 757l24 113h375l-24 -113h-375z" />
    <glyph glyph-name="emacron" unicode="&#x113;" horiz-adv-x="552" 
d="M247 -13q-105 0 -163 57t-58 162q0 57 18.5 112.5t55.5 100.5t91 71.5t126 26.5q73 0 119 -28.5t68 -77.5t22 -109q0 -20 -3 -41.5t-7 -43.5h-327q-1 -10 -1 -20q0 -55 18 -80t53 -25q32 0 50.5 18t27.5 47h162q-31 -90 -97.5 -130t-154.5 -40zM308 412
q-40 0 -66.5 -34.5t-40.5 -81.5h167q1 10 1 21q0 41 -13.5 68t-47.5 27zM185 594l22 101h325l-22 -101h-325z" />
    <glyph glyph-name="Edotaccent" unicode="&#x116;" horiz-adv-x="561" 
d="M21 0l142 670h438l-27 -123h-263l-31 -148h236l-25 -118h-236l-34 -158h269l-27 -123h-442zM408 729q-38 0 -61 23t-23 57q0 41 30.5 71.5t76.5 30.5q38 0 61 -23t23 -57q0 -41 -31 -71.5t-76 -30.5z" />
    <glyph glyph-name="edotaccent" unicode="&#x117;" horiz-adv-x="552" 
d="M247 -13q-105 0 -163 57t-58 162q0 57 18.5 112.5t55.5 100.5t91 71.5t126 26.5q73 0 119 -28.5t68 -77.5t22 -109q0 -20 -3 -41.5t-7 -43.5h-327q-1 -10 -1 -20q0 -55 18 -80t53 -25q32 0 50.5 18t27.5 47h162q-31 -90 -97.5 -130t-154.5 -40zM308 412
q-40 0 -66.5 -34.5t-40.5 -81.5h167q1 10 1 21q0 41 -13.5 68t-47.5 27zM349 563q-38 0 -60 22.5t-22 55.5q0 41 30 70.5t75 29.5q37 0 59.5 -22.5t22.5 -55.5q0 -41 -30.5 -70.5t-74.5 -29.5z" />
    <glyph glyph-name="Eogonek" unicode="&#x118;" horiz-adv-x="561" 
d="M21 0l142 670h438l-27 -123h-263l-31 -148h236l-25 -118h-236l-34 -158h269l-27 -123h-442zM339 -267q-76 0 -109 31.5t-33 78.5q0 55 37 96t89 61h140q-62 -8 -98 -38t-36 -73q0 -57 62 -57q23 0 47 10l-21 -97q-22 -7 -40 -9.5t-38 -2.5z" />
    <glyph glyph-name="eogonek" unicode="&#x119;" horiz-adv-x="552" 
d="M247 -13q-105 0 -163 57t-58 162q0 57 18.5 112.5t55.5 100.5t91 71.5t126 26.5q73 0 119 -28.5t68 -77.5t22 -109q0 -20 -3 -41.5t-7 -43.5h-327q-1 -10 -1 -20q0 -55 18 -80t53 -25q32 0 50.5 18t27.5 47h162q-31 -90 -97.5 -130t-154.5 -40zM308 412
q-40 0 -66.5 -34.5t-40.5 -81.5h167q1 10 1 21q0 41 -13.5 68t-47.5 27zM293 -262q-67 0 -98.5 30.5t-31.5 74.5q0 37 18.5 69.5t47 56t58.5 36.5l119 25q-48 -24 -82 -56.5t-34 -81.5q0 -58 56 -58q22 0 46 10l-19 -92q-42 -14 -80 -14z" />
    <glyph glyph-name="Ecaron" unicode="&#x11a;" horiz-adv-x="561" 
d="M21 0l142 670h438l-27 -123h-263l-31 -148h236l-25 -118h-236l-34 -158h269l-27 -123h-442zM367 725l-139 140l55 65l131 -88l154 88l48 -74l-178 -131h-71z" />
    <glyph glyph-name="ecaron" unicode="&#x11b;" horiz-adv-x="552" 
d="M247 -13q-105 0 -163 57t-58 162q0 57 18.5 112.5t55.5 100.5t91 71.5t126 26.5q73 0 119 -28.5t68 -77.5t22 -109q0 -20 -3 -41.5t-7 -43.5h-327q-1 -10 -1 -20q0 -55 18 -80t53 -25q32 0 50.5 18t27.5 47h162q-31 -90 -97.5 -130t-154.5 -40zM308 412
q-40 0 -66.5 -34.5t-40.5 -81.5h167q1 10 1 21q0 41 -13.5 68t-47.5 27zM295 567l-109 158l63 55l100 -103l140 103l51 -64l-162 -149h-83z" />
    <glyph glyph-name="Gbreve" unicode="&#x11e;" horiz-adv-x="696" 
d="M325 -16q-133 0 -208 72.5t-75 214.5q0 84 27 159t77 132.5t120 90.5t156 33q78 0 138 -28t95 -80.5t36 -126.5h-181q-3 57 -29 85t-70 28q-47 0 -83 -27.5t-60 -72t-36 -97t-12 -103.5q0 -86 33 -122t91 -36q56 0 96 31.5t61 95.5h-124l27 120h284l-6 -36
q-17 -102 -62.5 -176.5t-119.5 -115.5t-175 -41zM460 738q-44 0 -81 15.5t-59.5 46t-22.5 74.5q0 8 0.5 13.5t1.5 12.5h104q0 -24 15.5 -41.5t52.5 -17.5q36 0 56 17t26 42h102q-6 -46 -32 -82.5t-68 -58t-95 -21.5z" />
    <glyph glyph-name="gbreve" unicode="&#x11f;" horiz-adv-x="575" 
d="M208 -123q37 0 59 30.5t32 76.5l18 86q-58 -70 -144 -70q-71 0 -113 49t-42 143q0 58 17 116t49 105t78 75.5t104 28.5q51 0 86.5 -24t46.5 -68l23 79h144l-105 -494q-24 -113 -88 -173t-172 -60q-96 0 -149 45.5t-60 127.5h155q0 -35 17 -54t44 -19zM241 118q27 0 50 18
t39 48t24 65l3 14q1 7 4 21.5t3 35.5q0 44 -15 64.5t-41 20.5q-27 0 -49 -19.5t-37.5 -51.5t-24 -68t-8.5 -69q0 -36 11.5 -57.5t40.5 -21.5zM351 569q-70 0 -104.5 38t-34.5 94q0 18 3 36h97q-1 -5 -1 -8v-8q0 -25 13 -40.5t41 -15.5q32 0 51.5 19.5t27.5 52.5h95
q-15 -75 -63 -121.5t-125 -46.5z" />
    <glyph glyph-name="Gdotaccent" unicode="&#x120;" horiz-adv-x="696" 
d="M325 -16q-133 0 -208 72.5t-75 214.5q0 84 27 159t77 132.5t120 90.5t156 33q78 0 138 -28t95 -80.5t36 -126.5h-181q-3 57 -29 85t-70 28q-47 0 -83 -27.5t-60 -72t-36 -97t-12 -103.5q0 -86 33 -122t91 -36q56 0 96 31.5t61 95.5h-124l27 120h284l-6 -36
q-17 -102 -62.5 -176.5t-119.5 -115.5t-175 -41zM453 729q-38 0 -61 23t-23 57q0 41 30.5 71.5t76.5 30.5q38 0 61 -23t23 -57q0 -41 -31 -71.5t-76 -30.5z" />
    <glyph glyph-name="gdotaccent" unicode="&#x121;" horiz-adv-x="575" 
d="M208 -123q37 0 59 30.5t32 76.5l18 86q-58 -70 -144 -70q-71 0 -113 49t-42 143q0 58 17 116t49 105t78 75.5t104 28.5q51 0 86.5 -24t46.5 -68l23 79h144l-105 -494q-24 -113 -88 -173t-172 -60q-96 0 -149 45.5t-60 127.5h155q0 -35 17 -54t44 -19zM241 118q27 0 50 18
t39 48t24 65l3 14q1 7 4 21.5t3 35.5q0 44 -15 64.5t-41 20.5q-27 0 -49 -19.5t-37.5 -51.5t-24 -68t-8.5 -69q0 -36 11.5 -57.5t40.5 -21.5zM349 563q-38 0 -60 22.5t-22 55.5q0 41 30 70.5t75 29.5q37 0 59.5 -22.5t22.5 -55.5q0 -41 -30.5 -70.5t-74.5 -29.5z" />
    <glyph glyph-name="uni0122" unicode="&#x122;" horiz-adv-x="696" 
d="M325 -16q-133 0 -208 72.5t-75 214.5q0 84 27 159t77 132.5t120 90.5t156 33q78 0 138 -28t95 -80.5t36 -126.5h-181q-3 57 -29 85t-70 28q-47 0 -83 -27.5t-60 -72t-36 -97t-12 -103.5q0 -86 33 -122t91 -36q56 0 96 31.5t61 95.5h-124l27 120h284l-6 -36
q-17 -102 -62.5 -176.5t-119.5 -115.5t-175 -41zM175 -361l15 68q31 8 52.5 24.5t37.5 48.5q-31 3 -46.5 22t-15.5 48q0 41 27 66.5t65 25.5q37 0 56 -23t19 -61q0 -48 -27 -96t-74.5 -82t-108.5 -41z" />
    <glyph glyph-name="uni0123" unicode="&#x123;" horiz-adv-x="575" 
d="M208 -123q37 0 59 30.5t32 76.5l18 86q-58 -70 -144 -70q-71 0 -113 49t-42 143q0 58 17 116t49 105t78 75.5t104 28.5q51 0 86.5 -24t46.5 -68l23 79h144l-105 -494q-24 -113 -88 -173t-172 -60q-96 0 -149 45.5t-60 127.5h155q0 -35 17 -54t44 -19zM241 118q27 0 50 18
t39 48t24 65l3 14q1 7 4 21.5t3 35.5q0 44 -15 64.5t-41 20.5q-27 0 -49 -19.5t-37.5 -51.5t-24 -68t-8.5 -69q0 -36 11.5 -57.5t40.5 -21.5zM470 848l-12 -59q-34 -8 -56 -25t-38 -48q31 -2 47.5 -20.5t16.5 -47.5q0 -39 -25.5 -63t-62.5 -24q-35 0 -53 21.5t-18 59.5
q0 46 26 91t71 77t104 38z" />
    <glyph glyph-name="Hbar" unicode="&#x126;" horiz-adv-x="733" 
d="M36 0l102 481h-77l22 102h77l18 87h174l-18 -87h207l18 87h174l-18 -87h78l-22 -102h-78l-102 -481h-174l56 265h-207l-56 -265h-174zM292 386h207l20 95h-207z" />
    <glyph glyph-name="hbar" unicode="&#x127;" horiz-adv-x="598" 
d="M20 0l116 544h-65l19 90h65l14 66h166l-14 -66h125l-20 -90h-124l-23 -108q28 29 64 45t79 16q72 0 105.5 -41.5t33.5 -103.5q0 -16 -2 -33t-6 -34l-61 -285h-166l62 292q1 4 3 18t2 24q0 23 -13 37t-37 14q-35 0 -61 -28.5t-36 -75.5l-60 -281h-166z" />
    <glyph glyph-name="Itilde" unicode="&#x128;" horiz-adv-x="322" 
d="M21 0l142 670h174l-142 -670h-174zM255 778q-10 10 -20 16.5t-24 6.5q-17 0 -29.5 -13.5t-23.5 -48.5h-94q8 47 28.5 85.5t52.5 61.5t73 23q34 0 55.5 -14.5t39.5 -30.5q10 -9 20 -16t24 -7q16 0 30 13.5t24 48.5h93q-12 -75 -53.5 -122.5t-101.5 -47.5q-33 0 -53.5 13.5
t-40.5 31.5z" />
    <glyph glyph-name="itilde" unicode="&#x129;" horiz-adv-x="295" 
d="M6 0l110 504h170l-110 -504h-170zM207 611q-22 23 -33 23q-26 0 -36 -57h-94q11 71 49.5 115.5t89.5 44.5q27 0 44 -11.5t34 -28.5q13 -13 20.5 -18t13.5 -5q25 0 35 57h93q-11 -71 -48.5 -115.5t-89.5 -44.5q-27 0 -44 11.5t-34 28.5z" />
    <glyph glyph-name="Imacron" unicode="&#x12a;" horiz-adv-x="322" 
d="M21 0l142 670h174l-142 -670h-174zM84 757l24 113h375l-24 -113h-375z" />
    <glyph glyph-name="imacron" unicode="&#x12b;" horiz-adv-x="295" 
d="M6 0l110 504h170l-110 -504h-170zM64 594l22 101h313l-22 -101h-313z" />
    <glyph glyph-name="Iogonek" unicode="&#x12e;" horiz-adv-x="322" 
d="M21 0l142 670h174l-142 -670h-174zM54 -267q-76 0 -109 31.5t-33 78.5q0 55 37 96t89 61h140q-62 -8 -98 -38t-36 -73q0 -57 62 -57q23 0 47 10l-21 -97q-22 -7 -40 -9.5t-38 -2.5z" />
    <glyph glyph-name="iogonek" unicode="&#x12f;" horiz-adv-x="292" 
d="M220 563q-38 0 -60 22.5t-22 55.5q0 41 30 70.5t75 29.5q37 0 59.5 -22.5t22.5 -55.5q0 -41 -30.5 -70.5t-74.5 -29.5zM10 0l107 504h166l-107 -504h-166zM41 -262q-67 0 -98.5 30.5t-31.5 75.5q0 53 36 94.5t83 61.5h143q-63 -8 -99 -38t-36 -73q0 -55 56 -55
q22 0 46 10l-20 -94q-42 -12 -79 -12z" />
    <glyph glyph-name="Idotaccent" unicode="&#x130;" horiz-adv-x="322" 
d="M21 0l142 670h174l-142 -670h-174zM273 729q-38 0 -61 23t-23 57q0 41 30.5 71.5t76.5 30.5q38 0 61 -23t23 -57q0 -41 -31 -71.5t-76 -30.5z" />
    <glyph glyph-name="dotlessi" unicode="&#x131;" horiz-adv-x="295" 
d="M6 0l110 504h170l-110 -504h-170z" />
    <glyph glyph-name="IJ" unicode="&#x132;" horiz-adv-x="650" 
d="M292 -16q-105 0 -167 50t-62 158q0 13 1 27t3 28h174q-3 -25 -3 -46q0 -91 68 -91q44 0 70 37t40 103l91 420h171l-93 -428q-16 -74 -49.5 -132t-92.5 -92t-151 -34zM246 312h-171l78 358h171z" />
    <glyph glyph-name="ij" unicode="&#x133;" horiz-adv-x="579" 
d="M250 112q34 0 58 28.5t32 65.5l64 298h166l-105 -494q-23 -106 -86 -169.5t-178 -63.5q-96 0 -149 45.5t-60 127.5h155q0 -35 17 -54t44 -19q37 0 57.5 30.5t31.5 76.5l18 82q-27 -31 -63.5 -48.5t-80.5 -17.5q-69 0 -101 40.5t-32 96.5q0 29 8 66l64 301h166l-65 -307
q-2 -11 -3.5 -20.5t-1.5 -17.5q0 -22 11.5 -34.5t32.5 -12.5zM210 563q-38 0 -60 22.5t-22 55.5q0 41 30 70.5t75 29.5q37 0 59.5 -22.5t22.5 -55.5q0 -41 -30.5 -70.5t-74.5 -29.5zM507 563q-38 0 -60 22.5t-22 55.5q0 41 30 70.5t75 29.5q37 0 59.5 -22.5t22.5 -55.5
q0 -41 -30.5 -70.5t-74.5 -29.5z" />
    <glyph glyph-name="uni0136" unicode="&#x136;" horiz-adv-x="667" 
d="M21 0l142 670h174l-60 -283l254 283h207l-330 -330q52 -30 90 -85t60 -122t28 -133h-192q-1 45 -11 93.5t-28 91.5t-43 71.5t-56 32.5l-61 -289h-174zM148 -361l15 68q31 8 52.5 24.5t37.5 48.5q-31 3 -46.5 22t-15.5 48q0 41 27 66.5t65 25.5q37 0 56 -23t19 -61
q0 -48 -27 -96t-74.5 -82t-108.5 -41z" />
    <glyph glyph-name="uni0137" unicode="&#x137;" horiz-adv-x="548" 
d="M6 0l153 700h166l-87 -396l177 200h179l-236 -239q53 -39 89 -111t43 -154h-172q-9 71 -31.5 127.5t-64.5 99.5l-50 -227h-166zM100 -346l12 59q34 8 56 25t38 48q-31 2 -47.5 20.5t-16.5 47.5q0 39 25.5 63t62.5 24q35 0 53 -21.5t18 -59.5q0 -46 -26 -91t-71 -77
t-104 -38z" />
    <glyph glyph-name="Lacute" unicode="&#x139;" horiz-adv-x="542" 
d="M21 0l143 670h174l-114 -539h262l-29 -131h-436zM158 803l246 137l57 -129l-264 -93z" />
    <glyph glyph-name="lacute" unicode="&#x13a;" horiz-adv-x="292" 
d="M10 0l149 700h166l-149 -700h-166zM168 826l206 124l54 -115l-219 -88z" />
    <glyph glyph-name="uni013B" unicode="&#x13b;" horiz-adv-x="542" 
d="M21 0l143 670h174l-114 -539h262l-29 -131h-436zM97 -361l15 68q31 8 52.5 24.5t37.5 48.5q-31 3 -46.5 22t-15.5 48q0 41 27 66.5t65 25.5q37 0 56 -23t19 -61q0 -48 -27 -96t-74.5 -82t-108.5 -41z" />
    <glyph glyph-name="uni013C" unicode="&#x13c;" horiz-adv-x="292" 
d="M10 0l149 700h166l-149 -700h-166zM-48 -346l12 59q34 8 56 25t38 48q-31 2 -47.5 20.5t-16.5 47.5q0 39 25.5 63t62.5 24q35 0 53 -21.5t18 -59.5q0 -46 -26 -91t-71 -77t-104 -38z" />
    <glyph glyph-name="Lcaron" unicode="&#x13d;" horiz-adv-x="542" 
d="M21 0l143 670h174l-114 -539h262l-29 -131h-436zM477 464h-80l44 206h131l-3 -14q-7 -33 -22 -69.5t-33.5 -69.5t-36.5 -53z" />
    <glyph glyph-name="lcaron" unicode="&#x13e;" horiz-adv-x="397" 
d="M10 0l149 700h166l-149 -700h-166zM436 516h-76l39 184h125l-2 -8q-29 -119 -86 -176z" />
    <glyph glyph-name="Lslash" unicode="&#x141;" horiz-adv-x="562" 
d="M41 0l46 215l-77 -39l26 129l79 39l69 326h174l-48 -227l142 71l-27 -129l-143 -72l-38 -182h262l-29 -131h-436z" />
    <glyph glyph-name="lslash" unicode="&#x142;" horiz-adv-x="342" 
d="M35 0l59 279l-85 -45l21 104l87 45l67 317h166l-49 -231l95 50l-22 -104l-95 -50l-78 -365h-166z" />
    <glyph glyph-name="Nacute" unicode="&#x143;" horiz-adv-x="716" 
d="M21 0l142 670h162l148 -442l93 442h165l-143 -670h-161l-148 439l-93 -439h-165zM349 803l246 137l57 -129l-264 -93z" />
    <glyph glyph-name="nacute" unicode="&#x144;" horiz-adv-x="586" 
d="M10 0l106 504h144l-11 -71q61 84 159 84q70 0 105.5 -41.5t35.5 -104.5q0 -16 -2 -32.5t-6 -33.5l-65 -305h-166l67 312q2 11 3.5 20t1.5 18q0 55 -50 55q-35 0 -58.5 -29.5t-34.5 -78.5l-63 -297h-166zM272 635l180 146l70 -103l-199 -114z" />
    <glyph glyph-name="uni0145" unicode="&#x145;" horiz-adv-x="716" 
d="M21 0l142 670h162l148 -442l93 442h165l-143 -670h-161l-148 439l-93 -439h-165zM158 -361l15 68q31 8 52.5 24.5t37.5 48.5q-31 3 -46.5 22t-15.5 48q0 41 27 66.5t65 25.5q37 0 56 -23t19 -61q0 -48 -27 -96t-74.5 -82t-108.5 -41z" />
    <glyph glyph-name="uni0146" unicode="&#x146;" horiz-adv-x="586" 
d="M10 0l106 504h144l-11 -71q61 84 159 84q70 0 105.5 -41.5t35.5 -104.5q0 -16 -2 -32.5t-6 -33.5l-65 -305h-166l67 312q2 11 3.5 20t1.5 18q0 55 -50 55q-35 0 -58.5 -29.5t-34.5 -78.5l-63 -297h-166zM101 -346l12 59q34 8 56 25t38 48q-31 2 -47.5 20.5t-16.5 47.5
q0 39 25.5 63t62.5 24q35 0 53 -21.5t18 -59.5q0 -46 -26 -91t-71 -77t-104 -38z" />
    <glyph glyph-name="Ncaron" unicode="&#x147;" horiz-adv-x="716" 
d="M21 0l142 670h162l148 -442l93 442h165l-143 -670h-161l-148 439l-93 -439h-165zM427 725l-139 140l55 65l131 -88l154 88l48 -74l-178 -131h-71z" />
    <glyph glyph-name="ncaron" unicode="&#x148;" horiz-adv-x="586" 
d="M10 0l106 504h144l-11 -71q61 84 159 84q70 0 105.5 -41.5t35.5 -104.5q0 -16 -2 -32.5t-6 -33.5l-65 -305h-166l67 312q2 11 3.5 20t1.5 18q0 55 -50 55q-35 0 -58.5 -29.5t-34.5 -78.5l-63 -297h-166zM310 567l-109 158l63 55l100 -103l140 103l51 -64l-162 -149h-83z
" />
    <glyph glyph-name="Eng" unicode="&#x14a;" horiz-adv-x="716" 
d="M329 -95q35 0 60 24.5t35 70.5l15 73l-156 382l-97 -455h-165l142 670h162l159 -390l82 390h165l-134 -631q-29 -134 -90 -198t-170 -64q-36 0 -67 6.5t-53 16.5l41 121q16 -7 36 -11.5t35 -4.5z" />
    <glyph glyph-name="eng" unicode="&#x14b;" horiz-adv-x="587" 
d="M229 -107q27 0 46.5 20.5t29.5 65.5l72 332q1 8 3 20.5t2 22.5q0 23 -13 37t-37 14q-34 0 -58 -28.5t-35 -78.5l-63 -298h-166l106 504h144l-11 -71q29 39 69.5 61.5t91.5 22.5q73 0 106.5 -41.5t33.5 -101.5q0 -18 -2.5 -35t-6.5 -34l-70 -326q-23 -103 -75 -152.5
t-146 -49.5q-28 0 -54 4.5t-42 14.5l36 104q22 -7 39 -7z" />
    <glyph glyph-name="Ohungarumlaut" unicode="&#x150;" horiz-adv-x="706" 
d="M323 -16q-133 0 -207 76.5t-74 218.5q0 81 25 154.5t73.5 130.5t118.5 89.5t159 32.5q133 0 207 -76.5t74 -218.5q0 -81 -25 -154.5t-73.5 -130.5t-118.5 -89.5t-159 -32.5zM332 106q46 0 81.5 28t59.5 73t36 97.5t12 100.5q0 80 -30.5 119.5t-81.5 39.5q-47 0 -82 -28
t-59 -73t-36 -97.5t-12 -100.5q0 -80 30.5 -119.5t81.5 -39.5zM272 783l187 172l74 -96l-214 -139zM482 789l207 131l59 -107l-229 -93z" />
    <glyph glyph-name="ohungarumlaut" unicode="&#x151;" horiz-adv-x="570" 
d="M250 -13q-72 0 -122 28t-76 77.5t-26 114.5q0 55 19 110t56.5 100t92.5 72.5t126 27.5q72 0 122 -28.5t76 -78.5t26 -114q0 -55 -19 -110t-56.5 -100t-92.5 -72t-126 -27zM255 92q30 0 52 21.5t36.5 56t22 73.5t7.5 74q0 44 -13 69.5t-44 25.5q-30 0 -52.5 -22t-37 -56.5
t-22 -73.5t-7.5 -73q0 -43 13 -69t45 -26zM204 606l170 183l76 -78l-196 -157zM375 612l198 154l60 -91l-216 -121z" />
    <glyph glyph-name="OE" unicode="&#x152;" horiz-adv-x="933" 
d="M835 0h-483q-154 0 -232 72.5t-78 205.5q0 81 29 152t86 125t141 84.5t195 30.5h480l-27 -123h-271l-32 -148h246l-26 -118h-245l-34 -158h278zM393 124h27l90 421h-36q-81 0 -136.5 -34.5t-84 -92.5t-28.5 -131q0 -85 41 -124t127 -39z" />
    <glyph glyph-name="oe" unicode="&#x153;" horiz-adv-x="871" 
d="M246 -13q-70 0 -119 28t-75 77.5t-26 114.5q0 55 19.5 110t56.5 100t91 72.5t123 27.5q55 0 93 -19t65 -56q30 36 71.5 55.5t97.5 19.5q67 0 112 -27.5t67.5 -75.5t22.5 -110q0 -20 -2.5 -42t-7.5 -45h-318q-3 -22 -3 -41q0 -45 17 -64.5t48 -19.5q57 0 77 65h162
q-27 -83 -93.5 -126.5t-151.5 -43.5q-53 0 -92.5 18t-60.5 59q-69 -77 -174 -77zM255 92q32 0 54.5 23.5t36.5 59t20.5 74.5t6.5 69q0 49 -15 71.5t-43 22.5q-30 0 -52 -22t-36.5 -57t-22 -74t-7.5 -73q0 -42 13 -68t45 -26zM631 412q-33 0 -58 -31t-39 -85h153q1 7 1 18
q0 52 -15.5 75t-41.5 23z" />
    <glyph glyph-name="Racute" unicode="&#x154;" horiz-adv-x="645" 
d="M21 0l143 670h242q122 0 178.5 -48t56.5 -127t-53.5 -134.5t-161.5 -69.5q66 -35 103.5 -113t47.5 -178h-183q-9 110 -45 181.5t-98 79.5l-56 -261h-174zM366 555h-53l-40 -186h58q65 0 99 30t34 76q0 38 -24.5 59t-73.5 21zM300 803l246 137l57 -129l-264 -93z" />
    <glyph glyph-name="racute" unicode="&#x155;" horiz-adv-x="387" 
d="M9 0l107 504h144l-15 -103q20 43 56 77t90 34q17 0 30 -3l-34 -155q-17 5 -36 5q-51 0 -85.5 -42.5t-50.5 -117.5l-42 -199h-164zM191 635l180 146l70 -103l-199 -114z" />
    <glyph glyph-name="Rcaron" unicode="&#x158;" horiz-adv-x="645" 
d="M21 0l143 670h242q122 0 178.5 -48t56.5 -127t-53.5 -134.5t-161.5 -69.5q66 -35 103.5 -113t47.5 -178h-183q-9 110 -45 181.5t-98 79.5l-56 -261h-174zM366 555h-53l-40 -186h58q65 0 99 30t34 76q0 38 -24.5 59t-73.5 21zM378 725l-139 140l55 65l131 -88l154 88
l48 -74l-178 -131h-71z" />
    <glyph glyph-name="rcaron" unicode="&#x159;" horiz-adv-x="387" 
d="M9 0l107 504h144l-15 -103q20 43 56 77t90 34q17 0 30 -3l-34 -155q-17 5 -36 5q-51 0 -85.5 -42.5t-50.5 -117.5l-42 -199h-164zM229 567l-109 158l63 55l100 -103l140 103l51 -64l-162 -149h-83z" />
    <glyph glyph-name="Sacute" unicode="&#x15a;" horiz-adv-x="602" 
d="M271 -16q-71 0 -128 21.5t-90.5 66t-33.5 113.5q0 19 2 31h168q-1 -10 -1 -15v-10q0 -53 27.5 -74t65.5 -21q49 0 73 27.5t24 60.5q0 38 -23.5 53.5t-49.5 25.5l-80 31q-23 9 -53 27.5t-52 52t-22 88.5q0 62 34 113t96 81t146 30q66 0 118 -21.5t82 -67.5t30 -119v-8
t-1 -11h-167q1 6 1.5 14.5t0.5 15.5q0 38 -22.5 61.5t-58.5 23.5q-40 0 -63 -24t-23 -60q0 -35 23 -51.5t45 -24.5l76 -29q19 -7 43 -19t46 -32t36.5 -51t14.5 -75q0 -60 -32.5 -111t-96 -82t-155.5 -31zM279 803l246 137l57 -129l-264 -93z" />
    <glyph glyph-name="sacute" unicode="&#x15b;" horiz-adv-x="500" 
d="M221 -13q-85 0 -133 26t-68 65.5t-22 80.5h158q2 -33 19 -53.5t52 -20.5q26 0 45.5 12.5t19.5 38.5q0 25 -17 36.5t-48 22.5l-53 20q-27 10 -54.5 26t-45.5 42t-18 66q0 46 26.5 84t77 61t120.5 23t114 -22t66.5 -59.5t26.5 -81.5h-154q-2 26 -15.5 45.5t-47.5 19.5
q-26 0 -42 -13.5t-16 -35.5q0 -24 18 -35.5t44 -21.5l54 -20q24 -9 52 -24.5t48 -43t20 -72.5q0 -73 -58.5 -119.5t-168.5 -46.5zM214 635l180 146l70 -103l-199 -114z" />
    <glyph glyph-name="Scedilla" unicode="&#x15e;" horiz-adv-x="602" 
d="M271 -16q-71 0 -128 21.5t-90.5 66t-33.5 113.5q0 19 2 31h168q-1 -10 -1 -15v-10q0 -53 27.5 -74t65.5 -21q49 0 73 27.5t24 60.5q0 38 -23.5 53.5t-49.5 25.5l-80 31q-23 9 -53 27.5t-52 52t-22 88.5q0 62 34 113t96 81t146 30q66 0 118 -21.5t82 -67.5t30 -119v-8
t-1 -11h-167q1 6 1.5 14.5t0.5 15.5q0 38 -22.5 61.5t-58.5 23.5q-40 0 -63 -24t-23 -60q0 -35 23 -51.5t45 -24.5l76 -29q19 -7 43 -19t46 -32t36.5 -51t14.5 -75q0 -60 -32.5 -111t-96 -82t-155.5 -31zM204 0h73l-20 -56h7q44 0 72.5 -25t28.5 -73q0 -55 -40 -89.5
t-116 -34.5q-19 0 -43.5 3t-49.5 12l18 76q16 -5 35 -8.5t36 -3.5q31 0 46 12t15 32q0 19 -10.5 27.5t-25.5 8.5q-21 0 -38 -11h-29z" />
    <glyph glyph-name="scedilla" unicode="&#x15f;" horiz-adv-x="500" 
d="M221 -13q-85 0 -133 26t-68 65.5t-22 80.5h158q2 -33 19 -53.5t52 -20.5q26 0 45.5 12.5t19.5 38.5q0 25 -17 36.5t-48 22.5l-53 20q-27 10 -54.5 26t-45.5 42t-18 66q0 46 26.5 84t77 61t120.5 23t114 -22t66.5 -59.5t26.5 -81.5h-154q-2 26 -15.5 45.5t-47.5 19.5
q-26 0 -42 -13.5t-16 -35.5q0 -24 18 -35.5t44 -21.5l54 -20q24 -9 52 -24.5t48 -43t20 -72.5q0 -73 -58.5 -119.5t-168.5 -46.5zM144 0h64l-19 -57q7 1 14 1q37 0 63 -24t26 -71q0 -53 -37.5 -87t-107.5 -34q-40 0 -83 13l16 72q28 -9 57 -9q58 0 58 45q0 34 -33 34
q-16 0 -29 -11h-28z" />
    <glyph glyph-name="Scaron" unicode="&#x160;" horiz-adv-x="602" 
d="M271 -16q-71 0 -128 21.5t-90.5 66t-33.5 113.5q0 19 2 31h168q-1 -10 -1 -15v-10q0 -53 27.5 -74t65.5 -21q49 0 73 27.5t24 60.5q0 38 -23.5 53.5t-49.5 25.5l-80 31q-23 9 -53 27.5t-52 52t-22 88.5q0 62 34 113t96 81t146 30q66 0 118 -21.5t82 -67.5t30 -119v-8
t-1 -11h-167q1 6 1.5 14.5t0.5 15.5q0 38 -22.5 61.5t-58.5 23.5q-40 0 -63 -24t-23 -60q0 -35 23 -51.5t45 -24.5l76 -29q19 -7 43 -19t46 -32t36.5 -51t14.5 -75q0 -60 -32.5 -111t-96 -82t-155.5 -31zM357 725l-139 140l55 65l131 -88l154 88l48 -74l-178 -131h-71z" />
    <glyph glyph-name="scaron" unicode="&#x161;" horiz-adv-x="500" 
d="M221 -13q-85 0 -133 26t-68 65.5t-22 80.5h158q2 -33 19 -53.5t52 -20.5q26 0 45.5 12.5t19.5 38.5q0 25 -17 36.5t-48 22.5l-53 20q-27 10 -54.5 26t-45.5 42t-18 66q0 46 26.5 84t77 61t120.5 23t114 -22t66.5 -59.5t26.5 -81.5h-154q-2 26 -15.5 45.5t-47.5 19.5
q-26 0 -42 -13.5t-16 -35.5q0 -24 18 -35.5t44 -21.5l54 -20q24 -9 52 -24.5t48 -43t20 -72.5q0 -73 -58.5 -119.5t-168.5 -46.5zM252 567l-109 158l63 55l100 -103l140 103l51 -64l-162 -149h-83z" />
    <glyph glyph-name="uni0162" unicode="&#x162;" horiz-adv-x="576" 
d="M146 0l116 543h-188l28 127h550l-28 -127h-188l-116 -543h-174zM174 0h73l-20 -56h7q44 0 72.5 -25t28.5 -73q0 -55 -40 -89.5t-116 -34.5q-19 0 -43.5 3t-49.5 12l18 76q16 -5 35 -8.5t36 -3.5q31 0 46 12t15 32q0 19 -10.5 27.5t-25.5 8.5q-21 0 -38 -11h-29z" />
    <glyph glyph-name="uni0163" unicode="&#x163;" horiz-adv-x="393" 
d="M205 -13q-73 0 -112.5 34t-39.5 99q0 25 6 52l49 228h-60l22 104h60l30 142h166l-30 -142h113l-22 -104h-114l-49 -230q-3 -14 -3 -23q0 -44 48 -44q21 0 41 6l14 -101q-26 -9 -56 -15t-63 -6zM121 0h64l-19 -57q7 1 14 1q37 0 63 -24t26 -71q0 -53 -37.5 -87t-107.5 -34
q-40 0 -83 13l16 72q28 -9 57 -9q58 0 58 45q0 34 -33 34q-16 0 -29 -11h-28z" />
    <glyph glyph-name="Tcaron" unicode="&#x164;" horiz-adv-x="576" 
d="M146 0l116 543h-188l28 127h550l-28 -127h-188l-116 -543h-174zM353 725l-139 140l55 65l131 -88l154 88l48 -74l-178 -131h-71z" />
    <glyph glyph-name="tcaron" unicode="&#x165;" horiz-adv-x="393" 
d="M205 -13q-73 0 -112.5 34t-39.5 99q0 25 6 52l49 228h-60l22 104h60l30 142h166l-30 -142h113l-22 -104h-114l-49 -230q-3 -14 -3 -23q0 -44 48 -44q21 0 41 6l14 -101q-26 -9 -56 -15t-63 -6zM431 544h-80l33 151h119l-3 -13q-10 -43 -25.5 -75t-43.5 -63z" />
    <glyph glyph-name="Tbar" unicode="&#x166;" horiz-adv-x="576" 
d="M146 0l57 269h-118l24 112h118l35 162h-188l28 127h550l-28 -127h-188l-35 -162h120l-24 -112h-120l-57 -269h-174z" />
    <glyph glyph-name="tbar" unicode="&#x167;" horiz-adv-x="388" 
d="M7 205l22 104h59l20 91h-60l22 104h60l30 142h166l-30 -142h113l-22 -104h-114l-19 -91h114l-22 -104h-114l-8 -35q-3 -14 -3 -23q0 -44 48 -44q21 0 41 6l14 -101q-26 -9 -56 -15t-63 -6q-73 0 -112.5 34t-39.5 99q0 25 6 52l7 33h-59z" />
    <glyph glyph-name="Utilde" unicode="&#x168;" horiz-adv-x="685" 
d="M297 -16q-119 0 -179.5 55t-60.5 150q0 18 2.5 40t7.5 45l85 396h174l-88 -411q-4 -18 -5.5 -34.5t-1.5 -27.5q0 -41 22.5 -62.5t60.5 -21.5q53 0 87.5 42t51.5 122l85 393h174l-87 -405q-29 -132 -109 -206.5t-219 -74.5zM435 778q-10 10 -20 16.5t-24 6.5
q-17 0 -29.5 -13.5t-23.5 -48.5h-94q8 47 28.5 85.5t52.5 61.5t73 23q34 0 55.5 -14.5t39.5 -30.5q10 -9 20 -16t24 -7q16 0 30 13.5t24 48.5h93q-12 -75 -53.5 -122.5t-101.5 -47.5q-33 0 -53.5 13.5t-40.5 31.5z" />
    <glyph glyph-name="utilde" unicode="&#x169;" horiz-adv-x="575" 
d="M171 -13q-69 0 -101.5 41.5t-32.5 102.5q0 17 2 34t6 34l65 305h166l-67 -313q-2 -11 -3.5 -20.5t-1.5 -18.5q0 -53 45 -53q32 0 55.5 29t33.5 78l63 298h166l-108 -504h-145l10 70q-27 -39 -65.5 -61t-87.5 -22zM342 611q-14 13 -22 18t-16 5q-26 0 -39 -57h-94
q12 71 51 115.5t92 44.5q31 0 50.5 -12t35.5 -28q14 -13 22 -18t16 -5q26 0 39 57h93q-11 -71 -50 -115.5t-92 -44.5q-31 0 -50.5 12t-35.5 28z" />
    <glyph glyph-name="Umacron" unicode="&#x16a;" horiz-adv-x="685" 
d="M297 -16q-119 0 -179.5 55t-60.5 150q0 18 2.5 40t7.5 45l85 396h174l-88 -411q-4 -18 -5.5 -34.5t-1.5 -27.5q0 -41 22.5 -62.5t60.5 -21.5q53 0 87.5 42t51.5 122l85 393h174l-87 -405q-29 -132 -109 -206.5t-219 -74.5zM264 757l24 113h375l-24 -113h-375z" />
    <glyph glyph-name="umacron" unicode="&#x16b;" horiz-adv-x="575" 
d="M171 -13q-69 0 -101.5 41.5t-32.5 102.5q0 17 2 34t6 34l65 305h166l-67 -313q-2 -11 -3.5 -20.5t-1.5 -18.5q0 -53 45 -53q32 0 55.5 29t33.5 78l63 298h166l-108 -504h-145l10 70q-27 -39 -65.5 -61t-87.5 -22zM196 594l22 101h325l-22 -101h-325z" />
    <glyph glyph-name="Uring" unicode="&#x16e;" horiz-adv-x="685" 
d="M297 -16q-119 0 -179.5 55t-60.5 150q0 18 2.5 40t7.5 45l85 396h174l-88 -411q-4 -18 -5.5 -34.5t-1.5 -27.5q0 -41 22.5 -62.5t60.5 -21.5q53 0 87.5 42t51.5 122l85 393h174l-87 -405q-29 -132 -109 -206.5t-219 -74.5zM457 719q-56 0 -84.5 31t-28.5 77
q0 36 17.5 66.5t48 48.5t69.5 18q56 0 84.5 -31t28.5 -77q0 -36 -17.5 -66t-48 -48.5t-69.5 -18.5zM460 787q24 0 39.5 18.5t15.5 45.5q0 19 -10 30t-29 11q-24 0 -39.5 -18.5t-15.5 -45.5q0 -19 10 -30t29 -11z" />
    <glyph glyph-name="uring" unicode="&#x16f;" horiz-adv-x="575" 
d="M171 -13q-69 0 -101.5 41.5t-32.5 102.5q0 17 2 34t6 34l65 305h166l-67 -313q-2 -11 -3.5 -20.5t-1.5 -18.5q0 -53 45 -53q32 0 55.5 29t33.5 78l63 298h166l-108 -504h-145l10 70q-27 -39 -65.5 -61t-87.5 -22zM363 552q-56 0 -83.5 29.5t-27.5 76.5q0 36 17 65.5
t47 47.5t69 18q56 0 83.5 -29.5t27.5 -76.5q0 -35 -17 -65t-47 -48t-69 -18zM364 616q26 0 42.5 19t16.5 48q0 19 -10 30.5t-29 11.5q-26 0 -42.5 -19.5t-16.5 -47.5q0 -19 10 -30.5t29 -11.5z" />
    <glyph glyph-name="Uhungarumlaut" unicode="&#x170;" horiz-adv-x="685" 
d="M297 -16q-119 0 -179.5 55t-60.5 150q0 18 2.5 40t7.5 45l85 396h174l-88 -411q-4 -18 -5.5 -34.5t-1.5 -27.5q0 -41 22.5 -62.5t60.5 -21.5q53 0 87.5 42t51.5 122l85 393h174l-87 -405q-29 -132 -109 -206.5t-219 -74.5zM273 783l187 172l74 -96l-214 -139zM483 789
l207 131l59 -107l-229 -93z" />
    <glyph glyph-name="uhungarumlaut" unicode="&#x171;" horiz-adv-x="575" 
d="M171 -13q-69 0 -101.5 41.5t-32.5 102.5q0 17 2 34t6 34l65 305h166l-67 -313q-2 -11 -3.5 -20.5t-1.5 -18.5q0 -53 45 -53q32 0 55.5 29t33.5 78l63 298h166l-108 -504h-145l10 70q-27 -39 -65.5 -61t-87.5 -22zM209 606l170 183l76 -78l-196 -157zM380 612l198 154
l60 -91l-216 -121z" />
    <glyph glyph-name="Uogonek" unicode="&#x172;" horiz-adv-x="685" 
d="M297 -16q-119 0 -179.5 55t-60.5 150q0 18 2.5 40t7.5 45l85 396h174l-88 -411q-4 -18 -5.5 -34.5t-1.5 -27.5q0 -41 22.5 -62.5t60.5 -21.5q53 0 87.5 42t51.5 122l85 393h174l-87 -405q-29 -132 -109 -206.5t-219 -74.5zM356 -267q-74 0 -107 31.5t-33 78.5
q0 55 36.5 96t87.5 61l133 28q-55 -29 -90 -60.5t-35 -77.5q0 -58 62 -58q23 0 47 10l-19 -95q-42 -14 -82 -14z" />
    <glyph glyph-name="uogonek" unicode="&#x173;" horiz-adv-x="575" 
d="M171 -13q-69 0 -101.5 41.5t-32.5 102.5q0 17 2 34t6 34l65 305h166l-67 -313q-2 -11 -3.5 -20.5t-1.5 -18.5q0 -53 45 -53q32 0 55.5 29t33.5 78l63 298h166l-108 -504h-145l10 70q-27 -39 -65.5 -61t-87.5 -22zM325 -262q-67 0 -98.5 30.5t-31.5 75.5q0 53 36 94.5
t83 61.5h143q-63 -8 -99 -38t-36 -73q0 -55 56 -55q22 0 46 10l-20 -94q-42 -12 -79 -12z" />
    <glyph glyph-name="Wcircumflex" unicode="&#x174;" horiz-adv-x="890" 
d="M102 0l10 670h173l-15 -440l210 440h120l14 -438l185 438h167l-300 -670h-176l-7 429l-205 -429h-176zM611 915l139 -140l-55 -65l-131 88l-154 -88l-48 74l178 131h71z" />
    <glyph glyph-name="wcircumflex" unicode="&#x175;" horiz-adv-x="749" 
d="M73 0l-14 504h173l-25 -345l158 345h145l-4 -342l140 342h156l-255 -504h-169l-2 277l-135 -277h-168zM525 770l109 -158l-63 -55l-100 103l-140 -103l-51 64l162 149h83z" />
    <glyph glyph-name="Ycircumflex" unicode="&#x176;" horiz-adv-x="611" 
d="M155 0l59 272l-124 398h178l61 -270l188 270h182l-312 -403l-58 -267h-174zM464 915l139 -140l-55 -65l-131 88l-154 -88l-48 74l178 131h71z" />
    <glyph glyph-name="ycircumflex" unicode="&#x177;" horiz-adv-x="507" 
d="M2 -223q-33 0 -58 6.5t-39 15.5l40 106q31 -13 58 -13q24 0 45.5 15.5t49.5 60.5l26 41l-64 495h165l11 -323l162 323h162l-339 -573q-45 -77 -94 -115.5t-125 -38.5zM394 770l109 -158l-63 -55l-100 103l-140 -103l-51 64l162 149h83z" />
    <glyph glyph-name="Ydieresis" unicode="&#x178;" horiz-adv-x="611" 
d="M155 0l59 272l-124 398h178l61 -270l188 270h182l-312 -403l-58 -267h-174zM294 738q-35 0 -55.5 20.5t-20.5 51.5q0 38 27.5 65t69.5 27q34 0 54.5 -20.5t20.5 -51.5q0 -38 -27.5 -65t-68.5 -27zM524 738q-35 0 -55.5 20.5t-20.5 51.5q0 38 27.5 65t69.5 27
q34 0 54.5 -20.5t20.5 -51.5q0 -38 -27.5 -65t-68.5 -27z" />
    <glyph glyph-name="Zacute" unicode="&#x179;" horiz-adv-x="600" 
d="M120 547l27 123h503l-22 -99l-399 -448h303l-27 -123h-518l22 99l398 448h-287zM301 803l246 137l57 -129l-264 -93z" />
    <glyph glyph-name="zacute" unicode="&#x17a;" horiz-adv-x="470" 
d="M-17 0l17 80l271 305h-202l26 119h398l-17 -80l-279 -305h226l-26 -119h-414zM227 635l180 146l70 -103l-199 -114z" />
    <glyph glyph-name="Zdotaccent" unicode="&#x17b;" horiz-adv-x="600" 
d="M120 547l27 123h503l-22 -99l-399 -448h303l-27 -123h-518l22 99l398 448h-287zM420 729q-38 0 -61 23t-23 57q0 41 30.5 71.5t76.5 30.5q38 0 61 -23t23 -57q0 -41 -31 -71.5t-76 -30.5z" />
    <glyph glyph-name="zdotaccent" unicode="&#x17c;" horiz-adv-x="470" 
d="M-17 0l17 80l271 305h-202l26 119h398l-17 -80l-279 -305h226l-26 -119h-414zM319 563q-38 0 -60 22.5t-22 55.5q0 41 30 70.5t75 29.5q37 0 59.5 -22.5t22.5 -55.5q0 -41 -30.5 -70.5t-74.5 -29.5z" />
    <glyph glyph-name="Zcaron" unicode="&#x17d;" horiz-adv-x="600" 
d="M120 547l27 123h503l-22 -99l-399 -448h303l-27 -123h-518l22 99l398 448h-287zM379 725l-139 140l55 65l131 -88l154 88l48 -74l-178 -131h-71z" />
    <glyph glyph-name="zcaron" unicode="&#x17e;" horiz-adv-x="470" 
d="M-17 0l17 80l271 305h-202l26 119h398l-17 -80l-279 -305h226l-26 -119h-414zM265 567l-109 158l63 55l100 -103l140 103l51 -64l-162 -149h-83z" />
    <glyph glyph-name="uni0218" unicode="&#x218;" horiz-adv-x="602" 
d="M271 -16q-71 0 -128 21.5t-90.5 66t-33.5 113.5q0 19 2 31h168q-1 -10 -1 -15v-10q0 -53 27.5 -74t65.5 -21q49 0 73 27.5t24 60.5q0 38 -23.5 53.5t-49.5 25.5l-80 31q-23 9 -53 27.5t-52 52t-22 88.5q0 62 34 113t96 81t146 30q66 0 118 -21.5t82 -67.5t30 -119v-8
t-1 -11h-167q1 6 1.5 14.5t0.5 15.5q0 38 -22.5 61.5t-58.5 23.5q-40 0 -63 -24t-23 -60q0 -35 23 -51.5t45 -24.5l76 -29q19 -7 43 -19t46 -32t36.5 -51t14.5 -75q0 -60 -32.5 -111t-96 -82t-155.5 -31zM114 -361l15 68q31 8 52.5 24.5t37.5 48.5q-31 3 -46.5 22t-15.5 48
q0 41 27 66.5t65 25.5q37 0 56 -23t19 -61q0 -48 -27 -96t-74.5 -82t-108.5 -41z" />
    <glyph glyph-name="uni0219" unicode="&#x219;" horiz-adv-x="500" 
d="M221 -13q-85 0 -133 26t-68 65.5t-22 80.5h158q2 -33 19 -53.5t52 -20.5q26 0 45.5 12.5t19.5 38.5q0 25 -17 36.5t-48 22.5l-53 20q-27 10 -54.5 26t-45.5 42t-18 66q0 46 26.5 84t77 61t120.5 23t114 -22t66.5 -59.5t26.5 -81.5h-154q-2 26 -15.5 45.5t-47.5 19.5
q-26 0 -42 -13.5t-16 -35.5q0 -24 18 -35.5t44 -21.5l54 -20q24 -9 52 -24.5t48 -43t20 -72.5q0 -73 -58.5 -119.5t-168.5 -46.5zM63 -346l12 59q34 8 56 25t38 48q-31 2 -47.5 20.5t-16.5 47.5q0 39 25.5 63t62.5 24q35 0 53 -21.5t18 -59.5q0 -46 -26 -91t-71 -77
t-104 -38z" />
    <glyph glyph-name="uni021A" unicode="&#x21a;" horiz-adv-x="576" 
d="M146 0l116 543h-188l28 127h550l-28 -127h-188l-116 -543h-174zM84 -361l15 68q31 8 52.5 24.5t37.5 48.5q-31 3 -46.5 22t-15.5 48q0 41 27 66.5t65 25.5q37 0 56 -23t19 -61q0 -48 -27 -96t-74.5 -82t-108.5 -41z" />
    <glyph glyph-name="uni021B" unicode="&#x21b;" horiz-adv-x="393" 
d="M205 -13q-73 0 -112.5 34t-39.5 99q0 25 6 52l49 228h-60l22 104h60l30 142h166l-30 -142h113l-22 -104h-114l-49 -230q-3 -14 -3 -23q0 -44 48 -44q21 0 41 6l14 -101q-26 -9 -56 -15t-63 -6zM40 -346l12 59q34 8 56 25t38 48q-31 2 -47.5 20.5t-16.5 47.5q0 39 25.5 63
t62.5 24q35 0 53 -21.5t18 -59.5q0 -46 -26 -91t-71 -77t-104 -38z" />
    <glyph glyph-name="circumflex" unicode="&#x2c6;" horiz-adv-x="500" 
d="M381 770l109 -158l-63 -55l-100 103l-140 -103l-51 64l162 149h83z" />
    <glyph glyph-name="caron" unicode="&#x2c7;" horiz-adv-x="500" 
d="M262 567l-109 158l63 55l100 -103l140 103l51 -64l-162 -149h-83z" />
    <glyph glyph-name="breve" unicode="&#x2d8;" horiz-adv-x="500" 
d="M318 569q-70 0 -104.5 38t-34.5 94q0 18 3 36h97q-1 -5 -1 -8v-8q0 -25 13 -40.5t41 -15.5q32 0 51.5 19.5t27.5 52.5h95q-15 -75 -63 -121.5t-125 -46.5z" />
    <glyph glyph-name="dotaccent" unicode="&#x2d9;" horiz-adv-x="500" 
d="M320 563q-38 0 -60 22.5t-22 55.5q0 41 30 70.5t75 29.5q37 0 59.5 -22.5t22.5 -55.5q0 -41 -30.5 -70.5t-74.5 -29.5z" />
    <glyph glyph-name="ring" unicode="&#x2da;" horiz-adv-x="500" 
d="M331 552q-56 0 -83.5 29.5t-27.5 76.5q0 36 17 65.5t47 47.5t69 18q56 0 83.5 -29.5t27.5 -76.5q0 -35 -17 -65t-47 -48t-69 -18zM332 616q26 0 42.5 19t16.5 48q0 19 -10 30.5t-29 11.5q-26 0 -42.5 -19.5t-16.5 -47.5q0 -19 10 -30.5t29 -11.5z" />
    <glyph glyph-name="ogonek" unicode="&#x2db;" horiz-adv-x="500" 
d="M192 -262q-67 0 -98.5 30.5t-31.5 75.5q0 53 36 94.5t83 61.5h143q-63 -8 -99 -38t-36 -73q0 -55 56 -55q22 0 46 10l-20 -94q-42 -12 -79 -12z" />
    <glyph glyph-name="tilde" unicode="&#x2dc;" horiz-adv-x="500" 
d="M290 611q-14 13 -22 18t-16 5q-26 0 -39 -57h-94q12 71 51 115.5t92 44.5q31 0 50.5 -12t35.5 -28q14 -13 22 -18t16 -5q26 0 39 57h93q-11 -71 -50 -115.5t-92 -44.5q-31 0 -50.5 12t-35.5 28z" />
    <glyph glyph-name="hungarumlaut" unicode="&#x2dd;" horiz-adv-x="500" 
d="M100 606l170 183l76 -78l-196 -157zM271 612l198 154l60 -91l-216 -121z" />
    <glyph glyph-name="gravecomb" unicode="&#x300;" 
d="M-7 781l129 -165l-67 -60l-157 137z" />
    <glyph glyph-name="acutecomb" unicode="&#x301;" 
d="M-82 635l180 146l70 -103l-199 -114z" />
    <glyph glyph-name="uni0302" unicode="&#x302;" 
d="M76 770l109 -158l-63 -55l-100 103l-140 -103l-51 64l162 149h83z" />
    <glyph glyph-name="tildecomb" unicode="&#x303;" 
d="M-8 611q-14 13 -22 18t-16 5q-26 0 -39 -57h-94q12 71 51 115.5t92 44.5q31 0 50.5 -12t35.5 -28q14 -13 22 -18t16 -5q26 0 39 57h93q-11 -71 -50 -115.5t-92 -44.5q-31 0 -50.5 12t-35.5 28z" />
    <glyph glyph-name="uni0304" unicode="&#x304;" 
d="M-154 594l22 101h325l-22 -101h-325z" />
    <glyph glyph-name="uni0306" unicode="&#x306;" 
d="M12 569q-70 0 -104.5 38t-34.5 94q0 18 3 36h97q-1 -5 -1 -8v-8q0 -25 13 -40.5t41 -15.5q32 0 51.5 19.5t27.5 52.5h95q-15 -75 -63 -121.5t-125 -46.5z" />
    <glyph glyph-name="uni0307" unicode="&#x307;" 
d="M10 563q-38 0 -60 22.5t-22 55.5q0 41 30 70.5t75 29.5q37 0 59.5 -22.5t22.5 -55.5q0 -41 -30.5 -70.5t-74.5 -29.5z" />
    <glyph glyph-name="uni0308" unicode="&#x308;" 
d="M-92 563q-33 0 -52 19.5t-19 47.5q0 35 26 61t65 26q33 0 52 -19.5t19 -47.5q0 -35 -26.5 -61t-64.5 -26zM108 563q-33 0 -52 19.5t-19 47.5q0 35 26 61t65 26q33 0 52 -19.5t19 -47.5q0 -35 -26.5 -61t-64.5 -26z" />
    <glyph glyph-name="uni030A" unicode="&#x30a;" 
d="M13 552q-56 0 -83.5 29.5t-27.5 76.5q0 36 17 65.5t47 47.5t69 18q56 0 83.5 -29.5t27.5 -76.5q0 -35 -17 -65t-47 -48t-69 -18zM14 616q26 0 42.5 19t16.5 48q0 19 -10 30.5t-29 11.5q-26 0 -42.5 -19.5t-16.5 -47.5q0 -19 10 -30.5t29 -11.5z" />
    <glyph glyph-name="uni030B" unicode="&#x30b;" 
d="M-141 606l170 183l76 -78l-196 -157zM30 612l198 154l60 -91l-216 -121z" />
    <glyph glyph-name="uni030C" unicode="&#x30c;" 
d="M-44 567l-109 158l63 55l100 -103l140 103l51 -64l-162 -149h-83z" />
    <glyph glyph-name="uni0312" unicode="&#x312;" 
d="M131 848l-12 -59q-34 -8 -56 -25t-38 -48q31 -2 47.5 -20.5t16.5 -47.5q0 -39 -25.5 -63t-62.5 -24q-35 0 -53 21.5t-18 59.5q0 46 26 91t71 77t104 38z" />
    <glyph glyph-name="uni0315" unicode="&#x315;" 
d="M20 516h-76l39 184h125l-2 -8q-29 -119 -86 -176z" />
    <glyph glyph-name="dotbelowcomb" unicode="&#x323;" 
d="M-33 -237q-37 0 -59.5 22.5t-22.5 55.5q0 41 30 70.5t75 29.5q38 0 60 -22.5t22 -55.5q0 -41 -30.5 -70.5t-74.5 -29.5z" />
    <glyph glyph-name="uni0326" unicode="&#x326;" 
d="M-131 -346l12 59q34 8 56 25t38 48q-31 2 -47.5 20.5t-16.5 47.5q0 39 25.5 63t62.5 24q35 0 53 -21.5t18 -59.5q0 -46 -26 -91t-71 -77t-104 -38z" />
    <glyph glyph-name="uni0327" unicode="&#x327;" 
d="M-50 0h64l-19 -57q7 1 14 1q37 0 63 -24t26 -71q0 -53 -37.5 -87t-107.5 -34q-40 0 -83 13l16 72q28 -9 57 -9q58 0 58 45q0 34 -33 34q-16 0 -29 -11h-28z" />
    <glyph glyph-name="uni0328" unicode="&#x328;" 
d="M-57 -262q-67 0 -98.5 30.5t-31.5 75.5q0 53 36 94.5t83 61.5h143q-63 -8 -99 -38t-36 -73q0 -55 56 -55q22 0 46 10l-20 -94q-42 -12 -79 -12z" />
    <glyph glyph-name="uni1E24" unicode="&#x1e24;" horiz-adv-x="703" 
d="M21 0l142 670h174l-58 -272h207l58 272h174l-142 -670h-174l58 275h-207l-58 -275h-174zM253 -244q-38 0 -61 23t-23 57q0 41 30.5 71.5t76.5 30.5q38 0 61 -23t23 -57q0 -41 -31 -71.5t-76 -30.5z" />
    <glyph glyph-name="uni1E25" unicode="&#x1e25;" horiz-adv-x="587" 
d="M10 0l149 700h166l-52 -239q56 56 137 56q74 0 107 -42t33 -101q0 -19 -2.5 -35.5t-6.5 -33.5l-65 -305h-166l67 312q2 11 3.5 20t1.5 18q0 55 -50 55q-35 0 -58.5 -29.5t-34.5 -78.5l-63 -297h-166zM198 -237q-37 0 -59.5 22.5t-22.5 55.5q0 41 30 70.5t75 29.5
q38 0 60 -22.5t22 -55.5q0 -41 -30.5 -70.5t-74.5 -29.5z" />
    <glyph glyph-name="uni1E36" unicode="&#x1e36;" horiz-adv-x="542" 
d="M21 0l143 670h174l-114 -539h262l-29 -131h-436zM199 -244q-38 0 -61 23t-23 57q0 41 30.5 71.5t76.5 30.5q38 0 61 -23t23 -57q0 -41 -31 -71.5t-76 -30.5z" />
    <glyph glyph-name="uni1E37" unicode="&#x1e37;" horiz-adv-x="292" 
d="M10 0l149 700h166l-149 -700h-166zM50 -237q-37 0 -59.5 22.5t-22.5 55.5q0 41 30 70.5t75 29.5q38 0 60 -22.5t22 -55.5q0 -41 -30.5 -70.5t-74.5 -29.5z" />
    <glyph glyph-name="Wgrave" unicode="&#x1e80;" horiz-adv-x="890" 
d="M102 0l10 670h173l-15 -440l210 440h120l14 -438l185 438h167l-300 -670h-176l-7 429l-205 -429h-176zM479 940l207 -150l-50 -78l-232 109z" />
    <glyph glyph-name="wgrave" unicode="&#x1e81;" horiz-adv-x="749" 
d="M73 0l-14 504h173l-25 -345l158 345h145l-4 -342l140 342h156l-255 -504h-169l-2 277l-135 -277h-168zM442 781l129 -165l-67 -60l-157 137z" />
    <glyph glyph-name="Wacute" unicode="&#x1e82;" horiz-adv-x="890" 
d="M102 0l10 670h173l-15 -440l210 440h120l14 -438l185 438h167l-300 -670h-176l-7 429l-205 -429h-176zM435 803l246 137l57 -129l-264 -93z" />
    <glyph glyph-name="wacute" unicode="&#x1e83;" horiz-adv-x="749" 
d="M73 0l-14 504h173l-25 -345l158 345h145l-4 -342l140 342h156l-255 -504h-169l-2 277l-135 -277h-168zM367 635l180 146l70 -103l-199 -114z" />
    <glyph glyph-name="Wdieresis" unicode="&#x1e84;" horiz-adv-x="890" 
d="M102 0l10 670h173l-15 -440l210 440h120l14 -438l185 438h167l-300 -670h-176l-7 429l-205 -429h-176zM441 738q-35 0 -55.5 20.5t-20.5 51.5q0 38 27.5 65t69.5 27q34 0 54.5 -20.5t20.5 -51.5q0 -38 -27.5 -65t-68.5 -27zM671 738q-35 0 -55.5 20.5t-20.5 51.5
q0 38 27.5 65t69.5 27q34 0 54.5 -20.5t20.5 -51.5q0 -38 -27.5 -65t-68.5 -27z" />
    <glyph glyph-name="wdieresis" unicode="&#x1e85;" horiz-adv-x="749" 
d="M73 0l-14 504h173l-25 -345l158 345h145l-4 -342l140 342h156l-255 -504h-169l-2 277l-135 -277h-168zM357 563q-33 0 -52 19.5t-19 47.5q0 35 26 61t65 26q33 0 52 -19.5t19 -47.5q0 -35 -26.5 -61t-64.5 -26zM557 563q-33 0 -52 19.5t-19 47.5q0 35 26 61t65 26
q33 0 52 -19.5t19 -47.5q0 -35 -26.5 -61t-64.5 -26z" />
    <glyph glyph-name="uni1E9E" unicode="&#x1e9e;" horiz-adv-x="652" 
d="M4 0l87 409q28 131 102.5 204t204.5 73q109 0 167.5 -50.5t78.5 -134.5l-146 -120q63 -17 90.5 -61t27.5 -103q0 -67 -31.5 -119.5t-90 -83t-141.5 -30.5q-31 0 -66.5 5t-57.5 17l37 106q18 -7 37 -9.5t30 -2.5q47 0 74 32.5t27 82.5q0 43 -19.5 67t-51.5 24h-13l21 95
l124 102q-8 28 -32 48t-65 20q-48 0 -80 -31.5t-46 -98.5l-94 -441h-174z" />
    <glyph glyph-name="Ygrave" unicode="&#x1ef2;" horiz-adv-x="611" 
d="M155 0l59 272l-124 398h178l61 -270l188 270h182l-312 -403l-58 -267h-174zM332 940l207 -150l-50 -78l-232 109z" />
    <glyph glyph-name="ygrave" unicode="&#x1ef3;" horiz-adv-x="507" 
d="M2 -223q-33 0 -58 6.5t-39 15.5l40 106q31 -13 58 -13q24 0 45.5 15.5t49.5 60.5l26 41l-64 495h165l11 -323l162 323h162l-339 -573q-45 -77 -94 -115.5t-125 -38.5zM311 781l129 -165l-67 -60l-157 137z" />
    <glyph glyph-name="uni2000" unicode="&#x2000;" 
 />
    <glyph glyph-name="uni2001" unicode="&#x2001;" 
 />
    <glyph glyph-name="uni2002" unicode="&#x2002;" 
 />
    <glyph glyph-name="uni2003" unicode="&#x2003;" 
 />
    <glyph glyph-name="uni2004" unicode="&#x2004;" 
 />
    <glyph glyph-name="uni2005" unicode="&#x2005;" 
 />
    <glyph glyph-name="uni2006" unicode="&#x2006;" 
 />
    <glyph glyph-name="uni2007" unicode="&#x2007;" 
 />
    <glyph glyph-name="uni2008" unicode="&#x2008;" 
 />
    <glyph glyph-name="uni2009" unicode="&#x2009;" 
 />
    <glyph glyph-name="uni200A" unicode="&#x200a;" 
 />
    <glyph glyph-name="uni200B" unicode="&#x200b;" 
 />
    <glyph glyph-name="uni2010" unicode="&#x2010;" horiz-adv-x="414" 
d="M35 184l28 126h314l-28 -126h-314z" />
    <glyph glyph-name="uni2011" unicode="&#x2011;" horiz-adv-x="414" 
d="M35 184l28 126h314l-28 -126h-314z" />
    <glyph glyph-name="figuredash" unicode="&#x2012;" horiz-adv-x="590" 
d="M31 184l28 126h500l-28 -126h-500z" />
    <glyph glyph-name="endash" unicode="&#x2013;" horiz-adv-x="500" 
d="M-14 184l28 126h500l-28 -126h-500z" />
    <glyph glyph-name="emdash" unicode="&#x2014;" horiz-adv-x="1000" 
d="M-14 184l28 126h1000l-28 -126h-1000z" />
    <glyph glyph-name="uni2015" unicode="&#x2015;" horiz-adv-x="1000" 
d="M-14 184l28 126h1000l-28 -126h-1000z" />
    <glyph glyph-name="quoteleft" unicode="&#x2018;" horiz-adv-x="207" 
d="M284 710l-12 -59q-69 -13 -92 -63q30 -4 45.5 -23t15.5 -49q0 -38 -27.5 -64.5t-65.5 -26.5t-57.5 23.5t-19.5 64.5q0 47 28 90.5t76.5 72.5t108.5 34z" />
    <glyph glyph-name="quoteright" unicode="&#x2019;" horiz-adv-x="207" 
d="M59 425l12 59q69 13 92 63q-30 4 -45.5 23t-15.5 49q0 38 27.5 64.5t65.5 26.5t57.5 -23.5t19.5 -64.5q0 -48 -28 -91t-76 -72t-109 -34z" />
    <glyph glyph-name="quotesinglbase" unicode="&#x201a;" horiz-adv-x="207" 
d="M-60 -131l12 59q69 13 92 63q-30 4 -45.5 23t-15.5 49q0 38 27.5 64.5t65.5 26.5t57.5 -23.5t19.5 -64.5q0 -48 -28 -91t-76 -72t-109 -34z" />
    <glyph glyph-name="quotedblleft" unicode="&#x201c;" horiz-adv-x="430" 
d="M284 710l-12 -59q-69 -13 -92 -63q30 -4 45.5 -23t15.5 -49q0 -38 -27.5 -64.5t-65.5 -26.5t-57.5 23.5t-19.5 64.5q0 47 28 90.5t76.5 72.5t108.5 34zM507 710l-12 -59q-69 -13 -92 -63q30 -4 45.5 -23t15.5 -49q0 -38 -27.5 -64.5t-65.5 -26.5t-57.5 23.5t-19.5 64.5
q0 47 28 90.5t76.5 72.5t108.5 34z" />
    <glyph glyph-name="quotedblright" unicode="&#x201d;" horiz-adv-x="430" 
d="M59 425l12 59q69 13 92 63q-30 4 -45.5 23t-15.5 49q0 38 27.5 64.5t65.5 26.5t57.5 -23.5t19.5 -64.5q0 -48 -28 -91t-76 -72t-109 -34zM282 425l12 59q69 13 92 63q-30 4 -45.5 23t-15.5 49q0 38 27.5 64.5t65.5 26.5t57.5 -23.5t19.5 -64.5q0 -48 -28 -91t-76 -72
t-109 -34z" />
    <glyph glyph-name="quotedblbase" unicode="&#x201e;" horiz-adv-x="430" 
d="M-60 -131l12 59q69 13 92 63q-30 4 -45.5 23t-15.5 49q0 38 27.5 64.5t65.5 26.5t57.5 -23.5t19.5 -64.5q0 -48 -28 -91t-76 -72t-109 -34zM163 -131l12 59q69 13 92 63q-30 4 -45.5 23t-15.5 49q0 38 27.5 64.5t65.5 26.5t57.5 -23.5t19.5 -64.5q0 -48 -28 -91t-76 -72
t-109 -34z" />
    <glyph glyph-name="dagger" unicode="&#x2020;" horiz-adv-x="400" 
d="M56 -105l114 506l-117 -6l25 119l114 -6l29 162h131l-41 -162l120 6l-25 -119l-119 6l-100 -506h-131z" />
    <glyph glyph-name="daggerdbl" unicode="&#x2021;" horiz-adv-x="400" 
d="M56 -105l41 162l-118 -6l25 119l116 -6l51 237l-119 -6l25 119l115 -6l29 162h131l-41 -162l119 6l-25 -119l-117 6l-51 -237l120 6l-25 -119l-116 6l-29 -162h-131z" />
    <glyph glyph-name="bullet" unicode="&#x2022;" horiz-adv-x="391" 
d="M181 102q-66 0 -100.5 35t-34.5 95q0 46 22 82.5t60 58t85 21.5q62 0 96 -36t34 -94q0 -46 -22 -82.5t-58.5 -58t-81.5 -21.5z" />
    <glyph glyph-name="ellipsis" unicode="&#x2026;" horiz-adv-x="1000" 
d="M123 -10q-40 0 -61.5 21.5t-21.5 58.5q0 42 29.5 71t73.5 29q38 0 59 -22t21 -58q0 -43 -29.5 -71.5t-70.5 -28.5zM456 -10q-40 0 -61.5 21.5t-21.5 58.5q0 42 29.5 71t73.5 29q38 0 59 -22t21 -58q0 -43 -29.5 -71.5t-70.5 -28.5zM789 -10q-40 0 -61.5 21.5t-21.5 58.5
q0 42 29.5 71t73.5 29q38 0 59 -22t21 -58q0 -43 -29.5 -71.5t-70.5 -28.5z" />
    <glyph glyph-name="perthousand" unicode="&#x2030;" horiz-adv-x="1268" 
d="M167 0l456 660h137l-456 -660h-137zM666 -10q-130 0 -130 148q0 46 13 92.5t39.5 85.5t65.5 62.5t90 23.5q130 0 130 -148q0 -46 -13 -92.5t-39.5 -85.5t-65.5 -62.5t-90 -23.5zM678 69q16 0 30 23t24 57t16 68.5t6 56.5q0 28 -5 38.5t-17 10.5q-16 0 -30 -23t-24 -57
t-16 -68.5t-6 -56.5q0 -28 5 -38.5t17 -10.5zM1032 -10q-130 0 -130 148q0 46 13 92.5t39.5 85.5t65.5 62.5t90 23.5q130 0 130 -148q0 -46 -13 -92.5t-39.5 -85.5t-65.5 -62.5t-90 -23.5zM1044 69q16 0 30 23t24 57t16 68.5t6 56.5q0 28 -5 38.5t-17 10.5q-16 0 -30 -23
t-24 -57t-16 -68.5t-6 -56.5q0 -28 5 -38.5t17 -10.5zM185 258q-130 0 -130 148q0 46 13 92.5t39.5 85.5t65.5 62.5t90 23.5q130 0 130 -148q0 -46 -13 -92.5t-39.5 -85.5t-65.5 -62.5t-90 -23.5zM197 337q16 0 30 23t24 57t16 68.5t6 56.5q0 28 -5 38.5t-17 10.5
q-16 0 -30 -23t-24 -57t-16 -68.5t-6 -56.5q0 -28 5 -38.5t17 -10.5z" />
    <glyph glyph-name="guilsinglleft" unicode="&#x2039;" horiz-adv-x="341" 
d="M126 52l-96 201l174 201h164l-182 -211l99 -191h-159z" />
    <glyph glyph-name="guilsinglright" unicode="&#x203a;" horiz-adv-x="341" 
d="M215 454l96 -201l-174 -201h-164l182 211l-99 191h159z" />
    <glyph glyph-name="fraction" unicode="&#x2044;" horiz-adv-x="131" 
d="M-214 0l456 660h137l-456 -660h-137z" />
    <glyph glyph-name="uni2070" unicode="&#x2070;" horiz-adv-x="366" 
d="M204 368q-130 0 -130 148q0 46 13 92.5t39.5 85.5t65.5 62.5t90 23.5q130 0 130 -148q0 -46 -13 -92.5t-39.5 -85.5t-65.5 -62.5t-90 -23.5zM216 447q16 0 30 23t24 57t16 68.5t6 56.5q0 28 -5 38.5t-17 10.5q-16 0 -30 -23t-24 -57t-16 -68.5t-6 -56.5q0 -28 5 -38.5
t17 -10.5z" />
    <glyph glyph-name="uni2074" unicode="&#x2074;" horiz-adv-x="348" 
d="M206 374l15 72h-176l16 75l238 245h100l-52 -238h42l-17 -82h-42l-16 -72h-108zM160 528h79l21 101z" />
    <glyph glyph-name="uni2075" unicode="&#x2075;" horiz-adv-x="358" 
d="M205 365q-64 0 -101.5 30t-37.5 87h110q0 -19 7.5 -29.5t26.5 -10.5q24 0 37.5 14t19 33t5.5 34q0 24 -10.5 34t-28.5 10q-16 0 -30 -9t-22 -20h-89l69 228h254l-18 -84h-168l-18 -62q28 18 68 18q46 0 78.5 -28t32.5 -84q0 -43 -22 -79.5t-63.5 -59t-99.5 -22.5z" />
    <glyph glyph-name="uni2076" unicode="&#x2076;" horiz-adv-x="358" 
d="M217 368q-61 0 -103 38t-42 123q0 39 12 83t37 82t65 62t97 24q59 0 93 -29t34 -77h-114q0 19 -7.5 26t-19.5 7q-18 0 -35 -21.5t-33 -73.5q32 28 79 28q46 0 75.5 -29.5t29.5 -87.5q0 -45 -21 -80t-59 -55t-88 -20zM212 442q27 0 42 23t15 50q0 51 -37 51
q-28 0 -42.5 -25.5t-14.5 -51.5q0 -47 37 -47z" />
    <glyph glyph-name="uni2077" unicode="&#x2077;" horiz-adv-x="312" 
d="M59 384q27 93 77.5 164.5t137.5 143.5h-186l18 84h294l-19 -85q-82 -75 -130.5 -148.5t-70.5 -158.5h-121z" />
    <glyph glyph-name="uni2078" unicode="&#x2078;" horiz-adv-x="364" 
d="M210 368q-39 0 -74 11.5t-57.5 36t-22.5 64.5q0 41 28 71t75 43q-20 12 -32.5 31t-12.5 45q0 32 21.5 57t58 39t82.5 14q36 0 69 -9.5t54.5 -31t21.5 -57.5q0 -34 -24 -59.5t-63 -38.5q25 -12 40.5 -33.5t15.5 -52.5q0 -36 -23 -65.5t-63.5 -47t-93.5 -17.5zM260 620
q22 0 33.5 20t11.5 39q0 35 -30 35q-23 0 -34 -20t-11 -39q0 -35 30 -35zM213 437q28 0 42 25t14 50q0 45 -37 45q-27 0 -41 -25t-14 -50q0 -45 36 -45z" />
    <glyph glyph-name="uni2079" unicode="&#x2079;" horiz-adv-x="358" 
d="M261 780q60 0 102 -39t42 -124q0 -39 -12 -82.5t-37 -81.5t-65 -61.5t-97 -23.5q-59 0 -93 29t-34 77h114q0 -18 7.5 -25t19.5 -7q18 0 36 21t33 74q-33 -28 -80 -28q-46 0 -75.5 29.5t-29.5 86.5q0 45 21 80t59.5 55t88.5 20zM265 706q-27 0 -42 -24t-15 -51
q0 -49 37 -49q28 0 42.5 24.5t14.5 50.5q0 49 -37 49z" />
    <glyph glyph-name="uni2080" unicode="&#x2080;" horiz-adv-x="366" 
d="M110 -110q-130 0 -130 148q0 46 13 92.5t39.5 85.5t65.5 62.5t90 23.5q130 0 130 -148q0 -46 -13 -92.5t-39.5 -85.5t-65.5 -62.5t-90 -23.5zM122 -31q16 0 30 23t24 57t16 68.5t6 56.5q0 28 -5 38.5t-17 10.5q-16 0 -30 -23t-24 -57t-16 -68.5t-6 -56.5q0 -28 5 -38.5
t17 -10.5z" />
    <glyph glyph-name="uni2081" unicode="&#x2081;" horiz-adv-x="278" 
d="M35 -100l56 267q-48 -14 -95 -20l22 93q35 6 67 17.5t62 34.5h90l-84 -392h-118z" />
    <glyph glyph-name="uni2082" unicode="&#x2082;" horiz-adv-x="358" 
d="M-42 -100l5 22q8 34 21 59.5t38.5 49t70.5 50.5l48 28q36 21 52 39t16 44q0 33 -28 33q-18 0 -31.5 -14t-23.5 -57h-109q16 74 63.5 111t111.5 37q67 0 101.5 -29.5t34.5 -81.5q0 -41 -29 -75.5t-79 -64.5l-55 -33q-17 -10 -27.5 -18t-16.5 -15h162l-20 -85h-305z" />
    <glyph glyph-name="uni2083" unicode="&#x2083;" horiz-adv-x="358" 
d="M124 -109q-67 0 -109.5 29t-42.5 91v9t1 8h109q-1 -5 -1 -9v-6q0 -24 11.5 -34.5t31.5 -10.5q27 0 40 17.5t13 40.5q0 49 -54 49h-17l15 67h27q26 0 39 13.5t13 36.5q0 14 -8 23.5t-24 9.5q-13 0 -25 -9.5t-17 -31.5h-108q32 118 163 118q61 0 98.5 -28t37.5 -79
q0 -33 -18.5 -56t-52.5 -38q26 -13 36.5 -34.5t10.5 -47.5q0 -55 -46.5 -91.5t-122.5 -36.5z" />
    <glyph glyph-name="uni2084" unicode="&#x2084;" horiz-adv-x="348" 
d="M119 -100l15 72h-176l16 75l238 245h100l-52 -238h42l-17 -82h-42l-16 -72h-108zM73 54h79l21 101z" />
    <glyph glyph-name="uni2085" unicode="&#x2085;" horiz-adv-x="358" 
d="M113 -110q-64 0 -101.5 30t-37.5 87h110q0 -19 7.5 -29.5t26.5 -10.5q24 0 37.5 14t19 33t5.5 34q0 24 -10.5 34t-28.5 10q-16 0 -30 -9t-22 -20h-89l69 228h254l-18 -84h-168l-18 -62q28 18 68 18q46 0 78.5 -28t32.5 -84q0 -43 -22 -79.5t-63.5 -59t-99.5 -22.5z" />
    <glyph glyph-name="uni2086" unicode="&#x2086;" horiz-adv-x="358" 
d="M131 -110q-61 0 -103 38t-42 123q0 39 12 83t37 82t65 62t97 24q59 0 93 -29t34 -77h-114q0 19 -7.5 26t-19.5 7q-18 0 -35 -21.5t-33 -73.5q32 28 79 28q46 0 75.5 -29.5t29.5 -87.5q0 -45 -21 -80t-59 -55t-88 -20zM126 -36q27 0 42 23t15 50q0 51 -37 51
q-28 0 -42.5 -25.5t-14.5 -51.5q0 -47 37 -47z" />
    <glyph glyph-name="uni2087" unicode="&#x2087;" horiz-adv-x="312" 
d="M-17 -100q27 93 77.5 164.5t137.5 143.5h-186l18 84h294l-19 -85q-82 -75 -130.5 -148.5t-70.5 -158.5h-121z" />
    <glyph glyph-name="uni2088" unicode="&#x2088;" horiz-adv-x="364" 
d="M120 -110q-39 0 -74 11.5t-57.5 36t-22.5 64.5q0 41 28 71t75 43q-20 12 -32.5 31t-12.5 45q0 32 21.5 57t58 39t82.5 14q36 0 69 -9.5t54.5 -31t21.5 -57.5q0 -34 -24 -59.5t-63 -38.5q25 -12 40.5 -33.5t15.5 -52.5q0 -36 -23 -65.5t-63.5 -47t-93.5 -17.5zM170 142
q22 0 33.5 20t11.5 39q0 35 -30 35q-23 0 -34 -20t-11 -39q0 -35 30 -35zM123 -41q28 0 42 25t14 50q0 45 -37 45q-27 0 -41 -25t-14 -50q0 -45 36 -45z" />
    <glyph glyph-name="uni2089" unicode="&#x2089;" horiz-adv-x="358" 
d="M165 302q60 0 102 -39t42 -124q0 -39 -12 -82.5t-37 -81.5t-65 -61.5t-97 -23.5q-59 0 -93 29t-34 77h114q0 -18 7.5 -25t19.5 -7q18 0 36 21t33 74q-33 -28 -80 -28q-46 0 -75.5 29.5t-29.5 86.5q0 45 21 80t59.5 55t88.5 20zM169 228q-27 0 -42 -24t-15 -51
q0 -49 37 -49q28 0 42.5 24.5t14.5 50.5q0 49 -37 49z" />
    <glyph glyph-name="Euro" unicode="&#x20ac;" horiz-adv-x="590" 
d="M298 -16q-115 0 -170.5 64.5t-55.5 180.5h-57l16 76h46q3 22 7 43h-44l16 76h49q23 66 63.5 122t98.5 90t134 34q95 0 153 -54.5t58 -146.5h-167q0 82 -51 82q-36 0 -65 -36.5t-49 -90.5h175l-30 -76h-167q-5 -21 -9 -43h158l-29 -76h-136v-12q0 -62 16.5 -88t47.5 -26
q55 0 82 84h167q-20 -61 -58.5 -106.5t-89.5 -71t-109 -25.5z" />
    <glyph glyph-name="uni20B9" unicode="&#x20b9;" horiz-adv-x="590" 
d="M123 495h222q-3 40 -29.5 61.5t-78.5 21.5h-96l16 76h479l-28 -76h-142q29 -35 34 -83h94l-29 -76h-70q-14 -47 -50 -80t-87.5 -52t-110.5 -25l208 -262h-168l-214 260l17 76h101q47 0 86 20t57 63h-227z" />
    <glyph glyph-name="uni20BA" unicode="&#x20ba;" horiz-adv-x="590" 
d="M55 293l61 21l13 63l-60 -21l17 82l61 21l41 195h156l-29 -137l118 41l-18 -82l-117 -41l-14 -63l118 41l-18 -82l-117 -41l-36 -169h25q42 0 73 17.5t54 59t41 113.5h139q-28 -120 -71 -188t-107.5 -95.5t-156.5 -27.5h-179l49 232l-60 -21z" />
    <glyph glyph-name="trademark" unicode="&#x2122;" horiz-adv-x="934" 
d="M181 250v322h-124v98h371v-98h-123v-322h-124zM446 250l41 420h132l80 -244l84 244h131l41 -420h-127l-19 248l-72 -205h-74l-73 208l-20 -251h-124z" />
    <glyph glyph-name="minus" unicode="&#x2212;" horiz-adv-x="590" 
d="M83 272l25 113h420l-25 -113h-420z" />
    <glyph glyph-name="uniFB00" unicode="&#xfb00;" horiz-adv-x="686" 
d="M19 0l84 397h-60l23 107h60l3 15q20 95 72 144.5t144 49.5q61 0 107 -26l-34 -96q-27 14 -51 14q-25 0 -43 -16.5t-27 -58.5l-5 -26h154l3 15q20 95 72 144.5t144 49.5q61 0 107 -26l-34 -96q-27 14 -51 14q-25 0 -43 -16.5t-27 -58.5l-5 -26h102l-23 -107h-102l-84 -397
h-166l84 397h-154l-84 -397h-166z" />
    <glyph glyph-name="uniFB01" unicode="&#xfb01;" horiz-adv-x="621" 
d="M549 563q-37 0 -59.5 22.5t-22.5 55.5q0 41 30 70.5t75 29.5q38 0 60 -22.5t22 -55.5q0 -41 -30.5 -70.5t-74.5 -29.5zM19 0l84 397h-60l23 107h60l3 15q20 95 72 144.5t144 49.5q27 0 50 -4.5t43 -12.5l-42 -96q-12 5 -29 5q-25 0 -43 -16.5t-27 -58.5l-5 -26h83
l-23 -107h-83l-84 -397h-166zM339 0l107 504h166l-107 -504h-166z" />
    <glyph glyph-name="uniFB02" unicode="&#xfb02;" horiz-adv-x="617" 
d="M19 0l84 397h-60l23 107h60l3 15q20 95 72 144.5t144 49.5q27 0 50 -4.5t43 -12.5l-42 -96q-12 5 -29 5q-25 0 -43 -16.5t-27 -58.5l-5 -26h83l-23 -107h-83l-84 -397h-166zM335 0l149 700h166l-149 -700h-166z" />
    <glyph glyph-name="uniFB03" unicode="&#xfb03;" horiz-adv-x="941" 
d="M869 563q-37 0 -59.5 22.5t-22.5 55.5q0 41 30 70.5t75 29.5q38 0 60 -22.5t22 -55.5q0 -41 -30.5 -70.5t-74.5 -29.5zM19 0l84 397h-60l23 107h60l3 15q20 95 72 144.5t144 49.5q61 0 107 -26l-34 -96q-27 14 -51 14q-25 0 -43 -16.5t-27 -58.5l-5 -26h154l3 15
q20 95 72 144.5t144 49.5q27 0 50 -4.5t43 -12.5l-42 -96q-12 5 -29 5q-25 0 -43 -16.5t-27 -58.5l-5 -26h84l-23 -107h-84l-84 -397h-166l84 397h-154l-84 -397h-166zM659 0l107 504h166l-107 -504h-166z" />
    <glyph glyph-name="uniFB04" unicode="&#xfb04;" horiz-adv-x="938" 
d="M19 0l84 397h-60l23 107h60l3 15q20 95 72 144.5t144 49.5q61 0 107 -26l-34 -96q-27 14 -51 14q-25 0 -43 -16.5t-27 -58.5l-5 -26h154l3 15q20 95 72 144.5t144 49.5q27 0 50 -4.5t43 -12.5l-42 -96q-12 5 -29 5q-25 0 -43 -16.5t-27 -58.5l-5 -26h84l-23 -107h-84
l-84 -397h-166l84 397h-154l-84 -397h-166zM656 0l149 700h166l-149 -700h-166z" />
    <glyph glyph-name="hyphen.case" horiz-adv-x="414" 
d="M52 282l28 126h314l-28 -126h-314z" />
    <glyph glyph-name="uni2010.case" horiz-adv-x="414" 
d="M52 282l28 126h314l-28 -126h-314z" />
    <glyph glyph-name="uni2011.case" horiz-adv-x="414" 
d="M52 282l28 126h314l-28 -126h-314z" />
    <glyph glyph-name="endash.case" horiz-adv-x="500" 
d="M3 282l28 126h500l-28 -126h-500z" />
    <glyph glyph-name="emdash.case" horiz-adv-x="1000" 
d="M3 282l28 126h1000l-28 -126h-1000z" />
    <glyph glyph-name="parenleft.case" horiz-adv-x="357" 
d="M154 -75q-37 77 -56 147t-19 147q0 108 34 204.5t92 178t130 143.5h118q-64 -70 -113 -162t-77.5 -193t-28.5 -200q0 -55 3.5 -97t11.5 -81t22 -87h-117z" />
    <glyph glyph-name="parenright.case" horiz-adv-x="357" 
d="M-36 -75q63 70 112.5 162t78 193t28.5 200q0 55 -3.5 97t-12 81t-21.5 87h117q38 -77 56.5 -147t18.5 -147q0 -108 -34 -204.5t-92 -178t-130 -143.5h-118z" />
    <glyph glyph-name="slash.case" horiz-adv-x="370" 
d="M-49 -60l373 789h147l-373 -789h-147z" />
    <glyph glyph-name="backslash.case" horiz-adv-x="370" 
d="M175 -60l-71 789h143l71 -789h-143z" />
    <glyph glyph-name="bracketleft.case" horiz-adv-x="359" 
d="M9 -75l182 820h264l-23 -107h-112l-134 -606h111l-24 -107h-264z" />
    <glyph glyph-name="bracketright.case" horiz-adv-x="359" 
d="M410 745l-182 -820h-264l23 107h112l134 606h-111l24 107h264z" />
    <glyph glyph-name="braceleft.case" horiz-adv-x="383" 
d="M239 -75q-96 0 -134.5 32t-38.5 81q0 30 10.5 61t20.5 57q10 24 17.5 46.5t7.5 41.5q0 23 -14 37.5t-45 14.5h-27l25 110h27q41 0 61.5 16.5t28 45.5t8.5 67q3 86 27.5 131.5t76 62t137.5 16.5h50l-24 -107h-33q-38 0 -56.5 -15.5t-25 -44.5t-8.5 -72q-3 -72 -31 -114
t-93 -52q26 -8 45 -28t19 -54q0 -23 -8.5 -48.5t-19.5 -50.5q-9 -22 -16.5 -43.5t-7.5 -38.5q0 -22 15 -33.5t50 -11.5h36l-24 -107h-56z" />
    <glyph glyph-name="braceright.case" horiz-adv-x="383" 
d="M204 745q96 0 134.5 -32t38.5 -81q0 -30 -10 -61t-21 -57q-10 -24 -17.5 -46.5t-7.5 -41.5q0 -23 14 -37.5t45 -14.5h27l-25 -110h-27q-42 0 -62 -16.5t-27 -45.5t-9 -67q-4 -86 -28 -131.5t-76 -62t-137 -16.5h-50l24 107h33q38 0 56.5 15.5t25 44.5t8.5 72q3 72 31 114
t93 52q-26 8 -45 28t-19 54q0 23 9 48.5t19 50.5q9 22 16.5 43.5t7.5 38.5q0 22 -15 33.5t-50 11.5h-36l24 107h56z" />
    <glyph glyph-name="bullet.case" horiz-adv-x="391" 
d="M198 199q-66 0 -100.5 35t-34.5 95q0 46 22 82.5t60 58t85 21.5q62 0 96 -36t34 -94q0 -46 -22 -82.5t-58.5 -58t-81.5 -21.5z" />
    <glyph glyph-name="guilsinglleft.case" horiz-adv-x="341" 
d="M143 142l-96 201l174 201h164l-182 -211l99 -191h-159z" />
    <glyph glyph-name="guilsinglright.case" horiz-adv-x="341" 
d="M232 544l96 -201l-174 -201h-164l182 211l-99 191h159z" />
    <glyph glyph-name="guillemotleft.case" horiz-adv-x="580" 
d="M143 142l-96 201l174 201h164l-182 -211l99 -191h-159zM382 142l-96 201l174 201h164l-182 -211l99 -191h-159z" />
    <glyph glyph-name="guillemotright.case" horiz-adv-x="580" 
d="M232 544l96 -201l-174 -201h-164l182 211l-99 191h159zM471 544l96 -201l-174 -201h-164l182 211l-99 191h159z" />
    <glyph glyph-name="at.case" horiz-adv-x="919" 
d="M432 -123q-119 0 -209.5 44t-141.5 130.5t-51 214.5q0 106 36 197.5t102 160t157.5 107t203.5 38.5q118 0 207.5 -44t139.5 -126t50 -194q0 -90 -32.5 -163t-91.5 -116t-138 -43q-48 0 -88 20t-47 68q-29 -38 -68.5 -55.5t-80.5 -17.5q-71 0 -109 46.5t-38 121.5
q0 49 16 96t45 84.5t68 59.5t85 22q44 0 77 -21.5t47 -61.5l25 70h133l-62 -276q-2 -10 -3 -18t-1 -15q0 -25 9.5 -34.5t26.5 -9.5q36 0 67 32.5t50 87.5t19 121q0 86 -35.5 150.5t-103.5 100.5t-165 36q-94 0 -169.5 -33t-128.5 -91.5t-81.5 -135t-28.5 -163.5
q0 -152 85.5 -231.5t234.5 -79.5q53 0 98.5 9.5t86.5 26.5l21 -75q-52 -21 -108 -30.5t-109 -9.5zM439 205q29 0 54.5 24t35.5 67l4 18q2 7 3 15.5t1 17.5q0 30 -15 48.5t-41 18.5q-30 0 -50.5 -24t-31 -57.5t-10.5 -62.5t12 -47t38 -18z" />
    <glyph glyph-name="periodcentered.case" horiz-adv-x="220" 
d="M119 245q-40 0 -61.5 21.5t-21.5 58.5q0 42 29.5 71t73.5 29q38 0 59 -22t21 -58q0 -43 -29.5 -71.5t-70.5 -28.5z" />
    <glyph glyph-name="questiondown.case" horiz-adv-x="462" 
d="M327 688q40 0 61.5 -21.5t21.5 -58.5q0 -42 -29.5 -71t-73.5 -29q-38 0 -59 22t-21 58q0 43 29.5 71.5t70.5 28.5zM374 466l-7 -37q-8 -45 -33 -75t-72 -60l-42 -27q-31 -20 -50 -41.5t-19 -53.5q0 -28 14 -44t39 -16q27 0 49 22t32 67h161q-23 -99 -91 -154t-169 -55
q-91 0 -150 44t-59 125q0 67 39 110.5t100 80.5l50 30q26 16 38.5 34.5t16.5 42.5l1 7h152z" />
    <glyph glyph-name="exclamdown.case" horiz-adv-x="273" 
d="M213 688q40 0 61.5 -21.5t21.5 -58.5q0 -42 -29.5 -71t-73.5 -29q-38 0 -59 22t-21 58q0 43 29.5 71.5t70.5 28.5zM236 466l-71 -458h-175l132 458h114z" />
    <glyph glyph-name="zero.tnum" horiz-adv-x="590" 
d="M255 -16q-109 0 -160.5 60t-51.5 164q0 85 22 167t63.5 148.5t102 106.5t136.5 40q109 0 160.5 -60t51.5 -164q0 -85 -22 -167t-63.5 -148.5t-102 -106.5t-136.5 -40zM265 103q24 0 45.5 27t39 70t30 93t19 97t6.5 80q0 81 -48 81q-24 0 -45.5 -27t-39 -70t-30 -93
t-19 -97t-6.5 -80q0 -81 48 -81z" />
    <glyph glyph-name="one.tnum" horiz-adv-x="590" 
d="M194 0l103 468q-40 -14 -80.5 -24.5t-79.5 -15.5l32 135q55 11 108 31.5t102 59.5h131l-145 -654h-171z" />
    <glyph glyph-name="two.tnum" horiz-adv-x="590" 
d="M1 0l8 36q12 56 36.5 100t66 81.5t103.5 75.5l86 52q54 33 81.5 66t27.5 80q0 59 -54 59q-35 0 -61 -28.5t-39 -92.5h-161q25 121 99.5 181t174.5 60q106 0 161 -46.5t55 -125.5q0 -75 -47 -133.5t-124 -105.5l-97 -59q-36 -22 -57 -38t-31 -36h282l-29 -126h-481z" />
    <glyph glyph-name="three.tnum" horiz-adv-x="590" 
d="M262 -16q-67 0 -120 21t-83 64.5t-30 111.5v12t2 15h159q-1 -11 -1.5 -16t-0.5 -10q0 -40 21.5 -59.5t55.5 -19.5q50 0 74.5 33.5t24.5 73.5q0 44 -26 66t-70 22h-33l22 102h51q44 0 69 24.5t25 63.5q0 28 -15 45.5t-45 17.5q-29 0 -51.5 -17.5t-30.5 -51.5h-157
q25 91 91 139.5t166 48.5q97 0 155.5 -45.5t58.5 -125.5q0 -57 -30 -97t-86 -65q42 -23 59.5 -59.5t17.5 -77.5q0 -62 -33.5 -111t-95 -77t-144.5 -28z" />
    <glyph glyph-name="four.tnum" horiz-adv-x="590" 
d="M263 0l28 128h-294l26 113l395 413h148l-90 -404h70l-27 -122h-70l-29 -128h-157zM176 250h142l42 192z" />
    <glyph glyph-name="five.tnum" horiz-adv-x="590" 
d="M249 -16q-100 0 -159.5 48.5t-59.5 144.5h163q0 -35 15 -54.5t49 -19.5q40 0 64 24t35 58t11 65q0 44 -19 64t-50 20q-30 0 -54.5 -16t-40.5 -43h-131l111 379h401l-28 -126h-270l-34 -118q22 14 49 21.5t59 7.5q77 0 129 -47t52 -139q0 -73 -34.5 -134t-100 -98
t-157.5 -37z" />
    <glyph glyph-name="six.tnum" horiz-adv-x="590" 
d="M279 -16q-65 0 -116.5 26.5t-81.5 83t-30 146.5q0 55 12 115t37 116t64.5 101t94.5 71.5t127 26.5q96 0 149.5 -48t53.5 -125h-169q-1 32 -15 46.5t-37 14.5q-37 0 -66.5 -40.5t-55.5 -130.5q54 43 127 43q78 0 125.5 -48.5t47.5 -137.5q0 -75 -33.5 -133.5t-93.5 -92.5
t-140 -34zM273 96q34 0 56.5 19.5t34 51t11.5 67.5q0 90 -69 90q-34 0 -56.5 -21t-34 -53t-11.5 -66q0 -88 69 -88z" />
    <glyph glyph-name="seven.tnum" horiz-adv-x="590" 
d="M79 0q32 103 79.5 191.5t115 170.5t161.5 166h-310l28 126h466l-29 -129q-92 -87 -159 -171t-112 -171t-72 -183h-168z" />
    <glyph glyph-name="eight.tnum" horiz-adv-x="590" 
d="M257 -16q-63 0 -118.5 19t-90 59t-34.5 103q0 71 46 121.5t123 72.5q-34 19 -55 49.5t-21 74.5q0 55 34 97.5t92 66t131 23.5q58 0 110 -16.5t85 -52t33 -90.5q0 -60 -39.5 -104t-104.5 -65q42 -20 67.5 -55t25.5 -86q0 -61 -36.5 -110t-100.5 -78t-147 -29zM331 399
q31 0 50 17t28 41t9 44q0 37 -15.5 54.5t-43.5 17.5q-29 0 -48 -18t-28 -43t-9 -47q0 -35 14.5 -50.5t42.5 -15.5zM264 84q33 0 55.5 21.5t34.5 53t12 60.5q0 43 -19 62t-51 19q-33 0 -55.5 -20t-34.5 -50t-12 -60q0 -45 19 -65.5t51 -20.5z" />
    <glyph glyph-name="nine.tnum" horiz-adv-x="590" 
d="M344 670q66 0 117.5 -26.5t81.5 -83t30 -146.5q0 -55 -12 -115t-37 -116t-64.5 -101t-94.5 -71.5t-127 -26.5q-96 0 -149.5 48t-53.5 125h169q1 -32 15 -46.5t37 -14.5q37 0 66.5 40.5t55.5 130.5q-54 -43 -127 -43q-78 0 -125.5 48.5t-47.5 137.5q0 75 33.5 133.5
t93.5 92.5t139 34zM351 558q-34 0 -56.5 -19.5t-34 -51t-11.5 -67.5q0 -90 69 -90q34 0 56.5 21t34 53t11.5 65q0 89 -69 89z" />
    <glyph glyph-name="zero.dnom" horiz-adv-x="366" 
d="M130 -10q-130 0 -130 148q0 46 13 92.5t39.5 85.5t65.5 62.5t90 23.5q130 0 130 -148q0 -46 -13 -92.5t-39.5 -85.5t-65.5 -62.5t-90 -23.5zM142 69q16 0 30 23t24 57t16 68.5t6 56.5q0 28 -5 38.5t-17 10.5q-16 0 -30 -23t-24 -57t-16 -68.5t-6 -56.5q0 -28 5 -38.5
t17 -10.5z" />
    <glyph glyph-name="one.dnom" horiz-adv-x="278" 
d="M50 0l56 267q-48 -14 -95 -20l22 93q35 6 67 17.5t62 34.5h90l-84 -392h-118z" />
    <glyph glyph-name="two.dnom" horiz-adv-x="358" 
d="M-27 0l5 22q8 34 21 59.5t38.5 49t70.5 50.5l48 28q36 21 52 39t16 44q0 33 -28 33q-18 0 -31.5 -14t-23.5 -57h-109q16 74 63.5 111t111.5 37q67 0 101.5 -29.5t34.5 -81.5q0 -41 -29 -75.5t-79 -64.5l-55 -33q-17 -10 -27.5 -18t-16.5 -15h162l-20 -85h-305z" />
    <glyph glyph-name="three.dnom" horiz-adv-x="358" 
d="M136 -9q-67 0 -109.5 29t-42.5 91v9t1 8h109q-1 -5 -1 -9v-6q0 -24 11.5 -34.5t31.5 -10.5q27 0 40 17.5t13 40.5q0 49 -54 49h-17l15 67h27q26 0 39 13.5t13 36.5q0 14 -8 23.5t-24 9.5q-13 0 -25 -9.5t-17 -31.5h-108q32 118 163 118q61 0 98.5 -28t37.5 -79
q0 -33 -18.5 -56t-52.5 -38q26 -13 36.5 -34.5t10.5 -47.5q0 -55 -46.5 -91.5t-122.5 -36.5z" />
    <glyph glyph-name="four.dnom" horiz-adv-x="348" 
d="M132 0l15 72h-176l16 75l238 245h100l-52 -238h42l-17 -82h-42l-16 -72h-108zM86 154h79l21 101z" />
    <glyph glyph-name="five.dnom" horiz-adv-x="358" 
d="M126 -9q-64 0 -101.5 30t-37.5 87h110q0 -19 7.5 -29.5t26.5 -10.5q24 0 37.5 14t19 33t5.5 34q0 24 -10.5 34t-28.5 10q-16 0 -30 -9t-22 -20h-89l69 228h254l-18 -84h-168l-18 -62q28 18 68 18q46 0 78.5 -28t32.5 -84q0 -43 -22 -79.5t-63.5 -59t-99.5 -22.5z" />
    <glyph glyph-name="six.dnom" horiz-adv-x="358" 
d="M149 -10q-61 0 -103 38t-42 123q0 39 12 83t37 82t65 62t97 24q59 0 93 -29t34 -77h-114q0 19 -7.5 26t-19.5 7q-18 0 -35 -21.5t-33 -73.5q32 28 79 28q46 0 75.5 -29.5t29.5 -87.5q0 -45 -21 -80t-59 -55t-88 -20zM144 64q27 0 42 23t15 50q0 51 -37 51
q-28 0 -42.5 -25.5t-14.5 -51.5q0 -47 37 -47z" />
    <glyph glyph-name="seven.dnom" horiz-adv-x="312" 
d="M2 0q27 93 77.5 164.5t137.5 143.5h-186l18 84h294l-19 -85q-82 -75 -130.5 -148.5t-70.5 -158.5h-121z" />
    <glyph glyph-name="eight.dnom" horiz-adv-x="364" 
d="M136 -10q-39 0 -74 11.5t-57.5 36t-22.5 64.5q0 41 28 71t75 43q-20 12 -32.5 31t-12.5 45q0 32 21.5 57t58 39t82.5 14q36 0 69 -9.5t54.5 -31t21.5 -57.5q0 -34 -24 -59.5t-63 -38.5q25 -12 40.5 -33.5t15.5 -52.5q0 -36 -23 -65.5t-63.5 -47t-93.5 -17.5zM186 242
q22 0 33.5 20t11.5 39q0 35 -30 35q-23 0 -34 -20t-11 -39q0 -35 30 -35zM139 59q28 0 42 25t14 50q0 45 -37 45q-27 0 -41 -25t-14 -50q0 -45 36 -45z" />
    <glyph glyph-name="nine.dnom" horiz-adv-x="358" 
d="M186 402q60 0 102 -39t42 -124q0 -39 -12 -82.5t-37 -81.5t-65 -61.5t-97 -23.5q-59 0 -93 29t-34 77h114q0 -18 7.5 -25t19.5 -7q18 0 36 21t33 74q-33 -28 -80 -28q-46 0 -75.5 29.5t-29.5 86.5q0 45 21 80t59.5 55t88.5 20zM190 328q-27 0 -42 -24t-15 -51
q0 -49 37 -49q28 0 42.5 24.5t14.5 50.5q0 49 -37 49z" />
    <glyph glyph-name="zero.numr" horiz-adv-x="366" 
d="M185 258q-130 0 -130 148q0 46 13 92.5t39.5 85.5t65.5 62.5t90 23.5q130 0 130 -148q0 -46 -13 -92.5t-39.5 -85.5t-65.5 -62.5t-90 -23.5zM197 337q16 0 30 23t24 57t16 68.5t6 56.5q0 28 -5 38.5t-17 10.5q-16 0 -30 -23t-24 -57t-16 -68.5t-6 -56.5q0 -28 5 -38.5
t17 -10.5z" />
    <glyph glyph-name="one.numr" horiz-adv-x="278" 
d="M106 268l56 267q-48 -14 -95 -20l22 93q35 6 67 17.5t62 34.5h90l-84 -392h-118z" />
    <glyph glyph-name="two.numr" horiz-adv-x="358" 
d="M28 268l5 22q8 34 21 59.5t38.5 49t70.5 50.5l48 28q36 21 52 39t16 44q0 33 -28 33q-18 0 -31.5 -14t-23.5 -57h-109q16 74 63.5 111t111.5 37q67 0 101.5 -29.5t34.5 -81.5q0 -41 -29 -75.5t-79 -64.5l-55 -33q-17 -10 -27.5 -18t-16.5 -15h162l-20 -85h-305z" />
    <glyph glyph-name="three.numr" horiz-adv-x="358" 
d="M193 259q-67 0 -109.5 29t-42.5 91v9t1 8h109q-1 -5 -1 -9v-6q0 -24 11.5 -34.5t31.5 -10.5q27 0 40 17.5t13 40.5q0 49 -54 49h-17l15 67h27q26 0 39 13.5t13 36.5q0 14 -8 23.5t-24 9.5q-13 0 -25 -9.5t-17 -31.5h-108q32 118 163 118q61 0 98.5 -28t37.5 -79
q0 -33 -18.5 -56t-52.5 -38q26 -13 36.5 -34.5t10.5 -47.5q0 -55 -46.5 -91.5t-122.5 -36.5z" />
    <glyph glyph-name="four.numr" horiz-adv-x="348" 
d="M187 264l15 72h-176l16 75l238 245h100l-52 -238h42l-17 -82h-42l-16 -72h-108zM141 418h79l21 101z" />
    <glyph glyph-name="five.numr" horiz-adv-x="358" 
d="M183 255q-64 0 -101.5 30t-37.5 87h110q0 -19 7.5 -29.5t26.5 -10.5q24 0 37.5 14t19 33t5.5 34q0 24 -10.5 34t-28.5 10q-16 0 -30 -9t-22 -20h-89l69 228h254l-18 -84h-168l-18 -62q28 18 68 18q46 0 78.5 -28t32.5 -84q0 -43 -22 -79.5t-63.5 -59t-99.5 -22.5z" />
    <glyph glyph-name="six.numr" horiz-adv-x="358" 
d="M202 258q-61 0 -103 38t-42 123q0 39 12 83t37 82t65 62t97 24q59 0 93 -29t34 -77h-114q0 19 -7.5 26t-19.5 7q-18 0 -35 -21.5t-33 -73.5q32 28 79 28q46 0 75.5 -29.5t29.5 -87.5q0 -45 -21 -80t-59 -55t-88 -20zM197 332q27 0 42 23t15 50q0 51 -37 51
q-28 0 -42.5 -25.5t-14.5 -51.5q0 -47 37 -47z" />
    <glyph glyph-name="seven.numr" horiz-adv-x="312" 
d="M55 274q27 93 77.5 164.5t137.5 143.5h-186l18 84h294l-19 -85q-82 -75 -130.5 -148.5t-70.5 -158.5h-121z" />
    <glyph glyph-name="eight.numr" horiz-adv-x="364" 
d="M190 258q-39 0 -74 11.5t-57.5 36t-22.5 64.5q0 41 28 71t75 43q-20 12 -32.5 31t-12.5 45q0 32 21.5 57t58 39t82.5 14q36 0 69 -9.5t54.5 -31t21.5 -57.5q0 -34 -24 -59.5t-63 -38.5q25 -12 40.5 -33.5t15.5 -52.5q0 -36 -23 -65.5t-63.5 -47t-93.5 -17.5zM240 510
q22 0 33.5 20t11.5 39q0 35 -30 35q-23 0 -34 -20t-11 -39q0 -35 30 -35zM193 327q28 0 42 25t14 50q0 45 -37 45q-27 0 -41 -25t-14 -50q0 -45 36 -45z" />
    <glyph glyph-name="nine.numr" horiz-adv-x="358" 
d="M238 670q60 0 102 -39t42 -124q0 -39 -12 -82.5t-37 -81.5t-65 -61.5t-97 -23.5q-59 0 -93 29t-34 77h114q0 -18 7.5 -25t19.5 -7q18 0 36 21t33 74q-33 -28 -80 -28q-46 0 -75.5 29.5t-29.5 86.5q0 45 21 80t59.5 55t88.5 20zM242 596q-27 0 -42 -24t-15 -51
q0 -49 37 -49q28 0 42.5 24.5t14.5 50.5q0 49 -37 49z" />
    <glyph glyph-name="a.alt" horiz-adv-x="578" 
d="M172 -13q-70 0 -111 51t-41 147q0 60 17 119t49 107t78 77t105 29q51 0 86 -23t51 -62l23 72h144l-112 -504h-144l11 78q-29 -45 -69.5 -68t-86.5 -23zM246 105q24 0 46.5 18.5t39 49.5t24.5 70l3 15q1 7 4.5 24.5t3.5 39.5q0 43 -15.5 63t-40.5 20q-27 0 -49 -20.5
t-37.5 -53t-24 -71t-8.5 -74.5q0 -35 11.5 -58t42.5 -23z" />
    <glyph glyph-name="dotlessij" horiz-adv-x="579" 
d="M250 112q34 0 58 28.5t32 65.5l64 298h166l-105 -494q-23 -106 -86 -169.5t-178 -63.5q-96 0 -149 45.5t-60 127.5h155q0 -35 17 -54t44 -19q37 0 57.5 30.5t31.5 76.5l18 82q-27 -31 -63.5 -48.5t-80.5 -17.5q-69 0 -101 40.5t-32 96.5q0 29 8 66l64 301h166l-65 -307
q-2 -11 -3.5 -20.5t-1.5 -17.5q0 -22 11.5 -34.5t32.5 -12.5z" />
    <glyph glyph-name="periodcentered.loclCAT.cap" 
d="M-98 294q-40 0 -61.5 21.5t-21.5 58.5q0 42 29.5 71t73.5 29q38 0 59 -22t21 -58q0 -43 -29.5 -71.5t-70.5 -28.5z" />
    <glyph glyph-name="periodcentered.loclCAT" horiz-adv-x="117" 
d="M68 250q-40 0 -61.5 21.5t-21.5 58.5q0 42 29.5 71t73.5 29q38 0 59 -22t21 -58q0 -43 -29.5 -71.5t-70.5 -28.5z" />
    <glyph glyph-name="uni0327.cap" 
d="M-46 0h73l-20 -56h7q44 0 72.5 -25t28.5 -73q0 -55 -40 -89.5t-116 -34.5q-19 0 -43.5 3t-49.5 12l18 76q16 -5 35 -8.5t36 -3.5q31 0 46 12t15 32q0 19 -10.5 27.5t-25.5 8.5q-21 0 -38 -11h-29z" />
    <glyph glyph-name="uni0326.cap" 
d="M-136 -361l15 68q31 8 52.5 24.5t37.5 48.5q-31 3 -46.5 22t-15.5 48q0 41 27 66.5t65 25.5q37 0 56 -23t19 -61q0 -48 -27 -96t-74.5 -82t-108.5 -41z" />
    <glyph glyph-name="commabelow" horiz-adv-x="500" 
d="M75 -346l12 59q34 8 56 25t38 48q-31 2 -47.5 20.5t-16.5 47.5q0 39 25.5 63t62.5 24q35 0 53 -21.5t18 -59.5q0 -46 -26 -91t-71 -77t-104 -38z" />
    <glyph glyph-name="uni0328.cap" 
d="M-38 -267q-76 0 -109 31.5t-33 78.5q0 55 37 96t89 61h140q-62 -8 -98 -38t-36 -73q0 -57 62 -57q23 0 47 10l-21 -97q-22 -7 -40 -9.5t-38 -2.5z" />
    <glyph glyph-name="uni0328.round" 
d="M-38 -262q-67 0 -98.5 30.5t-31.5 74.5q0 37 18.5 69.5t47 56t58.5 36.5l119 25q-48 -24 -82 -56.5t-34 -81.5q0 -58 56 -58q22 0 46 10l-19 -92q-42 -14 -80 -14z" />
    <glyph glyph-name="uni0328.round.cap" 
d="M-40 -267q-74 0 -107 31.5t-33 78.5q0 55 36.5 96t87.5 61l133 28q-55 -29 -90 -60.5t-35 -77.5q0 -58 62 -58q23 0 47 10l-19 -95q-42 -14 -82 -14z" />
    <glyph glyph-name="aogonek.alt" horiz-adv-x="578" 
d="M172 -13q-70 0 -111 51t-41 147q0 60 17 119t49 107t78 77t105 29q51 0 86 -23t51 -62l23 72h144l-112 -504h-144l11 78q-29 -45 -69.5 -68t-86.5 -23zM246 105q24 0 46.5 18.5t39 49.5t24.5 70l3 15q1 7 4.5 24.5t3.5 39.5q0 43 -15.5 63t-40.5 20q-27 0 -49 -20.5
t-37.5 -53t-24 -71t-8.5 -74.5q0 -35 11.5 -58t42.5 -23zM328 -262q-67 0 -98.5 30.5t-31.5 75.5q0 53 36 94.5t83 61.5h143q-63 -8 -99 -38t-36 -73q0 -55 56 -55q22 0 46 10l-20 -94q-42 -12 -79 -12z" />
    <glyph glyph-name="acutecomb.cap" 
d="M-109 803l246 137l57 -129l-264 -93z" />
    <glyph glyph-name="acutecomb.asc" 
d="M-85 826l206 124l54 -115l-219 -88z" />
    <glyph glyph-name="acutecomb.narrow" 
d="M-67 623l143 158l83 -88l-165 -133z" />
    <glyph glyph-name="uni030B.cap" 
d="M-170 783l187 172l74 -96l-214 -139zM40 789l207 131l59 -107l-229 -93z" />
    <glyph glyph-name="IJacute" horiz-adv-x="650" 
d="M292 -16q-105 0 -167 50t-62 158q0 13 1 27t3 28h174q-3 -25 -3 -46q0 -91 68 -91q44 0 70 37t40 103l91 420h171l-93 -428q-16 -74 -49.5 -132t-92.5 -92t-151 -34zM246 312h-171l78 358h171zM138 803l246 137l57 -129l-264 -93zM494 803l246 137l57 -129l-264 -93z" />
    <glyph glyph-name="ijacute" horiz-adv-x="579" 
d="M250 112q34 0 58 28.5t32 65.5l64 298h166l-105 -494q-23 -106 -86 -169.5t-178 -63.5q-96 0 -149 45.5t-60 127.5h155q0 -35 17 -54t44 -19q37 0 57.5 30.5t31.5 76.5l18 82q-27 -31 -63.5 -48.5t-80.5 -17.5q-69 0 -101 40.5t-32 96.5q0 29 8 66l64 301h166l-65 -307
q-2 -11 -3.5 -20.5t-1.5 -17.5q0 -22 11.5 -34.5t32.5 -12.5zM118 635l180 146l70 -103l-199 -114zM416 635l180 146l70 -103l-199 -114z" />
    <glyph glyph-name="aacute.alt" horiz-adv-x="578" 
d="M172 -13q-70 0 -111 51t-41 147q0 60 17 119t49 107t78 77t105 29q51 0 86 -23t51 -62l23 72h144l-112 -504h-144l11 78q-29 -45 -69.5 -68t-86.5 -23zM246 105q24 0 46.5 18.5t39 49.5t24.5 70l3 15q1 7 4.5 24.5t3.5 39.5q0 43 -15.5 63t-40.5 20q-27 0 -49 -20.5
t-37.5 -53t-24 -71t-8.5 -74.5q0 -35 11.5 -58t42.5 -23zM262 635l180 146l70 -103l-199 -114z" />
    <glyph glyph-name="gravecomb.cap" 
d="M-65 940l207 -150l-50 -78l-232 109z" />
    <glyph glyph-name="gravecomb.narrow" 
d="M13 781l81 -181l-76 -40l-114 160z" />
    <glyph glyph-name="agrave.alt" horiz-adv-x="578" 
d="M172 -13q-70 0 -111 51t-41 147q0 60 17 119t49 107t78 77t105 29q51 0 86 -23t51 -62l23 72h144l-112 -504h-144l11 78q-29 -45 -69.5 -68t-86.5 -23zM246 105q24 0 46.5 18.5t39 49.5t24.5 70l3 15q1 7 4.5 24.5t3.5 39.5q0 43 -15.5 63t-40.5 20q-27 0 -49 -20.5
t-37.5 -53t-24 -71t-8.5 -74.5q0 -35 11.5 -58t42.5 -23zM337 781l129 -165l-67 -60l-157 137z" />
    <glyph glyph-name="uni0302.cap" 
d="M67 915l139 -140l-55 -65l-131 88l-154 -88l-48 74l178 131h71z" />
    <glyph glyph-name="uni0302.narrow" 
d="M76 755l88 -169l-67 -44l-77 98l-122 -98l-55 60l150 153h83z" />
    <glyph glyph-name="tildecomb.cap" 
d="M-8 778q-10 10 -20 16.5t-24 6.5q-17 0 -29.5 -13.5t-23.5 -48.5h-94q8 47 28.5 85.5t52.5 61.5t73 23q34 0 55.5 -14.5t39.5 -30.5q10 -9 20 -16t24 -7q16 0 30 13.5t24 48.5h93q-12 -75 -53.5 -122.5t-101.5 -47.5q-33 0 -53.5 13.5t-40.5 31.5z" />
    <glyph glyph-name="tildecomb.narrow" 
d="M-5 611q-22 23 -33 23q-26 0 -36 -57h-94q11 71 49.5 115.5t89.5 44.5q27 0 44 -11.5t34 -28.5q13 -13 20.5 -18t13.5 -5q25 0 35 57h93q-11 -71 -48.5 -115.5t-89.5 -44.5q-27 0 -44 11.5t-34 28.5z" />
    <glyph glyph-name="acircumflex.alt" horiz-adv-x="578" 
d="M172 -13q-70 0 -111 51t-41 147q0 60 17 119t49 107t78 77t105 29q51 0 86 -23t51 -62l23 72h144l-112 -504h-144l11 78q-29 -45 -69.5 -68t-86.5 -23zM246 105q24 0 46.5 18.5t39 49.5t24.5 70l3 15q1 7 4.5 24.5t3.5 39.5q0 43 -15.5 63t-40.5 20q-27 0 -49 -20.5
t-37.5 -53t-24 -71t-8.5 -74.5q0 -35 11.5 -58t42.5 -23zM420 770l109 -158l-63 -55l-100 103l-140 -103l-51 64l162 149h83z" />
    <glyph glyph-name="atilde.alt" horiz-adv-x="578" 
d="M172 -13q-70 0 -111 51t-41 147q0 60 17 119t49 107t78 77t105 29q51 0 86 -23t51 -62l23 72h144l-112 -504h-144l11 78q-29 -45 -69.5 -68t-86.5 -23zM246 105q24 0 46.5 18.5t39 49.5t24.5 70l3 15q1 7 4.5 24.5t3.5 39.5q0 43 -15.5 63t-40.5 20q-27 0 -49 -20.5
t-37.5 -53t-24 -71t-8.5 -74.5q0 -35 11.5 -58t42.5 -23zM336 611q-14 13 -22 18t-16 5q-26 0 -39 -57h-94q12 71 51 115.5t92 44.5q31 0 50.5 -12t35.5 -28q14 -13 22 -18t16 -5q26 0 39 57h93q-11 -71 -50 -115.5t-92 -44.5q-31 0 -50.5 12t-35.5 28z" />
    <glyph glyph-name="uni030C.cap" 
d="M-31 725l-139 140l55 65l131 -88l154 88l48 -74l-178 -131h-71z" />
    <glyph glyph-name="uni0315.cap" 
d="M23 464h-80l44 206h131l-3 -14q-7 -33 -22 -69.5t-33.5 -69.5t-36.5 -53z" />
    <glyph glyph-name="uni0315.short" 
d="M29 549h-80l33 151h119l-3 -13q-10 -43 -25.5 -75t-43.5 -63z" />
    <glyph glyph-name="uni0304.cap" 
d="M-179 757l24 113h375l-24 -113h-375z" />
    <glyph glyph-name="uni0304.narrow" 
d="M-148 594l22 101h313l-22 -101h-313z" />
    <glyph glyph-name="amacron.alt" horiz-adv-x="578" 
d="M172 -13q-70 0 -111 51t-41 147q0 60 17 119t49 107t78 77t105 29q51 0 86 -23t51 -62l23 72h144l-112 -504h-144l11 78q-29 -45 -69.5 -68t-86.5 -23zM246 105q24 0 46.5 18.5t39 49.5t24.5 70l3 15q1 7 4.5 24.5t3.5 39.5q0 43 -15.5 63t-40.5 20q-27 0 -49 -20.5
t-37.5 -53t-24 -71t-8.5 -74.5q0 -35 11.5 -58t42.5 -23zM190 594l22 101h325l-22 -101h-325z" />
    <glyph glyph-name="uni0308.cap" 
d="M-103 738q-35 0 -55.5 20.5t-20.5 51.5q0 38 27.5 65t69.5 27q34 0 54.5 -20.5t20.5 -51.5q0 -38 -27.5 -65t-68.5 -27zM127 738q-35 0 -55.5 20.5t-20.5 51.5q0 38 27.5 65t69.5 27q34 0 54.5 -20.5t20.5 -51.5q0 -38 -27.5 -65t-68.5 -27z" />
    <glyph glyph-name="uni0308.narrow" 
d="M-82 563q-33 0 -52 19.5t-19 47.5q0 35 26 61t65 26q33 0 52 -19.5t19 -47.5q0 -35 -26.5 -61t-64.5 -26zM98 563q-33 0 -52 19.5t-19 47.5q0 35 26 61t65 26q33 0 52 -19.5t19 -47.5q0 -35 -26.5 -61t-64.5 -26z" />
    <glyph glyph-name="uni0306.cap" 
d="M17 738q-44 0 -81 15.5t-59.5 46t-22.5 74.5q0 8 0.5 13.5t1.5 12.5h104q0 -24 15.5 -41.5t52.5 -17.5q36 0 56 17t26 42h102q-6 -46 -32 -82.5t-68 -58t-95 -21.5z" />
    <glyph glyph-name="adieresis.alt" horiz-adv-x="578" 
d="M172 -13q-70 0 -111 51t-41 147q0 60 17 119t49 107t78 77t105 29q51 0 86 -23t51 -62l23 72h144l-112 -504h-144l11 78q-29 -45 -69.5 -68t-86.5 -23zM246 105q24 0 46.5 18.5t39 49.5t24.5 70l3 15q1 7 4.5 24.5t3.5 39.5q0 43 -15.5 63t-40.5 20q-27 0 -49 -20.5
t-37.5 -53t-24 -71t-8.5 -74.5q0 -35 11.5 -58t42.5 -23zM252 563q-33 0 -52 19.5t-19 47.5q0 35 26 61t65 26q33 0 52 -19.5t19 -47.5q0 -35 -26.5 -61t-64.5 -26zM452 563q-33 0 -52 19.5t-19 47.5q0 35 26 61t65 26q33 0 52 -19.5t19 -47.5q0 -35 -26.5 -61t-64.5 -26z
" />
    <glyph glyph-name="abreve.alt" horiz-adv-x="578" 
d="M172 -13q-70 0 -111 51t-41 147q0 60 17 119t49 107t78 77t105 29q51 0 86 -23t51 -62l23 72h144l-112 -504h-144l11 78q-29 -45 -69.5 -68t-86.5 -23zM246 105q24 0 46.5 18.5t39 49.5t24.5 70l3 15q1 7 4.5 24.5t3.5 39.5q0 43 -15.5 63t-40.5 20q-27 0 -49 -20.5
t-37.5 -53t-24 -71t-8.5 -74.5q0 -35 11.5 -58t42.5 -23zM356 569q-70 0 -104.5 38t-34.5 94q0 18 3 36h97q-1 -5 -1 -8v-8q0 -25 13 -40.5t41 -15.5q32 0 51.5 19.5t27.5 52.5h95q-15 -75 -63 -121.5t-125 -46.5z" />
    <glyph glyph-name="uni0307.cap" 
d="M10 729q-38 0 -61 23t-23 57q0 41 30.5 71.5t76.5 30.5q38 0 61 -23t23 -57q0 -41 -31 -71.5t-76 -30.5z" />
    <glyph glyph-name="dotbelowcomb.cap" 
d="M-34 -244q-38 0 -61 23t-23 57q0 41 30.5 71.5t76.5 30.5q38 0 61 -23t23 -57q0 -41 -31 -71.5t-76 -30.5z" />
    <glyph glyph-name="uni030A.cap" 
d="M14 719q-56 0 -84.5 31t-28.5 77q0 36 17.5 66.5t48 48.5t69.5 18q56 0 84.5 -31t28.5 -77q0 -36 -17.5 -66t-48 -48.5t-69.5 -18.5zM17 787q24 0 39.5 18.5t15.5 45.5q0 19 -10 30t-29 11q-24 0 -39.5 -18.5t-15.5 -45.5q0 -19 10 -30t29 -11z" />
    <glyph glyph-name="aring.alt" horiz-adv-x="578" 
d="M172 -13q-70 0 -111 51t-41 147q0 60 17 119t49 107t78 77t105 29q51 0 86 -23t51 -62l23 72h144l-112 -504h-144l11 78q-29 -45 -69.5 -68t-86.5 -23zM246 105q24 0 46.5 18.5t39 49.5t24.5 70l3 15q1 7 4.5 24.5t3.5 39.5q0 43 -15.5 63t-40.5 20q-27 0 -49 -20.5
t-37.5 -53t-24 -71t-8.5 -74.5q0 -35 11.5 -58t42.5 -23zM357 552q-56 0 -83.5 29.5t-27.5 76.5q0 36 17 65.5t47 47.5t69 18q56 0 83.5 -29.5t27.5 -76.5q0 -35 -17 -65t-47 -48t-69 -18zM358 616q26 0 42.5 19t16.5 48q0 19 -10 30.5t-29 11.5q-26 0 -42.5 -19.5
t-16.5 -47.5q0 -19 10 -30.5t29 -11.5z" />
    </font>
</defs>
</svg>
