<?xml version="1.0" standalone="no"?>
<!DOCTYPE svg PUBLIC "-//W3C//DTD SVG 1.1//EN" "http://www.w3.org/Graphics/SVG/1.1/DTD/svg11.dtd" >
<svg xmlns="http://www.w3.org/2000/svg" xmlns:xlink="http://www.w3.org/1999/xlink" version="1.1">
<metadata>
Created by FontForge 20201107 at Wed Aug 15 19:59:20 2018
 By 
(c)2018, McDonald's Corporation. All rights reserved.
</metadata>
<defs>
<font id="Speedee-Italic" horiz-adv-x="0" >
  <font-face 
    font-family="Speedee"
    font-weight="400"
    font-style="italic"
    font-stretch="normal"
    units-per-em="1000"
    panose-1="2 11 6 3 3 5 2 9 2 4"
    ascent="800"
    descent="-200"
    x-height="498"
    cap-height="670"
    bbox="-192 -309 1211 963"
    underline-thickness="40"
    underline-position="-105"
    slope="-12"
    unicode-range="U+000D-FB04"
  />
<missing-glyph horiz-adv-x="500" 
d="M395 0h-395l142 670h395zM359 38l126 594h-308l-126 -594h308z" />
    <glyph glyph-name="f_f" unicode="ff" horiz-adv-x="632" 
d="M41 0l93 436h-72l13 62h72l6 29q19 92 64 139t122 47q52 0 88 -21l-21 -60q-16 7 -28.5 10t-27.5 3q-42 0 -69 -27t-40 -90l-6 -30h220l6 29q19 92 64 139t122 47q52 0 88 -21l-21 -60q-16 7 -28.5 10t-27.5 3q-42 0 -69 -27t-40 -90l-6 -30h132l-13 -62h-133l-92 -436
h-88l93 436h-221l-92 -436h-88z" />
    <glyph glyph-name="f_i" unicode="fi" horiz-adv-x="563" 
d="M41 0l93 436h-72l13 62h72l6 29q19 92 64 139t122 47q25 0 45.5 -5t37.5 -13l-25 -59q-13 4 -23 6.5t-24 2.5q-42 0 -69 -27t-40 -90l-6 -30h125l-13 -62h-126l-92 -436h-88zM522 584q-22 0 -36.5 13t-14.5 35q0 26 18.5 44.5t45.5 18.5q22 0 36.5 -13t14.5 -35
q0 -25 -18.5 -44t-45.5 -19zM349 0l106 498h88l-106 -498h-88z" />
    <glyph glyph-name="f_l" unicode="fl" horiz-adv-x="559" 
d="M41 0l93 436h-72l13 62h72l6 29q19 92 64 139t122 47q25 0 45.5 -5t37.5 -13l-25 -59q-13 4 -23 6.5t-24 2.5q-42 0 -69 -27t-40 -90l-6 -30h125l-13 -62h-126l-92 -436h-88zM344 0l149 700h88l-149 -700h-88z" />
    <glyph glyph-name="f_f_i" unicode="ffi" horiz-adv-x="871" 
d="M41 0l93 436h-72l13 62h72l6 29q19 92 64 139t122 47q52 0 88 -21l-21 -60q-16 7 -28.5 10t-27.5 3q-42 0 -69 -27t-40 -90l-6 -30h220l6 29q19 92 64 139t122 47q25 0 45.5 -5t37.5 -13l-25 -59q-13 4 -23 6.5t-24 2.5q-42 0 -69 -27t-40 -90l-6 -30h125l-13 -62h-126
l-92 -436h-88l93 436h-221l-92 -436h-88zM830 584q-22 0 -36.5 13t-14.5 35q0 26 18.5 44.5t45.5 18.5q22 0 36.5 -13t14.5 -35q0 -25 -18.5 -44t-45.5 -19zM657 0l106 498h88l-106 -498h-88z" />
    <glyph glyph-name="f_f_l" unicode="ffl" horiz-adv-x="869" 
d="M41 0l93 436h-72l13 62h72l6 29q19 92 64 139t122 47q52 0 88 -21l-21 -60q-16 7 -28.5 10t-27.5 3q-42 0 -69 -27t-40 -90l-6 -30h220l6 29q19 92 64 139t122 47q25 0 45.5 -5t37.5 -13l-25 -59q-13 4 -23 6.5t-24 2.5q-42 0 -69 -27t-40 -90l-6 -30h125l-13 -62h-126
l-92 -436h-88l93 436h-221l-92 -436h-88zM654 0l149 700h88l-149 -700h-88z" />
    <glyph glyph-name=".notdef" horiz-adv-x="500" 
d="M395 0h-395l142 670h395zM359 38l126 594h-308l-126 -594h308z" />
    <glyph glyph-name="uni0000" 
 />
    <glyph glyph-name="uni0000" 
 />
    <glyph glyph-name="uni000D" unicode="&#xd;" horiz-adv-x="190" 
 />
    <glyph glyph-name="space" unicode=" " horiz-adv-x="190" 
 />
    <glyph glyph-name="exclam" unicode="!" horiz-adv-x="226" 
d="M64 180l94 490h94l-123 -490h-65zM65 -10q-26 0 -40 14t-14 38q0 28 19.5 47.5t47.5 19.5q26 0 40 -14t14 -38q0 -29 -19 -48t-48 -19z" />
    <glyph glyph-name="quotedbl" unicode="&#x22;" horiz-adv-x="426" 
d="M157 466q2 52 8 94t15 85l12 55h84l-12 -55q-8 -37 -21 -78.5t-40 -100.5h-46zM314 466q2 52 8 94t15 85l12 55h84l-12 -55q-8 -37 -21 -78.5t-40 -100.5h-46z" />
    <glyph glyph-name="numbersign" unicode="#" horiz-adv-x="590" 
d="M24 0l71 179h-88l16 67h99l70 178h-102l16 67h113l71 179h75l-71 -179h147l71 179h75l-71 -179h88l-16 -67h-99l-70 -178h102l-16 -67h-113l-71 -179h-75l71 179h-147l-71 -179h-75zM197 246h147l70 178h-147z" />
    <glyph glyph-name="dollar" unicode="$" horiz-adv-x="590" 
d="M189 -104l22 104q-82 11 -129 56t-47 118v13.5t1 13.5h89q-1 -6 -1 -10v-7q0 -57 29 -85.5t74 -36.5l53 246l-33 10q-60 19 -94.5 56t-34.5 100q0 52 28.5 95t81 69t125.5 26l21 100h53l-22 -103q78 -10 122 -54.5t44 -123.5v-8.5t-1 -10.5h-90q1 7 1 12.5v10.5
q-1 50 -25 76.5t-67 34.5l-47 -222l38 -12q63 -19 101.5 -59.5t38.5 -108.5q0 -56 -30 -101.5t-87 -72t-137 -26.5h-3l-21 -100h-53zM206 487q0 -39 23.5 -61.5t67.5 -36.5l45 213q-64 -1 -100 -34.5t-36 -80.5zM432 186q0 40 -28 66t-79 42l-51 -236q78 1 118 36.5t40 91.5
z" />
    <glyph glyph-name="percent" unicode="%" horiz-adv-x="872" 
d="M173 0l464 660h86l-464 -660h-86zM643 -10q-60 0 -91 38t-31 110q0 47 13.5 94t38.5 85.5t61.5 61.5t82.5 23q60 0 91 -38t31 -110q0 -47 -13.5 -94t-38.5 -85.5t-61.5 -61.5t-82.5 -23zM649 42q26 0 47.5 21.5t37 56t24 72.5t8.5 71q0 87 -55 87q-26 0 -47.5 -21.5
t-37 -56t-24 -72.5t-8.5 -71q0 -87 55 -87zM179 259q-60 0 -91 38t-31 110q0 47 13.5 94t38.5 85.5t61.5 61.5t82.5 23q60 0 91 -38t31 -110q0 -47 -13.5 -94t-38.5 -85.5t-61.5 -61.5t-82.5 -23zM185 311q26 0 47.5 21.5t37 56t24 72.5t8.5 71q0 87 -55 87
q-26 0 -47.5 -21.5t-37 -56t-24 -72.5t-8.5 -71q0 -87 55 -87z" />
    <glyph glyph-name="ampersand" unicode="&#x26;" horiz-adv-x="689" 
d="M242 -10q-91 0 -144.5 47t-53.5 125q0 74 48.5 129t125.5 84q-22 39 -32.5 68t-10.5 63q0 43 23 80.5t64 60.5t95 23q67 0 105.5 -34t38.5 -90q0 -47 -25 -83.5t-67.5 -63.5t-95.5 -45l86 -155q10 -18 19 -33.5t18 -28.5q30 35 52.5 83.5t35.5 110.5h82
q-16 -80 -47 -141.5t-74 -103.5q28 -18 66 -18q17 0 34 4l-3 -67q-12 -4 -24.5 -6t-28.5 -2q-33 0 -59 11t-47 29q-79 -47 -181 -47zM256 507q0 -27 6.5 -50t23.5 -54q60 24 97 57t37 82q0 32 -17.5 50.5t-52.5 18.5q-44 0 -69 -30t-25 -74zM138 170q0 -53 33 -83.5
t92 -30.5q63 0 116 32q-10 15 -19.5 31t-18.5 32l-95 172q-51 -26 -79.5 -65t-28.5 -88z" />
    <glyph glyph-name="quotesingle" unicode="'" horiz-adv-x="269" 
d="M157 466q2 52 8 94t15 85l12 55h84l-12 -55q-8 -37 -21 -78.5t-40 -100.5h-46z" />
    <glyph glyph-name="parenleft" unicode="(" horiz-adv-x="285" 
d="M125 -100q-33 69 -50 138.5t-17 147.5q0 107 31.5 204t86 180.5t123.5 149.5h71q-70 -76 -120.5 -166t-78 -186t-27.5 -192q0 -84 11.5 -147.5t37.5 -128.5h-68z" />
    <glyph glyph-name="parenright" unicode=")" horiz-adv-x="285" 
d="M125 720h68q33 -69 50 -138.5t17 -147.5q0 -107 -31.5 -204t-86 -180.5t-123.5 -149.5h-71q70 76 120.5 166t78 186t27.5 192q0 84 -11.5 147.5t-37.5 128.5z" />
    <glyph glyph-name="asterisk" unicode="*" horiz-adv-x="361" 
d="M141 371l-52 42q25 28 57 55.5t66 52.5q-36 4 -71 11.5t-66 15.5l35 67q29 -12 60 -28.5t60 -34.5q1 36 4.5 74t8.5 72h71q-9 -34 -21.5 -71.5t-27.5 -73.5q35 19 72 34.5t71 27.5l11 -67q-73 -19 -153 -28q22 -24 44 -52.5t38 -54.5l-60 -42q-15 30 -28.5 63.5
t-23.5 66.5q-22 -34 -46 -67.5t-49 -62.5z" />
    <glyph glyph-name="plus" unicode="+" horiz-adv-x="590" 
d="M231 113l42 183h-169l15 67h169l42 183h68l-41 -183h169l-15 -67h-170l-41 -183h-69z" />
    <glyph glyph-name="comma" unicode="," horiz-adv-x="220" 
d="M-31 -131l10 42q65 17 81 79q-48 4 -48 52q0 28 19.5 47.5t47.5 19.5q25 0 40.5 -16.5t15.5 -48.5q0 -36 -20.5 -74t-57.5 -66.5t-88 -34.5z" />
    <glyph glyph-name="hyphen" unicode="-" horiz-adv-x="368" 
d="M38 206l15 70h283l-16 -70h-282z" />
    <glyph glyph-name="period" unicode="." horiz-adv-x="220" 
d="M66 -10q-26 0 -40 14t-14 38q0 28 19 47.5t48 19.5q26 0 40 -14t14 -38q0 -29 -19.5 -48t-47.5 -19z" />
    <glyph glyph-name="slash" unicode="/" horiz-adv-x="313" 
d="M-58 -105l390 790h86l-391 -790h-85z" />
    <glyph glyph-name="zero" unicode="0" horiz-adv-x="536" 
d="M225 -16q-95 0 -142 62t-47 174q0 82 21.5 162t61.5 145t96.5 104t127.5 39q95 0 142 -62t47 -174q0 -82 -21.5 -162t-61.5 -145t-96.5 -104t-127.5 -39zM232 52q37 0 69 25.5t57.5 68t43 94t27 105t9.5 100.5q0 157 -102 157q-37 0 -69 -25.5t-57.5 -68t-43 -94
t-27 -105t-9.5 -100.5q0 -157 102 -157z" />
    <glyph glyph-name="one" unicode="1" horiz-adv-x="377" 
d="M134 0l115 541q-44 -21 -94.5 -37t-94.5 -24l17 74q53 11 111.5 37t104.5 63h71l-140 -654h-90z" />
    <glyph glyph-name="two" unicode="2" horiz-adv-x="516" 
d="M-9 0l5 23q12 57 35.5 100t62 77t94.5 67l124 70q60 35 94 75t34 95q0 45 -27 70t-77 25q-59 0 -100.5 -37.5t-59.5 -116.5h-90q22 114 92 168t165 54q91 0 140.5 -44t49.5 -118t-47.5 -131t-121.5 -98l-129 -72q-55 -30 -84.5 -59.5t-43.5 -75.5h348l-16 -72h-448z" />
    <glyph glyph-name="three" unicode="3" horiz-adv-x="517" 
d="M230 -16q-98 0 -157 48.5t-59 137.5v11t1 12h89q-1 -8 -1 -13v-13q0 -52 35 -83.5t95 -31.5q53 0 87 20.5t51 53t17 70.5q0 61 -41 90.5t-107 29.5h-21l14 62h47q70 0 112 34t42 92q0 48 -29 73t-77 25q-56 0 -95 -30.5t-53 -86.5h-89q20 95 86.5 140t154.5 45
q91 0 142.5 -43.5t51.5 -118.5q0 -62 -37.5 -105.5t-104.5 -62.5q52 -21 74 -59t22 -89q0 -56 -30 -103.5t-86 -76t-134 -28.5z" />
    <glyph glyph-name="four" unicode="4" horiz-adv-x="542" 
d="M285 0l30 142h-313l15 69l412 443h80l-94 -442h99l-15 -70h-99l-30 -142h-85zM106 212h224l67 314z" />
    <glyph glyph-name="five" unicode="5" horiz-adv-x="517" 
d="M282 369q-41 0 -81.5 -21t-65.5 -69h-71l112 375h370l-16 -72h-296l-57 -191q28 21 62.5 32t70.5 11q81 0 129 -48t48 -138q0 -72 -32 -132t-91.5 -96t-142.5 -36q-57 0 -102 18.5t-71 59t-27 106.5h89q2 -61 32.5 -88.5t83.5 -27.5q54 0 91 28.5t56.5 73t19.5 94.5
q0 60 -30.5 90.5t-80.5 30.5z" />
    <glyph glyph-name="six" unicode="6" horiz-adv-x="518" 
d="M244 -16q-93 0 -150 57.5t-57 185.5q0 57 12.5 118.5t38 119.5t63.5 104t89 73.5t115 27.5q88 0 134.5 -47.5t46.5 -124.5h-94q0 56 -26 81.5t-66 25.5q-63 0 -116.5 -61t-87.5 -198q33 39 77 58t91 19q80 0 127.5 -49.5t47.5 -137.5q0 -70 -31 -127t-86.5 -91
t-127.5 -34zM240 50q51 0 86.5 25.5t54 67t18.5 90.5q0 63 -29.5 94t-81.5 31q-50 0 -87.5 -26t-57.5 -67.5t-20 -87.5q0 -59 31 -93t86 -34z" />
    <glyph glyph-name="seven" unicode="7" horiz-adv-x="451" 
d="M35 0q35 111 86 207t124 187t172 188h-344l16 72h433l-16 -75q-146 -143 -236.5 -283t-139.5 -296h-95z" />
    <glyph glyph-name="eight" unicode="8" horiz-adv-x="532" 
d="M336 670q89 0 146 -39t57 -116q0 -62 -41 -108t-106 -66q46 -21 73 -58.5t27 -92.5q0 -62 -34 -108t-93.5 -72t-134.5 -26q-62 0 -112 20t-79 58.5t-29 95.5q0 73 47.5 124.5t124.5 70.5q-37 19 -58.5 51.5t-21.5 78.5q0 54 31.5 96.5t84.5 66.5t118 24zM306 376
q44 0 75.5 19t49 49.5t17.5 65.5q0 50 -31 75t-82 25q-43 0 -75 -19t-49.5 -49.5t-17.5 -65.5q0 -50 31 -75t82 -25zM268 316q-49 0 -85.5 -21t-56.5 -56t-20 -77q0 -59 35.5 -87t92.5 -28q49 0 85.5 21t56.5 56.5t20 76.5q0 59 -35.5 87t-92.5 28z" />
    <glyph glyph-name="nine" unicode="9" horiz-adv-x="518" 
d="M311 670q91 0 148 -56t57 -183q0 -59 -12.5 -121.5t-37.5 -120.5t-63 -104.5t-90 -73.5t-117 -27q-86 0 -132.5 47.5t-46.5 124.5h94q0 -56 26 -81.5t68 -25.5q65 0 118.5 62t84.5 198q-33 -38 -78 -58t-93 -20q-78 0 -126 49.5t-48 137.5q0 69 31.5 126.5t87.5 91.5
t129 34zM310 604q-50 0 -85 -26.5t-53.5 -69t-18.5 -90.5q0 -60 29.5 -91t84.5 -31q50 0 86.5 26.5t56.5 68t20 87.5q0 57 -31.5 91.5t-88.5 34.5z" />
    <glyph glyph-name="colon" unicode=":" horiz-adv-x="220" 
d="M66 -10q-26 0 -40 14t-14 38q0 28 19 47.5t48 19.5q26 0 40 -14t14 -38q0 -29 -19.5 -48t-47.5 -19zM154 408q-26 0 -40 14t-14 38q0 28 19 47.5t48 19.5q26 0 40 -14t14 -38q0 -29 -19.5 -48t-47.5 -19z" />
    <glyph glyph-name="semicolon" unicode=";" horiz-adv-x="220" 
d="M-31 -131l10 42q65 17 81 79q-48 4 -48 52q0 28 19.5 47.5t47.5 19.5q25 0 40.5 -16.5t15.5 -48.5q0 -36 -20.5 -74t-57.5 -66.5t-88 -34.5zM154 408q-26 0 -40 14t-14 38q0 28 19 47.5t48 19.5q26 0 40 -14t14 -38q0 -29 -19.5 -48t-47.5 -19z" />
    <glyph glyph-name="less" unicode="&#x3c;" horiz-adv-x="590" 
d="M454 112l-369 184l15 68l450 181l-16 -76l-367 -143l302 -144z" />
    <glyph glyph-name="equal" unicode="=" horiz-adv-x="590" 
d="M75 181l14 67h407l-14 -67h-407zM121 391l14 67h407l-14 -67h-407z" />
    <glyph glyph-name="greater" unicode="&#x3e;" horiz-adv-x="590" 
d="M161 545l368 -184l-15 -68l-449 -181l16 76l366 143l-301 145z" />
    <glyph glyph-name="question" unicode="?" horiz-adv-x="440" 
d="M134 181l7 34q8 40 29.5 70.5t76.5 67.5l58 39q42 28 64.5 59.5t22.5 70.5q0 44 -27 70.5t-77 26.5q-51 0 -89.5 -34t-54.5 -105h-87q19 98 83.5 152t157.5 54q86 0 135.5 -42t49.5 -116q0 -61 -34.5 -106.5t-93.5 -83.5l-59 -38q-37 -23 -53 -42.5t-24 -55.5l-4 -21h-81
zM148 -10q-26 0 -40 14t-14 38q0 28 19 47.5t48 19.5q26 0 40 -14t14 -38q0 -29 -19.5 -48t-47.5 -19z" />
    <glyph glyph-name="at" unicode="@" horiz-adv-x="906" 
d="M416 -170q-114 0 -200 41t-134 123t-48 206q0 100 34 188.5t96.5 155.5t150 105t194.5 38q114 0 200.5 -41.5t134.5 -119t48 -186.5q0 -85 -29.5 -155t-84 -112t-129.5 -42q-45 0 -73.5 21t-32.5 60q-30 -36 -72 -54.5t-84 -18.5q-70 0 -109.5 44.5t-39.5 120.5
q0 48 16 94t45.5 82.5t69.5 58t89 21.5q50 0 84.5 -24t48.5 -64l21 81h73l-59 -279q-4 -16 -5 -25.5t-1 -19.5q0 -41 46 -41q48 0 84.5 35.5t57 93t20.5 121.5q0 91 -40 156.5t-112 100.5t-168 35q-94 0 -170 -35t-130 -95t-82.5 -137t-28.5 -161q0 -104 41.5 -173.5
t115 -104.5t169.5 -35q51 0 94.5 9.5t86.5 26.5l15 -56q-53 -21 -102 -30t-101 -9zM411 100q54 0 94.5 39t54.5 95l3 14q2 8 3 18t1 18q0 50 -25.5 82.5t-71.5 32.5q-44 0 -78 -29t-52.5 -73t-18.5 -90q0 -51 23 -79t67 -28z" />
    <glyph glyph-name="A" unicode="A" horiz-adv-x="611" 
d="M-27 0l376 670h99l92 -670h-91l-19 160h-277l-87 -160h-93zM190 230h232l-41 352z" />
    <glyph glyph-name="B" unicode="B" horiz-adv-x="604" 
d="M34 0l143 670h205q76 0 120.5 -19t64.5 -52.5t20 -76.5q0 -67 -41.5 -110.5t-112.5 -61.5q63 -15 92 -51.5t29 -89.5q0 -60 -33.5 -107.5t-97 -74.5t-152.5 -27h-237zM363 605h-110l-49 -230h103q90 0 138.5 36.5t48.5 97.5q0 47 -30.5 71.5t-100.5 24.5zM305 313h-114
l-53 -248h129q96 0 143.5 39.5t47.5 100.5q0 108 -153 108z" />
    <glyph glyph-name="C" unicode="C" horiz-adv-x="660" 
d="M312 -16q-125 0 -190.5 72t-65.5 203q0 84 26 160.5t74 136.5t115 95t148 35q67 0 122 -26.5t88.5 -80t34.5 -135.5h-98q-2 76 -41 123.5t-113 47.5q-60 0 -108 -31t-81.5 -82.5t-51.5 -115t-18 -128.5q0 -100 42.5 -151.5t124.5 -51.5q74 0 124 41.5t81 123.5h97
q-40 -118 -120 -177t-190 -59z" />
    <glyph glyph-name="D" unicode="D" horiz-adv-x="681" 
d="M34 0l143 670h198q145 0 216 -72.5t71 -197.5q0 -83 -29 -155.5t-84.5 -127.5t-135 -86t-180.5 -31h-199zM353 601h-99l-112 -532h99q101 0 173.5 43t110.5 117t38 166q0 102 -49.5 154t-160.5 52z" />
    <glyph glyph-name="E" unicode="E" horiz-adv-x="541" 
d="M34 0l143 670h401l-16 -71h-307l-49 -228h280l-14 -68h-280l-50 -232h313l-15 -71h-406z" />
    <glyph glyph-name="F" unicode="F" horiz-adv-x="544" 
d="M34 0l142 670h419l-15 -71h-325l-51 -242h275l-15 -68h-275l-61 -289h-94z" />
    <glyph glyph-name="G" unicode="G" horiz-adv-x="690" 
d="M325 -16q-130 0 -199.5 72.5t-69.5 208.5q0 85 26.5 161t75.5 134.5t116.5 92t149.5 33.5q68 0 125 -26.5t91.5 -78t36.5 -128.5h-98q-2 68 -42.5 115t-118.5 47q-62 0 -111 -30.5t-83.5 -81t-52.5 -113t-18 -127.5q0 -103 46.5 -155.5t135.5 -52.5q92 0 149.5 55
t78.5 156h-176l15 69h264l-5 -32q-17 -97 -58.5 -168.5t-110.5 -111t-167 -39.5z" />
    <glyph glyph-name="H" unicode="H" horiz-adv-x="677" 
d="M34 0l143 670h93l-64 -298h318l64 298h93l-143 -670h-93l64 301h-318l-64 -301h-93z" />
    <glyph glyph-name="I" unicode="I" horiz-adv-x="266" 
d="M34 0l143 670h93l-143 -670h-93z" />
    <glyph glyph-name="J" unicode="J" horiz-adv-x="567" 
d="M218 -16q-96 0 -147.5 46.5t-51.5 134.5q0 27 6 65h92q-2 -16 -3.5 -31t-1.5 -28q0 -59 29 -87.5t82 -28.5q75 0 117.5 54.5t62.5 150.5l87 410h93l-86 -406q-29 -135 -94 -207.5t-185 -72.5z" />
    <glyph glyph-name="K" unicode="K" horiz-adv-x="604" 
d="M34 0l142 670h93l-64 -304l344 304h118l-381 -328q68 -26 118.5 -77.5t82.5 -119.5t46 -145h-101q-12 74 -45 139t-82.5 109.5t-112.5 57.5l-65 -306h-93z" />
    <glyph glyph-name="L" unicode="L" horiz-adv-x="511" 
d="M34 0l143 670h93l-128 -599h303l-16 -71h-395z" />
    <glyph glyph-name="M" unicode="M" horiz-adv-x="806" 
d="M-7 0l233 670h100l61 -493l281 493h100l-70 -670h-90l58 526l-270 -471h-69l-59 485l-183 -540h-92z" />
    <glyph glyph-name="N" unicode="N" horiz-adv-x="689" 
d="M34 0l142 670h89l225 -534l113 534h90l-142 -670h-89l-225 532l-113 -532h-90z" />
    <glyph glyph-name="O" unicode="O" horiz-adv-x="704" 
d="M319 -16q-127 0 -195 77t-68 211q0 82 25.5 156.5t73.5 132.5t115.5 91.5t152.5 33.5q127 0 195 -77t68 -211q0 -82 -25.5 -156.5t-73.5 -132.5t-115.5 -91.5t-152.5 -33.5zM324 55q64 0 113.5 31t83.5 83t51 113.5t17 123.5q0 99 -45.5 154t-125.5 55q-64 0 -113.5 -31
t-83.5 -83t-51 -113.5t-17 -123.5q0 -99 45.5 -154t125.5 -55z" />
    <glyph glyph-name="P" unicode="P" horiz-adv-x="574" 
d="M34 0l142 670h208q106 0 156.5 -47.5t50.5 -128.5q0 -68 -33.5 -120.5t-97.5 -82.5t-158 -30h-120l-55 -261h-93zM363 605h-107l-59 -278h111q93 0 141 46.5t48 113.5q0 60 -34.5 89t-99.5 29z" />
    <glyph glyph-name="Q" unicode="Q" horiz-adv-x="705" 
d="M565 -47l-19 -88q-106 5 -162 34.5t-81 84.5q-119 5 -183 82t-64 206q0 82 25.5 156.5t73.5 132.5t115.5 91.5t152.5 33.5q127 0 195 -77t68 -211q0 -75 -21.5 -144.5t-62.5 -126t-99.5 -93t-131.5 -46.5q29 -20 75 -27.5t119 -7.5zM324 55q64 0 113.5 31t83.5 83
t51 113.5t17 123.5q0 99 -45.5 154t-125.5 55q-64 0 -113.5 -31t-83.5 -83t-51 -113.5t-17 -123.5q0 -99 45.5 -154t125.5 -55z" />
    <glyph glyph-name="R" unicode="R" horiz-adv-x="604" 
d="M34 0l143 670h206q115 0 166 -45.5t51 -119.5q0 -83 -60 -139t-177 -66q69 -27 110 -101t55 -199h-98q-16 155 -69.5 220.5t-151.5 65.5h-21l-61 -286h-93zM363 605h-108l-54 -257h110q95 0 144.5 41.5t49.5 106.5q0 52 -34 80.5t-108 28.5z" />
    <glyph glyph-name="S" unicode="S" horiz-adv-x="574" 
d="M20 186h92q-1 -4 -1 -8v-7q0 -44 20.5 -70.5t54 -38t72.5 -11.5q80 0 124 39t44 95q0 43 -28 68t-78 41l-79 25q-35 11 -65.5 30t-49.5 51t-19 81q0 55 30 102t86.5 75t135.5 28q97 0 155.5 -48.5t58.5 -135.5v-7t-1 -8h-92q1 6 1.5 11.5t0.5 10.5q0 44 -32 77t-99 33
q-71 0 -111.5 -37t-40.5 -88q0 -44 25.5 -65.5t66.5 -34.5l83 -26q41 -13 74 -34t52 -54.5t19 -84.5q0 -59 -32 -107t-91.5 -76t-144.5 -28q-103 0 -167.5 46t-64.5 135v10.5t1 10.5z" />
    <glyph glyph-name="T" unicode="T" horiz-adv-x="563" 
d="M179 0l127 599h-210l16 71h519l-16 -71h-216l-127 -599h-93z" />
    <glyph glyph-name="U" unicode="U" horiz-adv-x="654" 
d="M282 -16q-109 0 -163 50.5t-54 143.5q0 40 11 93l85 399h93l-87 -409q-5 -19 -7.5 -40.5t-2.5 -38.5q0 -63 34.5 -95t99.5 -32q79 0 128 53.5t72 159.5l87 402h93l-87 -407q-28 -133 -101 -206t-201 -73z" />
    <glyph glyph-name="V" unicode="V" horiz-adv-x="601" 
d="M190 0l-74 670h96l50 -570l318 570h93l-386 -670h-97z" />
    <glyph glyph-name="W" unicode="W" horiz-adv-x="881" 
d="M135 0l-19 670h95l10 -550l271 550h76l26 -550l261 550h90l-322 -670h-101l-22 533l-264 -533h-101z" />
    <glyph glyph-name="X" unicode="X" horiz-adv-x="606" 
d="M-33 0l308 347l-142 323h101l105 -259l227 259h102l-295 -329l152 -341h-103l-113 277l-240 -277h-102z" />
    <glyph glyph-name="Y" unicode="Y" horiz-adv-x="566" 
d="M181 0l58 269l-131 401h95l95 -334l253 334h99l-319 -401l-57 -269h-93z" />
    <glyph glyph-name="Z" unicode="Z" horiz-adv-x="572" 
d="M129 600l16 70h474l-12 -57l-483 -543h375l-16 -70h-491l12 57l483 543h-358z" />
    <glyph glyph-name="bracketleft" unicode="[" horiz-adv-x="279" 
d="M-3 -100l174 820h195l-13 -62h-112l-148 -696h113l-14 -62h-195z" />
    <glyph glyph-name="backslash" unicode="\" horiz-adv-x="313" 
d="M143 -105l-61 790h79l61 -790h-79z" />
    <glyph glyph-name="bracketright" unicode="]" horiz-adv-x="279" 
d="M316 720l-174 -820h-195l13 62h112l148 696h-113l14 62h195z" />
    <glyph glyph-name="asciicircum" unicode="^" horiz-adv-x="590" 
d="M125 335l228 325h64l80 -325h-70l-55 249l-170 -249h-77z" />
    <glyph glyph-name="underscore" unicode="_" horiz-adv-x="500" 
d="M-48 -125l9 40h500l-9 -40h-500z" />
    <glyph glyph-name="grave" unicode="`" horiz-adv-x="500" 
d="M277 749l128 -148l-38 -35l-145 131z" />
    <glyph glyph-name="a" unicode="a" horiz-adv-x="500" 
d="M143 -13q-63 0 -99.5 34.5t-36.5 90.5q0 92 89.5 141.5t268.5 51.5l2 11q6 27 6 48q0 40 -24.5 63.5t-69.5 23.5q-49 0 -81 -26.5t-49 -69.5h-86q23 72 79.5 114t142.5 42q83 0 126.5 -40t43.5 -114q0 -17 -1.5 -34t-5.5 -35l-62 -288h-78l9 67q-32 -38 -76.5 -59
t-97.5 -21zM95 125q0 -36 21.5 -57t58.5 -21t71.5 19t60 52t34.5 76l12 58q-76 -1 -134 -14.5t-91 -41t-33 -71.5z" />
    <glyph glyph-name="b" unicode="b" horiz-adv-x="557" 
d="M268 -13q-59 0 -96 27t-50 70l-23 -84h-78l149 700h88l-58 -272q32 40 75.5 61.5t90.5 21.5q73 0 115.5 -51t42.5 -144q0 -62 -18.5 -120.5t-52.5 -105.5t-81 -75t-104 -28zM253 51q41 0 74 24t56.5 63t36 85t12.5 90q0 62 -25.5 97.5t-72.5 35.5q-40 0 -76.5 -26
t-63 -69t-36.5 -92l-3 -15q-2 -10 -4 -28t-2 -38q0 -55 26.5 -91t77.5 -36z" />
    <glyph glyph-name="c" unicode="c" horiz-adv-x="518" 
d="M233 -13q-94 0 -147 54.5t-53 155.5q0 59 19 115t55 101t87.5 71.5t116.5 26.5q62 0 103 -24.5t61.5 -65t23.5 -89.5h-86q-2 47 -28 82t-79 35q-43 0 -76.5 -23t-57 -61t-36 -83t-12.5 -90q0 -68 29.5 -105.5t85.5 -37.5q50 0 87.5 31t56.5 95h86q-26 -93 -88.5 -140.5
t-147.5 -47.5z" />
    <glyph glyph-name="d" unicode="d" horiz-adv-x="562" 
d="M191 -13q-73 0 -115.5 51t-42.5 144q0 62 18.5 120.5t52.5 105.5t81 75t104 28q59 0 96.5 -26.5t50.5 -70.5l61 286h88l-149 -700h-78l10 83q-32 -46 -79 -71t-98 -25zM223 52q39 0 76 26t63.5 69t36.5 92l3 15q2 10 4 28t2 38q0 55 -26.5 91t-77.5 36q-41 0 -74 -24
t-56.5 -63t-36 -85t-12.5 -90q0 -62 25.5 -97.5t72.5 -35.5z" />
    <glyph glyph-name="e" unicode="e" horiz-adv-x="527" 
d="M236 -13q-97 0 -150 55.5t-53 154.5q0 57 18.5 113t54 101.5t87.5 72.5t118 27q65 0 106 -26.5t61 -72t20 -101.5q0 -19 -2.5 -41.5t-7.5 -43.5h-366q-2 -17 -2 -33q0 -73 31.5 -109.5t90.5 -36.5q52 0 87 28t53 79h86q-29 -85 -89.5 -126t-142.5 -41zM304 451
q-43 0 -77.5 -23t-58 -61t-35.5 -83h280q2 17 2 32q0 58 -27 96.5t-84 38.5z" />
    <glyph glyph-name="f" unicode="f" horiz-adv-x="324" 
d="M41 0l93 436h-72l13 62h72l6 29q19 92 64 139t122 47q52 0 88 -21l-21 -60q-16 7 -28.5 10t-27.5 3q-42 0 -69 -27t-40 -90l-6 -30h132l-13 -62h-133l-92 -436h-88z" />
    <glyph glyph-name="g" unicode="g" horiz-adv-x="556" 
d="M190 0q-73 0 -115.5 50t-42.5 139q0 60 18.5 117.5t52.5 103.5t81 73.5t104 27.5q61 0 96.5 -28t50.5 -73l23 88h77l-104 -491q-24 -113 -82 -171.5t-161 -58.5q-91 0 -137.5 45t-50.5 126h85q0 -44 23 -77t83 -33q63 0 100 41t53 115l22 102q-32 -45 -78 -70.5
t-98 -25.5zM222 65q40 0 76.5 26t63 67t36.5 87l3 15q2 10 4 28t2 38q0 50 -26.5 85.5t-77.5 35.5q-41 0 -74 -23t-56.5 -60.5t-36 -82.5t-12.5 -89q0 -58 25.5 -92.5t72.5 -34.5z" />
    <glyph glyph-name="h" unicode="h" horiz-adv-x="556" 
d="M21 0l149 700h88l-58 -272q32 41 74 62t91 21q73 0 110.5 -42.5t37.5 -106.5q0 -16 -1.5 -33t-6.5 -37l-62 -292h-88l62 291q7 31 7 59q0 44 -22.5 69.5t-68.5 25.5q-60 0 -105 -48t-62 -130l-57 -267h-88z" />
    <glyph glyph-name="i" unicode="i" horiz-adv-x="236" 
d="M194 584q-22 0 -36.5 13t-14.5 35q0 26 18.5 44.5t45.5 18.5q22 0 36.5 -13t14.5 -35q0 -25 -18.5 -44t-45.5 -19zM21 0l106 498h88l-106 -498h-88z" />
    <glyph glyph-name="j" unicode="j" horiz-adv-x="236" 
d="M194 584q-22 0 -36.5 13t-14.5 35q0 26 18.5 44.5t45.5 18.5q22 0 36.5 -13t14.5 -35q0 -25 -18.5 -44t-45.5 -19zM-95 -223q-48 0 -73 14l19 62q12 -5 24.5 -6.5t23.5 -1.5q41 0 70 27t43 91l115 535h88l-114 -533q-21 -98 -70 -143t-126 -45z" />
    <glyph glyph-name="k" unicode="k" horiz-adv-x="496" 
d="M21 0l150 700h88l-88 -412l244 210h107l-279 -236q76 -31 123.5 -101.5t64.5 -160.5h-92q-16 87 -60.5 148.5t-119.5 85.5l-50 -234h-88z" />
    <glyph glyph-name="l" unicode="l" horiz-adv-x="236" 
d="M22 0l149 700h88l-149 -700h-88z" />
    <glyph glyph-name="m" unicode="m" horiz-adv-x="842" 
d="M21 0l106 498h78l-14 -76q31 44 72.5 66.5t89.5 22.5q55 0 88.5 -29.5t43.5 -77.5q32 53 78.5 80t99.5 27q67 0 101.5 -42.5t34.5 -106.5q0 -16 -1.5 -33t-6.5 -37l-62 -292h-88l62 291q7 31 7 59q0 44 -20 69.5t-59 25.5q-54 0 -93.5 -43.5t-58.5 -117.5l-60 -284h-88
l62 291q7 31 7 59q0 44 -20 69.5t-59 25.5q-56 0 -97 -48t-58 -130l-57 -267h-88z" />
    <glyph glyph-name="n" unicode="n" horiz-adv-x="559" 
d="M21 0l106 498h78l-14 -79q32 45 77.5 68.5t96.5 23.5q73 0 110.5 -42.5t37.5 -106.5q0 -16 -1.5 -33t-6.5 -37l-62 -292h-88l62 291q7 31 7 59q0 44 -22.5 69.5t-68.5 25.5q-60 0 -105 -48t-62 -130l-57 -267h-88z" />
    <glyph glyph-name="o" unicode="o" horiz-adv-x="546" 
d="M236 -13q-94 0 -148.5 57.5t-54.5 155.5q0 56 18.5 111t54.5 100.5t87 72.5t117 27q94 0 148.5 -57.5t54.5 -155.5q0 -56 -18.5 -111t-54.5 -100.5t-87 -72.5t-117 -27zM240 49q43 0 77 23t57.5 60.5t35.5 82.5t12 90q0 69 -30.5 106.5t-85.5 37.5q-43 0 -77 -23
t-57.5 -60.5t-35.5 -82.5t-12 -90q0 -69 30.5 -106.5t85.5 -37.5z" />
    <glyph glyph-name="p" unicode="p" horiz-adv-x="557" 
d="M-24 -210l151 708h78l-13 -81q32 45 78 69.5t96 24.5q73 0 115.5 -51t42.5 -144q0 -62 -18.5 -120.5t-52.5 -105.5t-81 -75t-104 -28q-56 0 -92 24.5t-51 63.5l-61 -285h-88zM253 51q41 0 74 24t56.5 63t36 85t12.5 90q0 62 -25.5 97.5t-72.5 35.5q-40 0 -76.5 -26
t-63 -69t-36.5 -92l-3 -15q-2 -10 -4 -28t-2 -38q0 -55 26.5 -91t77.5 -36z" />
    <glyph glyph-name="q" unicode="q" horiz-adv-x="556" 
d="M191 -14q-73 0 -115.5 51.5t-42.5 144.5q0 62 18.5 120.5t52.5 105.5t81 75t104 28q59 0 96 -27t50 -70l23 84h78l-151 -708h-88l59 278q-32 -39 -75.5 -60.5t-89.5 -21.5zM223 52q39 0 76 26t63.5 69t36.5 92l3 15q2 10 4 28t2 38q0 55 -26.5 91t-77.5 36q-41 0 -74 -24
t-56.5 -63t-36 -85t-12.5 -90q0 -62 25.5 -97.5t72.5 -35.5z" />
    <glyph glyph-name="r" unicode="r" horiz-adv-x="358" 
d="M21 0l106 498h78l-19 -107q25 46 66 81t96 35q17 0 30 -4l-18 -83q-15 4 -30 4q-61 0 -107.5 -54t-66.5 -144l-48 -226h-87z" />
    <glyph glyph-name="s" unicode="s" horiz-adv-x="471" 
d="M12 148h88q3 -45 32 -74t89 -29q53 0 80 25t27 60q0 32 -19 51t-62 34l-60 21q-52 18 -81.5 47t-29.5 80q0 36 22.5 70t65 56t104.5 22q67 0 106.5 -23t58.5 -57.5t22 -68.5h-88q-3 22 -12 42.5t-30.5 34.5t-59.5 14q-47 0 -74 -24.5t-27 -57.5q0 -27 17 -43t53 -29
l64 -24q30 -11 56.5 -27t43 -43t16.5 -69q0 -40 -22.5 -74t-66 -54.5t-107.5 -20.5q-73 0 -117.5 23t-65.5 59.5t-23 78.5z" />
    <glyph glyph-name="t" unicode="t" horiz-adv-x="355" 
d="M193 -13q-64 0 -99.5 31t-35.5 89q0 14 1.5 25.5t4.5 27.5l58 276h-65l13 62h66l31 148h88l-31 -148h140l-13 -62h-140l-59 -277q-2 -11 -3.5 -21.5t-1.5 -22.5q0 -30 19.5 -45t53.5 -15q13 0 25.5 2t25.5 6l9 -61q-23 -8 -43.5 -11.5t-43.5 -3.5z" />
    <glyph glyph-name="u" unicode="u" horiz-adv-x="547" 
d="M527 498l-106 -498h-78l15 84q-63 -97 -170 -97q-70 0 -106.5 41.5t-36.5 104.5q0 18 1.5 35t6.5 38l62 292h88l-62 -291q-7 -32 -7 -63q0 -40 22 -65.5t63 -25.5q61 0 103.5 48t59.5 130l57 267h88z" />
    <glyph glyph-name="v" unicode="v" horiz-adv-x="479" 
d="M143 0l-75 498h89l49 -406l222 406h89l-282 -498h-92z" />
    <glyph glyph-name="w" unicode="w" horiz-adv-x="708" 
d="M90 0l-22 498h93l3 -403l207 403h77l15 -405l198 405h85l-261 -498h-91l-15 377l-198 -377h-91z" />
    <glyph glyph-name="x" unicode="x" horiz-adv-x="483" 
d="M-40 0l240 262l-104 236h90l71 -181l161 181h99l-227 -245l111 -253h-90l-79 196l-173 -196h-99z" />
    <glyph glyph-name="y" unicode="y" horiz-adv-x="477" 
d="M-17 -223q-25 0 -46 6t-36 15l24 61q13 -6 29.5 -10.5t30.5 -4.5q31 0 56.5 22t60.5 77l43 69l-67 486h88l37 -393l223 393h89l-344 -577q-49 -82 -91.5 -113t-96.5 -31z" />
    <glyph glyph-name="z" unicode="z" horiz-adv-x="464" 
d="M-10 0l11 52l353 382h-261l14 64h368l-11 -52l-359 -382h286l-14 -64h-387z" />
    <glyph glyph-name="braceleft" unicode="{" horiz-adv-x="326" 
d="M40 284l14 63h25q34 0 53 15t27.5 50.5t11.5 96.5q3 78 22.5 124t61.5 66.5t113 20.5h47l-15 -63h-38q-44 0 -66.5 -18.5t-32 -55.5t-12.5 -93q-5 -80 -25.5 -126.5t-79.5 -53.5q20 -5 35 -21t15 -45q0 -27 -6 -53t-18 -56t-22 -60t-10 -56q0 -25 17 -40.5t58 -15.5h36
l-14 -63h-44q-72 0 -103 29.5t-31 73.5q0 29 11.5 63t22.5 69q11 31 17 55t6 47q0 47 -52 47h-24z" />
    <glyph glyph-name="bar" unicode="|" horiz-adv-x="234" 
d="M-2 -100l189 820h76l-189 -820h-76z" />
    <glyph glyph-name="braceright" unicode="}" horiz-adv-x="326" 
d="M323 336l-14 -63h-25q-34 0 -53 -15t-27.5 -50.5t-11.5 -96.5q-4 -78 -23 -124.5t-61 -66.5t-113 -20h-47l15 63h38q44 0 66.5 18.5t31.5 55.5t13 93q5 80 25.5 126.5t79.5 53.5q-20 5 -35 21t-15 45q0 27 6 53t18 56t22 60t10 56q0 25 -17.5 40.5t-57.5 15.5h-36l14 63
h44q72 0 103 -29.5t31 -73.5q0 -29 -11.5 -63t-22.5 -69q-10 -31 -16.5 -55t-6.5 -47q0 -47 52 -47h24z" />
    <glyph glyph-name="asciitilde" unicode="~" horiz-adv-x="590" 
d="M82 224q14 76 48.5 122t87.5 46q35 0 58.5 -16.5t49.5 -45.5q20 -22 33 -33t29 -11q22 0 40.5 26.5t28.5 80.5h68q-13 -77 -48 -122.5t-88 -45.5q-35 0 -59 16.5t-49 45.5q-19 22 -32 33t-30 11q-22 0 -40.5 -26.5t-28.5 -80.5h-68z" />
    <glyph glyph-name="uni00A0" unicode="&#xa0;" horiz-adv-x="190" 
 />
    <glyph glyph-name="exclamdown" unicode="&#xa1;" horiz-adv-x="226" 
d="M167 508q26 0 40 -14t14 -38q0 -28 -19.5 -47.5t-47.5 -19.5q-26 0 -40 14t-14 38q0 29 19 48t48 19zM167 316l-93 -488h-94l122 488h65z" />
    <glyph glyph-name="cent" unicode="&#xa2;" horiz-adv-x="590" 
d="M215 0l15 70q-69 11 -110.5 61.5t-41.5 142.5q0 56 17.5 109.5t51.5 97t82 71t110 31.5l16 77h53l-16 -78q62 -9 105.5 -54.5t43.5 -122.5h-83q-1 49 -24 80t-59 37l-83 -393q42 4 78 33t59 90h81q-28 -91 -91.5 -136t-136.5 -49l-14 -67h-53zM165 266q0 -63 23 -95
t59 -40l83 391q-42 -7 -73 -33.5t-51.5 -63.5t-30.5 -79t-10 -80z" />
    <glyph glyph-name="sterling" unicode="&#xa3;" horiz-adv-x="590" 
d="M415 290h-160v-13q0 -66 -18 -122.5t-64 -85.5h313l-15 -69h-458l13 63q44 0 71.5 21t42 52.5t20 65t5.5 60.5v28h-89l13 66h74v34q0 134 60.5 207t167.5 73q88 0 136 -48.5t55 -129.5h-92q-7 58 -34 85.5t-69 27.5q-46 0 -75.5 -26.5t-44 -72.5t-14.5 -105v-24v-21h175z
" />
    <glyph glyph-name="currency" unicode="&#xa4;" horiz-adv-x="590" 
d="M295 122q-72 0 -120 36l-75 -70l-40 44l76 71q-25 42 -25 101q0 43 16 83t44 71l-64 74l48 43l64 -74q28 19 60.5 29.5t67.5 10.5q72 0 120 -36l75 70l40 -44l-76 -71q25 -42 25 -101q0 -43 -16 -83t-44 -71l64 -74l-48 -43l-64 74q-28 -19 -60.5 -29.5t-67.5 -10.5z
M346 480q-46 0 -83 -23.5t-59 -63t-22 -88.5q0 -57 31 -89.5t83 -32.5q46 0 83 23.5t59 63t22 88.5q0 57 -31 89.5t-83 32.5z" />
    <glyph glyph-name="yen" unicode="&#xa5;" horiz-adv-x="590" 
d="M200 0l28 132h-149l12 54h149l15 70h-149l12 55h126l-112 343h88l92 -323l234 323h91l-261 -343h122l-11 -55h-146l-15 -70h146l-12 -54h-146l-28 -132h-86z" />
    <glyph glyph-name="section" unicode="&#xa7;" horiz-adv-x="489" 
d="M508 525h-85q0 54 -34.5 79t-84.5 25q-53 0 -89.5 -29.5t-36.5 -85.5q0 -34 19 -59t62 -41l174 -65l-15 -67l-190 67q-70 25 -101.5 64t-31.5 95q0 52 27.5 92.5t76 63t110.5 22.5q35 0 70 -7.5t64.5 -25.5t47 -49.5t17.5 -78.5zM2 65h85q0 -54 34.5 -79t84.5 -25
q53 0 89.5 29.5t36.5 85.5q0 34 -19 59t-62 41l-174 65l15 67l190 -67q70 -25 101.5 -64t31.5 -95q0 -52 -27.5 -92.5t-76 -63t-110.5 -22.5q-35 0 -70 7.5t-64.5 25.5t-47 49.5t-17.5 78.5z" />
    <glyph glyph-name="dieresis" unicode="&#xa8;" horiz-adv-x="500" 
d="M224 580q-20 0 -33.5 12t-13.5 32q0 23 17 40.5t42 17.5q20 0 33.5 -12t13.5 -32q0 -23 -17 -40.5t-42 -17.5zM411 580q-20 0 -33.5 12t-13.5 32q0 23 17 40.5t42 17.5q19 0 33 -12t14 -32q0 -23 -17 -40.5t-42 -17.5z" />
    <glyph glyph-name="copyright" unicode="&#xa9;" horiz-adv-x="833" 
d="M417 0q-95 0 -169.5 43t-117 119t-42.5 173t42.5 173t117 119t169.5 43t169.5 -43t117 -119t42.5 -173t-42.5 -173t-117 -119t-169.5 -43zM417 52q81 0 142 36t95 99.5t34 147.5t-34 147.5t-95 99.5t-142 36t-142 -36t-95 -99.5t-34 -147.5t34 -147.5t95 -99.5t142 -36z
M425 142q-49 0 -90 22.5t-65 66t-24 104.5q0 60 24.5 103.5t65 67t90.5 23.5q57 0 101.5 -33t58.5 -102h-72q-10 45 -34.5 64t-54.5 19q-25 0 -49 -14.5t-39.5 -46t-15.5 -81.5q0 -49 15.5 -80.5t39.5 -46t49 -14.5q31 0 55.5 20t35.5 67h71q-14 -71 -60.5 -105t-101.5 -34z
" />
    <glyph glyph-name="ordfeminine" unicode="&#xaa;" horiz-adv-x="426" 
d="M174 278q-46 0 -74.5 22t-28.5 68q0 41 22.5 68t60.5 43t86.5 23.5t99.5 8.5l3 12q4 17 4 36q0 28 -16.5 44.5t-47.5 16.5q-29 0 -54 -16.5t-36 -51.5h-72q17 56 63.5 87t104.5 31q61 0 96 -30.5t35 -77.5q0 -24 -6 -54l-48 -223h-62l5 51q-27 -28 -62.5 -43t-72.5 -15z
M203 331q41 0 75.5 28t44.5 72l8 37q-29 -1 -61 -5t-60 -13.5t-45.5 -26.5t-17.5 -44q0 -23 15 -35.5t41 -12.5z" />
    <glyph glyph-name="guillemotleft" unicode="&#xab;" horiz-adv-x="576" 
d="M155 52l-105 196l178 196h92l-182 -197l104 -195h-87zM405 52l-105 196l178 196h92l-182 -197l104 -195h-87z" />
    <glyph glyph-name="logicalnot" unicode="&#xac;" horiz-adv-x="590" 
d="M414 198l35 155h-339l14 66h407l-49 -221h-68z" />
    <glyph glyph-name="uni00AD" unicode="&#xad;" horiz-adv-x="368" 
d="M38 206l15 70h283l-16 -70h-282z" />
    <glyph glyph-name="registered" unicode="&#xae;" horiz-adv-x="554" 
d="M277 188q-71 0 -125.5 31.5t-85 87t-30.5 127.5t30.5 127.5t85 87t125.5 31.5t125.5 -31.5t84.5 -87t30 -127.5t-30 -127.5t-84.5 -87t-125.5 -31.5zM277 233q89 0 139 54t50 147q0 94 -50 148t-139 54q-91 0 -140.5 -54t-49.5 -148q0 -93 49.5 -147t140.5 -54zM186 314
v247h97q46 0 69 -19.5t23 -52.5q0 -26 -16 -42t-45 -23q55 -22 75 -110h-47q-10 52 -36 75.5t-63 23.5h-12v-99h-45zM276 527h-45v-80h45q30 0 42 11.5t12 28.5q0 18 -12 29t-42 11z" />
    <glyph glyph-name="macron" unicode="&#xaf;" horiz-adv-x="500" 
d="M168 599l14 62h279l-14 -62h-279z" />
    <glyph glyph-name="degree" unicode="&#xb0;" horiz-adv-x="301" 
d="M203 442q-55 0 -85.5 32t-30.5 80q0 39 19.5 72.5t52.5 53.5t76 20q55 0 85.5 -32t30.5 -80q0 -39 -19.5 -72.5t-52.5 -53.5t-76 -20zM208 491q36 0 60.5 27.5t24.5 64.5q0 30 -17 49t-46 19q-36 0 -60.5 -27.5t-24.5 -64.5q0 -30 17 -49t46 -19z" />
    <glyph glyph-name="uni00B2" unicode="&#xb2;" horiz-adv-x="343" 
d="M55 378l3 14q12 52 37.5 88t83.5 67l72 39q39 21 57.5 41.5t18.5 51.5q0 22 -15 35.5t-41 13.5q-31 0 -54.5 -21t-34.5 -64h-69q13 68 58 102.5t104 34.5q61 0 93 -27.5t32 -74.5q0 -41 -28 -74.5t-79 -61.5l-76 -41q-31 -17 -47 -31.5t-23 -35.5h198l-13 -56h-277z" />
    <glyph glyph-name="uni00B3" unicode="&#xb3;" horiz-adv-x="343" 
d="M211 368q-64 0 -102 29.5t-38 84.5v7t1 8h69q-1 -5 -1 -8.5v-7.5q0 -27 19.5 -44t51.5 -17q42 0 64.5 24.5t22.5 54.5q0 32 -23.5 48t-60.5 16h-12l9 46h27q41 0 64.5 19.5t23.5 50.5q0 23 -16 36t-43 13q-31 0 -52 -16.5t-29 -45.5h-69q12 57 55 85.5t98 28.5
q60 0 93.5 -27t33.5 -73q0 -36 -23 -61t-63 -38q32 -13 45 -35.5t13 -51.5q0 -51 -42 -88.5t-116 -37.5z" />
    <glyph glyph-name="acute" unicode="&#xb4;" horiz-adv-x="500" 
d="M207 606l172 143l42 -61l-186 -122z" />
    <glyph glyph-name="paragraph" unicode="&#xb6;" horiz-adv-x="554" 
d="M268 240l-20 3q-89 9 -133.5 57t-44.5 126q0 62 30 117.5t88.5 91t145.5 35.5h226l-165 -775h-64l152 714h-72l-152 -714h-64z" />
    <glyph glyph-name="periodcentered" unicode="&#xb7;" horiz-adv-x="220" 
d="M105 179q-26 0 -40 14t-14 38q0 28 19 47.5t48 19.5q26 0 40 -14t14 -38q0 -29 -19.5 -48t-47.5 -19z" />
    <glyph glyph-name="cedilla" unicode="&#xb8;" horiz-adv-x="500" 
d="M166 0h44l-23 -61q8 2 17 2q35 0 58.5 -23.5t23.5 -62.5q0 -47 -33 -75t-91 -28q-16 0 -34 2.5t-38 8.5l10 45q16 -6 32 -8t27 -2q71 0 71 57q0 20 -11.5 33.5t-34.5 13.5q-14 0 -30 -10h-24z" />
    <glyph glyph-name="uni00B9" unicode="&#xb9;" horiz-adv-x="254" 
d="M129 378l66 311q-27 -13 -56 -21.5t-55 -12.5l12 58q32 7 68.5 21t65.5 36h56l-85 -392h-72z" />
    <glyph glyph-name="ordmasculine" unicode="&#xba;" horiz-adv-x="430" 
d="M232 278q-73 0 -115 42t-42 122q0 56 26.5 108t75.5 86t116 34q73 0 115 -42t42 -122q0 -56 -26.5 -108t-75.5 -86t-116 -34zM233 331q45 0 75.5 29t46.5 71.5t16 83.5q0 49 -20.5 75.5t-58.5 26.5q-45 0 -75.5 -29t-46.5 -71.5t-16 -83.5q0 -49 20.5 -75.5t58.5 -26.5z
" />
    <glyph glyph-name="guillemotright" unicode="&#xbb;" horiz-adv-x="576" 
d="M179 444l105 -196l-178 -196h-92l182 197l-104 195h87zM429 444l105 -196l-178 -196h-92l182 197l-104 195h87z" />
    <glyph glyph-name="onequarter" unicode="&#xbc;" horiz-adv-x="739" 
d="M92 0l464 660h86l-464 -660h-86zM554 0l17 81h-189l10 47l250 264h62l-54 -257h57l-12 -54h-57l-17 -81h-67zM462 135h121l34 162zM116 268l66 311q-27 -13 -56 -21.5t-55 -12.5l12 58q32 7 68.5 21t65.5 36h56l-85 -392h-72z" />
    <glyph glyph-name="onehalf" unicode="&#xbd;" horiz-adv-x="782" 
d="M92 0l464 660h86l-464 -660h-86zM421 0l3 14q12 52 37.5 88t83.5 67l72 39q39 21 57.5 41.5t18.5 51.5q0 22 -15 35.5t-41 13.5q-31 0 -54.5 -21t-34.5 -64h-69q13 68 58 102.5t104 34.5q61 0 93 -27.5t32 -74.5q0 -41 -28 -74.5t-79 -61.5l-76 -41q-31 -17 -47 -31.5
t-23 -35.5h198l-13 -56h-277zM116 268l66 311q-27 -13 -56 -21.5t-55 -12.5l12 58q32 7 68.5 21t65.5 36h56l-85 -392h-72z" />
    <glyph glyph-name="threequarters" unicode="&#xbe;" horiz-adv-x="822" 
d="M197 0l464 660h86l-464 -660h-86zM637 0l17 81h-189l10 47l250 264h62l-54 -257h57l-12 -54h-57l-17 -81h-67zM545 135h121l34 162zM192 258q-64 0 -102 29.5t-38 84.5v7t1 8h69q-1 -5 -1 -8.5v-7.5q0 -27 19.5 -44t51.5 -17q42 0 64.5 24.5t22.5 54.5q0 32 -23.5 48
t-60.5 16h-12l9 46h27q41 0 64.5 19.5t23.5 50.5q0 23 -16 36t-43 13q-31 0 -52 -16.5t-29 -45.5h-69q12 57 55 85.5t98 28.5q60 0 93.5 -27t33.5 -73q0 -36 -23 -61t-63 -38q32 -13 45 -35.5t13 -51.5q0 -51 -42 -88.5t-116 -37.5z" />
    <glyph glyph-name="questiondown" unicode="&#xbf;" horiz-adv-x="440" 
d="M314 508q26 0 40 -14t14 -38q0 -28 -19 -47.5t-48 -19.5q-26 0 -40 14t-14 38q0 29 19.5 48t47.5 19zM328 317l-7 -34q-8 -40 -29.5 -70.5t-76.5 -67.5l-58 -39q-42 -28 -64.5 -59.5t-22.5 -70.5q0 -44 27 -70.5t77 -26.5q51 0 89.5 34t54.5 105h87q-19 -98 -83.5 -152
t-157.5 -54q-86 0 -135.5 42t-49.5 116q0 61 34.5 106.5t93.5 83.5l59 38q37 23 53 42.5t24 55.5l4 21h81z" />
    <glyph glyph-name="Agrave" unicode="&#xc0;" horiz-adv-x="611" 
d="M-27 0l376 670h99l92 -670h-91l-19 160h-277l-87 -160h-93zM190 230h232l-41 352zM338 896l182 -125l-29 -47l-198 102z" />
    <glyph glyph-name="Aacute" unicode="&#xc1;" horiz-adv-x="611" 
d="M-27 0l376 670h99l92 -670h-91l-19 160h-277l-87 -160h-93zM190 230h232l-41 352zM322 773l219 123l34 -77l-231 -95z" />
    <glyph glyph-name="Acircumflex" unicode="&#xc2;" horiz-adv-x="611" 
d="M-27 0l376 670h99l92 -670h-91l-19 160h-277l-87 -160h-93zM190 230h232l-41 352zM461 883l121 -119l-35 -44l-117 91l-156 -91l-28 45l167 118h48z" />
    <glyph glyph-name="Atilde" unicode="&#xc3;" horiz-adv-x="611" 
d="M-27 0l376 670h99l92 -670h-91l-19 160h-277l-87 -160h-93zM190 230h232l-41 352zM407 786q-11 13 -21.5 20.5t-23.5 7.5q-16 0 -32 -14t-28 -55h-61q13 59 46.5 96t79.5 37q29 0 46.5 -12.5t34.5 -31.5q11 -13 21 -20.5t24 -7.5q16 0 32 14t28 55h61q-13 -59 -46.5 -96
t-79.5 -37q-29 0 -47 12.5t-34 31.5z" />
    <glyph glyph-name="Adieresis" unicode="&#xc4;" horiz-adv-x="611" 
d="M-27 0l376 670h99l92 -670h-91l-19 160h-277l-87 -160h-93zM190 230h232l-41 352zM317 756q-22 0 -36 12.5t-14 34.5q0 25 17.5 43t44.5 18q22 0 36 -12.5t14 -34.5q0 -25 -18 -43t-44 -18zM528 756q-22 0 -36 12.5t-14 34.5q0 25 17.5 43t44.5 18q22 0 36 -12.5
t14 -34.5q0 -25 -18 -43t-44 -18z" />
    <glyph glyph-name="Aring" unicode="&#xc5;" horiz-adv-x="611" 
d="M-27 0l376 670h99l92 -670h-91l-19 160h-277l-87 -160h-93zM190 230h232l-41 352zM425 734q-52 0 -78.5 29.5t-26.5 72.5q0 34 17 63t45.5 46.5t64.5 17.5q52 0 78.5 -29.5t26.5 -72.5q0 -34 -16.5 -63t-45.5 -46.5t-65 -17.5zM426 783q31 0 51.5 22.5t20.5 55.5
q0 24 -13.5 38.5t-38.5 14.5q-31 0 -51.5 -22.5t-20.5 -55.5q0 -24 13.5 -38.5t38.5 -14.5z" />
    <glyph glyph-name="AE" unicode="&#xc6;" horiz-adv-x="892" 
d="M-34 0l519 670h444l-16 -71h-307l-49 -228h280l-14 -68h-280l-50 -232h313l-15 -71h-405l34 160h-238l-121 -160h-95zM235 230h200l80 370z" />
    <glyph glyph-name="Ccedilla" unicode="&#xc7;" horiz-adv-x="660" 
d="M312 -16q-125 0 -190.5 72t-65.5 203q0 84 26 160.5t74 136.5t115 95t148 35q67 0 122 -26.5t88.5 -80t34.5 -135.5h-98q-2 76 -41 123.5t-113 47.5q-60 0 -108 -31t-81.5 -82.5t-51.5 -115t-18 -128.5q0 -100 42.5 -151.5t124.5 -51.5q74 0 124 41.5t81 123.5h97
q-40 -118 -120 -177t-190 -59zM277 0h48l-22 -59q7 1 15 1q41 0 65 -23.5t24 -63.5q0 -47 -34 -76t-98 -29q-15 0 -34.5 2.5t-41.5 8.5l10 48q37 -10 65 -10q37 0 55 15t18 40q0 20 -12 32.5t-36 12.5q-19 0 -34 -9h-25z" />
    <glyph glyph-name="Egrave" unicode="&#xc8;" horiz-adv-x="541" 
d="M34 0l143 670h401l-16 -71h-307l-49 -228h280l-14 -68h-280l-50 -232h313l-15 -71h-406zM320 896l182 -125l-29 -47l-198 102z" />
    <glyph glyph-name="Eacute" unicode="&#xc9;" horiz-adv-x="541" 
d="M34 0l143 670h401l-16 -71h-307l-49 -228h280l-14 -68h-280l-50 -232h313l-15 -71h-406zM304 773l219 123l34 -77l-231 -95z" />
    <glyph glyph-name="Ecircumflex" unicode="&#xca;" horiz-adv-x="541" 
d="M34 0l143 670h401l-16 -71h-307l-49 -228h280l-14 -68h-280l-50 -232h313l-15 -71h-406zM443 883l121 -119l-35 -44l-117 91l-156 -91l-28 45l167 118h48z" />
    <glyph glyph-name="Edieresis" unicode="&#xcb;" horiz-adv-x="541" 
d="M34 0l143 670h401l-16 -71h-307l-49 -228h280l-14 -68h-280l-50 -232h313l-15 -71h-406zM299 756q-22 0 -36 12.5t-14 34.5q0 25 17.5 43t44.5 18q22 0 36 -12.5t14 -34.5q0 -25 -18 -43t-44 -18zM510 756q-22 0 -36 12.5t-14 34.5q0 25 17.5 43t44.5 18q22 0 36 -12.5
t14 -34.5q0 -25 -18 -43t-44 -18z" />
    <glyph glyph-name="Igrave" unicode="&#xcc;" horiz-adv-x="266" 
d="M34 0l143 670h93l-143 -670h-93zM164 896l182 -125l-29 -47l-198 102z" />
    <glyph glyph-name="Iacute" unicode="&#xcd;" horiz-adv-x="266" 
d="M34 0l143 670h93l-143 -670h-93zM148 773l219 123l34 -77l-231 -95z" />
    <glyph glyph-name="Icircumflex" unicode="&#xce;" horiz-adv-x="266" 
d="M34 0l143 670h93l-143 -670h-93zM287 883l121 -119l-35 -44l-117 91l-156 -91l-28 45l167 118h48z" />
    <glyph glyph-name="Idieresis" unicode="&#xcf;" horiz-adv-x="266" 
d="M34 0l143 670h93l-143 -670h-93zM143 756q-22 0 -36 12.5t-14 34.5q0 25 17.5 43t44.5 18q22 0 36 -12.5t14 -34.5q0 -25 -18 -43t-44 -18zM354 756q-22 0 -36 12.5t-14 34.5q0 25 17.5 43t44.5 18q22 0 36 -12.5t14 -34.5q0 -25 -18 -43t-44 -18z" />
    <glyph glyph-name="Eth" unicode="&#xd0;" horiz-adv-x="701" 
d="M54 0l65 305h-79l15 64h78l64 301h198q145 0 216 -72.5t71 -197.5q0 -83 -29 -155.5t-84.5 -127.5t-135 -86t-180.5 -31h-199zM395 305h-183l-50 -236h99q101 0 173.5 43t110.5 117t38 166q0 102 -49.5 154t-160.5 52h-99l-49 -232h185z" />
    <glyph glyph-name="Ntilde" unicode="&#xd1;" horiz-adv-x="689" 
d="M34 0l142 670h89l225 -534l113 534h90l-142 -670h-89l-225 532l-113 -532h-90zM443 786q-11 13 -21.5 20.5t-23.5 7.5q-16 0 -32 -14t-28 -55h-61q13 59 46.5 96t79.5 37q29 0 46.5 -12.5t34.5 -31.5q11 -13 21 -20.5t24 -7.5q16 0 32 14t28 55h61q-13 -59 -46.5 -96
t-79.5 -37q-29 0 -47 12.5t-34 31.5z" />
    <glyph glyph-name="Ograve" unicode="&#xd2;" horiz-adv-x="704" 
d="M319 -16q-127 0 -195 77t-68 211q0 82 25.5 156.5t73.5 132.5t115.5 91.5t152.5 33.5q127 0 195 -77t68 -211q0 -82 -25.5 -156.5t-73.5 -132.5t-115.5 -91.5t-152.5 -33.5zM324 55q64 0 113.5 31t83.5 83t51 113.5t17 123.5q0 99 -45.5 154t-125.5 55q-64 0 -113.5 -31
t-83.5 -83t-51 -113.5t-17 -123.5q0 -99 45.5 -154t125.5 -55zM378 896l182 -125l-29 -47l-198 102z" />
    <glyph glyph-name="Oacute" unicode="&#xd3;" horiz-adv-x="704" 
d="M319 -16q-127 0 -195 77t-68 211q0 82 25.5 156.5t73.5 132.5t115.5 91.5t152.5 33.5q127 0 195 -77t68 -211q0 -82 -25.5 -156.5t-73.5 -132.5t-115.5 -91.5t-152.5 -33.5zM324 55q64 0 113.5 31t83.5 83t51 113.5t17 123.5q0 99 -45.5 154t-125.5 55q-64 0 -113.5 -31
t-83.5 -83t-51 -113.5t-17 -123.5q0 -99 45.5 -154t125.5 -55zM362 773l219 123l34 -77l-231 -95z" />
    <glyph glyph-name="Ocircumflex" unicode="&#xd4;" horiz-adv-x="704" 
d="M319 -16q-127 0 -195 77t-68 211q0 82 25.5 156.5t73.5 132.5t115.5 91.5t152.5 33.5q127 0 195 -77t68 -211q0 -82 -25.5 -156.5t-73.5 -132.5t-115.5 -91.5t-152.5 -33.5zM324 55q64 0 113.5 31t83.5 83t51 113.5t17 123.5q0 99 -45.5 154t-125.5 55q-64 0 -113.5 -31
t-83.5 -83t-51 -113.5t-17 -123.5q0 -99 45.5 -154t125.5 -55zM501 883l121 -119l-35 -44l-117 91l-156 -91l-28 45l167 118h48z" />
    <glyph glyph-name="Otilde" unicode="&#xd5;" horiz-adv-x="704" 
d="M319 -16q-127 0 -195 77t-68 211q0 82 25.5 156.5t73.5 132.5t115.5 91.5t152.5 33.5q127 0 195 -77t68 -211q0 -82 -25.5 -156.5t-73.5 -132.5t-115.5 -91.5t-152.5 -33.5zM324 55q64 0 113.5 31t83.5 83t51 113.5t17 123.5q0 99 -45.5 154t-125.5 55q-64 0 -113.5 -31
t-83.5 -83t-51 -113.5t-17 -123.5q0 -99 45.5 -154t125.5 -55zM447 786q-11 13 -21.5 20.5t-23.5 7.5q-16 0 -32 -14t-28 -55h-61q13 59 46.5 96t79.5 37q29 0 46.5 -12.5t34.5 -31.5q11 -13 21 -20.5t24 -7.5q16 0 32 14t28 55h61q-13 -59 -46.5 -96t-79.5 -37
q-29 0 -47 12.5t-34 31.5z" />
    <glyph glyph-name="Odieresis" unicode="&#xd6;" horiz-adv-x="704" 
d="M319 -16q-127 0 -195 77t-68 211q0 82 25.5 156.5t73.5 132.5t115.5 91.5t152.5 33.5q127 0 195 -77t68 -211q0 -82 -25.5 -156.5t-73.5 -132.5t-115.5 -91.5t-152.5 -33.5zM324 55q64 0 113.5 31t83.5 83t51 113.5t17 123.5q0 99 -45.5 154t-125.5 55q-64 0 -113.5 -31
t-83.5 -83t-51 -113.5t-17 -123.5q0 -99 45.5 -154t125.5 -55zM357 756q-22 0 -36 12.5t-14 34.5q0 25 17.5 43t44.5 18q22 0 36 -12.5t14 -34.5q0 -25 -18 -43t-44 -18zM568 756q-22 0 -36 12.5t-14 34.5q0 25 17.5 43t44.5 18q22 0 36 -12.5t14 -34.5q0 -25 -18 -43
t-44 -18z" />
    <glyph glyph-name="multiply" unicode="&#xd7;" horiz-adv-x="590" 
d="M117 136l-42 51l178 148l-115 145l52 45l115 -147l177 147l42 -51l-178 -148l115 -145l-52 -45l-115 147z" />
    <glyph glyph-name="Oslash" unicode="&#xd8;" horiz-adv-x="704" 
d="M34 -3l73 86q-51 73 -51 189q0 82 25.5 156.5t73.5 132.5t115.5 91.5t152.5 33.5q98 0 163 -48l68 80l54 -45l-73 -86q51 -73 51 -189q0 -82 -25.5 -156.5t-73.5 -132.5t-115.5 -91.5t-152.5 -33.5q-98 0 -163 48l-68 -80zM153 264q0 -62 19 -108l360 417q-44 42 -114 42
q-64 0 -113.5 -31t-83.5 -83t-51 -113.5t-17 -123.5zM324 55q64 0 113.5 31t83.5 83t51 113.5t17 123.5t-19 108l-360 -417q44 -42 114 -42z" />
    <glyph glyph-name="Ugrave" unicode="&#xd9;" horiz-adv-x="654" 
d="M282 -16q-109 0 -163 50.5t-54 143.5q0 40 11 93l85 399h93l-87 -409q-5 -19 -7.5 -40.5t-2.5 -38.5q0 -63 34.5 -95t99.5 -32q79 0 128 53.5t72 159.5l87 402h93l-87 -407q-28 -133 -101 -206t-201 -73zM356 896l182 -125l-29 -47l-198 102z" />
    <glyph glyph-name="Uacute" unicode="&#xda;" horiz-adv-x="654" 
d="M282 -16q-109 0 -163 50.5t-54 143.5q0 40 11 93l85 399h93l-87 -409q-5 -19 -7.5 -40.5t-2.5 -38.5q0 -63 34.5 -95t99.5 -32q79 0 128 53.5t72 159.5l87 402h93l-87 -407q-28 -133 -101 -206t-201 -73zM340 773l219 123l34 -77l-231 -95z" />
    <glyph glyph-name="Ucircumflex" unicode="&#xdb;" horiz-adv-x="654" 
d="M282 -16q-109 0 -163 50.5t-54 143.5q0 40 11 93l85 399h93l-87 -409q-5 -19 -7.5 -40.5t-2.5 -38.5q0 -63 34.5 -95t99.5 -32q79 0 128 53.5t72 159.5l87 402h93l-87 -407q-28 -133 -101 -206t-201 -73zM479 883l121 -119l-35 -44l-117 91l-156 -91l-28 45l167 118h48z
" />
    <glyph glyph-name="Udieresis" unicode="&#xdc;" horiz-adv-x="654" 
d="M282 -16q-109 0 -163 50.5t-54 143.5q0 40 11 93l85 399h93l-87 -409q-5 -19 -7.5 -40.5t-2.5 -38.5q0 -63 34.5 -95t99.5 -32q79 0 128 53.5t72 159.5l87 402h93l-87 -407q-28 -133 -101 -206t-201 -73zM335 756q-22 0 -36 12.5t-14 34.5q0 25 17.5 43t44.5 18
q22 0 36 -12.5t14 -34.5q0 -25 -18 -43t-44 -18zM546 756q-22 0 -36 12.5t-14 34.5q0 25 17.5 43t44.5 18q22 0 36 -12.5t14 -34.5q0 -25 -18 -43t-44 -18z" />
    <glyph glyph-name="Yacute" unicode="&#xdd;" horiz-adv-x="566" 
d="M181 0l58 269l-131 401h95l95 -334l253 334h99l-319 -401l-57 -269h-93zM295 773l219 123l34 -77l-231 -95z" />
    <glyph glyph-name="Thorn" unicode="&#xde;" horiz-adv-x="572" 
d="M127 0h-93l142 670h93l-28 -130h114q106 0 156.5 -47.5t50.5 -128.5q0 -68 -33.5 -120.5t-98 -82.5t-157.5 -30h-118zM279 197q93 0 141 46.5t48 113.5q0 60 -34.5 89t-99.5 29h-106l-59 -278h110z" />
    <glyph glyph-name="germandbls" unicode="&#xdf;" horiz-adv-x="583" 
d="M286 53q51 0 87 22.5t55 59.5t19 82q0 58 -34 92t-106 34h-22l14 61h21q66 0 110 39t44 103q0 50 -26.5 77t-75.5 27q-59 0 -100.5 -42t-63.5 -144l-99 -464h-88l97 459q28 132 93 193t166 61q92 0 139.5 -46.5t47.5 -116.5q0 -62 -36.5 -108.5t-99.5 -66.5
q58 -16 84 -59t26 -97q0 -63 -28 -115.5t-82 -84.5t-132 -32q-26 0 -54.5 4t-51.5 14l18 61q21 -7 41 -10t37 -3z" />
    <glyph glyph-name="agrave" unicode="&#xe0;" horiz-adv-x="500" 
d="M143 -13q-63 0 -99.5 34.5t-36.5 90.5q0 92 89.5 141.5t268.5 51.5l2 11q6 27 6 48q0 40 -24.5 63.5t-69.5 23.5q-49 0 -81 -26.5t-49 -69.5h-86q23 72 79.5 114t142.5 42q83 0 126.5 -40t43.5 -114q0 -17 -1.5 -34t-5.5 -35l-62 -288h-78l9 67q-32 -38 -76.5 -59
t-97.5 -21zM95 125q0 -36 21.5 -57t58.5 -21t71.5 19t60 52t34.5 76l12 58q-76 -1 -134 -14.5t-91 -41t-33 -71.5zM272 749l128 -148l-38 -35l-145 131z" />
    <glyph glyph-name="aacute" unicode="&#xe1;" horiz-adv-x="500" 
d="M143 -13q-63 0 -99.5 34.5t-36.5 90.5q0 92 89.5 141.5t268.5 51.5l2 11q6 27 6 48q0 40 -24.5 63.5t-69.5 23.5q-49 0 -81 -26.5t-49 -69.5h-86q23 72 79.5 114t142.5 42q83 0 126.5 -40t43.5 -114q0 -17 -1.5 -34t-5.5 -35l-62 -288h-78l9 67q-32 -38 -76.5 -59
t-97.5 -21zM95 125q0 -36 21.5 -57t58.5 -21t71.5 19t60 52t34.5 76l12 58q-76 -1 -134 -14.5t-91 -41t-33 -71.5zM237 606l172 143l42 -61l-186 -122z" />
    <glyph glyph-name="acircumflex" unicode="&#xe2;" horiz-adv-x="500" 
d="M143 -13q-63 0 -99.5 34.5t-36.5 90.5q0 92 89.5 141.5t268.5 51.5l2 11q6 27 6 48q0 40 -24.5 63.5t-69.5 23.5q-49 0 -81 -26.5t-49 -69.5h-86q23 72 79.5 114t142.5 42q83 0 126.5 -40t43.5 -114q0 -17 -1.5 -34t-5.5 -35l-62 -288h-78l9 67q-32 -38 -76.5 -59
t-97.5 -21zM95 125q0 -36 21.5 -57t58.5 -21t71.5 19t60 52t34.5 76l12 58q-76 -1 -134 -14.5t-91 -41t-33 -71.5zM361 744l106 -145l-37 -39l-99 112l-146 -112l-30 39l162 145h44z" />
    <glyph glyph-name="atilde" unicode="&#xe3;" horiz-adv-x="500" 
d="M143 -13q-63 0 -99.5 34.5t-36.5 90.5q0 92 89.5 141.5t268.5 51.5l2 11q6 27 6 48q0 40 -24.5 63.5t-69.5 23.5q-49 0 -81 -26.5t-49 -69.5h-86q23 72 79.5 114t142.5 42q83 0 126.5 -40t43.5 -114q0 -17 -1.5 -34t-5.5 -35l-62 -288h-78l9 67q-32 -38 -76.5 -59
t-97.5 -21zM95 125q0 -36 21.5 -57t58.5 -21t71.5 19t60 52t34.5 76l12 58q-76 -1 -134 -14.5t-91 -41t-33 -71.5zM305 625q-23 27 -41 27q-14 0 -27 -14t-24 -52h-56q12 58 42.5 92t70.5 34q25 0 41.5 -11.5t32.5 -30.5q23 -27 41 -27q13 0 27 14.5t24 51.5h56
q-12 -58 -42 -92t-71 -34q-25 0 -41 11.5t-33 30.5z" />
    <glyph glyph-name="adieresis" unicode="&#xe4;" horiz-adv-x="500" 
d="M143 -13q-63 0 -99.5 34.5t-36.5 90.5q0 92 89.5 141.5t268.5 51.5l2 11q6 27 6 48q0 40 -24.5 63.5t-69.5 23.5q-49 0 -81 -26.5t-49 -69.5h-86q23 72 79.5 114t142.5 42q83 0 126.5 -40t43.5 -114q0 -17 -1.5 -34t-5.5 -35l-62 -288h-78l9 67q-32 -38 -76.5 -59
t-97.5 -21zM95 125q0 -36 21.5 -57t58.5 -21t71.5 19t60 52t34.5 76l12 58q-76 -1 -134 -14.5t-91 -41t-33 -71.5zM222 580q-20 0 -33.5 12t-13.5 32q0 23 17 40.5t42 17.5q20 0 33.5 -12t13.5 -32q0 -23 -17 -40.5t-42 -17.5zM409 580q-20 0 -33.5 12t-13.5 32
q0 23 17 40.5t42 17.5q19 0 33 -12t14 -32q0 -23 -17 -40.5t-42 -17.5z" />
    <glyph glyph-name="aring" unicode="&#xe5;" horiz-adv-x="500" 
d="M143 -13q-63 0 -99.5 34.5t-36.5 90.5q0 92 89.5 141.5t268.5 51.5l2 11q6 27 6 48q0 40 -24.5 63.5t-69.5 23.5q-49 0 -81 -26.5t-49 -69.5h-86q23 72 79.5 114t142.5 42q83 0 126.5 -40t43.5 -114q0 -17 -1.5 -34t-5.5 -35l-62 -288h-78l9 67q-32 -38 -76.5 -59
t-97.5 -21zM95 125q0 -36 21.5 -57t58.5 -21t71.5 19t60 52t34.5 76l12 58q-76 -1 -134 -14.5t-91 -41t-33 -71.5zM319 557q-51 0 -77 27.5t-26 71.5q0 34 16.5 62t44.5 45t63 17q51 0 77 -28t26 -71q0 -33 -16.5 -61.5t-44.5 -45.5t-63 -17zM319 601q33 0 54 23t21 58
q0 23 -14 38.5t-40 15.5q-33 0 -54 -23t-21 -58q0 -23 14 -38.5t40 -15.5z" />
    <glyph glyph-name="ae" unicode="&#xe6;" horiz-adv-x="828" 
d="M149 -13q-70 0 -106 35.5t-36 90.5q0 96 96 143t262 49l2 10q6 27 6 49q0 41 -25 64t-67 23q-95 0 -132 -96h-86q25 77 83 116.5t140 39.5q59 0 96.5 -23.5t49.5 -68.5q31 42 78 67t104 25q92 0 138.5 -56t46.5 -143q0 -20 -2.5 -42t-7.5 -44h-364q-1 -11 -1.5 -20
t-0.5 -16q0 -70 31.5 -106.5t88.5 -36.5q53 0 88 28.5t52 78.5h86q-29 -83 -88.5 -125t-141.5 -42q-70 0 -115.5 33t-58.5 97q-31 -61 -89 -95.5t-127 -34.5zM606 451q-42 0 -75.5 -22.5t-57.5 -60.5t-36 -84h277q2 15 2 31q0 61 -28 98.5t-82 37.5zM178 47q38 0 72 19.5
t58 52t32 70.5l13 63q-69 -1 -127.5 -13t-94.5 -39.5t-36 -74.5q0 -37 22.5 -57.5t60.5 -20.5z" />
    <glyph glyph-name="ccedilla" unicode="&#xe7;" horiz-adv-x="518" 
d="M233 -13q-94 0 -147 54.5t-53 155.5q0 59 19 115t55 101t87.5 71.5t116.5 26.5q62 0 103 -24.5t61.5 -65t23.5 -89.5h-86q-2 47 -28 82t-79 35q-43 0 -76.5 -23t-57 -61t-36 -83t-12.5 -90q0 -68 29.5 -105.5t85.5 -37.5q50 0 87.5 31t56.5 95h86q-26 -93 -88.5 -140.5
t-147.5 -47.5zM190 0h44l-23 -61q8 2 17 2q35 0 58.5 -23.5t23.5 -62.5q0 -47 -33 -75t-91 -28q-16 0 -34 2.5t-38 8.5l10 45q16 -6 32 -8t27 -2q71 0 71 57q0 20 -11.5 33.5t-34.5 13.5q-14 0 -30 -10h-24z" />
    <glyph glyph-name="egrave" unicode="&#xe8;" horiz-adv-x="527" 
d="M236 -13q-97 0 -150 55.5t-53 154.5q0 57 18.5 113t54 101.5t87.5 72.5t118 27q65 0 106 -26.5t61 -72t20 -101.5q0 -19 -2.5 -41.5t-7.5 -43.5h-366q-2 -17 -2 -33q0 -73 31.5 -109.5t90.5 -36.5q52 0 87 28t53 79h86q-29 -85 -89.5 -126t-142.5 -41zM304 451
q-43 0 -77.5 -23t-58 -61t-35.5 -83h280q2 17 2 32q0 58 -27 96.5t-84 38.5zM294 749l128 -148l-38 -35l-145 131z" />
    <glyph glyph-name="eacute" unicode="&#xe9;" horiz-adv-x="527" 
d="M236 -13q-97 0 -150 55.5t-53 154.5q0 57 18.5 113t54 101.5t87.5 72.5t118 27q65 0 106 -26.5t61 -72t20 -101.5q0 -19 -2.5 -41.5t-7.5 -43.5h-366q-2 -17 -2 -33q0 -73 31.5 -109.5t90.5 -36.5q52 0 87 28t53 79h86q-29 -85 -89.5 -126t-142.5 -41zM304 451
q-43 0 -77.5 -23t-58 -61t-35.5 -83h280q2 17 2 32q0 58 -27 96.5t-84 38.5zM259 606l172 143l42 -61l-186 -122z" />
    <glyph glyph-name="ecircumflex" unicode="&#xea;" horiz-adv-x="527" 
d="M236 -13q-97 0 -150 55.5t-53 154.5q0 57 18.5 113t54 101.5t87.5 72.5t118 27q65 0 106 -26.5t61 -72t20 -101.5q0 -19 -2.5 -41.5t-7.5 -43.5h-366q-2 -17 -2 -33q0 -73 31.5 -109.5t90.5 -36.5q52 0 87 28t53 79h86q-29 -85 -89.5 -126t-142.5 -41zM304 451
q-43 0 -77.5 -23t-58 -61t-35.5 -83h280q2 17 2 32q0 58 -27 96.5t-84 38.5zM383 744l106 -145l-37 -39l-99 112l-146 -112l-30 39l162 145h44z" />
    <glyph glyph-name="edieresis" unicode="&#xeb;" horiz-adv-x="527" 
d="M236 -13q-97 0 -150 55.5t-53 154.5q0 57 18.5 113t54 101.5t87.5 72.5t118 27q65 0 106 -26.5t61 -72t20 -101.5q0 -19 -2.5 -41.5t-7.5 -43.5h-366q-2 -17 -2 -33q0 -73 31.5 -109.5t90.5 -36.5q52 0 87 28t53 79h86q-29 -85 -89.5 -126t-142.5 -41zM304 451
q-43 0 -77.5 -23t-58 -61t-35.5 -83h280q2 17 2 32q0 58 -27 96.5t-84 38.5zM244 580q-20 0 -33.5 12t-13.5 32q0 23 17 40.5t42 17.5q20 0 33.5 -12t13.5 -32q0 -23 -17 -40.5t-42 -17.5zM431 580q-20 0 -33.5 12t-13.5 32q0 23 17 40.5t42 17.5q19 0 33 -12t14 -32
q0 -23 -17 -40.5t-42 -17.5z" />
    <glyph glyph-name="igrave" unicode="&#xec;" horiz-adv-x="242" 
d="M22 0l107 498h90l-107 -498h-90zM171 744l88 -156l-42 -27l-109 141z" />
    <glyph glyph-name="iacute" unicode="&#xed;" horiz-adv-x="242" 
d="M22 0l107 498h90l-107 -498h-90zM133 600l142 146l48 -55l-157 -128z" />
    <glyph glyph-name="icircumflex" unicode="&#xee;" horiz-adv-x="242" 
d="M22 0l107 498h90l-107 -498h-90zM241 739l85 -159l-41 -26l-75 109l-130 -109l-32 35l148 150h45z" />
    <glyph glyph-name="idieresis" unicode="&#xef;" horiz-adv-x="242" 
d="M22 0l107 498h90l-107 -498h-90zM114 580q-20 0 -33.5 12t-13.5 32q0 23 17 40.5t42 17.5q20 0 33.5 -12t13.5 -32q0 -23 -17 -40.5t-42 -17.5zM277 580q-20 0 -33.5 12t-13.5 32q0 23 17 40.5t42 17.5q19 0 33 -12t14 -32q0 -23 -17 -40.5t-42 -17.5z" />
    <glyph glyph-name="eth" unicode="&#xf0;" horiz-adv-x="549" 
d="M233 -13q-90 0 -145 50.5t-55 154.5q0 56 17.5 109.5t49.5 96.5t78 68.5t103 25.5q53 0 93.5 -24t59.5 -67v5q0 52 -18.5 99t-55.5 83l-102 -67l-26 42l86 56q-40 24 -90 35l23 65q80 -17 136 -55l95 62l26 -41l-82 -54q44 -45 67 -110.5t23 -154.5q0 -64 -16 -130.5
t-50 -123t-87.5 -91t-129.5 -34.5zM241 49q43 0 76.5 21.5t56 57t34 77.5t11.5 83q0 68 -30.5 103.5t-85.5 35.5q-43 0 -76.5 -21.5t-56 -57t-34 -77.5t-11.5 -83q0 -68 30.5 -103.5t85.5 -35.5z" />
    <glyph glyph-name="ntilde" unicode="&#xf1;" horiz-adv-x="559" 
d="M21 0l106 498h78l-14 -79q32 45 77.5 68.5t96.5 23.5q73 0 110.5 -42.5t37.5 -106.5q0 -16 -1.5 -33t-6.5 -37l-62 -292h-88l62 291q7 31 7 59q0 44 -22.5 69.5t-68.5 25.5q-60 0 -105 -48t-62 -130l-57 -267h-88zM348 625q-23 27 -41 27q-14 0 -27 -14t-24 -52h-56
q12 58 42.5 92t70.5 34q25 0 41.5 -11.5t32.5 -30.5q23 -27 41 -27q13 0 27 14.5t24 51.5h56q-12 -58 -42 -92t-71 -34q-25 0 -41 11.5t-33 30.5z" />
    <glyph glyph-name="ograve" unicode="&#xf2;" horiz-adv-x="546" 
d="M236 -13q-94 0 -148.5 57.5t-54.5 155.5q0 56 18.5 111t54.5 100.5t87 72.5t117 27q94 0 148.5 -57.5t54.5 -155.5q0 -56 -18.5 -111t-54.5 -100.5t-87 -72.5t-117 -27zM240 49q43 0 77 23t57.5 60.5t35.5 82.5t12 90q0 69 -30.5 106.5t-85.5 37.5q-43 0 -77 -23
t-57.5 -60.5t-35.5 -82.5t-12 -90q0 -69 30.5 -106.5t85.5 -37.5zM295 749l128 -148l-38 -35l-145 131z" />
    <glyph glyph-name="oacute" unicode="&#xf3;" horiz-adv-x="546" 
d="M236 -13q-94 0 -148.5 57.5t-54.5 155.5q0 56 18.5 111t54.5 100.5t87 72.5t117 27q94 0 148.5 -57.5t54.5 -155.5q0 -56 -18.5 -111t-54.5 -100.5t-87 -72.5t-117 -27zM240 49q43 0 77 23t57.5 60.5t35.5 82.5t12 90q0 69 -30.5 106.5t-85.5 37.5q-43 0 -77 -23
t-57.5 -60.5t-35.5 -82.5t-12 -90q0 -69 30.5 -106.5t85.5 -37.5zM260 606l172 143l42 -61l-186 -122z" />
    <glyph glyph-name="ocircumflex" unicode="&#xf4;" horiz-adv-x="546" 
d="M236 -13q-94 0 -148.5 57.5t-54.5 155.5q0 56 18.5 111t54.5 100.5t87 72.5t117 27q94 0 148.5 -57.5t54.5 -155.5q0 -56 -18.5 -111t-54.5 -100.5t-87 -72.5t-117 -27zM240 49q43 0 77 23t57.5 60.5t35.5 82.5t12 90q0 69 -30.5 106.5t-85.5 37.5q-43 0 -77 -23
t-57.5 -60.5t-35.5 -82.5t-12 -90q0 -69 30.5 -106.5t85.5 -37.5zM384 744l106 -145l-37 -39l-99 112l-146 -112l-30 39l162 145h44z" />
    <glyph glyph-name="otilde" unicode="&#xf5;" horiz-adv-x="546" 
d="M236 -13q-94 0 -148.5 57.5t-54.5 155.5q0 56 18.5 111t54.5 100.5t87 72.5t117 27q94 0 148.5 -57.5t54.5 -155.5q0 -56 -18.5 -111t-54.5 -100.5t-87 -72.5t-117 -27zM240 49q43 0 77 23t57.5 60.5t35.5 82.5t12 90q0 69 -30.5 106.5t-85.5 37.5q-43 0 -77 -23
t-57.5 -60.5t-35.5 -82.5t-12 -90q0 -69 30.5 -106.5t85.5 -37.5zM328 625q-23 27 -41 27q-14 0 -27 -14t-24 -52h-56q12 58 42.5 92t70.5 34q25 0 41.5 -11.5t32.5 -30.5q23 -27 41 -27q13 0 27 14.5t24 51.5h56q-12 -58 -42 -92t-71 -34q-25 0 -41 11.5t-33 30.5z" />
    <glyph glyph-name="odieresis" unicode="&#xf6;" horiz-adv-x="546" 
d="M236 -13q-94 0 -148.5 57.5t-54.5 155.5q0 56 18.5 111t54.5 100.5t87 72.5t117 27q94 0 148.5 -57.5t54.5 -155.5q0 -56 -18.5 -111t-54.5 -100.5t-87 -72.5t-117 -27zM240 49q43 0 77 23t57.5 60.5t35.5 82.5t12 90q0 69 -30.5 106.5t-85.5 37.5q-43 0 -77 -23
t-57.5 -60.5t-35.5 -82.5t-12 -90q0 -69 30.5 -106.5t85.5 -37.5zM245 580q-20 0 -33.5 12t-13.5 32q0 23 17 40.5t42 17.5q20 0 33.5 -12t13.5 -32q0 -23 -17 -40.5t-42 -17.5zM432 580q-20 0 -33.5 12t-13.5 32q0 23 17 40.5t42 17.5q19 0 33 -12t14 -32q0 -23 -17 -40.5
t-42 -17.5z" />
    <glyph glyph-name="divide" unicode="&#xf7;" horiz-adv-x="590" 
d="M341 458q-23 0 -36 13t-13 34q0 25 17.5 42.5t42.5 17.5q23 0 36 -13t13 -34q0 -25 -17.5 -42.5t-42.5 -17.5zM97 297l14 66h408l-14 -66h-408zM264 95q-23 0 -36 13t-13 34q0 25 17.5 42.5t42.5 17.5q23 0 36 -13t13 -34q0 -25 -17.5 -42.5t-42.5 -17.5z" />
    <glyph glyph-name="oslash" unicode="&#xf8;" horiz-adv-x="546" 
d="M236 -13q-71 0 -121 34l-57 -67l-47 41l60 69q-38 55 -38 136q0 56 18.5 111t54.5 100.5t87 72.5t117 27q71 0 121 -34l57 67l47 -41l-60 -69q38 -55 38 -136q0 -56 -18.5 -111t-54.5 -100.5t-87 -72.5t-117 -27zM124 193q0 -35 8 -62l253 287q-30 31 -79 31
q-43 0 -77 -23t-57.5 -60.5t-35.5 -82.5t-12 -90zM240 49q43 0 77 23t57.5 60.5t35.5 82.5t12 90q0 35 -8 62l-253 -287q30 -31 79 -31z" />
    <glyph glyph-name="ugrave" unicode="&#xf9;" horiz-adv-x="547" 
d="M527 498l-106 -498h-78l15 84q-63 -97 -170 -97q-70 0 -106.5 41.5t-36.5 104.5q0 18 1.5 35t6.5 38l62 292h88l-62 -291q-7 -32 -7 -63q0 -40 22 -65.5t63 -25.5q61 0 103.5 48t59.5 130l57 267h88zM300 749l128 -148l-38 -35l-145 131z" />
    <glyph glyph-name="uacute" unicode="&#xfa;" horiz-adv-x="547" 
d="M527 498l-106 -498h-78l15 84q-63 -97 -170 -97q-70 0 -106.5 41.5t-36.5 104.5q0 18 1.5 35t6.5 38l62 292h88l-62 -291q-7 -32 -7 -63q0 -40 22 -65.5t63 -25.5q61 0 103.5 48t59.5 130l57 267h88zM265 606l172 143l42 -61l-186 -122z" />
    <glyph glyph-name="ucircumflex" unicode="&#xfb;" horiz-adv-x="547" 
d="M527 498l-106 -498h-78l15 84q-63 -97 -170 -97q-70 0 -106.5 41.5t-36.5 104.5q0 18 1.5 35t6.5 38l62 292h88l-62 -291q-7 -32 -7 -63q0 -40 22 -65.5t63 -25.5q61 0 103.5 48t59.5 130l57 267h88zM389 744l106 -145l-37 -39l-99 112l-146 -112l-30 39l162 145h44z" />
    <glyph glyph-name="udieresis" unicode="&#xfc;" horiz-adv-x="547" 
d="M527 498l-106 -498h-78l15 84q-63 -97 -170 -97q-70 0 -106.5 41.5t-36.5 104.5q0 18 1.5 35t6.5 38l62 292h88l-62 -291q-7 -32 -7 -63q0 -40 22 -65.5t63 -25.5q61 0 103.5 48t59.5 130l57 267h88zM250 580q-20 0 -33.5 12t-13.5 32q0 23 17 40.5t42 17.5
q20 0 33.5 -12t13.5 -32q0 -23 -17 -40.5t-42 -17.5zM437 580q-20 0 -33.5 12t-13.5 32q0 23 17 40.5t42 17.5q19 0 33 -12t14 -32q0 -23 -17 -40.5t-42 -17.5z" />
    <glyph glyph-name="yacute" unicode="&#xfd;" horiz-adv-x="477" 
d="M-17 -223q-25 0 -46 6t-36 15l24 61q13 -6 29.5 -10.5t30.5 -4.5q31 0 56.5 22t60.5 77l43 69l-67 486h88l37 -393l223 393h89l-344 -577q-49 -82 -91.5 -113t-96.5 -31zM237 606l172 143l42 -61l-186 -122z" />
    <glyph glyph-name="thorn" unicode="&#xfe;" horiz-adv-x="557" 
d="M-24 -210l194 910h88l-58 -272q32 40 75.5 61.5t90.5 21.5q73 0 115.5 -51t42.5 -144q0 -62 -18.5 -120.5t-52.5 -105.5t-81 -75t-104 -28q-56 0 -92 24.5t-51 63.5l-61 -285h-88zM253 51q41 0 74 24t56.5 63t36 85t12.5 90q0 62 -25.5 97.5t-72.5 35.5q-40 0 -76.5 -26
t-63 -69t-36.5 -92l-3 -15q-2 -10 -4 -28t-2 -38q0 -55 26.5 -91t77.5 -36z" />
    <glyph glyph-name="ydieresis" unicode="&#xff;" horiz-adv-x="477" 
d="M-17 -223q-25 0 -46 6t-36 15l24 61q13 -6 29.5 -10.5t30.5 -4.5q31 0 56.5 22t60.5 77l43 69l-67 486h88l37 -393l223 393h89l-344 -577q-49 -82 -91.5 -113t-96.5 -31zM222 580q-20 0 -33.5 12t-13.5 32q0 23 17 40.5t42 17.5q20 0 33.5 -12t13.5 -32q0 -23 -17 -40.5
t-42 -17.5zM409 580q-20 0 -33.5 12t-13.5 32q0 23 17 40.5t42 17.5q19 0 33 -12t14 -32q0 -23 -17 -40.5t-42 -17.5z" />
    <glyph glyph-name="Amacron" unicode="&#x100;" horiz-adv-x="611" 
d="M-27 0l376 670h99l92 -670h-91l-19 160h-277l-87 -160h-93zM190 230h232l-41 352zM258 765l16 68h318l-16 -68h-318z" />
    <glyph glyph-name="amacron" unicode="&#x101;" horiz-adv-x="500" 
d="M143 -13q-63 0 -99.5 34.5t-36.5 90.5q0 92 89.5 141.5t268.5 51.5l2 11q6 27 6 48q0 40 -24.5 63.5t-69.5 23.5q-49 0 -81 -26.5t-49 -69.5h-86q23 72 79.5 114t142.5 42q83 0 126.5 -40t43.5 -114q0 -17 -1.5 -34t-5.5 -35l-62 -288h-78l9 67q-32 -38 -76.5 -59
t-97.5 -21zM95 125q0 -36 21.5 -57t58.5 -21t71.5 19t60 52t34.5 76l12 58q-76 -1 -134 -14.5t-91 -41t-33 -71.5zM175 599l14 62h279l-14 -62h-279z" />
    <glyph glyph-name="Abreve" unicode="&#x102;" horiz-adv-x="611" 
d="M-27 0l376 670h99l92 -670h-91l-19 160h-277l-87 -160h-93zM190 230h232l-41 352zM422 738q-66 0 -105 33.5t-39 86.5v9.5t1 11.5h63q0 -39 23 -58.5t63 -19.5q45 0 73.5 22t39.5 56h63q-13 -62 -62 -101.5t-120 -39.5z" />
    <glyph glyph-name="abreve" unicode="&#x103;" horiz-adv-x="500" 
d="M143 -13q-63 0 -99.5 34.5t-36.5 90.5q0 92 89.5 141.5t268.5 51.5l2 11q6 27 6 48q0 40 -24.5 63.5t-69.5 23.5q-49 0 -81 -26.5t-49 -69.5h-86q23 72 79.5 114t142.5 42q83 0 126.5 -40t43.5 -114q0 -17 -1.5 -34t-5.5 -35l-62 -288h-78l9 67q-32 -38 -76.5 -59
t-97.5 -21zM95 125q0 -36 21.5 -57t58.5 -21t71.5 19t60 52t34.5 76l12 58q-76 -1 -134 -14.5t-91 -41t-33 -71.5zM315 572q-62 0 -94.5 34t-32.5 83v12.5t2 13.5h59q-1 -2 -1 -5v-5q0 -36 19.5 -55.5t54.5 -19.5q40 0 66 23.5t38 61.5h59q-15 -62 -59 -102.5t-111 -40.5z
" />
    <glyph glyph-name="Aogonek" unicode="&#x104;" horiz-adv-x="611" 
d="M-27 0l376 670h99l92 -670h-91l-19 160h-277l-87 -160h-93zM190 230h232l-41 352zM431 -242q-56 0 -84 23.5t-28 65.5q0 40 21.5 70.5t54.5 52.5t66 35l77 -5q-34 -10 -68 -28.5t-56.5 -45t-22.5 -59.5q0 -49 62 -49q13 0 26.5 3t25.5 7l-13 -60q-29 -10 -61 -10z" />
    <glyph glyph-name="aogonek" unicode="&#x105;" horiz-adv-x="500" 
d="M143 -13q-63 0 -99.5 34.5t-36.5 90.5q0 92 89.5 141.5t268.5 51.5l2 11q6 27 6 48q0 40 -24.5 63.5t-69.5 23.5q-49 0 -81 -26.5t-49 -69.5h-86q23 72 79.5 114t142.5 42q83 0 126.5 -40t43.5 -114q0 -17 -1.5 -34t-5.5 -35l-62 -288h-78l9 67q-32 -38 -76.5 -59
t-97.5 -21zM95 125q0 -36 21.5 -57t58.5 -21t71.5 19t60 52t34.5 76l12 58q-76 -1 -134 -14.5t-91 -41t-33 -71.5zM280 -238q-48 0 -75 24t-27 64q0 36 19.5 67t49.5 54t62 35l77 -6q-34 -8 -66.5 -26.5t-54 -46t-21.5 -59.5q0 -24 15 -38t44 -14q12 0 24 2.5t22 6.5
l-11 -53q-27 -10 -58 -10z" />
    <glyph glyph-name="Cacute" unicode="&#x106;" horiz-adv-x="660" 
d="M312 -16q-125 0 -190.5 72t-65.5 203q0 84 26 160.5t74 136.5t115 95t148 35q67 0 122 -26.5t88.5 -80t34.5 -135.5h-98q-2 76 -41 123.5t-113 47.5q-60 0 -108 -31t-81.5 -82.5t-51.5 -115t-18 -128.5q0 -100 42.5 -151.5t124.5 -51.5q74 0 124 41.5t81 123.5h97
q-40 -118 -120 -177t-190 -59zM346 773l219 123l34 -77l-231 -95z" />
    <glyph glyph-name="cacute" unicode="&#x107;" horiz-adv-x="518" 
d="M233 -13q-94 0 -147 54.5t-53 155.5q0 59 19 115t55 101t87.5 71.5t116.5 26.5q62 0 103 -24.5t61.5 -65t23.5 -89.5h-86q-2 47 -28 82t-79 35q-43 0 -76.5 -23t-57 -61t-36 -83t-12.5 -90q0 -68 29.5 -105.5t85.5 -37.5q50 0 87.5 31t56.5 95h86q-26 -93 -88.5 -140.5
t-147.5 -47.5zM261 606l172 143l42 -61l-186 -122z" />
    <glyph glyph-name="Cdotaccent" unicode="&#x10a;" horiz-adv-x="660" 
d="M312 -16q-125 0 -190.5 72t-65.5 203q0 84 26 160.5t74 136.5t115 95t148 35q67 0 122 -26.5t88.5 -80t34.5 -135.5h-98q-2 76 -41 123.5t-113 47.5q-60 0 -108 -31t-81.5 -82.5t-51.5 -115t-18 -128.5q0 -100 42.5 -151.5t124.5 -51.5q74 0 124 41.5t81 123.5h97
q-40 -118 -120 -177t-190 -59zM446 754q-23 0 -38 13.5t-15 36.5q0 27 19 46t47 19q23 0 38 -13.5t15 -36.5q0 -27 -18.5 -46t-47.5 -19z" />
    <glyph glyph-name="cdotaccent" unicode="&#x10b;" horiz-adv-x="518" 
d="M233 -13q-94 0 -147 54.5t-53 155.5q0 59 19 115t55 101t87.5 71.5t116.5 26.5q62 0 103 -24.5t61.5 -65t23.5 -89.5h-86q-2 47 -28 82t-79 35q-43 0 -76.5 -23t-57 -61t-36 -83t-12.5 -90q0 -68 29.5 -105.5t85.5 -37.5q50 0 87.5 31t56.5 95h86q-26 -93 -88.5 -140.5
t-147.5 -47.5zM341 584q-22 0 -36.5 13t-14.5 35q0 26 18.5 44.5t45.5 18.5q22 0 36.5 -13t14.5 -35q0 -25 -18.5 -44t-45.5 -19z" />
    <glyph glyph-name="Ccaron" unicode="&#x10c;" horiz-adv-x="660" 
d="M312 -16q-125 0 -190.5 72t-65.5 203q0 84 26 160.5t74 136.5t115 95t148 35q67 0 122 -26.5t88.5 -80t34.5 -135.5h-98q-2 76 -41 123.5t-113 47.5q-60 0 -108 -31t-81.5 -82.5t-51.5 -115t-18 -128.5q0 -100 42.5 -151.5t124.5 -51.5q74 0 124 41.5t81 123.5h97
q-40 -118 -120 -177t-190 -59zM416 733l-121 119l35 44l117 -91l156 91l28 -45l-167 -118h-48z" />
    <glyph glyph-name="ccaron" unicode="&#x10d;" horiz-adv-x="518" 
d="M233 -13q-94 0 -147 54.5t-53 155.5q0 59 19 115t55 101t87.5 71.5t116.5 26.5q62 0 103 -24.5t61.5 -65t23.5 -89.5h-86q-2 47 -28 82t-79 35q-43 0 -76.5 -23t-57 -61t-36 -83t-12.5 -90q0 -68 29.5 -105.5t85.5 -37.5q50 0 87.5 31t56.5 95h86q-26 -93 -88.5 -140.5
t-147.5 -47.5zM311 570l-106 145l37 39l99 -112l146 112l30 -39l-162 -145h-44z" />
    <glyph glyph-name="Dcaron" unicode="&#x10e;" horiz-adv-x="681" 
d="M34 0l143 670h198q145 0 216 -72.5t71 -197.5q0 -83 -29 -155.5t-84.5 -127.5t-135 -86t-180.5 -31h-199zM353 601h-99l-112 -532h99q101 0 173.5 43t110.5 117t38 166q0 102 -49.5 154t-160.5 52zM413 733l-121 119l35 44l117 -91l156 91l28 -45l-167 -118h-48z" />
    <glyph glyph-name="dcaron" unicode="&#x10f;" horiz-adv-x="609" 
d="M191 -13q-73 0 -115.5 51t-42.5 144q0 62 18.5 120.5t52.5 105.5t81 75t104 28q59 0 96.5 -26.5t50.5 -70.5l61 286h88l-149 -700h-78l10 83q-32 -46 -79 -71t-98 -25zM223 52q39 0 76 26t63.5 69t36.5 92l3 15q2 10 4 28t2 38q0 55 -26.5 91t-77.5 36q-41 0 -74 -24
t-56.5 -63t-36 -85t-12.5 -90q0 -62 25.5 -97.5t72.5 -35.5zM658 526h-38l37 174h70l-2 -9q-11 -51 -28.5 -92.5t-38.5 -72.5z" />
    <glyph glyph-name="Dcroat" unicode="&#x110;" horiz-adv-x="701" 
d="M54 0l65 305h-79l15 64h78l64 301h198q145 0 216 -72.5t71 -197.5q0 -83 -29 -155.5t-84.5 -127.5t-135 -86t-180.5 -31h-199zM395 305h-183l-50 -236h99q101 0 173.5 43t110.5 117t38 166q0 102 -49.5 154t-160.5 52h-99l-49 -232h185z" />
    <glyph glyph-name="dcroat" unicode="&#x111;" horiz-adv-x="567" 
d="M191 -13q-73 0 -115.5 48.5t-42.5 136.5q0 60 18.5 116.5t52.5 102.5t81 73t104 27q58 0 94.5 -24t50.5 -63l34 162h-158l11 53h159l17 81h88l-17 -81h72l-11 -53h-73l-120 -566h-78l10 83q-32 -46 -79 -71t-98 -25zM223 52q39 0 76 24.5t63.5 65t36.5 87.5l3 15
q2 10 4 28t2 38q0 50 -26.5 83.5t-77.5 33.5q-41 0 -74 -23t-56.5 -60.5t-36 -82t-12.5 -86.5q0 -58 25.5 -90.5t72.5 -32.5z" />
    <glyph glyph-name="Emacron" unicode="&#x112;" horiz-adv-x="541" 
d="M34 0l143 670h401l-16 -71h-307l-49 -228h280l-14 -68h-280l-50 -232h313l-15 -71h-406zM240 765l16 68h318l-16 -68h-318z" />
    <glyph glyph-name="emacron" unicode="&#x113;" horiz-adv-x="527" 
d="M236 -13q-97 0 -150 55.5t-53 154.5q0 57 18.5 113t54 101.5t87.5 72.5t118 27q65 0 106 -26.5t61 -72t20 -101.5q0 -19 -2.5 -41.5t-7.5 -43.5h-366q-2 -17 -2 -33q0 -73 31.5 -109.5t90.5 -36.5q52 0 87 28t53 79h86q-29 -85 -89.5 -126t-142.5 -41zM304 451
q-43 0 -77.5 -23t-58 -61t-35.5 -83h280q2 17 2 32q0 58 -27 96.5t-84 38.5zM197 599l14 62h279l-14 -62h-279z" />
    <glyph glyph-name="Edotaccent" unicode="&#x116;" horiz-adv-x="541" 
d="M34 0l143 670h401l-16 -71h-307l-49 -228h280l-14 -68h-280l-50 -232h313l-15 -71h-406zM404 754q-23 0 -38 13.5t-15 36.5q0 27 19 46t47 19q23 0 38 -13.5t15 -36.5q0 -27 -18.5 -46t-47.5 -19z" />
    <glyph glyph-name="edotaccent" unicode="&#x117;" horiz-adv-x="527" 
d="M236 -13q-97 0 -150 55.5t-53 154.5q0 57 18.5 113t54 101.5t87.5 72.5t118 27q65 0 106 -26.5t61 -72t20 -101.5q0 -19 -2.5 -41.5t-7.5 -43.5h-366q-2 -17 -2 -33q0 -73 31.5 -109.5t90.5 -36.5q52 0 87 28t53 79h86q-29 -85 -89.5 -126t-142.5 -41zM304 451
q-43 0 -77.5 -23t-58 -61t-35.5 -83h280q2 17 2 32q0 58 -27 96.5t-84 38.5zM339 584q-22 0 -36.5 13t-14.5 35q0 26 18.5 44.5t45.5 18.5q22 0 36.5 -13t14.5 -35q0 -25 -18.5 -44t-45.5 -19z" />
    <glyph glyph-name="Eogonek" unicode="&#x118;" horiz-adv-x="541" 
d="M34 0l143 670h401l-16 -71h-307l-49 -228h280l-14 -68h-280l-50 -232h313l-15 -71h-406zM333 -242q-56 0 -84 23.5t-28 65.5q0 40 21.5 70.5t54.5 52.5t66 35l77 -5q-34 -10 -68 -28.5t-56.5 -45t-22.5 -59.5q0 -49 62 -49q13 0 26.5 3t25.5 7l-13 -60q-29 -10 -61 -10z
" />
    <glyph glyph-name="eogonek" unicode="&#x119;" horiz-adv-x="527" 
d="M236 -13q-97 0 -150 55.5t-53 154.5q0 57 18.5 113t54 101.5t87.5 72.5t118 27q65 0 106 -26.5t61 -72t20 -101.5q0 -19 -2.5 -41.5t-7.5 -43.5h-366q-2 -17 -2 -33q0 -73 31.5 -109.5t90.5 -36.5q52 0 87 28t53 79h86q-29 -85 -89.5 -126t-142.5 -41zM304 451
q-43 0 -77.5 -23t-58 -61t-35.5 -83h280q2 17 2 32q0 58 -27 96.5t-84 38.5zM273 -238q-49 0 -75.5 23.5t-26.5 64.5q0 38 20 70.5t51 56t64 36.5l70 14q-30 -15 -62 -38t-54.5 -53t-22.5 -68q0 -27 15.5 -39.5t43.5 -12.5q12 0 23.5 2.5t22.5 6.5l-11 -52q-28 -11 -58 -11z
" />
    <glyph glyph-name="Ecaron" unicode="&#x11a;" horiz-adv-x="541" 
d="M34 0l143 670h401l-16 -71h-307l-49 -228h280l-14 -68h-280l-50 -232h313l-15 -71h-406zM374 733l-121 119l35 44l117 -91l156 91l28 -45l-167 -118h-48z" />
    <glyph glyph-name="ecaron" unicode="&#x11b;" horiz-adv-x="527" 
d="M236 -13q-97 0 -150 55.5t-53 154.5q0 57 18.5 113t54 101.5t87.5 72.5t118 27q65 0 106 -26.5t61 -72t20 -101.5q0 -19 -2.5 -41.5t-7.5 -43.5h-366q-2 -17 -2 -33q0 -73 31.5 -109.5t90.5 -36.5q52 0 87 28t53 79h86q-29 -85 -89.5 -126t-142.5 -41zM304 451
q-43 0 -77.5 -23t-58 -61t-35.5 -83h280q2 17 2 32q0 58 -27 96.5t-84 38.5zM309 570l-106 145l37 39l99 -112l146 112l30 -39l-162 -145h-44z" />
    <glyph glyph-name="Gbreve" unicode="&#x11e;" horiz-adv-x="690" 
d="M325 -16q-130 0 -199.5 72.5t-69.5 208.5q0 85 26.5 161t75.5 134.5t116.5 92t149.5 33.5q68 0 125 -26.5t91.5 -78t36.5 -128.5h-98q-2 68 -42.5 115t-118.5 47q-62 0 -111 -30.5t-83.5 -81t-52.5 -113t-18 -127.5q0 -103 46.5 -155.5t135.5 -52.5q92 0 149.5 55
t78.5 156h-176l15 69h264l-5 -32q-17 -97 -58.5 -168.5t-110.5 -111t-167 -39.5zM453 738q-66 0 -105 33.5t-39 86.5v9.5t1 11.5h63q0 -39 23 -58.5t63 -19.5q45 0 73.5 22t39.5 56h63q-13 -62 -62 -101.5t-120 -39.5z" />
    <glyph glyph-name="gbreve" unicode="&#x11f;" horiz-adv-x="556" 
d="M190 0q-73 0 -115.5 50t-42.5 139q0 60 18.5 117.5t52.5 103.5t81 73.5t104 27.5q61 0 96.5 -28t50.5 -73l23 88h77l-104 -491q-24 -113 -82 -171.5t-161 -58.5q-91 0 -137.5 45t-50.5 126h85q0 -44 23 -77t83 -33q63 0 100 41t53 115l22 102q-32 -45 -78 -70.5
t-98 -25.5zM222 65q40 0 76.5 26t63 67t36.5 87l3 15q2 10 4 28t2 38q0 50 -26.5 85.5t-77.5 35.5q-41 0 -74 -23t-56.5 -60.5t-36 -82.5t-12.5 -89q0 -58 25.5 -92.5t72.5 -34.5zM337 577q-62 0 -94.5 34t-32.5 83v12.5t2 13.5h59q-1 -2 -1 -5v-5q0 -36 19.5 -55.5
t54.5 -19.5q40 0 66 23.5t38 61.5h59q-15 -62 -59 -102.5t-111 -40.5z" />
    <glyph glyph-name="Gdotaccent" unicode="&#x120;" horiz-adv-x="690" 
d="M325 -16q-130 0 -199.5 72.5t-69.5 208.5q0 85 26.5 161t75.5 134.5t116.5 92t149.5 33.5q68 0 125 -26.5t91.5 -78t36.5 -128.5h-98q-2 68 -42.5 115t-118.5 47q-62 0 -111 -30.5t-83.5 -81t-52.5 -113t-18 -127.5q0 -103 46.5 -155.5t135.5 -52.5q92 0 149.5 55
t78.5 156h-176l15 69h264l-5 -32q-17 -97 -58.5 -168.5t-110.5 -111t-167 -39.5zM453 754q-23 0 -38 13.5t-15 36.5q0 27 19 46t47 19q23 0 38 -13.5t15 -36.5q0 -27 -18.5 -46t-47.5 -19z" />
    <glyph glyph-name="gdotaccent" unicode="&#x121;" horiz-adv-x="556" 
d="M190 0q-73 0 -115.5 50t-42.5 139q0 60 18.5 117.5t52.5 103.5t81 73.5t104 27.5q61 0 96.5 -28t50.5 -73l23 88h77l-104 -491q-24 -113 -82 -171.5t-161 -58.5q-91 0 -137.5 45t-50.5 126h85q0 -44 23 -77t83 -33q63 0 100 41t53 115l22 102q-32 -45 -78 -70.5
t-98 -25.5zM222 65q40 0 76.5 26t63 67t36.5 87l3 15q2 10 4 28t2 38q0 50 -26.5 85.5t-77.5 35.5q-41 0 -74 -23t-56.5 -60.5t-36 -82.5t-12.5 -89q0 -58 25.5 -92.5t72.5 -34.5zM339 589q-22 0 -36.5 13t-14.5 35q0 26 18.5 44.5t45.5 18.5q22 0 36.5 -13t14.5 -35
q0 -25 -18.5 -44t-45.5 -19z" />
    <glyph glyph-name="uni0122" unicode="&#x122;" horiz-adv-x="690" 
d="M325 -16q-130 0 -199.5 72.5t-69.5 208.5q0 85 26.5 161t75.5 134.5t116.5 92t149.5 33.5q68 0 125 -26.5t91.5 -78t36.5 -128.5h-98q-2 68 -42.5 115t-118.5 47q-62 0 -111 -30.5t-83.5 -81t-52.5 -113t-18 -127.5q0 -103 46.5 -155.5t135.5 -52.5q92 0 149.5 55
t78.5 156h-176l15 69h264l-5 -32q-17 -97 -58.5 -168.5t-110.5 -111t-167 -39.5zM205 -309l9 43q27 10 45.5 26t29.5 44q-24 1 -35 13.5t-11 32.5q0 26 17 43.5t44 17.5q52 0 52 -62q0 -35 -19.5 -68t-53.5 -57.5t-78 -32.5z" />
    <glyph glyph-name="uni0123" unicode="&#x123;" horiz-adv-x="556" 
d="M190 0q-73 0 -115.5 50t-42.5 139q0 60 18.5 117.5t52.5 103.5t81 73.5t104 27.5q61 0 96.5 -28t50.5 -73l23 88h77l-104 -491q-24 -113 -82 -171.5t-161 -58.5q-91 0 -137.5 45t-50.5 126h85q0 -44 23 -77t83 -33q63 0 100 41t53 115l22 102q-32 -45 -78 -70.5
t-98 -25.5zM222 65q40 0 76.5 26t63 67t36.5 87l3 15q2 10 4 28t2 38q0 50 -26.5 85.5t-77.5 35.5q-41 0 -74 -23t-56.5 -60.5t-36 -82.5t-12.5 -89q0 -58 25.5 -92.5t72.5 -34.5zM429 795l-8 -39q-55 -19 -76 -69q24 0 35.5 -12.5t11.5 -31.5q0 -25 -17 -42.5t-42 -17.5
q-49 0 -49 58q0 36 19.5 68.5t52.5 55.5t73 30z" />
    <glyph glyph-name="Hbar" unicode="&#x126;" horiz-adv-x="717" 
d="M54 0l104 489h-80l14 61h79l26 120h93l-26 -120h318l26 120h93l-26 -120h82l-13 -61h-82l-104 -489h-93l63 296h-318l-63 -296h-93zM225 367h318l26 122h-318z" />
    <glyph glyph-name="hbar" unicode="&#x127;" horiz-adv-x="562" 
d="M28 0l120 566h-68l10 53h70l17 81h88l-17 -81h160l-11 -53h-161l-34 -159q64 84 166 84q74 0 111 -42.5t37 -106.5q0 -16 -2 -33t-6 -37l-58 -272h-88l58 271q7 31 7 59q0 44 -22.5 69.5t-68.5 25.5q-60 0 -105 -48t-62 -130l-53 -247h-88z" />
    <glyph glyph-name="Itilde" unicode="&#x128;" horiz-adv-x="266" 
d="M34 0l143 670h93l-143 -670h-93zM233 786q-11 13 -21.5 20.5t-23.5 7.5q-16 0 -32 -14t-28 -55h-61q13 59 46.5 96t79.5 37q29 0 46.5 -12.5t34.5 -31.5q11 -13 21 -20.5t24 -7.5q16 0 32 14t28 55h61q-13 -59 -46.5 -96t-79.5 -37q-29 0 -47 12.5t-34 31.5z" />
    <glyph glyph-name="itilde" unicode="&#x129;" horiz-adv-x="242" 
d="M22 0l107 498h90l-107 -498h-90zM223 669q11 -14 18.5 -21t16.5 -7q13 0 26 14.5t22 52.5h53q-11 -57 -39.5 -91.5t-64.5 -34.5q-22 0 -37.5 12t-30.5 31q-11 14 -18.5 21t-16.5 7q-13 0 -26 -14.5t-22 -52.5h-53q11 57 39.5 91.5t64.5 34.5q22 0 37.5 -12t30.5 -31z" />
    <glyph glyph-name="Imacron" unicode="&#x12a;" horiz-adv-x="266" 
d="M34 0l143 670h93l-143 -670h-93zM84 765l16 68h318l-16 -68h-318z" />
    <glyph glyph-name="imacron" unicode="&#x12b;" horiz-adv-x="242" 
d="M22 0l107 498h90l-107 -498h-90zM70 600l14 62h249l-14 -62h-249z" />
    <glyph glyph-name="Iogonek" unicode="&#x12e;" horiz-adv-x="266" 
d="M34 0l143 670h93l-143 -670h-93zM20 -242q-56 0 -84 23.5t-28 65.5q0 40 21.5 70.5t54.5 52.5t66 35l77 -5q-34 -10 -68 -28.5t-56.5 -45t-22.5 -59.5q0 -49 62 -49q13 0 26.5 3t25.5 7l-13 -60q-29 -10 -61 -10z" />
    <glyph glyph-name="iogonek" unicode="&#x12f;" horiz-adv-x="236" 
d="M195 584q-22 0 -36.5 13t-14.5 35q0 26 18.5 44.5t45.5 18.5q22 0 36.5 -13t14.5 -35q0 -25 -18.5 -44t-45.5 -19zM22 0l106 498h88l-106 -498h-88zM4 -238q-48 0 -75 24t-27 64q0 36 19.5 67t49.5 54t62 35l77 -6q-34 -8 -66.5 -26.5t-54 -46t-21.5 -59.5q0 -24 15 -38
t44 -14q12 0 24 2.5t22 6.5l-11 -53q-27 -10 -58 -10z" />
    <glyph glyph-name="Idotaccent" unicode="&#x130;" horiz-adv-x="266" 
d="M34 0l143 670h93l-143 -670h-93zM248 754q-23 0 -38 13.5t-15 36.5q0 27 19 46t47 19q23 0 38 -13.5t15 -36.5q0 -27 -18.5 -46t-47.5 -19z" />
    <glyph glyph-name="dotlessi" unicode="&#x131;" horiz-adv-x="242" 
d="M22 0l107 498h90l-107 -498h-90z" />
    <glyph glyph-name="IJ" unicode="&#x132;" horiz-adv-x="614" 
d="M269 -16q-101 0 -154.5 49.5t-53.5 144.5q0 6 0.5 17.5t1.5 16.5h91q-1 -8 -1 -14.5v-13.5q0 -129 121 -129q75 0 120.5 52.5t66.5 152.5l87 410h93l-90 -422q-26 -124 -93.5 -194t-188.5 -70zM176 309h-92l77 361h93z" />
    <glyph glyph-name="ij" unicode="&#x133;" horiz-adv-x="547" 
d="M221 66q61 0 103 48t60 130l56 254h88l-107 -488q-25 -111 -83 -172t-159 -61q-88 0 -133.5 45.5t-50.5 127.5h85q0 -47 23 -80.5t79 -33.5q58 0 96 41t54 118l19 89q-62 -84 -161 -84q-75 0 -110 41t-35 102q0 11 1.5 28t6.5 38l63 289h88l-63 -288q-4 -16 -5.5 -31
t-1.5 -25q0 -39 21 -63.5t66 -24.5zM182 584q-22 0 -36.5 13t-14.5 35q0 26 18.5 44.5t45.5 18.5q22 0 36.5 -13t14.5 -35q0 -25 -18.5 -44t-45.5 -19zM508 584q-22 0 -36.5 13t-14.5 35q0 26 18.5 44.5t45.5 18.5q22 0 36.5 -13t14.5 -35q0 -25 -18.5 -44t-45.5 -19z" />
    <glyph glyph-name="uni0136" unicode="&#x136;" horiz-adv-x="604" 
d="M34 0l142 670h93l-64 -304l344 304h118l-381 -328q68 -26 118.5 -77.5t82.5 -119.5t46 -145h-101q-12 74 -45 139t-82.5 109.5t-112.5 57.5l-65 -306h-93zM156 -309l9 43q27 10 45.5 26t29.5 44q-24 1 -35 13.5t-11 32.5q0 26 17 43.5t44 17.5q52 0 52 -62
q0 -35 -19.5 -68t-53.5 -57.5t-78 -32.5z" />
    <glyph glyph-name="uni0137" unicode="&#x137;" horiz-adv-x="496" 
d="M21 0l150 700h88l-88 -412l244 210h107l-279 -236q76 -31 123.5 -101.5t64.5 -160.5h-92q-16 87 -60.5 148.5t-119.5 85.5l-50 -234h-88zM107 -301l8 39q55 19 76 69q-24 0 -35.5 12.5t-11.5 31.5q0 25 17 42.5t42 17.5q49 0 49 -58q0 -36 -19.5 -68.5t-52.5 -55.5
t-73 -30z" />
    <glyph glyph-name="Lacute" unicode="&#x139;" horiz-adv-x="511" 
d="M34 0l143 670h93l-128 -599h303l-16 -71h-395zM149 773l219 123l34 -77l-231 -95z" />
    <glyph glyph-name="lacute" unicode="&#x13a;" horiz-adv-x="236" 
d="M22 0l149 700h88l-149 -700h-88zM151 802l194 115l33 -69l-203 -93z" />
    <glyph glyph-name="uni013B" unicode="&#x13b;" horiz-adv-x="511" 
d="M34 0l143 670h93l-128 -599h303l-16 -71h-395zM121 -309l9 43q27 10 45.5 26t29.5 44q-24 1 -35 13.5t-11 32.5q0 26 17 43.5t44 17.5q52 0 52 -62q0 -35 -19.5 -68t-53.5 -57.5t-78 -32.5z" />
    <glyph glyph-name="uni013C" unicode="&#x13c;" horiz-adv-x="236" 
d="M22 0l149 700h88l-149 -700h-88zM-50 -301l8 39q55 19 76 69q-24 0 -35.5 12.5t-11.5 31.5q0 25 17 42.5t42 17.5q49 0 49 -58q0 -36 -19.5 -68.5t-52.5 -55.5t-73 -30z" />
    <glyph glyph-name="Lcaron" unicode="&#x13d;" horiz-adv-x="511" 
d="M34 0l143 670h93l-128 -599h303l-16 -71h-395zM410 486h-41l39 184h75l-2 -11q-11 -49 -31 -96t-40 -77z" />
    <glyph glyph-name="lcaron" unicode="&#x13e;" horiz-adv-x="283" 
d="M22 0l149 700h88l-149 -700h-88zM332 526h-38l37 174h70l-2 -9q-11 -51 -28.5 -92.5t-38.5 -72.5z" />
    <glyph glyph-name="Lslash" unicode="&#x141;" horiz-adv-x="511" 
d="M34 0l54 255l-92 -47l16 76l93 47l72 339h93l-61 -287l185 94l-17 -76l-184 -93l-51 -237h303l-16 -71h-395z" />
    <glyph glyph-name="lslash" unicode="&#x142;" horiz-adv-x="277" 
d="M47 0l69 324l-95 -50l13 64l96 50l66 312h88l-57 -267l97 51l-13 -64l-97 -51l-79 -369h-88z" />
    <glyph glyph-name="Nacute" unicode="&#x143;" horiz-adv-x="689" 
d="M34 0l142 670h89l225 -534l113 534h90l-142 -670h-89l-225 532l-113 -532h-90zM358 773l219 123l34 -77l-231 -95z" />
    <glyph glyph-name="nacute" unicode="&#x144;" horiz-adv-x="559" 
d="M21 0l106 498h78l-14 -79q32 45 77.5 68.5t96.5 23.5q73 0 110.5 -42.5t37.5 -106.5q0 -16 -1.5 -33t-6.5 -37l-62 -292h-88l62 291q7 31 7 59q0 44 -22.5 69.5t-68.5 25.5q-60 0 -105 -48t-62 -130l-57 -267h-88zM280 606l172 143l42 -61l-186 -122z" />
    <glyph glyph-name="uni0145" unicode="&#x145;" horiz-adv-x="689" 
d="M34 0l142 670h89l225 -534l113 534h90l-142 -670h-89l-225 532l-113 -532h-90zM173 -309l9 43q27 10 45.5 26t29.5 44q-24 1 -35 13.5t-11 32.5q0 26 17 43.5t44 17.5q52 0 52 -62q0 -35 -19.5 -68t-53.5 -57.5t-78 -32.5z" />
    <glyph glyph-name="uni0146" unicode="&#x146;" horiz-adv-x="559" 
d="M21 0l106 498h78l-14 -79q32 45 77.5 68.5t96.5 23.5q73 0 110.5 -42.5t37.5 -106.5q0 -16 -1.5 -33t-6.5 -37l-62 -292h-88l62 291q7 31 7 59q0 44 -22.5 69.5t-68.5 25.5q-60 0 -105 -48t-62 -130l-57 -267h-88zM118 -301l8 39q55 19 76 69q-24 0 -35.5 12.5
t-11.5 31.5q0 25 17 42.5t42 17.5q49 0 49 -58q0 -36 -19.5 -68.5t-52.5 -55.5t-73 -30z" />
    <glyph glyph-name="Ncaron" unicode="&#x147;" horiz-adv-x="689" 
d="M34 0l142 670h89l225 -534l113 534h90l-142 -670h-89l-225 532l-113 -532h-90zM428 733l-121 119l35 44l117 -91l156 91l28 -45l-167 -118h-48z" />
    <glyph glyph-name="ncaron" unicode="&#x148;" horiz-adv-x="559" 
d="M21 0l106 498h78l-14 -79q32 45 77.5 68.5t96.5 23.5q73 0 110.5 -42.5t37.5 -106.5q0 -16 -1.5 -33t-6.5 -37l-62 -292h-88l62 291q7 31 7 59q0 44 -22.5 69.5t-68.5 25.5q-60 0 -105 -48t-62 -130l-57 -267h-88zM330 570l-106 145l37 39l99 -112l146 112l30 -39
l-162 -145h-44z" />
    <glyph glyph-name="Eng" unicode="&#x14a;" horiz-adv-x="689" 
d="M322 -149q56 0 89.5 36.5t48.5 106.5l1 7l-224 531l-113 -532h-90l142 670h89l225 -533l113 533h90l-138 -651q-26 -123 -80 -182.5t-153 -59.5q-29 0 -57 5.5t-47 15.5l24 68q16 -6 38 -10.5t42 -4.5z" />
    <glyph glyph-name="eng" unicode="&#x14b;" horiz-adv-x="559" 
d="M234 -154q40 0 70 27t43 90l70 328q7 31 7 59q0 44 -22.5 69.5t-68.5 25.5q-60 0 -105 -48t-62 -130l-57 -267h-88l106 498h78l-15 -85q32 49 77 73.5t98 24.5q73 0 110.5 -42.5t37.5 -106.5q0 -16 -1.5 -33t-6.5 -37l-70 -329q-20 -94 -68 -139t-127 -45q-48 0 -73 14
l19 60q12 -4 24.5 -5.5t23.5 -1.5z" />
    <glyph glyph-name="Ohungarumlaut" unicode="&#x150;" horiz-adv-x="704" 
d="M319 -16q-127 0 -195 77t-68 211q0 82 25.5 156.5t73.5 132.5t115.5 91.5t152.5 33.5q127 0 195 -77t68 -211q0 -82 -25.5 -156.5t-73.5 -132.5t-115.5 -91.5t-152.5 -33.5zM324 55q64 0 113.5 31t83.5 83t51 113.5t17 123.5q0 99 -45.5 154t-125.5 55q-64 0 -113.5 -31
t-83.5 -83t-51 -113.5t-17 -123.5q0 -99 45.5 -154t125.5 -55zM303 768l185 149l43 -60l-199 -130zM479 771l199 127l36 -66l-211 -105z" />
    <glyph glyph-name="ohungarumlaut" unicode="&#x151;" horiz-adv-x="546" 
d="M236 -13q-94 0 -148.5 57.5t-54.5 155.5q0 56 18.5 111t54.5 100.5t87 72.5t117 27q94 0 148.5 -57.5t54.5 -155.5q0 -56 -18.5 -111t-54.5 -100.5t-87 -72.5t-117 -27zM240 49q43 0 77 23t57.5 60.5t35.5 82.5t12 90q0 69 -30.5 106.5t-85.5 37.5q-43 0 -77 -23
t-57.5 -60.5t-35.5 -82.5t-12 -90q0 -69 30.5 -106.5t85.5 -37.5zM194 594l160 161l45 -48l-175 -146zM355 603l178 141l38 -56l-190 -122z" />
    <glyph glyph-name="OE" unicode="&#x152;" horiz-adv-x="890" 
d="M789 0h-488q-142 0 -210 72t-68 195q0 84 29.5 157t85 128t134 86.5t176.5 31.5h479l-16 -71h-307l-49 -228h280l-14 -68h-280l-50 -232h313zM323 72h76l113 526h-73q-98 0 -169 -43.5t-109.5 -118t-38.5 -165.5q0 -97 47 -148t154 -51z" />
    <glyph glyph-name="oe" unicode="&#x153;" horiz-adv-x="901" 
d="M235 -13q-94 0 -148 57.5t-54 155.5q0 56 18.5 111t54.5 100.5t87 72.5t117 27q63 0 107 -30t64 -84q32 51 85 82.5t121 31.5q63 0 104 -26.5t61 -71.5t20 -101q0 -20 -2.5 -42t-7.5 -44h-366q-1 -10 -1.5 -19.5t-0.5 -15.5q0 -72 32 -108t90 -36q52 0 87 28t53 79h86
q-28 -82 -88 -124.5t-142 -42.5q-67 0 -112 29.5t-63 86.5q-32 -52 -83 -84t-119 -32zM679 451q-43 0 -77.5 -23t-58.5 -60.5t-36 -83.5h280q2 16 2 31q0 61 -28 98.5t-82 37.5zM240 49q44 0 78 23.5t57 62t35 83.5t12 88q0 70 -32 106.5t-84 36.5q-43 0 -77 -23
t-57.5 -60.5t-35.5 -82.5t-12 -90q0 -69 30.5 -106.5t85.5 -37.5z" />
    <glyph glyph-name="Racute" unicode="&#x154;" horiz-adv-x="604" 
d="M34 0l143 670h206q115 0 166 -45.5t51 -119.5q0 -83 -60 -139t-177 -66q69 -27 110 -101t55 -199h-98q-16 155 -69.5 220.5t-151.5 65.5h-21l-61 -286h-93zM363 605h-108l-54 -257h110q95 0 144.5 41.5t49.5 106.5q0 52 -34 80.5t-108 28.5zM306 773l219 123l34 -77
l-231 -95z" />
    <glyph glyph-name="racute" unicode="&#x155;" horiz-adv-x="343" 
d="M21 0l106 498h78l-19 -107q25 46 66 81t96 35q17 0 30 -4l-18 -83q-15 4 -30 4q-61 0 -107.5 -54t-66.5 -144l-48 -226h-87zM186 606l172 143l42 -61l-186 -122z" />
    <glyph glyph-name="Rcaron" unicode="&#x158;" horiz-adv-x="604" 
d="M34 0l143 670h206q115 0 166 -45.5t51 -119.5q0 -83 -60 -139t-177 -66q69 -27 110 -101t55 -199h-98q-16 155 -69.5 220.5t-151.5 65.5h-21l-61 -286h-93zM363 605h-108l-54 -257h110q95 0 144.5 41.5t49.5 106.5q0 52 -34 80.5t-108 28.5zM376 733l-121 119l35 44
l117 -91l156 91l28 -45l-167 -118h-48z" />
    <glyph glyph-name="rcaron" unicode="&#x159;" horiz-adv-x="343" 
d="M21 0l106 498h78l-19 -107q25 46 66 81t96 35q17 0 30 -4l-18 -83q-15 4 -30 4q-61 0 -107.5 -54t-66.5 -144l-48 -226h-87zM236 570l-106 145l37 39l99 -112l146 112l30 -39l-162 -145h-44z" />
    <glyph glyph-name="Sacute" unicode="&#x15a;" horiz-adv-x="574" 
d="M20 186h92q-1 -4 -1 -8v-7q0 -44 20.5 -70.5t54 -38t72.5 -11.5q80 0 124 39t44 95q0 43 -28 68t-78 41l-79 25q-35 11 -65.5 30t-49.5 51t-19 81q0 55 30 102t86.5 75t135.5 28q97 0 155.5 -48.5t58.5 -135.5v-7t-1 -8h-92q1 6 1.5 11.5t0.5 10.5q0 44 -32 77t-99 33
q-71 0 -111.5 -37t-40.5 -88q0 -44 25.5 -65.5t66.5 -34.5l83 -26q41 -13 74 -34t52 -54.5t19 -84.5q0 -59 -32 -107t-91.5 -76t-144.5 -28q-103 0 -167.5 46t-64.5 135v10.5t1 10.5zM289 773l219 123l34 -77l-231 -95z" />
    <glyph glyph-name="sacute" unicode="&#x15b;" horiz-adv-x="471" 
d="M12 148h88q3 -45 32 -74t89 -29q53 0 80 25t27 60q0 32 -19 51t-62 34l-60 21q-52 18 -81.5 47t-29.5 80q0 36 22.5 70t65 56t104.5 22q67 0 106.5 -23t58.5 -57.5t22 -68.5h-88q-3 22 -12 42.5t-30.5 34.5t-59.5 14q-47 0 -74 -24.5t-27 -57.5q0 -27 17 -43t53 -29
l64 -24q30 -11 56.5 -27t43 -43t16.5 -69q0 -40 -22.5 -74t-66 -54.5t-107.5 -20.5q-73 0 -117.5 23t-65.5 59.5t-23 78.5zM223 606l172 143l42 -61l-186 -122z" />
    <glyph glyph-name="Scedilla" unicode="&#x15e;" horiz-adv-x="574" 
d="M20 186h92q-1 -4 -1 -8v-7q0 -44 20.5 -70.5t54 -38t72.5 -11.5q80 0 124 39t44 95q0 43 -28 68t-78 41l-79 25q-35 11 -65.5 30t-49.5 51t-19 81q0 55 30 102t86.5 75t135.5 28q97 0 155.5 -48.5t58.5 -135.5v-7t-1 -8h-92q1 6 1.5 11.5t0.5 10.5q0 44 -32 77t-99 33
q-71 0 -111.5 -37t-40.5 -88q0 -44 25.5 -65.5t66.5 -34.5l83 -26q41 -13 74 -34t52 -54.5t19 -84.5q0 -59 -32 -107t-91.5 -76t-144.5 -28q-103 0 -167.5 46t-64.5 135v10.5t1 10.5zM212 0h48l-22 -59q7 1 15 1q41 0 65 -23.5t24 -63.5q0 -47 -34 -76t-98 -29
q-15 0 -34.5 2.5t-41.5 8.5l10 48q37 -10 65 -10q37 0 55 15t18 40q0 20 -12 32.5t-36 12.5q-19 0 -34 -9h-25z" />
    <glyph glyph-name="scedilla" unicode="&#x15f;" horiz-adv-x="471" 
d="M12 148h88q3 -45 32 -74t89 -29q53 0 80 25t27 60q0 32 -19 51t-62 34l-60 21q-52 18 -81.5 47t-29.5 80q0 36 22.5 70t65 56t104.5 22q67 0 106.5 -23t58.5 -57.5t22 -68.5h-88q-3 22 -12 42.5t-30.5 34.5t-59.5 14q-47 0 -74 -24.5t-27 -57.5q0 -27 17 -43t53 -29
l64 -24q30 -11 56.5 -27t43 -43t16.5 -69q0 -40 -22.5 -74t-66 -54.5t-107.5 -20.5q-73 0 -117.5 23t-65.5 59.5t-23 78.5zM157 0h44l-23 -61q8 2 17 2q35 0 58.5 -23.5t23.5 -62.5q0 -47 -33 -75t-91 -28q-16 0 -34 2.5t-38 8.5l10 45q16 -6 32 -8t27 -2q71 0 71 57
q0 20 -11.5 33.5t-34.5 13.5q-14 0 -30 -10h-24z" />
    <glyph glyph-name="Scaron" unicode="&#x160;" horiz-adv-x="574" 
d="M20 186h92q-1 -4 -1 -8v-7q0 -44 20.5 -70.5t54 -38t72.5 -11.5q80 0 124 39t44 95q0 43 -28 68t-78 41l-79 25q-35 11 -65.5 30t-49.5 51t-19 81q0 55 30 102t86.5 75t135.5 28q97 0 155.5 -48.5t58.5 -135.5v-7t-1 -8h-92q1 6 1.5 11.5t0.5 10.5q0 44 -32 77t-99 33
q-71 0 -111.5 -37t-40.5 -88q0 -44 25.5 -65.5t66.5 -34.5l83 -26q41 -13 74 -34t52 -54.5t19 -84.5q0 -59 -32 -107t-91.5 -76t-144.5 -28q-103 0 -167.5 46t-64.5 135v10.5t1 10.5zM359 733l-121 119l35 44l117 -91l156 91l28 -45l-167 -118h-48z" />
    <glyph glyph-name="scaron" unicode="&#x161;" horiz-adv-x="471" 
d="M12 148h88q3 -45 32 -74t89 -29q53 0 80 25t27 60q0 32 -19 51t-62 34l-60 21q-52 18 -81.5 47t-29.5 80q0 36 22.5 70t65 56t104.5 22q67 0 106.5 -23t58.5 -57.5t22 -68.5h-88q-3 22 -12 42.5t-30.5 34.5t-59.5 14q-47 0 -74 -24.5t-27 -57.5q0 -27 17 -43t53 -29
l64 -24q30 -11 56.5 -27t43 -43t16.5 -69q0 -40 -22.5 -74t-66 -54.5t-107.5 -20.5q-73 0 -117.5 23t-65.5 59.5t-23 78.5zM273 570l-106 145l37 39l99 -112l146 112l30 -39l-162 -145h-44z" />
    <glyph glyph-name="uni0162" unicode="&#x162;" horiz-adv-x="563" 
d="M179 0l127 599h-210l16 71h519l-16 -71h-216l-127 -599h-93zM192 0h48l-22 -59q7 1 15 1q41 0 65 -23.5t24 -63.5q0 -47 -34 -76t-98 -29q-15 0 -34.5 2.5t-41.5 8.5l10 48q37 -10 65 -10q37 0 55 15t18 40q0 20 -12 32.5t-36 12.5q-19 0 -34 -9h-25z" />
    <glyph glyph-name="uni0163" unicode="&#x163;" horiz-adv-x="355" 
d="M193 -13q-64 0 -99.5 31t-35.5 89q0 14 1.5 25.5t4.5 27.5l58 276h-65l13 62h66l31 148h88l-31 -148h140l-13 -62h-140l-59 -277q-2 -11 -3.5 -21.5t-1.5 -22.5q0 -30 19.5 -45t53.5 -15q13 0 25.5 2t25.5 6l9 -61q-23 -8 -43.5 -11.5t-43.5 -3.5zM119 0h44l-23 -61
q8 2 17 2q35 0 58.5 -23.5t23.5 -62.5q0 -47 -33 -75t-91 -28q-16 0 -34 2.5t-38 8.5l10 45q16 -6 32 -8t27 -2q71 0 71 57q0 20 -11.5 33.5t-34.5 13.5q-14 0 -30 -10h-24z" />
    <glyph glyph-name="Tcaron" unicode="&#x164;" horiz-adv-x="563" 
d="M179 0l127 599h-210l16 71h519l-16 -71h-216l-127 -599h-93zM361 733l-121 119l35 44l117 -91l156 91l28 -45l-167 -118h-48z" />
    <glyph glyph-name="tcaron" unicode="&#x165;" horiz-adv-x="355" 
d="M193 -13q-64 0 -99.5 31t-35.5 89q0 14 1.5 25.5t4.5 27.5l58 276h-65l13 62h66l31 148h88l-31 -148h140l-13 -62h-140l-59 -277q-2 -11 -3.5 -21.5t-1.5 -22.5q0 -30 19.5 -45t53.5 -15q13 0 25.5 2t25.5 6l9 -61q-23 -8 -43.5 -11.5t-43.5 -3.5zM332 553h-41l32 147h69
l-2 -10q-9 -43 -23.5 -75t-34.5 -62z" />
    <glyph glyph-name="Tbar" unicode="&#x166;" horiz-adv-x="563" 
d="M179 0l63 298h-144l15 65h143l50 236h-210l16 71h519l-16 -71h-216l-50 -236h146l-14 -65h-146l-63 -298h-93z" />
    <glyph glyph-name="tbar" unicode="&#x167;" horiz-adv-x="355" 
d="M193 -13q-64 0 -99.5 31t-35.5 89q0 14 1.5 25.5t4.5 27.5l16 76h-67l13 60h67l30 142h-66l13 60h66l31 148h88l-31 -148h140l-13 -60h-140l-30 -142h140l-13 -60h-140l-16 -77q-2 -11 -3.5 -21.5t-1.5 -22.5q0 -30 19.5 -45t53.5 -15q13 0 25.5 2t25.5 6l9 -61
q-23 -8 -43.5 -11.5t-43.5 -3.5z" />
    <glyph glyph-name="Utilde" unicode="&#x168;" horiz-adv-x="654" 
d="M282 -16q-109 0 -163 50.5t-54 143.5q0 40 11 93l85 399h93l-87 -409q-5 -19 -7.5 -40.5t-2.5 -38.5q0 -63 34.5 -95t99.5 -32q79 0 128 53.5t72 159.5l87 402h93l-87 -407q-28 -133 -101 -206t-201 -73zM425 786q-11 13 -21.5 20.5t-23.5 7.5q-16 0 -32 -14t-28 -55h-61
q13 59 46.5 96t79.5 37q29 0 46.5 -12.5t34.5 -31.5q11 -13 21 -20.5t24 -7.5q16 0 32 14t28 55h61q-13 -59 -46.5 -96t-79.5 -37q-29 0 -47 12.5t-34 31.5z" />
    <glyph glyph-name="utilde" unicode="&#x169;" horiz-adv-x="547" 
d="M527 498l-106 -498h-78l15 84q-63 -97 -170 -97q-70 0 -106.5 41.5t-36.5 104.5q0 18 1.5 35t6.5 38l62 292h88l-62 -291q-7 -32 -7 -63q0 -40 22 -65.5t63 -25.5q61 0 103.5 48t59.5 130l57 267h88zM333 625q-23 27 -41 27q-14 0 -27 -14t-24 -52h-56q12 58 42.5 92
t70.5 34q25 0 41.5 -11.5t32.5 -30.5q23 -27 41 -27q13 0 27 14.5t24 51.5h56q-12 -58 -42 -92t-71 -34q-25 0 -41 11.5t-33 30.5z" />
    <glyph glyph-name="Umacron" unicode="&#x16a;" horiz-adv-x="654" 
d="M282 -16q-109 0 -163 50.5t-54 143.5q0 40 11 93l85 399h93l-87 -409q-5 -19 -7.5 -40.5t-2.5 -38.5q0 -63 34.5 -95t99.5 -32q79 0 128 53.5t72 159.5l87 402h93l-87 -407q-28 -133 -101 -206t-201 -73zM276 765l16 68h318l-16 -68h-318z" />
    <glyph glyph-name="umacron" unicode="&#x16b;" horiz-adv-x="547" 
d="M527 498l-106 -498h-78l15 84q-63 -97 -170 -97q-70 0 -106.5 41.5t-36.5 104.5q0 18 1.5 35t6.5 38l62 292h88l-62 -291q-7 -32 -7 -63q0 -40 22 -65.5t63 -25.5q61 0 103.5 48t59.5 130l57 267h88zM203 599l14 62h279l-14 -62h-279z" />
    <glyph glyph-name="Uring" unicode="&#x16e;" horiz-adv-x="654" 
d="M282 -16q-109 0 -163 50.5t-54 143.5q0 40 11 93l85 399h93l-87 -409q-5 -19 -7.5 -40.5t-2.5 -38.5q0 -63 34.5 -95t99.5 -32q79 0 128 53.5t72 159.5l87 402h93l-87 -407q-28 -133 -101 -206t-201 -73zM443 734q-52 0 -78.5 29.5t-26.5 72.5q0 34 17 63t45.5 46.5
t64.5 17.5q52 0 78.5 -29.5t26.5 -72.5q0 -34 -16.5 -63t-45.5 -46.5t-65 -17.5zM444 783q31 0 51.5 22.5t20.5 55.5q0 24 -13.5 38.5t-38.5 14.5q-31 0 -51.5 -22.5t-20.5 -55.5q0 -24 13.5 -38.5t38.5 -14.5z" />
    <glyph glyph-name="uring" unicode="&#x16f;" horiz-adv-x="547" 
d="M527 498l-106 -498h-78l15 84q-63 -97 -170 -97q-70 0 -106.5 41.5t-36.5 104.5q0 18 1.5 35t6.5 38l62 292h88l-62 -291q-7 -32 -7 -63q0 -40 22 -65.5t63 -25.5q61 0 103.5 48t59.5 130l57 267h88zM347 557q-51 0 -77 27.5t-26 71.5q0 34 16.5 62t44.5 45t63 17
q51 0 77 -28t26 -71q0 -33 -16.5 -61.5t-44.5 -45.5t-63 -17zM347 601q33 0 54 23t21 58q0 23 -14 38.5t-40 15.5q-33 0 -54 -23t-21 -58q0 -23 14 -38.5t40 -15.5z" />
    <glyph glyph-name="Uhungarumlaut" unicode="&#x170;" horiz-adv-x="654" 
d="M282 -16q-109 0 -163 50.5t-54 143.5q0 40 11 93l85 399h93l-87 -409q-5 -19 -7.5 -40.5t-2.5 -38.5q0 -63 34.5 -95t99.5 -32q79 0 128 53.5t72 159.5l87 402h93l-87 -407q-28 -133 -101 -206t-201 -73zM281 768l185 149l43 -60l-199 -130zM457 771l199 127l36 -66
l-211 -105z" />
    <glyph glyph-name="uhungarumlaut" unicode="&#x171;" horiz-adv-x="547" 
d="M527 498l-106 -498h-78l15 84q-63 -97 -170 -97q-70 0 -106.5 41.5t-36.5 104.5q0 18 1.5 35t6.5 38l62 292h88l-62 -291q-7 -32 -7 -63q0 -40 22 -65.5t63 -25.5q61 0 103.5 48t59.5 130l57 267h88zM199 594l160 161l45 -48l-175 -146zM360 603l178 141l38 -56
l-190 -122z" />
    <glyph glyph-name="Uogonek" unicode="&#x172;" horiz-adv-x="654" 
d="M282 -16q-109 0 -163 50.5t-54 143.5q0 40 11 93l85 399h93l-87 -409q-5 -19 -7.5 -40.5t-2.5 -38.5q0 -63 34.5 -95t99.5 -32q79 0 128 53.5t72 159.5l87 402h93l-87 -407q-28 -133 -101 -206t-201 -73zM338 -241q-53 0 -80.5 24.5t-27.5 68.5q0 40 21 71.5t52.5 54
t64.5 35.5l76 14q-32 -15 -64.5 -38t-55 -53t-22.5 -66q0 -51 58 -51q12 0 24 2.5t23 7.5l-11 -59q-15 -5 -28.5 -8t-29.5 -3z" />
    <glyph glyph-name="uogonek" unicode="&#x173;" horiz-adv-x="547" 
d="M527 498l-106 -498h-78l15 84q-63 -97 -170 -97q-70 0 -106.5 41.5t-36.5 104.5q0 18 1.5 35t6.5 38l62 292h88l-62 -291q-7 -32 -7 -63q0 -40 22 -65.5t63 -25.5q61 0 103.5 48t59.5 130l57 267h88zM315 -238q-48 0 -75 24t-27 64q0 36 19.5 67t49.5 54t62 35l77 -6
q-34 -8 -66.5 -26.5t-54 -46t-21.5 -59.5q0 -24 15 -38t44 -14q12 0 24 2.5t22 6.5l-11 -53q-27 -10 -58 -10z" />
    <glyph glyph-name="Wcircumflex" unicode="&#x174;" horiz-adv-x="881" 
d="M135 0l-19 670h95l10 -550l271 550h76l26 -550l261 550h90l-322 -670h-101l-22 533l-264 -533h-101zM591 883l121 -119l-35 -44l-117 91l-156 -91l-28 45l167 118h48z" />
    <glyph glyph-name="wcircumflex" unicode="&#x175;" horiz-adv-x="708" 
d="M90 0l-22 498h93l3 -403l207 403h77l15 -405l198 405h85l-261 -498h-91l-15 377l-198 -377h-91zM478 744l106 -145l-37 -39l-99 112l-146 -112l-30 39l162 145h44z" />
    <glyph glyph-name="Ycircumflex" unicode="&#x176;" horiz-adv-x="566" 
d="M181 0l58 269l-131 401h95l95 -334l253 334h99l-319 -401l-57 -269h-93zM434 883l121 -119l-35 -44l-117 91l-156 -91l-28 45l167 118h48z" />
    <glyph glyph-name="ycircumflex" unicode="&#x177;" horiz-adv-x="477" 
d="M-17 -223q-25 0 -46 6t-36 15l24 61q13 -6 29.5 -10.5t30.5 -4.5q31 0 56.5 22t60.5 77l43 69l-67 486h88l37 -393l223 393h89l-344 -577q-49 -82 -91.5 -113t-96.5 -31zM361 744l106 -145l-37 -39l-99 112l-146 -112l-30 39l162 145h44z" />
    <glyph glyph-name="Ydieresis" unicode="&#x178;" horiz-adv-x="566" 
d="M181 0l58 269l-131 401h95l95 -334l253 334h99l-319 -401l-57 -269h-93zM290 756q-22 0 -36 12.5t-14 34.5q0 25 17.5 43t44.5 18q22 0 36 -12.5t14 -34.5q0 -25 -18 -43t-44 -18zM501 756q-22 0 -36 12.5t-14 34.5q0 25 17.5 43t44.5 18q22 0 36 -12.5t14 -34.5
q0 -25 -18 -43t-44 -18z" />
    <glyph glyph-name="Zacute" unicode="&#x179;" horiz-adv-x="572" 
d="M129 600l16 70h474l-12 -57l-483 -543h375l-16 -70h-491l12 57l483 543h-358zM312 773l219 123l34 -77l-231 -95z" />
    <glyph glyph-name="zacute" unicode="&#x17a;" horiz-adv-x="464" 
d="M-10 0l11 52l353 382h-261l14 64h368l-11 -52l-359 -382h286l-14 -64h-387zM231 606l172 143l42 -61l-186 -122z" />
    <glyph glyph-name="Zdotaccent" unicode="&#x17b;" horiz-adv-x="572" 
d="M129 600l16 70h474l-12 -57l-483 -543h375l-16 -70h-491l12 57l483 543h-358zM412 754q-23 0 -38 13.5t-15 36.5q0 27 19 46t47 19q23 0 38 -13.5t15 -36.5q0 -27 -18.5 -46t-47.5 -19z" />
    <glyph glyph-name="zdotaccent" unicode="&#x17c;" horiz-adv-x="464" 
d="M-10 0l11 52l353 382h-261l14 64h368l-11 -52l-359 -382h286l-14 -64h-387zM311 584q-22 0 -36.5 13t-14.5 35q0 26 18.5 44.5t45.5 18.5q22 0 36.5 -13t14.5 -35q0 -25 -18.5 -44t-45.5 -19z" />
    <glyph glyph-name="Zcaron" unicode="&#x17d;" horiz-adv-x="572" 
d="M129 600l16 70h474l-12 -57l-483 -543h375l-16 -70h-491l12 57l483 543h-358zM382 733l-121 119l35 44l117 -91l156 91l28 -45l-167 -118h-48z" />
    <glyph glyph-name="zcaron" unicode="&#x17e;" horiz-adv-x="464" 
d="M-10 0l11 52l353 382h-261l14 64h368l-11 -52l-359 -382h286l-14 -64h-387zM281 570l-106 145l37 39l99 -112l146 112l30 -39l-162 -145h-44z" />
    <glyph glyph-name="uni0218" unicode="&#x218;" horiz-adv-x="574" 
d="M20 186h92q-1 -4 -1 -8v-7q0 -44 20.5 -70.5t54 -38t72.5 -11.5q80 0 124 39t44 95q0 43 -28 68t-78 41l-79 25q-35 11 -65.5 30t-49.5 51t-19 81q0 55 30 102t86.5 75t135.5 28q97 0 155.5 -48.5t58.5 -135.5v-7t-1 -8h-92q1 6 1.5 11.5t0.5 10.5q0 44 -32 77t-99 33
q-71 0 -111.5 -37t-40.5 -88q0 -44 25.5 -65.5t66.5 -34.5l83 -26q41 -13 74 -34t52 -54.5t19 -84.5q0 -59 -32 -107t-91.5 -76t-144.5 -28q-103 0 -167.5 46t-64.5 135v10.5t1 10.5zM126 -309l9 43q27 10 45.5 26t29.5 44q-24 1 -35 13.5t-11 32.5q0 26 17 43.5t44 17.5
q52 0 52 -62q0 -35 -19.5 -68t-53.5 -57.5t-78 -32.5z" />
    <glyph glyph-name="uni0219" unicode="&#x219;" horiz-adv-x="471" 
d="M12 148h88q3 -45 32 -74t89 -29q53 0 80 25t27 60q0 32 -19 51t-62 34l-60 21q-52 18 -81.5 47t-29.5 80q0 36 22.5 70t65 56t104.5 22q67 0 106.5 -23t58.5 -57.5t22 -68.5h-88q-3 22 -12 42.5t-30.5 34.5t-59.5 14q-47 0 -74 -24.5t-27 -57.5q0 -27 17 -43t53 -29
l64 -24q30 -11 56.5 -27t43 -43t16.5 -69q0 -40 -22.5 -74t-66 -54.5t-107.5 -20.5q-73 0 -117.5 23t-65.5 59.5t-23 78.5zM82 -301l8 39q55 19 76 69q-24 0 -35.5 12.5t-11.5 31.5q0 25 17 42.5t42 17.5q49 0 49 -58q0 -36 -19.5 -68.5t-52.5 -55.5t-73 -30z" />
    <glyph glyph-name="uni021A" unicode="&#x21a;" horiz-adv-x="563" 
d="M179 0l127 599h-210l16 71h519l-16 -71h-216l-127 -599h-93zM106 -309l9 43q27 10 45.5 26t29.5 44q-24 1 -35 13.5t-11 32.5q0 26 17 43.5t44 17.5q52 0 52 -62q0 -35 -19.5 -68t-53.5 -57.5t-78 -32.5z" />
    <glyph glyph-name="uni021B" unicode="&#x21b;" horiz-adv-x="355" 
d="M193 -13q-64 0 -99.5 31t-35.5 89q0 14 1.5 25.5t4.5 27.5l58 276h-65l13 62h66l31 148h88l-31 -148h140l-13 -62h-140l-59 -277q-2 -11 -3.5 -21.5t-1.5 -22.5q0 -30 19.5 -45t53.5 -15q13 0 25.5 2t25.5 6l9 -61q-23 -8 -43.5 -11.5t-43.5 -3.5zM44 -301l8 39
q55 19 76 69q-24 0 -35.5 12.5t-11.5 31.5q0 25 17 42.5t42 17.5q49 0 49 -58q0 -36 -19.5 -68.5t-52.5 -55.5t-73 -30z" />
    <glyph glyph-name="circumflex" unicode="&#x2c6;" horiz-adv-x="500" 
d="M361 744l106 -145l-37 -39l-99 112l-146 -112l-30 39l162 145h44z" />
    <glyph glyph-name="caron" unicode="&#x2c7;" horiz-adv-x="500" 
d="M287 570l-106 145l37 39l99 -112l146 112l30 -39l-162 -145h-44z" />
    <glyph glyph-name="breve" unicode="&#x2d8;" horiz-adv-x="500" 
d="M322 572q-62 0 -94.5 34t-32.5 83v12.5t2 13.5h59q-1 -2 -1 -5v-5q0 -36 19.5 -55.5t54.5 -19.5q40 0 66 23.5t38 61.5h59q-15 -62 -59 -102.5t-111 -40.5z" />
    <glyph glyph-name="dotaccent" unicode="&#x2d9;" horiz-adv-x="500" 
d="M327 584q-22 0 -36.5 13t-14.5 35q0 26 18.5 44.5t45.5 18.5q22 0 36.5 -13t14.5 -35q0 -25 -18.5 -44t-45.5 -19z" />
    <glyph glyph-name="ring" unicode="&#x2da;" horiz-adv-x="500" 
d="M327 557q-51 0 -77 27.5t-26 71.5q0 34 16.5 62t44.5 45t63 17q51 0 77 -28t26 -71q0 -33 -16.5 -61.5t-44.5 -45.5t-63 -17zM327 601q33 0 54 23t21 58q0 23 -14 38.5t-40 15.5q-33 0 -54 -23t-21 -58q0 -23 14 -38.5t40 -15.5z" />
    <glyph glyph-name="ogonek" unicode="&#x2db;" horiz-adv-x="500" 
d="M195 -238q-48 0 -75 24t-27 64q0 36 19.5 67t49.5 54t62 35l77 -6q-34 -8 -66.5 -26.5t-54 -46t-21.5 -59.5q0 -24 15 -38t44 -14q12 0 24 2.5t22 6.5l-11 -53q-27 -10 -58 -10z" />
    <glyph glyph-name="tilde" unicode="&#x2dc;" horiz-adv-x="500" 
d="M310 625q-23 27 -41 27q-14 0 -27 -14t-24 -52h-56q12 58 42.5 92t70.5 34q25 0 41.5 -11.5t32.5 -30.5q23 -27 41 -27q13 0 27 14.5t24 51.5h56q-12 -58 -42 -92t-71 -34q-25 0 -41 11.5t-33 30.5z" />
    <glyph glyph-name="hungarumlaut" unicode="&#x2dd;" horiz-adv-x="500" 
d="M141 594l160 161l45 -48l-175 -146zM302 603l178 141l38 -56l-190 -122z" />
    <glyph glyph-name="gravecomb" unicode="&#x300;" 
d="M-32 749l128 -148l-38 -35l-145 131z" />
    <glyph glyph-name="acutecomb" unicode="&#x301;" 
d="M-67 606l172 143l42 -61l-186 -122z" />
    <glyph glyph-name="uni0302" unicode="&#x302;" 
d="M57 744l106 -145l-37 -39l-99 112l-146 -112l-30 39l162 145h44z" />
    <glyph glyph-name="tildecomb" unicode="&#x303;" 
d="M1 625q-23 27 -41 27q-14 0 -27 -14t-24 -52h-56q12 58 42.5 92t70.5 34q25 0 41.5 -11.5t32.5 -30.5q23 -27 41 -27q13 0 27 14.5t24 51.5h56q-12 -58 -42 -92t-71 -34q-25 0 -41 11.5t-33 30.5z" />
    <glyph glyph-name="uni0304" unicode="&#x304;" 
d="M-129 599l14 62h279l-14 -62h-279z" />
    <glyph glyph-name="uni0306" unicode="&#x306;" 
d="M11 572q-62 0 -94.5 34t-32.5 83v12.5t2 13.5h59q-1 -2 -1 -5v-5q0 -36 19.5 -55.5t54.5 -19.5q40 0 66 23.5t38 61.5h59q-15 -62 -59 -102.5t-111 -40.5z" />
    <glyph glyph-name="uni0307" unicode="&#x307;" 
d="M13 584q-22 0 -36.5 13t-14.5 35q0 26 18.5 44.5t45.5 18.5q22 0 36.5 -13t14.5 -35q0 -25 -18.5 -44t-45.5 -19z" />
    <glyph glyph-name="uni0308" unicode="&#x308;" 
d="M-82 580q-20 0 -33.5 12t-13.5 32q0 23 17 40.5t42 17.5q20 0 33.5 -12t13.5 -32q0 -23 -17 -40.5t-42 -17.5zM105 580q-20 0 -33.5 12t-13.5 32q0 23 17 40.5t42 17.5q19 0 33 -12t14 -32q0 -23 -17 -40.5t-42 -17.5z" />
    <glyph glyph-name="uni030A" unicode="&#x30a;" 
d="M15 557q-51 0 -77 27.5t-26 71.5q0 34 16.5 62t44.5 45t63 17q51 0 77 -28t26 -71q0 -33 -16.5 -61.5t-44.5 -45.5t-63 -17zM15 601q33 0 54 23t21 58q0 23 -14 38.5t-40 15.5q-33 0 -54 -23t-21 -58q0 -23 14 -38.5t40 -15.5z" />
    <glyph glyph-name="uni030B" unicode="&#x30b;" 
d="M-133 594l160 161l45 -48l-175 -146zM28 603l178 141l38 -56l-190 -122z" />
    <glyph glyph-name="uni030C" unicode="&#x30c;" 
d="M-17 570l-106 145l37 39l99 -112l146 112l30 -39l-162 -145h-44z" />
    <glyph glyph-name="uni0312" unicode="&#x312;" 
d="M103 790l-8 -39q-55 -19 -76 -69q24 0 35.5 -12.5t11.5 -31.5q0 -25 -17 -42.5t-42 -17.5q-49 0 -49 58q0 36 19.5 68.5t52.5 55.5t73 30z" />
    <glyph glyph-name="uni0315" unicode="&#x315;" 
d="M13 526h-38l37 174h70l-2 -9q-11 -51 -28.5 -92.5t-38.5 -72.5z" />
    <glyph glyph-name="dotbelowcomb" unicode="&#x323;" 
d="M-26 -195q-22 0 -36.5 13t-14.5 35q0 25 18.5 44t45.5 19q22 0 36.5 -13t14.5 -35q0 -26 -18.5 -44.5t-45.5 -18.5z" />
    <glyph glyph-name="uni0326" unicode="&#x326;" 
d="M-105 -301l8 39q55 19 76 69q-24 0 -35.5 12.5t-11.5 31.5q0 25 17 42.5t42 17.5q49 0 49 -58q0 -36 -19.5 -68.5t-52.5 -55.5t-73 -30z" />
    <glyph glyph-name="uni0327" unicode="&#x327;" 
d="M-30 0h44l-23 -61q8 2 17 2q35 0 58.5 -23.5t23.5 -62.5q0 -47 -33 -75t-91 -28q-16 0 -34 2.5t-38 8.5l10 45q16 -6 32 -8t27 -2q71 0 71 57q0 20 -11.5 33.5t-34.5 13.5q-14 0 -30 -10h-24z" />
    <glyph glyph-name="uni0328" unicode="&#x328;" 
d="M-37 -238q-48 0 -75 24t-27 64q0 36 19.5 67t49.5 54t62 35l77 -6q-34 -8 -66.5 -26.5t-54 -46t-21.5 -59.5q0 -24 15 -38t44 -14q12 0 24 2.5t22 6.5l-11 -53q-27 -10 -58 -10z" />
    <glyph glyph-name="uni1E24" unicode="&#x1e24;" horiz-adv-x="677" 
d="M34 0l143 670h93l-64 -298h318l64 298h93l-143 -670h-93l64 301h-318l-64 -301h-93zM249 -200q-23 0 -38 13.5t-15 36.5q0 27 19 46t47 19q23 0 38 -13.5t15 -36.5q0 -27 -18.5 -46t-47.5 -19z" />
    <glyph glyph-name="uni1E25" unicode="&#x1e25;" horiz-adv-x="556" 
d="M21 0l149 700h88l-58 -272q32 41 74 62t91 21q73 0 110.5 -42.5t37.5 -106.5q0 -16 -1.5 -33t-6.5 -37l-62 -292h-88l62 291q7 31 7 59q0 44 -22.5 69.5t-68.5 25.5q-60 0 -105 -48t-62 -130l-57 -267h-88zM196 -195q-22 0 -36.5 13t-14.5 35q0 25 18.5 44t45.5 19
q22 0 36.5 -13t14.5 -35q0 -26 -18.5 -44.5t-45.5 -18.5z" />
    <glyph glyph-name="uni1E36" unicode="&#x1e36;" horiz-adv-x="511" 
d="M34 0l143 670h93l-128 -599h303l-16 -71h-395zM202 -200q-23 0 -38 13.5t-15 36.5q0 27 19 46t47 19q23 0 38 -13.5t15 -36.5q0 -27 -18.5 -46t-47.5 -19z" />
    <glyph glyph-name="uni1E37" unicode="&#x1e37;" horiz-adv-x="236" 
d="M22 0l149 700h88l-149 -700h-88zM29 -195q-22 0 -36.5 13t-14.5 35q0 25 18.5 44t45.5 19q22 0 36.5 -13t14.5 -35q0 -26 -18.5 -44.5t-45.5 -18.5z" />
    <glyph glyph-name="Wgrave" unicode="&#x1e80;" horiz-adv-x="881" 
d="M135 0l-19 670h95l10 -550l271 550h76l26 -550l261 550h90l-322 -670h-101l-22 533l-264 -533h-101zM468 896l182 -125l-29 -47l-198 102z" />
    <glyph glyph-name="wgrave" unicode="&#x1e81;" horiz-adv-x="708" 
d="M90 0l-22 498h93l3 -403l207 403h77l15 -405l198 405h85l-261 -498h-91l-15 377l-198 -377h-91zM389 749l128 -148l-38 -35l-145 131z" />
    <glyph glyph-name="Wacute" unicode="&#x1e82;" horiz-adv-x="881" 
d="M135 0l-19 670h95l10 -550l271 550h76l26 -550l261 550h90l-322 -670h-101l-22 533l-264 -533h-101zM452 773l219 123l34 -77l-231 -95z" />
    <glyph glyph-name="wacute" unicode="&#x1e83;" horiz-adv-x="708" 
d="M90 0l-22 498h93l3 -403l207 403h77l15 -405l198 405h85l-261 -498h-91l-15 377l-198 -377h-91zM354 606l172 143l42 -61l-186 -122z" />
    <glyph glyph-name="Wdieresis" unicode="&#x1e84;" horiz-adv-x="881" 
d="M135 0l-19 670h95l10 -550l271 550h76l26 -550l261 550h90l-322 -670h-101l-22 533l-264 -533h-101zM447 756q-22 0 -36 12.5t-14 34.5q0 25 17.5 43t44.5 18q22 0 36 -12.5t14 -34.5q0 -25 -18 -43t-44 -18zM658 756q-22 0 -36 12.5t-14 34.5q0 25 17.5 43t44.5 18
q22 0 36 -12.5t14 -34.5q0 -25 -18 -43t-44 -18z" />
    <glyph glyph-name="wdieresis" unicode="&#x1e85;" horiz-adv-x="708" 
d="M90 0l-22 498h93l3 -403l207 403h77l15 -405l198 405h85l-261 -498h-91l-15 377l-198 -377h-91zM339 580q-20 0 -33.5 12t-13.5 32q0 23 17 40.5t42 17.5q20 0 33.5 -12t13.5 -32q0 -23 -17 -40.5t-42 -17.5zM526 580q-20 0 -33.5 12t-13.5 32q0 23 17 40.5t42 17.5
q19 0 33 -12t14 -32q0 -23 -17 -40.5t-42 -17.5z" />
    <glyph glyph-name="uni1E9E" unicode="&#x1e9e;" horiz-adv-x="629" 
d="M15 0l89 420q28 130 99 198t186 68q86 0 143.5 -40t83.5 -108l-187 -154q56 -9 90.5 -35.5t50 -64.5t15.5 -80q0 -62 -29 -112t-84.5 -79t-133.5 -29q-34 0 -67 4.5t-62 15.5l22 66q23 -10 50 -13.5t47 -3.5q69 0 114.5 39.5t45.5 109.5q0 58 -34 93.5t-102 35.5h-19
l13 60l181 157q-19 33 -55 52.5t-82 19.5q-68 0 -119 -44.5t-70 -137.5l-93 -438h-93z" />
    <glyph glyph-name="Ygrave" unicode="&#x1ef2;" horiz-adv-x="566" 
d="M181 0l58 269l-131 401h95l95 -334l253 334h99l-319 -401l-57 -269h-93zM311 896l182 -125l-29 -47l-198 102z" />
    <glyph glyph-name="ygrave" unicode="&#x1ef3;" horiz-adv-x="477" 
d="M-17 -223q-25 0 -46 6t-36 15l24 61q13 -6 29.5 -10.5t30.5 -4.5q31 0 56.5 22t60.5 77l43 69l-67 486h88l37 -393l223 393h89l-344 -577q-49 -82 -91.5 -113t-96.5 -31zM272 749l128 -148l-38 -35l-145 131z" />
    <glyph glyph-name="uni2000" unicode="&#x2000;" 
 />
    <glyph glyph-name="uni2001" unicode="&#x2001;" 
 />
    <glyph glyph-name="uni2002" unicode="&#x2002;" 
 />
    <glyph glyph-name="uni2003" unicode="&#x2003;" 
 />
    <glyph glyph-name="uni2004" unicode="&#x2004;" 
 />
    <glyph glyph-name="uni2005" unicode="&#x2005;" 
 />
    <glyph glyph-name="uni2006" unicode="&#x2006;" 
 />
    <glyph glyph-name="uni2007" unicode="&#x2007;" 
 />
    <glyph glyph-name="uni2008" unicode="&#x2008;" 
 />
    <glyph glyph-name="uni2009" unicode="&#x2009;" 
 />
    <glyph glyph-name="uni200A" unicode="&#x200a;" 
 />
    <glyph glyph-name="uni200B" unicode="&#x200b;" 
 />
    <glyph glyph-name="uni2010" unicode="&#x2010;" horiz-adv-x="368" 
d="M38 206l15 70h283l-16 -70h-282z" />
    <glyph glyph-name="uni2011" unicode="&#x2011;" horiz-adv-x="368" 
d="M38 206l15 70h283l-16 -70h-282z" />
    <glyph glyph-name="figuredash" unicode="&#x2012;" horiz-adv-x="590" 
d="M37 206l16 70h500l-16 -70h-500z" />
    <glyph glyph-name="endash" unicode="&#x2013;" horiz-adv-x="500" 
d="M-8 206l16 70h500l-16 -70h-500z" />
    <glyph glyph-name="emdash" unicode="&#x2014;" horiz-adv-x="1000" 
d="M-8 206l16 70h1000l-16 -70h-1000z" />
    <glyph glyph-name="uni2015" unicode="&#x2015;" horiz-adv-x="1000" 
d="M-8 206l16 70h1000l-16 -70h-1000z" />
    <glyph glyph-name="quoteleft" unicode="&#x2018;" horiz-adv-x="162" 
d="M240 709l-8 -42q-57 -17 -72 -63q43 -4 43 -47q0 -26 -17.5 -43t-43.5 -17q-22 0 -36.5 15t-14.5 46q0 32 18 64.5t51.5 56t79.5 30.5z" />
    <glyph glyph-name="quoteright" unicode="&#x2019;" horiz-adv-x="162" 
d="M79 498l8 42q57 17 72 63q-43 4 -43 47q0 26 18 43t43 17q23 0 37 -15t14 -46q0 -33 -18 -65t-51 -56t-80 -30z" />
    <glyph glyph-name="quotesinglbase" unicode="&#x201a;" horiz-adv-x="162" 
d="M-55 -111l8 42q57 17 72 63q-43 4 -43 47q0 26 18 43t43 17q23 0 37 -15t14 -46q0 -33 -18 -65t-51 -56t-80 -30z" />
    <glyph glyph-name="quotedblleft" unicode="&#x201c;" horiz-adv-x="312" 
d="M240 709l-8 -42q-57 -17 -72 -63q43 -4 43 -47q0 -26 -17.5 -43t-43.5 -17q-22 0 -36.5 15t-14.5 46q0 32 18 64.5t51.5 56t79.5 30.5zM390 709l-8 -42q-57 -17 -72 -63q43 -4 43 -47q0 -26 -17.5 -43t-43.5 -17q-22 0 -36.5 15t-14.5 46q0 32 18 64.5t51.5 56t79.5 30.5
z" />
    <glyph glyph-name="quotedblright" unicode="&#x201d;" horiz-adv-x="312" 
d="M79 498l8 42q57 17 72 63q-43 4 -43 47q0 26 18 43t43 17q23 0 37 -15t14 -46q0 -33 -18 -65t-51 -56t-80 -30zM229 498l8 42q57 17 72 63q-43 4 -43 47q0 26 18 43t43 17q23 0 37 -15t14 -46q0 -33 -18 -65t-51 -56t-80 -30z" />
    <glyph glyph-name="quotedblbase" unicode="&#x201e;" horiz-adv-x="312" 
d="M-55 -111l8 42q57 17 72 63q-43 4 -43 47q0 26 18 43t43 17q23 0 37 -15t14 -46q0 -33 -18 -65t-51 -56t-80 -30zM95 -111l8 42q57 17 72 63q-43 4 -43 47q0 26 18 43t43 17q23 0 37 -15t14 -46q0 -33 -18 -65t-51 -56t-80 -30z" />
    <glyph glyph-name="dagger" unicode="&#x2020;" horiz-adv-x="388" 
d="M77 -105l121 540l-135 -4l16 72l131 -4l32 171h76l-40 -171l134 4l-15 -72l-133 4l-111 -540h-76z" />
    <glyph glyph-name="daggerdbl" unicode="&#x2021;" horiz-adv-x="388" 
d="M78 -105l41 171l-134 -4l15 72l133 -4l65 306l-134 -4l14 71l133 -4l32 171h75l-40 -171l134 4l-15 -71l-133 4l-65 -306l135 4l-16 -72l-132 4l-33 -171h-75z" />
    <glyph glyph-name="bullet" unicode="&#x2022;" horiz-adv-x="302" 
d="M142 140q-46 0 -70 24t-24 65q0 49 33.5 81.5t81.5 32.5q46 0 70 -24t24 -65q0 -49 -33.5 -81.5t-81.5 -32.5z" />
    <glyph glyph-name="ellipsis" unicode="&#x2026;" horiz-adv-x="1000" 
d="M127 -10q-26 0 -40 14t-14 38q0 28 19 47.5t48 19.5q26 0 40 -14t14 -38q0 -29 -19.5 -48t-47.5 -19zM460 -10q-26 0 -40 14t-14 38q0 28 19 47.5t48 19.5q26 0 40 -14t14 -38q0 -29 -19.5 -48t-47.5 -19zM793 -10q-26 0 -40 14t-14 38q0 28 19 47.5t48 19.5q26 0 40 -14
t14 -38q0 -29 -19.5 -48t-47.5 -19z" />
    <glyph glyph-name="perthousand" unicode="&#x2030;" horiz-adv-x="1244" 
d="M173 0l464 660h86l-464 -660h-86zM643 -10q-60 0 -91 38t-31 110q0 47 13.5 94t38.5 85.5t61.5 61.5t82.5 23q60 0 91 -38t31 -110q0 -47 -13.5 -94t-38.5 -85.5t-61.5 -61.5t-82.5 -23zM649 42q26 0 47.5 21.5t37 56t24 72.5t8.5 71q0 87 -55 87q-26 0 -47.5 -21.5
t-37 -56t-24 -72.5t-8.5 -71q0 -87 55 -87zM1015 -10q-60 0 -91 38t-31 110q0 47 13.5 94t38.5 85.5t61.5 61.5t82.5 23q60 0 91 -38t31 -110q0 -47 -13.5 -94t-38.5 -85.5t-61.5 -61.5t-82.5 -23zM1021 42q26 0 47.5 21.5t37 56t24 72.5t8.5 71q0 87 -55 87
q-26 0 -47.5 -21.5t-37 -56t-24 -72.5t-8.5 -71q0 -87 55 -87zM179 259q-60 0 -91 38t-31 110q0 47 13.5 94t38.5 85.5t61.5 61.5t82.5 23q60 0 91 -38t31 -110q0 -47 -13.5 -94t-38.5 -85.5t-61.5 -61.5t-82.5 -23zM185 311q26 0 47.5 21.5t37 56t24 72.5t8.5 71
q0 87 -55 87q-26 0 -47.5 -21.5t-37 -56t-24 -72.5t-8.5 -71q0 -87 55 -87z" />
    <glyph glyph-name="guilsinglleft" unicode="&#x2039;" horiz-adv-x="326" 
d="M155 52l-105 196l178 196h92l-182 -197l104 -195h-87z" />
    <glyph glyph-name="guilsinglright" unicode="&#x203a;" horiz-adv-x="326" 
d="M179 444l105 -196l-178 -196h-92l182 197l-104 195h87z" />
    <glyph glyph-name="fraction" unicode="&#x2044;" horiz-adv-x="131" 
d="M-192 0l464 660h86l-464 -660h-86z" />
    <glyph glyph-name="uni2070" unicode="&#x2070;" horiz-adv-x="353" 
d="M199 368q-60 0 -91 38t-31 110q0 47 13.5 94t38.5 85.5t61.5 61.5t82.5 23q60 0 91 -38t31 -110q0 -47 -13.5 -94t-38.5 -85.5t-61.5 -61.5t-82.5 -23zM205 420q26 0 47.5 21.5t37 56t24 72.5t8.5 71q0 87 -55 87q-26 0 -47.5 -21.5t-37 -56t-24 -72.5t-8.5 -71
q0 -87 55 -87z" />
    <glyph glyph-name="uni2074" unicode="&#x2074;" horiz-adv-x="340" 
d="M230 376l17 81h-189l10 47l250 264h62l-54 -257h57l-12 -54h-57l-17 -81h-67zM138 511h121l34 162z" />
    <glyph glyph-name="uni2075" unicode="&#x2075;" horiz-adv-x="343" 
d="M205 366q-57 0 -93 27t-37 85h69q3 -60 64 -60q31 0 52 16t32 41t11 51q0 31 -17 47t-45 16q-24 0 -46.5 -11.5t-36.5 -34.5h-55l69 225h234l-12 -56h-178l-30 -97q34 23 78 23q50 0 81 -28.5t31 -82.5q0 -43 -20.5 -79.5t-59 -59t-91.5 -22.5z" />
    <glyph glyph-name="uni2076" unicode="&#x2076;" horiz-adv-x="340" 
d="M212 368q-58 0 -94.5 36t-36.5 117q0 42 12.5 87t38 84t64 63.5t89.5 24.5q53 0 83 -28.5t30 -75.5h-72q-1 28 -14.5 41t-33.5 13q-35 0 -66.5 -33t-52.5 -106q20 22 47 32.5t55 10.5q50 0 80 -30t30 -84q0 -42 -20 -76.5t-55.5 -55t-83.5 -20.5zM210 420q43 0 67 29.5
t24 65.5q0 37 -16.5 55t-44.5 18q-29 0 -50 -15.5t-32.5 -39t-11.5 -47.5q0 -30 17 -48t47 -18z" />
    <glyph glyph-name="uni2077" unicode="&#x2077;" horiz-adv-x="297" 
d="M79 380q30 97 84.5 176t143.5 160h-202l12 56h273l-11 -56q-88 -84 -143.5 -163.5t-84.5 -172.5h-72z" />
    <glyph glyph-name="uni2078" unicode="&#x2078;" horiz-adv-x="349" 
d="M204 368q-58 0 -99 26.5t-41 79.5q0 43 29 74t77 43q-23 11 -36.5 30t-13.5 46q0 49 43.5 81t108.5 32q54 0 92 -24.5t38 -71.5q0 -37 -24.5 -63.5t-66.5 -37.5q28 -12 44.5 -34t16.5 -54q0 -36 -21.5 -65t-59.5 -45.5t-87 -16.5zM252 607q36 0 57.5 23t21.5 52
q0 26 -17 40t-45 14q-35 0 -56.5 -23t-21.5 -51q0 -27 17 -41t44 -14zM208 415q40 0 65 26.5t25 59.5q0 31 -19 47.5t-51 16.5q-40 0 -65 -27t-25 -62q0 -30 19.5 -45.5t50.5 -15.5z" />
    <glyph glyph-name="uni2079" unicode="&#x2079;" horiz-adv-x="340" 
d="M266 780q56 0 93.5 -36.5t37.5 -121.5q0 -40 -12.5 -84t-38 -82.5t-64 -63t-89.5 -24.5q-53 0 -83 28.5t-30 75.5h72q1 -28 14.5 -41t33.5 -13q35 0 66.5 33t52.5 106q-20 -22 -47 -32.5t-55 -10.5q-50 0 -80 30t-30 84q0 42 19.5 76.5t55.5 55t84 20.5zM268 728
q-43 0 -67 -30t-24 -65q0 -37 16.5 -55t44.5 -18q29 0 50 15.5t32.5 39t11.5 47.5q0 30 -17 48t-47 18z" />
    <glyph glyph-name="uni2080" unicode="&#x2080;" horiz-adv-x="353" 
d="M104 -110q-60 0 -91 38t-31 110q0 47 13.5 94t38.5 85.5t61.5 61.5t82.5 23q60 0 91 -38t31 -110q0 -47 -13.5 -94t-38.5 -85.5t-61.5 -61.5t-82.5 -23zM110 -58q26 0 47.5 21.5t37 56t24 72.5t8.5 71q0 87 -55 87q-26 0 -47.5 -21.5t-37 -56t-24 -72.5t-8.5 -71
q0 -87 55 -87z" />
    <glyph glyph-name="uni2081" unicode="&#x2081;" horiz-adv-x="254" 
d="M45 -100l66 311q-27 -13 -56 -21.5t-55 -12.5l12 58q32 7 68.5 21t65.5 36h56l-85 -392h-72z" />
    <glyph glyph-name="uni2082" unicode="&#x2082;" horiz-adv-x="343" 
d="M-36 -100l3 14q12 52 37.5 88t83.5 67l72 39q39 21 57.5 41.5t18.5 51.5q0 22 -15 35.5t-41 13.5q-31 0 -54.5 -21t-34.5 -64h-69q13 68 58 102.5t104 34.5q61 0 93 -27.5t32 -74.5q0 -41 -28 -74.5t-79 -61.5l-76 -41q-31 -17 -47 -31.5t-23 -35.5h198l-13 -56h-277z
" />
    <glyph glyph-name="uni2083" unicode="&#x2083;" horiz-adv-x="343" 
d="M119 -110q-64 0 -102 29.5t-38 84.5v7t1 8h69q-1 -5 -1 -8.5v-7.5q0 -27 19.5 -44t51.5 -17q42 0 64.5 24.5t22.5 54.5q0 32 -23.5 48t-60.5 16h-12l9 46h27q41 0 64.5 19.5t23.5 50.5q0 23 -16 36t-43 13q-31 0 -52 -16.5t-29 -45.5h-69q12 57 55 85.5t98 28.5
q60 0 93.5 -27t33.5 -73q0 -36 -23 -61t-63 -38q32 -13 45 -35.5t13 -51.5q0 -51 -42 -88.5t-116 -37.5z" />
    <glyph glyph-name="uni2084" unicode="&#x2084;" horiz-adv-x="340" 
d="M139 -100l17 81h-189l10 47l250 264h62l-54 -257h57l-12 -54h-57l-17 -81h-67zM47 35h121l34 162z" />
    <glyph glyph-name="uni2085" unicode="&#x2085;" horiz-adv-x="343" 
d="M109 -110q-57 0 -93 27t-37 85h69q3 -60 64 -60q31 0 52 16t32 41t11 51q0 31 -17 47t-45 16q-24 0 -46.5 -11.5t-36.5 -34.5h-55l69 225h234l-12 -56h-178l-30 -97q34 23 78 23q50 0 81 -28.5t31 -82.5q0 -43 -20.5 -79.5t-59 -59t-91.5 -22.5z" />
    <glyph glyph-name="uni2086" unicode="&#x2086;" horiz-adv-x="340" 
d="M120 -110q-58 0 -94.5 36t-36.5 117q0 42 12.5 87t38 84t64 63.5t89.5 24.5q53 0 83 -28.5t30 -75.5h-72q-1 28 -14.5 41t-33.5 13q-35 0 -66.5 -33t-52.5 -106q20 22 47 32.5t55 10.5q50 0 80 -30t30 -84q0 -42 -20 -76.5t-55.5 -55t-83.5 -20.5zM118 -58q43 0 67 29.5
t24 65.5q0 37 -16.5 55t-44.5 18q-29 0 -50 -15.5t-32.5 -39t-11.5 -47.5q0 -30 17 -48t47 -18z" />
    <glyph glyph-name="uni2087" unicode="&#x2087;" horiz-adv-x="297" 
d="M-8 -100q30 97 84.5 176t143.5 160h-202l12 56h273l-11 -56q-88 -84 -143.5 -163.5t-84.5 -172.5h-72z" />
    <glyph glyph-name="uni2088" unicode="&#x2088;" horiz-adv-x="349" 
d="M112 -110q-58 0 -99 26.5t-41 79.5q0 43 29 74t77 43q-23 11 -36.5 30t-13.5 46q0 49 43.5 81t108.5 32q54 0 92 -24.5t38 -71.5q0 -37 -24.5 -63.5t-66.5 -37.5q28 -12 44.5 -34t16.5 -54q0 -36 -21.5 -65t-59.5 -45.5t-87 -16.5zM160 129q36 0 57.5 23t21.5 52
q0 26 -17 40t-45 14q-35 0 -56.5 -23t-21.5 -51q0 -27 17 -41t44 -14zM116 -63q40 0 65 26.5t25 59.5q0 31 -19 47.5t-51 16.5q-40 0 -65 -27t-25 -62q0 -30 19.5 -45.5t50.5 -15.5z" />
    <glyph glyph-name="uni2089" unicode="&#x2089;" horiz-adv-x="340" 
d="M164 302q56 0 93.5 -36.5t37.5 -121.5q0 -40 -12.5 -84t-38 -82.5t-64 -63t-89.5 -24.5q-53 0 -83 28.5t-30 75.5h72q1 -28 14.5 -41t33.5 -13q35 0 66.5 33t52.5 106q-20 -22 -47 -32.5t-55 -10.5q-50 0 -80 30t-30 84q0 42 19.5 76.5t55.5 55t84 20.5zM166 250
q-43 0 -67 -30t-24 -65q0 -37 16.5 -55t44.5 -18q29 0 50 15.5t32.5 39t11.5 47.5q0 30 -17 48t-47 18z" />
    <glyph glyph-name="Euro" unicode="&#x20ac;" horiz-adv-x="590" 
d="M286 -16q-99 0 -151 65t-52 180v8h-52l13 56h43q4 34 11 67h-41l12 55h45q22 68 61.5 126t96.5 93.5t131 35.5q83 0 136 -52.5t56 -145.5h-87q-2 63 -31 96.5t-79 33.5q-46 0 -82.5 -26t-63.5 -68.5t-44 -92.5h228l-21 -55h-224q-8 -33 -12 -67h211l-21 -56h-195v-14
q0 -86 30 -128.5t85 -42.5q49 0 93 31.5t67 100.5h86q-31 -96 -98 -148t-151 -52z" />
    <glyph glyph-name="uni20B9" unicode="&#x20b9;" horiz-adv-x="590" 
d="M146 491h257v1q0 50 -32.5 79t-105.5 29h-95l11 54h441l-20 -54h-159q23 -22 35 -50t12 -59h94l-20 -55h-80q-13 -54 -51 -90t-95 -54t-126 -18h-16l224 -274h-92l-228 274l11 55h96q64 0 116.5 25.5t70.5 81.5h-259z" />
    <glyph glyph-name="uni20BA" unicode="&#x20ba;" horiz-adv-x="590" 
d="M64 279l79 28l17 77l-79 -28l12 58l79 28l45 212h85l-38 -180l175 62l-12 -58l-176 -62l-16 -77l175 62l-12 -58l-175 -62l-46 -214h60q91 0 145 53.5t81 172.5h80q-25 -105 -65.5 -169.5t-103 -94t-152.5 -29.5h-144l53 249l-79 -28z" />
    <glyph glyph-name="trademark" unicode="&#x2122;" horiz-adv-x="897" 
d="M149 250v363h-140v57h349v-57h-139v-363h-70zM387 250l49 420h80l108 -297l108 297h80l49 -420h-69l-36 327l-105 -284h-55l-105 284l-36 -327h-68z" />
    <glyph glyph-name="minus" unicode="&#x2212;" horiz-adv-x="590" 
d="M98 296l14 67h407l-14 -67h-407z" />
    <glyph glyph-name="uniFB00" unicode="&#xfb00;" horiz-adv-x="632" 
d="M41 0l93 436h-72l13 62h72l6 29q19 92 64 139t122 47q52 0 88 -21l-21 -60q-16 7 -28.5 10t-27.5 3q-42 0 -69 -27t-40 -90l-6 -30h220l6 29q19 92 64 139t122 47q52 0 88 -21l-21 -60q-16 7 -28.5 10t-27.5 3q-42 0 -69 -27t-40 -90l-6 -30h132l-13 -62h-133l-92 -436
h-88l93 436h-221l-92 -436h-88z" />
    <glyph glyph-name="uniFB01" unicode="&#xfb01;" horiz-adv-x="563" 
d="M41 0l93 436h-72l13 62h72l6 29q19 92 64 139t122 47q25 0 45.5 -5t37.5 -13l-25 -59q-13 4 -23 6.5t-24 2.5q-42 0 -69 -27t-40 -90l-6 -30h125l-13 -62h-126l-92 -436h-88zM522 584q-22 0 -36.5 13t-14.5 35q0 26 18.5 44.5t45.5 18.5q22 0 36.5 -13t14.5 -35
q0 -25 -18.5 -44t-45.5 -19zM349 0l106 498h88l-106 -498h-88z" />
    <glyph glyph-name="uniFB02" unicode="&#xfb02;" horiz-adv-x="559" 
d="M41 0l93 436h-72l13 62h72l6 29q19 92 64 139t122 47q25 0 45.5 -5t37.5 -13l-25 -59q-13 4 -23 6.5t-24 2.5q-42 0 -69 -27t-40 -90l-6 -30h125l-13 -62h-126l-92 -436h-88zM344 0l149 700h88l-149 -700h-88z" />
    <glyph glyph-name="uniFB03" unicode="&#xfb03;" horiz-adv-x="871" 
d="M41 0l93 436h-72l13 62h72l6 29q19 92 64 139t122 47q52 0 88 -21l-21 -60q-16 7 -28.5 10t-27.5 3q-42 0 -69 -27t-40 -90l-6 -30h220l6 29q19 92 64 139t122 47q25 0 45.5 -5t37.5 -13l-25 -59q-13 4 -23 6.5t-24 2.5q-42 0 -69 -27t-40 -90l-6 -30h125l-13 -62h-126
l-92 -436h-88l93 436h-221l-92 -436h-88zM830 584q-22 0 -36.5 13t-14.5 35q0 26 18.5 44.5t45.5 18.5q22 0 36.5 -13t14.5 -35q0 -25 -18.5 -44t-45.5 -19zM657 0l106 498h88l-106 -498h-88z" />
    <glyph glyph-name="uniFB04" unicode="&#xfb04;" horiz-adv-x="869" 
d="M41 0l93 436h-72l13 62h72l6 29q19 92 64 139t122 47q52 0 88 -21l-21 -60q-16 7 -28.5 10t-27.5 3q-42 0 -69 -27t-40 -90l-6 -30h220l6 29q19 92 64 139t122 47q25 0 45.5 -5t37.5 -13l-25 -59q-13 4 -23 6.5t-24 2.5q-42 0 -69 -27t-40 -90l-6 -30h125l-13 -62h-126
l-92 -436h-88l93 436h-221l-92 -436h-88zM654 0l149 700h88l-149 -700h-88z" />
    <glyph glyph-name="hyphen.case" horiz-adv-x="368" 
d="M48 301l15 70h283l-16 -70h-282z" />
    <glyph glyph-name="uni2010.case" horiz-adv-x="368" 
d="M48 301l15 70h283l-16 -70h-282z" />
    <glyph glyph-name="uni2011.case" horiz-adv-x="368" 
d="M48 301l15 70h283l-16 -70h-282z" />
    <glyph glyph-name="endash.case" horiz-adv-x="500" 
d="M7 301l16 70h500l-16 -70h-500z" />
    <glyph glyph-name="emdash.case" horiz-adv-x="1000" 
d="M7 301l16 70h1000l-16 -70h-1000z" />
    <glyph glyph-name="parenleft.case" horiz-adv-x="285" 
d="M130 -75q-33 69 -50 138.5t-17 147.5q0 107 31.5 204t86 180.5t123.5 149.5h71q-70 -76 -120.5 -166t-78 -186t-27.5 -192q0 -84 11.5 -147.5t37.5 -128.5h-68z" />
    <glyph glyph-name="parenright.case" horiz-adv-x="285" 
d="M125 745h68q33 -69 50 -138.5t17 -147.5q0 -107 -31.5 -204t-86 -180.5t-123.5 -149.5h-71q70 76 120.5 166t78 186t27.5 192q0 84 -11.5 147.5t-37.5 128.5z" />
    <glyph glyph-name="slash.case" horiz-adv-x="313" 
d="M-56 -61l390 790h86l-391 -790h-85z" />
    <glyph glyph-name="backslash.case" horiz-adv-x="313" 
d="M162 -61l-61 790h79l61 -790h-79z" />
    <glyph glyph-name="bracketleft.case" horiz-adv-x="279" 
d="M5 -75l174 820h195l-13 -62h-112l-148 -696h113l-14 -62h-195z" />
    <glyph glyph-name="bracketright.case" horiz-adv-x="279" 
d="M316 745l-174 -820h-195l13 62h112l148 696h-113l14 62h195z" />
    <glyph glyph-name="braceleft.case" horiz-adv-x="326" 
d="M42 309l14 63h25q34 0 53 15t27.5 50.5t11.5 96.5q3 78 22.5 124t61.5 66.5t113 20.5h47l-15 -63h-38q-44 0 -66.5 -18.5t-32 -55.5t-12.5 -93q-5 -80 -25.5 -126.5t-79.5 -53.5q20 -5 35 -21t15 -45q0 -27 -6 -53t-18 -56t-22 -60t-10 -56q0 -25 17 -40.5t58 -15.5h36
l-14 -63h-44q-72 0 -103 29.5t-31 73.5q0 29 11.5 63t22.5 69q11 31 17 55t6 47q0 47 -52 47h-24z" />
    <glyph glyph-name="braceright.case" horiz-adv-x="326" 
d="M323 361l-14 -63h-25q-34 0 -53 -15t-27.5 -50.5t-11.5 -96.5q-4 -78 -23 -124.5t-61 -66.5t-113 -20h-47l15 63h38q44 0 66.5 18.5t31.5 55.5t13 93q5 80 25.5 126.5t79.5 53.5q-20 5 -35 21t-15 45q0 27 6 53t18 56t22 60t10 56q0 25 -17.5 40.5t-57.5 15.5h-36l14 63
h44q72 0 103 -29.5t31 -73.5q0 -29 -11.5 -63t-22.5 -69q-10 -31 -16.5 -55t-6.5 -47q0 -47 52 -47h24z" />
    <glyph glyph-name="bullet.case" horiz-adv-x="302" 
d="M162 233q-46 0 -70 24t-24 65q0 49 33.5 81.5t81.5 32.5q46 0 70 -24t24 -65q0 -49 -33.5 -81.5t-81.5 -32.5z" />
    <glyph glyph-name="guilsinglleft.case" horiz-adv-x="326" 
d="M160 139l-105 196l178 196h92l-182 -197l104 -195h-87z" />
    <glyph glyph-name="guilsinglright.case" horiz-adv-x="326" 
d="M197 531l105 -196l-178 -196h-92l182 197l-104 195h87z" />
    <glyph glyph-name="guillemotleft.case" horiz-adv-x="576" 
d="M160 139l-105 196l178 196h92l-182 -197l104 -195h-87zM410 139l-105 196l178 196h92l-182 -197l104 -195h-87z" />
    <glyph glyph-name="guillemotright.case" horiz-adv-x="576" 
d="M192 531l105 -196l-178 -196h-92l182 197l-104 195h87zM442 531l105 -196l-178 -196h-92l182 197l-104 195h87z" />
    <glyph glyph-name="at.case" horiz-adv-x="906" 
d="M429 -112q-114 0 -200 41t-134 123t-48 206q0 100 34 188.5t96.5 155.5t150 105t194.5 38q114 0 200.5 -41.5t134.5 -119t48 -186.5q0 -85 -29.5 -155t-84 -112t-129.5 -42q-45 0 -73.5 21t-32.5 60q-30 -36 -72 -54.5t-84 -18.5q-70 0 -109.5 44.5t-39.5 120.5
q0 48 16 94t45.5 82.5t69.5 58t89 21.5q50 0 84.5 -24t48.5 -64l21 81h73l-59 -279q-4 -16 -5 -25.5t-1 -19.5q0 -41 46 -41q48 0 84.5 35.5t57 93t20.5 121.5q0 91 -40 156.5t-112 100.5t-168 35q-94 0 -170 -35t-130 -95t-82.5 -137t-28.5 -161q0 -104 41.5 -173.5
t115 -104.5t169.5 -35q51 0 94.5 9.5t86.5 26.5l15 -56q-53 -21 -102 -30t-101 -9zM424 158q54 0 94.5 39t54.5 95l3 14q2 8 3 18t1 18q0 50 -25.5 82.5t-71.5 32.5q-44 0 -78 -29t-52.5 -73t-18.5 -90q0 -51 23 -79t67 -28z" />
    <glyph glyph-name="periodcentered.case" horiz-adv-x="220" 
d="M130 276q-26 0 -40 14t-14 38q0 28 19 47.5t48 19.5q26 0 40 -14t14 -38q0 -29 -19.5 -48t-47.5 -19z" />
    <glyph glyph-name="questiondown.case" horiz-adv-x="440" 
d="M339 680q26 0 40 -14t14 -38q0 -28 -19 -47.5t-48 -19.5q-26 0 -40 14t-14 38q0 29 19.5 48t47.5 19zM353 489l-7 -34q-8 -40 -29.5 -70.5t-76.5 -67.5l-58 -39q-42 -28 -64.5 -59.5t-22.5 -70.5q0 -44 27 -70.5t77 -26.5q51 0 89.5 34t54.5 105h87q-19 -98 -83.5 -152
t-157.5 -54q-86 0 -135.5 42t-49.5 116q0 61 34.5 106.5t93.5 83.5l59 38q37 23 53 42.5t24 55.5l4 21h81z" />
    <glyph glyph-name="exclamdown.case" horiz-adv-x="226" 
d="M200 680q26 0 40 -14t14 -38q0 -28 -19.5 -47.5t-47.5 -19.5q-26 0 -40 14t-14 38q0 29 19 48t48 19zM200 488l-93 -488h-94l122 488h65z" />
    <glyph glyph-name="zero.tnum" horiz-adv-x="590" 
d="M251 -16q-95 0 -142 62t-47 174q0 82 21.5 162t61.5 145t96.5 104t127.5 39q95 0 142 -62t47 -174q0 -82 -21.5 -162t-61.5 -145t-96.5 -104t-127.5 -39zM258 52q37 0 69 25.5t57.5 68t43 94t27 105t9.5 100.5q0 157 -102 157q-37 0 -69 -25.5t-57.5 -68t-43 -94
t-27 -105t-9.5 -100.5q0 -157 102 -157z" />
    <glyph glyph-name="one.tnum" horiz-adv-x="590" 
d="M241 0l115 541q-44 -21 -94.5 -37t-94.5 -24l17 74q53 11 111.5 37t104.5 63h71l-140 -654h-90z" />
    <glyph glyph-name="two.tnum" horiz-adv-x="590" 
d="M28 0l5 23q12 57 35.5 100t62 77t94.5 67l124 70q60 35 94 75t34 95q0 45 -27 70t-77 25q-59 0 -100.5 -37.5t-59.5 -116.5h-90q22 114 92 168t165 54q91 0 140.5 -44t49.5 -118t-47.5 -131t-121.5 -98l-129 -72q-55 -30 -84.5 -59.5t-43.5 -75.5h348l-16 -72h-448z" />
    <glyph glyph-name="three.tnum" horiz-adv-x="590" 
d="M261 -16q-98 0 -157 48.5t-59 137.5v11t1 12h89q-1 -8 -1 -13v-13q0 -52 35 -83.5t95 -31.5q53 0 87 20.5t51 53t17 70.5q0 61 -41 90.5t-107 29.5h-21l14 62h47q70 0 112 34t42 92q0 48 -29 73t-77 25q-56 0 -95 -30.5t-53 -86.5h-89q20 95 86.5 140t154.5 45
q91 0 142.5 -43.5t51.5 -118.5q0 -62 -37.5 -105.5t-104.5 -62.5q52 -21 74 -59t22 -89q0 -56 -30 -103.5t-86 -76t-134 -28.5z" />
    <glyph glyph-name="four.tnum" horiz-adv-x="590" 
d="M300 0l30 142h-313l15 69l412 443h80l-94 -442h99l-15 -70h-99l-30 -142h-85zM121 212h224l67 314z" />
    <glyph glyph-name="five.tnum" horiz-adv-x="590" 
d="M318 369q-41 0 -81.5 -21t-65.5 -69h-71l112 375h370l-16 -72h-296l-57 -191q28 21 62.5 32t70.5 11q81 0 129 -48t48 -138q0 -72 -32 -132t-91.5 -96t-142.5 -36q-57 0 -102 18.5t-71 59t-27 106.5h89q2 -61 32.5 -88.5t83.5 -27.5q54 0 91 28.5t56.5 73t19.5 94.5
q0 60 -30.5 90.5t-80.5 30.5z" />
    <glyph glyph-name="six.tnum" horiz-adv-x="590" 
d="M277 -16q-93 0 -150 57.5t-57 185.5q0 57 12.5 118.5t38 119.5t63.5 104t89 73.5t115 27.5q88 0 134.5 -47.5t46.5 -124.5h-94q0 56 -26 81.5t-66 25.5q-63 0 -116.5 -61t-87.5 -198q33 39 77 58t91 19q80 0 127.5 -49.5t47.5 -137.5q0 -70 -31 -127t-86.5 -91
t-127.5 -34zM273 50q51 0 86.5 25.5t54 67t18.5 90.5q0 63 -29.5 94t-81.5 31q-50 0 -87.5 -26t-57.5 -67.5t-20 -87.5q0 -59 31 -93t86 -34z" />
    <glyph glyph-name="seven.tnum" horiz-adv-x="590" 
d="M114 0q35 111 86 207t124 187t172 188h-344l16 72h433l-16 -75q-146 -143 -236.5 -283t-139.5 -296h-95z" />
    <glyph glyph-name="eight.tnum" horiz-adv-x="590" 
d="M364 670q89 0 146 -39t57 -116q0 -62 -41 -108t-106 -66q46 -21 73 -58.5t27 -92.5q0 -62 -34 -108t-93.5 -72t-134.5 -26q-62 0 -112 20t-79 58.5t-29 95.5q0 73 47.5 124.5t124.5 70.5q-37 19 -58.5 51.5t-21.5 78.5q0 54 31.5 96.5t84.5 66.5t118 24zM334 376
q44 0 75.5 19t49 49.5t17.5 65.5q0 50 -31 75t-82 25q-43 0 -75 -19t-49.5 -49.5t-17.5 -65.5q0 -50 31 -75t82 -25zM296 316q-49 0 -85.5 -21t-56.5 -56t-20 -77q0 -59 35.5 -87t92.5 -28q49 0 85.5 21t56.5 56.5t20 76.5q0 59 -35.5 87t-92.5 28z" />
    <glyph glyph-name="nine.tnum" horiz-adv-x="590" 
d="M347 670q91 0 148 -56t57 -183q0 -59 -12.5 -121.5t-37.5 -120.5t-63 -104.5t-90 -73.5t-117 -27q-86 0 -132.5 47.5t-46.5 124.5h94q0 -56 26 -81.5t68 -25.5q65 0 118.5 62t84.5 198q-33 -38 -78 -58t-93 -20q-78 0 -126 49.5t-48 137.5q0 69 31.5 126.5t87.5 91.5
t129 34zM346 604q-50 0 -85 -26.5t-53.5 -69t-18.5 -90.5q0 -60 29.5 -91t84.5 -31q50 0 86.5 26.5t56.5 68t20 87.5q0 57 -31.5 91.5t-88.5 34.5z" />
    <glyph glyph-name="zero.dnom" horiz-adv-x="353" 
d="M124 -10q-60 0 -91 38t-31 110q0 47 13.5 94t38.5 85.5t61.5 61.5t82.5 23q60 0 91 -38t31 -110q0 -47 -13.5 -94t-38.5 -85.5t-61.5 -61.5t-82.5 -23zM130 42q26 0 47.5 21.5t37 56t24 72.5t8.5 71q0 87 -55 87q-26 0 -47.5 -21.5t-37 -56t-24 -72.5t-8.5 -71
q0 -87 55 -87z" />
    <glyph glyph-name="one.dnom" horiz-adv-x="254" 
d="M61 0l66 311q-27 -13 -56 -21.5t-55 -12.5l12 58q32 7 68.5 21t65.5 36h56l-85 -392h-72z" />
    <glyph glyph-name="two.dnom" horiz-adv-x="343" 
d="M-18 0l3 14q12 52 37.5 88t83.5 67l72 39q39 21 57.5 41.5t18.5 51.5q0 22 -15 35.5t-41 13.5q-31 0 -54.5 -21t-34.5 -64h-69q13 68 58 102.5t104 34.5q61 0 93 -27.5t32 -74.5q0 -41 -28 -74.5t-79 -61.5l-76 -41q-31 -17 -47 -31.5t-23 -35.5h198l-13 -56h-277z" />
    <glyph glyph-name="three.dnom" horiz-adv-x="343" 
d="M130 -10q-64 0 -102 29.5t-38 84.5v7t1 8h69q-1 -5 -1 -8.5v-7.5q0 -27 19.5 -44t51.5 -17q42 0 64.5 24.5t22.5 54.5q0 32 -23.5 48t-60.5 16h-12l9 46h27q41 0 64.5 19.5t23.5 50.5q0 23 -16 36t-43 13q-31 0 -52 -16.5t-29 -45.5h-69q12 57 55 85.5t98 28.5
q60 0 93.5 -27t33.5 -73q0 -36 -23 -61t-63 -38q32 -13 45 -35.5t13 -51.5q0 -51 -42 -88.5t-116 -37.5z" />
    <glyph glyph-name="four.dnom" horiz-adv-x="340" 
d="M155 0l17 81h-189l10 47l250 264h62l-54 -257h57l-12 -54h-57l-17 -81h-67zM63 135h121l34 162z" />
    <glyph glyph-name="five.dnom" horiz-adv-x="343" 
d="M125 -10q-57 0 -93 27t-37 85h69q3 -60 64 -60q31 0 52 16t32 41t11 51q0 31 -17 47t-45 16q-24 0 -46.5 -11.5t-36.5 -34.5h-55l69 225h234l-12 -56h-178l-30 -97q34 23 78 23q50 0 81 -28.5t31 -82.5q0 -43 -20.5 -79.5t-59 -59t-91.5 -22.5z" />
    <glyph glyph-name="six.dnom" horiz-adv-x="340" 
d="M138 -10q-58 0 -94.5 36t-36.5 117q0 42 12.5 87t38 84t64 63.5t89.5 24.5q53 0 83 -28.5t30 -75.5h-72q-1 28 -14.5 41t-33.5 13q-35 0 -66.5 -33t-52.5 -106q20 22 47 32.5t55 10.5q50 0 80 -30t30 -84q0 -42 -20 -76.5t-55.5 -55t-83.5 -20.5zM136 42q43 0 67 29.5
t24 65.5q0 37 -16.5 55t-44.5 18q-29 0 -50 -15.5t-32.5 -39t-11.5 -47.5q0 -30 17 -48t47 -18z" />
    <glyph glyph-name="seven.dnom" horiz-adv-x="297" 
d="M8 0q30 97 84.5 176t143.5 160h-202l12 56h273l-11 -56q-88 -84 -143.5 -163.5t-84.5 -172.5h-72z" />
    <glyph glyph-name="eight.dnom" horiz-adv-x="349" 
d="M130 -10q-58 0 -99 26.5t-41 79.5q0 43 29 74t77 43q-23 11 -36.5 30t-13.5 46q0 49 43.5 81t108.5 32q54 0 92 -24.5t38 -71.5q0 -37 -24.5 -63.5t-66.5 -37.5q28 -12 44.5 -34t16.5 -54q0 -36 -21.5 -65t-59.5 -45.5t-87 -16.5zM178 229q36 0 57.5 23t21.5 52
q0 26 -17 40t-45 14q-35 0 -56.5 -23t-21.5 -51q0 -27 17 -41t44 -14zM134 37q40 0 65 26.5t25 59.5q0 31 -19 47.5t-51 16.5q-40 0 -65 -27t-25 -62q0 -30 19.5 -45.5t50.5 -15.5z" />
    <glyph glyph-name="nine.dnom" horiz-adv-x="340" 
d="M182 402q56 0 93.5 -36.5t37.5 -121.5q0 -40 -12.5 -84t-38 -82.5t-64 -63t-89.5 -24.5q-53 0 -83 28.5t-30 75.5h72q1 -28 14.5 -41t33.5 -13q35 0 66.5 33t52.5 106q-20 -22 -47 -32.5t-55 -10.5q-50 0 -80 30t-30 84q0 42 19.5 76.5t55.5 55t84 20.5zM184 350
q-43 0 -67 -30t-24 -65q0 -37 16.5 -55t44.5 -18q29 0 50 15.5t32.5 39t11.5 47.5q0 30 -17 48t-47 18z" />
    <glyph glyph-name="zero.numr" horiz-adv-x="353" 
d="M179 258q-60 0 -91 38t-31 110q0 47 13.5 94t38.5 85.5t61.5 61.5t82.5 23q60 0 91 -38t31 -110q0 -47 -13.5 -94t-38.5 -85.5t-61.5 -61.5t-82.5 -23zM185 310q26 0 47.5 21.5t37 56t24 72.5t8.5 71q0 87 -55 87q-26 0 -47.5 -21.5t-37 -56t-24 -72.5t-8.5 -71
q0 -87 55 -87z" />
    <glyph glyph-name="one.numr" horiz-adv-x="254" 
d="M116 268l66 311q-27 -13 -56 -21.5t-55 -12.5l12 58q32 7 68.5 21t65.5 36h56l-85 -392h-72z" />
    <glyph glyph-name="two.numr" horiz-adv-x="343" 
d="M31 268l3 14q12 52 37.5 88t83.5 67l72 39q39 21 57.5 41.5t18.5 51.5q0 22 -15 35.5t-41 13.5q-31 0 -54.5 -21t-34.5 -64h-69q13 68 58 102.5t104 34.5q61 0 93 -27.5t32 -74.5q0 -41 -28 -74.5t-79 -61.5l-76 -41q-31 -17 -47 -31.5t-23 -35.5h198l-13 -56h-277z" />
    <glyph glyph-name="three.numr" horiz-adv-x="343" 
d="M192 258q-64 0 -102 29.5t-38 84.5v7t1 8h69q-1 -5 -1 -8.5v-7.5q0 -27 19.5 -44t51.5 -17q42 0 64.5 24.5t22.5 54.5q0 32 -23.5 48t-60.5 16h-12l9 46h27q41 0 64.5 19.5t23.5 50.5q0 23 -16 36t-43 13q-31 0 -52 -16.5t-29 -45.5h-69q12 57 55 85.5t98 28.5
q60 0 93.5 -27t33.5 -73q0 -36 -23 -61t-63 -38q32 -13 45 -35.5t13 -51.5q0 -51 -42 -88.5t-116 -37.5z" />
    <glyph glyph-name="four.numr" horiz-adv-x="340" 
d="M204 268l17 81h-189l10 47l250 264h62l-54 -257h57l-12 -54h-57l-17 -81h-67zM112 403h121l34 162z" />
    <glyph glyph-name="five.numr" horiz-adv-x="343" 
d="M181 258q-57 0 -93 27t-37 85h69q3 -60 64 -60q31 0 52 16t32 41t11 51q0 31 -17 47t-45 16q-24 0 -46.5 -11.5t-36.5 -34.5h-55l69 225h234l-12 -56h-178l-30 -97q34 23 78 23q50 0 81 -28.5t31 -82.5q0 -43 -20.5 -79.5t-59 -59t-91.5 -22.5z" />
    <glyph glyph-name="six.numr" horiz-adv-x="340" 
d="M191 258q-58 0 -94.5 36t-36.5 117q0 42 12.5 87t38 84t64 63.5t89.5 24.5q53 0 83 -28.5t30 -75.5h-72q-1 28 -14.5 41t-33.5 13q-35 0 -66.5 -33t-52.5 -106q20 22 47 32.5t55 10.5q50 0 80 -30t30 -84q0 -42 -20 -76.5t-55.5 -55t-83.5 -20.5zM189 310q43 0 67 29.5
t24 65.5q0 37 -16.5 55t-44.5 18q-29 0 -50 -15.5t-32.5 -39t-11.5 -47.5q0 -30 17 -48t47 -18z" />
    <glyph glyph-name="seven.numr" horiz-adv-x="297" 
d="M61 268q30 97 84.5 176t143.5 160h-202l12 56h273l-11 -56q-88 -84 -143.5 -163.5t-84.5 -172.5h-72z" />
    <glyph glyph-name="eight.numr" horiz-adv-x="349" 
d="M183 258q-58 0 -99 26.5t-41 79.5q0 43 29 74t77 43q-23 11 -36.5 30t-13.5 46q0 49 43.5 81t108.5 32q54 0 92 -24.5t38 -71.5q0 -37 -24.5 -63.5t-66.5 -37.5q28 -12 44.5 -34t16.5 -54q0 -36 -21.5 -65t-59.5 -45.5t-87 -16.5zM231 497q36 0 57.5 23t21.5 52
q0 26 -17 40t-45 14q-35 0 -56.5 -23t-21.5 -51q0 -27 17 -41t44 -14zM187 305q40 0 65 26.5t25 59.5q0 31 -19 47.5t-51 16.5q-40 0 -65 -27t-25 -62q0 -30 19.5 -45.5t50.5 -15.5z" />
    <glyph glyph-name="nine.numr" horiz-adv-x="340" 
d="M238 670q56 0 93.5 -36.5t37.5 -121.5q0 -40 -12.5 -84t-38 -82.5t-64 -63t-89.5 -24.5q-53 0 -83 28.5t-30 75.5h72q1 -28 14.5 -41t33.5 -13q35 0 66.5 33t52.5 106q-20 -22 -47 -32.5t-55 -10.5q-50 0 -80 30t-30 84q0 42 19.5 76.5t55.5 55t84 20.5zM240 618
q-43 0 -67 -30t-24 -65q0 -37 16.5 -55t44.5 -18q29 0 50 15.5t32.5 39t11.5 47.5q0 30 -17 48t-47 18z" />
    <glyph glyph-name="a.alt" horiz-adv-x="562" 
d="M464 498h78l-106 -498h-78l11 90q-32 -49 -78.5 -76t-99.5 -27q-73 0 -115.5 51t-42.5 144q0 62 18.5 120.5t52.5 105.5t81 75t104 28q62 0 99.5 -30t48.5 -77zM223 52q39 0 76 26t63.5 69t36.5 92l3 15q2 10 4 28t2 38q0 55 -26.5 91t-77.5 36q-41 0 -74 -24t-56.5 -63
t-36 -85t-12.5 -90q0 -62 25.5 -97.5t72.5 -35.5z" />
    <glyph glyph-name="dotlessij" horiz-adv-x="547" 
d="M221 66q61 0 103 48t60 130l56 254h88l-107 -488q-25 -111 -83 -172t-159 -61q-88 0 -133.5 45.5t-50.5 127.5h85q0 -47 23 -80.5t79 -33.5q58 0 96 41t54 118l19 89q-62 -84 -161 -84q-75 0 -110 41t-35 102q0 11 1.5 28t6.5 38l63 289h88l-63 -288q-4 -16 -5.5 -31
t-1.5 -25q0 -39 21 -63.5t66 -24.5z" />
    <glyph glyph-name="periodcentered.loclCAT.cap" 
d="M-92 306q-26 0 -40 14t-14 38q0 28 19 47.5t48 19.5q26 0 40 -14t14 -38q0 -29 -19.5 -48t-47.5 -19z" />
    <glyph glyph-name="periodcentered.loclCAT" horiz-adv-x="65" 
d="M51 280q-26 0 -40 14t-14 38q0 28 19 47.5t48 19.5q26 0 40 -14t14 -38q0 -29 -19.5 -48t-47.5 -19z" />
    <glyph glyph-name="uni0327.cap" 
d="M-22 0h48l-22 -59q7 1 15 1q41 0 65 -23.5t24 -63.5q0 -47 -34 -76t-98 -29q-15 0 -34.5 2.5t-41.5 8.5l10 48q37 -10 65 -10q37 0 55 15t18 40q0 20 -12 32.5t-36 12.5q-19 0 -34 -9h-25z" />
    <glyph glyph-name="uni0326.cap" 
d="M-108 -309l9 43q27 10 45.5 26t29.5 44q-24 1 -35 13.5t-11 32.5q0 26 17 43.5t44 17.5q52 0 52 -62q0 -35 -19.5 -68t-53.5 -57.5t-78 -32.5z" />
    <glyph glyph-name="commabelow" horiz-adv-x="500" 
d="M101 -301l8 39q55 19 76 69q-24 0 -35.5 12.5t-11.5 31.5q0 25 17 42.5t42 17.5q49 0 49 -58q0 -36 -19.5 -68.5t-52.5 -55.5t-73 -30z" />
    <glyph glyph-name="uni0328.cap" 
d="M-27 -242q-56 0 -84 23.5t-28 65.5q0 40 21.5 70.5t54.5 52.5t66 35l77 -5q-34 -10 -68 -28.5t-56.5 -45t-22.5 -59.5q0 -49 62 -49q13 0 26.5 3t25.5 7l-13 -60q-29 -10 -61 -10z" />
    <glyph glyph-name="uni0328.round" 
d="M-30 -238q-49 0 -75.5 23.5t-26.5 64.5q0 38 20 70.5t51 56t64 36.5l70 14q-30 -15 -62 -38t-54.5 -53t-22.5 -68q0 -27 15.5 -39.5t43.5 -12.5q12 0 23.5 2.5t22.5 6.5l-11 -52q-28 -11 -58 -11z" />
    <glyph glyph-name="uni0328.round.cap" 
d="M-30 -241q-53 0 -80.5 24.5t-27.5 68.5q0 40 21 71.5t52.5 54t64.5 35.5l76 14q-32 -15 -64.5 -38t-55 -53t-22.5 -66q0 -51 58 -51q12 0 24 2.5t23 7.5l-11 -59q-15 -5 -28.5 -8t-29.5 -3z" />
    <glyph glyph-name="aogonek.alt" horiz-adv-x="562" 
d="M464 498h78l-106 -498h-78l11 90q-32 -49 -78.5 -76t-99.5 -27q-73 0 -115.5 51t-42.5 144q0 62 18.5 120.5t52.5 105.5t81 75t104 28q62 0 99.5 -30t48.5 -77zM223 52q39 0 76 26t63.5 69t36.5 92l3 15q2 10 4 28t2 38q0 55 -26.5 91t-77.5 36q-41 0 -74 -24t-56.5 -63
t-36 -85t-12.5 -90q0 -62 25.5 -97.5t72.5 -35.5zM330 -238q-48 0 -75 24t-27 64q0 36 19.5 67t49.5 54t62 35l77 -6q-34 -8 -66.5 -26.5t-54 -46t-21.5 -59.5q0 -24 15 -38t44 -14q12 0 24 2.5t22 6.5l-11 -53q-27 -10 -58 -10z" />
    <glyph glyph-name="acutecomb.cap" 
d="M-87 773l219 123l34 -77l-231 -95z" />
    <glyph glyph-name="acutecomb.asc" 
d="M-74 802l194 115l33 -69l-203 -93z" />
    <glyph glyph-name="acutecomb.narrow" 
d="M-51 600l142 146l48 -55l-157 -128z" />
    <glyph glyph-name="uni030B.cap" 
d="M-146 768l185 149l43 -60l-199 -130zM30 771l199 127l36 -66l-211 -105z" />
    <glyph glyph-name="IJacute" horiz-adv-x="614" 
d="M269 -16q-101 0 -154.5 49.5t-53.5 144.5q0 6 0.5 17.5t1.5 16.5h91q-1 -8 -1 -14.5v-13.5q0 -129 121 -129q75 0 120.5 52.5t66.5 152.5l87 410h93l-90 -422q-26 -124 -93.5 -194t-188.5 -70zM176 309h-92l77 361h93zM129 773l219 123l34 -77l-231 -95zM519 773l219 123
l34 -77l-231 -95z" />
    <glyph glyph-name="ijacute" horiz-adv-x="547" 
d="M221 66q61 0 103 48t60 130l56 254h88l-107 -488q-25 -111 -83 -172t-159 -61q-88 0 -133.5 45.5t-50.5 127.5h85q0 -47 23 -80.5t79 -33.5q58 0 96 41t54 118l19 89q-62 -84 -161 -84q-75 0 -110 41t-35 102q0 11 1.5 28t6.5 38l63 289h88l-63 -288q-4 -16 -5.5 -31
t-1.5 -25q0 -39 21 -63.5t66 -24.5zM102 606l172 143l42 -61l-186 -122zM428 606l172 143l42 -61l-186 -122z" />
    <glyph glyph-name="aacute.alt" horiz-adv-x="562" 
d="M464 498h78l-106 -498h-78l11 90q-32 -49 -78.5 -76t-99.5 -27q-73 0 -115.5 51t-42.5 144q0 62 18.5 120.5t52.5 105.5t81 75t104 28q62 0 99.5 -30t48.5 -77zM223 52q39 0 76 26t63.5 69t36.5 92l3 15q2 10 4 28t2 38q0 55 -26.5 91t-77.5 36q-41 0 -74 -24t-56.5 -63
t-36 -85t-12.5 -90q0 -62 25.5 -97.5t72.5 -35.5zM259 606l172 143l42 -61l-186 -122z" />
    <glyph glyph-name="gravecomb.cap" 
d="M-71 896l182 -125l-29 -47l-198 102z" />
    <glyph glyph-name="gravecomb.narrow" 
d="M-13 744l88 -156l-42 -27l-109 141z" />
    <glyph glyph-name="agrave.alt" horiz-adv-x="562" 
d="M464 498h78l-106 -498h-78l11 90q-32 -49 -78.5 -76t-99.5 -27q-73 0 -115.5 51t-42.5 144q0 62 18.5 120.5t52.5 105.5t81 75t104 28q62 0 99.5 -30t48.5 -77zM223 52q39 0 76 26t63.5 69t36.5 92l3 15q2 10 4 28t2 38q0 55 -26.5 91t-77.5 36q-41 0 -74 -24t-56.5 -63
t-36 -85t-12.5 -90q0 -62 25.5 -97.5t72.5 -35.5zM294 749l128 -148l-38 -35l-145 131z" />
    <glyph glyph-name="uni0302.cap" 
d="M52 902l121 -119l-35 -44l-117 91l-156 -91l-28 45l167 118h48z" />
    <glyph glyph-name="uni0302.narrow" 
d="M57 739l85 -159l-41 -26l-75 109l-130 -109l-32 35l148 150h45z" />
    <glyph glyph-name="tildecomb.cap" 
d="M-2 786q-11 13 -21.5 20.5t-23.5 7.5q-16 0 -32 -14t-28 -55h-61q13 59 46.5 96t79.5 37q29 0 46.5 -12.5t34.5 -31.5q11 -13 21 -20.5t24 -7.5q16 0 32 14t28 55h61q-13 -59 -46.5 -96t-79.5 -37q-29 0 -47 12.5t-34 31.5z" />
    <glyph glyph-name="tildecomb.narrow" 
d="M39 669q11 -14 18.5 -21t16.5 -7q13 0 26 14.5t22 52.5h53q-11 -57 -39.5 -91.5t-64.5 -34.5q-22 0 -37.5 12t-30.5 31q-11 14 -18.5 21t-16.5 7q-13 0 -26 -14.5t-22 -52.5h-53q11 57 39.5 91.5t64.5 34.5q22 0 37.5 -12t30.5 -31z" />
    <glyph glyph-name="acircumflex.alt" horiz-adv-x="562" 
d="M464 498h78l-106 -498h-78l11 90q-32 -49 -78.5 -76t-99.5 -27q-73 0 -115.5 51t-42.5 144q0 62 18.5 120.5t52.5 105.5t81 75t104 28q62 0 99.5 -30t48.5 -77zM223 52q39 0 76 26t63.5 69t36.5 92l3 15q2 10 4 28t2 38q0 55 -26.5 91t-77.5 36q-41 0 -74 -24t-56.5 -63
t-36 -85t-12.5 -90q0 -62 25.5 -97.5t72.5 -35.5zM383 744l106 -145l-37 -39l-99 112l-146 -112l-30 39l162 145h44z" />
    <glyph glyph-name="atilde.alt" horiz-adv-x="562" 
d="M464 498h78l-106 -498h-78l11 90q-32 -49 -78.5 -76t-99.5 -27q-73 0 -115.5 51t-42.5 144q0 62 18.5 120.5t52.5 105.5t81 75t104 28q62 0 99.5 -30t48.5 -77zM223 52q39 0 76 26t63.5 69t36.5 92l3 15q2 10 4 28t2 38q0 55 -26.5 91t-77.5 36q-41 0 -74 -24t-56.5 -63
t-36 -85t-12.5 -90q0 -62 25.5 -97.5t72.5 -35.5zM327 625q-23 27 -41 27q-14 0 -27 -14t-24 -52h-56q12 58 42.5 92t70.5 34q25 0 41.5 -11.5t32.5 -30.5q23 -27 41 -27q13 0 27 14.5t24 51.5h56q-12 -58 -42 -92t-71 -34q-25 0 -41 11.5t-33 30.5z" />
    <glyph glyph-name="uni030C.cap" 
d="M-17 752l-121 119l35 44l117 -91l156 91l28 -45l-167 -118h-48z" />
    <glyph glyph-name="uni0315.cap" 
d="M6 486h-41l39 184h75l-2 -11q-11 -49 -31 -96t-40 -77z" />
    <glyph glyph-name="uni0315.short" 
d="M16 553h-41l32 147h69l-2 -10q-9 -43 -23.5 -75t-34.5 -62z" />
    <glyph glyph-name="uni0304.cap" 
d="M-151 765l16 68h318l-16 -68h-318z" />
    <glyph glyph-name="uni0304.narrow" 
d="M-114 600l14 62h249l-14 -62h-249z" />
    <glyph glyph-name="amacron.alt" horiz-adv-x="562" 
d="M464 498h78l-106 -498h-78l11 90q-32 -49 -78.5 -76t-99.5 -27q-73 0 -115.5 51t-42.5 144q0 62 18.5 120.5t52.5 105.5t81 75t104 28q62 0 99.5 -30t48.5 -77zM223 52q39 0 76 26t63.5 69t36.5 92l3 15q2 10 4 28t2 38q0 55 -26.5 91t-77.5 36q-41 0 -74 -24t-56.5 -63
t-36 -85t-12.5 -90q0 -62 25.5 -97.5t72.5 -35.5zM197 599l14 62h279l-14 -62h-279z" />
    <glyph glyph-name="uni0308.cap" 
d="M-92 756q-22 0 -36 12.5t-14 34.5q0 25 17.5 43t44.5 18q22 0 36 -12.5t14 -34.5q0 -25 -18 -43t-44 -18zM119 756q-22 0 -36 12.5t-14 34.5q0 25 17.5 43t44.5 18q22 0 36 -12.5t14 -34.5q0 -25 -18 -43t-44 -18z" />
    <glyph glyph-name="uni0308.narrow" 
d="M-70 580q-20 0 -33.5 12t-13.5 32q0 23 17 40.5t42 17.5q20 0 33.5 -12t13.5 -32q0 -23 -17 -40.5t-42 -17.5zM93 580q-20 0 -33.5 12t-13.5 32q0 23 17 40.5t42 17.5q19 0 33 -12t14 -32q0 -23 -17 -40.5t-42 -17.5z" />
    <glyph glyph-name="uni0306.cap" 
d="M13 757q-66 0 -105 33.5t-39 86.5v9.5t1 11.5h63q0 -39 23 -58.5t63 -19.5q45 0 73.5 22t39.5 56h63q-13 -62 -62 -101.5t-120 -39.5z" />
    <glyph glyph-name="adieresis.alt" horiz-adv-x="562" 
d="M464 498h78l-106 -498h-78l11 90q-32 -49 -78.5 -76t-99.5 -27q-73 0 -115.5 51t-42.5 144q0 62 18.5 120.5t52.5 105.5t81 75t104 28q62 0 99.5 -30t48.5 -77zM223 52q39 0 76 26t63.5 69t36.5 92l3 15q2 10 4 28t2 38q0 55 -26.5 91t-77.5 36q-41 0 -74 -24t-56.5 -63
t-36 -85t-12.5 -90q0 -62 25.5 -97.5t72.5 -35.5zM244 580q-20 0 -33.5 12t-13.5 32q0 23 17 40.5t42 17.5q20 0 33.5 -12t13.5 -32q0 -23 -17 -40.5t-42 -17.5zM431 580q-20 0 -33.5 12t-13.5 32q0 23 17 40.5t42 17.5q19 0 33 -12t14 -32q0 -23 -17 -40.5t-42 -17.5z" />
    <glyph glyph-name="abreve.alt" horiz-adv-x="562" 
d="M464 498h78l-106 -498h-78l11 90q-32 -49 -78.5 -76t-99.5 -27q-73 0 -115.5 51t-42.5 144q0 62 18.5 120.5t52.5 105.5t81 75t104 28q62 0 99.5 -30t48.5 -77zM223 52q39 0 76 26t63.5 69t36.5 92l3 15q2 10 4 28t2 38q0 55 -26.5 91t-77.5 36q-41 0 -74 -24t-56.5 -63
t-36 -85t-12.5 -90q0 -62 25.5 -97.5t72.5 -35.5zM337 572q-62 0 -94.5 34t-32.5 83v12.5t2 13.5h59q-1 -2 -1 -5v-5q0 -36 19.5 -55.5t54.5 -19.5q40 0 66 23.5t38 61.5h59q-15 -62 -59 -102.5t-111 -40.5z" />
    <glyph glyph-name="uni0307.cap" 
d="M13 754q-23 0 -38 13.5t-15 36.5q0 27 19 46t47 19q23 0 38 -13.5t15 -36.5q0 -27 -18.5 -46t-47.5 -19z" />
    <glyph glyph-name="dotbelowcomb.cap" 
d="M-27 -200q-23 0 -38 13.5t-15 36.5q0 27 19 46t47 19q23 0 38 -13.5t15 -36.5q0 -27 -18.5 -46t-47.5 -19z" />
    <glyph glyph-name="uni030A.cap" 
d="M16 734q-52 0 -78.5 29.5t-26.5 72.5q0 34 17 63t45.5 46.5t64.5 17.5q52 0 78.5 -29.5t26.5 -72.5q0 -34 -16.5 -63t-45.5 -46.5t-65 -17.5zM17 783q31 0 51.5 22.5t20.5 55.5q0 24 -13.5 38.5t-38.5 14.5q-31 0 -51.5 -22.5t-20.5 -55.5q0 -24 13.5 -38.5t38.5 -14.5z
" />
    <glyph glyph-name="aring.alt" horiz-adv-x="562" 
d="M464 498h78l-106 -498h-78l11 90q-32 -49 -78.5 -76t-99.5 -27q-73 0 -115.5 51t-42.5 144q0 62 18.5 120.5t52.5 105.5t81 75t104 28q62 0 99.5 -30t48.5 -77zM223 52q39 0 76 26t63.5 69t36.5 92l3 15q2 10 4 28t2 38q0 55 -26.5 91t-77.5 36q-41 0 -74 -24t-56.5 -63
t-36 -85t-12.5 -90q0 -62 25.5 -97.5t72.5 -35.5zM341 557q-51 0 -77 27.5t-26 71.5q0 34 16.5 62t44.5 45t63 17q51 0 77 -28t26 -71q0 -33 -16.5 -61.5t-44.5 -45.5t-63 -17zM341 601q33 0 54 23t21 58q0 23 -14 38.5t-40 15.5q-33 0 -54 -23t-21 -58q0 -23 14 -38.5
t40 -15.5z" />
    </font>
</defs>
</svg>
