<?xml version="1.0" standalone="no"?>
<!DOCTYPE svg PUBLIC "-//W3C//DTD SVG 1.1//EN" "http://www.w3.org/Graphics/SVG/1.1/DTD/svg11.dtd" >
<svg xmlns="http://www.w3.org/2000/svg" xmlns:xlink="http://www.w3.org/1999/xlink" version="1.1">
<metadata>
Created by FontForge 20201107 at Tue Sep 18 18:48:33 2018
 By 
(c)2018, McDonald's Corporation. All rights reserved.
</metadata>
<defs>
<font id="Speedee-Black" horiz-adv-x="0" >
  <font-face 
    font-family="Speedee Black"
    font-weight="900"
    font-stretch="normal"
    units-per-em="1000"
    panose-1="2 11 9 3 3 5 2 2 2 4"
    ascent="800"
    descent="-200"
    x-height="507"
    cap-height="670"
    bbox="-220 -362 1257 996"
    underline-thickness="40"
    underline-position="-105"
    unicode-range="U+000D-FB04"
  />
<missing-glyph horiz-adv-x="500" 
d="M457 0h-414v670h414v-670zM388 61v548h-277v-548h277z" />
    <glyph glyph-name="f_f" unicode="ff" horiz-adv-x="714" 
d="M8 507h68q3 92 50 149t152 57q28 0 52.5 -4t46.5 -11l-25 -119q-4 1 -9 1h-10q-52 0 -52 -56v-17h117q3 92 50 149t152 57q38 0 71 -7.5t61 -21.5l-27 -117q-13 5 -25 8t-25 3q-52 0 -52 -56v-15h96v-130h-96v-377h-205v377h-117v-377h-205v377h-68v130z" />
    <glyph glyph-name="f_i" unicode="fi" horiz-adv-x="661" 
d="M506 764q47 0 79 -31t32 -75t-32 -75t-79 -31t-79 31t-32 75t32 75t79 31zM8 507h68q4 99 53 152.5t152 53.5q24 0 46 -3.5t45 -11.5l-27 -121q-5 1 -8 1h-5q-51 0 -51 -57v-14h79v-130h-79v-377h-205v377h-68v130zM404 0v507h205v-507h-205z" />
    <glyph glyph-name="f_l" unicode="fl" horiz-adv-x="659" 
d="M8 507h68q4 99 53 152.5t152 53.5q24 0 46 -3.5t45 -11.5l-27 -121q-5 1 -8 1h-5q-51 0 -51 -57v-14h79v-130h-79v-377h-205v377h-68v130zM402 700h205v-700h-205v700z" />
    <glyph glyph-name="f_f_i" unicode="ffi" horiz-adv-x="984" 
d="M829 764q47 0 79 -31t32 -75t-32 -75t-79 -31t-79 31t-32 75t32 75t79 31zM8 507h68q3 92 50 149t152 57q28 0 52.5 -4t46.5 -11l-25 -119q-4 1 -9 1h-10q-52 0 -52 -56v-17h118q4 99 53 152.5t152 53.5q24 0 46 -3.5t45 -11.5l-27 -121q-4 1 -7.5 1h-5.5q-51 0 -51 -57
v-14h79v-130h-79v-377h-205v377h-118v-377h-205v377h-68v130zM727 0v507h205v-507h-205z" />
    <glyph glyph-name="f_f_l" unicode="ffl" horiz-adv-x="981" 
d="M8 507h68q3 92 50 149t152 57q28 0 52.5 -4t46.5 -11l-25 -119q-4 1 -9 1h-10q-52 0 -52 -56v-17h118q4 99 53 152.5t152 53.5q24 0 46 -3.5t45 -11.5l-27 -121q-4 1 -7.5 1h-5.5q-51 0 -51 -57v-14h79v-130h-79v-377h-205v377h-118v-377h-205v377h-68v130zM724 700h205
v-700h-205v700z" />
    <glyph glyph-name=".notdef" horiz-adv-x="500" 
d="M457 0h-414v670h414v-670zM388 61v548h-277v-548h277z" />
    <glyph glyph-name="uni0000" 
 />
    <glyph glyph-name="uni0000" 
 />
    <glyph glyph-name="uni000D" unicode="&#xd;" horiz-adv-x="200" 
 />
    <glyph glyph-name="space" unicode=" " horiz-adv-x="200" 
 />
    <glyph glyph-name="exclam" unicode="!" horiz-adv-x="296" 
d="M218 225h-140l-38 446h216zM148 -12q-44 0 -74 29t-30 75t30 75t74 29t74 -29t30 -75t-30 -75t-74 -29z" />
    <glyph glyph-name="quotedbl" unicode="&#x22;" horiz-adv-x="488" 
d="M181 429h-93q-23 65 -32.5 114t-9.5 102v55h177v-55q0 -53 -9 -102t-33 -114zM401 429h-93q-23 65 -32.5 114t-9.5 102v55h177v-55q0 -53 -9 -102t-33 -114z" />
    <glyph glyph-name="numbersign" unicode="#" horiz-adv-x="590" 
d="M34 0l25 145h-54v132h77l20 116h-69v133h92l22 128h160l-22 -128h91l22 128h159l-22 -128h54v-133h-77l-20 -116h68v-132h-91l-25 -145h-159l25 145h-91l-25 -145h-160zM242 277h91l20 116h-91z" />
    <glyph glyph-name="dollar" unicode="$" horiz-adv-x="590" 
d="M571 207q0 -92 -60.5 -146.5t-168.5 -62.5v-111h-95v112q-101 12 -159.5 66.5t-69.5 142.5h210q4 -44 23.5 -63.5t54.5 -19.5q34 0 47.5 17t13.5 40q0 21 -14.5 34.5t-55.5 23.5l-79 20q-94 24 -138.5 75t-44.5 120q0 64 27.5 107.5t75.5 68t109 31.5v111h95v-110
q97 -10 151 -67t68 -153h-206q-4 42 -19 68t-48 26q-28 0 -41 -17.5t-13 -40.5q0 -27 15.5 -43t50.5 -25l72 -19q82 -22 125 -48.5t58.5 -60t15.5 -76.5z" />
    <glyph glyph-name="percent" unicode="%" horiz-adv-x="908" 
d="M216 0l310 660h164l-310 -660h-164zM191 670q87 0 129.5 -55t42.5 -151t-42.5 -151t-129.5 -55t-129.5 55t-42.5 151t42.5 151t129.5 55zM191 355q17 0 21.5 23.5t4.5 85.5t-4.5 85.5t-21.5 23.5t-21.5 -23.5t-4.5 -85.5t4.5 -85.5t21.5 -23.5zM717 402q87 0 129.5 -55
t42.5 -151t-42.5 -151t-129.5 -55t-129.5 55t-42.5 151t42.5 151t129.5 55zM717 87q17 0 21.5 23.5t4.5 85.5t-4.5 85.5t-21.5 23.5t-21.5 -23.5t-4.5 -85.5t4.5 -85.5t21.5 -23.5z" />
    <glyph glyph-name="ampersand" unicode="&#x26;" horiz-adv-x="743" 
d="M506 350h163q0 -119 -61 -211q13 -2 28 -2q26 0 48 6l21 -133q-25 -10 -48 -14t-42 -4q-38 0 -71 10.5t-60 25.5q-38 -20 -83 -30.5t-97 -10.5q-123 0 -197 50t-74 144q0 68 38 111.5t101 69.5q-54 77 -54 145q0 77 59 120t153 43q96 0 149.5 -43.5t53.5 -118.5
q0 -58 -34 -97t-107 -69l89 -111q19 51 25 119zM289 508q0 -15 6.5 -32t28.5 -48q23 19 30.5 38.5t7.5 38.5q0 26 -10 38t-27 12q-14 0 -25 -10.5t-11 -36.5zM241 197q0 -41 24.5 -64t68.5 -23q24 0 45 7l-119 138q-9 -11 -14 -25.5t-5 -32.5z" />
    <glyph glyph-name="quotesingle" unicode="'" horiz-adv-x="247" 
d="M170 429h-93q-23 65 -32.5 114t-9.5 102v55h177v-55q0 -53 -9 -102t-33 -114z" />
    <glyph glyph-name="parenleft" unicode="(" horiz-adv-x="378" 
d="M351 -100h-139q-76 94 -115 197t-39 213q0 224 154 410h139q-53 -94 -75 -200.5t-22 -209.5t22 -207.5t75 -202.5z" />
    <glyph glyph-name="parenright" unicode=")" horiz-adv-x="378" 
d="M166 -100h-139q53 94 75 200.5t22 209.5t-22 207.5t-75 202.5h139q154 -190 154 -410q0 -226 -154 -410z" />
    <glyph glyph-name="asterisk" unicode="*" horiz-adv-x="366" 
d="M116 695h134q-7 -35 -14.5 -62t-16.5 -55q25 18 48.5 34t52.5 32l41 -128q-34 -4 -62 -5t-59 -1q45 -32 94 -77l-107 -78q-13 31 -23.5 58t-20.5 56q-10 -29 -20.5 -56t-23.5 -58l-107 78q49 45 94 77q-31 0 -59 1t-62 5l41 128q29 -16 52.5 -32t48.5 -34q-9 28 -16.5 55
t-14.5 62z" />
    <glyph glyph-name="plus" unicode="+" horiz-adv-x="590" 
d="M74 399h152v156h139v-156h151v-137h-151v-158h-139v158h-152v137z" />
    <glyph glyph-name="comma" unicode="," horiz-adv-x="238" 
d="M15 -155v81q75 14 101 63h-7q-42 0 -70 27t-28 75q0 47 30 77.5t78 30.5q49 0 81 -33.5t32 -100.5q0 -93 -58.5 -151.5t-158.5 -68.5z" />
    <glyph glyph-name="hyphen" unicode="-" horiz-adv-x="370" 
d="M16 172v155h338v-155h-338z" />
    <glyph glyph-name="period" unicode="." horiz-adv-x="238" 
d="M119 -15q-45 0 -76 30t-31 77t31 77t76 30t76 -30t31 -77t-31 -77t-76 -30z" />
    <glyph glyph-name="slash" unicode="/" horiz-adv-x="384" 
d="M-1 -105l211 790h172l-210 -790h-173z" />
    <glyph glyph-name="zero" unicode="0" horiz-adv-x="596" 
d="M298 670q92 0 151.5 -42t88.5 -119t29 -182t-29 -182t-88.5 -119t-151.5 -42t-151.5 42t-88.5 119t-29 182t29 182t88.5 119t151.5 42zM298 128q30 0 43.5 46.5t13.5 152.5q0 104 -13.5 151.5t-43.5 47.5t-43.5 -46.5t-13.5 -152.5q0 -104 13.5 -151.5t43.5 -47.5z" />
    <glyph glyph-name="one" unicode="1" horiz-adv-x="452" 
d="M26 407v160q57 9 106 28t90 59h152v-654h-205v437q-35 -11 -71.5 -18t-71.5 -12z" />
    <glyph glyph-name="two" unicode="2" horiz-adv-x="576" 
d="M34 0v23q0 86 37 149.5t123 127.5l66 49q40 29 58 54t18 59q0 32 -13 49t-36 17q-29 0 -43.5 -25.5t-18.5 -81.5h-193q6 119 78 184t190 65q74 0 130 -25.5t87.5 -71.5t31.5 -108q0 -61 -30.5 -111t-95.5 -96l-81 -58q-46 -32 -60 -50h263v-150h-511z" />
    <glyph glyph-name="three" unicode="3" horiz-adv-x="584" 
d="M287 -16q-131 0 -196.5 64.5t-75.5 170.5h196q3 -53 23 -76.5t55 -23.5q31 0 48.5 21t17.5 56q0 38 -25.5 62.5t-88.5 24.5h-28v115h24q46 0 71 17t25 58q0 24 -12.5 42t-41.5 18q-20 0 -35.5 -13.5t-18.5 -46.5h-196q13 93 78.5 145t182.5 52q72 0 128.5 -22t89 -64
t32.5 -100q0 -44 -19.5 -81t-67.5 -62q45 -19 68.5 -45.5t32 -54.5t8.5 -52q0 -98 -74 -151.5t-201 -53.5z" />
    <glyph glyph-name="four" unicode="4" horiz-adv-x="581" 
d="M20 122v130l301 402h172v-388h70v-144h-70v-122h-187v122h-286zM186 266h120v162z" />
    <glyph glyph-name="five" unicode="5" horiz-adv-x="585" 
d="M56 271l26 383h433v-150h-277l-7 -96q22 14 51 22.5t63 8.5q98 0 154 -59t56 -155q0 -75 -33.5 -129t-94.5 -83t-145 -29q-112 0 -175 54t-73 149h191q5 -27 18.5 -44t41.5 -17q58 0 58 95q0 47 -17.5 68t-45.5 21q-39 0 -64 -39h-160z" />
    <glyph glyph-name="six" unicode="6" horiz-adv-x="587" 
d="M303 -16q-135 0 -204 84.5t-69 265.5q0 100 29.5 176t92 118t161.5 42q95 0 159 -45t81 -140h-206q-5 27 -16 42t-30 15q-31 0 -49 -36t-22 -114q50 45 132 45q94 0 148.5 -57t54.5 -154q0 -74 -33 -128t-92.5 -84t-136.5 -30zM297 112q30 0 47.5 27t17.5 73q0 47 -16 73
t-48 26q-33 0 -49 -27t-16 -74q0 -44 15.5 -71t48.5 -27z" />
    <glyph glyph-name="seven" unicode="7" horiz-adv-x="524" 
d="M12 504v150h497v-153q-105 -130 -159 -249t-62 -252h-203q10 97 38.5 181.5t78.5 163.5t125 159h-315z" />
    <glyph glyph-name="eight" unicode="8" horiz-adv-x="602" 
d="M301 670q120 0 188.5 -46t68.5 -125q0 -51 -27.5 -88t-77.5 -59q60 -22 93.5 -63.5t33.5 -100.5q0 -63 -35 -108.5t-98 -70.5t-146 -25t-146 25t-98 70.5t-35 108.5q0 59 33.5 100.5t93.5 63.5q-50 22 -77.5 59t-27.5 88q0 79 68.5 125t188.5 46zM301 409q23 0 38 17.5
t15 54.5q0 36 -14.5 53.5t-38.5 17.5t-38.5 -17.5t-14.5 -53.5q0 -37 15 -54.5t38 -17.5zM301 105q25 0 46 23.5t21 70.5q0 49 -21 71.5t-46 22.5t-46 -22.5t-21 -71.5q0 -47 21 -70.5t46 -23.5z" />
    <glyph glyph-name="nine" unicode="9" horiz-adv-x="590" 
d="M289 670q80 0 141 -34t95.5 -105.5t34.5 -185.5q0 -109 -30.5 -190.5t-94 -126t-163.5 -44.5q-92 0 -157 45t-81 140h207q6 -57 47 -57q31 0 48.5 36t21.5 115q-47 -46 -121 -46q-63 0 -111.5 26.5t-76 74t-27.5 111.5q0 74 33.5 128t94 83.5t139.5 29.5zM293 542
q-31 0 -49 -24t-18 -74t17.5 -75.5t46.5 -25.5q33 0 49 26.5t16 76.5q0 46 -16.5 71t-45.5 25z" />
    <glyph glyph-name="colon" unicode=":" horiz-adv-x="238" 
d="M119 -15q-45 0 -76 30t-31 77t31 77t76 30t76 -30t31 -77t-31 -77t-76 -30zM119 296q-45 0 -76 30t-31 77t31 77t76 30t76 -30t31 -77t-31 -77t-76 -30z" />
    <glyph glyph-name="semicolon" unicode=";" horiz-adv-x="238" 
d="M15 -155v81q75 14 101 63h-7q-42 0 -70 27t-28 75q0 47 30 77.5t78 30.5q49 0 81 -33.5t32 -100.5q0 -93 -58.5 -151.5t-158.5 -68.5zM119 296q-45 0 -76 30t-31 77t31 77t76 30t76 -30t31 -77t-31 -77t-76 -30z" />
    <glyph glyph-name="less" unicode="&#x3c;" horiz-adv-x="590" 
d="M516 79l-442 183v137l442 182v-146l-285 -105l285 -106v-145z" />
    <glyph glyph-name="equal" unicode="=" horiz-adv-x="590" 
d="M74 359v137h442v-137h-442zM74 145v137h442v-137h-442z" />
    <glyph glyph-name="greater" unicode="&#x3e;" horiz-adv-x="590" 
d="M74 79v146l285 105l-285 106v145l442 -182v-137z" />
    <glyph glyph-name="question" unicode="?" horiz-adv-x="492" 
d="M184 466h-197q5 104 69 162t180 58q74 0 131 -23t88.5 -65.5t31.5 -102.5q0 -61 -30 -96.5t-77 -69.5l-39 -28q-20 -14 -27.5 -27t-7.5 -32v-17h-183v31q0 45 17.5 74t60.5 63l29 23q27 22 35 36t8 39q0 23 -9.5 38t-32.5 15q-19 0 -32 -17t-15 -61zM214 -12
q-44 0 -74 29t-30 75t30 75t74 29t74 -29t30 -75t-30 -75t-74 -29z" />
    <glyph glyph-name="at" unicode="@" horiz-adv-x="960" 
d="M483 -190q-139 0 -242.5 54.5t-160.5 156t-57 242.5q0 99 32 182t93 144t148 94.5t197 33.5q142 0 243.5 -53.5t155.5 -149.5t54 -222q0 -88 -31.5 -149.5t-86 -93.5t-123.5 -32q-26 0 -55 7t-53 26t-37 57q-24 -35 -62.5 -53t-82.5 -18q-57 0 -98.5 28.5t-63.5 77.5
t-22 111q0 63 22.5 112t62.5 77t92 28q40 0 75.5 -17t56.5 -53l12 69h161v-283q0 -40 12 -55.5t30 -15.5q37 0 59.5 50.5t22.5 126.5q0 113 -44 186t-121.5 108t-178.5 35q-115 0 -195 -44t-122 -123.5t-42 -185.5q0 -113 45 -194.5t126.5 -125t191.5 -43.5q51 0 106.5 12
t113.5 43l21 -91q-60 -31 -123.5 -45t-131.5 -14zM472 167q22 0 37.5 19t15.5 60v15q0 41 -14.5 59t-37.5 18q-28 0 -39 -24t-11 -61q0 -36 10.5 -61t38.5 -25z" />
    <glyph glyph-name="A" unicode="A" horiz-adv-x="678" 
d="M473 0l-32 108h-212l-31 -108h-198l237 670h205l236 -670h-205zM271 251h127l-64 216z" />
    <glyph glyph-name="B" unicode="B" horiz-adv-x="657" 
d="M68 0v670h286q126 0 184.5 -45t58.5 -123q0 -41 -21 -79t-87 -63q74 -21 108 -64.5t34 -104.5q0 -191 -254 -191h-309zM320 534h-54v-129h60q40 0 51.5 20.5t11.5 43.5q0 35 -17.5 50t-51.5 15zM335 283h-69v-147h63q87 0 87 74q0 32 -18.5 52.5t-62.5 20.5z" />
    <glyph glyph-name="C" unicode="C" horiz-adv-x="697" 
d="M360 -16q-109 0 -182.5 44t-110.5 123t-37 184q0 103 37 182t110.5 124t182.5 45q132 0 212 -72.5t101 -199.5h-223q-18 121 -95 121q-49 0 -77 -52.5t-28 -147.5t28 -147t79 -52q37 0 59.5 29.5t31.5 84.5h223q-11 -80 -51.5 -140t-106 -93t-153.5 -33z" />
    <glyph glyph-name="D" unicode="D" horiz-adv-x="715" 
d="M68 0v670h247q119 0 201.5 -43t125.5 -116t43 -162q0 -105 -43 -183.5t-125.5 -122t-202.5 -43.5h-246zM315 524h-47v-377h47q75 0 112.5 49t37.5 143q0 89 -38.5 137t-111.5 48z" />
    <glyph glyph-name="E" unicode="E" horiz-adv-x="580" 
d="M68 0v670h468v-154h-263v-106h232v-147h-232v-109h267v-154h-472z" />
    <glyph glyph-name="F" unicode="F" horiz-adv-x="566" 
d="M68 0v670h465v-154h-257v-128h218v-150h-218v-238h-208z" />
    <glyph glyph-name="G" unicode="G" horiz-adv-x="714" 
d="M30 335q0 102 38.5 181.5t114.5 124.5t188 45q123 0 200 -63.5t105 -178.5h-224q-12 46 -34 67.5t-55 21.5q-57 0 -85 -51.5t-28 -146.5t29 -148t92 -53q38 0 65.5 19.5t40.5 65.5h-98v147h307v-54q0 -63 -19 -121.5t-58 -105t-99 -74t-143 -27.5q-108 0 -183.5 44
t-114.5 123t-39 184z" />
    <glyph glyph-name="H" unicode="H" horiz-adv-x="735" 
d="M68 0v670h210v-256h179v256h210v-670h-210v260h-179v-260h-210z" />
    <glyph glyph-name="I" unicode="I" horiz-adv-x="346" 
d="M68 0v670h210v-670h-210z" />
    <glyph glyph-name="J" unicode="J" horiz-adv-x="601" 
d="M276 -16q-124 0 -196 73t-78 199h212q0 -52 13.5 -85t47.5 -33q31 0 45.5 28t14.5 72v432h210v-403q0 -141 -73.5 -212t-195.5 -71z" />
    <glyph glyph-name="K" unicode="K" horiz-adv-x="694" 
d="M68 0v670h210v-271l159 271h240l-219 -320q27 -14 50 -34t44 -44q49 -57 80.5 -129t51.5 -143h-240q-6 28 -16 60.5t-21.5 61.5t-20.5 46q-21 40 -51.5 69.5t-56.5 33.5v-271h-210z" />
    <glyph glyph-name="L" unicode="L" horiz-adv-x="550" 
d="M68 0v670h210v-509h242v-161h-452z" />
    <glyph glyph-name="M" unicode="M" horiz-adv-x="861" 
d="M30 0l75 670h200l125 -388l126 388h201l74 -670h-207l-29 369l-106 -323h-121l-107 331l-31 -377h-200z" />
    <glyph glyph-name="N" unicode="N" horiz-adv-x="733" 
d="M68 0v670h197l195 -368v368h205v-670h-196l-196 372v-372h-205z" />
    <glyph glyph-name="O" unicode="O" horiz-adv-x="730" 
d="M365 686q108 0 182.5 -45t113.5 -124t39 -182q0 -102 -39 -181.5t-113.5 -124.5t-182.5 -45t-182.5 45t-113.5 124t-39 182t39 182t113.5 124t182.5 45zM365 137q55 0 85 51.5t30 146.5t-30 146.5t-85 51.5t-85 -51.5t-30 -146.5t30 -146.5t85 -51.5z" />
    <glyph glyph-name="P" unicode="P" horiz-adv-x="631" 
d="M339 218h-61v-218h-210v670h292q119 0 191 -56t72 -162q0 -114 -72.5 -174t-211.5 -60zM309 532h-31v-177h31q47 0 72.5 23.5t25.5 65.5q0 44 -25.5 66t-72.5 22z" />
    <glyph glyph-name="Q" unicode="Q" horiz-adv-x="730" 
d="M681 -165q-126 3 -195 40.5t-108 108.5h-13q-108 0 -182.5 45t-113.5 124t-39 182t39 182t113.5 124t182.5 45t182.5 -45t113.5 -124t39 -182q0 -105 -40.5 -186t-118.5 -124q27 -5 61.5 -7.5t78.5 -2.5v-180zM365 137q55 0 85 51.5t30 146.5t-30 146.5t-85 51.5
t-85 -51.5t-30 -146.5t30 -146.5t85 -51.5z" />
    <glyph glyph-name="R" unicode="R" horiz-adv-x="688" 
d="M68 0v670h301q125 0 192 -51t67 -139q0 -77 -45.5 -120t-111.5 -60q58 -27 97 -74t62 -105t34 -121h-225q-10 67 -33.5 122.5t-57.5 89.5t-75 38v-250h-205zM315 534h-42v-157h46q47 0 72 21t25 57q0 41 -27 60t-74 19z" />
    <glyph glyph-name="S" unicode="S" horiz-adv-x="628" 
d="M321 -16q-131 0 -205 58.5t-86 168.5h205q6 -50 30 -70.5t58 -20.5q33 0 49.5 16.5t16.5 41.5q0 21 -14.5 38.5t-48.5 27.5l-104 29q-88 25 -131.5 72.5t-43.5 127.5q0 72 36 119t96.5 70.5t133.5 23.5q125 0 190.5 -57.5t79.5 -164.5h-201q-4 38 -22 62t-52 24
q-26 0 -42 -15t-16 -41q0 -48 55 -62l102 -27q78 -21 118.5 -53t55.5 -72t15 -83q0 -100 -71.5 -156.5t-203.5 -56.5z" />
    <glyph glyph-name="T" unicode="T" horiz-adv-x="602" 
d="M196 0v516h-186v154h582v-154h-186v-516h-210z" />
    <glyph glyph-name="U" unicode="U" horiz-adv-x="708" 
d="M354 138q45 0 66.5 32.5t21.5 92.5v407h210v-388q0 -144 -76.5 -221t-221.5 -77t-221.5 77t-76.5 221v388h210v-407q0 -60 21.5 -92.5t66.5 -32.5z" />
    <glyph glyph-name="V" unicode="V" horiz-adv-x="664" 
d="M214 670l123 -444l121 444h204l-230 -670h-200l-230 670h212z" />
    <glyph glyph-name="W" unicode="W" horiz-adv-x="910" 
d="M150 0l-144 670h210l73 -408l101 408h143l99 -410l74 410h198l-145 -670h-212l-90 392l-95 -392h-212z" />
    <glyph glyph-name="X" unicode="X" horiz-adv-x="673" 
d="M231 670l105 -175l106 175h219l-218 -326l228 -344h-220l-115 196l-115 -196h-219l227 344l-219 326h221z" />
    <glyph glyph-name="Y" unicode="Y" horiz-adv-x="651" 
d="M217 670l112 -252l116 252h212l-224 -399v-271h-215v267l-224 403h223z" />
    <glyph glyph-name="Z" unicode="Z" horiz-adv-x="617" 
d="M38 0v117l285 399h-279v154h537v-117l-287 -399h293v-154h-549z" />
    <glyph glyph-name="bracketleft" unicode="[" horiz-adv-x="384" 
d="M68 -100v820h300v-130h-113v-560h113v-130h-300z" />
    <glyph glyph-name="backslash" unicode="\" horiz-adv-x="384" 
d="M174 685l210 -788h-172l-211 788h173z" />
    <glyph glyph-name="bracketright" unicode="]" horiz-adv-x="384" 
d="M316 720v-820h-300v130h113v560h-113v130h300z" />
    <glyph glyph-name="asciicircum" unicode="^" horiz-adv-x="590" 
d="M57 316l165 344h147l164 -344h-145l-96 223l-96 -223h-139z" />
    <glyph glyph-name="underscore" unicode="_" horiz-adv-x="500" 
d="M0 -125v40h500v-40h-500z" />
    <glyph glyph-name="grave" unicode="`" horiz-adv-x="500" 
d="M368 625l-68 -77l-195 126l103 122z" />
    <glyph glyph-name="a" unicode="a" horiz-adv-x="562" 
d="M171 -13q-71 0 -111 38t-40 104q0 55 28 90.5t73.5 55.5t97.5 28t99 9v12q0 74 -44 74q-41 0 -47 -53h-189q13 81 75.5 128t168.5 47q122 0 177.5 -59t55.5 -173v-288h-182l-4 62q-25 -37 -68 -56t-90 -19zM261 111q23 0 41 20.5t18 69.5v33q-53 -2 -76.5 -23.5
t-23.5 -51.5q0 -25 12 -36.5t29 -11.5z" />
    <glyph glyph-name="b" unicode="b" horiz-adv-x="610" 
d="M380 -13q-44 0 -82.5 21t-60.5 68l-5 -76h-180v700h205v-253q22 36 57.5 54.5t75.5 18.5q93 0 143 -73t50 -193q0 -80 -25.5 -140t-71 -93.5t-106.5 -33.5zM314 125q29 0 42 36t13 92q0 55 -13 92t-42 37q-28 0 -43 -31.5t-15 -90.5v-13q0 -58 15.5 -90t42.5 -32z" />
    <glyph glyph-name="c" unicode="c" horiz-adv-x="553" 
d="M289 -13q-75 0 -135 30.5t-94.5 89.5t-34.5 145q0 85 34.5 145t94.5 91.5t135 31.5q61 0 114 -22.5t87 -69t40 -118.5h-195q-5 44 -16 62t-28 18q-23 0 -37.5 -30.5t-14.5 -106.5t14.5 -106t37.5 -30q18 0 30 17.5t17 68.5h195q-10 -78 -45.5 -125.5t-87.5 -69
t-111 -21.5z" />
    <glyph glyph-name="d" unicode="d" horiz-adv-x="605" 
d="M228 520q34 0 68 -15.5t57 -46.5v242h205v-700h-179l-5 88q-43 -101 -151 -101q-60 0 -104 34.5t-68 94.5t-24 137q0 127 55.5 197t145.5 70zM295 382q-29 0 -41.5 -37t-12.5 -92t12.5 -91.5t41.5 -36.5t44 32.5t15 87.5v18q0 55 -15 87t-44 32z" />
    <glyph glyph-name="e" unicode="e" horiz-adv-x="563" 
d="M288 -13q-74 0 -134 29t-94.5 88t-34.5 148q0 82 31.5 142t89.5 93t139 33q83 0 139.5 -34.5t85 -95t28.5 -140.5v-37h-314q5 -61 23 -81.5t41 -20.5q43 0 52 52h192q-18 -89 -85 -132.5t-159 -43.5zM282 398q-27 0 -42.5 -25t-16.5 -76h116q-5 101 -57 101z" />
    <glyph glyph-name="f" unicode="f" horiz-adv-x="392" 
d="M8 507h68v9q0 54 21 99t66.5 71.5t117.5 26.5q40 0 70.5 -7.5t58.5 -21.5l-27 -117q-13 5 -25 8t-25 3q-52 0 -52 -56v-15h96v-130h-96v-377h-205v377h-68v130z" />
    <glyph glyph-name="g" unicode="g" horiz-adv-x="608" 
d="M291 -223q-101 0 -168.5 43.5t-83.5 132.5h192q6 -25 20.5 -40.5t39.5 -15.5q60 0 60 88v86q-43 -74 -133 -74q-58 0 -101.5 32.5t-67.5 91.5t-24 137q0 80 25.5 139t71 91t105.5 32q45 0 83.5 -23.5t58.5 -68.5l5 79h182v-457q0 -138 -67 -205.5t-198 -67.5zM295 134
q29 0 44 30.5t15 88.5v13q0 56 -16 86t-43 30q-31 0 -44.5 -34t-13.5 -88q0 -55 13.5 -90.5t44.5 -35.5z" />
    <glyph glyph-name="h" unicode="h" horiz-adv-x="607" 
d="M52 0v700h205v-258q19 34 54.5 56t86.5 22q78 0 120 -50t42 -135v-335h-205v311q0 31 -11.5 48t-33.5 17q-21 0 -37 -18t-16 -59v-299h-205z" />
    <glyph glyph-name="i" unicode="i" horiz-adv-x="305" 
d="M152 764q47 0 79 -31t32 -75t-32 -75t-79 -31t-79 31t-32 75t32 75t79 31zM50 0v507h205v-507h-205z" />
    <glyph glyph-name="j" unicode="j" horiz-adv-x="305" 
d="M152 764q47 0 79 -31t32 -75t-32 -75t-79 -31t-79 31t-32 75t32 75t79 31zM-57 -202l23 122q20 -7 37 -7q23 0 35 16t12 42v536h205v-507q0 -100 -49 -161.5t-157 -61.5q-25 0 -53 5.5t-53 15.5z" />
    <glyph glyph-name="k" unicode="k" horiz-adv-x="594" 
d="M52 0v700h205v-386l107 192h210l-168 -232q27 -20 52 -43t45 -49q29 -37 52 -81.5t39 -100.5h-218q-8 29 -17 56t-22 50q-16 29 -35.5 55.5t-44.5 50.5v-212h-205z" />
    <glyph glyph-name="l" unicode="l" horiz-adv-x="309" 
d="M52 0v700h205v-700h-205z" />
    <glyph glyph-name="m" unicode="m" horiz-adv-x="894" 
d="M52 507h180l5 -84q18 43 57 70t94 27q52 0 89.5 -23t56.5 -65q19 38 57 63t94 25q74 0 118 -48t44 -128v-344h-205v311q0 63 -39 63q-19 0 -35 -17.5t-16 -60.5v-296h-205v309q0 65 -39 65q-20 0 -35.5 -17.5t-15.5 -60.5v-296h-205v507z" />
    <glyph glyph-name="n" unicode="n" horiz-adv-x="607" 
d="M52 0v507h180l5 -83q19 42 57.5 69t96.5 27q77 0 123 -48t46 -132v-340h-205v311q0 31 -11.5 48t-33.5 17q-21 0 -37 -18t-16 -59v-299h-205z" />
    <glyph glyph-name="o" unicode="o" horiz-adv-x="588" 
d="M294 520q84 0 144.5 -35t92.5 -95t32 -136t-32 -136t-92.5 -95.5t-144.5 -35.5t-144.5 35t-92.5 95.5t-32 135.5t32 135.5t92.5 96t144.5 35.5zM294 392q-28 0 -42.5 -33t-14.5 -106t14.5 -105.5t42.5 -32.5t42.5 32.5t14.5 106.5t-14.5 106t-42.5 32z" />
    <glyph glyph-name="p" unicode="p" horiz-adv-x="610" 
d="M52 -210v717h180l5 -84q22 48 60.5 72.5t89.5 24.5q63 0 107 -34.5t66.5 -94t22.5 -136.5q0 -81 -24.5 -141t-69.5 -93.5t-105 -33.5q-38 0 -71 16t-56 51v-264h-205zM314 125q29 0 42 36t13 92q0 55 -13 92t-42 37q-28 0 -43 -31.5t-15 -90.5v-13q0 -58 15.5 -90
t42.5 -32z" />
    <glyph glyph-name="q" unicode="q" horiz-adv-x="605" 
d="M229 520q44 0 82.5 -22.5t61.5 -67.5l5 77h180v-717h-205v267q-23 -33 -56 -51.5t-75 -18.5q-61 0 -104.5 34.5t-67 94.5t-23.5 137q0 87 26.5 146.5t72 90t103.5 30.5zM297 382q-30 0 -43 -37t-13 -92t13 -91.5t42 -36.5q28 0 43 32t15 92v9q0 59 -14 91.5t-43 32.5z
" />
    <glyph glyph-name="r" unicode="r" horiz-adv-x="409" 
d="M52 0v507h177l10 -98q14 47 46.5 77t82.5 30q10 0 18 -1t12 -2v-184q-10 2 -19.5 3t-19.5 1q-47 0 -74.5 -28.5t-27.5 -89.5v-215h-205z" />
    <glyph glyph-name="s" unicode="s" horiz-adv-x="542" 
d="M274 -13q-112 0 -175.5 45t-72.5 130h190q4 -33 20 -47t39 -14q22 0 32 9.5t10 24.5q0 16 -12 27.5t-43 19.5l-86 22q-65 16 -101.5 52.5t-36.5 97.5q0 56 30.5 93t83 55t118.5 18q105 0 162.5 -43.5t70.5 -123.5h-187q-3 24 -13.5 38.5t-32.5 14.5q-40 0 -40 -36
q0 -34 51 -47l68 -17q92 -23 127 -57.5t35 -93.5q0 -80 -63.5 -124t-173.5 -44z" />
    <glyph glyph-name="t" unicode="t" horiz-adv-x="418" 
d="M268 -13q-98 0 -145.5 52.5t-47.5 140.5v197h-62v130h62v139h205v-139h108v-130h-108v-189q0 -57 48 -57q25 0 52 12l30 -125q-24 -14 -62 -22.5t-80 -8.5z" />
    <glyph glyph-name="u" unicode="u" horiz-adv-x="596" 
d="M544 507v-507h-180l-5 83q-18 -41 -57 -68.5t-100 -27.5q-70 0 -112.5 46.5t-42.5 134.5v339h205v-312q0 -28 8.5 -45t29.5 -17q22 0 35.5 18t13.5 60v296h205z" />
    <glyph glyph-name="v" unicode="v" horiz-adv-x="554" 
d="M171 0l-173 507h209l77 -321l74 321h198l-172 -507h-213z" />
    <glyph glyph-name="w" unicode="w" horiz-adv-x="819" 
d="M142 0l-144 507h211l53 -327l72 327h167l77 -324l50 324h193l-145 -507h-204l-63 259l-62 -259h-205z" />
    <glyph glyph-name="x" unicode="x" horiz-adv-x="561" 
d="M2 0l179 258l-180 249h218l64 -115l68 115h204l-170 -247l185 -260h-218l-70 124l-76 -124h-204z" />
    <glyph glyph-name="y" unicode="y" horiz-adv-x="552" 
d="M8 -194l41 122q14 -7 28.5 -11t30.5 -4q19 0 40.5 10.5t38.5 53.5l8 20l-197 510h210l74 -291l75 291h197l-209 -535q-28 -72 -60 -114.5t-72.5 -61.5t-94.5 -19q-34 0 -61.5 8.5t-48.5 20.5z" />
    <glyph glyph-name="z" unicode="z" horiz-adv-x="513" 
d="M38 0v92l197 273h-193v142h433v-90l-204 -275h214v-142h-447z" />
    <glyph glyph-name="braceleft" unicode="{" horiz-adv-x="411" 
d="M21 245v130h30q47 0 63 22t16 52q0 29 -9 56t-9 67q0 47 19.5 80t66.5 50.5t129 17.5h70v-130h-47q-28 0 -43 -14t-15 -46q0 -20 5 -35t10 -30.5t5 -36.5q0 -38 -16.5 -62t-42.5 -38t-55 -18q29 -4 55 -17.5t42.5 -38t16.5 -61.5q0 -21 -5 -37t-10 -31t-5 -35
q0 -32 15 -46t43 -14h47v-130h-70q-82 0 -129 17.5t-66.5 50.5t-19.5 80q0 40 9 67t9 56q0 30 -16 52t-63 22h-30z" />
    <glyph glyph-name="bar" unicode="|" horiz-adv-x="304" 
d="M71 -100v820h163v-820h-163z" />
    <glyph glyph-name="braceright" unicode="}" horiz-adv-x="411" 
d="M14 -100v130h47q28 0 43 14t15 46q0 20 -5 35t-10 31t-5 37q0 37 16.5 61.5t42.5 38t54 17.5q-28 4 -54 18t-42.5 38t-16.5 62q0 21 5 36.5t10 30.5t5 35q0 32 -15 46t-43 14h-47v130h70q82 0 129 -17.5t66.5 -50.5t19.5 -80q0 -40 -9.5 -67t-9.5 -56q0 -30 16.5 -52
t63.5 -22h30v-130h-30q-47 0 -63.5 -22t-16.5 -52q0 -29 9.5 -56t9.5 -67q0 -47 -19.5 -80t-66.5 -50.5t-129 -17.5h-70z" />
    <glyph glyph-name="asciitilde" unicode="~" horiz-adv-x="590" 
d="M270 246q-22 22 -34.5 32t-23.5 10q-15 0 -23 -19t-10 -72h-135q0 61 16.5 109t50.5 76.5t87 28.5q41 0 67.5 -15t54.5 -43q22 -23 34.5 -32.5t23.5 -9.5q15 0 23 19t10 72h135q0 -60 -16.5 -108.5t-50.5 -77t-87 -28.5q-39 0 -66.5 15t-55.5 43z" />
    <glyph glyph-name="uni00A0" unicode="&#xa0;" horiz-adv-x="200" 
 />
    <glyph glyph-name="exclamdown" unicode="&#xa1;" horiz-adv-x="296" 
d="M148 520q44 0 74 -29t30 -75t-30 -75t-74 -29t-74 29t-30 75t30 75t74 29zM78 283h140l38 -446h-216z" />
    <glyph glyph-name="cent" unicode="&#xa2;" horiz-adv-x="590" 
d="M549 285q-13 -92 -67.5 -140.5t-127.5 -59.5v-85h-105v85q-90 15 -146 78.5t-56 173.5q0 105 56 171t146 81v76h105v-75q76 -12 130 -62.5t63 -141.5h-191q-7 48 -17.5 67t-31.5 19q-24 0 -38.5 -32t-14.5 -104q0 -133 55 -133q19 0 32 17.5t18 64.5h190z" />
    <glyph glyph-name="sterling" unicode="&#xa3;" horiz-adv-x="590" 
d="M436 256h-109q-3 -40 -20 -66t-41 -41h281v-149h-525v130q40 0 72 27t32 87q0 6 -1 12h-101v129h62q-7 21 -12 45t-5 51q0 56 29.5 98.5t83 66.5t125.5 24q102 0 167 -50t83 -153h-212q-5 44 -15.5 58.5t-25.5 14.5q-14 0 -23 -12t-9 -37q0 -27 8 -53.5t18 -52.5h138
v-129z" />
    <glyph glyph-name="currency" unicode="&#xa4;" horiz-adv-x="590" 
d="M110 62l-85 84l69 69q-15 25 -23.5 54.5t-8.5 62.5t8.5 62.5t23.5 54.5l-69 69l85 84l70 -70q53 28 115 28t115 -28l70 70l85 -84l-69 -69q15 -25 23.5 -54.5t8.5 -62.5t-8.5 -62.5t-23.5 -54.5l69 -69l-85 -84l-70 70q-53 -28 -115 -28t-115 28zM295 235q37 0 58 25.5
t21 71.5t-21 71.5t-58 25.5t-58 -25.5t-21 -71.5t21 -71.5t58 -25.5z" />
    <glyph glyph-name="yen" unicode="&#xa5;" horiz-adv-x="590" 
d="M201 0v103h-131v90h131v47h-131v90h93l-156 324h207l86 -241l83 241h201l-159 -324h97v-90h-132v-47h132v-90h-132v-103h-189z" />
    <glyph glyph-name="section" unicode="&#xa7;" horiz-adv-x="530" 
d="M456 396v-146l-220 65q-85 25 -130.5 53t-62.5 63.5t-17 82.5q0 80 63 126t172 46t172.5 -46t73.5 -135h-190q-2 38 -19.5 52.5t-37.5 14.5q-46 0 -46 -48q0 -23 15.5 -38.5t43.5 -25.5zM74 176v146l220 -65q84 -25 129.5 -53t63 -63t17.5 -80q0 -83 -63 -129t-172 -46
q-110 0 -173 46t-73 135h190q1 -39 18.5 -53t39.5 -14q23 0 33.5 13t10.5 33q0 46 -57 66z" />
    <glyph glyph-name="dieresis" unicode="&#xa8;" horiz-adv-x="500" 
d="M447 644q0 -41 -27.5 -66t-64.5 -25q-38 0 -65 25t-27 66t27.5 66t64.5 25t64.5 -25t27.5 -66zM237 644q0 -41 -27.5 -66t-64.5 -25t-64.5 25t-27.5 66t27.5 66t64.5 25t64.5 -25t27.5 -66z" />
    <glyph glyph-name="copyright" unicode="&#xa9;" horiz-adv-x="834" 
d="M417 0q-99 0 -175 43t-119.5 119t-43.5 173t43.5 173t119.5 119t175 43t175 -43t119.5 -119t43.5 -173t-43.5 -173t-119.5 -119t-175 -43zM417 84q72 0 126.5 30.5t85 87t30.5 133.5t-30.5 133.5t-85 87t-126.5 30.5t-126.5 -30.5t-85 -87t-30.5 -133.5t30.5 -133.5
t85 -87t126.5 -30.5zM420 142q-82 0 -132.5 49t-50.5 144q0 93 52.5 143.5t134.5 50.5q65 0 115.5 -38t59.5 -118h-152q-1 31 -6.5 43t-15.5 12q-11 0 -20 -21.5t-9 -71.5q0 -49 9 -70.5t20 -21.5t16.5 10.5t7.5 37.5h151q-14 -80 -65 -114.5t-115 -34.5z" />
    <glyph glyph-name="ordfeminine" unicode="&#xaa;" horiz-adv-x="442" 
d="M128 278q-52 0 -83 28t-31 71q0 40 20.5 66.5t53.5 42t70.5 22.5t71.5 9v8q0 23 -4 36t-20 13q-13 0 -18 -9t-7 -26h-150q10 62 58 96.5t125 34.5q99 0 141.5 -44t42.5 -129v-212h-143l-12 51q-17 -28 -47.5 -43t-67.5 -15zM200 376q14 0 22 12.5t8 34.5v34
q-29 -5 -39.5 -21t-10.5 -33q0 -27 20 -27z" />
    <glyph glyph-name="guillemotleft" unicode="&#xab;" horiz-adv-x="645" 
d="M158 52l-136 203l136 203h189l-126 -201l130 -205h-193zM447 52l-136 203l136 203h189l-126 -201l130 -205h-193z" />
    <glyph glyph-name="logicalnot" unicode="&#xac;" horiz-adv-x="590" 
d="M377 173v130h-303v137h442v-267h-139z" />
    <glyph glyph-name="uni00AD" unicode="&#xad;" horiz-adv-x="370" 
d="M16 172v155h338v-155h-338z" />
    <glyph glyph-name="registered" unicode="&#xae;" horiz-adv-x="548" 
d="M521 434q0 -74 -31 -129.5t-86.5 -86t-129.5 -30.5t-129.5 30.5t-86.5 86t-31 129.5t31 129.5t86.5 86t129.5 30.5t129.5 -30.5t86.5 -86t31 -129.5zM106 434q0 -85 44 -132.5t124 -47.5t124 47.5t44 132.5t-44 132.5t-124 47.5t-124 -47.5t-44 -132.5zM171 314v247h110
q49 0 76 -19.5t27 -56.5q0 -24 -16 -38t-39 -20q28 -13 44.5 -43.5t21.5 -69.5h-84q-7 39 -19.5 64t-39.5 25v-89h-81zM267 512h-15v-58h15q20 0 28 7.5t8 19.5q0 13 -8 22t-28 9z" />
    <glyph glyph-name="macron" unicode="&#xaf;" horiz-adv-x="500" 
d="M78 585v128h344v-128h-344z" />
    <glyph glyph-name="degree" unicode="&#xb0;" horiz-adv-x="322" 
d="M161 704q68 0 111 -40t43 -106t-43 -106t-111 -40t-111 40t-43 106t43 106t111 40zM161 618q-21 0 -36 -15.5t-15 -44.5t15 -44.5t36 -15.5t36 15.5t15 44.5t-15 44.5t-36 15.5z" />
    <glyph glyph-name="uni00B2" unicode="&#xb2;" horiz-adv-x="380" 
d="M26 378v15q0 35 9.5 62.5t32 53t61.5 55.5l35 27q24 17 34 29.5t10 30.5q0 34 -21 34q-12 0 -19 -13.5t-9 -45.5h-134q4 74 50 114t123 40q69 0 111.5 -35.5t42.5 -94.5q0 -34 -17 -63t-60 -58l-35 -24l-27 -18t-12 -10h153v-99h-328z" />
    <glyph glyph-name="uni00B3" unicode="&#xb3;" horiz-adv-x="373" 
d="M189 368q-162 0 -177 146h131q3 -52 38 -52q34 0 34 36q0 26 -15 37t-45 11h-15v74h15q25 0 38.5 7.5t13.5 31.5q0 30 -25 30q-20 0 -23 -33h-131q21 124 162 124q70 0 112.5 -31t42.5 -82q0 -60 -66 -87q38 -11 58.5 -33t20.5 -59q0 -55 -43.5 -87.5t-125.5 -32.5z" />
    <glyph glyph-name="acute" unicode="&#xb4;" horiz-adv-x="500" 
d="M147 623l165 176l103 -122l-200 -131z" />
    <glyph glyph-name="paragraph" unicode="&#xb6;" horiz-adv-x="644" 
d="M265 -105v310h-9q-122 0 -182.5 64.5t-60.5 167.5q0 107 60.5 170t182.5 63h313v-775h-112v661h-80v-661h-112z" />
    <glyph glyph-name="periodcentered" unicode="&#xb7;" horiz-adv-x="238" 
d="M119 144q-45 0 -76 30t-31 77t31 77t76 30t76 -30t31 -77t-31 -77t-76 -30z" />
    <glyph glyph-name="cedilla" unicode="&#xb8;" horiz-adv-x="500" 
d="M172 2h81l-8 -60q12 3 24 3q45 0 74 -27.5t29 -75.5q0 -58 -38.5 -91.5t-112.5 -33.5q-23 0 -44.5 3.5t-38.5 8.5l9 90q16 -4 30.5 -6.5t32.5 -2.5q26 0 36.5 8t10.5 22q0 10 -7 17.5t-24 7.5q-12 0 -22.5 -4t-17.5 -9h-30z" />
    <glyph glyph-name="uni00B9" unicode="&#xb9;" horiz-adv-x="301" 
d="M24 609v110q36 5 65.5 16t54.5 35h106v-392h-141v245q-21 -6 -42 -9.5t-43 -4.5z" />
    <glyph glyph-name="ordmasculine" unicode="&#xba;" horiz-adv-x="450" 
d="M431 472q0 -54 -25 -99t-71 -72t-110 -27t-110 27t-71 72t-25 99t25 99t71 72t110 27t110 -27t71 -72t25 -99zM194 472q0 -51 8 -74.5t23 -23.5t23 23.5t8 74.5t-8 74.5t-23 23.5t-23 -23.5t-8 -74.5z" />
    <glyph glyph-name="guillemotright" unicode="&#xbb;" horiz-adv-x="645" 
d="M198 458l136 -203l-136 -203h-190l127 201l-130 205h193zM487 458l136 -203l-136 -203h-190l127 201l-130 205h193z" />
    <glyph glyph-name="onequarter" unicode="&#xbc;" horiz-adv-x="836" 
d="M181 0l310 660h164l-310 -660h-164zM483 68v85l186 239h116v-229h38v-95h-38v-68h-129v68h-173zM593 163h63v84zM24 499v110q36 5 65.5 16t54.5 35h106v-392h-141v245q-21 -6 -42 -9.5t-43 -4.5z" />
    <glyph glyph-name="onehalf" unicode="&#xbd;" horiz-adv-x="896" 
d="M181 0l310 660h164l-310 -660h-164zM542 0v15q0 35 9.5 62.5t32 53t61.5 55.5l35 27q24 17 34 29.5t10 30.5q0 34 -21 34q-12 0 -19 -13.5t-9 -45.5h-134q4 74 50 114t123 40q69 0 111.5 -35.5t42.5 -94.5q0 -34 -17 -63t-60 -58l-35 -24l-27 -18t-12 -10h153v-99h-328z
M24 499v110q36 5 65.5 16t54.5 35h106v-392h-141v245q-21 -6 -42 -9.5t-43 -4.5z" />
    <glyph glyph-name="threequarters" unicode="&#xbe;" horiz-adv-x="885" 
d="M230 0l310 660h164l-310 -660h-164zM532 68v85l186 239h116v-229h38v-95h-38v-68h-129v68h-173zM642 163h63v84zM189 258q-162 0 -177 146h131q3 -52 38 -52q34 0 34 36q0 26 -15 37t-45 11h-15v74h15q25 0 38.5 7.5t13.5 31.5q0 30 -25 30q-20 0 -23 -33h-131
q21 124 162 124q70 0 112.5 -31t42.5 -82q0 -60 -66 -87q38 -11 58.5 -33t20.5 -59q0 -55 -43.5 -87.5t-125.5 -32.5z" />
    <glyph glyph-name="questiondown" unicode="&#xbf;" horiz-adv-x="484" 
d="M270 311q-44 0 -74 29t-30 75t30 75t74 29t74 -29t30 -75t-30 -75t-74 -29zM300 41h197q-5 -103 -69 -161.5t-180 -58.5q-74 0 -131 22.5t-88.5 65.5t-31.5 103q0 61 30 96.5t77 69.5l39 28q22 16 28.5 28t6.5 31v17h183v-31q0 -45 -17.5 -74t-60.5 -63l-29 -23
q-27 -22 -35 -36t-8 -39q0 -22 9.5 -37.5t32.5 -15.5q19 0 32 17t15 61z" />
    <glyph glyph-name="Agrave" unicode="&#xc0;" horiz-adv-x="678" 
d="M473 0l-32 108h-212l-31 -108h-198l237 670h205l236 -670h-205zM271 251h127l-64 216zM472 807l-52 -106l-267 98l85 162z" />
    <glyph glyph-name="Aacute" unicode="&#xc1;" horiz-adv-x="678" 
d="M473 0l-32 108h-212l-31 -108h-198l237 670h205l236 -670h-205zM271 251h127l-64 216zM203 807l234 154l85 -162l-267 -98z" />
    <glyph glyph-name="Acircumflex" unicode="&#xc2;" horiz-adv-x="678" 
d="M473 0l-32 108h-212l-31 -108h-198l237 670h205l236 -670h-205zM271 251h127l-64 216zM379 934l173 -136l-68 -98l-146 89l-146 -89l-68 98l173 136h82z" />
    <glyph glyph-name="Atilde" unicode="&#xc3;" horiz-adv-x="678" 
d="M473 0l-32 108h-212l-31 -108h-198l237 670h205l236 -670h-205zM271 251h127l-64 216zM313 764q-15 10 -24 15t-19 5q-14 0 -22 -13t-15 -45h-115q5 56 23 100t47.5 70t70.5 26q28 0 52 -12t52 -32q15 -10 25.5 -15.5t21.5 -5.5q13 0 19.5 13.5t13.5 44.5h115
q-5 -55 -22 -99t-45.5 -70t-65.5 -26q-34 0 -58.5 12.5t-53.5 31.5z" />
    <glyph glyph-name="Adieresis" unicode="&#xc4;" horiz-adv-x="678" 
d="M473 0l-32 108h-212l-31 -108h-198l237 670h205l236 -670h-205zM271 251h127l-64 216zM553 824q0 -41 -27.5 -69t-68.5 -28t-68.5 28t-27.5 69t27.5 69t68.5 28t68.5 -28t27.5 -69zM315 824q0 -41 -27.5 -69t-68.5 -28t-68.5 28t-27.5 69t27.5 69t68.5 28t68.5 -28
t27.5 -69z" />
    <glyph glyph-name="Aring" unicode="&#xc5;" horiz-adv-x="678" 
d="M473 0l-32 108h-212l-31 -108h-198l237 670h205l236 -670h-205zM271 251h127l-64 216zM338 701q-59 0 -99 36.5t-40 98.5t40 98.5t99 36.5t99 -36.5t40 -98.5t-40 -98.5t-99 -36.5zM338 792q19 0 30 11.5t11 32.5t-11 32.5t-30 11.5t-30 -11.5t-11 -32.5t11 -32.5
t30 -11.5z" />
    <glyph glyph-name="AE" unicode="&#xc6;" horiz-adv-x="982" 
d="M0 0l388 670h550v-154h-258v-105h227v-147h-227v-110h262v-154h-467v105h-213l-54 -105h-208zM343 262h132v255z" />
    <glyph glyph-name="Ccedilla" unicode="&#xc7;" horiz-adv-x="697" 
d="M360 -16q-109 0 -182.5 44t-110.5 123t-37 184q0 103 37 182t110.5 124t182.5 45q132 0 212 -72.5t101 -199.5h-223q-18 121 -95 121q-49 0 -77 -52.5t-28 -147.5t28 -147t79 -52q37 0 59.5 29.5t31.5 84.5h223q-11 -80 -51.5 -140t-106 -93t-153.5 -33zM300 2h87l-4 -59
q9 2 18 2q47 0 77 -29t30 -78q0 -60 -39 -94.5t-113 -34.5q-17 0 -43.5 3.5t-45.5 11.5l9 96q39 -11 69 -11q23 0 32 8.5t9 20.5q0 13 -8.5 19t-21.5 6q-11 0 -20.5 -3.5t-16.5 -8.5h-34z" />
    <glyph glyph-name="Egrave" unicode="&#xc8;" horiz-adv-x="580" 
d="M68 0v670h468v-154h-263v-106h232v-147h-232v-109h267v-154h-472zM436 807l-52 -106l-267 98l85 162z" />
    <glyph glyph-name="Eacute" unicode="&#xc9;" horiz-adv-x="580" 
d="M68 0v670h468v-154h-263v-106h232v-147h-232v-109h267v-154h-472zM167 807l234 154l85 -162l-267 -98z" />
    <glyph glyph-name="Ecircumflex" unicode="&#xca;" horiz-adv-x="580" 
d="M68 0v670h468v-154h-263v-106h232v-147h-232v-109h267v-154h-472zM343 934l173 -136l-68 -98l-146 89l-146 -89l-68 98l173 136h82z" />
    <glyph glyph-name="Edieresis" unicode="&#xcb;" horiz-adv-x="580" 
d="M68 0v670h468v-154h-263v-106h232v-147h-232v-109h267v-154h-472zM517 824q0 -41 -27.5 -69t-68.5 -28t-68.5 28t-27.5 69t27.5 69t68.5 28t68.5 -28t27.5 -69zM279 824q0 -41 -27.5 -69t-68.5 -28t-68.5 28t-27.5 69t27.5 69t68.5 28t68.5 -28t27.5 -69z" />
    <glyph glyph-name="Igrave" unicode="&#xcc;" horiz-adv-x="346" 
d="M68 0v670h210v-670h-210zM306 807l-52 -106l-267 98l85 162z" />
    <glyph glyph-name="Iacute" unicode="&#xcd;" horiz-adv-x="346" 
d="M68 0v670h210v-670h-210zM37 807l234 154l85 -162l-267 -98z" />
    <glyph glyph-name="Icircumflex" unicode="&#xce;" horiz-adv-x="346" 
d="M68 0v670h210v-670h-210zM213 934l173 -136l-68 -98l-146 89l-146 -89l-68 98l173 136h82z" />
    <glyph glyph-name="Idieresis" unicode="&#xcf;" horiz-adv-x="346" 
d="M68 0v670h210v-670h-210zM387 824q0 -41 -27.5 -69t-68.5 -28t-68.5 28t-27.5 69t27.5 69t68.5 28t68.5 -28t27.5 -69zM149 824q0 -41 -27.5 -69t-68.5 -28t-68.5 28t-27.5 69t27.5 69t68.5 28t68.5 -28t27.5 -69z" />
    <glyph glyph-name="Eth" unicode="&#xd0;" horiz-adv-x="736" 
d="M89 0v267h-79v137h79v266h247q119 0 201.5 -43t125.5 -116t43 -162q0 -105 -43 -183.5t-126 -122t-202 -43.5h-246zM415 267h-126v-120h47q75 0 112.5 49t37.5 143q0 89 -38 137t-112 48h-47v-120h126v-137z" />
    <glyph glyph-name="Ntilde" unicode="&#xd1;" horiz-adv-x="733" 
d="M68 0v670h197l195 -368v368h205v-670h-196l-196 372v-372h-205zM340 764q-15 10 -24 15t-19 5q-14 0 -22 -13t-15 -45h-115q5 56 23 100t47.5 70t70.5 26q28 0 52 -12t52 -32q15 -10 25.5 -15.5t21.5 -5.5q13 0 19.5 13.5t13.5 44.5h115q-5 -55 -22 -99t-45.5 -70
t-65.5 -26q-34 0 -58.5 12.5t-53.5 31.5z" />
    <glyph glyph-name="Ograve" unicode="&#xd2;" horiz-adv-x="730" 
d="M365 686q108 0 182.5 -45t113.5 -124t39 -182q0 -102 -39 -181.5t-113.5 -124.5t-182.5 -45t-182.5 45t-113.5 124t-39 182t39 182t113.5 124t182.5 45zM365 137q55 0 85 51.5t30 146.5t-30 146.5t-85 51.5t-85 -51.5t-30 -146.5t30 -146.5t85 -51.5zM499 807l-52 -106
l-267 98l85 162z" />
    <glyph glyph-name="Oacute" unicode="&#xd3;" horiz-adv-x="730" 
d="M365 686q108 0 182.5 -45t113.5 -124t39 -182q0 -102 -39 -181.5t-113.5 -124.5t-182.5 -45t-182.5 45t-113.5 124t-39 182t39 182t113.5 124t182.5 45zM365 137q55 0 85 51.5t30 146.5t-30 146.5t-85 51.5t-85 -51.5t-30 -146.5t30 -146.5t85 -51.5zM230 807l234 154
l85 -162l-267 -98z" />
    <glyph glyph-name="Ocircumflex" unicode="&#xd4;" horiz-adv-x="730" 
d="M365 686q108 0 182.5 -45t113.5 -124t39 -182q0 -102 -39 -181.5t-113.5 -124.5t-182.5 -45t-182.5 45t-113.5 124t-39 182t39 182t113.5 124t182.5 45zM365 137q55 0 85 51.5t30 146.5t-30 146.5t-85 51.5t-85 -51.5t-30 -146.5t30 -146.5t85 -51.5zM406 934l173 -136
l-68 -98l-146 89l-146 -89l-68 98l173 136h82z" />
    <glyph glyph-name="Otilde" unicode="&#xd5;" horiz-adv-x="730" 
d="M365 686q108 0 182.5 -45t113.5 -124t39 -182q0 -102 -39 -181.5t-113.5 -124.5t-182.5 -45t-182.5 45t-113.5 124t-39 182t39 182t113.5 124t182.5 45zM365 137q55 0 85 51.5t30 146.5t-30 146.5t-85 51.5t-85 -51.5t-30 -146.5t30 -146.5t85 -51.5zM340 764
q-15 10 -24 15t-19 5q-14 0 -22 -13t-15 -45h-115q5 56 23 100t47.5 70t70.5 26q28 0 52 -12t52 -32q15 -10 25.5 -15.5t21.5 -5.5q13 0 19.5 13.5t13.5 44.5h115q-5 -55 -22 -99t-45.5 -70t-65.5 -26q-34 0 -58.5 12.5t-53.5 31.5z" />
    <glyph glyph-name="Odieresis" unicode="&#xd6;" horiz-adv-x="730" 
d="M365 686q108 0 182.5 -45t113.5 -124t39 -182q0 -102 -39 -181.5t-113.5 -124.5t-182.5 -45t-182.5 45t-113.5 124t-39 182t39 182t113.5 124t182.5 45zM365 137q55 0 85 51.5t30 146.5t-30 146.5t-85 51.5t-85 -51.5t-30 -146.5t30 -146.5t85 -51.5zM580 824
q0 -41 -27.5 -69t-68.5 -28t-68.5 28t-27.5 69t27.5 69t68.5 28t68.5 -28t27.5 -69zM342 824q0 -41 -27.5 -69t-68.5 -28t-68.5 28t-27.5 69t27.5 69t68.5 28t68.5 -28t27.5 -69z" />
    <glyph glyph-name="multiply" unicode="&#xd7;" horiz-adv-x="590" 
d="M164 106l-93 93l131 131l-131 131l93 93l131 -131l131 131l93 -93l-131 -131l131 -131l-93 -93l-131 131z" />
    <glyph glyph-name="Oslash" unicode="&#xd8;" horiz-adv-x="742" 
d="M70 14l47 70q-87 94 -87 251q0 103 40 182t116.5 124t184.5 45q75 0 137 -23l48 70l115 -77l-47 -70q88 -95 88 -251q0 -103 -40 -182.5t-116 -124t-185 -44.5q-76 0 -138 23l-48 -70zM247 335q0 -42 6 -76l177 263q-26 17 -59 17q-59 0 -91.5 -52t-32.5 -152zM371 132
q59 0 91.5 51.5t32.5 151.5q0 43 -6 77l-177 -263q25 -17 59 -17z" />
    <glyph glyph-name="Ugrave" unicode="&#xd9;" horiz-adv-x="708" 
d="M354 138q45 0 66.5 32.5t21.5 92.5v407h210v-388q0 -144 -76.5 -221t-221.5 -77t-221.5 77t-76.5 221v388h210v-407q0 -60 21.5 -92.5t66.5 -32.5zM488 807l-52 -106l-267 98l85 162z" />
    <glyph glyph-name="Uacute" unicode="&#xda;" horiz-adv-x="708" 
d="M354 138q45 0 66.5 32.5t21.5 92.5v407h210v-388q0 -144 -76.5 -221t-221.5 -77t-221.5 77t-76.5 221v388h210v-407q0 -60 21.5 -92.5t66.5 -32.5zM219 807l234 154l85 -162l-267 -98z" />
    <glyph glyph-name="Ucircumflex" unicode="&#xdb;" horiz-adv-x="708" 
d="M354 138q45 0 66.5 32.5t21.5 92.5v407h210v-388q0 -144 -76.5 -221t-221.5 -77t-221.5 77t-76.5 221v388h210v-407q0 -60 21.5 -92.5t66.5 -32.5zM395 934l173 -136l-68 -98l-146 89l-146 -89l-68 98l173 136h82z" />
    <glyph glyph-name="Udieresis" unicode="&#xdc;" horiz-adv-x="708" 
d="M354 138q45 0 66.5 32.5t21.5 92.5v407h210v-388q0 -144 -76.5 -221t-221.5 -77t-221.5 77t-76.5 221v388h210v-407q0 -60 21.5 -92.5t66.5 -32.5zM569 824q0 -41 -27.5 -69t-68.5 -28t-68.5 28t-27.5 69t27.5 69t68.5 28t68.5 -28t27.5 -69zM331 824q0 -41 -27.5 -69
t-68.5 -28t-68.5 28t-27.5 69t27.5 69t68.5 28t68.5 -28t27.5 -69z" />
    <glyph glyph-name="Yacute" unicode="&#xdd;" horiz-adv-x="651" 
d="M217 670l112 -252l116 252h212l-224 -399v-271h-215v267l-224 403h223zM193 807l234 154l85 -162l-267 -98z" />
    <glyph glyph-name="Thorn" unicode="&#xde;" horiz-adv-x="636" 
d="M68 670h210v-98h69q132 0 203 -60t71 -161q0 -107 -71.5 -169t-223.5 -62h-48v-120h-210v670zM306 434h-28v-177h28q99 0 99 89q0 88 -99 88z" />
    <glyph glyph-name="germandbls" unicode="&#xdf;" horiz-adv-x="620" 
d="M327 124q29 0 46 23t17 69q0 40 -21 64.5t-58 24.5h-23v129h16q21 0 33 16.5t12 57.5q0 68 -45 68q-22 0 -34.5 -18t-12.5 -60v-498h-205v443q0 134 67 202t194 68q71 0 125 -25t84.5 -68.5t30.5 -101.5q0 -49 -18 -86.5t-68 -57.5q54 -17 82.5 -45.5t39.5 -63t11 -69.5
q0 -72 -28.5 -118.5t-78 -68.5t-110.5 -22q-33 0 -60.5 5.5t-48.5 14.5l24 121q13 -4 29 -4z" />
    <glyph glyph-name="agrave" unicode="&#xe0;" horiz-adv-x="562" 
d="M171 -13q-71 0 -111 38t-40 104q0 55 28 90.5t73.5 55.5t97.5 28t99 9v12q0 74 -44 74q-41 0 -47 -53h-189q13 81 75.5 128t168.5 47q122 0 177.5 -59t55.5 -173v-288h-182l-4 62q-25 -37 -68 -56t-90 -19zM261 111q23 0 41 20.5t18 69.5v33q-53 -2 -76.5 -23.5
t-23.5 -51.5q0 -25 12 -36.5t29 -11.5zM383 625l-68 -77l-195 126l103 122z" />
    <glyph glyph-name="aacute" unicode="&#xe1;" horiz-adv-x="562" 
d="M171 -13q-71 0 -111 38t-40 104q0 55 28 90.5t73.5 55.5t97.5 28t99 9v12q0 74 -44 74q-41 0 -47 -53h-189q13 81 75.5 128t168.5 47q122 0 177.5 -59t55.5 -173v-288h-182l-4 62q-25 -37 -68 -56t-90 -19zM261 111q23 0 41 20.5t18 69.5v33q-53 -2 -76.5 -23.5
t-23.5 -51.5q0 -25 12 -36.5t29 -11.5zM163 623l165 176l103 -122l-200 -131z" />
    <glyph glyph-name="acircumflex" unicode="&#xe2;" horiz-adv-x="562" 
d="M171 -13q-71 0 -111 38t-40 104q0 55 28 90.5t73.5 55.5t97.5 28t99 9v12q0 74 -44 74q-41 0 -47 -53h-189q13 81 75.5 128t168.5 47q122 0 177.5 -59t55.5 -173v-288h-182l-4 62q-25 -37 -68 -56t-90 -19zM261 111q23 0 41 20.5t18 69.5v33q-53 -2 -76.5 -23.5
t-23.5 -51.5q0 -25 12 -36.5t29 -11.5zM323 778l141 -147l-70 -78l-120 94l-119 -94l-70 78l140 147h98z" />
    <glyph glyph-name="atilde" unicode="&#xe3;" horiz-adv-x="562" 
d="M171 -13q-71 0 -111 38t-40 104q0 55 28 90.5t73.5 55.5t97.5 28t99 9v12q0 74 -44 74q-41 0 -47 -53h-189q13 81 75.5 128t168.5 47q122 0 177.5 -59t55.5 -173v-288h-182l-4 62q-25 -37 -68 -56t-90 -19zM261 111q23 0 41 20.5t18 69.5v33q-53 -2 -76.5 -23.5
t-23.5 -51.5q0 -25 12 -36.5t29 -11.5zM252 598q-18 14 -25 17.5t-14 3.5q-21 0 -31 -53h-108q4 80 37.5 132.5t90.5 52.5q29 0 51.5 -12.5t42.5 -27.5q18 -13 25.5 -17t14.5 -4q20 0 30 54h108q-4 -80 -37.5 -132.5t-90.5 -52.5q-29 0 -51.5 12.5t-42.5 26.5z" />
    <glyph glyph-name="adieresis" unicode="&#xe4;" horiz-adv-x="562" 
d="M171 -13q-71 0 -111 38t-40 104q0 55 28 90.5t73.5 55.5t97.5 28t99 9v12q0 74 -44 74q-41 0 -47 -53h-189q13 81 75.5 128t168.5 47q122 0 177.5 -59t55.5 -173v-288h-182l-4 62q-25 -37 -68 -56t-90 -19zM261 111q23 0 41 20.5t18 69.5v33q-53 -2 -76.5 -23.5
t-23.5 -51.5q0 -25 12 -36.5t29 -11.5zM471 644q0 -41 -27.5 -66t-64.5 -25q-38 0 -65 25t-27 66t27.5 66t64.5 25t64.5 -25t27.5 -66zM261 644q0 -41 -27.5 -66t-64.5 -25t-64.5 25t-27.5 66t27.5 66t64.5 25t64.5 -25t27.5 -66z" />
    <glyph glyph-name="aring" unicode="&#xe5;" horiz-adv-x="562" 
d="M171 -13q-71 0 -111 38t-40 104q0 55 28 90.5t73.5 55.5t97.5 28t99 9v12q0 74 -44 74q-41 0 -47 -53h-189q13 81 75.5 128t168.5 47q122 0 177.5 -59t55.5 -173v-288h-182l-4 62q-25 -37 -68 -56t-90 -19zM261 111q23 0 41 20.5t18 69.5v33q-53 -2 -76.5 -23.5
t-23.5 -51.5q0 -25 12 -36.5t29 -11.5zM274 549q-56 0 -93.5 34.5t-37.5 93.5t37.5 93.5t93.5 34.5t93.5 -34.5t37.5 -93.5t-37.5 -93.5t-93.5 -34.5zM274 632q18 0 29.5 12.5t11.5 32.5t-11.5 32.5t-29.5 12.5t-29.5 -12.5t-11.5 -32.5t11.5 -32.5t29.5 -12.5z" />
    <glyph glyph-name="ae" unicode="&#xe6;" horiz-adv-x="833" 
d="M191 -13q-74 0 -122.5 37.5t-48.5 106.5q0 46 20 77.5t53.5 51.5t73 31t79.5 16t72 5v12q0 34 -10.5 54t-33.5 20q-41 0 -47 -53h-189q12 83 75.5 129t160.5 46q44 0 81.5 -13t65.5 -41q26 26 63 40t84 14q76 0 130.5 -34.5t84.5 -95t30 -140.5v-37h-310q4 -43 13.5 -65
t22 -29.5t26.5 -7.5q43 0 50 52h192q-19 -89 -85.5 -132.5t-152.5 -43.5q-129 0 -185 91q-31 -40 -81.5 -65.5t-111.5 -25.5zM557 398q-25 0 -39 -23t-16 -75h111q-3 52 -17 75t-39 23zM262 111q22 0 40 21.5t18 64.5v37q-56 -2 -78 -25t-22 -50q0 -25 13 -36.5t29 -11.5z
" />
    <glyph glyph-name="ccedilla" unicode="&#xe7;" horiz-adv-x="553" 
d="M289 -13q-75 0 -135 30.5t-94.5 89.5t-34.5 145q0 85 34.5 145t94.5 91.5t135 31.5q61 0 114 -22.5t87 -69t40 -118.5h-195q-5 44 -16 62t-28 18q-23 0 -37.5 -30.5t-14.5 -106.5t14.5 -106t37.5 -30q18 0 30 17.5t17 68.5h195q-10 -78 -45.5 -125.5t-87.5 -69
t-111 -21.5zM236 2h81l-8 -60q12 3 24 3q45 0 74 -27.5t29 -75.5q0 -58 -38.5 -91.5t-112.5 -33.5q-23 0 -44.5 3.5t-38.5 8.5l9 90q16 -4 30.5 -6.5t32.5 -2.5q26 0 36.5 8t10.5 22q0 10 -7 17.5t-24 7.5q-12 0 -22.5 -4t-17.5 -9h-30z" />
    <glyph glyph-name="egrave" unicode="&#xe8;" horiz-adv-x="563" 
d="M288 -13q-74 0 -134 29t-94.5 88t-34.5 148q0 82 31.5 142t89.5 93t139 33q83 0 139.5 -34.5t85 -95t28.5 -140.5v-37h-314q5 -61 23 -81.5t41 -20.5q43 0 52 52h192q-18 -89 -85 -132.5t-159 -43.5zM282 398q-27 0 -42.5 -25t-16.5 -76h116q-5 101 -57 101zM392 625
l-68 -77l-195 126l103 122z" />
    <glyph glyph-name="eacute" unicode="&#xe9;" horiz-adv-x="563" 
d="M288 -13q-74 0 -134 29t-94.5 88t-34.5 148q0 82 31.5 142t89.5 93t139 33q83 0 139.5 -34.5t85 -95t28.5 -140.5v-37h-314q5 -61 23 -81.5t41 -20.5q43 0 52 52h192q-18 -89 -85 -132.5t-159 -43.5zM282 398q-27 0 -42.5 -25t-16.5 -76h116q-5 101 -57 101zM172 623
l165 176l103 -122l-200 -131z" />
    <glyph glyph-name="ecircumflex" unicode="&#xea;" horiz-adv-x="563" 
d="M288 -13q-74 0 -134 29t-94.5 88t-34.5 148q0 82 31.5 142t89.5 93t139 33q83 0 139.5 -34.5t85 -95t28.5 -140.5v-37h-314q5 -61 23 -81.5t41 -20.5q43 0 52 52h192q-18 -89 -85 -132.5t-159 -43.5zM282 398q-27 0 -42.5 -25t-16.5 -76h116q-5 101 -57 101zM332 778
l141 -147l-70 -78l-120 94l-119 -94l-70 78l140 147h98z" />
    <glyph glyph-name="edieresis" unicode="&#xeb;" horiz-adv-x="563" 
d="M288 -13q-74 0 -134 29t-94.5 88t-34.5 148q0 82 31.5 142t89.5 93t139 33q83 0 139.5 -34.5t85 -95t28.5 -140.5v-37h-314q5 -61 23 -81.5t41 -20.5q43 0 52 52h192q-18 -89 -85 -132.5t-159 -43.5zM282 398q-27 0 -42.5 -25t-16.5 -76h116q-5 101 -57 101zM480 644
q0 -41 -27.5 -66t-64.5 -25q-38 0 -65 25t-27 66t27.5 66t64.5 25t64.5 -25t27.5 -66zM270 644q0 -41 -27.5 -66t-64.5 -25t-64.5 25t-27.5 66t27.5 66t64.5 25t64.5 -25t27.5 -66z" />
    <glyph glyph-name="igrave" unicode="&#xec;" horiz-adv-x="305" 
d="M50 0v507h205v-507h-205zM253 624l-92 -74l-150 135l130 113z" />
    <glyph glyph-name="iacute" unicode="&#xed;" horiz-adv-x="305" 
d="M50 0v507h205v-507h-205zM59 616l119 177l121 -101l-161 -140z" />
    <glyph glyph-name="icircumflex" unicode="&#xee;" horiz-adv-x="305" 
d="M50 0v507h205v-507h-205zM202 778l126 -149l-76 -76l-99 93l-99 -93l-77 76l127 149h98z" />
    <glyph glyph-name="idieresis" unicode="&#xef;" horiz-adv-x="305" 
d="M50 0v507h205v-507h-205zM345 644q0 -41 -27 -66t-65 -25t-65 25t-27 66t27 66t65 25t65 -25t27 -66zM145 644q0 -41 -27 -66t-65 -25t-65 25t-27 66t27 66t65 25t65 -25t27 -66z" />
    <glyph glyph-name="eth" unicode="&#xf0;" horiz-adv-x="581" 
d="M280 -13q-80 0 -137 31.5t-87.5 89.5t-30.5 135q0 113 54.5 175t143.5 62q38 0 77.5 -17t60.5 -61q-5 52 -22 94t-48 73l-84 -68l-56 70l61 48q-36 15 -83 24l28 124q105 -11 183 -49l65 51l52 -66l-42 -34q74 -62 107.5 -155.5t33.5 -210.5q0 -152 -71 -234t-205 -82z
M290 115q28 0 42.5 31.5t14.5 86.5q0 54 -13 84.5t-44 30.5q-27 0 -42 -29t-15 -85t14.5 -87.5t42.5 -31.5z" />
    <glyph glyph-name="ntilde" unicode="&#xf1;" horiz-adv-x="607" 
d="M52 0v507h180l5 -83q19 42 57.5 69t96.5 27q77 0 123 -48t46 -132v-340h-205v311q0 31 -11.5 48t-33.5 17q-21 0 -37 -18t-16 -59v-299h-205zM283 598q-18 14 -25 17.5t-14 3.5q-21 0 -31 -53h-108q4 80 37.5 132.5t90.5 52.5q29 0 51.5 -12.5t42.5 -27.5
q18 -13 25.5 -17t14.5 -4q20 0 30 54h108q-4 -80 -37.5 -132.5t-90.5 -52.5q-29 0 -51.5 12.5t-42.5 26.5z" />
    <glyph glyph-name="ograve" unicode="&#xf2;" horiz-adv-x="588" 
d="M294 520q84 0 144.5 -35t92.5 -95t32 -136t-32 -136t-92.5 -95.5t-144.5 -35.5t-144.5 35t-92.5 95.5t-32 135.5t32 135.5t92.5 96t144.5 35.5zM294 392q-28 0 -42.5 -33t-14.5 -106t14.5 -105.5t42.5 -32.5t42.5 32.5t14.5 106.5t-14.5 106t-42.5 32zM403 625l-68 -77
l-195 126l103 122z" />
    <glyph glyph-name="oacute" unicode="&#xf3;" horiz-adv-x="588" 
d="M294 520q84 0 144.5 -35t92.5 -95t32 -136t-32 -136t-92.5 -95.5t-144.5 -35.5t-144.5 35t-92.5 95.5t-32 135.5t32 135.5t92.5 96t144.5 35.5zM294 392q-28 0 -42.5 -33t-14.5 -106t14.5 -105.5t42.5 -32.5t42.5 32.5t14.5 106.5t-14.5 106t-42.5 32zM183 623l165 176
l103 -122l-200 -131z" />
    <glyph glyph-name="ocircumflex" unicode="&#xf4;" horiz-adv-x="588" 
d="M294 520q84 0 144.5 -35t92.5 -95t32 -136t-32 -136t-92.5 -95.5t-144.5 -35.5t-144.5 35t-92.5 95.5t-32 135.5t32 135.5t92.5 96t144.5 35.5zM294 392q-28 0 -42.5 -33t-14.5 -106t14.5 -105.5t42.5 -32.5t42.5 32.5t14.5 106.5t-14.5 106t-42.5 32zM343 778l141 -147
l-70 -78l-120 94l-119 -94l-70 78l140 147h98z" />
    <glyph glyph-name="otilde" unicode="&#xf5;" horiz-adv-x="588" 
d="M294 520q84 0 144.5 -35t92.5 -95t32 -136t-32 -136t-92.5 -95.5t-144.5 -35.5t-144.5 35t-92.5 95.5t-32 135.5t32 135.5t92.5 96t144.5 35.5zM294 392q-28 0 -42.5 -33t-14.5 -106t14.5 -105.5t42.5 -32.5t42.5 32.5t14.5 106.5t-14.5 106t-42.5 32zM272 598
q-18 14 -25 17.5t-14 3.5q-21 0 -31 -53h-108q4 80 37.5 132.5t90.5 52.5q29 0 51.5 -12.5t42.5 -27.5q18 -13 25.5 -17t14.5 -4q20 0 30 54h108q-4 -80 -37.5 -132.5t-90.5 -52.5q-29 0 -51.5 12.5t-42.5 26.5z" />
    <glyph glyph-name="odieresis" unicode="&#xf6;" horiz-adv-x="588" 
d="M294 520q84 0 144.5 -35t92.5 -95t32 -136t-32 -136t-92.5 -95.5t-144.5 -35.5t-144.5 35t-92.5 95.5t-32 135.5t32 135.5t92.5 96t144.5 35.5zM294 392q-28 0 -42.5 -33t-14.5 -106t14.5 -105.5t42.5 -32.5t42.5 32.5t14.5 106.5t-14.5 106t-42.5 32zM491 644
q0 -41 -27.5 -66t-64.5 -25q-38 0 -65 25t-27 66t27.5 66t64.5 25t64.5 -25t27.5 -66zM281 644q0 -41 -27.5 -66t-64.5 -25t-64.5 25t-27.5 66t27.5 66t64.5 25t64.5 -25t27.5 -66z" />
    <glyph glyph-name="divide" unicode="&#xf7;" horiz-adv-x="590" 
d="M379 536q0 -39 -25.5 -62t-59.5 -23t-59.5 23t-25.5 62q0 40 25.5 62.5t59.5 22.5t59.5 -22.5t25.5 -62.5zM73 262v137h443v-137h-443zM379 124q0 -39 -25.5 -62t-59.5 -23t-59.5 23t-25.5 62q0 40 25.5 62.5t59.5 22.5t59.5 -22.5t25.5 -62.5z" />
    <glyph glyph-name="oslash" unicode="&#xf8;" horiz-adv-x="599" 
d="M61 -2l42 61q-38 35 -58 85t-20 109q0 77 33.5 137.5t95.5 95t146 34.5q56 0 104 -16l44 64l90 -60l-41 -60q37 -36 57 -86t20 -109q0 -77 -33.5 -137t-95 -94.5t-145.5 -34.5q-56 0 -103 16l-44 -64zM219 253q0 -27 3 -49l123 181q-18 17 -45 17q-35 0 -58 -36t-23 -113
zM300 105q34 0 57.5 36t23.5 112q0 28 -3 51l-122 -181q18 -18 44 -18z" />
    <glyph glyph-name="ugrave" unicode="&#xf9;" horiz-adv-x="596" 
d="M544 507v-507h-180l-5 83q-18 -41 -57 -68.5t-100 -27.5q-70 0 -112.5 46.5t-42.5 134.5v339h205v-312q0 -28 8.5 -45t29.5 -17q22 0 35.5 18t13.5 60v296h205zM403 625l-68 -77l-195 126l103 122z" />
    <glyph glyph-name="uacute" unicode="&#xfa;" horiz-adv-x="596" 
d="M544 507v-507h-180l-5 83q-18 -41 -57 -68.5t-100 -27.5q-70 0 -112.5 46.5t-42.5 134.5v339h205v-312q0 -28 8.5 -45t29.5 -17q22 0 35.5 18t13.5 60v296h205zM183 623l165 176l103 -122l-200 -131z" />
    <glyph glyph-name="ucircumflex" unicode="&#xfb;" horiz-adv-x="596" 
d="M544 507v-507h-180l-5 83q-18 -41 -57 -68.5t-100 -27.5q-70 0 -112.5 46.5t-42.5 134.5v339h205v-312q0 -28 8.5 -45t29.5 -17q22 0 35.5 18t13.5 60v296h205zM343 778l141 -147l-70 -78l-120 94l-119 -94l-70 78l140 147h98z" />
    <glyph glyph-name="udieresis" unicode="&#xfc;" horiz-adv-x="596" 
d="M544 507v-507h-180l-5 83q-18 -41 -57 -68.5t-100 -27.5q-70 0 -112.5 46.5t-42.5 134.5v339h205v-312q0 -28 8.5 -45t29.5 -17q22 0 35.5 18t13.5 60v296h205zM491 644q0 -41 -27.5 -66t-64.5 -25q-38 0 -65 25t-27 66t27.5 66t64.5 25t64.5 -25t27.5 -66zM281 644
q0 -41 -27.5 -66t-64.5 -25t-64.5 25t-27.5 66t27.5 66t64.5 25t64.5 -25t27.5 -66z" />
    <glyph glyph-name="yacute" unicode="&#xfd;" horiz-adv-x="552" 
d="M8 -194l41 122q14 -7 28.5 -11t30.5 -4q19 0 40.5 10.5t38.5 53.5l8 20l-197 510h210l74 -291l75 291h197l-209 -535q-28 -72 -60 -114.5t-72.5 -61.5t-94.5 -19q-34 0 -61.5 8.5t-48.5 20.5zM171 623l165 176l103 -122l-200 -131z" />
    <glyph glyph-name="thorn" unicode="&#xfe;" horiz-adv-x="609" 
d="M389 -13q-39 0 -74.5 18.5t-57.5 54.5v-270h-205v910h205v-253q21 36 55.5 54.5t77.5 18.5q61 0 104.5 -34.5t66.5 -95t23 -137.5q0 -79 -23.5 -139t-67 -93.5t-104.5 -33.5zM314 125q30 0 42.5 36.5t12.5 91.5t-12.5 92t-42.5 37q-28 0 -43 -31.5t-15 -87.5v-19
q0 -56 15 -87.5t43 -31.5z" />
    <glyph glyph-name="ydieresis" unicode="&#xff;" horiz-adv-x="552" 
d="M8 -194l41 122q14 -7 28.5 -11t30.5 -4q19 0 40.5 10.5t38.5 53.5l8 20l-197 510h210l74 -291l75 291h197l-209 -535q-28 -72 -60 -114.5t-72.5 -61.5t-94.5 -19q-34 0 -61.5 8.5t-48.5 20.5zM479 644q0 -41 -27.5 -66t-64.5 -25q-38 0 -65 25t-27 66t27.5 66t64.5 25
t64.5 -25t27.5 -66zM269 644q0 -41 -27.5 -66t-64.5 -25t-64.5 25t-27.5 66t27.5 66t64.5 25t64.5 -25t27.5 -66z" />
    <glyph glyph-name="Amacron" unicode="&#x100;" horiz-adv-x="678" 
d="M473 0l-32 108h-212l-31 -108h-198l237 670h205l236 -670h-205zM271 251h127l-64 216zM139 744v142h398v-142h-398z" />
    <glyph glyph-name="amacron" unicode="&#x101;" horiz-adv-x="562" 
d="M171 -13q-71 0 -111 38t-40 104q0 55 28 90.5t73.5 55.5t97.5 28t99 9v12q0 74 -44 74q-41 0 -47 -53h-189q13 81 75.5 128t168.5 47q122 0 177.5 -59t55.5 -173v-288h-182l-4 62q-25 -37 -68 -56t-90 -19zM261 111q23 0 41 20.5t18 69.5v33q-53 -2 -76.5 -23.5
t-23.5 -51.5q0 -25 12 -36.5t29 -11.5zM102 585v128h344v-128h-344z" />
    <glyph glyph-name="Abreve" unicode="&#x102;" horiz-adv-x="678" 
d="M473 0l-32 108h-212l-31 -108h-198l237 670h205l236 -670h-205zM271 251h127l-64 216zM338 858q28 0 43 15t19 35h122q-2 -50 -23.5 -90.5t-62 -64.5t-98.5 -24t-98.5 24t-62 64.5t-23.5 90.5h122q4 -20 19 -35t43 -15z" />
    <glyph glyph-name="abreve" unicode="&#x103;" horiz-adv-x="562" 
d="M171 -13q-71 0 -111 38t-40 104q0 55 28 90.5t73.5 55.5t97.5 28t99 9v12q0 74 -44 74q-41 0 -47 -53h-189q13 81 75.5 128t168.5 47q122 0 177.5 -59t55.5 -173v-288h-182l-4 62q-25 -37 -68 -56t-90 -19zM261 111q23 0 41 20.5t18 69.5v33q-53 -2 -76.5 -23.5
t-23.5 -51.5q0 -25 12 -36.5t29 -11.5zM274 698q30 0 43.5 17t15.5 42h115q-3 -84 -46.5 -136.5t-127.5 -52.5t-127.5 52.5t-46.5 136.5h115q2 -25 15.5 -42t43.5 -17z" />
    <glyph glyph-name="Aogonek" unicode="&#x104;" horiz-adv-x="678" 
d="M473 0l-32 108h-212l-31 -108h-198l237 670h205l236 -670h-205zM271 251h127l-64 216zM540 -279q-77 0 -120.5 38t-43.5 97q0 44 26 87.5t87 77.5l133 -21q-37 0 -63.5 -23.5t-26.5 -66.5q0 -68 59 -68q16 0 28 3t26 9v-117q-22 -7 -49 -11.5t-56 -4.5z" />
    <glyph glyph-name="aogonek" unicode="&#x105;" horiz-adv-x="562" 
d="M171 -13q-71 0 -111 38t-40 104q0 55 28 90.5t73.5 55.5t97.5 28t99 9v12q0 74 -44 74q-41 0 -47 -53h-189q13 81 75.5 128t168.5 47q122 0 177.5 -59t55.5 -173v-288h-182l-4 62q-25 -37 -68 -56t-90 -19zM261 111q23 0 41 20.5t18 69.5v33q-53 -2 -76.5 -23.5
t-23.5 -51.5q0 -25 12 -36.5t29 -11.5zM409 -273q-80 0 -122 36t-42 93q0 48 30.5 92t93.5 79l111 -27q-44 0 -65.5 -25t-21.5 -60q0 -36 18 -54.5t47 -18.5q16 0 28 3t25 7v-109q-19 -7 -47 -11.5t-55 -4.5z" />
    <glyph glyph-name="Cacute" unicode="&#x106;" horiz-adv-x="697" 
d="M360 -16q-109 0 -182.5 44t-110.5 123t-37 184q0 103 37 182t110.5 124t182.5 45q132 0 212 -72.5t101 -199.5h-223q-18 121 -95 121q-49 0 -77 -52.5t-28 -147.5t28 -147t79 -52q37 0 59.5 29.5t31.5 84.5h223q-11 -80 -51.5 -140t-106 -93t-153.5 -33zM213 807l234 154
l85 -162l-267 -98z" />
    <glyph glyph-name="cacute" unicode="&#x107;" horiz-adv-x="553" 
d="M289 -13q-75 0 -135 30.5t-94.5 89.5t-34.5 145q0 85 34.5 145t94.5 91.5t135 31.5q61 0 114 -22.5t87 -69t40 -118.5h-195q-5 44 -16 62t-28 18q-23 0 -37.5 -30.5t-14.5 -106.5t14.5 -106t37.5 -30q18 0 30 17.5t17 68.5h195q-10 -78 -45.5 -125.5t-87.5 -69
t-111 -21.5zM178 623l165 176l103 -122l-200 -131z" />
    <glyph glyph-name="Cdotaccent" unicode="&#x10a;" horiz-adv-x="697" 
d="M360 -16q-109 0 -182.5 44t-110.5 123t-37 184q0 103 37 182t110.5 124t182.5 45q132 0 212 -72.5t101 -199.5h-223q-18 121 -95 121q-49 0 -77 -52.5t-28 -147.5t28 -147t79 -52q37 0 59.5 29.5t31.5 84.5h223q-11 -80 -51.5 -140t-106 -93t-153.5 -33zM235 826
q0 47 33 77.5t80 30.5t80 -30.5t33 -77.5t-33 -77.5t-80 -30.5t-80 30.5t-33 77.5z" />
    <glyph glyph-name="cdotaccent" unicode="&#x10b;" horiz-adv-x="553" 
d="M289 -13q-75 0 -135 30.5t-94.5 89.5t-34.5 145q0 85 34.5 145t94.5 91.5t135 31.5q61 0 114 -22.5t87 -69t40 -118.5h-195q-5 44 -16 62t-28 18q-23 0 -37.5 -30.5t-14.5 -106.5t14.5 -106t37.5 -30q18 0 30 17.5t17 68.5h195q-10 -78 -45.5 -125.5t-87.5 -69
t-111 -21.5zM178 663q0 47 32.5 76.5t78.5 29.5t78.5 -29.5t32.5 -76.5t-32.5 -76.5t-78.5 -29.5t-78.5 29.5t-32.5 76.5z" />
    <glyph glyph-name="Ccaron" unicode="&#x10c;" horiz-adv-x="697" 
d="M360 -16q-109 0 -182.5 44t-110.5 123t-37 184q0 103 37 182t110.5 124t182.5 45q132 0 212 -72.5t101 -199.5h-223q-18 121 -95 121q-49 0 -77 -52.5t-28 -147.5t28 -147t79 -52q37 0 59.5 29.5t31.5 84.5h223q-11 -80 -51.5 -140t-106 -93t-153.5 -33zM307 714
l-173 136l68 98l146 -89l146 89l68 -98l-173 -136h-82z" />
    <glyph glyph-name="ccaron" unicode="&#x10d;" horiz-adv-x="553" 
d="M289 -13q-75 0 -135 30.5t-94.5 89.5t-34.5 145q0 85 34.5 145t94.5 91.5t135 31.5q61 0 114 -22.5t87 -69t40 -118.5h-195q-5 44 -16 62t-28 18q-23 0 -37.5 -30.5t-14.5 -106.5t14.5 -106t37.5 -30q18 0 30 17.5t17 68.5h195q-10 -78 -45.5 -125.5t-87.5 -69
t-111 -21.5zM241 562l-141 147l70 78l120 -94l119 94l70 -78l-140 -147h-98z" />
    <glyph glyph-name="Dcaron" unicode="&#x10e;" horiz-adv-x="715" 
d="M68 0v670h247q119 0 201.5 -43t125.5 -116t43 -162q0 -105 -43 -183.5t-125.5 -122t-202.5 -43.5h-246zM315 524h-47v-377h47q75 0 112.5 49t37.5 143q0 89 -38.5 137t-111.5 48zM274 714l-173 136l68 98l146 -89l146 89l68 -98l-173 -136h-82z" />
    <glyph glyph-name="dcaron" unicode="&#x10f;" horiz-adv-x="715" 
d="M228 520q34 0 68 -15.5t57 -46.5v242h205v-700h-179l-5 88q-43 -101 -151 -101q-60 0 -104 34.5t-68 94.5t-24 137q0 127 55.5 197t145.5 70zM295 382q-29 0 -41.5 -37t-12.5 -92t12.5 -91.5t41.5 -36.5t44 32.5t15 87.5v18q0 55 -15 87t-44 32zM708 492h-95v208h150v-8
q0 -26 -6.5 -63t-19 -74t-29.5 -63z" />
    <glyph glyph-name="Dcroat" unicode="&#x110;" horiz-adv-x="736" 
d="M89 0v267h-79v137h79v266h247q119 0 201.5 -43t125.5 -116t43 -162q0 -105 -43 -183.5t-126 -122t-202 -43.5h-246zM415 267h-126v-120h47q75 0 112.5 49t37.5 143q0 89 -38 137t-112 48h-47v-120h126v-137z" />
    <glyph glyph-name="dcroat" unicode="&#x111;" horiz-adv-x="630" 
d="M221 -13q-59 0 -103 33t-68.5 91t-24.5 132q0 77 24 134.5t68.5 90t103.5 32.5q37 0 72 -17t58 -51v106h-110v98h110v64h205v-64h62v-98h-62v-538h-183l-8 75q-45 -88 -144 -88zM294 362q-29 0 -42.5 -34t-13.5 -85q0 -50 13 -84t42 -34t44.5 28.5t15.5 80.5v19
q0 52 -15.5 80.5t-43.5 28.5z" />
    <glyph glyph-name="Emacron" unicode="&#x112;" horiz-adv-x="580" 
d="M68 0v670h468v-154h-263v-106h232v-147h-232v-109h267v-154h-472zM103 744v142h398v-142h-398z" />
    <glyph glyph-name="emacron" unicode="&#x113;" horiz-adv-x="563" 
d="M288 -13q-74 0 -134 29t-94.5 88t-34.5 148q0 82 31.5 142t89.5 93t139 33q83 0 139.5 -34.5t85 -95t28.5 -140.5v-37h-314q5 -61 23 -81.5t41 -20.5q43 0 52 52h192q-18 -89 -85 -132.5t-159 -43.5zM282 398q-27 0 -42.5 -25t-16.5 -76h116q-5 101 -57 101zM111 585v128
h344v-128h-344z" />
    <glyph glyph-name="Edotaccent" unicode="&#x116;" horiz-adv-x="580" 
d="M68 0v670h468v-154h-263v-106h232v-147h-232v-109h267v-154h-472zM189 826q0 47 33 77.5t80 30.5t80 -30.5t33 -77.5t-33 -77.5t-80 -30.5t-80 30.5t-33 77.5z" />
    <glyph glyph-name="edotaccent" unicode="&#x117;" horiz-adv-x="563" 
d="M288 -13q-74 0 -134 29t-94.5 88t-34.5 148q0 82 31.5 142t89.5 93t139 33q83 0 139.5 -34.5t85 -95t28.5 -140.5v-37h-314q5 -61 23 -81.5t41 -20.5q43 0 52 52h192q-18 -89 -85 -132.5t-159 -43.5zM282 398q-27 0 -42.5 -25t-16.5 -76h116q-5 101 -57 101zM172 663
q0 47 32.5 76.5t78.5 29.5t78.5 -29.5t32.5 -76.5t-32.5 -76.5t-78.5 -29.5t-78.5 29.5t-32.5 76.5z" />
    <glyph glyph-name="Eogonek" unicode="&#x118;" horiz-adv-x="580" 
d="M68 0v670h468v-154h-263v-106h232v-147h-232v-109h267v-154h-472zM435 -279q-77 0 -120.5 38t-43.5 97q0 44 26 87.5t87 77.5l133 -21q-37 0 -63.5 -23.5t-26.5 -66.5q0 -68 59 -68q16 0 28 3t26 9v-117q-22 -7 -49 -11.5t-56 -4.5z" />
    <glyph glyph-name="eogonek" unicode="&#x119;" horiz-adv-x="563" 
d="M288 -13q-74 0 -134 29t-94.5 88t-34.5 148q0 82 31.5 142t89.5 93t139 33q83 0 139.5 -34.5t85 -95t28.5 -140.5v-37h-314q5 -61 23 -81.5t41 -20.5q43 0 52 52h192q-18 -89 -85 -132.5t-159 -43.5zM282 398q-27 0 -42.5 -25t-16.5 -76h116q-5 101 -57 101zM379 -273
q-82 0 -124 39t-42 91q0 37 17 69t65 69l144 35q-47 -36 -63.5 -62.5t-16.5 -57.5q0 -37 20 -52.5t48 -15.5q14 0 26.5 3t24.5 7v-109q-23 -7 -48 -11.5t-51 -4.5z" />
    <glyph glyph-name="Ecaron" unicode="&#x11a;" horiz-adv-x="580" 
d="M68 0v670h468v-154h-263v-106h232v-147h-232v-109h267v-154h-472zM261 714l-173 136l68 98l146 -89l146 89l68 -98l-173 -136h-82z" />
    <glyph glyph-name="ecaron" unicode="&#x11b;" horiz-adv-x="563" 
d="M288 -13q-74 0 -134 29t-94.5 88t-34.5 148q0 82 31.5 142t89.5 93t139 33q83 0 139.5 -34.5t85 -95t28.5 -140.5v-37h-314q5 -61 23 -81.5t41 -20.5q43 0 52 52h192q-18 -89 -85 -132.5t-159 -43.5zM282 398q-27 0 -42.5 -25t-16.5 -76h116q-5 101 -57 101zM235 562
l-141 147l70 78l120 -94l119 94l70 -78l-140 -147h-98z" />
    <glyph glyph-name="Gbreve" unicode="&#x11e;" horiz-adv-x="714" 
d="M30 335q0 102 38.5 181.5t114.5 124.5t188 45q123 0 200 -63.5t105 -178.5h-224q-12 46 -34 67.5t-55 21.5q-57 0 -85 -51.5t-28 -146.5t29 -148t92 -53q38 0 65.5 19.5t40.5 65.5h-98v147h307v-54q0 -63 -19 -121.5t-58 -105t-99 -74t-143 -27.5q-108 0 -183.5 44
t-114.5 123t-39 184zM371 858q28 0 43 15t19 35h122q-2 -50 -23.5 -90.5t-62 -64.5t-98.5 -24t-98.5 24t-62 64.5t-23.5 90.5h122q4 -20 19 -35t43 -15z" />
    <glyph glyph-name="gbreve" unicode="&#x11f;" horiz-adv-x="608" 
d="M291 -223q-101 0 -168.5 43.5t-83.5 132.5h192q6 -25 20.5 -40.5t39.5 -15.5q60 0 60 88v86q-43 -74 -133 -74q-58 0 -101.5 32.5t-67.5 91.5t-24 137q0 80 25.5 139t71 91t105.5 32q45 0 83.5 -23.5t58.5 -68.5l5 79h182v-457q0 -138 -67 -205.5t-198 -67.5zM295 134
q29 0 44 30.5t15 88.5v13q0 56 -16 86t-43 30q-31 0 -44.5 -34t-13.5 -88q0 -55 13.5 -90.5t44.5 -35.5zM295 698q30 0 43.5 17t15.5 42h115q-3 -84 -46.5 -136.5t-127.5 -52.5t-127.5 52.5t-46.5 136.5h115q2 -25 15.5 -42t43.5 -17z" />
    <glyph glyph-name="Gdotaccent" unicode="&#x120;" horiz-adv-x="714" 
d="M30 335q0 102 38.5 181.5t114.5 124.5t188 45q123 0 200 -63.5t105 -178.5h-224q-12 46 -34 67.5t-55 21.5q-57 0 -85 -51.5t-28 -146.5t29 -148t92 -53q38 0 65.5 19.5t40.5 65.5h-98v147h307v-54q0 -63 -19 -121.5t-58 -105t-99 -74t-143 -27.5q-108 0 -183.5 44
t-114.5 123t-39 184zM258 826q0 47 33 77.5t80 30.5t80 -30.5t33 -77.5t-33 -77.5t-80 -30.5t-80 30.5t-33 77.5z" />
    <glyph glyph-name="gdotaccent" unicode="&#x121;" horiz-adv-x="608" 
d="M291 -223q-101 0 -168.5 43.5t-83.5 132.5h192q6 -25 20.5 -40.5t39.5 -15.5q60 0 60 88v86q-43 -74 -133 -74q-58 0 -101.5 32.5t-67.5 91.5t-24 137q0 80 25.5 139t71 91t105.5 32q45 0 83.5 -23.5t58.5 -68.5l5 79h182v-457q0 -138 -67 -205.5t-198 -67.5zM295 134
q29 0 44 30.5t15 88.5v13q0 56 -16 86t-43 30q-31 0 -44.5 -34t-13.5 -88q0 -55 13.5 -90.5t44.5 -35.5zM184 663q0 47 32.5 76.5t78.5 29.5t78.5 -29.5t32.5 -76.5t-32.5 -76.5t-78.5 -29.5t-78.5 29.5t-32.5 76.5z" />
    <glyph glyph-name="uni0122" unicode="&#x122;" horiz-adv-x="714" 
d="M30 335q0 102 38.5 181.5t114.5 124.5t188 45q123 0 200 -63.5t105 -178.5h-224q-12 46 -34 67.5t-55 21.5q-57 0 -85 -51.5t-28 -146.5t29 -148t92 -53q38 0 65.5 19.5t40.5 65.5h-98v147h307v-54q0 -63 -19 -121.5t-58 -105t-99 -74t-143 -27.5q-108 0 -183.5 44
t-114.5 123t-39 184zM262 -362v77q32 6 56.5 18t38.5 35q-35 3 -59 28t-24 67q0 43 27.5 68.5t67.5 25.5q42 0 70.5 -31t28.5 -88q0 -52 -26 -94.5t-72.5 -70t-107.5 -35.5z" />
    <glyph glyph-name="uni0123" unicode="&#x123;" horiz-adv-x="608" 
d="M291 -223q-101 0 -168.5 43.5t-83.5 132.5h192q6 -25 20.5 -40.5t39.5 -15.5q60 0 60 88v86q-43 -74 -133 -74q-58 0 -101.5 32.5t-67.5 91.5t-24 137q0 80 25.5 139t71 91t105.5 32q45 0 83.5 -23.5t58.5 -68.5l5 79h182v-457q0 -138 -67 -205.5t-198 -67.5zM295 134
q29 0 44 30.5t15 88.5v13q0 56 -16 86t-43 30q-31 0 -44.5 -34t-13.5 -88q0 -55 13.5 -90.5t44.5 -35.5zM389 859v-71q-34 -7 -55.5 -19t-30.5 -34q28 -3 53.5 -27t25.5 -65q0 -39 -26.5 -64.5t-63.5 -25.5q-38 0 -66.5 29.5t-28.5 84.5q0 79 54 128.5t138 63.5z" />
    <glyph glyph-name="Hbar" unicode="&#x126;" horiz-adv-x="781" 
d="M89 0v474h-79v120h79v76h211v-76h181v76h211v-76h79v-120h-79v-474h-211v243h-181v-243h-211zM300 396h181v78h-181v-78z" />
    <glyph glyph-name="hbar" unicode="&#x127;" horiz-adv-x="632" 
d="M77 0v538h-62v98h62v64h205v-64h110v-98h-110v-116q19 34 54.5 56t86.5 22q78 0 120 -50t42 -135v-315h-205v291q0 31 -11 48t-34 17q-21 0 -37 -18t-16 -59v-279h-205z" />
    <glyph glyph-name="Itilde" unicode="&#x128;" horiz-adv-x="346" 
d="M68 0v670h210v-670h-210zM147 764q-15 10 -24 15t-19 5q-14 0 -22 -13t-15 -45h-115q5 56 23 100t47.5 70t70.5 26q28 0 52 -12t52 -32q15 -10 25.5 -15.5t21.5 -5.5q13 0 19.5 13.5t13.5 44.5h115q-5 -55 -22 -99t-45.5 -70t-65.5 -26q-34 0 -58.5 12.5t-53.5 31.5z" />
    <glyph glyph-name="itilde" unicode="&#x129;" horiz-adv-x="305" 
d="M50 0v507h205v-507h-205zM132 601q-16 13 -23.5 17.5t-15.5 4.5q-11 0 -19 -13t-11 -43h-98q3 51 17.5 93t40.5 67t63 25q25 0 45.5 -11t42.5 -31q14 -13 22.5 -17.5t16.5 -4.5q11 0 19 13t11 44h98q-3 -52 -17.5 -94t-40.5 -66.5t-63 -24.5q-25 0 -46 11.5t-42 29.5z
" />
    <glyph glyph-name="Imacron" unicode="&#x12a;" horiz-adv-x="346" 
d="M68 0v670h210v-670h-210zM-27 744v142h398v-142h-398z" />
    <glyph glyph-name="imacron" unicode="&#x12b;" horiz-adv-x="305" 
d="M50 0v507h205v-507h-205zM-17 585v128h340v-128h-340z" />
    <glyph glyph-name="Iogonek" unicode="&#x12e;" horiz-adv-x="346" 
d="M68 0v670h210v-670h-210zM168 -279q-77 0 -120.5 38t-43.5 97q0 44 26 87.5t87 77.5l133 -21q-37 0 -63.5 -23.5t-26.5 -66.5q0 -68 59 -68q16 0 28 3t26 9v-117q-22 -7 -49 -11.5t-56 -4.5z" />
    <glyph glyph-name="iogonek" unicode="&#x12f;" horiz-adv-x="305" 
d="M152 764q47 0 79 -31t32 -75t-32 -75t-79 -31t-79 31t-32 75t32 75t79 31zM50 0v507h205v-507h-205zM144 -273q-80 0 -122 36t-42 93q0 48 30.5 92t93.5 79l111 -27q-44 0 -65.5 -25t-21.5 -60q0 -36 18 -54.5t47 -18.5q16 0 28 3t25 7v-109q-19 -7 -47 -11.5t-55 -4.5z
" />
    <glyph glyph-name="Idotaccent" unicode="&#x130;" horiz-adv-x="346" 
d="M68 0v670h210v-670h-210zM59 826q0 47 33 77.5t80 30.5t80 -30.5t33 -77.5t-33 -77.5t-80 -30.5t-80 30.5t-33 77.5z" />
    <glyph glyph-name="dotlessi" unicode="&#x131;" horiz-adv-x="305" 
d="M50 0v507h205v-507h-205z" />
    <glyph glyph-name="IJ" unicode="&#x132;" horiz-adv-x="675" 
d="M341 -16q-128 0 -199.5 66.5t-81.5 180.5h210q4 -40 22 -66.5t50 -26.5q31 0 49 26t18 82v424h210v-405q0 -129 -71 -205t-207 -76zM270 313h-210v357h210v-357z" />
    <glyph glyph-name="ij" unicode="&#x133;" horiz-adv-x="598" 
d="M40 658q0 28 15 52.5t40 39t56 14.5t56 -14.5t40 -39t15 -52.5q0 -44 -32 -75t-79 -31t-79 31t-32 75zM333 658q0 43 32.5 74.5t79.5 31.5q31 0 56 -14.5t40 -39t15 -52.5q0 -29 -15 -53t-40 -38.5t-56 -14.5q-47 0 -79.5 31t-32.5 75zM44 -53h192q4 -23 16 -36.5
t35 -13.5q25 0 40 21.5t15 66.5v80q-19 -27 -53 -46t-85 -19q-67 0 -110.5 45.5t-43.5 129.5v332h205v-300q0 -25 8.5 -43t31.5 -18q19 0 33 18t14 58v285h205v-461q0 -133 -67 -201t-193 -68q-63 0 -114.5 19t-85.5 56.5t-43 94.5z" />
    <glyph glyph-name="uni0136" unicode="&#x136;" horiz-adv-x="694" 
d="M68 0v670h210v-271l159 271h240l-219 -320q27 -14 50 -34t44 -44q49 -57 80.5 -129t51.5 -143h-240q-6 28 -16 60.5t-21.5 61.5t-20.5 46q-21 40 -51.5 69.5t-56.5 33.5v-271h-210zM254 -362v77q32 6 56.5 18t38.5 35q-35 3 -59 28t-24 67q0 43 27.5 68.5t67.5 25.5
q42 0 70.5 -31t28.5 -88q0 -52 -26 -94.5t-72.5 -70t-107.5 -35.5z" />
    <glyph glyph-name="uni0137" unicode="&#x137;" horiz-adv-x="594" 
d="M52 0v700h205v-386l107 192h210l-168 -232q27 -20 52 -43t45 -49q29 -37 52 -81.5t39 -100.5h-218q-8 29 -17 56t-22 50q-16 29 -35.5 55.5t-44.5 50.5v-212h-205zM214 -344v69q27 4 53 15.5t41 34.5q-29 3 -54.5 25.5t-25.5 66.5q0 39 25.5 64.5t66.5 25.5
q40 0 66.5 -29.5t26.5 -84.5q0 -53 -29 -93t-74.5 -64t-95.5 -30z" />
    <glyph glyph-name="Lacute" unicode="&#x139;" horiz-adv-x="550" 
d="M68 0v670h210v-509h242v-161h-452zM40 807l234 154l85 -162l-267 -98z" />
    <glyph glyph-name="lacute" unicode="&#x13a;" horiz-adv-x="309" 
d="M52 0v700h205v-700h-205zM52 835l194 133l69 -141l-212 -90z" />
    <glyph glyph-name="uni013B" unicode="&#x13b;" horiz-adv-x="550" 
d="M68 0v670h210v-509h242v-161h-452zM185 -362v77q32 6 56.5 18t38.5 35q-35 3 -59 28t-24 67q0 43 27.5 68.5t67.5 25.5q42 0 70.5 -31t28.5 -88q0 -52 -26 -94.5t-72.5 -70t-107.5 -35.5z" />
    <glyph glyph-name="uni013C" unicode="&#x13c;" horiz-adv-x="309" 
d="M52 0v700h205v-700h-205zM48 -344v69q27 4 53 15.5t41 34.5q-29 3 -54.5 25.5t-25.5 66.5q0 39 25.5 64.5t66.5 25.5q40 0 66.5 -29.5t26.5 -84.5q0 -53 -29 -93t-74.5 -64t-95.5 -30z" />
    <glyph glyph-name="Lcaron" unicode="&#x13d;" horiz-adv-x="550" 
d="M68 0v670h210v-509h242v-161h-452zM453 454h-100v216h157v-12q0 -27 -7 -67t-20 -77.5t-30 -59.5z" />
    <glyph glyph-name="lcaron" unicode="&#x13e;" horiz-adv-x="309" 
d="M52 0v700h205v-700h-205zM407 492h-95v208h150v-8q0 -26 -6.5 -63t-19 -74t-29.5 -63z" />
    <glyph glyph-name="Lslash" unicode="&#x141;" horiz-adv-x="586" 
d="M105 0v204l-80 -43v153l80 43v313h210v-200l142 76v-154l-142 -76v-155h241v-161h-451z" />
    <glyph glyph-name="lslash" unicode="&#x142;" horiz-adv-x="380" 
d="M88 0v244l-84 -47v145l84 47v311h205v-196l83 47v-146l-83 -46v-359h-205z" />
    <glyph glyph-name="Nacute" unicode="&#x143;" horiz-adv-x="733" 
d="M68 0v670h197l195 -368v368h205v-670h-196l-196 372v-372h-205zM230 807l234 154l85 -162l-267 -98z" />
    <glyph glyph-name="nacute" unicode="&#x144;" horiz-adv-x="607" 
d="M52 0v507h180l5 -83q19 42 57.5 69t96.5 27q77 0 123 -48t46 -132v-340h-205v311q0 31 -11.5 48t-33.5 17q-21 0 -37 -18t-16 -59v-299h-205zM194 623l165 176l103 -122l-200 -131z" />
    <glyph glyph-name="uni0145" unicode="&#x145;" horiz-adv-x="733" 
d="M68 0v670h197l195 -368v368h205v-670h-196l-196 372v-372h-205zM256 -362v77q32 6 56.5 18t38.5 35q-35 3 -59 28t-24 67q0 43 27.5 68.5t67.5 25.5q42 0 70.5 -31t28.5 -88q0 -52 -26 -94.5t-72.5 -70t-107.5 -35.5z" />
    <glyph glyph-name="uni0146" unicode="&#x146;" horiz-adv-x="607" 
d="M52 0v507h180l5 -83q19 42 57.5 69t96.5 27q77 0 123 -48t46 -132v-340h-205v311q0 31 -11.5 48t-33.5 17q-21 0 -37 -18t-16 -59v-299h-205zM199 -344v69q27 4 53 15.5t41 34.5q-29 3 -54.5 25.5t-25.5 66.5q0 39 25.5 64.5t66.5 25.5q40 0 66.5 -29.5t26.5 -84.5
q0 -53 -29 -93t-74.5 -64t-95.5 -30z" />
    <glyph glyph-name="Ncaron" unicode="&#x147;" horiz-adv-x="733" 
d="M68 0v670h197l195 -368v368h205v-670h-196l-196 372v-372h-205zM324 714l-173 136l68 98l146 -89l146 89l68 -98l-173 -136h-82z" />
    <glyph glyph-name="ncaron" unicode="&#x148;" horiz-adv-x="607" 
d="M52 0v507h180l5 -83q19 42 57.5 69t96.5 27q77 0 123 -48t46 -132v-340h-205v311q0 31 -11.5 48t-33.5 17q-21 0 -37 -18t-16 -59v-299h-205zM257 562l-141 147l70 78l120 -94l119 94l70 -78l-140 -147h-98z" />
    <glyph glyph-name="Eng" unicode="&#x14a;" horiz-adv-x="733" 
d="M68 0v670h200l191 -343v343h206v-619q0 -142 -58.5 -208t-171.5 -66q-31 0 -71 7t-68 20l28 139q16 -6 34 -10.5t38 -4.5q29 0 45.5 18t16.5 56v42l-185 328v-372h-205z" />
    <glyph glyph-name="eng" unicode="&#x14b;" horiz-adv-x="602" 
d="M52 0v507h180l5 -83q19 42 57.5 69t96.5 27q77 0 123 -47t46 -133v-340q0 -101 -48.5 -162t-155.5 -61q-25 0 -52.5 5.5t-53.5 15.5l23 122q20 -7 38 -7q22 0 33 16t11 43v339q0 31 -11.5 48t-33.5 17q-21 0 -37 -18t-16 -59v-299h-205z" />
    <glyph glyph-name="Ohungarumlaut" unicode="&#x150;" horiz-adv-x="730" 
d="M365 686q108 0 182.5 -45t113.5 -124t39 -182q0 -102 -39 -181.5t-113.5 -124.5t-182.5 -45t-182.5 45t-113.5 124t-39 182t39 182t113.5 124t182.5 45zM365 137q55 0 85 51.5t30 146.5t-30 146.5t-85 51.5t-85 -51.5t-30 -146.5t30 -146.5t85 -51.5zM178 795l182 201
l99 -120l-218 -159zM393 798l219 158l75 -136l-246 -109z" />
    <glyph glyph-name="ohungarumlaut" unicode="&#x151;" horiz-adv-x="588" 
d="M294 520q84 0 144.5 -35t92.5 -95t32 -136t-32 -136t-92.5 -95.5t-144.5 -35.5t-144.5 35t-92.5 95.5t-32 135.5t32 135.5t92.5 96t144.5 35.5zM294 392q-28 0 -42.5 -33t-14.5 -106t14.5 -105.5t42.5 -32.5t42.5 32.5t14.5 106.5t-14.5 106t-42.5 32zM130 609l145 203
l107 -96l-184 -166zM305 614l189 165l81 -115l-219 -122z" />
    <glyph glyph-name="OE" unicode="&#x152;" horiz-adv-x="965" 
d="M30 335q0 101 43 176.5t125.5 117t201.5 41.5h521v-154h-255v-105h224v-147h-224v-110h259v-154h-525q-119 0 -201.5 42t-125.5 117.5t-43 175.5zM400 154h61v362h-61q-74 0 -111 -48t-37 -133t37 -133t111 -48z" />
    <glyph glyph-name="oe" unicode="&#x153;" horiz-adv-x="885" 
d="M859 163q-19 -89 -85 -132.5t-159 -43.5q-48 0 -88 15t-73 50q-31 -33 -71 -49t-89 -16q-84 0 -144.5 35t-92.5 95.5t-32 135.5t32 135.5t92.5 96t144.5 35.5q50 0 90.5 -16t70.5 -51q58 67 158 67q81 0 137.5 -34.5t85.5 -96t29 -142.5v-34h-314q4 -43 14 -65t23 -29.5
t27 -7.5q25 0 36.5 14.5t15.5 37.5h192zM609 398q-30 0 -43.5 -27t-15.5 -74h116q-3 47 -14.5 74t-42.5 27zM294 115q27 0 41.5 32.5t14.5 105.5t-14.5 105.5t-41.5 32.5t-41.5 -32.5t-14.5 -105.5t14.5 -105.5t41.5 -32.5z" />
    <glyph glyph-name="Racute" unicode="&#x154;" horiz-adv-x="688" 
d="M68 0v670h301q125 0 192 -51t67 -139q0 -77 -45.5 -120t-111.5 -60q58 -27 97 -74t62 -105t34 -121h-225q-10 67 -33.5 122.5t-57.5 89.5t-75 38v-250h-205zM315 534h-42v-157h46q47 0 72 21t25 57q0 41 -27 60t-74 19zM179 807l234 154l85 -162l-267 -98z" />
    <glyph glyph-name="racute" unicode="&#x155;" horiz-adv-x="409" 
d="M52 0v507h177l10 -98q14 47 46.5 77t82.5 30q10 0 18 -1t12 -2v-184q-10 2 -19.5 3t-19.5 1q-47 0 -74.5 -28.5t-27.5 -89.5v-215h-205zM111 623l165 176l103 -122l-200 -131z" />
    <glyph glyph-name="Rcaron" unicode="&#x158;" horiz-adv-x="688" 
d="M68 0v670h301q125 0 192 -51t67 -139q0 -77 -45.5 -120t-111.5 -60q58 -27 97 -74t62 -105t34 -121h-225q-10 67 -33.5 122.5t-57.5 89.5t-75 38v-250h-205zM315 534h-42v-157h46q47 0 72 21t25 57q0 41 -27 60t-74 19zM273 714l-173 136l68 98l146 -89l146 89l68 -98
l-173 -136h-82z" />
    <glyph glyph-name="rcaron" unicode="&#x159;" horiz-adv-x="409" 
d="M52 0v507h177l10 -98q14 47 46.5 77t82.5 30q10 0 18 -1t12 -2v-184q-10 2 -19.5 3t-19.5 1q-47 0 -74.5 -28.5t-27.5 -89.5v-215h-205zM174 562l-141 147l70 78l120 -94l119 94l70 -78l-140 -147h-98z" />
    <glyph glyph-name="Sacute" unicode="&#x15a;" horiz-adv-x="628" 
d="M321 -16q-131 0 -205 58.5t-86 168.5h205q6 -50 30 -70.5t58 -20.5q33 0 49.5 16.5t16.5 41.5q0 21 -14.5 38.5t-48.5 27.5l-104 29q-88 25 -131.5 72.5t-43.5 127.5q0 72 36 119t96.5 70.5t133.5 23.5q125 0 190.5 -57.5t79.5 -164.5h-201q-4 38 -22 62t-52 24
q-26 0 -42 -15t-16 -41q0 -48 55 -62l102 -27q78 -21 118.5 -53t55.5 -72t15 -83q0 -100 -71.5 -156.5t-203.5 -56.5zM174 807l234 154l85 -162l-267 -98z" />
    <glyph glyph-name="sacute" unicode="&#x15b;" horiz-adv-x="542" 
d="M274 -13q-112 0 -175.5 45t-72.5 130h190q4 -33 20 -47t39 -14q22 0 32 9.5t10 24.5q0 16 -12 27.5t-43 19.5l-86 22q-65 16 -101.5 52.5t-36.5 97.5q0 56 30.5 93t83 55t118.5 18q105 0 162.5 -43.5t70.5 -123.5h-187q-3 24 -13.5 38.5t-32.5 14.5q-40 0 -40 -36
q0 -34 51 -47l68 -17q92 -23 127 -57.5t35 -93.5q0 -80 -63.5 -124t-173.5 -44zM157 623l165 176l103 -122l-200 -131z" />
    <glyph glyph-name="Scedilla" unicode="&#x15e;" horiz-adv-x="628" 
d="M321 -16q-131 0 -205 58.5t-86 168.5h205q6 -50 30 -70.5t58 -20.5q33 0 49.5 16.5t16.5 41.5q0 21 -14.5 38.5t-48.5 27.5l-104 29q-88 25 -131.5 72.5t-43.5 127.5q0 72 36 119t96.5 70.5t133.5 23.5q125 0 190.5 -57.5t79.5 -164.5h-201q-4 38 -22 62t-52 24
q-26 0 -42 -15t-16 -41q0 -48 55 -62l102 -27q78 -21 118.5 -53t55.5 -72t15 -83q0 -100 -71.5 -156.5t-203.5 -56.5zM261 2h87l-4 -59q9 2 18 2q47 0 77 -29t30 -78q0 -60 -39 -94.5t-113 -34.5q-17 0 -43.5 3.5t-45.5 11.5l9 96q39 -11 69 -11q23 0 32 8.5t9 20.5
q0 13 -8.5 19t-21.5 6q-11 0 -20.5 -3.5t-16.5 -8.5h-34z" />
    <glyph glyph-name="scedilla" unicode="&#x15f;" horiz-adv-x="542" 
d="M274 -13q-112 0 -175.5 45t-72.5 130h190q4 -33 20 -47t39 -14q22 0 32 9.5t10 24.5q0 16 -12 27.5t-43 19.5l-86 22q-65 16 -101.5 52.5t-36.5 97.5q0 56 30.5 93t83 55t118.5 18q105 0 162.5 -43.5t70.5 -123.5h-187q-3 24 -13.5 38.5t-32.5 14.5q-40 0 -40 -36
q0 -34 51 -47l68 -17q92 -23 127 -57.5t35 -93.5q0 -80 -63.5 -124t-173.5 -44zM215 2h81l-8 -60q12 3 24 3q45 0 74 -27.5t29 -75.5q0 -58 -38.5 -91.5t-112.5 -33.5q-23 0 -44.5 3.5t-38.5 8.5l9 90q16 -4 30.5 -6.5t32.5 -2.5q26 0 36.5 8t10.5 22q0 10 -7 17.5t-24 7.5
q-12 0 -22.5 -4t-17.5 -9h-30z" />
    <glyph glyph-name="Scaron" unicode="&#x160;" horiz-adv-x="628" 
d="M321 -16q-131 0 -205 58.5t-86 168.5h205q6 -50 30 -70.5t58 -20.5q33 0 49.5 16.5t16.5 41.5q0 21 -14.5 38.5t-48.5 27.5l-104 29q-88 25 -131.5 72.5t-43.5 127.5q0 72 36 119t96.5 70.5t133.5 23.5q125 0 190.5 -57.5t79.5 -164.5h-201q-4 38 -22 62t-52 24
q-26 0 -42 -15t-16 -41q0 -48 55 -62l102 -27q78 -21 118.5 -53t55.5 -72t15 -83q0 -100 -71.5 -156.5t-203.5 -56.5zM268 714l-173 136l68 98l146 -89l146 89l68 -98l-173 -136h-82z" />
    <glyph glyph-name="scaron" unicode="&#x161;" horiz-adv-x="542" 
d="M274 -13q-112 0 -175.5 45t-72.5 130h190q4 -33 20 -47t39 -14q22 0 32 9.5t10 24.5q0 16 -12 27.5t-43 19.5l-86 22q-65 16 -101.5 52.5t-36.5 97.5q0 56 30.5 93t83 55t118.5 18q105 0 162.5 -43.5t70.5 -123.5h-187q-3 24 -13.5 38.5t-32.5 14.5q-40 0 -40 -36
q0 -34 51 -47l68 -17q92 -23 127 -57.5t35 -93.5q0 -80 -63.5 -124t-173.5 -44zM220 562l-141 147l70 78l120 -94l119 94l70 -78l-140 -147h-98z" />
    <glyph glyph-name="uni0162" unicode="&#x162;" horiz-adv-x="602" 
d="M196 0v516h-186v154h582v-154h-186v-516h-210zM252 2h87l-4 -59q9 2 18 2q47 0 77 -29t30 -78q0 -60 -39 -94.5t-113 -34.5q-17 0 -43.5 3.5t-45.5 11.5l9 96q39 -11 69 -11q23 0 32 8.5t9 20.5q0 13 -8.5 19t-21.5 6q-11 0 -20.5 -3.5t-16.5 -8.5h-34z" />
    <glyph glyph-name="uni0163" unicode="&#x163;" horiz-adv-x="418" 
d="M268 -13q-98 0 -145.5 52.5t-47.5 140.5v197h-62v130h62v139h205v-139h108v-130h-108v-189q0 -57 48 -57q25 0 52 12l30 -125q-24 -14 -62 -22.5t-80 -8.5zM185 2h81l-8 -60q12 3 24 3q45 0 74 -27.5t29 -75.5q0 -58 -38.5 -91.5t-112.5 -33.5q-23 0 -44.5 3.5t-38.5 8.5
l9 90q16 -4 30.5 -6.5t32.5 -2.5q26 0 36.5 8t10.5 22q0 10 -7 17.5t-24 7.5q-12 0 -22.5 -4t-17.5 -9h-30z" />
    <glyph glyph-name="Tcaron" unicode="&#x164;" horiz-adv-x="602" 
d="M196 0v516h-186v154h582v-154h-186v-516h-210zM259 714l-173 136l68 98l146 -89l146 89l68 -98l-173 -136h-82z" />
    <glyph glyph-name="tcaron" unicode="&#x165;" horiz-adv-x="418" 
d="M268 -13q-98 0 -145.5 52.5t-47.5 140.5v197h-62v130h62v139h205v-139h108v-130h-108v-189q0 -57 48 -57q25 0 52 12l30 -125q-24 -14 -62 -22.5t-80 -8.5zM425 547h-100v177h142v-13q0 -40 -10.5 -87t-31.5 -77z" />
    <glyph glyph-name="Tbar" unicode="&#x166;" horiz-adv-x="602" 
d="M196 0v238h-116v134h116v144h-186v154h582v-154h-186v-144h117v-134h-117v-238h-210z" />
    <glyph glyph-name="tbar" unicode="&#x167;" horiz-adv-x="409" 
d="M13 198v118h69v61h-69v130h69v139h193v-139h112v-130h-112v-61h112v-118h-112v-25q0 -25 14 -38t36 -13q10 0 21.5 2t24.5 7l30 -116q-24 -13 -60.5 -20.5t-74.5 -7.5q-64 0 -105 25t-60 68.5t-19 96.5v21h-69z" />
    <glyph glyph-name="Utilde" unicode="&#x168;" horiz-adv-x="708" 
d="M354 138q45 0 66.5 32.5t21.5 92.5v407h210v-388q0 -144 -76.5 -221t-221.5 -77t-221.5 77t-76.5 221v388h210v-407q0 -60 21.5 -92.5t66.5 -32.5zM329 764q-15 10 -24 15t-19 5q-14 0 -22 -13t-15 -45h-115q5 56 23 100t47.5 70t70.5 26q28 0 52 -12t52 -32
q15 -10 25.5 -15.5t21.5 -5.5q13 0 19.5 13.5t13.5 44.5h115q-5 -55 -22 -99t-45.5 -70t-65.5 -26q-34 0 -58.5 12.5t-53.5 31.5z" />
    <glyph glyph-name="utilde" unicode="&#x169;" horiz-adv-x="596" 
d="M544 507v-507h-180l-5 83q-18 -41 -57 -68.5t-100 -27.5q-70 0 -112.5 46.5t-42.5 134.5v339h205v-312q0 -28 8.5 -45t29.5 -17q22 0 35.5 18t13.5 60v296h205zM272 598q-18 14 -25 17.5t-14 3.5q-21 0 -31 -53h-108q4 80 37.5 132.5t90.5 52.5q29 0 51.5 -12.5
t42.5 -27.5q18 -13 25.5 -17t14.5 -4q20 0 30 54h108q-4 -80 -37.5 -132.5t-90.5 -52.5q-29 0 -51.5 12.5t-42.5 26.5z" />
    <glyph glyph-name="Umacron" unicode="&#x16a;" horiz-adv-x="708" 
d="M354 138q45 0 66.5 32.5t21.5 92.5v407h210v-388q0 -144 -76.5 -221t-221.5 -77t-221.5 77t-76.5 221v388h210v-407q0 -60 21.5 -92.5t66.5 -32.5zM155 744v142h398v-142h-398z" />
    <glyph glyph-name="umacron" unicode="&#x16b;" horiz-adv-x="596" 
d="M544 507v-507h-180l-5 83q-18 -41 -57 -68.5t-100 -27.5q-70 0 -112.5 46.5t-42.5 134.5v339h205v-312q0 -28 8.5 -45t29.5 -17q22 0 35.5 18t13.5 60v296h205zM122 585v128h344v-128h-344z" />
    <glyph glyph-name="Uring" unicode="&#x16e;" horiz-adv-x="708" 
d="M354 138q45 0 66.5 32.5t21.5 92.5v407h210v-388q0 -144 -76.5 -221t-221.5 -77t-221.5 77t-76.5 221v388h210v-407q0 -60 21.5 -92.5t66.5 -32.5zM354 701q-59 0 -99 36.5t-40 98.5t40 98.5t99 36.5t99 -36.5t40 -98.5t-40 -98.5t-99 -36.5zM354 792q19 0 30 11.5
t11 32.5t-11 32.5t-30 11.5t-30 -11.5t-11 -32.5t11 -32.5t30 -11.5z" />
    <glyph glyph-name="uring" unicode="&#x16f;" horiz-adv-x="596" 
d="M544 507v-507h-180l-5 83q-18 -41 -57 -68.5t-100 -27.5q-70 0 -112.5 46.5t-42.5 134.5v339h205v-312q0 -28 8.5 -45t29.5 -17q22 0 35.5 18t13.5 60v296h205zM294 549q-56 0 -93.5 34.5t-37.5 93.5t37.5 93.5t93.5 34.5t93.5 -34.5t37.5 -93.5t-37.5 -93.5t-93.5 -34.5
zM294 632q18 0 29.5 12.5t11.5 32.5t-11.5 32.5t-29.5 12.5t-29.5 -12.5t-11.5 -32.5t11.5 -32.5t29.5 -12.5z" />
    <glyph glyph-name="Uhungarumlaut" unicode="&#x170;" horiz-adv-x="708" 
d="M354 138q45 0 66.5 32.5t21.5 92.5v407h210v-388q0 -144 -76.5 -221t-221.5 -77t-221.5 77t-76.5 221v388h210v-407q0 -60 21.5 -92.5t66.5 -32.5zM167 795l182 201l99 -120l-218 -159zM382 798l219 158l75 -136l-246 -109z" />
    <glyph glyph-name="uhungarumlaut" unicode="&#x171;" horiz-adv-x="596" 
d="M544 507v-507h-180l-5 83q-18 -41 -57 -68.5t-100 -27.5q-70 0 -112.5 46.5t-42.5 134.5v339h205v-312q0 -28 8.5 -45t29.5 -17q22 0 35.5 18t13.5 60v296h205zM130 609l145 203l107 -96l-184 -166zM305 614l189 165l81 -115l-219 -122z" />
    <glyph glyph-name="Uogonek" unicode="&#x172;" horiz-adv-x="708" 
d="M354 138q45 0 66.5 32.5t21.5 92.5v407h210v-388q0 -144 -76.5 -221t-221.5 -77t-221.5 77t-76.5 221v388h210v-407q0 -60 21.5 -92.5t66.5 -32.5zM445 -276q-52 0 -89.5 18.5t-57.5 49t-20 65.5q0 36 18 69.5t68 71.5l155 24q-52 -28 -70.5 -56t-18.5 -58
q0 -34 19 -48.5t42 -14.5q16 0 29.5 3t28.5 9v-116q-45 -17 -104 -17z" />
    <glyph glyph-name="uogonek" unicode="&#x173;" horiz-adv-x="596" 
d="M544 507v-507h-180l-5 83q-18 -41 -57 -68.5t-100 -27.5q-70 0 -112.5 46.5t-42.5 134.5v339h205v-312q0 -28 8.5 -45t29.5 -17q22 0 35.5 18t13.5 60v296h205zM436 -273q-80 0 -122 36t-42 93q0 48 30.5 92t93.5 79l111 -27q-44 0 -65.5 -25t-21.5 -60q0 -36 18 -54.5
t47 -18.5q16 0 28 3t25 7v-109q-19 -7 -47 -11.5t-55 -4.5z" />
    <glyph glyph-name="Wcircumflex" unicode="&#x174;" horiz-adv-x="910" 
d="M150 0l-144 670h210l73 -408l101 408h143l99 -410l74 410h198l-145 -670h-212l-90 392l-95 -392h-212zM502 934l173 -136l-68 -98l-146 89l-146 -89l-68 98l173 136h82z" />
    <glyph glyph-name="wcircumflex" unicode="&#x175;" horiz-adv-x="819" 
d="M142 0l-144 507h211l53 -327l72 327h167l77 -324l50 324h193l-145 -507h-204l-63 259l-62 -259h-205zM467 778l141 -147l-70 -78l-120 94l-119 -94l-70 78l140 147h98z" />
    <glyph glyph-name="Ycircumflex" unicode="&#x176;" horiz-adv-x="651" 
d="M217 670l112 -252l116 252h212l-224 -399v-271h-215v267l-224 403h223zM369 934l173 -136l-68 -98l-146 89l-146 -89l-68 98l173 136h82z" />
    <glyph glyph-name="ycircumflex" unicode="&#x177;" horiz-adv-x="552" 
d="M8 -194l41 122q14 -7 28.5 -11t30.5 -4q19 0 40.5 10.5t38.5 53.5l8 20l-197 510h210l74 -291l75 291h197l-209 -535q-28 -72 -60 -114.5t-72.5 -61.5t-94.5 -19q-34 0 -61.5 8.5t-48.5 20.5zM331 778l141 -147l-70 -78l-120 94l-119 -94l-70 78l140 147h98z" />
    <glyph glyph-name="Ydieresis" unicode="&#x178;" horiz-adv-x="651" 
d="M217 670l112 -252l116 252h212l-224 -399v-271h-215v267l-224 403h223zM543 824q0 -41 -27.5 -69t-68.5 -28t-68.5 28t-27.5 69t27.5 69t68.5 28t68.5 -28t27.5 -69zM305 824q0 -41 -27.5 -69t-68.5 -28t-68.5 28t-27.5 69t27.5 69t68.5 28t68.5 -28t27.5 -69z" />
    <glyph glyph-name="Zacute" unicode="&#x179;" horiz-adv-x="617" 
d="M38 0v117l285 399h-279v154h537v-117l-287 -399h293v-154h-549zM177 807l234 154l85 -162l-267 -98z" />
    <glyph glyph-name="zacute" unicode="&#x17a;" horiz-adv-x="513" 
d="M38 0v92l197 273h-193v142h433v-90l-204 -275h214v-142h-447zM150 623l165 176l103 -122l-200 -131z" />
    <glyph glyph-name="Zdotaccent" unicode="&#x17b;" horiz-adv-x="617" 
d="M38 0v117l285 399h-279v154h537v-117l-287 -399h293v-154h-549zM199 826q0 47 33 77.5t80 30.5t80 -30.5t33 -77.5t-33 -77.5t-80 -30.5t-80 30.5t-33 77.5z" />
    <glyph glyph-name="zdotaccent" unicode="&#x17c;" horiz-adv-x="513" 
d="M38 0v92l197 273h-193v142h433v-90l-204 -275h214v-142h-447zM150 663q0 47 32.5 76.5t78.5 29.5t78.5 -29.5t32.5 -76.5t-32.5 -76.5t-78.5 -29.5t-78.5 29.5t-32.5 76.5z" />
    <glyph glyph-name="Zcaron" unicode="&#x17d;" horiz-adv-x="617" 
d="M38 0v117l285 399h-279v154h537v-117l-287 -399h293v-154h-549zM271 714l-173 136l68 98l146 -89l146 89l68 -98l-173 -136h-82z" />
    <glyph glyph-name="zcaron" unicode="&#x17e;" horiz-adv-x="513" 
d="M38 0v92l197 273h-193v142h433v-90l-204 -275h214v-142h-447zM213 562l-141 147l70 78l120 -94l119 94l70 -78l-140 -147h-98z" />
    <glyph glyph-name="uni0218" unicode="&#x218;" horiz-adv-x="628" 
d="M321 -16q-131 0 -205 58.5t-86 168.5h205q6 -50 30 -70.5t58 -20.5q33 0 49.5 16.5t16.5 41.5q0 21 -14.5 38.5t-48.5 27.5l-104 29q-88 25 -131.5 72.5t-43.5 127.5q0 72 36 119t96.5 70.5t133.5 23.5q125 0 190.5 -57.5t79.5 -164.5h-201q-4 38 -22 62t-52 24
q-26 0 -42 -15t-16 -41q0 -48 55 -62l102 -27q78 -21 118.5 -53t55.5 -72t15 -83q0 -100 -71.5 -156.5t-203.5 -56.5zM200 -362v77q32 6 56.5 18t38.5 35q-35 3 -59 28t-24 67q0 43 27.5 68.5t67.5 25.5q42 0 70.5 -31t28.5 -88q0 -52 -26 -94.5t-72.5 -70t-107.5 -35.5z
" />
    <glyph glyph-name="uni0219" unicode="&#x219;" horiz-adv-x="542" 
d="M274 -13q-112 0 -175.5 45t-72.5 130h190q4 -33 20 -47t39 -14q22 0 32 9.5t10 24.5q0 16 -12 27.5t-43 19.5l-86 22q-65 16 -101.5 52.5t-36.5 97.5q0 56 30.5 93t83 55t118.5 18q105 0 162.5 -43.5t70.5 -123.5h-187q-3 24 -13.5 38.5t-32.5 14.5q-40 0 -40 -36
q0 -34 51 -47l68 -17q92 -23 127 -57.5t35 -93.5q0 -80 -63.5 -124t-173.5 -44zM162 -344v69q27 4 53 15.5t41 34.5q-29 3 -54.5 25.5t-25.5 66.5q0 39 25.5 64.5t66.5 25.5q40 0 66.5 -29.5t26.5 -84.5q0 -53 -29 -93t-74.5 -64t-95.5 -30z" />
    <glyph glyph-name="uni021A" unicode="&#x21a;" horiz-adv-x="602" 
d="M196 0v516h-186v154h582v-154h-186v-516h-210zM191 -362v77q32 6 56.5 18t38.5 35q-35 3 -59 28t-24 67q0 43 27.5 68.5t67.5 25.5q42 0 70.5 -31t28.5 -88q0 -52 -26 -94.5t-72.5 -70t-107.5 -35.5z" />
    <glyph glyph-name="uni021B" unicode="&#x21b;" horiz-adv-x="418" 
d="M268 -13q-98 0 -145.5 52.5t-47.5 140.5v197h-62v130h62v139h205v-139h108v-130h-108v-189q0 -57 48 -57q25 0 52 12l30 -125q-24 -14 -62 -22.5t-80 -8.5zM132 -344v69q27 4 53 15.5t41 34.5q-29 3 -54.5 25.5t-25.5 66.5q0 39 25.5 64.5t66.5 25.5q40 0 66.5 -29.5
t26.5 -84.5q0 -53 -29 -93t-74.5 -64t-95.5 -30z" />
    <glyph glyph-name="circumflex" unicode="&#x2c6;" horiz-adv-x="500" 
d="M299 778l141 -147l-70 -78l-120 94l-119 -94l-70 78l140 147h98z" />
    <glyph glyph-name="caron" unicode="&#x2c7;" horiz-adv-x="500" 
d="M202 562l-141 147l70 78l120 -94l119 94l70 -78l-140 -147h-98z" />
    <glyph glyph-name="breve" unicode="&#x2d8;" horiz-adv-x="500" 
d="M250 698q30 0 43.5 17t15.5 42h115q-3 -84 -46.5 -136.5t-127.5 -52.5t-127.5 52.5t-46.5 136.5h115q2 -25 15.5 -42t43.5 -17z" />
    <glyph glyph-name="dotaccent" unicode="&#x2d9;" horiz-adv-x="500" 
d="M139 663q0 47 32.5 76.5t78.5 29.5t78.5 -29.5t32.5 -76.5t-32.5 -76.5t-78.5 -29.5t-78.5 29.5t-32.5 76.5z" />
    <glyph glyph-name="ring" unicode="&#x2da;" horiz-adv-x="500" 
d="M249 549q-56 0 -93.5 34.5t-37.5 93.5t37.5 93.5t93.5 34.5t93.5 -34.5t37.5 -93.5t-37.5 -93.5t-93.5 -34.5zM249 632q18 0 29.5 12.5t11.5 32.5t-11.5 32.5t-29.5 12.5t-29.5 -12.5t-11.5 -32.5t11.5 -32.5t29.5 -12.5z" />
    <glyph glyph-name="ogonek" unicode="&#x2db;" horiz-adv-x="500" 
d="M288 -273q-80 0 -122 36t-42 93q0 48 30.5 92t93.5 79l111 -27q-44 0 -65.5 -25t-21.5 -60q0 -36 18 -54.5t47 -18.5q16 0 28 3t25 7v-109q-19 -7 -47 -11.5t-55 -4.5z" />
    <glyph glyph-name="tilde" unicode="&#x2dc;" horiz-adv-x="500" 
d="M228 598q-18 14 -25 17.5t-14 3.5q-21 0 -31 -53h-108q4 80 37.5 132.5t90.5 52.5q29 0 51.5 -12.5t42.5 -27.5q18 -13 25.5 -17t14.5 -4q20 0 30 54h108q-4 -80 -37.5 -132.5t-90.5 -52.5q-29 0 -51.5 12.5t-42.5 26.5z" />
    <glyph glyph-name="hungarumlaut" unicode="&#x2dd;" horiz-adv-x="500" 
d="M22 609l145 203l107 -96l-184 -166zM197 614l189 165l81 -115l-219 -122z" />
    <glyph glyph-name="gravecomb" unicode="&#x300;" 
d="M109 625l-68 -77l-195 126l103 122z" />
    <glyph glyph-name="acutecomb" unicode="&#x301;" 
d="M-111 623l165 176l103 -122l-200 -131z" />
    <glyph glyph-name="uni0302" unicode="&#x302;" 
d="M49 778l141 -147l-70 -78l-120 94l-119 -94l-70 78l140 147h98z" />
    <glyph glyph-name="tildecomb" unicode="&#x303;" 
d="M-22 598q-18 14 -25 17.5t-14 3.5q-21 0 -31 -53h-108q4 80 37.5 132.5t90.5 52.5q29 0 51.5 -12.5t42.5 -27.5q18 -13 25.5 -17t14.5 -4q20 0 30 54h108q-4 -80 -37.5 -132.5t-90.5 -52.5q-29 0 -51.5 12.5t-42.5 26.5z" />
    <glyph glyph-name="uni0304" unicode="&#x304;" 
d="M-172 585v128h344v-128h-344z" />
    <glyph glyph-name="uni0306" unicode="&#x306;" 
d="M0 698q30 0 43.5 17t15.5 42h115q-3 -84 -46.5 -136.5t-127.5 -52.5t-127.5 52.5t-46.5 136.5h115q2 -25 15.5 -42t43.5 -17z" />
    <glyph glyph-name="uni0307" unicode="&#x307;" 
d="M-111 663q0 47 32.5 76.5t78.5 29.5t78.5 -29.5t32.5 -76.5t-32.5 -76.5t-78.5 -29.5t-78.5 29.5t-32.5 76.5z" />
    <glyph glyph-name="uni0308" unicode="&#x308;" 
d="M197 644q0 -41 -27.5 -66t-64.5 -25q-38 0 -65 25t-27 66t27.5 66t64.5 25t64.5 -25t27.5 -66zM-13 644q0 -41 -27.5 -66t-64.5 -25t-64.5 25t-27.5 66t27.5 66t64.5 25t64.5 -25t27.5 -66z" />
    <glyph glyph-name="uni030A" unicode="&#x30a;" 
d="M0 549q-56 0 -93.5 34.5t-37.5 93.5t37.5 93.5t93.5 34.5t93.5 -34.5t37.5 -93.5t-37.5 -93.5t-93.5 -34.5zM0 632q18 0 29.5 12.5t11.5 32.5t-11.5 32.5t-29.5 12.5t-29.5 -12.5t-11.5 -32.5t11.5 -32.5t29.5 -12.5z" />
    <glyph glyph-name="uni030B" unicode="&#x30b;" 
d="M-164 609l145 203l107 -96l-184 -166zM11 614l189 165l81 -115l-219 -122z" />
    <glyph glyph-name="uni030C" unicode="&#x30c;" 
d="M-48 562l-141 147l70 78l120 -94l119 94l70 -78l-140 -147h-98z" />
    <glyph glyph-name="uni0312" unicode="&#x312;" 
d="M94 859v-71q-34 -7 -55.5 -19t-30.5 -34q28 -3 53.5 -27t25.5 -65q0 -39 -26.5 -64.5t-63.5 -25.5q-38 0 -66.5 29.5t-28.5 84.5q0 79 54 128.5t138 63.5z" />
    <glyph glyph-name="uni0315" unicode="&#x315;" 
d="M18 492h-95v208h150v-8q0 -26 -6.5 -63t-19 -74t-29.5 -63z" />
    <glyph glyph-name="dotbelowcomb" unicode="&#x323;" 
d="M-111 -152q0 47 32.5 76.5t78.5 29.5t78.5 -29.5t32.5 -76.5t-32.5 -76.5t-78.5 -29.5t-78.5 29.5t-32.5 76.5z" />
    <glyph glyph-name="uni0326" unicode="&#x326;" 
d="M-106 -344v69q27 4 53 15.5t41 34.5q-29 3 -54.5 25.5t-25.5 66.5q0 39 25.5 64.5t66.5 25.5q40 0 66.5 -29.5t26.5 -84.5q0 -53 -29 -93t-74.5 -64t-95.5 -30z" />
    <glyph glyph-name="uni0327" unicode="&#x327;" 
d="M-53 2h81l-8 -60q12 3 24 3q45 0 74 -27.5t29 -75.5q0 -58 -38.5 -91.5t-112.5 -33.5q-23 0 -44.5 3.5t-38.5 8.5l9 90q16 -4 30.5 -6.5t32.5 -2.5q26 0 36.5 8t10.5 22q0 10 -7 17.5t-24 7.5q-12 0 -22.5 -4t-17.5 -9h-30z" />
    <glyph glyph-name="uni0328" unicode="&#x328;" 
d="M-3 -273q-80 0 -122 36t-42 93q0 48 30.5 92t93.5 79l111 -27q-44 0 -65.5 -25t-21.5 -60q0 -36 18 -54.5t47 -18.5q16 0 28 3t25 7v-109q-19 -7 -47 -11.5t-55 -4.5z" />
    <glyph glyph-name="uni1E24" unicode="&#x1e24;" horiz-adv-x="735" 
d="M68 0v670h210v-256h179v256h210v-670h-210v260h-179v-260h-210zM259 -158q0 46 31 74t77 28t77 -28t31 -74t-31 -74t-77 -28t-77 28t-31 74z" />
    <glyph glyph-name="uni1E25" unicode="&#x1e25;" horiz-adv-x="607" 
d="M52 0v700h205v-258q19 34 54.5 56t86.5 22q78 0 120 -50t42 -135v-335h-205v311q0 31 -11.5 48t-33.5 17q-21 0 -37 -18t-16 -59v-299h-205zM194 -152q0 47 32.5 76.5t78.5 29.5t78.5 -29.5t32.5 -76.5t-32.5 -76.5t-78.5 -29.5t-78.5 29.5t-32.5 76.5z" />
    <glyph glyph-name="uni1E36" unicode="&#x1e36;" horiz-adv-x="550" 
d="M68 0v670h210v-509h242v-161h-452zM186 -158q0 46 31 74t77 28t77 -28t31 -74t-31 -74t-77 -28t-77 28t-31 74z" />
    <glyph glyph-name="uni1E37" unicode="&#x1e37;" horiz-adv-x="309" 
d="M52 0v700h205v-700h-205zM43 -152q0 47 32.5 76.5t78.5 29.5t78.5 -29.5t32.5 -76.5t-32.5 -76.5t-78.5 -29.5t-78.5 29.5t-32.5 76.5z" />
    <glyph glyph-name="Wgrave" unicode="&#x1e80;" horiz-adv-x="910" 
d="M150 0l-144 670h210l73 -408l101 408h143l99 -410l74 410h198l-145 -670h-212l-90 392l-95 -392h-212zM595 807l-52 -106l-267 98l85 162z" />
    <glyph glyph-name="wgrave" unicode="&#x1e81;" horiz-adv-x="819" 
d="M142 0l-144 507h211l53 -327l72 327h167l77 -324l50 324h193l-145 -507h-204l-63 259l-62 -259h-205zM527 625l-68 -77l-195 126l103 122z" />
    <glyph glyph-name="Wacute" unicode="&#x1e82;" horiz-adv-x="910" 
d="M150 0l-144 670h210l73 -408l101 408h143l99 -410l74 410h198l-145 -670h-212l-90 392l-95 -392h-212zM326 807l234 154l85 -162l-267 -98z" />
    <glyph glyph-name="wacute" unicode="&#x1e83;" horiz-adv-x="819" 
d="M142 0l-144 507h211l53 -327l72 327h167l77 -324l50 324h193l-145 -507h-204l-63 259l-62 -259h-205zM307 623l165 176l103 -122l-200 -131z" />
    <glyph glyph-name="Wdieresis" unicode="&#x1e84;" horiz-adv-x="910" 
d="M150 0l-144 670h210l73 -408l101 408h143l99 -410l74 410h198l-145 -670h-212l-90 392l-95 -392h-212zM676 824q0 -41 -27.5 -69t-68.5 -28t-68.5 28t-27.5 69t27.5 69t68.5 28t68.5 -28t27.5 -69zM438 824q0 -41 -27.5 -69t-68.5 -28t-68.5 28t-27.5 69t27.5 69t68.5 28
t68.5 -28t27.5 -69z" />
    <glyph glyph-name="wdieresis" unicode="&#x1e85;" horiz-adv-x="819" 
d="M142 0l-144 507h211l53 -327l72 327h167l77 -324l50 324h193l-145 -507h-204l-63 259l-62 -259h-205zM615 644q0 -41 -27.5 -66t-64.5 -25q-38 0 -65 25t-27 66t27.5 66t64.5 25t64.5 -25t27.5 -66zM405 644q0 -41 -27.5 -66t-64.5 -25t-64.5 25t-27.5 66t27.5 66
t64.5 25t64.5 -25t27.5 -66z" />
    <glyph glyph-name="uni1E9E" unicode="&#x1e9e;" horiz-adv-x="686" 
d="M56 0v404q0 146 75 214t208 68q81 0 139.5 -28t98 -70t64.5 -85l-112 -129q64 -23 95.5 -70t31.5 -115q0 -67 -30.5 -112.5t-82.5 -69t-116 -23.5q-35 0 -71 6.5t-61 17.5l24 121q14 -5 27.5 -7t21.5 -2q26 0 47.5 19t21.5 70q0 48 -19.5 67t-46.5 19h-10v110l84 104
q-17 18 -41 30t-53 12q-41 0 -63 -25.5t-22 -87.5v-438h-210z" />
    <glyph glyph-name="Ygrave" unicode="&#x1ef2;" horiz-adv-x="651" 
d="M217 670l112 -252l116 252h212l-224 -399v-271h-215v267l-224 403h223zM462 807l-52 -106l-267 98l85 162z" />
    <glyph glyph-name="ygrave" unicode="&#x1ef3;" horiz-adv-x="552" 
d="M8 -194l41 122q14 -7 28.5 -11t30.5 -4q19 0 40.5 10.5t38.5 53.5l8 20l-197 510h210l74 -291l75 291h197l-209 -535q-28 -72 -60 -114.5t-72.5 -61.5t-94.5 -19q-34 0 -61.5 8.5t-48.5 20.5zM391 625l-68 -77l-195 126l103 122z" />
    <glyph glyph-name="uni2000" unicode="&#x2000;" horiz-adv-x="500" 
 />
    <glyph glyph-name="uni2001" unicode="&#x2001;" horiz-adv-x="1000" 
 />
    <glyph glyph-name="uni2002" unicode="&#x2002;" horiz-adv-x="500" 
 />
    <glyph glyph-name="uni2003" unicode="&#x2003;" horiz-adv-x="1000" 
 />
    <glyph glyph-name="uni2004" unicode="&#x2004;" horiz-adv-x="333" 
 />
    <glyph glyph-name="uni2005" unicode="&#x2005;" horiz-adv-x="250" 
 />
    <glyph glyph-name="uni2006" unicode="&#x2006;" horiz-adv-x="166" 
 />
    <glyph glyph-name="uni2007" unicode="&#x2007;" horiz-adv-x="590" 
 />
    <glyph glyph-name="uni2008" unicode="&#x2008;" horiz-adv-x="220" 
 />
    <glyph glyph-name="uni2009" unicode="&#x2009;" horiz-adv-x="200" 
 />
    <glyph glyph-name="uni200A" unicode="&#x200a;" horiz-adv-x="62" 
 />
    <glyph glyph-name="uni200B" unicode="&#x200b;" 
 />
    <glyph glyph-name="uni2010" unicode="&#x2010;" horiz-adv-x="370" 
d="M16 172v155h338v-155h-338z" />
    <glyph glyph-name="uni2011" unicode="&#x2011;" horiz-adv-x="370" 
d="M16 172v155h338v-155h-338z" />
    <glyph glyph-name="figuredash" unicode="&#x2012;" horiz-adv-x="590" 
d="M45 172v155h500v-155h-500z" />
    <glyph glyph-name="endash" unicode="&#x2013;" horiz-adv-x="500" 
d="M0 172v155h500v-155h-500z" />
    <glyph glyph-name="emdash" unicode="&#x2014;" horiz-adv-x="1000" 
d="M0 172v155h1000v-155h-1000z" />
    <glyph glyph-name="uni2015" unicode="&#x2015;" horiz-adv-x="1000" 
d="M0 172v155h1000v-155h-1000z" />
    <glyph glyph-name="quoteleft" unicode="&#x2018;" horiz-adv-x="237" 
d="M211 710v-79q-56 -10 -76 -50q35 -3 57.5 -27.5t22.5 -62.5q0 -47 -28 -72.5t-71 -25.5q-45 0 -73.5 31t-28.5 94q0 49 23.5 91t67.5 69t106 32z" />
    <glyph glyph-name="quoteright" unicode="&#x2019;" horiz-adv-x="237" 
d="M26 393v79q56 9 76 50q-35 3 -57.5 28t-22.5 63q0 46 28 71.5t71 25.5q46 0 74 -31t28 -95q0 -50 -23.5 -91.5t-67.5 -68t-106 -31.5z" />
    <glyph glyph-name="quotesinglbase" unicode="&#x201a;" horiz-adv-x="237" 
d="M26 -139v79q56 9 76 50q-35 3 -57.5 28t-22.5 63q0 46 28 71.5t71 25.5q46 0 74 -31t28 -95q0 -50 -23.5 -91.5t-67.5 -68t-106 -31.5z" />
    <glyph glyph-name="quotedblleft" unicode="&#x201c;" horiz-adv-x="486" 
d="M211 710v-79q-56 -10 -76 -50q35 -3 57.5 -27.5t22.5 -62.5q0 -47 -28 -72.5t-71 -25.5q-45 0 -73.5 31t-28.5 94q0 49 23.5 91t67.5 69t106 32zM460 710v-79q-56 -10 -76 -50q35 -3 57.5 -27.5t22.5 -62.5q0 -47 -28 -72.5t-71 -25.5q-45 0 -73.5 31t-28.5 94
q0 49 23.5 91t67.5 69t106 32z" />
    <glyph glyph-name="quotedblright" unicode="&#x201d;" horiz-adv-x="486" 
d="M26 393v79q56 9 76 50q-35 3 -57.5 28t-22.5 63q0 46 28 71.5t71 25.5q46 0 74 -31t28 -95q0 -50 -23.5 -91.5t-67.5 -68t-106 -31.5zM275 393v79q56 9 76 50q-35 3 -57.5 28t-22.5 63q0 46 28 71.5t71 25.5q46 0 74 -31t28 -95q0 -50 -23.5 -91.5t-67.5 -68t-106 -31.5z
" />
    <glyph glyph-name="quotedblbase" unicode="&#x201e;" horiz-adv-x="491" 
d="M26 -139v79q56 9 76 50q-35 3 -57.5 28t-22.5 63q0 46 28 71.5t71 25.5q46 0 74 -31t28 -95q0 -50 -23.5 -91.5t-67.5 -68t-106 -31.5zM280 -139v79q56 9 76 50q-35 3 -57.5 28t-22.5 63q0 46 28 71.5t71 25.5q46 0 74 -31t28 -95q0 -50 -23.5 -91.5t-67.5 -68
t-106 -31.5z" />
    <glyph glyph-name="dagger" unicode="&#x2020;" horiz-adv-x="423" 
d="M125 -105l9 480l-110 -6v150l109 -6l-8 157h168l-8 -157l114 6v-150l-116 6l10 -480h-168z" />
    <glyph glyph-name="daggerdbl" unicode="&#x2021;" horiz-adv-x="423" 
d="M24 46v150l113 -6v185l-113 -6v150l112 -6l-8 157h162l-8 -157l117 6v-150l-119 6v-185l119 6v-150l-117 7l8 -158h-162l8 157z" />
    <glyph glyph-name="bullet" unicode="&#x2022;" horiz-adv-x="425" 
d="M212 85q-47 0 -84.5 22.5t-59.5 60.5t-22 83q0 49 22 86t59.5 58t84.5 21t85 -21t60 -58t22 -86q0 -45 -23.5 -83t-61.5 -60.5t-82 -22.5z" />
    <glyph glyph-name="ellipsis" unicode="&#x2026;" horiz-adv-x="1000" 
d="M167 -15q-45 0 -76 30t-31 77t31 77t76 30t76 -30t31 -77t-31 -77t-76 -30zM500 -15q-45 0 -76 30t-31 77t31 77t76 30t76 -30t31 -77t-31 -77t-76 -30zM833 -15q-45 0 -76 30t-31 77t31 77t76 30t76 -30t31 -77t-31 -77t-76 -30z" />
    <glyph glyph-name="perthousand" unicode="&#x2030;" horiz-adv-x="1277" 
d="M217 0l310 660h164l-310 -660h-164zM192 670q87 0 129.5 -55t42.5 -151t-42.5 -151t-129.5 -55t-129.5 55t-42.5 151t42.5 151t129.5 55zM192 355q17 0 21.5 23.5t4.5 85.5t-4.5 85.5t-21.5 23.5t-21.5 -23.5t-4.5 -85.5t4.5 -85.5t21.5 -23.5zM718 402q87 0 129.5 -55
t42.5 -151t-42.5 -151t-129.5 -55t-129.5 55t-42.5 151t42.5 151t129.5 55zM718 87q17 0 21.5 23.5t4.5 85.5t-4.5 85.5t-21.5 23.5t-21.5 -23.5t-4.5 -85.5t4.5 -85.5t21.5 -23.5zM1085 402q87 0 129.5 -55t42.5 -151t-42.5 -151t-129.5 -55t-129.5 55t-42.5 151t42.5 151
t129.5 55zM1085 87q17 0 21.5 23.5t4.5 85.5t-4.5 85.5t-21.5 23.5t-21.5 -23.5t-4.5 -85.5t4.5 -85.5t21.5 -23.5z" />
    <glyph glyph-name="guilsinglleft" unicode="&#x2039;" horiz-adv-x="356" 
d="M158 52l-136 203l136 203h189l-126 -201l130 -205h-193z" />
    <glyph glyph-name="guilsinglright" unicode="&#x203a;" horiz-adv-x="356" 
d="M198 458l136 -203l-136 -203h-190l127 201l-130 205h193z" />
    <glyph glyph-name="fraction" unicode="&#x2044;" horiz-adv-x="140" 
d="M-167 0l310 660h164l-310 -660h-164z" />
    <glyph glyph-name="uni2070" unicode="&#x2070;" horiz-adv-x="390" 
d="M195 780q87 0 129.5 -55t42.5 -151t-42.5 -151t-129.5 -55t-129.5 55t-42.5 151t42.5 151t129.5 55zM195 465q17 0 21.5 23.5t4.5 85.5t-4.5 85.5t-21.5 23.5t-21.5 -23.5t-4.5 -85.5t4.5 -85.5t21.5 -23.5z" />
    <glyph glyph-name="uni2074" unicode="&#x2074;" horiz-adv-x="367" 
d="M15 442v85l186 239h116v-229h38v-95h-38v-68h-129v68h-173zM125 537h63v84z" />
    <glyph glyph-name="uni2075" unicode="&#x2075;" horiz-adv-x="379" 
d="M35 537l16 229h277v-101h-170l-2 -47q13 11 31 15.5t38 4.5q59 0 96 -35t37 -94q0 -66 -47.5 -105.5t-127.5 -39.5q-71 0 -114.5 32t-49.5 92h136q3 -16 9 -22t16 -6q16 0 22.5 12t6.5 34q0 49 -30 49q-20 0 -32 -18h-112z" />
    <glyph glyph-name="uni2076" unicode="&#x2076;" horiz-adv-x="381" 
d="M194 368q-80 0 -125 52.5t-45 160.5q0 89 45 144t138 55q58 0 98.5 -27t50.5 -83h-141q-5 23 -18 23q-29 0 -33 -76q29 26 77 26q54 0 89.5 -35t35.5 -93q0 -69 -47.5 -108t-124.5 -39zM194 456q31 0 31 50q0 48 -32 48q-30 0 -30 -49t31 -49z" />
    <glyph glyph-name="uni2077" unicode="&#x2077;" horiz-adv-x="330" 
d="M7 675v101h314v-101q-65 -76 -98 -145.5t-38 -145.5h-137q9 84 43.5 153.5t100.5 137.5h-185z" />
    <glyph glyph-name="uni2078" unicode="&#x2078;" horiz-adv-x="386" 
d="M193 780q76 0 120 -29t44 -74q0 -59 -64 -87q36 -14 57 -38.5t21 -59.5q0 -57 -49.5 -90.5t-128.5 -33.5t-128.5 33.5t-49.5 90.5q0 35 21 59.5t57 38.5q-64 28 -64 87q0 45 44 74t120 29zM193 628q24 0 24 37q0 17 -6 27t-18 10t-18 -10t-6 -27q0 -37 24 -37zM193 450
q13 0 21 11.5t8 39.5q0 25 -8 37t-21 12t-21 -12t-8 -37q0 -28 8 -39.5t21 -11.5z" />
    <glyph glyph-name="uni2079" unicode="&#x2079;" horiz-adv-x="382" 
d="M187 780q49 0 88.5 -20.5t62.5 -65t23 -117.5q0 -93 -44.5 -151t-138.5 -58q-58 0 -100 27t-52 83h143q3 -22 19 -22q29 0 33 73q-26 -23 -69 -23q-58 0 -95.5 34.5t-37.5 92.5q0 67 45.5 107t122.5 40zM191 691q-31 0 -31 -49q0 -48 32 -48q30 0 30 50q0 22 -8 34.5
t-23 12.5z" />
    <glyph glyph-name="uni2080" unicode="&#x2080;" horiz-adv-x="390" 
d="M195 302q87 0 129.5 -55t42.5 -151t-42.5 -151t-129.5 -55t-129.5 55t-42.5 151t42.5 151t129.5 55zM195 -13q17 0 21.5 23.5t4.5 85.5t-4.5 85.5t-21.5 23.5t-21.5 -23.5t-4.5 -85.5t4.5 -85.5t21.5 -23.5z" />
    <glyph glyph-name="uni2081" unicode="&#x2081;" horiz-adv-x="301" 
d="M24 131v110q36 5 65.5 16t54.5 35h106v-392h-141v245q-21 -6 -42 -9.5t-43 -4.5z" />
    <glyph glyph-name="uni2082" unicode="&#x2082;" horiz-adv-x="380" 
d="M26 -100v15q0 35 9.5 62.5t32 53t61.5 55.5l35 27q24 17 34 29.5t10 30.5q0 34 -21 34q-12 0 -19 -13.5t-9 -45.5h-134q4 74 50 114t123 40q69 0 111.5 -35.5t42.5 -94.5q0 -34 -17 -63t-60 -58l-35 -24l-27 -18t-12 -10h153v-99h-328z" />
    <glyph glyph-name="uni2083" unicode="&#x2083;" horiz-adv-x="373" 
d="M189 -110q-162 0 -177 146h131q3 -52 38 -52q34 0 34 36q0 26 -15 37t-45 11h-15v74h15q25 0 38.5 7.5t13.5 31.5q0 30 -25 30q-20 0 -23 -33h-131q21 124 162 124q70 0 112.5 -31t42.5 -82q0 -60 -66 -87q38 -11 58.5 -33t20.5 -59q0 -55 -43.5 -87.5t-125.5 -32.5z" />
    <glyph glyph-name="uni2084" unicode="&#x2084;" horiz-adv-x="367" 
d="M15 -32v85l186 239h116v-229h38v-95h-38v-68h-129v68h-173zM125 63h63v84z" />
    <glyph glyph-name="uni2085" unicode="&#x2085;" horiz-adv-x="379" 
d="M35 62l16 229h277v-101h-170l-2 -47q13 11 31 15.5t38 4.5q59 0 96 -35t37 -94q0 -66 -47.5 -105.5t-127.5 -39.5q-71 0 -114.5 32t-49.5 92h136q3 -16 9 -22t16 -6q16 0 22.5 12t6.5 34q0 49 -30 49q-20 0 -32 -18h-112z" />
    <glyph glyph-name="uni2086" unicode="&#x2086;" horiz-adv-x="381" 
d="M194 -110q-80 0 -125 52.5t-45 160.5q0 89 45 144t138 55q58 0 98.5 -27t50.5 -83h-141q-5 23 -18 23q-29 0 -33 -76q29 26 77 26q54 0 89.5 -35t35.5 -93q0 -69 -47.5 -108t-124.5 -39zM194 -22q31 0 31 50q0 48 -32 48q-30 0 -30 -49t31 -49z" />
    <glyph glyph-name="uni2087" unicode="&#x2087;" horiz-adv-x="330" 
d="M7 191v101h314v-101q-65 -76 -98 -145.5t-38 -145.5h-137q9 84 43.5 153.5t100.5 137.5h-185z" />
    <glyph glyph-name="uni2088" unicode="&#x2088;" horiz-adv-x="386" 
d="M193 302q76 0 120 -29t44 -74q0 -59 -64 -87q36 -14 57 -38.5t21 -59.5q0 -57 -49.5 -90.5t-128.5 -33.5t-128.5 33.5t-49.5 90.5q0 35 21 59.5t57 38.5q-64 28 -64 87q0 45 44 74t120 29zM193 150q24 0 24 37q0 17 -6 27t-18 10t-18 -10t-6 -27q0 -37 24 -37zM193 -28
q13 0 21 11.5t8 39.5q0 25 -8 37t-21 12t-21 -12t-8 -37q0 -28 8 -39.5t21 -11.5z" />
    <glyph glyph-name="uni2089" unicode="&#x2089;" horiz-adv-x="382" 
d="M187 302q49 0 88.5 -20.5t62.5 -65t23 -117.5q0 -93 -44.5 -151t-138.5 -58q-58 0 -100 27t-52 83h143q3 -22 19 -22q29 0 33 73q-26 -23 -69 -23q-58 0 -95.5 34.5t-37.5 92.5q0 67 45.5 107t122.5 40zM191 213q-31 0 -31 -49q0 -48 32 -48q30 0 30 50q0 22 -8 34.5
t-23 12.5z" />
    <glyph glyph-name="Euro" unicode="&#x20ac;" horiz-adv-x="590" 
d="M335 -16q-107 0 -173 62.5t-88 169.5h-61v90h51v20v17h-51v90h61q21 109 88 173t176 64q58 0 107.5 -25.5t83 -71t45.5 -105.5h-201q-2 21 -12.5 37.5t-29.5 16.5q-21 0 -36.5 -20t-23.5 -69h151l-16 -90h-142v-17v-20h138l-16 -90h-114q8 -45 24 -64.5t37 -19.5
q40 0 43 56h202q-8 -61 -41.5 -106.5t-85 -71.5t-116.5 -26z" />
    <glyph glyph-name="uni20B9" unicode="&#x20b9;" horiz-adv-x="590" 
d="M62 499h213q-11 29 -38 47t-72 18h-103v90h517l-16 -90h-125q27 -29 37 -65h92l-15 -90h-75q-13 -54 -57 -91.5t-118 -53.5l248 -264h-252l-236 254v90h103q46 0 73.5 17t37.5 48h-214v90z" />
    <glyph glyph-name="uni20BA" unicode="&#x20ba;" horiz-adv-x="590" 
d="M24 301l50 18v53l-50 -18v94l50 18v188h190v-120l94 33v-94l-94 -33v-53l94 33v-94l-94 -33v-149h13q62 0 86 39t28 136h169q-2 -123 -36.5 -192.5t-99.5 -98t-160 -28.5h-190v225l-50 -18v94z" />
    <glyph glyph-name="trademark" unicode="&#x2122;" horiz-adv-x="950" 
d="M119 250v302h-114v118h380v-118h-113v-302h-153zM399 250l37 420h156l67 -218l72 218h154l38 -420h-156l-11 198l-52 -155h-88l-53 160l-12 -203h-152z" />
    <glyph glyph-name="minus" unicode="&#x2212;" horiz-adv-x="590" 
d="M74 262v137h442v-137h-442z" />
    <glyph glyph-name="uniFB00" unicode="&#xfb00;" horiz-adv-x="731" 
d="M8 507h68q3 92 50 149t152 57q28 0 52.5 -4t46.5 -11l-25 -119q-4 1 -9 1h-10q-52 0 -52 -56v-17h117q3 92 50 149t152 57q38 0 71 -7.5t61 -21.5l-27 -117q-13 5 -25 8t-25 3q-52 0 -52 -56v-15h96v-130h-96v-377h-205v377h-117v-377h-205v377h-68v130z" />
    <glyph glyph-name="uniFB01" unicode="&#xfb01;" horiz-adv-x="671" 
d="M506 764q47 0 79 -31t32 -75t-32 -75t-79 -31t-79 31t-32 75t32 75t79 31zM8 507h68q4 99 53 152.5t152 53.5q24 0 46 -3.5t45 -11.5l-27 -121q-5 1 -8 1h-5q-51 0 -51 -57v-14h79v-130h-79v-377h-205v377h-68v130zM404 0v507h205v-507h-205z" />
    <glyph glyph-name="uniFB02" unicode="&#xfb02;" horiz-adv-x="669" 
d="M8 507h68q4 99 53 152.5t152 53.5q24 0 46 -3.5t45 -11.5l-27 -121q-5 1 -8 1h-5q-51 0 -51 -57v-14h79v-130h-79v-377h-205v377h-68v130zM402 700h205v-700h-205v700z" />
    <glyph glyph-name="uniFB03" unicode="&#xfb03;" horiz-adv-x="1011" 
d="M829 764q47 0 79 -31t32 -75t-32 -75t-79 -31t-79 31t-32 75t32 75t79 31zM8 507h68q3 92 50 149t152 57q28 0 52.5 -4t46.5 -11l-25 -119q-4 1 -9 1h-10q-52 0 -52 -56v-17h118q4 99 53 152.5t152 53.5q24 0 46 -3.5t45 -11.5l-27 -121q-4 1 -7.5 1h-5.5q-51 0 -51 -57
v-14h79v-130h-79v-377h-205v377h-118v-377h-205v377h-68v130zM727 0v507h205v-507h-205z" />
    <glyph glyph-name="uniFB04" unicode="&#xfb04;" horiz-adv-x="1008" 
d="M8 507h68q3 92 50 149t152 57q28 0 52.5 -4t46.5 -11l-25 -119q-4 1 -9 1h-10q-52 0 -52 -56v-17h118q4 99 53 152.5t152 53.5q24 0 46 -3.5t45 -11.5l-27 -121q-4 1 -7.5 1h-5.5q-51 0 -51 -57v-14h79v-130h-79v-377h-205v377h-118v-377h-205v377h-68v130zM724 700h205
v-700h-205v700z" />
    <glyph glyph-name="hyphen.case" horiz-adv-x="370" 
d="M16 263v155h338v-155h-338z" />
    <glyph glyph-name="uni2010.case" horiz-adv-x="370" 
d="M16 263v155h338v-155h-338z" />
    <glyph glyph-name="uni2011.case" horiz-adv-x="370" 
d="M16 263v155h338v-155h-338z" />
    <glyph glyph-name="endash.case" horiz-adv-x="500" 
d="M0 263v155h500v-155h-500z" />
    <glyph glyph-name="emdash.case" horiz-adv-x="1000" 
d="M0 263v155h1000v-155h-1000z" />
    <glyph glyph-name="parenleft.case" horiz-adv-x="378" 
d="M351 -75h-139q-76 94 -115 197t-39 213q0 224 154 410h139q-53 -94 -75 -200.5t-22 -209.5t22 -207.5t75 -202.5z" />
    <glyph glyph-name="parenright.case" horiz-adv-x="378" 
d="M166 -75h-139q53 94 75 200.5t22 209.5t-22 207.5t-75 202.5h139q154 -190 154 -410q0 -226 -154 -410z" />
    <glyph glyph-name="slash.case" horiz-adv-x="384" 
d="M-1 -61l211 790h172l-210 -790h-173z" />
    <glyph glyph-name="backslash.case" horiz-adv-x="384" 
d="M174 729l210 -788h-172l-211 788h173z" />
    <glyph glyph-name="bracketleft.case" horiz-adv-x="384" 
d="M68 -75v820h300v-130h-113v-560h113v-130h-300z" />
    <glyph glyph-name="bracketright.case" horiz-adv-x="384" 
d="M316 745v-820h-300v130h113v560h-113v130h300z" />
    <glyph glyph-name="braceleft.case" horiz-adv-x="411" 
d="M21 270v130h30q47 0 63 22t16 52q0 29 -9 56t-9 67q0 47 19.5 80t66.5 50.5t129 17.5h70v-130h-47q-28 0 -43 -14t-15 -46q0 -20 5 -35t10 -30.5t5 -36.5q0 -38 -16.5 -62t-42.5 -38t-55 -18q29 -4 55 -17.5t42.5 -38t16.5 -61.5q0 -21 -5 -37t-10 -31t-5 -35
q0 -32 15 -46t43 -14h47v-130h-70q-82 0 -129 17.5t-66.5 50.5t-19.5 80q0 40 9 67t9 56q0 30 -16 52t-63 22h-30z" />
    <glyph glyph-name="braceright.case" horiz-adv-x="411" 
d="M14 -75v130h47q28 0 43 14t15 46q0 20 -5 35t-10 31t-5 37q0 37 16.5 61.5t42.5 38t54 17.5q-28 4 -54 18t-42.5 38t-16.5 62q0 21 5 36.5t10 30.5t5 35q0 32 -15 46t-43 14h-47v130h70q82 0 129 -17.5t66.5 -50.5t19.5 -80q0 -40 -9.5 -67t-9.5 -56q0 -30 16.5 -52
t63.5 -22h30v-130h-30q-47 0 -63.5 -22t-16.5 -52q0 -29 9.5 -56t9.5 -67q0 -47 -19.5 -80t-66.5 -50.5t-129 -17.5h-70z" />
    <glyph glyph-name="bullet.case" horiz-adv-x="425" 
d="M212 169q-47 0 -84.5 22.5t-59.5 60.5t-22 83q0 49 22 86t59.5 58t84.5 21t85 -21t60 -58t22 -86q0 -45 -23.5 -83t-61.5 -60.5t-82 -22.5z" />
    <glyph glyph-name="guilsinglleft.case" horiz-adv-x="356" 
d="M158 132l-136 203l136 203h189l-126 -201l130 -205h-193z" />
    <glyph glyph-name="guilsinglright.case" horiz-adv-x="356" 
d="M198 538l136 -203l-136 -203h-190l127 201l-130 205h193z" />
    <glyph glyph-name="guillemotleft.case" horiz-adv-x="645" 
d="M158 132l-136 203l136 203h189l-126 -201l130 -205h-193zM447 132l-136 203l136 203h189l-126 -201l130 -205h-193z" />
    <glyph glyph-name="guillemotright.case" horiz-adv-x="645" 
d="M198 538l136 -203l-136 -203h-190l127 201l-130 205h193zM487 538l136 -203l-136 -203h-190l127 201l-130 205h193z" />
    <glyph glyph-name="at.case" horiz-adv-x="960" 
d="M483 -139q-139 0 -242.5 54.5t-160.5 156t-57 242.5q0 99 32 182t93 144t148 94.5t197 33.5q142 0 243.5 -53.5t155.5 -149.5t54 -222q0 -88 -31.5 -149.5t-86 -93.5t-123.5 -32q-26 0 -55 7t-53 26t-37 57q-24 -35 -62.5 -53t-82.5 -18q-57 0 -98.5 28.5t-63.5 77.5
t-22 111q0 63 22.5 112t62.5 77t92 28q40 0 75.5 -17t56.5 -53l12 69h161v-283q0 -40 12 -55.5t30 -15.5q37 0 59.5 50.5t22.5 126.5q0 113 -44 186t-121.5 108t-178.5 35q-115 0 -195 -44t-122 -123.5t-42 -185.5q0 -113 45 -194.5t126.5 -125t191.5 -43.5q51 0 106.5 12
t113.5 43l21 -91q-60 -31 -123.5 -45t-131.5 -14zM472 218q22 0 37.5 19t15.5 60v15q0 41 -14.5 59t-37.5 18q-28 0 -39 -24t-11 -61q0 -36 10.5 -61t38.5 -25z" />
    <glyph glyph-name="periodcentered.case" horiz-adv-x="270" 
d="M135 228q-45 0 -76 30t-31 77t31 77t76 30t76 -30t31 -77t-31 -77t-76 -30z" />
    <glyph glyph-name="questiondown.case" horiz-adv-x="484" 
d="M270 474q-44 0 -74 29t-30 75t30 75t74 29t74 -29t30 -75t-30 -75t-74 -29zM300 204h197q-5 -103 -69 -161.5t-180 -58.5q-74 0 -131 22.5t-88.5 65.5t-31.5 103q0 61 30 96.5t77 69.5l39 28q22 16 28.5 28t6.5 31v17h183v-31q0 -45 -17.5 -74t-60.5 -63l-29 -23
q-27 -22 -35 -36t-8 -39q0 -22 9.5 -37.5t32.5 -15.5q19 0 32 17t15 61z" />
    <glyph glyph-name="exclamdown.case" horiz-adv-x="296" 
d="M148 683q44 0 74 -29t30 -75t-30 -75t-74 -29t-74 29t-30 75t30 75t74 29zM78 446h140l38 -446h-216z" />
    <glyph glyph-name="zero.tnum" horiz-adv-x="590" 
d="M295 670q92 0 151.5 -42t88.5 -119t29 -182t-29 -182t-88.5 -119t-151.5 -42t-151.5 42t-88.5 119t-29 182t29 182t88.5 119t151.5 42zM295 128q30 0 43.5 46.5t13.5 152.5q0 104 -13.5 151.5t-43.5 47.5t-43.5 -46.5t-13.5 -152.5q0 -104 13.5 -151.5t43.5 -47.5z" />
    <glyph glyph-name="one.tnum" horiz-adv-x="590" 
d="M80 407v160q57 9 106 28t90 59h152v-654h-205v437q-35 -11 -71.5 -18t-71.5 -12z" />
    <glyph glyph-name="two.tnum" horiz-adv-x="590" 
d="M39 0v23q0 86 37 149.5t123 127.5l66 49q40 29 58 54t18 59q0 32 -13 49t-36 17q-29 0 -43.5 -25.5t-18.5 -81.5h-193q6 119 78 184t190 65q74 0 130 -25.5t87.5 -71.5t31.5 -108q0 -61 -30.5 -111t-95.5 -96l-81 -58q-46 -32 -60 -50h263v-150h-511z" />
    <glyph glyph-name="three.tnum" horiz-adv-x="590" 
d="M286 -16q-131 0 -196.5 64.5t-75.5 170.5h196q3 -53 23 -76.5t55 -23.5q31 0 48.5 21t17.5 56q0 38 -25.5 62.5t-88.5 24.5h-28v115h24q46 0 71 17t25 58q0 24 -12.5 42t-41.5 18q-20 0 -35.5 -13.5t-18.5 -46.5h-196q13 93 78.5 145t182.5 52q72 0 128.5 -22t89 -64
t32.5 -100q0 -44 -19.5 -81t-67.5 -62q45 -19 68.5 -45.5t32 -54.5t8.5 -52q0 -98 -74 -151.5t-201 -53.5z" />
    <glyph glyph-name="four.tnum" horiz-adv-x="590" 
d="M18 122v130l301 402h172v-388h70v-144h-70v-122h-187v122h-286zM184 266h120v162z" />
    <glyph glyph-name="five.tnum" horiz-adv-x="590" 
d="M59 271l26 383h433v-150h-277l-7 -96q22 14 51 22.5t63 8.5q98 0 154 -59t56 -155q0 -75 -33.5 -129t-94.5 -83t-145 -29q-112 0 -175 54t-73 149h191q5 -27 18.5 -44t41.5 -17q58 0 58 95q0 47 -17.5 68t-45.5 21q-39 0 -64 -39h-160z" />
    <glyph glyph-name="six.tnum" horiz-adv-x="590" 
d="M305 -16q-135 0 -204 84.5t-69 265.5q0 100 29.5 176t92 118t161.5 42q95 0 159 -45t81 -140h-206q-5 27 -16 42t-30 15q-31 0 -49 -36t-22 -114q50 45 132 45q94 0 148.5 -57t54.5 -154q0 -74 -33 -128t-92.5 -84t-136.5 -30zM299 112q30 0 47.5 27t17.5 73q0 47 -16 73
t-48 26q-33 0 -49 -27t-16 -74q0 -44 15.5 -71t48.5 -27z" />
    <glyph glyph-name="seven.tnum" horiz-adv-x="590" 
d="M49 504v150h497v-153q-105 -130 -159 -249t-62 -252h-203q10 97 38.5 181.5t78.5 163.5t125 159h-315z" />
    <glyph glyph-name="eight.tnum" horiz-adv-x="590" 
d="M295 670q120 0 188.5 -46t68.5 -125q0 -51 -27.5 -88t-77.5 -59q60 -22 93.5 -63.5t33.5 -100.5q0 -63 -35 -108.5t-98 -70.5t-146 -25t-146 25t-98 70.5t-35 108.5q0 59 33.5 100.5t93.5 63.5q-50 22 -77.5 59t-27.5 88q0 79 68.5 125t188.5 46zM295 409q23 0 38 17.5
t15 54.5q0 36 -14.5 53.5t-38.5 17.5t-38.5 -17.5t-14.5 -53.5q0 -37 15 -54.5t38 -17.5zM295 105q25 0 46 23.5t21 70.5q0 49 -21 71.5t-46 22.5t-46 -22.5t-21 -71.5q0 -47 21 -70.5t46 -23.5z" />
    <glyph glyph-name="nine.tnum" horiz-adv-x="590" 
d="M289 670q80 0 141 -34t95.5 -105.5t34.5 -185.5q0 -109 -30.5 -190.5t-94 -126t-163.5 -44.5q-92 0 -157 45t-81 140h207q6 -57 47 -57q31 0 48.5 36t21.5 115q-47 -46 -121 -46q-63 0 -111.5 26.5t-76 74t-27.5 111.5q0 74 33.5 128t94 83.5t139.5 29.5zM293 542
q-31 0 -49 -24t-18 -74t17.5 -75.5t46.5 -25.5q33 0 49 26.5t16 76.5q0 46 -16.5 71t-45.5 25z" />
    <glyph glyph-name="zero.dnom" horiz-adv-x="390" 
d="M195 402q87 0 129.5 -55t42.5 -151t-42.5 -151t-129.5 -55t-129.5 55t-42.5 151t42.5 151t129.5 55zM195 87q17 0 21.5 23.5t4.5 85.5t-4.5 85.5t-21.5 23.5t-21.5 -23.5t-4.5 -85.5t4.5 -85.5t21.5 -23.5z" />
    <glyph glyph-name="one.dnom" horiz-adv-x="301" 
d="M24 231v110q36 5 65.5 16t54.5 35h106v-392h-141v245q-21 -6 -42 -9.5t-43 -4.5z" />
    <glyph glyph-name="two.dnom" horiz-adv-x="380" 
d="M26 0v15q0 35 9.5 62.5t32 53t61.5 55.5l35 27q24 17 34 29.5t10 30.5q0 34 -21 34q-12 0 -19 -13.5t-9 -45.5h-134q4 74 50 114t123 40q69 0 111.5 -35.5t42.5 -94.5q0 -34 -17 -63t-60 -58l-35 -24l-27 -18t-12 -10h153v-99h-328z" />
    <glyph glyph-name="three.dnom" horiz-adv-x="373" 
d="M189 -10q-162 0 -177 146h131q3 -52 38 -52q34 0 34 36q0 26 -15 37t-45 11h-15v74h15q25 0 38.5 7.5t13.5 31.5q0 30 -25 30q-20 0 -23 -33h-131q21 124 162 124q70 0 112.5 -31t42.5 -82q0 -60 -66 -87q38 -11 58.5 -33t20.5 -59q0 -55 -43.5 -87.5t-125.5 -32.5z" />
    <glyph glyph-name="four.dnom" horiz-adv-x="367" 
d="M15 68v85l186 239h116v-229h38v-95h-38v-68h-129v68h-173zM125 163h63v84z" />
    <glyph glyph-name="five.dnom" horiz-adv-x="379" 
d="M35 163l16 229h277v-101h-170l-2 -47q13 11 31 15.5t38 4.5q59 0 96 -35t37 -94q0 -66 -47.5 -105.5t-127.5 -39.5q-71 0 -114.5 32t-49.5 92h136q3 -16 9 -22t16 -6q16 0 22.5 12t6.5 34q0 49 -30 49q-20 0 -32 -18h-112z" />
    <glyph glyph-name="six.dnom" horiz-adv-x="381" 
d="M194 -10q-80 0 -125 52.5t-45 160.5q0 89 45 144t138 55q58 0 98.5 -27t50.5 -83h-141q-5 23 -18 23q-29 0 -33 -76q29 26 77 26q54 0 89.5 -35t35.5 -93q0 -69 -47.5 -108t-124.5 -39zM194 78q31 0 31 50q0 48 -32 48q-30 0 -30 -49t31 -49z" />
    <glyph glyph-name="seven.dnom" horiz-adv-x="330" 
d="M7 291v101h314v-101q-65 -76 -98 -145.5t-38 -145.5h-137q9 84 43.5 153.5t100.5 137.5h-185z" />
    <glyph glyph-name="eight.dnom" horiz-adv-x="386" 
d="M193 402q76 0 120 -29t44 -74q0 -59 -64 -87q36 -14 57 -38.5t21 -59.5q0 -57 -49.5 -90.5t-128.5 -33.5t-128.5 33.5t-49.5 90.5q0 35 21 59.5t57 38.5q-64 28 -64 87q0 45 44 74t120 29zM193 250q24 0 24 37q0 17 -6 27t-18 10t-18 -10t-6 -27q0 -37 24 -37zM193 72
q13 0 21 11.5t8 39.5q0 25 -8 37t-21 12t-21 -12t-8 -37q0 -28 8 -39.5t21 -11.5z" />
    <glyph glyph-name="nine.dnom" horiz-adv-x="382" 
d="M187 402q49 0 88.5 -20.5t62.5 -65t23 -117.5q0 -93 -44.5 -151t-138.5 -58q-58 0 -100 27t-52 83h143q3 -22 19 -22q29 0 33 73q-26 -23 -69 -23q-58 0 -95.5 34.5t-37.5 92.5q0 67 45.5 107t122.5 40zM191 313q-31 0 -31 -49q0 -48 32 -48q30 0 30 50q0 22 -8 34.5
t-23 12.5z" />
    <glyph glyph-name="zero.numr" horiz-adv-x="390" 
d="M195 670q87 0 129.5 -55t42.5 -151t-42.5 -151t-129.5 -55t-129.5 55t-42.5 151t42.5 151t129.5 55zM195 355q17 0 21.5 23.5t4.5 85.5t-4.5 85.5t-21.5 23.5t-21.5 -23.5t-4.5 -85.5t4.5 -85.5t21.5 -23.5z" />
    <glyph glyph-name="one.numr" horiz-adv-x="301" 
d="M24 499v110q36 5 65.5 16t54.5 35h106v-392h-141v245q-21 -6 -42 -9.5t-43 -4.5z" />
    <glyph glyph-name="two.numr" horiz-adv-x="380" 
d="M26 268v15q0 35 9.5 62.5t32 53t61.5 55.5l35 27q24 17 34 29.5t10 30.5q0 34 -21 34q-12 0 -19 -13.5t-9 -45.5h-134q4 74 50 114t123 40q69 0 111.5 -35.5t42.5 -94.5q0 -34 -17 -63t-60 -58l-35 -24l-27 -18t-12 -10h153v-99h-328z" />
    <glyph glyph-name="three.numr" horiz-adv-x="373" 
d="M189 258q-162 0 -177 146h131q3 -52 38 -52q34 0 34 36q0 26 -15 37t-45 11h-15v74h15q25 0 38.5 7.5t13.5 31.5q0 30 -25 30q-20 0 -23 -33h-131q21 124 162 124q70 0 112.5 -31t42.5 -82q0 -60 -66 -87q38 -11 58.5 -33t20.5 -59q0 -55 -43.5 -87.5t-125.5 -32.5z" />
    <glyph glyph-name="four.numr" horiz-adv-x="367" 
d="M15 332v85l186 239h116v-229h38v-95h-38v-68h-129v68h-173zM125 427h63v84z" />
    <glyph glyph-name="five.numr" horiz-adv-x="379" 
d="M35 427l16 229h277v-101h-170l-2 -47q13 11 31 15.5t38 4.5q59 0 96 -35t37 -94q0 -66 -47.5 -105.5t-127.5 -39.5q-71 0 -114.5 32t-49.5 92h136q3 -16 9 -22t16 -6q16 0 22.5 12t6.5 34q0 49 -30 49q-20 0 -32 -18h-112z" />
    <glyph glyph-name="six.numr" horiz-adv-x="381" 
d="M194 258q-80 0 -125 52.5t-45 160.5q0 89 45 144t138 55q58 0 98.5 -27t50.5 -83h-141q-5 23 -18 23q-29 0 -33 -76q29 26 77 26q54 0 89.5 -35t35.5 -93q0 -69 -47.5 -108t-124.5 -39zM194 346q31 0 31 50q0 48 -32 48q-30 0 -30 -49t31 -49z" />
    <glyph glyph-name="seven.numr" horiz-adv-x="330" 
d="M7 565v101h314v-101q-65 -76 -98 -145.5t-38 -145.5h-137q9 84 43.5 153.5t100.5 137.5h-185z" />
    <glyph glyph-name="eight.numr" horiz-adv-x="386" 
d="M193 670q76 0 120 -29t44 -74q0 -59 -64 -87q36 -14 57 -38.5t21 -59.5q0 -57 -49.5 -90.5t-128.5 -33.5t-128.5 33.5t-49.5 90.5q0 35 21 59.5t57 38.5q-64 28 -64 87q0 45 44 74t120 29zM193 518q24 0 24 37q0 17 -6 27t-18 10t-18 -10t-6 -27q0 -37 24 -37zM193 340
q13 0 21 11.5t8 39.5q0 25 -8 37t-21 12t-21 -12t-8 -37q0 -28 8 -39.5t21 -11.5z" />
    <glyph glyph-name="nine.numr" horiz-adv-x="382" 
d="M187 670q49 0 88.5 -20.5t62.5 -65t23 -117.5q0 -93 -44.5 -151t-138.5 -58q-58 0 -100 27t-52 83h143q3 -22 19 -22q29 0 33 73q-26 -23 -69 -23q-58 0 -95.5 34.5t-37.5 92.5q0 67 45.5 107t122.5 40zM191 581q-31 0 -31 -49q0 -48 32 -48q30 0 30 50q0 22 -8 34.5
t-23 12.5z" />
    <glyph glyph-name="dotlessij" horiz-adv-x="598" 
d="M44 -53h192q4 -23 16 -36.5t35 -13.5q25 0 40 21t15 66v78q-19 -27 -52 -44.5t-81 -17.5q-70 0 -114.5 47.5t-44.5 127.5v332h205v-300q0 -25 10 -43t30 -18q17 0 32 18t15 58v285h205v-463q0 -132 -67 -199.5t-193 -67.5q-63 0 -114.5 19t-85.5 56.5t-43 94.5z" />
    <glyph glyph-name="periodcentered.loclCAT.cap" 
d="M-99 285q-45 0 -76 30t-31 77t31 77t76 30t76 -30t31 -77t-31 -77t-76 -30z" />
    <glyph glyph-name="periodcentered.loclCAT" horiz-adv-x="174" 
d="M87 233q-45 0 -76 30t-31 77t31 77t76 30t76 -30t31 -77t-31 -77t-76 -30z" />
    <glyph glyph-name="uni0327.cap" 
d="M-48 2h87l-4 -59q9 2 18 2q47 0 77 -29t30 -78q0 -60 -39 -94.5t-113 -34.5q-17 0 -43.5 3.5t-45.5 11.5l9 96q39 -11 69 -11q23 0 32 8.5t9 20.5q0 13 -8.5 19t-21.5 6q-11 0 -20.5 -3.5t-16.5 -8.5h-34z" />
    <glyph glyph-name="uni0326.cap" 
d="M-109 -362v77q32 6 56.5 18t38.5 35q-35 3 -59 28t-24 67q0 43 27.5 68.5t67.5 25.5q42 0 70.5 -31t28.5 -88q0 -52 -26 -94.5t-72.5 -70t-107.5 -35.5z" />
    <glyph glyph-name="commabelow" horiz-adv-x="500" 
d="M137 -344v69q27 4 53 15.5t41 34.5q-29 3 -54.5 25.5t-25.5 66.5q0 39 25.5 64.5t66.5 25.5q40 0 66.5 -29.5t26.5 -84.5q0 -53 -29 -93t-74.5 -64t-95.5 -30z" />
    <glyph glyph-name="uni0328.cap" 
d="M-1 -279q-77 0 -120.5 38t-43.5 97q0 44 26 87.5t87 77.5l133 -21q-37 0 -63.5 -23.5t-26.5 -66.5q0 -68 59 -68q16 0 28 3t26 9v-117q-22 -7 -49 -11.5t-56 -4.5z" />
    <glyph glyph-name="uni0328.round" 
d="M8 -273q-82 0 -124 39t-42 91q0 37 17 69t65 69l144 35q-47 -36 -63.5 -62.5t-16.5 -57.5q0 -37 20 -52.5t48 -15.5q14 0 26.5 3t24.5 7v-109q-23 -7 -48 -11.5t-51 -4.5z" />
    <glyph glyph-name="uni0328.round.cap" 
d="M6 -276q-52 0 -89.5 18.5t-57.5 49t-20 65.5q0 36 18 69.5t68 71.5l155 24q-52 -28 -70.5 -56t-18.5 -58q0 -34 19 -48.5t42 -14.5q16 0 29.5 3t28.5 9v-116q-45 -17 -104 -17z" />
    <glyph glyph-name="acutecomb.cap" 
d="M-135 807l234 154l85 -162l-267 -98z" />
    <glyph glyph-name="acutecomb.asc" 
d="M-102 835l194 133l69 -141l-212 -90z" />
    <glyph glyph-name="acutecomb.narrow" 
d="M-94 616l119 177l121 -101l-161 -140z" />
    <glyph glyph-name="uni030B.cap" 
d="M-187 795l182 201l99 -120l-218 -159zM28 798l219 158l75 -136l-246 -109z" />
    <glyph glyph-name="IJacute" horiz-adv-x="681" 
d="M341 -16q-128 0 -199.5 66.5t-81.5 180.5h210q4 -40 22 -66.5t50 -26.5q31 0 49 26t18 82v424h210v-405q0 -129 -71 -205t-207 -76zM270 313h-210v357h210v-357zM29 807l234 154l85 -162l-267 -98zM382 807l234 154l85 -162l-267 -98z" />
    <glyph glyph-name="ijacute" horiz-adv-x="617" 
d="M54 -53h192q4 -23 16 -36.5t35 -13.5q25 0 40 21t15 66v78q-19 -27 -52 -44.5t-81 -17.5q-70 0 -114.5 47.5t-44.5 127.5v332h205v-300q0 -25 10 -43t30 -18q17 0 32 18t15 58v285h205v-463q0 -132 -67 -199.5t-193 -67.5q-63 0 -114.5 19t-85.5 56.5t-43 94.5zM51 623
l165 176l103 -122l-200 -131zM344 623l165 176l103 -122l-200 -131z" />
    <glyph glyph-name="gravecomb.cap" 
d="M134 807l-52 -106l-267 98l85 162z" />
    <glyph glyph-name="gravecomb.narrow" 
d="M100 624l-92 -74l-150 135l130 113z" />
    <glyph glyph-name="uni0302.cap" 
d="M41 926l173 -136l-68 -98l-146 89l-146 -89l-68 98l173 136h82z" />
    <glyph glyph-name="uni0302.narrow" 
d="M49 778l126 -149l-76 -76l-99 93l-99 -93l-77 76l127 149h98z" />
    <glyph glyph-name="tildecomb.cap" 
d="M-25 764q-15 10 -24 15t-19 5q-14 0 -22 -13t-15 -45h-115q5 56 23 100t47.5 70t70.5 26q28 0 52 -12t52 -32q15 -10 25.5 -15.5t21.5 -5.5q13 0 19.5 13.5t13.5 44.5h115q-5 -55 -22 -99t-45.5 -70t-65.5 -26q-34 0 -58.5 12.5t-53.5 31.5z" />
    <glyph glyph-name="tildecomb.narrow" 
d="M-21 601q-16 13 -23.5 17.5t-15.5 4.5q-11 0 -19 -13t-11 -43h-98q3 51 17.5 93t40.5 67t63 25q25 0 45.5 -11t42.5 -31q14 -13 22.5 -17.5t16.5 -4.5q11 0 19 13t11 44h98q-3 -52 -17.5 -94t-40.5 -66.5t-63 -24.5q-25 0 -46 11.5t-42 29.5z" />
    <glyph glyph-name="uni030C.cap" 
d="M-41 706l-173 136l68 98l146 -89l146 89l68 -98l-173 -136h-82z" />
    <glyph glyph-name="uni0315.cap" 
d="M30 454h-100v216h157v-12q0 -27 -7 -67t-20 -77.5t-30 -59.5z" />
    <glyph glyph-name="uni0315.short" 
d="M39 547h-100v177h142v-13q0 -40 -10.5 -87t-31.5 -77z" />
    <glyph glyph-name="uni0304.cap" 
d="M-199 744v142h398v-142h-398z" />
    <glyph glyph-name="uni0304.narrow" 
d="M-170 585v128h340v-128h-340z" />
    <glyph glyph-name="uni0308.cap" 
d="M215 824q0 -41 -27.5 -69t-68.5 -28t-68.5 28t-27.5 69t27.5 69t68.5 28t68.5 -28t27.5 -69zM-23 824q0 -41 -27.5 -69t-68.5 -28t-68.5 28t-27.5 69t27.5 69t68.5 28t68.5 -28t27.5 -69z" />
    <glyph glyph-name="uni0308.narrow" 
d="M192 644q0 -41 -27 -66t-65 -25t-65 25t-27 66t27 66t65 25t65 -25t27 -66zM-8 644q0 -41 -27 -66t-65 -25t-65 25t-27 66t27 66t65 25t65 -25t27 -66z" />
    <glyph glyph-name="uni0306.cap" 
d="M0 850q28 0 43 15t19 35h122q-2 -50 -23.5 -90.5t-62 -64.5t-98.5 -24t-98.5 24t-62 64.5t-23.5 90.5h122q4 -20 19 -35t43 -15z" />
    <glyph glyph-name="uni0307.cap" 
d="M-113 826q0 47 33 77.5t80 30.5t80 -30.5t33 -77.5t-33 -77.5t-80 -30.5t-80 30.5t-33 77.5z" />
    <glyph glyph-name="dotbelowcomb.cap" 
d="M-108 -158q0 46 31 74t77 28t77 -28t31 -74t-31 -74t-77 -28t-77 28t-31 74z" />
    <glyph glyph-name="uni030A.cap" 
d="M0 701q-59 0 -99 36.5t-40 98.5t40 98.5t99 36.5t99 -36.5t40 -98.5t-40 -98.5t-99 -36.5zM0 792q19 0 30 11.5t11 32.5t-11 32.5t-30 11.5t-30 -11.5t-11 -32.5t11 -32.5t30 -11.5z" />
    </font>
</defs>
</svg>
