<?xml version="1.0" standalone="no"?>
<!DOCTYPE svg PUBLIC "-//W3C//DTD SVG 1.1//EN" "http://www.w3.org/Graphics/SVG/1.1/DTD/svg11.dtd" >
<svg xmlns="http://www.w3.org/2000/svg" xmlns:xlink="http://www.w3.org/1999/xlink" version="1.1">
<metadata>
Created by FontForge 20201107 at Wed Aug 15 19:59:32 2018
 By 
(c)2018, McDonald's Corporation. All rights reserved.
</metadata>
<defs>
<font id="Speedee-Bold" horiz-adv-x="0" >
  <font-face 
    font-family="Speedee"
    font-weight="700"
    font-stretch="normal"
    units-per-em="1000"
    panose-1="2 11 8 3 3 5 2 2 2 4"
    ascent="800"
    descent="-200"
    x-height="504"
    cap-height="670"
    bbox="-207 -359 1249 967"
    underline-thickness="40"
    underline-position="-105"
    unicode-range="U+000D-FB04"
  />
<missing-glyph horiz-adv-x="500" 
d="M454 0h-408v670h408v-670zM393 54v562h-287v-562h287z" />
    <glyph glyph-name="f_f" unicode="ff" horiz-adv-x="709" 
d="M10 504h71q1 95 48 152t146 57q29 0 59 -7t57 -21l-24 -100q-29 13 -57 13q-59 0 -59 -75v-19h163q1 95 48 152t146 57q28 0 58.5 -7t57.5 -21l-24 -100q-29 13 -57 13q-59 0 -59 -75v-19h108v-110h-108v-394h-170v394h-163v-394h-170v394h-71v110z" />
    <glyph glyph-name="f_i" unicode="fi" horiz-adv-x="644" 
d="M404 652q0 38 27.5 64.5t67.5 26.5t67.5 -26.5t27.5 -64.5t-27.5 -64.5t-67.5 -26.5t-67.5 26.5t-27.5 64.5zM10 504h71q1 95 48 152t146 57q44 0 88 -16l-24 -103q-15 4 -29 4q-59 0 -59 -75v-19h90v-110h-90v-394h-170v394h-71v110zM414 504h170v-504h-170v504z" />
    <glyph glyph-name="f_l" unicode="fl" horiz-adv-x="641" 
d="M10 504h71q1 95 48 152t146 57q44 0 88 -16l-24 -103q-15 4 -29 4q-59 0 -59 -75v-19h90v-110h-90v-394h-170v394h-71v110zM411 700h170v-700h-170v700z" />
    <glyph glyph-name="f_f_i" unicode="ffi" horiz-adv-x="977" 
d="M737 652q0 38 27.5 64.5t67.5 26.5t67.5 -26.5t27.5 -64.5t-27.5 -64.5t-67.5 -26.5t-67.5 26.5t-27.5 64.5zM10 504h71q1 95 48 152t146 57q29 0 59 -7t57 -21l-24 -100q-29 13 -57 13q-59 0 -59 -75v-19h163q1 95 48 152t146 57q44 0 88 -16l-24 -103q-15 4 -29 4
q-59 0 -59 -75v-19h90v-110h-90v-394h-170v394h-163v-394h-170v394h-71v110zM747 504h170v-504h-170v504z" />
    <glyph glyph-name="f_f_l" unicode="ffl" horiz-adv-x="974" 
d="M10 504h71q1 95 48 152t146 57q29 0 59 -7t57 -21l-24 -100q-29 13 -57 13q-59 0 -59 -75v-19h163q1 95 48 152t146 57q44 0 88 -16l-24 -103q-15 4 -29 4q-59 0 -59 -75v-19h90v-110h-90v-394h-170v394h-163v-394h-170v394h-71v110zM744 700h170v-700h-170v700z" />
    <glyph glyph-name=".notdef" horiz-adv-x="500" 
d="M454 0h-408v670h408v-670zM393 54v562h-287v-562h287z" />
    <glyph glyph-name="uni0000" 
 />
    <glyph glyph-name="uni0000" 
 />
    <glyph glyph-name="uni000D" unicode="&#xd;" horiz-adv-x="200" 
 />
    <glyph glyph-name="space" unicode=" " horiz-adv-x="200" 
 />
    <glyph glyph-name="exclam" unicode="!" horiz-adv-x="275" 
d="M48 670h179l-30 -458h-118zM137 170q39 0 65 -25t26 -65q0 -37 -27 -63.5t-64 -26.5q-38 0 -64 26.5t-26 63.5q0 40 26 65t64 25z" />
    <glyph glyph-name="quotedbl" unicode="&#x22;" horiz-adv-x="469" 
d="M174 440h-79q-19 61 -27 107.5t-8 97.5v55h149v-55q0 -51 -7.5 -97.5t-27.5 -107.5zM374 440h-79q-19 61 -27 107.5t-8 97.5v55h149v-55q0 -51 -7.5 -97.5t-27.5 -107.5z" />
    <glyph glyph-name="numbersign" unicode="#" horiz-adv-x="590" 
d="M49 0l27 155h-66v113h85l23 134h-79v113h99l24 139h134l-24 -139h111l24 139h134l-24 -139h66v-113h-86l-23 -134h80v-113h-99l-27 -155h-134l27 155h-111l-27 -155h-134zM229 268h111l23 134h-111z" />
    <glyph glyph-name="dollar" unicode="$" horiz-adv-x="590" 
d="M263 -110v107q-106 9 -167 63t-71 142h174q6 -42 25 -64.5t49 -29.5v154l-53 12q-86 20 -132 69t-46 118q0 63 28.5 106.5t78.5 67.5t114 29v106h69v-107q96 -8 151 -63t68 -150h-171q-5 39 -19 64.5t-39 35.5v-155l48 -12q74 -18 116 -43.5t59 -60.5t17 -79
q0 -90 -60.5 -143t-169.5 -60v-107h-69zM208 480q0 -27 15.5 -45t49.5 -28v148q-32 -4 -48.5 -24t-16.5 -51zM393 184q0 23 -16.5 40t-54.5 27v-145q37 4 54 25.5t17 52.5z" />
    <glyph glyph-name="percent" unicode="%" horiz-adv-x="908" 
d="M226 0l318 660h138l-318 -660h-138zM190 258q-84 0 -125 55.5t-41 150.5t41 150.5t125 55.5t125 -55.5t41 -150.5t-41 -150.5t-125 -55.5zM190 342q23 0 32 29t9 93t-9 93t-32 29t-32 -29t-9 -93t9 -93t32 -29zM716 -10q-84 0 -125 55.5t-41 150.5t41 150.5t125 55.5
t125 -55.5t41 -150.5t-41 -150.5t-125 -55.5zM716 74q23 0 32 29t9 93t-9 93t-32 29t-32 -29t-9 -93t9 -93t32 -29z" />
    <glyph glyph-name="ampersand" unicode="&#x26;" horiz-adv-x="720" 
d="M499 344h147q-6 -127 -74 -219q19 -6 39 -6q13 0 24 1t24 5l18 -113q-21 -9 -42 -12.5t-46 -3.5q-35 0 -65.5 9.5t-58.5 26.5q-37 -20 -82 -31t-96 -11q-73 0 -129 23.5t-88 66t-32 101.5q0 58 31 103.5t95 75.5q-33 44 -44.5 77.5t-11.5 65.5q0 77 55 122t143 45
q54 0 96.5 -19t67 -53t24.5 -79q0 -63 -34.5 -102t-108.5 -68l114 -141l2 -2q26 57 32 138zM255 517q0 -23 7.5 -43.5t29.5 -49.5q33 21 44 42t11 50q0 25 -12.5 39t-33.5 14q-19 0 -32.5 -13.5t-13.5 -38.5zM216 190q0 -40 28.5 -65.5t70.5 -25.5q32 0 60 12q-9 10 -19 21
l-116 136q-24 -30 -24 -78z" />
    <glyph glyph-name="quotesingle" unicode="'" horiz-adv-x="269" 
d="M174 440h-79q-19 61 -27 107.5t-8 97.5v55h149v-55q0 -51 -7.5 -97.5t-27.5 -107.5z" />
    <glyph glyph-name="parenleft" unicode="(" horiz-adv-x="353" 
d="M328 -100h-118q-150 189 -150 410q0 111 37.5 214.5t112.5 195.5h118q-56 -94 -80.5 -200.5t-24.5 -209.5t24.5 -208t80.5 -202z" />
    <glyph glyph-name="parenright" unicode=")" horiz-adv-x="353" 
d="M143 -100h-118q56 94 80.5 200.5t24.5 209.5t-24.5 208t-80.5 202h118q150 -189 150 -410q0 -111 -37.5 -214.5t-112.5 -195.5z" />
    <glyph glyph-name="asterisk" unicode="*" horiz-adv-x="364" 
d="M125 696h114q-10 -63 -28 -126q56 36 112 65l35 -109q-33 -5 -64.5 -8.5t-63.5 -4.5q25 -20 49 -41.5t47 -44.5l-92 -67q-15 29 -27.5 58.5t-24.5 59.5q-12 -30 -25 -59.5t-27 -58.5l-92 67q23 23 46.5 44.5t49.5 41.5q-33 1 -64.5 4.5t-63.5 8.5l35 109q57 -30 111 -65
q-8 32 -15 62.5t-12 63.5z" />
    <glyph glyph-name="plus" unicode="+" horiz-adv-x="590" 
d="M77 388h159v164h118v-164h159v-116h-159v-165h-118v165h-159v116z" />
    <glyph glyph-name="comma" unicode="," horiz-adv-x="220" 
d="M17 -147v66q36 8 58.5 26.5t31.5 44.5q-38 1 -63 25t-25 64q0 41 26.5 66t68.5 25q41 0 68.5 -29t27.5 -89q0 -80 -51 -133.5t-142 -65.5z" />
    <glyph glyph-name="hyphen" unicode="-" horiz-adv-x="374" 
d="M25 182v130h324v-130h-324z" />
    <glyph glyph-name="period" unicode="." horiz-adv-x="220" 
d="M109 -10q-38 0 -64 26.5t-26 63.5q0 40 26 65t64 25q39 0 65 -25t26 -65q0 -37 -27 -63.5t-64 -26.5z" />
    <glyph glyph-name="slash" unicode="/" horiz-adv-x="366" 
d="M1 -104l218 789h145l-218 -789h-145z" />
    <glyph glyph-name="zero" unicode="0" horiz-adv-x="586" 
d="M293 -16q-89 0 -147.5 42t-87 119t-28.5 182t28.5 182t87 119t147.5 42t147.5 -42t87 -119t28.5 -182t-28.5 -182t-87 -119t-147.5 -42zM293 106q44 0 63.5 54t19.5 167t-19.5 167t-63.5 54t-63.5 -54t-19.5 -167t19.5 -167t63.5 -54z" />
    <glyph glyph-name="one" unicode="1" horiz-adv-x="432" 
d="M22 425v138q55 10 105.5 31t91.5 60h131v-654h-174v464q-38 -14 -77 -24t-77 -15z" />
    <glyph glyph-name="two" unicode="2" horiz-adv-x="564" 
d="M35 0v22q0 84 37.5 145.5t119.5 120.5l81 58q43 31 61 57.5t18 61.5q0 41 -18 63t-52 22q-38 0 -58 -29.5t-25 -91.5h-166q6 114 76 177.5t184 63.5q71 0 124 -24.5t82.5 -69t29.5 -104.5q0 -62 -29.5 -111t-94.5 -95l-92 -65q-32 -23 -49.5 -39t-22.5 -33h291v-129h-497
z" />
    <glyph glyph-name="three" unicode="3" horiz-adv-x="570" 
d="M290 -16q-129 0 -195 61.5t-75 162.5h164q4 -56 30.5 -81t68.5 -25t65.5 23.5t23.5 69.5q0 43 -28.5 71t-108.5 28h-23v105h22q63 0 88.5 21t25.5 56q0 34 -18.5 55t-52.5 21q-66 0 -75 -70h-163q11 87 72.5 137.5t170.5 50.5q72 0 126 -22t84.5 -62.5t30.5 -98.5
q0 -42 -20 -80t-72 -62q46 -18 71.5 -44t35 -56t9.5 -59q0 -64 -32 -109t-89.5 -69t-135.5 -24z" />
    <glyph glyph-name="four" unicode="4" horiz-adv-x="572" 
d="M21 125v114l308 414h147v-403h78v-125h-78v-125h-160v125h-295zM169 250h147v200z" />
    <glyph glyph-name="five" unicode="5" horiz-adv-x="567" 
d="M54 275l26 379h421v-129h-287l-9 -125q24 18 53.5 28.5t65.5 10.5q66 0 115 -27.5t76 -76.5t27 -114q0 -73 -33 -126.5t-93 -82t-141 -28.5q-106 0 -171.5 51.5t-75.5 141.5h167q7 -37 26.5 -55t56.5 -18q39 0 61 28.5t22 81.5q0 58 -24 86.5t-60 28.5q-58 0 -87 -54
h-136z" />
    <glyph glyph-name="six" unicode="6" horiz-adv-x="573" 
d="M298 -16q-129 0 -198.5 88.5t-69.5 262.5q0 99 29 174.5t90 118t158 42.5q89 0 151.5 -44t77.5 -129h-175q-5 29 -22 45t-42 16q-45 0 -68.5 -43.5t-27.5 -137.5q52 56 140 56q61 0 108 -26.5t74 -75t27 -114.5q0 -71 -32 -123.5t-89 -81t-131 -28.5zM291 97
q41 0 64 29.5t23 82.5t-23 82.5t-64 29.5t-64 -29.5t-23 -82.5t23 -82.5t64 -29.5z" />
    <glyph glyph-name="seven" unicode="7" horiz-adv-x="512" 
d="M13 525v129h483v-129q-107 -135 -164.5 -260t-68.5 -265h-171q12 101 42.5 188.5t81.5 169.5t125 167h-328z" />
    <glyph glyph-name="eight" unicode="8" horiz-adv-x="588" 
d="M294 -16q-80 0 -141.5 24.5t-95.5 69.5t-34 107q0 59 35 101.5t96 63.5q-51 21 -80 59t-29 89q0 53 31 91.5t87 59.5t131 21t131 -21t87 -59.5t31 -91.5q0 -51 -29 -89t-80 -59q61 -21 96 -63.5t35 -101.5q0 -62 -34 -107t-95.5 -69.5t-141.5 -24.5zM294 400
q34 0 54 21.5t20 62.5t-20 62.5t-54 21.5t-54 -21.5t-20 -62.5t20 -62.5t54 -21.5zM294 89q38 0 63.5 26.5t25.5 78.5t-25.5 78.5t-63.5 26.5t-63.5 -26.5t-25.5 -78.5t25.5 -78.5t63.5 -26.5z" />
    <glyph glyph-name="nine" unicode="9" horiz-adv-x="573" 
d="M282 670q73 0 132 -34.5t94 -108t35 -189.5q0 -105 -29.5 -184.5t-90.5 -124.5t-157 -45q-89 0 -151.5 44t-77.5 129h175q5 -29 22 -45t42 -16q44 0 67.5 42.5t27.5 136.5q-50 -54 -133 -54q-64 0 -112 26.5t-75.5 74.5t-27.5 113q0 72 32.5 124.5t90.5 81.5t136 29z
M285 557q-42 0 -64.5 -29.5t-22.5 -82.5t22.5 -82.5t64.5 -29.5q39 0 61.5 29.5t22.5 82.5t-22.5 82.5t-61.5 29.5z" />
    <glyph glyph-name="colon" unicode=":" horiz-adv-x="220" 
d="M109 -10q-38 0 -64 26.5t-26 63.5q0 40 26 65t64 25q39 0 65 -25t26 -65q0 -37 -27 -63.5t-64 -26.5zM109 324q-38 0 -64 26.5t-26 63.5q0 40 26 65t64 25q39 0 65 -25t26 -65q0 -37 -27 -63.5t-64 -26.5z" />
    <glyph glyph-name="semicolon" unicode=";" horiz-adv-x="220" 
d="M17 -147v66q36 8 58.5 26.5t31.5 44.5q-38 1 -63 25t-25 64q0 41 26.5 66t68.5 25q41 0 68.5 -29t27.5 -89q0 -80 -51 -133.5t-142 -65.5zM109 324q-38 0 -64 26.5t-26 63.5q0 40 26 65t64 25q39 0 65 -25t26 -65q0 -37 -27 -63.5t-64 -26.5z" />
    <glyph glyph-name="less" unicode="&#x3c;" horiz-adv-x="590" 
d="M510 90l-436 182v116l436 182v-124l-304 -116l304 -117v-123z" />
    <glyph glyph-name="equal" unicode="=" horiz-adv-x="590" 
d="M77 368v116h436v-116h-436zM77 156v116h436v-116h-436z" />
    <glyph glyph-name="greater" unicode="&#x3e;" horiz-adv-x="590" 
d="M80 90v124l304 116l-304 117v123l436 -182v-116z" />
    <glyph glyph-name="question" unicode="?" horiz-adv-x="475" 
d="M157 477h-164q5 96 67.5 152.5t173.5 56.5q70 0 124 -22.5t84 -64t30 -98.5q0 -59 -27 -95.5t-74 -70.5l-45 -33q-25 -18 -32.5 -37t-7.5 -43v-10h-153v30q0 45 17 74.5t60 63.5l38 30q28 22 37.5 40t9.5 48q0 28 -16.5 48t-47.5 20q-32 0 -51.5 -21.5t-22.5 -67.5z
M209 170q39 0 65 -25t26 -65q0 -37 -27 -63.5t-64 -26.5q-38 0 -64 26.5t-26 63.5q0 40 26 65t64 25z" />
    <glyph glyph-name="at" unicode="@" horiz-adv-x="955" 
d="M477 -184q-135 0 -235.5 54t-156 154t-55.5 237q0 97 32 178.5t92 142t142.5 93.5t183.5 33q110 0 194.5 -31t142.5 -86t88 -128.5t30 -158.5q0 -136 -63.5 -209.5t-166.5 -73.5q-27 0 -54.5 8t-49.5 28t-32 57q-19 -35 -58.5 -56t-92.5 -21q-56 0 -96 28t-62 76.5
t-22 110.5q0 63 23 111.5t64 76t96 27.5q40 0 76 -19t58 -55l9 71h135v-288q0 -40 12.5 -55.5t34.5 -15.5q21 0 43.5 18.5t37.5 61.5t15 119q0 87 -41 160.5t-121.5 117.5t-199.5 44q-78 0 -143 -28t-112.5 -77.5t-73.5 -116t-26 -143.5q0 -84 28 -151t77 -114.5t113 -72.5
t136 -25q67 0 120 11.5t114 41.5l20 -78q-61 -30 -122 -43.5t-134 -13.5zM466 147q34 0 56 25.5t22 70.5v18q0 44 -22 69.5t-56 25.5t-51.5 -30t-17.5 -74t17.5 -74.5t51.5 -30.5z" />
    <glyph glyph-name="A" unicode="A" horiz-adv-x="666" 
d="M480 0l-39 124h-222l-39 -124h-173l240 670h173l239 -670h-179zM258 251h143l-71 229z" />
    <glyph glyph-name="B" unicode="B" horiz-adv-x="648" 
d="M74 0v670h267q85 0 138 -23t78 -62t25 -87q0 -41 -22 -79t-83 -62q71 -21 105 -64.5t34 -98.5q0 -87 -64.5 -140.5t-189.5 -53.5h-288zM317 554h-75v-157h75q37 0 56 12t26 30t7 37q0 78 -89 78zM321 291h-79v-175h79q62 0 87.5 24t25.5 64q0 38 -24.5 62.5t-88.5 24.5z
" />
    <glyph glyph-name="C" unicode="C" horiz-adv-x="692" 
d="M360 -16q-105 0 -177.5 44.5t-109.5 123.5t-37 183q0 103 37 182t109.5 124t177.5 45q128 0 206.5 -70t99.5 -189h-187q-11 61 -42 95.5t-77 34.5q-67 0 -102.5 -59t-35.5 -163t35.5 -163t102.5 -59q45 0 75.5 32.5t41.5 91.5h187q-12 -76 -51.5 -133t-103.5 -88.5
t-149 -31.5z" />
    <glyph glyph-name="D" unicode="D" horiz-adv-x="712" 
d="M74 0v670h235q119 0 201 -43.5t124 -117t42 -164.5q0 -102 -42 -179.5t-124 -121.5t-201 -44h-235zM309 546h-67v-421h67q93 0 137 55t44 155q0 101 -44 156t-137 55z" />
    <glyph glyph-name="E" unicode="E" horiz-adv-x="577" 
d="M74 0v670h454v-131h-276v-139h245v-125h-245v-144h280v-131h-458z" />
    <glyph glyph-name="F" unicode="F" horiz-adv-x="563" 
d="M74 0v670h454v-131h-276v-160h235v-127h-235v-252h-178z" />
    <glyph glyph-name="G" unicode="G" horiz-adv-x="718" 
d="M36 335q0 103 39 182t114 124t184 45q119 0 195.5 -62t102.5 -174h-187q-27 110 -114 110q-75 0 -113 -60.5t-38 -164.5t38 -164.5t113 -60.5q53 0 88.5 28.5t47.5 88.5h-123v125h298v-42q0 -65 -19 -123.5t-57.5 -104t-98 -72t-139.5 -26.5q-105 0 -179 44.5t-113 123.5
t-39 183z" />
    <glyph glyph-name="H" unicode="H" horiz-adv-x="728" 
d="M74 0v670h178v-265h224v265h178v-670h-178v274h-224v-274h-178z" />
    <glyph glyph-name="I" unicode="I" horiz-adv-x="326" 
d="M74 0v670h178v-670h-178z" />
    <glyph glyph-name="J" unicode="J" horiz-adv-x="599" 
d="M272 -16q-116 0 -185.5 70.5t-76.5 193.5h177q2 -62 22.5 -98.5t62.5 -36.5q45 0 66 34t21 95v428h178v-406q0 -138 -73 -209t-192 -71z" />
    <glyph glyph-name="K" unicode="K" horiz-adv-x="671" 
d="M74 0v670h178v-286l196 286h205l-257 -331q67 -29 124 -89q46 -49 82 -113t59 -137h-203q-11 45 -30.5 89.5t-45.5 82.5q-28 41 -61.5 69t-68.5 33v-274h-178z" />
    <glyph glyph-name="L" unicode="L" horiz-adv-x="542" 
d="M74 0v670h178v-539h260v-131h-438z" />
    <glyph glyph-name="M" unicode="M" horiz-adv-x="851" 
d="M35 0l75 670h175l140 -421l141 421h175l75 -670h-179l-39 409l-119 -360h-111l-120 364l-40 -413h-173z" />
    <glyph glyph-name="N" unicode="N" horiz-adv-x="725" 
d="M74 0v670h167l237 -408v408h173v-670h-164l-240 415v-415h-173z" />
    <glyph glyph-name="O" unicode="O" horiz-adv-x="735" 
d="M367 -16q-106 0 -180 44.5t-112.5 124t-38.5 182.5q0 102 38.5 181.5t112.5 124.5t180 45q107 0 181 -45t112.5 -124.5t38.5 -181.5q0 -103 -38.5 -182t-112.5 -124t-181 -45zM367 113q71 0 108.5 60t37.5 162t-37.5 162t-108.5 60t-108 -60t-37 -162t37 -162t108 -60z
" />
    <glyph glyph-name="P" unicode="P" horiz-adv-x="611" 
d="M314 234h-62v-234h-178v670h260q129 0 198 -58t69 -153q0 -103 -70.5 -164t-216.5 -61zM308 554h-56v-204h56q113 0 113 102t-113 102z" />
    <glyph glyph-name="Q" unicode="Q" horiz-adv-x="735" 
d="M367 -16q-106 0 -180 44.5t-112.5 124t-38.5 182.5q0 102 38.5 181.5t112.5 124.5t180 45q107 0 181 -45t112.5 -124.5t38.5 -181.5q0 -113 -46.5 -197.5t-134.5 -123.5q29 -8 67.5 -11t87.5 -3v-154q-121 7 -188 39.5t-105 98.5h-13zM367 113q71 0 108.5 60t37.5 162
t-37.5 162t-108.5 60t-108 -60t-37 -162t37 -162t108 -60z" />
    <glyph glyph-name="R" unicode="R" horiz-adv-x="666" 
d="M74 0v670h270q128 0 196.5 -54.5t68.5 -137.5q0 -51 -23.5 -88t-62 -59.5t-83.5 -31.5q80 -34 129 -113t72 -186h-186q-22 117 -75 187t-128 74v-261h-178zM308 554h-56v-184h56q59 0 90 24t31 68t-31 68t-90 24z" />
    <glyph glyph-name="S" unicode="S" horiz-adv-x="621" 
d="M317 -16q-127 0 -200.5 56.5t-85.5 162.5h175q8 -58 40 -80.5t73 -22.5q47 0 69 23t22 48q0 31 -16.5 53t-58.5 33l-111 29q-86 22 -129 68.5t-43 131.5q0 65 34.5 109.5t92.5 67.5t130 23q119 0 185.5 -56t80.5 -159h-172q-6 46 -31 72.5t-68 26.5q-37 0 -58 -20
t-21 -51q0 -59 67 -76l105 -27q75 -19 116 -49.5t57 -69.5t16 -86q0 -97 -70.5 -152t-198.5 -55z" />
    <glyph glyph-name="T" unicode="T" horiz-adv-x="596" 
d="M209 0v539h-196v131h570v-131h-196v-539h-178z" />
    <glyph glyph-name="U" unicode="U" horiz-adv-x="704" 
d="M351 -16q-139 0 -214 78t-75 212v396h178v-411q0 -65 28.5 -105.5t82.5 -40.5q55 0 84 40.5t29 105.5v411h178v-396q0 -134 -76 -212t-215 -78z" />
    <glyph glyph-name="V" unicode="V" horiz-adv-x="652" 
d="M187 670l142 -477l142 477h173l-234 -670h-169l-233 670h179z" />
    <glyph glyph-name="W" unicode="W" horiz-adv-x="913" 
d="M166 0l-153 670h179l92 -439l115 439h125l114 -439l93 439h169l-153 -670h-181l-108 430l-111 -430h-181z" />
    <glyph glyph-name="X" unicode="X" horiz-adv-x="654" 
d="M204 670l123 -199l125 199h187l-220 -326l230 -344h-189l-134 219l-134 -219h-187l230 343l-220 327h189z" />
    <glyph glyph-name="Y" unicode="Y" horiz-adv-x="634" 
d="M188 670l132 -274l135 274h178l-227 -400v-270h-178v268l-227 402h187z" />
    <glyph glyph-name="Z" unicode="Z" horiz-adv-x="606" 
d="M40 0v99l306 442h-299v129h520v-99l-307 -442h314v-129h-534z" />
    <glyph glyph-name="bracketleft" unicode="[" horiz-adv-x="355" 
d="M70 -100v820h268v-110h-112v-600h112v-110h-268z" />
    <glyph glyph-name="backslash" unicode="\" horiz-adv-x="366" 
d="M147 685l218 -789h-145l-218 789h145z" />
    <glyph glyph-name="bracketright" unicode="]" horiz-adv-x="355" 
d="M285 720v-820h-268v110h112v600h-112v110h268z" />
    <glyph glyph-name="asciicircum" unicode="^" horiz-adv-x="590" 
d="M71 322l163 338h122l163 -338h-123l-103 232l-104 -232h-118z" />
    <glyph glyph-name="underscore" unicode="_" horiz-adv-x="500" 
d="M0 -125v40h500v-40h-500z" />
    <glyph glyph-name="grave" unicode="`" horiz-adv-x="500" 
d="M213 781l150 -156l-59 -69l-179 120z" />
    <glyph glyph-name="a" unicode="a" horiz-adv-x="554" 
d="M184 -13q-70 0 -114.5 37t-44.5 105q0 54 28.5 89t75 55t101 28.5t105.5 9.5v11q0 43 -16.5 66.5t-47.5 23.5q-26 0 -44 -16.5t-23 -47.5h-160q13 80 74 124.5t159 44.5q114 0 168.5 -56.5t54.5 -169.5v-291h-152l-4 66q-26 -37 -69.5 -58t-90.5 -21zM251 92
q35 0 59.5 27.5t24.5 79.5v39q-75 -2 -107.5 -26.5t-32.5 -60.5q0 -30 15.5 -44.5t40.5 -14.5z" />
    <glyph glyph-name="b" unicode="b" horiz-adv-x="599" 
d="M364 -13q-46 0 -86.5 24.5t-59.5 72.5l-6 -84h-152v700h170v-256q49 73 140 73q62 0 107 -34.5t69.5 -94.5t24.5 -136q0 -78 -26 -138t-72.5 -93.5t-108.5 -33.5zM312 105q41 0 62 41.5t21 105.5t-21 106t-62 42q-38 0 -61 -36.5t-23 -102.5v-18q0 -65 23 -101.5
t61 -36.5z" />
    <glyph glyph-name="c" unicode="c" horiz-adv-x="543" 
d="M284 -13q-72 0 -130 30t-92 89.5t-34 145.5q0 83 34 142.5t92 91t130 31.5q58 0 108.5 -21.5t84 -64.5t41.5 -108h-168q-8 45 -25 64.5t-41 19.5q-32 0 -56 -35t-24 -120q0 -84 24 -119.5t56 -35.5q26 0 43.5 20t25.5 71h167q-11 -70 -46 -114.5t-84.5 -65.5t-105.5 -21z
" />
    <glyph glyph-name="d" unicode="d" horiz-adv-x="599" 
d="M235 517q40 0 76 -18.5t58 -54.5v256h170v-700h-152l-6 82q-47 -95 -152 -95q-61 0 -106.5 34.5t-70 94.5t-24.5 136q0 78 26 138t72.5 93.5t108.5 33.5zM287 399q-41 0 -62 -41.5t-21 -105.5t21 -106t62 -42q37 0 60.5 36.5t23.5 102.5v18q0 65 -23.5 101.5t-60.5 36.5z
" />
    <glyph glyph-name="e" unicode="e" horiz-adv-x="553" 
d="M283 -13q-71 0 -129 29t-92 87.5t-34 148.5q0 81 31.5 140.5t88 92t131.5 32.5q79 0 134.5 -33.5t84.5 -93.5t29 -140v-33h-331q6 -68 29.5 -96.5t58.5 -28.5q32 0 50 17t25 48h162q-20 -85 -84.5 -127.5t-153.5 -42.5zM279 412q-34 0 -56.5 -29.5t-26.5 -84.5h163
q-4 54 -24 84t-56 30z" />
    <glyph glyph-name="f" unicode="f" horiz-adv-x="376" 
d="M10 504h71q1 95 48 152t146 57q29 0 59 -7t57 -21l-24 -100q-29 13 -57 13q-59 0 -59 -75v-19h108v-110h-108v-394h-170v394h-71v110z" />
    <glyph glyph-name="g" unicode="g" horiz-adv-x="599" 
d="M283 -223q-94 0 -159.5 42.5t-80.5 127.5h160q7 -32 28 -50t52 -18q86 0 86 112v76q-23 -33 -58 -51.5t-79 -18.5q-63 0 -108.5 34t-70.5 92.5t-25 134.5t26.5 134.5t75 91.5t114.5 33q39 0 78 -22t60 -67l5 76h152v-462q0 -265 -256 -265zM287 114q37 0 60.5 35
t23.5 100v18q0 63 -23.5 98t-60.5 35q-41 0 -62 -40t-21 -102q0 -63 21 -103.5t62 -40.5z" />
    <glyph glyph-name="h" unicode="h" horiz-adv-x="601" 
d="M60 0v700h170v-263q21 37 57.5 58.5t85.5 21.5q81 0 127.5 -49.5t46.5 -133.5v-334h-170v308q0 40 -17 63.5t-51 23.5q-31 0 -55 -26.5t-24 -83.5v-285h-170z" />
    <glyph glyph-name="i" unicode="i" horiz-adv-x="290" 
d="M145 561q-40 0 -67.5 26.5t-27.5 64.5t27.5 64.5t67.5 26.5t67.5 -26.5t27.5 -64.5t-27.5 -64.5t-67.5 -26.5zM60 0v504h170v-504h-170z" />
    <glyph glyph-name="j" unicode="j" horiz-adv-x="296" 
d="M148 561q-40 0 -67.5 26.5t-27.5 64.5t27.5 64.5t67.5 26.5t67.5 -26.5t27.5 -64.5t-27.5 -64.5t-67.5 -26.5zM-58 -204l21 104q21 -7 42 -7q58 0 58 74v537h170v-514q0 -98 -46.5 -155.5t-147.5 -57.5q-23 0 -48.5 4.5t-48.5 14.5z" />
    <glyph glyph-name="k" unicode="k" horiz-adv-x="570" 
d="M60 0v700h170v-397l140 201h180l-189 -230q56 -38 100 -89q32 -37 58.5 -83t48.5 -102h-184q-20 70 -55 119q-21 29 -45 54.5t-54 46.5v-220h-170z" />
    <glyph glyph-name="l" unicode="l" horiz-adv-x="290" 
d="M60 0v700h170v-700h-170z" />
    <glyph glyph-name="m" unicode="m" horiz-adv-x="894" 
d="M60 504h152l5 -77q18 41 56.5 65.5t93.5 24.5q53 0 91.5 -24t58.5 -66q18 41 57.5 65.5t97.5 24.5q78 0 123 -49.5t45 -133.5v-334h-170v308q0 40 -15.5 63.5t-46.5 23.5q-29 0 -51 -26.5t-22 -83.5v-285h-170v308q0 40 -15.5 63.5t-46.5 23.5q-29 0 -51 -26.5t-22 -83.5
v-285h-170v504z" />
    <glyph glyph-name="n" unicode="n" horiz-adv-x="601" 
d="M60 0v504h152l5 -77q19 41 59.5 65.5t96.5 24.5q81 0 127.5 -49.5t46.5 -133.5v-334h-170v308q0 40 -17 63.5t-51 23.5q-31 0 -55 -26.5t-24 -83.5v-285h-170z" />
    <glyph glyph-name="o" unicode="o" horiz-adv-x="578" 
d="M289 -13q-81 0 -139.5 35t-90 94.5t-31.5 135.5t31.5 135.5t90 94.5t139.5 35t139.5 -35t90 -94.5t31.5 -135.5t-31.5 -135.5t-90 -94.5t-139.5 -35zM289 97q40 0 62.5 41.5t22.5 113.5t-22.5 113.5t-62.5 41.5t-62.5 -41.5t-22.5 -113.5t22.5 -113.5t62.5 -41.5z" />
    <glyph glyph-name="p" unicode="p" horiz-adv-x="599" 
d="M60 -210v714h152l6 -82q47 95 152 95q62 0 107 -34.5t69.5 -94.5t24.5 -136q0 -78 -26 -138t-72.5 -93.5t-108.5 -33.5q-40 0 -76 18.5t-58 54.5v-270h-170zM312 105q41 0 62 41.5t21 105.5t-21 106t-62 42q-38 0 -61 -36.5t-23 -102.5v-18q0 -65 23 -101.5t61 -36.5z
" />
    <glyph glyph-name="q" unicode="q" horiz-adv-x="599" 
d="M235 517q46 0 86.5 -24.5t59.5 -72.5l6 84h152v-714h-170v270q-49 -73 -140 -73q-61 0 -106.5 34.5t-70 94.5t-24.5 136q0 78 26 138t72.5 93.5t108.5 33.5zM287 399q-41 0 -62 -41.5t-21 -105.5t21 -106t62 -42q37 0 60.5 36.5t23.5 102.5v18q0 65 -23.5 101.5
t-60.5 36.5z" />
    <glyph glyph-name="r" unicode="r" horiz-adv-x="390" 
d="M60 0v504h149l8 -88q13 36 45 66t85 30q10 0 17 -1t13 -2v-157q-6 2 -18 3.5t-23 1.5q-46 0 -76 -28.5t-30 -87.5v-241h-170z" />
    <glyph glyph-name="s" unicode="s" horiz-adv-x="528" 
d="M267 -13q-107 0 -167.5 44.5t-69.5 127.5h165q5 -41 27 -56.5t47 -15.5q29 0 45 12.5t16 31.5q0 17 -13.5 32t-50.5 25l-84 22q-65 17 -101.5 52t-36.5 97q0 53 30 88t81 52.5t115 17.5q94 0 149 -42t69 -121h-164q-4 29 -19 46t-43 17q-26 0 -40 -13.5t-14 -32.5
q0 -18 12 -31.5t44 -21.5l72 -18q86 -22 122 -56.5t36 -93.5q0 -78 -60 -120.5t-167 -42.5z" />
    <glyph glyph-name="t" unicode="t" horiz-adv-x="399" 
d="M260 -13q-92 0 -136.5 51.5t-44.5 130.5v225h-65v110h65v142h170v-142h119v-110h-119v-223q0 -33 15 -49t40 -16q14 0 29 3t29 9l26 -104q-23 -13 -58.5 -20t-69.5 -7z" />
    <glyph glyph-name="u" unicode="u" horiz-adv-x="591" 
d="M531 504v-504h-152l-6 82q-18 -42 -57.5 -68.5t-96.5 -26.5q-74 0 -118.5 49.5t-44.5 133.5v334h170v-308q0 -40 15.5 -63.5t46.5 -23.5q29 0 51 26.5t22 83.5v285h170z" />
    <glyph glyph-name="v" unicode="v" horiz-adv-x="539" 
d="M181 0l-178 504h176l97 -344l95 344h165l-178 -504h-177z" />
    <glyph glyph-name="w" unicode="w" horiz-adv-x="800" 
d="M150 0l-147 504h176l70 -345l85 345h146l89 -346l68 346h160l-147 -504h-172l-78 275l-78 -275h-172z" />
    <glyph glyph-name="x" unicode="x" horiz-adv-x="541" 
d="M2 0l185 258l-175 246h185l79 -137l88 137h171l-177 -245l183 -259h-185l-86 148l-97 -148h-171z" />
    <glyph glyph-name="y" unicode="y" horiz-adv-x="536" 
d="M4 -198l35 104q31 -13 61 -13q23 0 41.5 14t37.5 57l19 44l-195 496h176l96 -318l93 318h165l-214 -547q-36 -92 -84 -136t-116 -44q-35 0 -64 6.5t-51 18.5z" />
    <glyph glyph-name="z" unicode="z" horiz-adv-x="503" 
d="M39 0v80l221 305h-215v119h417v-78l-227 -307h239v-119h-435z" />
    <glyph glyph-name="braceleft" unicode="{" horiz-adv-x="389" 
d="M25 255v110h29q44 0 59.5 20.5t15.5 51.5q0 35 -8.5 66.5t-8.5 73.5q0 68 43 105.5t156 37.5h63v-110h-45q-35 0 -51 -15t-16 -50q0 -24 4.5 -43t9 -38.5t4.5 -46.5q0 -52 -31 -76.5t-69 -30.5q38 -6 69 -30.5t31 -76.5q0 -27 -4.5 -47t-9 -38.5t-4.5 -42.5q0 -35 16 -50
t51 -15h45v-110h-63q-113 0 -156 37.5t-43 105.5q0 42 8.5 73.5t8.5 66.5q0 31 -15.5 51.5t-59.5 20.5h-29z" />
    <glyph glyph-name="bar" unicode="|" horiz-adv-x="281" 
d="M72 -100v820h137v-820h-137z" />
    <glyph glyph-name="braceright" unicode="}" horiz-adv-x="389" 
d="M15 -100v110h45q34 0 50.5 15t16.5 50q0 24 -4.5 42.5t-9 38.5t-4.5 47q0 52 31 76.5t69 30.5q-38 6 -69 30.5t-31 76.5q0 27 4.5 46.5t9 38.5t4.5 43q0 35 -16.5 50t-50.5 15h-45v110h63q112 0 155.5 -37.5t43.5 -105.5q0 -42 -8.5 -73.5t-8.5 -66.5q0 -31 16 -51.5
t59 -20.5h29v-110h-29q-43 0 -59 -20.5t-16 -51.5q0 -35 8.5 -66.5t8.5 -73.5q0 -68 -43.5 -105.5t-155.5 -37.5h-63z" />
    <glyph glyph-name="asciitilde" unicode="~" horiz-adv-x="590" 
d="M273 258q-19 21 -32.5 32t-26.5 11q-18 0 -29.5 -21t-11.5 -75h-117q0 55 17.5 100.5t51 72.5t79.5 27q39 0 68.5 -18.5t48.5 -40.5q19 -21 32.5 -32t26.5 -11q18 0 29.5 21t11.5 75h117q0 -55 -17.5 -100.5t-51 -72.5t-79.5 -27q-39 0 -68.5 18.5t-48.5 40.5z" />
    <glyph glyph-name="uni00A0" unicode="&#xa0;" horiz-adv-x="200" 
 />
    <glyph glyph-name="exclamdown" unicode="&#xa1;" horiz-adv-x="275" 
d="M138 334q-39 0 -65 25t-26 65q0 37 27 63.5t64 26.5q38 0 64 -26.5t26 -63.5q0 -40 -26 -65t-64 -25zM227 -166h-179l30 458h118z" />
    <glyph glyph-name="cent" unicode="&#xa2;" horiz-adv-x="590" 
d="M270 0v72q-62 7 -111 39t-77.5 87t-28.5 132q0 73 28.5 128.5t77.5 88.5t111 41v72h69v-72q76 -8 132.5 -56t67.5 -138h-151q-6 39 -22.5 60t-36.5 27v-303q20 7 37.5 27t24.5 58h150q-15 -89 -72 -136t-130 -55v-72h-69zM219 330q0 -68 17 -104t44 -46v300
q-27 -10 -44 -45.5t-17 -104.5z" />
    <glyph glyph-name="sterling" unicode="&#xa3;" horiz-adv-x="590" 
d="M426 266h-116q1 -11 1 -22q0 -46 -17.5 -74.5t-43.5 -44.5h290v-125h-510v110q35 0 59.5 17t37 42.5t12.5 52.5q0 22 -4 44h-103v110h74q-6 22 -10 46.5t-4 53.5q0 88 64 141t171 53q91 0 153 -49.5t79 -136.5h-176q-8 40 -23 57t-39 17q-23 0 -39.5 -18.5t-16.5 -54.5
q0 -29 6 -56t14 -53h141v-110z" />
    <glyph glyph-name="currency" unicode="&#xa4;" horiz-adv-x="590" 
d="M67 332q0 34 9.5 64.5t25.5 56.5l-69 69l72 72l71 -71q54 31 119 31q64 0 118 -32l72 71l72 -72l-70 -70q16 -26 25 -56t9 -63q0 -34 -9 -64t-25 -56l70 -70l-72 -72l-72 71q-54 -32 -118 -32q-65 0 -119 31l-71 -71l-72 72l69 69q-16 26 -25.5 57t-9.5 65zM197 332
q0 -49 27.5 -81t70.5 -32q41 0 68.5 32t27.5 81q0 48 -27.5 80t-68.5 32q-43 0 -70.5 -32t-27.5 -80z" />
    <glyph glyph-name="yen" unicode="&#xa5;" horiz-adv-x="590" 
d="M212 0v117h-134v80h134v49h-134v80h103l-166 328h173l111 -263l109 263h167l-166 -328h103v-80h-134v-49h134v-80h-134v-117h-166z" />
    <glyph glyph-name="section" unicode="&#xa7;" horiz-adv-x="524" 
d="M446 376v-118l-217 63q-79 23 -122 50t-60 62.5t-17 81.5q0 79 60 125t166 46t167 -44t70 -126h-159q-4 41 -29 56.5t-51 15.5q-33 0 -50 -17.5t-17 -47.5q0 -29 14.5 -50t55.5 -35zM77 201v118l217 -63q78 -23 121.5 -50.5t60.5 -62.5t17 -81q0 -80 -60 -125.5
t-166 -45.5q-107 0 -167.5 44t-69.5 126h159q4 -41 29.5 -56.5t50.5 -15.5q33 0 50 17.5t17 46.5t-15 51t-55 35z" />
    <glyph glyph-name="dieresis" unicode="&#xa8;" horiz-adv-x="500" 
d="M350 561q-33 0 -56.5 23t-23.5 57q0 32 23.5 55t56.5 23q32 0 56 -23t24 -55q0 -34 -24 -57t-56 -23zM150 561q-33 0 -56.5 23t-23.5 57q0 32 23.5 55t56.5 23q32 0 56 -23t24 -55q0 -34 -24 -57t-56 -23z" />
    <glyph glyph-name="copyright" unicode="&#xa9;" horiz-adv-x="833" 
d="M417 0q-97 0 -173 43t-119 119t-43 173t43 173t119 119t173 43t173 -43t119 -119t43 -173t-43 -173t-119 -119t-173 -43zM417 75q75 0 131 32.5t87.5 91.5t31.5 136t-31.5 136t-87.5 91.5t-131 32.5t-131 -32.5t-87.5 -91.5t-31.5 -136t31.5 -136t87.5 -91.5t131 -32.5z
M425 142q-53 0 -95 23t-66 66.5t-24 103.5q0 59 25 102.5t67 67.5t93 24q62 0 110.5 -36t59.5 -111h-128q-4 33 -15 47t-27 14q-19 0 -35 -25t-16 -83q0 -57 16 -82t35 -25q17 0 28 13t16 44h127q-14 -75 -62.5 -109t-108.5 -34z" />
    <glyph glyph-name="ordfeminine" unicode="&#xaa;" horiz-adv-x="437" 
d="M137 278q-54 0 -85.5 27.5t-31.5 72.5q0 39 21 65.5t55 42t73.5 22.5t77.5 8v8q0 28 -9.5 45t-31.5 17q-19 0 -29 -12t-14 -31h-126q10 60 56 93.5t120 33.5q91 0 132.5 -42.5t41.5 -127.5v-215h-119l-10 54q-18 -29 -50 -45t-71 -16zM192 363q24 0 39.5 17.5t15.5 45.5
v33q-46 -2 -66.5 -19.5t-20.5 -41.5q0 -16 9 -25.5t23 -9.5z" />
    <glyph glyph-name="guillemotleft" unicode="&#xab;" horiz-adv-x="623" 
d="M168 52l-138 201l138 201h159l-131 -199l134 -203h-162zM448 52l-138 201l138 201h159l-131 -199l134 -203h-162z" />
    <glyph glyph-name="logicalnot" unicode="&#xac;" horiz-adv-x="590" 
d="M395 181v137h-318v116h436v-253h-118z" />
    <glyph glyph-name="uni00AD" unicode="&#xad;" horiz-adv-x="374" 
d="M25 182v130h324v-130h-324z" />
    <glyph glyph-name="registered" unicode="&#xae;" horiz-adv-x="550" 
d="M275 188q-73 0 -128 31t-86 86t-31 129t31 129t86 86t128 31t128 -31t86 -86t31 -129t-31 -129t-86 -86t-128 -31zM275 249q80 0 127 49.5t47 135.5q0 87 -47 136.5t-127 49.5q-83 0 -128.5 -49.5t-45.5 -136.5q0 -86 45.5 -135.5t128.5 -49.5zM177 314v247h105
q98 0 98 -75q0 -24 -16 -39t-41 -21q28 -12 45 -41.5t24 -70.5h-72q-8 43 -24.5 67.5t-47.5 24.5h-2v-92h-69zM270 516h-24v-64h24q22 0 31.5 9t9.5 22q0 14 -9.5 23.5t-31.5 9.5z" />
    <glyph glyph-name="macron" unicode="&#xaf;" horiz-adv-x="500" 
d="M87 589v106h326v-106h-326z" />
    <glyph glyph-name="degree" unicode="&#xb0;" horiz-adv-x="319" 
d="M159 424q-63 0 -104 38t-41 100t41 100t104 38t104 -38t41 -100t-41 -100t-104 -38zM159 496q25 0 41.5 17.5t16.5 48.5t-16.5 48.5t-41.5 17.5t-41.5 -17.5t-16.5 -48.5t16.5 -48.5t41.5 -17.5z" />
    <glyph glyph-name="uni00B2" unicode="&#xb2;" horiz-adv-x="373" 
d="M29 378v14q0 51 23.5 89t75.5 75l45 32q25 18 36 32t11 33q0 45 -35 45q-19 0 -29.5 -16t-12.5 -51h-115q4 71 48 110t117 39q67 0 108.5 -33.5t41.5 -88.5q0 -37 -18 -67.5t-59 -57.5l-53 -35q-30 -19 -37 -31h170v-89h-317z" />
    <glyph glyph-name="uni00B3" unicode="&#xb3;" horiz-adv-x="367" 
d="M186 368q-76 0 -120 35t-51 103h113q4 -57 52 -57q47 0 47 46q0 29 -18.5 42.5t-58.5 13.5h-11v70h11q38 0 53.5 9.5t15.5 30.5q0 40 -39 40q-32 0 -37 -39h-113q9 58 49.5 88t107.5 30t108.5 -30.5t41.5 -80.5q0 -60 -67 -85q79 -26 79 -94q0 -56 -44 -89t-119 -33z" />
    <glyph glyph-name="acute" unicode="&#xb4;" horiz-adv-x="500" 
d="M149 625l150 156l88 -105l-179 -120z" />
    <glyph glyph-name="paragraph" unicode="&#xb6;" horiz-adv-x="624" 
d="M270 -105v321h-12q-118 0 -177.5 63t-59.5 164q0 103 59.5 165t177.5 62h286v-775h-98v677h-78v-677h-98z" />
    <glyph glyph-name="periodcentered" unicode="&#xb7;" horiz-adv-x="220" 
d="M109 158q-38 0 -64 26.5t-26 63.5q0 40 26 65t64 25q39 0 65 -25t26 -65q0 -37 -27 -63.5t-64 -26.5z" />
    <glyph glyph-name="cedilla" unicode="&#xb8;" horiz-adv-x="500" 
d="M180 0h70l-9 -59q10 3 23 3q45 0 73.5 -27t28.5 -71q0 -55 -37 -86.5t-106 -31.5q-40 0 -79 11l7 74q35 -9 64 -9q54 0 54 40q0 17 -10.5 28t-27.5 11q-20 0 -38 -11h-28z" />
    <glyph glyph-name="uni00B9" unicode="&#xb9;" horiz-adv-x="290" 
d="M17 622v95q35 6 65.5 18t55.5 35h91v-392h-121v264q-47 -16 -91 -20z" />
    <glyph glyph-name="ordmasculine" unicode="&#xba;" horiz-adv-x="444" 
d="M221 278q-61 0 -106 26.5t-69.5 71t-24.5 97.5q0 55 24.5 99.5t69.5 71t106 26.5q62 0 107 -26.5t69.5 -71t24.5 -99.5q0 -53 -24.5 -97.5t-69.5 -71t-107 -26.5zM221 367q27 0 41.5 27.5t14.5 78.5q0 108 -56 108q-25 0 -39.5 -27.5t-14.5 -80.5q0 -51 14.5 -78.5
t39.5 -27.5z" />
    <glyph glyph-name="guillemotright" unicode="&#xbb;" horiz-adv-x="623" 
d="M175 454l138 -201l-138 -201h-159l131 199l-134 203h162zM455 454l138 -201l-138 -201h-159l131 199l-134 203h162z" />
    <glyph glyph-name="onequarter" unicode="&#xbc;" horiz-adv-x="812" 
d="M177 0l318 660h138l-318 -660h-138zM465 72v75l189 245h101v-236h44v-84h-44v-72h-111v72h-179zM564 156h80v106zM17 512v95q35 6 65.5 18t55.5 35h91v-392h-121v264q-47 -16 -91 -20z" />
    <glyph glyph-name="onehalf" unicode="&#xbd;" horiz-adv-x="872" 
d="M177 0l318 660h138l-318 -660h-138zM528 0v14q0 51 23.5 89t75.5 75l45 32q25 18 36 32t11 33q0 45 -35 45q-19 0 -29.5 -16t-12.5 -51h-115q4 71 48 110t117 39q67 0 108.5 -33.5t41.5 -88.5q0 -37 -18 -67.5t-59 -57.5l-53 -35q-30 -19 -37 -31h170v-89h-317zM17 512
v95q35 6 65.5 18t55.5 35h91v-392h-121v264q-47 -16 -91 -20z" />
    <glyph glyph-name="threequarters" unicode="&#xbe;" horiz-adv-x="870" 
d="M235 0l318 660h138l-318 -660h-138zM523 72v75l189 245h101v-236h44v-84h-44v-72h-111v72h-179zM622 156h80v106zM186 258q-76 0 -120 35t-51 103h113q4 -57 52 -57q47 0 47 46q0 29 -18.5 42.5t-58.5 13.5h-11v70h11q38 0 53.5 9.5t15.5 30.5q0 40 -39 40q-32 0 -37 -39
h-113q9 58 49.5 88t107.5 30t108.5 -30.5t41.5 -80.5q0 -60 -67 -85q79 -26 79 -94q0 -56 -44 -89t-119 -33z" />
    <glyph glyph-name="questiondown" unicode="&#xbf;" horiz-adv-x="475" 
d="M266 334q-39 0 -65 25t-26 65q0 37 27 63.5t64 26.5q38 0 64 -26.5t26 -63.5q0 -40 -26 -65t-64 -25zM318 27h164q-5 -96 -67.5 -152.5t-173.5 -56.5q-71 0 -124.5 22.5t-83.5 64t-30 98.5q0 59 27 95.5t74 70.5l45 33q25 18 32.5 37t7.5 43v10h153v-30q0 -45 -17 -74.5
t-60 -63.5l-38 -30q-28 -22 -37.5 -40t-9.5 -48q0 -28 16.5 -48t47.5 -20q32 0 51.5 21.5t22.5 67.5z" />
    <glyph glyph-name="Agrave" unicode="&#xc0;" horiz-adv-x="666" 
d="M480 0l-39 124h-222l-39 -124h-173l240 670h173l239 -670h-179zM258 251h143l-71 229zM231 940l225 -145l-42 -83l-252 97z" />
    <glyph glyph-name="Aacute" unicode="&#xc1;" horiz-adv-x="666" 
d="M480 0l-39 124h-222l-39 -124h-173l240 670h173l239 -670h-179zM258 251h143l-71 229zM210 795l225 145l69 -131l-252 -97z" />
    <glyph glyph-name="Acircumflex" unicode="&#xc2;" horiz-adv-x="666" 
d="M480 0l-39 124h-222l-39 -124h-173l240 670h173l239 -670h-179zM258 251h143l-71 229zM369 915l162 -125l-53 -80l-145 90l-145 -90l-53 80l162 125h72z" />
    <glyph glyph-name="Atilde" unicode="&#xc3;" horiz-adv-x="666" 
d="M480 0l-39 124h-222l-39 -124h-173l240 670h173l239 -670h-179zM258 251h143l-71 229zM310 777q-15 11 -26 17t-21 6q-12 0 -21.5 -13.5t-16.5 -47.5h-99q5 47 22 85.5t44 61.5t61 23q29 0 53 -12t50 -32q15 -11 26 -17t21 -6q12 0 21.5 13.5t16.5 47.5h99
q-5 -47 -22 -85.5t-44 -61.5t-61 -23q-29 0 -53 12t-50 32z" />
    <glyph glyph-name="Adieresis" unicode="&#xc4;" horiz-adv-x="666" 
d="M480 0l-39 124h-222l-39 -124h-173l240 670h173l239 -670h-179zM258 251h143l-71 229zM448 736q-35 0 -59 24t-24 60t24 60t59 24t59 -24t24 -60t-24 -60t-59 -24zM218 736q-35 0 -59 24t-24 60t24 60t59 24t59 -24t24 -60t-24 -60t-59 -24z" />
    <glyph glyph-name="Aring" unicode="&#xc5;" horiz-adv-x="666" 
d="M480 0l-39 124h-222l-39 -124h-173l240 670h173l239 -670h-179zM258 251h143l-71 229zM333 718q-55 0 -90 34.5t-35 87.5q0 56 35 89t90 33q56 0 91.5 -33t35.5 -89q0 -53 -35.5 -87.5t-91.5 -34.5zM333 788q21 0 35 14.5t14 37.5q0 22 -13.5 37t-35.5 15t-35.5 -15
t-13.5 -37q0 -23 13.5 -37.5t35.5 -14.5z" />
    <glyph glyph-name="AE" unicode="&#xc6;" horiz-adv-x="970" 
d="M7 0l391 670h523v-131h-276v-139h245v-125h-245v-144h280v-131h-458v122h-221l-66 -122h-173zM316 253h151v281z" />
    <glyph glyph-name="Ccedilla" unicode="&#xc7;" horiz-adv-x="692" 
d="M360 -16q-105 0 -177.5 44.5t-109.5 123.5t-37 183q0 103 37 182t109.5 124t177.5 45q128 0 206.5 -70t99.5 -189h-187q-11 61 -42 95.5t-77 34.5q-67 0 -102.5 -59t-35.5 -163t35.5 -163t102.5 -59q45 0 75.5 32.5t41.5 91.5h187q-12 -76 -51.5 -133t-103.5 -88.5
t-149 -31.5zM309 0h76l-6 -58q7 2 18 2q46 0 75.5 -27.5t29.5 -73.5q0 -56 -37.5 -88.5t-105.5 -32.5q-18 0 -42 3t-43 10l7 79q19 -6 37.5 -8t32.5 -2q48 0 48 37q0 16 -9.5 26t-25.5 10q-20 0 -37 -11h-32z" />
    <glyph glyph-name="Egrave" unicode="&#xc8;" horiz-adv-x="577" 
d="M74 0v670h454v-131h-276v-139h245v-125h-245v-144h280v-131h-458zM199 940l225 -145l-42 -83l-252 97z" />
    <glyph glyph-name="Eacute" unicode="&#xc9;" horiz-adv-x="577" 
d="M74 0v670h454v-131h-276v-139h245v-125h-245v-144h280v-131h-458zM178 795l225 145l69 -131l-252 -97z" />
    <glyph glyph-name="Ecircumflex" unicode="&#xca;" horiz-adv-x="577" 
d="M74 0v670h454v-131h-276v-139h245v-125h-245v-144h280v-131h-458zM337 915l162 -125l-53 -80l-145 90l-145 -90l-53 80l162 125h72z" />
    <glyph glyph-name="Edieresis" unicode="&#xcb;" horiz-adv-x="577" 
d="M74 0v670h454v-131h-276v-139h245v-125h-245v-144h280v-131h-458zM416 736q-35 0 -59 24t-24 60t24 60t59 24t59 -24t24 -60t-24 -60t-59 -24zM186 736q-35 0 -59 24t-24 60t24 60t59 24t59 -24t24 -60t-24 -60t-59 -24z" />
    <glyph glyph-name="Igrave" unicode="&#xcc;" horiz-adv-x="326" 
d="M74 0v670h178v-670h-178zM61 940l225 -145l-42 -83l-252 97z" />
    <glyph glyph-name="Iacute" unicode="&#xcd;" horiz-adv-x="326" 
d="M74 0v670h178v-670h-178zM40 795l225 145l69 -131l-252 -97z" />
    <glyph glyph-name="Icircumflex" unicode="&#xce;" horiz-adv-x="326" 
d="M74 0v670h178v-670h-178zM199 915l162 -125l-53 -80l-145 90l-145 -90l-53 80l162 125h72z" />
    <glyph glyph-name="Idieresis" unicode="&#xcf;" horiz-adv-x="326" 
d="M74 0v670h178v-670h-178zM278 736q-35 0 -59 24t-24 60t24 60t59 24t59 -24t24 -60t-24 -60t-59 -24zM48 736q-35 0 -59 24t-24 60t24 60t59 24t59 -24t24 -60t-24 -60t-59 -24z" />
    <glyph glyph-name="Eth" unicode="&#xd0;" horiz-adv-x="732" 
d="M94 0v282h-80v115h80v273h235q119 0 201 -44t124 -119.5t42 -171.5q0 -97 -42 -172.5t-124 -119t-201 -43.5h-235zM408 282h-146v-157h67q93 0 137 55t44 155q0 101 -44 156t-137 55h-67v-149h146v-115z" />
    <glyph glyph-name="Ntilde" unicode="&#xd1;" horiz-adv-x="725" 
d="M74 0v670h167l237 -408v408h173v-670h-164l-240 415v-415h-173zM339 777q-15 11 -26 17t-21 6q-12 0 -21.5 -13.5t-16.5 -47.5h-99q5 47 22 85.5t44 61.5t61 23q29 0 53 -12t50 -32q15 -11 26 -17t21 -6q12 0 21.5 13.5t16.5 47.5h99q-5 -47 -22 -85.5t-44 -61.5t-61 -23
q-29 0 -53 12t-50 32z" />
    <glyph glyph-name="Ograve" unicode="&#xd2;" horiz-adv-x="735" 
d="M367 -16q-106 0 -180 44.5t-112.5 124t-38.5 182.5q0 102 38.5 181.5t112.5 124.5t180 45q107 0 181 -45t112.5 -124.5t38.5 -181.5q0 -103 -38.5 -182t-112.5 -124t-181 -45zM367 113q71 0 108.5 60t37.5 162t-37.5 162t-108.5 60t-108 -60t-37 -162t37 -162t108 -60z
M265 940l225 -145l-42 -83l-252 97z" />
    <glyph glyph-name="Oacute" unicode="&#xd3;" horiz-adv-x="735" 
d="M367 -16q-106 0 -180 44.5t-112.5 124t-38.5 182.5q0 102 38.5 181.5t112.5 124.5t180 45q107 0 181 -45t112.5 -124.5t38.5 -181.5q0 -103 -38.5 -182t-112.5 -124t-181 -45zM367 113q71 0 108.5 60t37.5 162t-37.5 162t-108.5 60t-108 -60t-37 -162t37 -162t108 -60z
M244 795l225 145l69 -131l-252 -97z" />
    <glyph glyph-name="Ocircumflex" unicode="&#xd4;" horiz-adv-x="735" 
d="M367 -16q-106 0 -180 44.5t-112.5 124t-38.5 182.5q0 102 38.5 181.5t112.5 124.5t180 45q107 0 181 -45t112.5 -124.5t38.5 -181.5q0 -103 -38.5 -182t-112.5 -124t-181 -45zM367 113q71 0 108.5 60t37.5 162t-37.5 162t-108.5 60t-108 -60t-37 -162t37 -162t108 -60z
M403 915l162 -125l-53 -80l-145 90l-145 -90l-53 80l162 125h72z" />
    <glyph glyph-name="Otilde" unicode="&#xd5;" horiz-adv-x="735" 
d="M367 -16q-106 0 -180 44.5t-112.5 124t-38.5 182.5q0 102 38.5 181.5t112.5 124.5t180 45q107 0 181 -45t112.5 -124.5t38.5 -181.5q0 -103 -38.5 -182t-112.5 -124t-181 -45zM367 113q71 0 108.5 60t37.5 162t-37.5 162t-108.5 60t-108 -60t-37 -162t37 -162t108 -60z
M344 777q-15 11 -26 17t-21 6q-12 0 -21.5 -13.5t-16.5 -47.5h-99q5 47 22 85.5t44 61.5t61 23q29 0 53 -12t50 -32q15 -11 26 -17t21 -6q12 0 21.5 13.5t16.5 47.5h99q-5 -47 -22 -85.5t-44 -61.5t-61 -23q-29 0 -53 12t-50 32z" />
    <glyph glyph-name="Odieresis" unicode="&#xd6;" horiz-adv-x="735" 
d="M367 -16q-106 0 -180 44.5t-112.5 124t-38.5 182.5q0 102 38.5 181.5t112.5 124.5t180 45q107 0 181 -45t112.5 -124.5t38.5 -181.5q0 -103 -38.5 -182t-112.5 -124t-181 -45zM367 113q71 0 108.5 60t37.5 162t-37.5 162t-108.5 60t-108 -60t-37 -162t37 -162t108 -60z
M482 736q-35 0 -59 24t-24 60t24 60t59 24t59 -24t24 -60t-24 -60t-59 -24zM252 736q-35 0 -59 24t-24 60t24 60t59 24t59 -24t24 -60t-24 -60t-59 -24z" />
    <glyph glyph-name="multiply" unicode="&#xd7;" horiz-adv-x="590" 
d="M159 115l-79 79l136 136l-136 136l79 79l136 -136l136 136l79 -79l-136 -136l136 -136l-79 -79l-136 136z" />
    <glyph glyph-name="Oslash" unicode="&#xd8;" horiz-adv-x="735" 
d="M74 8l49 73q-87 94 -87 254q0 102 38.5 181.5t112.5 124.5t180 45q81 0 146 -28l48 71l99 -67l-49 -73q43 -47 65.5 -112t22.5 -142q0 -103 -38.5 -182t-112.5 -124t-181 -45q-81 0 -146 28l-48 -71zM222 335q0 -58 12 -103l204 304q-30 21 -71 21q-71 0 -108 -60
t-37 -162zM367 113q71 0 108.5 60t37.5 162q0 59 -12 104l-205 -305q30 -21 71 -21z" />
    <glyph glyph-name="Ugrave" unicode="&#xd9;" horiz-adv-x="704" 
d="M351 -16q-139 0 -214 78t-75 212v396h178v-411q0 -65 28.5 -105.5t82.5 -40.5q55 0 84 40.5t29 105.5v411h178v-396q0 -134 -76 -212t-215 -78zM250 940l225 -145l-42 -83l-252 97z" />
    <glyph glyph-name="Uacute" unicode="&#xda;" horiz-adv-x="704" 
d="M351 -16q-139 0 -214 78t-75 212v396h178v-411q0 -65 28.5 -105.5t82.5 -40.5q55 0 84 40.5t29 105.5v411h178v-396q0 -134 -76 -212t-215 -78zM229 795l225 145l69 -131l-252 -97z" />
    <glyph glyph-name="Ucircumflex" unicode="&#xdb;" horiz-adv-x="704" 
d="M351 -16q-139 0 -214 78t-75 212v396h178v-411q0 -65 28.5 -105.5t82.5 -40.5q55 0 84 40.5t29 105.5v411h178v-396q0 -134 -76 -212t-215 -78zM388 915l162 -125l-53 -80l-145 90l-145 -90l-53 80l162 125h72z" />
    <glyph glyph-name="Udieresis" unicode="&#xdc;" horiz-adv-x="704" 
d="M351 -16q-139 0 -214 78t-75 212v396h178v-411q0 -65 28.5 -105.5t82.5 -40.5q55 0 84 40.5t29 105.5v411h178v-396q0 -134 -76 -212t-215 -78zM467 736q-35 0 -59 24t-24 60t24 60t59 24t59 -24t24 -60t-24 -60t-59 -24zM237 736q-35 0 -59 24t-24 60t24 60t59 24
t59 -24t24 -60t-24 -60t-59 -24z" />
    <glyph glyph-name="Yacute" unicode="&#xdd;" horiz-adv-x="634" 
d="M188 670l132 -274l135 274h178l-227 -400v-270h-178v268l-227 402h187zM197 795l225 145l69 -131l-252 -97z" />
    <glyph glyph-name="Thorn" unicode="&#xde;" horiz-adv-x="624" 
d="M74 670h178v-107h82q129 0 198 -58.5t69 -152.5q0 -104 -70.5 -164.5t-216.5 -60.5h-62v-127h-178v670zM308 447h-56v-204h56q113 0 113 102t-113 102z" />
    <glyph glyph-name="germandbls" unicode="&#xdf;" horiz-adv-x="616" 
d="M331 103q37 0 61 27.5t24 80.5q0 47 -27 76t-81 29h-23v109h22q30 0 48.5 23.5t18.5 64.5q0 85 -70 85q-34 0 -54 -25.5t-20 -77.5v-495h-170v448q0 130 64.5 197.5t186.5 67.5q70 0 122.5 -24.5t81.5 -67.5t29 -100q0 -48 -19.5 -86.5t-71.5 -59.5q55 -15 85 -44
t41.5 -64.5t11.5 -72.5q0 -99 -62.5 -153t-165.5 -54q-23 0 -48.5 4.5t-48.5 14.5l21 104q21 -7 44 -7z" />
    <glyph glyph-name="agrave" unicode="&#xe0;" horiz-adv-x="554" 
d="M184 -13q-70 0 -114.5 37t-44.5 105q0 54 28.5 89t75 55t101 28.5t105.5 9.5v11q0 43 -16.5 66.5t-47.5 23.5q-26 0 -44 -16.5t-23 -47.5h-160q13 80 74 124.5t159 44.5q114 0 168.5 -56.5t54.5 -169.5v-291h-152l-4 66q-26 -37 -69.5 -58t-90.5 -21zM251 92
q35 0 59.5 27.5t24.5 79.5v39q-75 -2 -107.5 -26.5t-32.5 -60.5q0 -30 15.5 -44.5t40.5 -14.5zM230 781l150 -156l-59 -69l-179 120z" />
    <glyph glyph-name="aacute" unicode="&#xe1;" horiz-adv-x="554" 
d="M184 -13q-70 0 -114.5 37t-44.5 105q0 54 28.5 89t75 55t101 28.5t105.5 9.5v11q0 43 -16.5 66.5t-47.5 23.5q-26 0 -44 -16.5t-23 -47.5h-160q13 80 74 124.5t159 44.5q114 0 168.5 -56.5t54.5 -169.5v-291h-152l-4 66q-26 -37 -69.5 -58t-90.5 -21zM251 92
q35 0 59.5 27.5t24.5 79.5v39q-75 -2 -107.5 -26.5t-32.5 -60.5q0 -30 15.5 -44.5t40.5 -14.5zM180 625l150 156l88 -105l-179 -120z" />
    <glyph glyph-name="acircumflex" unicode="&#xe2;" horiz-adv-x="554" 
d="M184 -13q-70 0 -114.5 37t-44.5 105q0 54 28.5 89t75 55t101 28.5t105.5 9.5v11q0 43 -16.5 66.5t-47.5 23.5q-26 0 -44 -16.5t-23 -47.5h-160q13 80 74 124.5t159 44.5q114 0 168.5 -56.5t54.5 -169.5v-291h-152l-4 66q-26 -37 -69.5 -58t-90.5 -21zM251 92
q35 0 59.5 27.5t24.5 79.5v39q-75 -2 -107.5 -26.5t-32.5 -60.5q0 -30 15.5 -44.5t40.5 -14.5zM321 770l137 -146l-57 -67l-121 100l-121 -100l-57 67l137 146h82z" />
    <glyph glyph-name="atilde" unicode="&#xe3;" horiz-adv-x="554" 
d="M184 -13q-70 0 -114.5 37t-44.5 105q0 54 28.5 89t75 55t101 28.5t105.5 9.5v11q0 43 -16.5 66.5t-47.5 23.5q-26 0 -44 -16.5t-23 -47.5h-160q13 80 74 124.5t159 44.5q114 0 168.5 -56.5t54.5 -169.5v-291h-152l-4 66q-26 -37 -69.5 -58t-90.5 -21zM251 92
q35 0 59.5 27.5t24.5 79.5v39q-75 -2 -107.5 -26.5t-32.5 -60.5q0 -30 15.5 -44.5t40.5 -14.5zM260 611q-17 13 -26 18t-17 5q-22 0 -32 -57h-93q4 67 35 113.5t83 46.5q27 0 48.5 -12t41.5 -28q17 -13 26 -18t17 -5q22 0 32 57h93q-4 -67 -35 -113.5t-83 -46.5
q-27 0 -48.5 12t-41.5 28z" />
    <glyph glyph-name="adieresis" unicode="&#xe4;" horiz-adv-x="554" 
d="M184 -13q-70 0 -114.5 37t-44.5 105q0 54 28.5 89t75 55t101 28.5t105.5 9.5v11q0 43 -16.5 66.5t-47.5 23.5q-26 0 -44 -16.5t-23 -47.5h-160q13 80 74 124.5t159 44.5q114 0 168.5 -56.5t54.5 -169.5v-291h-152l-4 66q-26 -37 -69.5 -58t-90.5 -21zM251 92
q35 0 59.5 27.5t24.5 79.5v39q-75 -2 -107.5 -26.5t-32.5 -60.5q0 -30 15.5 -44.5t40.5 -14.5zM380 561q-33 0 -56.5 23t-23.5 57q0 32 23.5 55t56.5 23q32 0 56 -23t24 -55q0 -34 -24 -57t-56 -23zM180 561q-33 0 -56.5 23t-23.5 57q0 32 23.5 55t56.5 23q32 0 56 -23
t24 -55q0 -34 -24 -57t-56 -23z" />
    <glyph glyph-name="aring" unicode="&#xe5;" horiz-adv-x="554" 
d="M184 -13q-70 0 -114.5 37t-44.5 105q0 54 28.5 89t75 55t101 28.5t105.5 9.5v11q0 43 -16.5 66.5t-47.5 23.5q-26 0 -44 -16.5t-23 -47.5h-160q13 80 74 124.5t159 44.5q114 0 168.5 -56.5t54.5 -169.5v-291h-152l-4 66q-26 -37 -69.5 -58t-90.5 -21zM251 92
q35 0 59.5 27.5t24.5 79.5v39q-75 -2 -107.5 -26.5t-32.5 -60.5q0 -30 15.5 -44.5t40.5 -14.5zM280 551q-54 0 -88.5 33.5t-34.5 86.5q0 55 34.5 87.5t88.5 32.5q56 0 90.5 -32.5t34.5 -87.5q0 -53 -35 -86.5t-90 -33.5zM280 617q22 0 36.5 15t14.5 39q0 23 -14.5 38.5
t-36.5 15.5t-36.5 -15.5t-14.5 -38.5q0 -24 14.5 -39t36.5 -15z" />
    <glyph glyph-name="ae" unicode="&#xe6;" horiz-adv-x="840" 
d="M808 157q-20 -85 -84 -127.5t-149 -42.5q-63 0 -110.5 24.5t-74.5 71.5q-25 -44 -78.5 -70t-116.5 -26q-75 0 -122.5 37t-47.5 105q0 54 29 89t75.5 55t100.5 28.5t105 10.5v10q0 43 -16.5 66.5t-47.5 23.5q-26 0 -44 -16.5t-23 -47.5h-160q13 80 73.5 124.5t157.5 44.5
q46 0 81.5 -16t61.5 -49q28 31 66.5 48t86.5 17q75 0 129.5 -33.5t84 -93.5t29.5 -140v-33h-331q5 -68 29.5 -96.5t58.5 -28.5q32 0 50 17t25 48h162zM566 412q-34 0 -56.5 -29.5t-26.5 -84.5h163q-4 54 -24 84t-56 30zM251 92q35 0 59.5 27t24.5 77v42q-75 -2 -107.5 -26.5
t-32.5 -60.5q0 -30 15.5 -44.5t40.5 -14.5z" />
    <glyph glyph-name="ccedilla" unicode="&#xe7;" horiz-adv-x="543" 
d="M284 -13q-72 0 -130 30t-92 89.5t-34 145.5q0 83 34 142.5t92 91t130 31.5q58 0 108.5 -21.5t84 -64.5t41.5 -108h-168q-8 45 -25 64.5t-41 19.5q-32 0 -56 -35t-24 -120q0 -84 24 -119.5t56 -35.5q26 0 43.5 20t25.5 71h167q-11 -70 -46 -114.5t-84.5 -65.5t-105.5 -21z
M236 0h70l-9 -59q10 3 23 3q45 0 73.5 -27t28.5 -71q0 -55 -37 -86.5t-106 -31.5q-40 0 -79 11l7 74q35 -9 64 -9q54 0 54 40q0 17 -10.5 28t-27.5 11q-20 0 -38 -11h-28z" />
    <glyph glyph-name="egrave" unicode="&#xe8;" horiz-adv-x="553" 
d="M283 -13q-71 0 -129 29t-92 87.5t-34 148.5q0 81 31.5 140.5t88 92t131.5 32.5q79 0 134.5 -33.5t84.5 -93.5t29 -140v-33h-331q6 -68 29.5 -96.5t58.5 -28.5q32 0 50 17t25 48h162q-20 -85 -84.5 -127.5t-153.5 -42.5zM279 412q-34 0 -56.5 -29.5t-26.5 -84.5h163
q-4 54 -24 84t-56 30zM229 781l150 -156l-59 -69l-179 120z" />
    <glyph glyph-name="eacute" unicode="&#xe9;" horiz-adv-x="553" 
d="M283 -13q-71 0 -129 29t-92 87.5t-34 148.5q0 81 31.5 140.5t88 92t131.5 32.5q79 0 134.5 -33.5t84.5 -93.5t29 -140v-33h-331q6 -68 29.5 -96.5t58.5 -28.5q32 0 50 17t25 48h162q-20 -85 -84.5 -127.5t-153.5 -42.5zM279 412q-34 0 -56.5 -29.5t-26.5 -84.5h163
q-4 54 -24 84t-56 30zM179 625l150 156l88 -105l-179 -120z" />
    <glyph glyph-name="ecircumflex" unicode="&#xea;" horiz-adv-x="553" 
d="M283 -13q-71 0 -129 29t-92 87.5t-34 148.5q0 81 31.5 140.5t88 92t131.5 32.5q79 0 134.5 -33.5t84.5 -93.5t29 -140v-33h-331q6 -68 29.5 -96.5t58.5 -28.5q32 0 50 17t25 48h162q-20 -85 -84.5 -127.5t-153.5 -42.5zM279 412q-34 0 -56.5 -29.5t-26.5 -84.5h163
q-4 54 -24 84t-56 30zM320 770l137 -146l-57 -67l-121 100l-121 -100l-57 67l137 146h82z" />
    <glyph glyph-name="edieresis" unicode="&#xeb;" horiz-adv-x="553" 
d="M283 -13q-71 0 -129 29t-92 87.5t-34 148.5q0 81 31.5 140.5t88 92t131.5 32.5q79 0 134.5 -33.5t84.5 -93.5t29 -140v-33h-331q6 -68 29.5 -96.5t58.5 -28.5q32 0 50 17t25 48h162q-20 -85 -84.5 -127.5t-153.5 -42.5zM279 412q-34 0 -56.5 -29.5t-26.5 -84.5h163
q-4 54 -24 84t-56 30zM379 561q-33 0 -56.5 23t-23.5 57q0 32 23.5 55t56.5 23q32 0 56 -23t24 -55q0 -34 -24 -57t-56 -23zM179 561q-33 0 -56.5 23t-23.5 57q0 32 23.5 55t56.5 23q32 0 56 -23t24 -55q0 -34 -24 -57t-56 -23z" />
    <glyph glyph-name="igrave" unicode="&#xec;" horiz-adv-x="290" 
d="M60 0v504h170v-504h-170zM119 781l114 -166l-72 -59l-146 133z" />
    <glyph glyph-name="iacute" unicode="&#xed;" horiz-adv-x="290" 
d="M60 0v504h170v-504h-170zM57 615l114 166l104 -92l-146 -133z" />
    <glyph glyph-name="icircumflex" unicode="&#xee;" horiz-adv-x="290" 
d="M60 0v504h170v-504h-170zM186 755l122 -151l-62 -62l-101 98l-101 -98l-62 62l122 151h82z" />
    <glyph glyph-name="idieresis" unicode="&#xef;" horiz-adv-x="290" 
d="M60 0v504h170v-504h-170zM56 561q-33 0 -56.5 23t-23.5 57q0 32 23.5 55t56.5 23q32 0 56 -23t24 -55q0 -34 -24 -57t-56 -23zM234 561q-33 0 -56.5 23t-23.5 57q0 32 23.5 55t56.5 23q32 0 56 -23t24 -55q0 -34 -24 -57t-56 -23z" />
    <glyph glyph-name="eth" unicode="&#xf0;" horiz-adv-x="570" 
d="M285 -13q-79 0 -136.5 33t-89 91.5t-31.5 134.5q0 70 27 125.5t73 87.5t103 32q40 0 75.5 -18t57.5 -53q-4 40 -25.5 76t-59.5 63l-69 -55l-49 62l38 30q-32 10 -68 13l27 118q90 -6 160 -35l86 68l48 -63l-60 -47q77 -57 113.5 -149t36.5 -207q0 -94 -32 -163
t-90 -106.5t-135 -37.5zM285 97q40 0 60.5 37t20.5 101t-20.5 101t-60.5 37t-60.5 -37t-20.5 -101t20.5 -101t60.5 -37z" />
    <glyph glyph-name="ntilde" unicode="&#xf1;" horiz-adv-x="601" 
d="M60 0v504h152l5 -77q19 41 59.5 65.5t96.5 24.5q81 0 127.5 -49.5t46.5 -133.5v-334h-170v308q0 40 -17 63.5t-51 23.5q-31 0 -55 -26.5t-24 -83.5v-285h-170zM283 611q-17 13 -26 18t-17 5q-22 0 -32 -57h-93q4 67 35 113.5t83 46.5q27 0 48.5 -12t41.5 -28
q17 -13 26 -18t17 -5q22 0 32 57h93q-4 -67 -35 -113.5t-83 -46.5q-27 0 -48.5 12t-41.5 28z" />
    <glyph glyph-name="ograve" unicode="&#xf2;" horiz-adv-x="578" 
d="M289 -13q-81 0 -139.5 35t-90 94.5t-31.5 135.5t31.5 135.5t90 94.5t139.5 35t139.5 -35t90 -94.5t31.5 -135.5t-31.5 -135.5t-90 -94.5t-139.5 -35zM289 97q40 0 62.5 41.5t22.5 113.5t-22.5 113.5t-62.5 41.5t-62.5 -41.5t-22.5 -113.5t22.5 -113.5t62.5 -41.5z
M239 781l150 -156l-59 -69l-179 120z" />
    <glyph glyph-name="oacute" unicode="&#xf3;" horiz-adv-x="578" 
d="M289 -13q-81 0 -139.5 35t-90 94.5t-31.5 135.5t31.5 135.5t90 94.5t139.5 35t139.5 -35t90 -94.5t31.5 -135.5t-31.5 -135.5t-90 -94.5t-139.5 -35zM289 97q40 0 62.5 41.5t22.5 113.5t-22.5 113.5t-62.5 41.5t-62.5 -41.5t-22.5 -113.5t22.5 -113.5t62.5 -41.5z
M189 625l150 156l88 -105l-179 -120z" />
    <glyph glyph-name="ocircumflex" unicode="&#xf4;" horiz-adv-x="578" 
d="M289 -13q-81 0 -139.5 35t-90 94.5t-31.5 135.5t31.5 135.5t90 94.5t139.5 35t139.5 -35t90 -94.5t31.5 -135.5t-31.5 -135.5t-90 -94.5t-139.5 -35zM289 97q40 0 62.5 41.5t22.5 113.5t-22.5 113.5t-62.5 41.5t-62.5 -41.5t-22.5 -113.5t22.5 -113.5t62.5 -41.5z
M330 770l137 -146l-57 -67l-121 100l-121 -100l-57 67l137 146h82z" />
    <glyph glyph-name="otilde" unicode="&#xf5;" horiz-adv-x="578" 
d="M289 -13q-81 0 -139.5 35t-90 94.5t-31.5 135.5t31.5 135.5t90 94.5t139.5 35t139.5 -35t90 -94.5t31.5 -135.5t-31.5 -135.5t-90 -94.5t-139.5 -35zM289 97q40 0 62.5 41.5t22.5 113.5t-22.5 113.5t-62.5 41.5t-62.5 -41.5t-22.5 -113.5t22.5 -113.5t62.5 -41.5z
M269 611q-17 13 -26 18t-17 5q-22 0 -32 -57h-93q4 67 35 113.5t83 46.5q27 0 48.5 -12t41.5 -28q17 -13 26 -18t17 -5q22 0 32 57h93q-4 -67 -35 -113.5t-83 -46.5q-27 0 -48.5 12t-41.5 28z" />
    <glyph glyph-name="odieresis" unicode="&#xf6;" horiz-adv-x="578" 
d="M289 -13q-81 0 -139.5 35t-90 94.5t-31.5 135.5t31.5 135.5t90 94.5t139.5 35t139.5 -35t90 -94.5t31.5 -135.5t-31.5 -135.5t-90 -94.5t-139.5 -35zM289 97q40 0 62.5 41.5t22.5 113.5t-22.5 113.5t-62.5 41.5t-62.5 -41.5t-22.5 -113.5t22.5 -113.5t62.5 -41.5z
M389 561q-33 0 -56.5 23t-23.5 57q0 32 23.5 55t56.5 23q32 0 56 -23t24 -55q0 -34 -24 -57t-56 -23zM189 561q-33 0 -56.5 23t-23.5 57q0 32 23.5 55t56.5 23q32 0 56 -23t24 -55q0 -34 -24 -57t-56 -23z" />
    <glyph glyph-name="divide" unicode="&#xf7;" horiz-adv-x="590" 
d="M294 453q-32 0 -53.5 22t-21.5 53q0 33 21.5 54t53.5 21t54 -21t22 -54q0 -31 -22 -53t-54 -22zM76 272v116h437v-116h-437zM294 57q-32 0 -53.5 22t-21.5 53q0 33 21.5 54t53.5 21t54 -21t22 -54q0 -31 -22 -53t-54 -22z" />
    <glyph glyph-name="oslash" unicode="&#xf8;" horiz-adv-x="578" 
d="M54 -1l44 64q-70 73 -70 189q0 76 31.5 135.5t90 94.5t139.5 35q56 0 103 -18l44 65l88 -59l-43 -64q69 -74 69 -189q0 -76 -31.5 -135.5t-90 -94.5t-139.5 -35q-56 0 -103 18l-44 -65zM204 252q0 -24 3 -45l124 185q-18 15 -42 15q-40 0 -62.5 -41.5t-22.5 -113.5z
M289 97q40 0 62.5 41.5t22.5 113.5q0 25 -3 46l-125 -185q19 -16 43 -16z" />
    <glyph glyph-name="ugrave" unicode="&#xf9;" horiz-adv-x="594" 
d="M531 504v-504h-152l-6 82q-18 -42 -57.5 -68.5t-96.5 -26.5q-74 0 -118.5 49.5t-44.5 133.5v334h170v-308q0 -40 15.5 -63.5t46.5 -23.5q29 0 51 26.5t22 83.5v285h170zM243 781l150 -156l-59 -69l-179 120z" />
    <glyph glyph-name="uacute" unicode="&#xfa;" horiz-adv-x="594" 
d="M531 504v-504h-152l-6 82q-18 -42 -57.5 -68.5t-96.5 -26.5q-74 0 -118.5 49.5t-44.5 133.5v334h170v-308q0 -40 15.5 -63.5t46.5 -23.5q29 0 51 26.5t22 83.5v285h170zM193 625l150 156l88 -105l-179 -120z" />
    <glyph glyph-name="ucircumflex" unicode="&#xfb;" horiz-adv-x="594" 
d="M531 504v-504h-152l-6 82q-18 -42 -57.5 -68.5t-96.5 -26.5q-74 0 -118.5 49.5t-44.5 133.5v334h170v-308q0 -40 15.5 -63.5t46.5 -23.5q29 0 51 26.5t22 83.5v285h170zM334 770l137 -146l-57 -67l-121 100l-121 -100l-57 67l137 146h82z" />
    <glyph glyph-name="udieresis" unicode="&#xfc;" horiz-adv-x="594" 
d="M531 504v-504h-152l-6 82q-18 -42 -57.5 -68.5t-96.5 -26.5q-74 0 -118.5 49.5t-44.5 133.5v334h170v-308q0 -40 15.5 -63.5t46.5 -23.5q29 0 51 26.5t22 83.5v285h170zM393 561q-33 0 -56.5 23t-23.5 57q0 32 23.5 55t56.5 23q32 0 56 -23t24 -55q0 -34 -24 -57t-56 -23
zM193 561q-33 0 -56.5 23t-23.5 57q0 32 23.5 55t56.5 23q32 0 56 -23t24 -55q0 -34 -24 -57t-56 -23z" />
    <glyph glyph-name="yacute" unicode="&#xfd;" horiz-adv-x="536" 
d="M4 -198l35 104q31 -13 61 -13q23 0 41.5 14t37.5 57l19 44l-195 496h176l96 -318l93 318h165l-214 -547q-36 -92 -84 -136t-116 -44q-35 0 -64 6.5t-51 18.5zM173 625l150 156l88 -105l-179 -120z" />
    <glyph glyph-name="thorn" unicode="&#xfe;" horiz-adv-x="599" 
d="M364 -13q-40 0 -76 18.5t-58 54.5v-270h-170v910h170v-256q49 73 140 73q62 0 107 -34.5t69.5 -94.5t24.5 -136q0 -78 -26 -138t-72.5 -93.5t-108.5 -33.5zM312 105q41 0 62 41.5t21 105.5t-21 106t-62 42q-38 0 -61 -36.5t-23 -102.5v-18q0 -65 23 -101.5t61 -36.5z" />
    <glyph glyph-name="ydieresis" unicode="&#xff;" horiz-adv-x="536" 
d="M4 -198l35 104q31 -13 61 -13q23 0 41.5 14t37.5 57l19 44l-195 496h176l96 -318l93 318h165l-214 -547q-36 -92 -84 -136t-116 -44q-35 0 -64 6.5t-51 18.5zM373 561q-33 0 -56.5 23t-23.5 57q0 32 23.5 55t56.5 23q32 0 56 -23t24 -55q0 -34 -24 -57t-56 -23zM173 561
q-33 0 -56.5 23t-23.5 57q0 32 23.5 55t56.5 23q32 0 56 -23t24 -55q0 -34 -24 -57t-56 -23z" />
    <glyph glyph-name="Amacron" unicode="&#x100;" horiz-adv-x="666" 
d="M480 0l-39 124h-222l-39 -124h-173l240 670h173l239 -670h-179zM258 251h143l-71 229zM145 752v118h376v-118h-376z" />
    <glyph glyph-name="amacron" unicode="&#x101;" horiz-adv-x="554" 
d="M184 -13q-70 0 -114.5 37t-44.5 105q0 54 28.5 89t75 55t101 28.5t105.5 9.5v11q0 43 -16.5 66.5t-47.5 23.5q-26 0 -44 -16.5t-23 -47.5h-160q13 80 74 124.5t159 44.5q114 0 168.5 -56.5t54.5 -169.5v-291h-152l-4 66q-26 -37 -69.5 -58t-90.5 -21zM251 92
q35 0 59.5 27.5t24.5 79.5v39q-75 -2 -107.5 -26.5t-32.5 -60.5q0 -30 15.5 -44.5t40.5 -14.5zM117 589v106h326v-106h-326z" />
    <glyph glyph-name="Abreve" unicode="&#x102;" horiz-adv-x="666" 
d="M480 0l-39 124h-222l-39 -124h-173l240 670h173l239 -670h-179zM258 251h143l-71 229zM333 739q-55 0 -94.5 21.5t-61.5 58.5t-25 81h105q4 -22 23 -39.5t53 -17.5q33 0 51.5 17.5t22.5 39.5h105q-3 -44 -24 -81t-60 -58.5t-95 -21.5z" />
    <glyph glyph-name="abreve" unicode="&#x103;" horiz-adv-x="554" 
d="M184 -13q-70 0 -114.5 37t-44.5 105q0 54 28.5 89t75 55t101 28.5t105.5 9.5v11q0 43 -16.5 66.5t-47.5 23.5q-26 0 -44 -16.5t-23 -47.5h-160q13 80 74 124.5t159 44.5q114 0 168.5 -56.5t54.5 -169.5v-291h-152l-4 66q-26 -37 -69.5 -58t-90.5 -21zM251 92
q35 0 59.5 27.5t24.5 79.5v39q-75 -2 -107.5 -26.5t-32.5 -60.5q0 -30 15.5 -44.5t40.5 -14.5zM280 569q-73 0 -116.5 48t-47.5 120h99q3 -29 20 -49.5t45 -20.5q29 0 45.5 20.5t19.5 49.5h99q-4 -72 -46 -120t-118 -48z" />
    <glyph glyph-name="Aogonek" unicode="&#x104;" horiz-adv-x="666" 
d="M480 0l-39 124h-222l-39 -124h-173l240 670h173l239 -670h-179zM258 251h143l-71 229zM542 -268q-73 0 -113 37t-40 89q0 38 19.5 72.5t71.5 69.5h124q-49 -8 -68 -37.5t-19 -58.5q0 -34 17.5 -52t45.5 -18q27 0 56 12v-99q-23 -8 -45.5 -11.5t-48.5 -3.5z" />
    <glyph glyph-name="aogonek" unicode="&#x105;" horiz-adv-x="554" 
d="M184 -13q-70 0 -114.5 37t-44.5 105q0 54 28.5 89t75 55t101 28.5t105.5 9.5v11q0 43 -16.5 66.5t-47.5 23.5q-26 0 -44 -16.5t-23 -47.5h-160q13 80 74 124.5t159 44.5q114 0 168.5 -56.5t54.5 -169.5v-291h-152l-4 66q-26 -37 -69.5 -58t-90.5 -21zM251 92
q35 0 59.5 27.5t24.5 79.5v39q-75 -2 -107.5 -26.5t-32.5 -60.5q0 -30 15.5 -44.5t40.5 -14.5zM409 -262q-71 0 -110.5 36t-39.5 85q0 38 19.5 72.5t69.5 68.5h123q-51 -8 -70.5 -36t-19.5 -62q0 -32 19.5 -50t44.5 -18q31 0 55 10v-92q-41 -14 -91 -14z" />
    <glyph glyph-name="Cacute" unicode="&#x106;" horiz-adv-x="692" 
d="M360 -16q-105 0 -177.5 44.5t-109.5 123.5t-37 183q0 103 37 182t109.5 124t177.5 45q128 0 206.5 -70t99.5 -189h-187q-11 61 -42 95.5t-77 34.5q-67 0 -102.5 -59t-35.5 -163t35.5 -163t102.5 -59q45 0 75.5 32.5t41.5 91.5h187q-12 -76 -51.5 -133t-103.5 -88.5
t-149 -31.5zM228 795l225 145l69 -131l-252 -97z" />
    <glyph glyph-name="cacute" unicode="&#x107;" horiz-adv-x="543" 
d="M284 -13q-72 0 -130 30t-92 89.5t-34 145.5q0 83 34 142.5t92 91t130 31.5q58 0 108.5 -21.5t84 -64.5t41.5 -108h-168q-8 45 -25 64.5t-41 19.5q-32 0 -56 -35t-24 -120q0 -84 24 -119.5t56 -35.5q26 0 43.5 20t25.5 71h167q-11 -70 -46 -114.5t-84.5 -65.5t-105.5 -21z
M184 625l150 156l88 -105l-179 -120z" />
    <glyph glyph-name="Cdotaccent" unicode="&#x10a;" horiz-adv-x="692" 
d="M360 -16q-105 0 -177.5 44.5t-109.5 123.5t-37 183q0 103 37 182t109.5 124t177.5 45q128 0 206.5 -70t99.5 -189h-187q-11 61 -42 95.5t-77 34.5q-67 0 -102.5 -59t-35.5 -163t35.5 -163t102.5 -59q45 0 75.5 32.5t41.5 91.5h187q-12 -76 -51.5 -133t-103.5 -88.5
t-149 -31.5zM351 727q-40 0 -68.5 27.5t-28.5 65.5t28.5 65.5t68.5 27.5t68.5 -27.5t28.5 -65.5t-28.5 -65.5t-68.5 -27.5z" />
    <glyph glyph-name="cdotaccent" unicode="&#x10b;" horiz-adv-x="543" 
d="M284 -13q-72 0 -130 30t-92 89.5t-34 145.5q0 83 34 142.5t92 91t130 31.5q58 0 108.5 -21.5t84 -64.5t41.5 -108h-168q-8 45 -25 64.5t-41 19.5q-32 0 -56 -35t-24 -120q0 -84 24 -119.5t56 -35.5q26 0 43.5 20t25.5 71h167q-11 -70 -46 -114.5t-84.5 -65.5t-105.5 -21z
M284 561q-40 0 -67.5 26.5t-27.5 64.5t27.5 64.5t67.5 26.5t67.5 -26.5t27.5 -64.5t-27.5 -64.5t-67.5 -26.5z" />
    <glyph glyph-name="Ccaron" unicode="&#x10c;" horiz-adv-x="692" 
d="M360 -16q-105 0 -177.5 44.5t-109.5 123.5t-37 183q0 103 37 182t109.5 124t177.5 45q128 0 206.5 -70t99.5 -189h-187q-11 61 -42 95.5t-77 34.5q-67 0 -102.5 -59t-35.5 -163t35.5 -163t102.5 -59q45 0 75.5 32.5t41.5 91.5h187q-12 -76 -51.5 -133t-103.5 -88.5
t-149 -31.5zM315 725l-162 125l53 80l145 -90l145 90l53 -80l-162 -125h-72z" />
    <glyph glyph-name="ccaron" unicode="&#x10d;" horiz-adv-x="543" 
d="M284 -13q-72 0 -130 30t-92 89.5t-34 145.5q0 83 34 142.5t92 91t130 31.5q58 0 108.5 -21.5t84 -64.5t41.5 -108h-168q-8 45 -25 64.5t-41 19.5q-32 0 -56 -35t-24 -120q0 -84 24 -119.5t56 -35.5q26 0 43.5 20t25.5 71h167q-11 -70 -46 -114.5t-84.5 -65.5t-105.5 -21z
M464 707l-139 -140h-82l-139 140l59 73l121 -99l121 99z" />
    <glyph glyph-name="Dcaron" unicode="&#x10e;" horiz-adv-x="712" 
d="M74 0v670h235q119 0 201 -43.5t124 -117t42 -164.5q0 -102 -42 -179.5t-124 -121.5t-201 -44h-235zM309 546h-67v-421h67q93 0 137 55t44 155q0 101 -44 156t-137 55zM279 725l-162 125l53 80l145 -90l145 90l53 -80l-162 -125h-72z" />
    <glyph glyph-name="dcaron" unicode="&#x10f;" horiz-adv-x="704" 
d="M235 517q40 0 76 -18.5t58 -54.5v256h170v-700h-152l-6 82q-47 -95 -152 -95q-61 0 -106.5 34.5t-70 94.5t-24.5 136q0 78 26 138t72.5 93.5t108.5 33.5zM287 399q-41 0 -62 -41.5t-21 -105.5t21 -106t62 -42q37 0 60.5 36.5t23.5 102.5v18q0 65 -23.5 101.5t-60.5 36.5z
M690 516h-78v184h126v-8q0 -26 -6 -60t-17 -66t-25 -50z" />
    <glyph glyph-name="Dcroat" unicode="&#x110;" horiz-adv-x="732" 
d="M94 0v282h-80v115h80v273h235q119 0 201 -44t124 -119.5t42 -171.5q0 -97 -42 -172.5t-124 -119t-201 -43.5h-235zM408 282h-146v-157h67q93 0 137 55t44 155q0 101 -44 156t-137 55h-67v-149h146v-115z" />
    <glyph glyph-name="dcroat" unicode="&#x111;" horiz-adv-x="614" 
d="M229 -13q-61 0 -106.5 33t-70 90.5t-24.5 131.5q0 76 26 133t72.5 89.5t108.5 32.5q40 0 76 -18.5t58 -54.5v120h-127v90h127v66h170v-66h65v-90h-65v-544h-152l-7 78q-24 -45 -62.5 -68t-88.5 -23zM287 379q-41 0 -62 -39t-21 -98t21 -98.5t62 -39.5q37 0 60.5 34
t23.5 95v18q0 61 -23.5 94.5t-60.5 33.5z" />
    <glyph glyph-name="Emacron" unicode="&#x112;" horiz-adv-x="577" 
d="M74 0v670h454v-131h-276v-139h245v-125h-245v-144h280v-131h-458zM113 752v118h376v-118h-376z" />
    <glyph glyph-name="emacron" unicode="&#x113;" horiz-adv-x="553" 
d="M283 -13q-71 0 -129 29t-92 87.5t-34 148.5q0 81 31.5 140.5t88 92t131.5 32.5q79 0 134.5 -33.5t84.5 -93.5t29 -140v-33h-331q6 -68 29.5 -96.5t58.5 -28.5q32 0 50 17t25 48h162q-20 -85 -84.5 -127.5t-153.5 -42.5zM279 412q-34 0 -56.5 -29.5t-26.5 -84.5h163
q-4 54 -24 84t-56 30zM116 589v106h326v-106h-326z" />
    <glyph glyph-name="Edotaccent" unicode="&#x116;" horiz-adv-x="577" 
d="M74 0v670h454v-131h-276v-139h245v-125h-245v-144h280v-131h-458zM301 727q-40 0 -68.5 27.5t-28.5 65.5t28.5 65.5t68.5 27.5t68.5 -27.5t28.5 -65.5t-28.5 -65.5t-68.5 -27.5z" />
    <glyph glyph-name="edotaccent" unicode="&#x117;" horiz-adv-x="553" 
d="M283 -13q-71 0 -129 29t-92 87.5t-34 148.5q0 81 31.5 140.5t88 92t131.5 32.5q79 0 134.5 -33.5t84.5 -93.5t29 -140v-33h-331q6 -68 29.5 -96.5t58.5 -28.5q32 0 50 17t25 48h162q-20 -85 -84.5 -127.5t-153.5 -42.5zM279 412q-34 0 -56.5 -29.5t-26.5 -84.5h163
q-4 54 -24 84t-56 30zM279 561q-40 0 -67.5 26.5t-27.5 64.5t27.5 64.5t67.5 26.5t67.5 -26.5t27.5 -64.5t-27.5 -64.5t-67.5 -26.5z" />
    <glyph glyph-name="Eogonek" unicode="&#x118;" horiz-adv-x="577" 
d="M74 0v670h454v-131h-276v-139h245v-125h-245v-144h280v-131h-458zM438 -268q-73 0 -113 37t-40 89q0 38 19.5 72.5t71.5 69.5h124q-49 -8 -68 -37.5t-19 -58.5q0 -34 17.5 -52t45.5 -18q27 0 56 12v-99q-23 -8 -45.5 -11.5t-48.5 -3.5z" />
    <glyph glyph-name="eogonek" unicode="&#x119;" horiz-adv-x="553" 
d="M283 -13q-71 0 -129 29t-92 87.5t-34 148.5q0 81 31.5 140.5t88 92t131.5 32.5q79 0 134.5 -33.5t84.5 -93.5t29 -140v-33h-331q6 -68 29.5 -96.5t58.5 -28.5q32 0 50 17t25 48h162q-20 -85 -84.5 -127.5t-153.5 -42.5zM279 412q-34 0 -56.5 -29.5t-26.5 -84.5h163
q-4 54 -24 84t-56 30zM370 -262q-71 0 -110.5 36t-39.5 85q0 38 19.5 72.5t69.5 68.5l122 29q-51 -37 -70 -64.5t-19 -64.5q0 -30 19 -48t45 -18q31 0 55 10v-92q-41 -14 -91 -14z" />
    <glyph glyph-name="Ecaron" unicode="&#x11a;" horiz-adv-x="577" 
d="M74 0v670h454v-131h-276v-139h245v-125h-245v-144h280v-131h-458zM265 725l-162 125l53 80l145 -90l145 90l53 -80l-162 -125h-72z" />
    <glyph glyph-name="ecaron" unicode="&#x11b;" horiz-adv-x="553" 
d="M283 -13q-71 0 -129 29t-92 87.5t-34 148.5q0 81 31.5 140.5t88 92t131.5 32.5q79 0 134.5 -33.5t84.5 -93.5t29 -140v-33h-331q6 -68 29.5 -96.5t58.5 -28.5q32 0 50 17t25 48h162q-20 -85 -84.5 -127.5t-153.5 -42.5zM279 412q-34 0 -56.5 -29.5t-26.5 -84.5h163
q-4 54 -24 84t-56 30zM459 707l-139 -140h-82l-139 140l59 73l121 -99l121 99z" />
    <glyph glyph-name="Gbreve" unicode="&#x11e;" horiz-adv-x="718" 
d="M36 335q0 103 39 182t114 124t184 45q119 0 195.5 -62t102.5 -174h-187q-27 110 -114 110q-75 0 -113 -60.5t-38 -164.5t38 -164.5t113 -60.5q53 0 88.5 28.5t47.5 88.5h-123v125h298v-42q0 -65 -19 -123.5t-57.5 -104t-98 -72t-139.5 -26.5q-105 0 -179 44.5t-113 123.5
t-39 183zM370 739q-55 0 -94.5 21.5t-61.5 58.5t-25 81h105q4 -22 23 -39.5t53 -17.5q33 0 51.5 17.5t22.5 39.5h105q-3 -44 -24 -81t-60 -58.5t-95 -21.5z" />
    <glyph glyph-name="gbreve" unicode="&#x11f;" horiz-adv-x="599" 
d="M283 -223q-94 0 -159.5 42.5t-80.5 127.5h160q7 -32 28 -50t52 -18q86 0 86 112v76q-23 -33 -58 -51.5t-79 -18.5q-63 0 -108.5 34t-70.5 92.5t-25 134.5t26.5 134.5t75 91.5t114.5 33q39 0 78 -22t60 -67l5 76h152v-462q0 -265 -256 -265zM287 114q37 0 60.5 35
t23.5 100v18q0 63 -23.5 98t-60.5 35q-41 0 -62 -40t-21 -102q0 -63 21 -103.5t62 -40.5zM293 569q-73 0 -116.5 48t-47.5 120h99q3 -29 20 -49.5t45 -20.5q29 0 45.5 20.5t19.5 49.5h99q-4 -72 -46 -120t-118 -48z" />
    <glyph glyph-name="Gdotaccent" unicode="&#x120;" horiz-adv-x="718" 
d="M36 335q0 103 39 182t114 124t184 45q119 0 195.5 -62t102.5 -174h-187q-27 110 -114 110q-75 0 -113 -60.5t-38 -164.5t38 -164.5t113 -60.5q53 0 88.5 28.5t47.5 88.5h-123v125h298v-42q0 -65 -19 -123.5t-57.5 -104t-98 -72t-139.5 -26.5q-105 0 -179 44.5t-113 123.5
t-39 183zM370 727q-40 0 -68.5 27.5t-28.5 65.5t28.5 65.5t68.5 27.5t68.5 -27.5t28.5 -65.5t-28.5 -65.5t-68.5 -27.5z" />
    <glyph glyph-name="gdotaccent" unicode="&#x121;" horiz-adv-x="599" 
d="M283 -223q-94 0 -159.5 42.5t-80.5 127.5h160q7 -32 28 -50t52 -18q86 0 86 112v76q-23 -33 -58 -51.5t-79 -18.5q-63 0 -108.5 34t-70.5 92.5t-25 134.5t26.5 134.5t75 91.5t114.5 33q39 0 78 -22t60 -67l5 76h152v-462q0 -265 -256 -265zM287 114q37 0 60.5 35
t23.5 100v18q0 63 -23.5 98t-60.5 35q-41 0 -62 -40t-21 -102q0 -63 21 -103.5t62 -40.5zM293 561q-40 0 -67.5 26.5t-27.5 64.5t27.5 64.5t67.5 26.5t67.5 -26.5t27.5 -64.5t-27.5 -64.5t-67.5 -26.5z" />
    <glyph glyph-name="uni0122" unicode="&#x122;" horiz-adv-x="718" 
d="M36 335q0 103 39 182t114 124t184 45q119 0 195.5 -62t102.5 -174h-187q-27 110 -114 110q-75 0 -113 -60.5t-38 -164.5t38 -164.5t113 -60.5q53 0 88.5 28.5t47.5 88.5h-123v125h298v-42q0 -65 -19 -123.5t-57.5 -104t-98 -72t-139.5 -26.5q-105 0 -179 44.5t-113 123.5
t-39 183zM274 -359v67q37 9 59 25.5t31 44.5q-28 1 -53 23t-25 60q0 36 24 59t59 23q36 0 61.5 -27.5t25.5 -77.5q0 -76 -50 -130t-132 -67z" />
    <glyph glyph-name="uni0123" unicode="&#x123;" horiz-adv-x="599" 
d="M283 -223q-94 0 -159.5 42.5t-80.5 127.5h160q7 -32 28 -50t52 -18q86 0 86 112v76q-23 -33 -58 -51.5t-79 -18.5q-63 0 -108.5 34t-70.5 92.5t-25 134.5t26.5 134.5t75 91.5t114.5 33q39 0 78 -22t60 -67l5 76h152v-462q0 -265 -256 -265zM287 114q37 0 60.5 35
t23.5 100v18q0 63 -23.5 98t-60.5 35q-41 0 -62 -40t-21 -102q0 -63 21 -103.5t62 -40.5zM382 851v-62q-73 -19 -87 -70q27 -1 50.5 -22.5t23.5 -57.5q0 -34 -23 -56t-56 -22q-34 0 -58.5 26t-24.5 75q0 46 22 86t61 67t92 36z" />
    <glyph glyph-name="Hbar" unicode="&#x126;" horiz-adv-x="768" 
d="M94 0v478h-80v105h80v87h178v-87h224v87h178v-87h80v-105h-80v-478h-178v264h-224v-264h-178zM272 393h224v85h-224v-85z" />
    <glyph glyph-name="hbar" unicode="&#x127;" horiz-adv-x="621" 
d="M80 0v544h-66v90h66v66h170v-66h126v-90h-126v-127q21 37 57.5 58.5t85.5 21.5q81 0 127.5 -49.5t46.5 -133.5v-314h-170v288q0 40 -17 63.5t-51 23.5q-31 0 -55 -26.5t-24 -83.5v-265h-170z" />
    <glyph glyph-name="Itilde" unicode="&#x128;" horiz-adv-x="326" 
d="M74 0v670h178v-670h-178zM140 777q-15 11 -26 17t-21 6q-12 0 -21.5 -13.5t-16.5 -47.5h-99q5 47 22 85.5t44 61.5t61 23q29 0 53 -12t50 -32q15 -11 26 -17t21 -6q12 0 21.5 13.5t16.5 47.5h99q-5 -47 -22 -85.5t-44 -61.5t-61 -23q-29 0 -53 12t-50 32z" />
    <glyph glyph-name="itilde" unicode="&#x129;" horiz-adv-x="290" 
d="M60 0v504h170v-504h-170zM126 614q-14 14 -23 18.5t-17 4.5q-11 0 -20 -13.5t-12 -45.5h-84q5 66 32.5 112t76.5 46q26 0 45.5 -11.5t39.5 -30.5q14 -14 23 -18.5t17 -4.5q11 0 20 13.5t12 45.5h84q-5 -66 -32.5 -112t-76.5 -46q-26 0 -45.5 11.5t-39.5 30.5z" />
    <glyph glyph-name="Imacron" unicode="&#x12a;" horiz-adv-x="326" 
d="M74 0v670h178v-670h-178zM-25 752v118h376v-118h-376z" />
    <glyph glyph-name="imacron" unicode="&#x12b;" horiz-adv-x="290" 
d="M60 0v504h170v-504h-170zM-12 589v106h314v-106h-314z" />
    <glyph glyph-name="Iogonek" unicode="&#x12e;" horiz-adv-x="326" 
d="M74 0v670h178v-670h-178zM158 -268q-73 0 -113 37t-40 89q0 38 19.5 72.5t71.5 69.5h124q-49 -8 -68 -37.5t-19 -58.5q0 -34 17.5 -52t45.5 -18q27 0 56 12v-99q-23 -8 -45.5 -11.5t-48.5 -3.5z" />
    <glyph glyph-name="iogonek" unicode="&#x12f;" horiz-adv-x="290" 
d="M145 561q-40 0 -67.5 26.5t-27.5 64.5t27.5 64.5t67.5 26.5t67.5 -26.5t27.5 -64.5t-27.5 -64.5t-67.5 -26.5zM60 0v504h170v-504h-170zM139 -262q-71 0 -110.5 36t-39.5 85q0 38 19.5 72.5t69.5 68.5h123q-51 -8 -70.5 -36t-19.5 -62q0 -32 19.5 -50t44.5 -18
q31 0 55 10v-92q-41 -14 -91 -14z" />
    <glyph glyph-name="Idotaccent" unicode="&#x130;" horiz-adv-x="326" 
d="M74 0v670h178v-670h-178zM163 727q-40 0 -68.5 27.5t-28.5 65.5t28.5 65.5t68.5 27.5t68.5 -27.5t28.5 -65.5t-28.5 -65.5t-68.5 -27.5z" />
    <glyph glyph-name="dotlessi" unicode="&#x131;" horiz-adv-x="290" 
d="M60 0v504h170v-504h-170z" />
    <glyph glyph-name="IJ" unicode="&#x132;" horiz-adv-x="671" 
d="M336 -16q-122 0 -193 64.5t-81 176.5h177q5 -49 30.5 -80.5t66.5 -31.5q45 0 70 35.5t25 100.5v421h178v-406q0 -132 -72.5 -206t-200.5 -74zM240 312h-178v358h178v-358z" />
    <glyph glyph-name="ij" unicode="&#x133;" horiz-adv-x="591" 
d="M45 652q0 38 27.5 64.5t67.5 26.5t67.5 -26.5t27.5 -64.5t-27.5 -64.5t-67.5 -26.5t-67.5 26.5t-27.5 64.5zM351 652q0 38 27.5 64.5t67.5 26.5t67.5 -26.5t27.5 -64.5t-27.5 -64.5t-67.5 -26.5t-67.5 26.5t-27.5 64.5zM51 -53h160q6 -32 24 -50t48 -18q36 0 57 27.5
t21 84.5v81q-21 -33 -57.5 -52.5t-84.5 -19.5q-74 0 -118.5 49.5t-44.5 133.5v321h170v-295q0 -41 15.5 -64t46.5 -23q29 0 51 26.5t22 83.5v272h170v-462q0 -131 -63.5 -198t-184.5 -67q-90 0 -154.5 42.5t-77.5 127.5z" />
    <glyph glyph-name="uni0136" unicode="&#x136;" horiz-adv-x="671" 
d="M74 0v670h178v-286l196 286h205l-257 -331q67 -29 124 -89q46 -49 82 -113t59 -137h-203q-11 45 -30.5 89.5t-45.5 82.5q-28 41 -61.5 69t-68.5 33v-274h-178zM259 -359v67q37 9 59 25.5t31 44.5q-28 1 -53 23t-25 60q0 36 24 59t59 23q36 0 61.5 -27.5t25.5 -77.5
q0 -76 -50 -130t-132 -67z" />
    <glyph glyph-name="uni0137" unicode="&#x137;" horiz-adv-x="570" 
d="M60 0v700h170v-397l140 201h180l-189 -230q56 -38 100 -89q32 -37 58.5 -83t48.5 -102h-184q-20 70 -55 119q-21 29 -45 54.5t-54 46.5v-220h-170zM214 -347v62q73 19 87 70q-27 1 -50.5 22.5t-23.5 57.5q0 34 23.5 56t55.5 22q33 0 58 -26.5t25 -74.5q0 -46 -22 -86
t-61 -67t-92 -36z" />
    <glyph glyph-name="Lacute" unicode="&#x139;" horiz-adv-x="542" 
d="M74 0v670h178v-539h260v-131h-438zM40 795l225 145l69 -131l-252 -97z" />
    <glyph glyph-name="lacute" unicode="&#x13a;" horiz-adv-x="290" 
d="M60 0v700h170v-700h-170zM48 826l178 128l66 -121l-201 -88z" />
    <glyph glyph-name="uni013B" unicode="&#x13b;" horiz-adv-x="542" 
d="M74 0v670h178v-539h260v-131h-438zM197 -359v67q37 9 59 25.5t31 44.5q-28 1 -53 23t-25 60q0 36 24 59t59 23q36 0 61.5 -27.5t25.5 -77.5q0 -76 -50 -130t-132 -67z" />
    <glyph glyph-name="uni013C" unicode="&#x13c;" horiz-adv-x="290" 
d="M60 0v700h170v-700h-170zM52 -347v62q73 19 87 70q-27 1 -50.5 22.5t-23.5 57.5q0 34 23.5 56t55.5 22q33 0 58 -26.5t25 -74.5q0 -46 -22 -86t-61 -67t-92 -36z" />
    <glyph glyph-name="Lcaron" unicode="&#x13d;" horiz-adv-x="542" 
d="M74 0v670h178v-539h260v-131h-438zM444 464h-82v206h132v-11q0 -27 -6.5 -65t-17.5 -74t-26 -56z" />
    <glyph glyph-name="lcaron" unicode="&#x13e;" horiz-adv-x="395" 
d="M60 0v700h170v-700h-170zM381 516h-78v184h126v-8q0 -26 -6 -60t-17 -66t-25 -50z" />
    <glyph glyph-name="Lslash" unicode="&#x141;" horiz-adv-x="573" 
d="M105 0v219l-80 -43v129l80 43v322h178v-226l130 70v-129l-130 -70v-184h260v-131h-438z" />
    <glyph glyph-name="lslash" unicode="&#x142;" horiz-adv-x="350" 
d="M90 0v274l-85 -48v107l85 48v319h170v-224l85 48v-107l-85 -48v-369h-170z" />
    <glyph glyph-name="Nacute" unicode="&#x143;" horiz-adv-x="725" 
d="M74 0v670h167l237 -408v408h173v-670h-164l-240 415v-415h-173zM239 795l225 145l69 -131l-252 -97z" />
    <glyph glyph-name="nacute" unicode="&#x144;" horiz-adv-x="601" 
d="M60 0v504h152l5 -77q19 41 59.5 65.5t96.5 24.5q81 0 127.5 -49.5t46.5 -133.5v-334h-170v308q0 40 -17 63.5t-51 23.5q-31 0 -55 -26.5t-24 -83.5v-285h-170zM203 625l150 156l88 -105l-179 -120z" />
    <glyph glyph-name="uni0145" unicode="&#x145;" horiz-adv-x="725" 
d="M74 0v670h167l237 -408v408h173v-670h-164l-240 415v-415h-173zM266 -359v67q37 9 59 25.5t31 44.5q-28 1 -53 23t-25 60q0 36 24 59t59 23q36 0 61.5 -27.5t25.5 -77.5q0 -76 -50 -130t-132 -67z" />
    <glyph glyph-name="uni0146" unicode="&#x146;" horiz-adv-x="601" 
d="M60 0v504h152l5 -77q19 41 59.5 65.5t96.5 24.5q81 0 127.5 -49.5t46.5 -133.5v-334h-170v308q0 40 -17 63.5t-51 23.5q-31 0 -55 -26.5t-24 -83.5v-285h-170zM210 -347v62q73 19 87 70q-27 1 -50.5 22.5t-23.5 57.5q0 34 23.5 56t55.5 22q33 0 58 -26.5t25 -74.5
q0 -46 -22 -86t-61 -67t-92 -36z" />
    <glyph glyph-name="Ncaron" unicode="&#x147;" horiz-adv-x="725" 
d="M74 0v670h167l237 -408v408h173v-670h-164l-240 415v-415h-173zM326 725l-162 125l53 80l145 -90l145 90l53 -80l-162 -125h-72z" />
    <glyph glyph-name="ncaron" unicode="&#x148;" horiz-adv-x="601" 
d="M60 0v504h152l5 -77q19 41 59.5 65.5t96.5 24.5q81 0 127.5 -49.5t46.5 -133.5v-334h-170v308q0 40 -17 63.5t-51 23.5q-31 0 -55 -26.5t-24 -83.5v-285h-170zM483 707l-139 -140h-82l-139 140l59 73l121 -99l121 99z" />
    <glyph glyph-name="Eng" unicode="&#x14a;" horiz-adv-x="724" 
d="M74 0v670h167l236 -386v386h174v-628q0 -134 -57.5 -199.5t-164.5 -65.5q-29 0 -64.5 6.5t-63.5 18.5l25 118q15 -7 36.5 -11t38.5 -4q35 0 55.5 24.5t20.5 70.5v38l-231 379v-417h-172z" />
    <glyph glyph-name="eng" unicode="&#x14b;" horiz-adv-x="601" 
d="M60 0v504h152l5 -78q19 41 59.5 66t96.5 25q81 0 127.5 -49.5t46.5 -133.5v-344q0 -98 -46.5 -155.5t-146.5 -57.5q-23 0 -48.5 4.5t-48.5 14.5l21 104q21 -7 42 -7q57 0 57 74v341q0 40 -17 63.5t-51 23.5q-31 0 -55 -26.5t-24 -83.5v-285h-170z" />
    <glyph glyph-name="Ohungarumlaut" unicode="&#x150;" horiz-adv-x="735" 
d="M367 -16q-106 0 -180 44.5t-112.5 124t-38.5 182.5q0 102 38.5 181.5t112.5 124.5t180 45q107 0 181 -45t112.5 -124.5t38.5 -181.5q0 -103 -38.5 -182t-112.5 -124t-181 -45zM367 113q71 0 108.5 60t37.5 162t-37.5 162t-108.5 60t-108 -60t-37 -162t37 -162t108 -60z
M201 782l176 185l80 -97l-207 -150zM397 790l207 148l60 -111l-231 -107z" />
    <glyph glyph-name="ohungarumlaut" unicode="&#x151;" horiz-adv-x="578" 
d="M289 -13q-81 0 -139.5 35t-90 94.5t-31.5 135.5t31.5 135.5t90 94.5t139.5 35t139.5 -35t90 -94.5t31.5 -135.5t-31.5 -135.5t-90 -94.5t-139.5 -35zM289 97q40 0 62.5 41.5t22.5 113.5t-22.5 113.5t-62.5 41.5t-62.5 -41.5t-22.5 -113.5t22.5 -113.5t62.5 -41.5z
M142 599l143 192l86 -78l-177 -160zM305 610l180 158l68 -92l-207 -122z" />
    <glyph glyph-name="OE" unicode="&#x152;" horiz-adv-x="973" 
d="M36 335q0 97 42 172.5t124 119t201 43.5h521v-131h-276v-139h245v-125h-245v-144h280v-131h-525q-119 0 -201 44t-124 119.5t-42 171.5zM403 131h67v408h-67q-93 0 -137 -54.5t-44 -149.5t44 -149.5t137 -54.5z" />
    <glyph glyph-name="oe" unicode="&#x153;" horiz-adv-x="900" 
d="M868 157q-20 -85 -85 -127.5t-153 -42.5q-51 0 -94.5 18.5t-76.5 59.5q-63 -78 -170 -78q-81 0 -139.5 35t-90 94.5t-31.5 135.5t31.5 135.5t90 94.5t139.5 35q109 0 171 -79q30 40 72 59.5t94 19.5q79 0 134.5 -33.5t84.5 -94.5t29 -142v-33h-331q6 -67 30 -94.5
t58 -27.5q32 0 50 17t25 48h162zM626 412q-34 0 -56.5 -30t-26.5 -87h163q-4 56 -24 86.5t-56 30.5zM289 97q40 0 62.5 41.5t22.5 113.5t-22.5 113.5t-62.5 41.5t-62.5 -41.5t-22.5 -113.5t22.5 -113.5t62.5 -41.5z" />
    <glyph glyph-name="Racute" unicode="&#x154;" horiz-adv-x="666" 
d="M74 0v670h270q128 0 196.5 -54.5t68.5 -137.5q0 -51 -23.5 -88t-62 -59.5t-83.5 -31.5q80 -34 129 -113t72 -186h-186q-22 117 -75 187t-128 74v-261h-178zM308 554h-56v-184h56q59 0 90 24t31 68t-31 68t-90 24zM185 795l225 145l69 -131l-252 -97z" />
    <glyph glyph-name="racute" unicode="&#x155;" horiz-adv-x="390" 
d="M60 0v504h149l8 -88q13 36 45 66t85 30q10 0 17 -1t13 -2v-157q-6 2 -18 3.5t-23 1.5q-46 0 -76 -28.5t-30 -87.5v-241h-170zM117 625l150 156l88 -105l-179 -120z" />
    <glyph glyph-name="Rcaron" unicode="&#x158;" horiz-adv-x="666" 
d="M74 0v670h270q128 0 196.5 -54.5t68.5 -137.5q0 -51 -23.5 -88t-62 -59.5t-83.5 -31.5q80 -34 129 -113t72 -186h-186q-22 117 -75 187t-128 74v-261h-178zM308 554h-56v-184h56q59 0 90 24t31 68t-31 68t-90 24zM272 725l-162 125l53 80l145 -90l145 90l53 -80
l-162 -125h-72z" />
    <glyph glyph-name="rcaron" unicode="&#x159;" horiz-adv-x="390" 
d="M60 0v504h149l8 -88q13 36 45 66t85 30q10 0 17 -1t13 -2v-157q-6 2 -18 3.5t-23 1.5q-46 0 -76 -28.5t-30 -87.5v-241h-170zM397 707l-139 -140h-82l-139 140l59 73l121 -99l121 99z" />
    <glyph glyph-name="Sacute" unicode="&#x15a;" horiz-adv-x="621" 
d="M317 -16q-127 0 -200.5 56.5t-85.5 162.5h175q8 -58 40 -80.5t73 -22.5q47 0 69 23t22 48q0 31 -16.5 53t-58.5 33l-111 29q-86 22 -129 68.5t-43 131.5q0 65 34.5 109.5t92.5 67.5t130 23q119 0 185.5 -56t80.5 -159h-172q-6 46 -31 72.5t-68 26.5q-37 0 -58 -20
t-21 -51q0 -59 67 -76l105 -27q75 -19 116 -49.5t57 -69.5t16 -86q0 -97 -70.5 -152t-198.5 -55zM184 795l225 145l69 -131l-252 -97z" />
    <glyph glyph-name="sacute" unicode="&#x15b;" horiz-adv-x="528" 
d="M267 -13q-107 0 -167.5 44.5t-69.5 127.5h165q5 -41 27 -56.5t47 -15.5q29 0 45 12.5t16 31.5q0 17 -13.5 32t-50.5 25l-84 22q-65 17 -101.5 52t-36.5 97q0 53 30 88t81 52.5t115 17.5q94 0 149 -42t69 -121h-164q-4 29 -19 46t-43 17q-26 0 -40 -13.5t-14 -32.5
q0 -18 12 -31.5t44 -21.5l72 -18q86 -22 122 -56.5t36 -93.5q0 -78 -60 -120.5t-167 -42.5zM161 625l150 156l88 -105l-179 -120z" />
    <glyph glyph-name="Scedilla" unicode="&#x15e;" horiz-adv-x="621" 
d="M317 -16q-127 0 -200.5 56.5t-85.5 162.5h175q8 -58 40 -80.5t73 -22.5q47 0 69 23t22 48q0 31 -16.5 53t-58.5 33l-111 29q-86 22 -129 68.5t-43 131.5q0 65 34.5 109.5t92.5 67.5t130 23q119 0 185.5 -56t80.5 -159h-172q-6 46 -31 72.5t-68 26.5q-37 0 -58 -20
t-21 -51q0 -59 67 -76l105 -27q75 -19 116 -49.5t57 -69.5t16 -86q0 -97 -70.5 -152t-198.5 -55zM265 0h76l-6 -58q7 2 18 2q46 0 75.5 -27.5t29.5 -73.5q0 -56 -37.5 -88.5t-105.5 -32.5q-18 0 -42 3t-43 10l7 79q19 -6 37.5 -8t32.5 -2q48 0 48 37q0 16 -9.5 26t-25.5 10
q-20 0 -37 -11h-32z" />
    <glyph glyph-name="scedilla" unicode="&#x15f;" horiz-adv-x="528" 
d="M267 -13q-107 0 -167.5 44.5t-69.5 127.5h165q5 -41 27 -56.5t47 -15.5q29 0 45 12.5t16 31.5q0 17 -13.5 32t-50.5 25l-84 22q-65 17 -101.5 52t-36.5 97q0 53 30 88t81 52.5t115 17.5q94 0 149 -42t69 -121h-164q-4 29 -19 46t-43 17q-26 0 -40 -13.5t-14 -32.5
q0 -18 12 -31.5t44 -21.5l72 -18q86 -22 122 -56.5t36 -93.5q0 -78 -60 -120.5t-167 -42.5zM213 0h70l-9 -59q10 3 23 3q45 0 73.5 -27t28.5 -71q0 -55 -37 -86.5t-106 -31.5q-40 0 -79 11l7 74q35 -9 64 -9q54 0 54 40q0 17 -10.5 28t-27.5 11q-20 0 -38 -11h-28z" />
    <glyph glyph-name="Scaron" unicode="&#x160;" horiz-adv-x="621" 
d="M317 -16q-127 0 -200.5 56.5t-85.5 162.5h175q8 -58 40 -80.5t73 -22.5q47 0 69 23t22 48q0 31 -16.5 53t-58.5 33l-111 29q-86 22 -129 68.5t-43 131.5q0 65 34.5 109.5t92.5 67.5t130 23q119 0 185.5 -56t80.5 -159h-172q-6 46 -31 72.5t-68 26.5q-37 0 -58 -20
t-21 -51q0 -59 67 -76l105 -27q75 -19 116 -49.5t57 -69.5t16 -86q0 -97 -70.5 -152t-198.5 -55zM271 725l-162 125l53 80l145 -90l145 90l53 -80l-162 -125h-72z" />
    <glyph glyph-name="scaron" unicode="&#x161;" horiz-adv-x="528" 
d="M267 -13q-107 0 -167.5 44.5t-69.5 127.5h165q5 -41 27 -56.5t47 -15.5q29 0 45 12.5t16 31.5q0 17 -13.5 32t-50.5 25l-84 22q-65 17 -101.5 52t-36.5 97q0 53 30 88t81 52.5t115 17.5q94 0 149 -42t69 -121h-164q-4 29 -19 46t-43 17q-26 0 -40 -13.5t-14 -32.5
q0 -18 12 -31.5t44 -21.5l72 -18q86 -22 122 -56.5t36 -93.5q0 -78 -60 -120.5t-167 -42.5zM441 707l-139 -140h-82l-139 140l59 73l121 -99l121 99z" />
    <glyph glyph-name="uni0162" unicode="&#x162;" horiz-adv-x="596" 
d="M209 0v539h-196v131h570v-131h-196v-539h-178zM256 0h76l-6 -58q7 2 18 2q46 0 75.5 -27.5t29.5 -73.5q0 -56 -37.5 -88.5t-105.5 -32.5q-18 0 -42 3t-43 10l7 79q19 -6 37.5 -8t32.5 -2q48 0 48 37q0 16 -9.5 26t-25.5 10q-20 0 -37 -11h-32z" />
    <glyph glyph-name="uni0163" unicode="&#x163;" horiz-adv-x="399" 
d="M260 -13q-92 0 -136.5 51.5t-44.5 130.5v225h-65v110h65v142h170v-142h119v-110h-119v-223q0 -33 15 -49t40 -16q14 0 29 3t29 9l26 -104q-23 -13 -58.5 -20t-69.5 -7zM182 0h70l-9 -59q10 3 23 3q45 0 73.5 -27t28.5 -71q0 -55 -37 -86.5t-106 -31.5q-40 0 -79 11l7 74
q35 -9 64 -9q54 0 54 40q0 17 -10.5 28t-27.5 11q-20 0 -38 -11h-28z" />
    <glyph glyph-name="Tcaron" unicode="&#x164;" horiz-adv-x="596" 
d="M209 0v539h-196v131h570v-131h-196v-539h-178zM262 725l-162 125l53 80l145 -90l145 90l53 -80l-162 -125h-72z" />
    <glyph glyph-name="tcaron" unicode="&#x165;" horiz-adv-x="399" 
d="M260 -13q-92 0 -136.5 51.5t-44.5 130.5v225h-65v110h65v142h170v-142h119v-110h-119v-223q0 -33 15 -49t40 -16q14 0 29 3t29 9l26 -104q-23 -13 -58.5 -20t-69.5 -7zM381 549h-82v151h120v-8q0 -34 -10 -74t-28 -69z" />
    <glyph glyph-name="Tbar" unicode="&#x166;" horiz-adv-x="596" 
d="M209 0v266h-126v115h126v158h-196v131h570v-131h-196v-158h126v-115h-126v-266h-178z" />
    <glyph glyph-name="tbar" unicode="&#x167;" horiz-adv-x="393" 
d="M14 205v110h65v79h-65v110h65v142h170v-142h119v-110h-119v-79h119v-110h-119v-38q0 -33 15 -49t40 -16q26 0 52 10l26 -100q-23 -12 -55.5 -18.5t-66.5 -6.5q-92 0 -136.5 51.5t-44.5 130.5v36h-65z" />
    <glyph glyph-name="Utilde" unicode="&#x168;" horiz-adv-x="704" 
d="M351 -16q-139 0 -214 78t-75 212v396h178v-411q0 -65 28.5 -105.5t82.5 -40.5q55 0 84 40.5t29 105.5v411h178v-396q0 -134 -76 -212t-215 -78zM329 777q-15 11 -26 17t-21 6q-12 0 -21.5 -13.5t-16.5 -47.5h-99q5 47 22 85.5t44 61.5t61 23q29 0 53 -12t50 -32
q15 -11 26 -17t21 -6q12 0 21.5 13.5t16.5 47.5h99q-5 -47 -22 -85.5t-44 -61.5t-61 -23q-29 0 -53 12t-50 32z" />
    <glyph glyph-name="utilde" unicode="&#x169;" horiz-adv-x="594" 
d="M531 504v-504h-152l-6 82q-18 -42 -57.5 -68.5t-96.5 -26.5q-74 0 -118.5 49.5t-44.5 133.5v334h170v-308q0 -40 15.5 -63.5t46.5 -23.5q29 0 51 26.5t22 83.5v285h170zM273 611q-17 13 -26 18t-17 5q-22 0 -32 -57h-93q4 67 35 113.5t83 46.5q27 0 48.5 -12t41.5 -28
q17 -13 26 -18t17 -5q22 0 32 57h93q-4 -67 -35 -113.5t-83 -46.5q-27 0 -48.5 12t-41.5 28z" />
    <glyph glyph-name="Umacron" unicode="&#x16a;" horiz-adv-x="704" 
d="M351 -16q-139 0 -214 78t-75 212v396h178v-411q0 -65 28.5 -105.5t82.5 -40.5q55 0 84 40.5t29 105.5v411h178v-396q0 -134 -76 -212t-215 -78zM164 752v118h376v-118h-376z" />
    <glyph glyph-name="umacron" unicode="&#x16b;" horiz-adv-x="594" 
d="M531 504v-504h-152l-6 82q-18 -42 -57.5 -68.5t-96.5 -26.5q-74 0 -118.5 49.5t-44.5 133.5v334h170v-308q0 -40 15.5 -63.5t46.5 -23.5q29 0 51 26.5t22 83.5v285h170zM130 589v106h326v-106h-326z" />
    <glyph glyph-name="Uring" unicode="&#x16e;" horiz-adv-x="704" 
d="M351 -16q-139 0 -214 78t-75 212v396h178v-411q0 -65 28.5 -105.5t82.5 -40.5q55 0 84 40.5t29 105.5v411h178v-396q0 -134 -76 -212t-215 -78zM352 718q-55 0 -90 34.5t-35 87.5q0 56 35 89t90 33q56 0 91.5 -33t35.5 -89q0 -53 -35.5 -87.5t-91.5 -34.5zM352 788
q21 0 35 14.5t14 37.5q0 22 -13.5 37t-35.5 15t-35.5 -15t-13.5 -37q0 -23 13.5 -37.5t35.5 -14.5z" />
    <glyph glyph-name="uring" unicode="&#x16f;" horiz-adv-x="594" 
d="M531 504v-504h-152l-6 82q-18 -42 -57.5 -68.5t-96.5 -26.5q-74 0 -118.5 49.5t-44.5 133.5v334h170v-308q0 -40 15.5 -63.5t46.5 -23.5q29 0 51 26.5t22 83.5v285h170zM293 551q-54 0 -88.5 33.5t-34.5 86.5q0 55 34.5 87.5t88.5 32.5q56 0 90.5 -32.5t34.5 -87.5
q0 -53 -35 -86.5t-90 -33.5zM293 617q22 0 36.5 15t14.5 39q0 23 -14.5 38.5t-36.5 15.5t-36.5 -15.5t-14.5 -38.5q0 -24 14.5 -39t36.5 -15z" />
    <glyph glyph-name="Uhungarumlaut" unicode="&#x170;" horiz-adv-x="704" 
d="M351 -16q-139 0 -214 78t-75 212v396h178v-411q0 -65 28.5 -105.5t82.5 -40.5q55 0 84 40.5t29 105.5v411h178v-396q0 -134 -76 -212t-215 -78zM186 782l176 185l80 -97l-207 -150zM382 790l207 148l60 -111l-231 -107z" />
    <glyph glyph-name="uhungarumlaut" unicode="&#x171;" horiz-adv-x="594" 
d="M531 504v-504h-152l-6 82q-18 -42 -57.5 -68.5t-96.5 -26.5q-74 0 -118.5 49.5t-44.5 133.5v334h170v-308q0 -40 15.5 -63.5t46.5 -23.5q29 0 51 26.5t22 83.5v285h170zM146 599l143 192l86 -78l-177 -160zM309 610l180 158l68 -92l-207 -122z" />
    <glyph glyph-name="Uogonek" unicode="&#x172;" horiz-adv-x="704" 
d="M351 -16q-139 0 -214 78t-75 212v396h178v-411q0 -65 28.5 -105.5t82.5 -40.5q55 0 84 40.5t29 105.5v411h178v-396q0 -134 -76 -212t-215 -78zM445 -265q-73 0 -113 36.5t-40 87.5q0 39 20 74t72 70l131 20q-55 -31 -75 -60.5t-20 -62.5q0 -28 18.5 -45.5t42.5 -17.5
q26 0 58 12v-99q-22 -8 -45 -11.5t-49 -3.5z" />
    <glyph glyph-name="uogonek" unicode="&#x173;" horiz-adv-x="594" 
d="M531 504v-504h-152l-6 82q-18 -42 -57.5 -68.5t-96.5 -26.5q-74 0 -118.5 49.5t-44.5 133.5v334h170v-308q0 -40 15.5 -63.5t46.5 -23.5q29 0 51 26.5t22 83.5v285h170zM440 -262q-71 0 -110.5 36t-39.5 85q0 38 19.5 72.5t69.5 68.5h123q-51 -8 -70.5 -36t-19.5 -62
q0 -32 19.5 -50t44.5 -18q31 0 55 10v-92q-41 -14 -91 -14z" />
    <glyph glyph-name="Wcircumflex" unicode="&#x174;" horiz-adv-x="913" 
d="M166 0l-153 670h179l92 -439l115 439h125l114 -439l93 439h169l-153 -670h-181l-108 430l-111 -430h-181zM497 915l162 -125l-53 -80l-145 90l-145 -90l-53 80l162 125h72z" />
    <glyph glyph-name="wcircumflex" unicode="&#x175;" horiz-adv-x="800" 
d="M150 0l-147 504h176l70 -345l85 345h146l89 -346l68 346h160l-147 -504h-172l-78 275l-78 -275h-172zM448 770l137 -146l-57 -67l-121 100l-121 -100l-57 67l137 146h82z" />
    <glyph glyph-name="Ycircumflex" unicode="&#x176;" horiz-adv-x="634" 
d="M188 670l132 -274l135 274h178l-227 -400v-270h-178v268l-227 402h187zM356 915l162 -125l-53 -80l-145 90l-145 -90l-53 80l162 125h72z" />
    <glyph glyph-name="ycircumflex" unicode="&#x177;" horiz-adv-x="536" 
d="M4 -198l35 104q31 -13 61 -13q23 0 41.5 14t37.5 57l19 44l-195 496h176l96 -318l93 318h165l-214 -547q-36 -92 -84 -136t-116 -44q-35 0 -64 6.5t-51 18.5zM314 770l137 -146l-57 -67l-121 100l-121 -100l-57 67l137 146h82z" />
    <glyph glyph-name="Ydieresis" unicode="&#x178;" horiz-adv-x="634" 
d="M188 670l132 -274l135 274h178l-227 -400v-270h-178v268l-227 402h187zM435 736q-35 0 -59 24t-24 60t24 60t59 24t59 -24t24 -60t-24 -60t-59 -24zM205 736q-35 0 -59 24t-24 60t24 60t59 24t59 -24t24 -60t-24 -60t-59 -24z" />
    <glyph glyph-name="Zacute" unicode="&#x179;" horiz-adv-x="606" 
d="M40 0v99l306 442h-299v129h520v-99l-307 -442h314v-129h-534zM184 795l225 145l69 -131l-252 -97z" />
    <glyph glyph-name="zacute" unicode="&#x17a;" horiz-adv-x="503" 
d="M39 0v80l221 305h-215v119h417v-78l-227 -307h239v-119h-435zM156 625l150 156l88 -105l-179 -120z" />
    <glyph glyph-name="Zdotaccent" unicode="&#x17b;" horiz-adv-x="606" 
d="M40 0v99l306 442h-299v129h520v-99l-307 -442h314v-129h-534zM307 727q-40 0 -68.5 27.5t-28.5 65.5t28.5 65.5t68.5 27.5t68.5 -27.5t28.5 -65.5t-28.5 -65.5t-68.5 -27.5z" />
    <glyph glyph-name="zdotaccent" unicode="&#x17c;" horiz-adv-x="503" 
d="M39 0v80l221 305h-215v119h417v-78l-227 -307h239v-119h-435zM256 561q-40 0 -67.5 26.5t-27.5 64.5t27.5 64.5t67.5 26.5t67.5 -26.5t27.5 -64.5t-27.5 -64.5t-67.5 -26.5z" />
    <glyph glyph-name="Zcaron" unicode="&#x17d;" horiz-adv-x="606" 
d="M40 0v99l306 442h-299v129h520v-99l-307 -442h314v-129h-534zM271 725l-162 125l53 80l145 -90l145 90l53 -80l-162 -125h-72z" />
    <glyph glyph-name="zcaron" unicode="&#x17e;" horiz-adv-x="503" 
d="M39 0v80l221 305h-215v119h417v-78l-227 -307h239v-119h-435zM436 707l-139 -140h-82l-139 140l59 73l121 -99l121 99z" />
    <glyph glyph-name="uni0218" unicode="&#x218;" horiz-adv-x="621" 
d="M317 -16q-127 0 -200.5 56.5t-85.5 162.5h175q8 -58 40 -80.5t73 -22.5q47 0 69 23t22 48q0 31 -16.5 53t-58.5 33l-111 29q-86 22 -129 68.5t-43 131.5q0 65 34.5 109.5t92.5 67.5t130 23q119 0 185.5 -56t80.5 -159h-172q-6 46 -31 72.5t-68 26.5q-37 0 -58 -20
t-21 -51q0 -59 67 -76l105 -27q75 -19 116 -49.5t57 -69.5t16 -86q0 -97 -70.5 -152t-198.5 -55zM211 -359v67q37 9 59 25.5t31 44.5q-28 1 -53 23t-25 60q0 36 24 59t59 23q36 0 61.5 -27.5t25.5 -77.5q0 -76 -50 -130t-132 -67z" />
    <glyph glyph-name="uni0219" unicode="&#x219;" horiz-adv-x="528" 
d="M267 -13q-107 0 -167.5 44.5t-69.5 127.5h165q5 -41 27 -56.5t47 -15.5q29 0 45 12.5t16 31.5q0 17 -13.5 32t-50.5 25l-84 22q-65 17 -101.5 52t-36.5 97q0 53 30 88t81 52.5t115 17.5q94 0 149 -42t69 -121h-164q-4 29 -19 46t-43 17q-26 0 -40 -13.5t-14 -32.5
q0 -18 12 -31.5t44 -21.5l72 -18q86 -22 122 -56.5t36 -93.5q0 -78 -60 -120.5t-167 -42.5zM168 -347v62q73 19 87 70q-27 1 -50.5 22.5t-23.5 57.5q0 34 23.5 56t55.5 22q33 0 58 -26.5t25 -74.5q0 -46 -22 -86t-61 -67t-92 -36z" />
    <glyph glyph-name="uni021A" unicode="&#x21a;" horiz-adv-x="596" 
d="M209 0v539h-196v131h570v-131h-196v-539h-178zM202 -359v67q37 9 59 25.5t31 44.5q-28 1 -53 23t-25 60q0 36 24 59t59 23q36 0 61.5 -27.5t25.5 -77.5q0 -76 -50 -130t-132 -67z" />
    <glyph glyph-name="uni021B" unicode="&#x21b;" horiz-adv-x="399" 
d="M260 -13q-92 0 -136.5 51.5t-44.5 130.5v225h-65v110h65v142h170v-142h119v-110h-119v-223q0 -33 15 -49t40 -16q14 0 29 3t29 9l26 -104q-23 -13 -58.5 -20t-69.5 -7zM137 -347v62q73 19 87 70q-27 1 -50.5 22.5t-23.5 57.5q0 34 23.5 56t55.5 22q33 0 58 -26.5
t25 -74.5q0 -46 -22 -86t-61 -67t-92 -36z" />
    <glyph glyph-name="circumflex" unicode="&#x2c6;" horiz-adv-x="500" 
d="M291 770l137 -146l-57 -67l-121 100l-121 -100l-57 67l137 146h82z" />
    <glyph glyph-name="caron" unicode="&#x2c7;" horiz-adv-x="500" 
d="M430 707l-139 -140h-82l-139 140l59 73l121 -99l121 99z" />
    <glyph glyph-name="breve" unicode="&#x2d8;" horiz-adv-x="500" 
d="M250 569q-73 0 -116.5 48t-47.5 120h99q3 -29 20 -49.5t45 -20.5q29 0 45.5 20.5t19.5 49.5h99q-4 -72 -46 -120t-118 -48z" />
    <glyph glyph-name="dotaccent" unicode="&#x2d9;" horiz-adv-x="500" 
d="M250 561q-40 0 -67.5 26.5t-27.5 64.5t27.5 64.5t67.5 26.5t67.5 -26.5t27.5 -64.5t-27.5 -64.5t-67.5 -26.5z" />
    <glyph glyph-name="ring" unicode="&#x2da;" horiz-adv-x="500" 
d="M249 551q-54 0 -88.5 33.5t-34.5 86.5q0 55 34.5 87.5t88.5 32.5q56 0 90.5 -32.5t34.5 -87.5q0 -53 -35 -86.5t-90 -33.5zM249 617q22 0 36.5 15t14.5 39q0 23 -14.5 38.5t-36.5 15.5t-36.5 -15.5t-14.5 -38.5q0 -24 14.5 -39t36.5 -15z" />
    <glyph glyph-name="ogonek" unicode="&#x2db;" horiz-adv-x="500" 
d="M279 -262q-71 0 -110.5 36t-39.5 85q0 38 19.5 72.5t69.5 68.5h123q-51 -8 -70.5 -36t-19.5 -62q0 -32 19.5 -50t44.5 -18q31 0 55 10v-92q-41 -14 -91 -14z" />
    <glyph glyph-name="tilde" unicode="&#x2dc;" horiz-adv-x="500" 
d="M230 611q-17 13 -26 18t-17 5q-22 0 -32 -57h-93q4 67 35 113.5t83 46.5q27 0 48.5 -12t41.5 -28q17 -13 26 -18t17 -5q22 0 32 57h93q-4 -67 -35 -113.5t-83 -46.5q-27 0 -48.5 12t-41.5 28z" />
    <glyph glyph-name="hungarumlaut" unicode="&#x2dd;" horiz-adv-x="500" 
d="M47 599l143 192l86 -78l-177 -160zM210 610l180 158l68 -92l-207 -122z" />
    <glyph glyph-name="gravecomb" unicode="&#x300;" 
d="M-50 781l150 -156l-59 -69l-179 120z" />
    <glyph glyph-name="acutecomb" unicode="&#x301;" 
d="M-100 625l150 156l88 -105l-179 -120z" />
    <glyph glyph-name="uni0302" unicode="&#x302;" 
d="M41 770l137 -146l-57 -67l-121 100l-121 -100l-57 67l137 146h82z" />
    <glyph glyph-name="tildecomb" unicode="&#x303;" 
d="M-20 611q-17 13 -26 18t-17 5q-22 0 -32 -57h-93q4 67 35 113.5t83 46.5q27 0 48.5 -12t41.5 -28q17 -13 26 -18t17 -5q22 0 32 57h93q-4 -67 -35 -113.5t-83 -46.5q-27 0 -48.5 12t-41.5 28z" />
    <glyph glyph-name="uni0304" unicode="&#x304;" 
d="M-163 589v106h326v-106h-326z" />
    <glyph glyph-name="uni0306" unicode="&#x306;" 
d="M0 569q-73 0 -116.5 48t-47.5 120h99q3 -29 20 -49.5t45 -20.5q29 0 45.5 20.5t19.5 49.5h99q-4 -72 -46 -120t-118 -48z" />
    <glyph glyph-name="uni0307" unicode="&#x307;" 
d="M0 561q-40 0 -67.5 26.5t-27.5 64.5t27.5 64.5t67.5 26.5t67.5 -26.5t27.5 -64.5t-27.5 -64.5t-67.5 -26.5z" />
    <glyph glyph-name="uni0308" unicode="&#x308;" 
d="M100 561q-33 0 -56.5 23t-23.5 57q0 32 23.5 55t56.5 23q32 0 56 -23t24 -55q0 -34 -24 -57t-56 -23zM-100 561q-33 0 -56.5 23t-23.5 57q0 32 23.5 55t56.5 23q32 0 56 -23t24 -55q0 -34 -24 -57t-56 -23z" />
    <glyph glyph-name="uni030A" unicode="&#x30a;" 
d="M0 551q-54 0 -88.5 33.5t-34.5 86.5q0 55 34.5 87.5t88.5 32.5q56 0 90.5 -32.5t34.5 -87.5q0 -53 -35 -86.5t-90 -33.5zM0 617q22 0 36.5 15t14.5 39q0 23 -14.5 38.5t-36.5 15.5t-36.5 -15.5t-14.5 -38.5q0 -24 14.5 -39t36.5 -15z" />
    <glyph glyph-name="uni030B" unicode="&#x30b;" 
d="M-147 599l143 192l86 -78l-177 -160zM16 610l180 158l68 -92l-207 -122z" />
    <glyph glyph-name="uni030C" unicode="&#x30c;" 
d="M180 707l-139 -140h-82l-139 140l59 73l121 -99l121 99z" />
    <glyph glyph-name="uni0312" unicode="&#x312;" 
d="M89 851v-62q-73 -19 -87 -70q27 -1 50.5 -22.5t23.5 -57.5q0 -34 -23 -56t-56 -22q-34 0 -58.5 26t-24.5 75q0 46 22 86t61 67t92 36z" />
    <glyph glyph-name="uni0315" unicode="&#x315;" 
d="M30 516h-78v184h126v-8q0 -26 -6 -60t-17 -66t-25 -50z" />
    <glyph glyph-name="dotbelowcomb" unicode="&#x323;" 
d="M0 -239q-40 0 -67.5 26.5t-27.5 64.5t27.5 64.5t67.5 26.5t67.5 -26.5t27.5 -64.5t-27.5 -64.5t-67.5 -26.5z" />
    <glyph glyph-name="uni0326" unicode="&#x326;" 
d="M-93 -347v62q73 19 87 70q-27 1 -50.5 22.5t-23.5 57.5q0 34 23.5 56t55.5 22q33 0 58 -26.5t25 -74.5q0 -46 -22 -86t-61 -67t-92 -36z" />
    <glyph glyph-name="uni0327" unicode="&#x327;" 
d="M-48 0h70l-9 -59q10 3 23 3q45 0 73.5 -27t28.5 -71q0 -55 -37 -86.5t-106 -31.5q-40 0 -79 11l7 74q35 -9 64 -9q54 0 54 40q0 17 -10.5 28t-27.5 11q-20 0 -38 -11h-28z" />
    <glyph glyph-name="uni0328" unicode="&#x328;" 
d="M5 -262q-71 0 -110.5 36t-39.5 85q0 38 19.5 72.5t69.5 68.5h123q-51 -8 -70.5 -36t-19.5 -62q0 -32 19.5 -50t44.5 -18q31 0 55 10v-92q-41 -14 -91 -14z" />
    <glyph glyph-name="uni1E24" unicode="&#x1e24;" horiz-adv-x="728" 
d="M74 0v670h178v-265h224v265h178v-670h-178v274h-224v-274h-178zM364 -242q-40 0 -66.5 26t-26.5 63t26.5 63t66.5 26t66.5 -26t26.5 -63t-26.5 -63t-66.5 -26z" />
    <glyph glyph-name="uni1E25" unicode="&#x1e25;" horiz-adv-x="601" 
d="M60 0v700h170v-263q21 37 57.5 58.5t85.5 21.5q81 0 127.5 -49.5t46.5 -133.5v-334h-170v308q0 40 -17 63.5t-51 23.5q-31 0 -55 -26.5t-24 -83.5v-285h-170zM303 -239q-40 0 -67.5 26.5t-27.5 64.5t27.5 64.5t67.5 26.5t67.5 -26.5t27.5 -64.5t-27.5 -64.5t-67.5 -26.5z
" />
    <glyph glyph-name="uni1E36" unicode="&#x1e36;" horiz-adv-x="542" 
d="M74 0v670h178v-539h260v-131h-438zM293 -242q-40 0 -66.5 26t-26.5 63t26.5 63t66.5 26t66.5 -26t26.5 -63t-26.5 -63t-66.5 -26z" />
    <glyph glyph-name="uni1E37" unicode="&#x1e37;" horiz-adv-x="290" 
d="M60 0v700h170v-700h-170zM145 -239q-40 0 -67.5 26.5t-27.5 64.5t27.5 64.5t67.5 26.5t67.5 -26.5t27.5 -64.5t-27.5 -64.5t-67.5 -26.5z" />
    <glyph glyph-name="Wgrave" unicode="&#x1e80;" horiz-adv-x="913" 
d="M166 0l-153 670h179l92 -439l115 439h125l114 -439l93 439h169l-153 -670h-181l-108 430l-111 -430h-181zM359 940l225 -145l-42 -83l-252 97z" />
    <glyph glyph-name="wgrave" unicode="&#x1e81;" horiz-adv-x="800" 
d="M150 0l-147 504h176l70 -345l85 345h146l89 -346l68 346h160l-147 -504h-172l-78 275l-78 -275h-172zM357 781l150 -156l-59 -69l-179 120z" />
    <glyph glyph-name="Wacute" unicode="&#x1e82;" horiz-adv-x="913" 
d="M166 0l-153 670h179l92 -439l115 439h125l114 -439l93 439h169l-153 -670h-181l-108 430l-111 -430h-181zM338 795l225 145l69 -131l-252 -97z" />
    <glyph glyph-name="wacute" unicode="&#x1e83;" horiz-adv-x="800" 
d="M150 0l-147 504h176l70 -345l85 345h146l89 -346l68 346h160l-147 -504h-172l-78 275l-78 -275h-172zM307 625l150 156l88 -105l-179 -120z" />
    <glyph glyph-name="Wdieresis" unicode="&#x1e84;" horiz-adv-x="913" 
d="M166 0l-153 670h179l92 -439l115 439h125l114 -439l93 439h169l-153 -670h-181l-108 430l-111 -430h-181zM576 736q-35 0 -59 24t-24 60t24 60t59 24t59 -24t24 -60t-24 -60t-59 -24zM346 736q-35 0 -59 24t-24 60t24 60t59 24t59 -24t24 -60t-24 -60t-59 -24z" />
    <glyph glyph-name="wdieresis" unicode="&#x1e85;" horiz-adv-x="800" 
d="M150 0l-147 504h176l70 -345l85 345h146l89 -346l68 346h160l-147 -504h-172l-78 275l-78 -275h-172zM507 561q-33 0 -56.5 23t-23.5 57q0 32 23.5 55t56.5 23q32 0 56 -23t24 -55q0 -34 -24 -57t-56 -23zM307 561q-33 0 -56.5 23t-23.5 57q0 32 23.5 55t56.5 23
q32 0 56 -23t24 -55q0 -34 -24 -57t-56 -23z" />
    <glyph glyph-name="uni1E9E" unicode="&#x1e9e;" horiz-adv-x="684" 
d="M63 0v409q0 139 74.5 208t209.5 69q99 0 168 -50t103 -135l-124 -119q86 -18 122 -69.5t36 -120.5q0 -100 -65.5 -154t-176.5 -54q-22 0 -57 5t-60 18l21 104q16 -6 31.5 -8.5t28.5 -2.5q39 0 66 24.5t27 77.5q0 52 -26 78t-72 26h-13v89l106 112q-15 27 -43.5 45.5
t-71.5 18.5q-48 0 -77 -31t-29 -99v-441h-178z" />
    <glyph glyph-name="Ygrave" unicode="&#x1ef2;" horiz-adv-x="634" 
d="M188 670l132 -274l135 274h178l-227 -400v-270h-178v268l-227 402h187zM218 940l225 -145l-42 -83l-252 97z" />
    <glyph glyph-name="ygrave" unicode="&#x1ef3;" horiz-adv-x="536" 
d="M4 -198l35 104q31 -13 61 -13q23 0 41.5 14t37.5 57l19 44l-195 496h176l96 -318l93 318h165l-214 -547q-36 -92 -84 -136t-116 -44q-35 0 -64 6.5t-51 18.5zM223 781l150 -156l-59 -69l-179 120z" />
    <glyph glyph-name="uni2000" unicode="&#x2000;" horiz-adv-x="500" 
 />
    <glyph glyph-name="uni2001" unicode="&#x2001;" horiz-adv-x="1000" 
 />
    <glyph glyph-name="uni2002" unicode="&#x2002;" horiz-adv-x="500" 
 />
    <glyph glyph-name="uni2003" unicode="&#x2003;" horiz-adv-x="1000" 
 />
    <glyph glyph-name="uni2004" unicode="&#x2004;" horiz-adv-x="333" 
 />
    <glyph glyph-name="uni2005" unicode="&#x2005;" horiz-adv-x="250" 
 />
    <glyph glyph-name="uni2006" unicode="&#x2006;" horiz-adv-x="166" 
 />
    <glyph glyph-name="uni2007" unicode="&#x2007;" horiz-adv-x="590" 
 />
    <glyph glyph-name="uni2008" unicode="&#x2008;" horiz-adv-x="220" 
 />
    <glyph glyph-name="uni2009" unicode="&#x2009;" horiz-adv-x="200" 
 />
    <glyph glyph-name="uni200A" unicode="&#x200a;" horiz-adv-x="62" 
 />
    <glyph glyph-name="uni200B" unicode="&#x200b;" 
 />
    <glyph glyph-name="uni2010" unicode="&#x2010;" horiz-adv-x="374" 
d="M25 182v130h324v-130h-324z" />
    <glyph glyph-name="uni2011" unicode="&#x2011;" horiz-adv-x="374" 
d="M25 182v130h324v-130h-324z" />
    <glyph glyph-name="figuredash" unicode="&#x2012;" horiz-adv-x="590" 
d="M45 182v130h500v-130h-500z" />
    <glyph glyph-name="endash" unicode="&#x2013;" horiz-adv-x="500" 
d="M0 182v130h500v-130h-500z" />
    <glyph glyph-name="emdash" unicode="&#x2014;" horiz-adv-x="1000" 
d="M0 182v130h1000v-130h-1000z" />
    <glyph glyph-name="uni2015" unicode="&#x2015;" horiz-adv-x="1000" 
d="M0 182v130h1000v-130h-1000z" />
    <glyph glyph-name="quoteleft" unicode="&#x2018;" horiz-adv-x="206" 
d="M186 710v-68q-54 -11 -71 -53q32 -2 52.5 -23.5t20.5 -55.5q0 -40 -24 -62.5t-62 -22.5q-40 0 -64.5 27.5t-24.5 83.5q0 67 45.5 116.5t127.5 57.5z" />
    <glyph glyph-name="quoteright" unicode="&#x2019;" horiz-adv-x="206" 
d="M20 425v68q54 11 71 53q-32 2 -52.5 23.5t-20.5 55.5q0 40 24 62.5t62 22.5q40 0 64.5 -28t24.5 -83q0 -67 -45.5 -116.5t-127.5 -57.5z" />
    <glyph glyph-name="quotesinglbase" unicode="&#x201a;" horiz-adv-x="206" 
d="M20 -131v68q54 11 71 53q-32 2 -52.5 23.5t-20.5 55.5q0 40 24 62.5t62 22.5q40 0 64.5 -28t24.5 -83q0 -67 -45.5 -116.5t-127.5 -57.5z" />
    <glyph glyph-name="quotedblleft" unicode="&#x201c;" horiz-adv-x="429" 
d="M186 710v-68q-54 -11 -71 -53q32 -2 52.5 -23.5t20.5 -55.5q0 -40 -24 -62.5t-62 -22.5q-40 0 -64.5 27.5t-24.5 83.5q0 67 45.5 116.5t127.5 57.5zM409 710v-68q-54 -11 -71 -53q32 -2 52.5 -23.5t20.5 -55.5q0 -40 -24 -62.5t-62 -22.5q-40 0 -64.5 27.5t-24.5 83.5
q0 67 45.5 116.5t127.5 57.5z" />
    <glyph glyph-name="quotedblright" unicode="&#x201d;" horiz-adv-x="429" 
d="M20 425v68q54 11 71 53q-32 2 -52.5 23.5t-20.5 55.5q0 40 24 62.5t62 22.5q40 0 64.5 -28t24.5 -83q0 -67 -45.5 -116.5t-127.5 -57.5zM243 425v68q54 11 71 53q-32 2 -52.5 23.5t-20.5 55.5q0 40 24 62.5t62 22.5q40 0 64.5 -28t24.5 -83q0 -67 -45.5 -116.5
t-127.5 -57.5z" />
    <glyph glyph-name="quotedblbase" unicode="&#x201e;" horiz-adv-x="429" 
d="M20 -131v68q54 11 71 53q-32 2 -52.5 23.5t-20.5 55.5q0 40 24 62.5t62 22.5q40 0 64.5 -28t24.5 -83q0 -67 -45.5 -116.5t-127.5 -57.5zM243 -131v68q54 11 71 53q-32 2 -52.5 23.5t-20.5 55.5q0 40 24 62.5t62 22.5q40 0 64.5 -28t24.5 -83q0 -67 -45.5 -116.5
t-127.5 -57.5z" />
    <glyph glyph-name="dagger" unicode="&#x2020;" horiz-adv-x="417" 
d="M138 -105l8 498l-121 -6v127l120 -6l-7 162h137l-7 -162l124 6v-127l-125 6l8 -498h-137z" />
    <glyph glyph-name="daggerdbl" unicode="&#x2021;" horiz-adv-x="417" 
d="M25 51v127l121 -6v221l-121 -6v127l120 -6l-7 162h137l-7 -162l124 6v-127l-125 6v-221l125 6v-127l-124 6l7 -162h-137l7 162z" />
    <glyph glyph-name="bullet" unicode="&#x2022;" horiz-adv-x="391" 
d="M195 102q-41 0 -74.5 20t-52.5 53t-19 73q0 42 19 75t52.5 52t74.5 19q42 0 75.5 -19t52.5 -52t19 -75q0 -40 -20.5 -73t-54 -53t-72.5 -20z" />
    <glyph glyph-name="ellipsis" unicode="&#x2026;" horiz-adv-x="1000" 
d="M166 -10q-38 0 -64 26.5t-26 63.5q0 40 26 65t64 25q39 0 65 -25t26 -65q0 -37 -27 -63.5t-64 -26.5zM499 -10q-38 0 -64 26.5t-26 63.5q0 40 26 65t64 25q39 0 65 -25t26 -65q0 -37 -27 -63.5t-64 -26.5zM832 -10q-38 0 -64 26.5t-26 63.5q0 40 26 65t64 25q39 0 65 -25
t26 -65q0 -37 -27 -63.5t-64 -26.5z" />
    <glyph glyph-name="perthousand" unicode="&#x2030;" horiz-adv-x="1276" 
d="M226 0l318 660h138l-318 -660h-138zM716 -10q-84 0 -125 55.5t-41 150.5t41 150.5t125 55.5t125 -55.5t41 -150.5t-41 -150.5t-125 -55.5zM716 74q23 0 32 29t9 93t-9 93t-32 29t-32 -29t-9 -93t9 -93t32 -29zM1083 -10q-84 0 -125 55.5t-41 150.5t41 150.5t125 55.5
t125 -55.5t41 -150.5t-41 -150.5t-125 -55.5zM1083 74q23 0 32 29t9 93t-9 93t-32 29t-32 -29t-9 -93t9 -93t32 -29zM190 258q-84 0 -125 55.5t-41 150.5t41 150.5t125 55.5t125 -55.5t41 -150.5t-41 -150.5t-125 -55.5zM190 342q23 0 32 29t9 93t-9 93t-32 29t-32 -29
t-9 -93t9 -93t32 -29z" />
    <glyph glyph-name="guilsinglleft" unicode="&#x2039;" horiz-adv-x="343" 
d="M168 52l-138 201l138 201h159l-131 -199l134 -203h-162z" />
    <glyph glyph-name="guilsinglright" unicode="&#x203a;" horiz-adv-x="343" 
d="M175 454l138 -201l-138 -201h-159l131 199l-134 203h162z" />
    <glyph glyph-name="fraction" unicode="&#x2044;" horiz-adv-x="140" 
d="M-158 0l318 660h138l-318 -660h-138z" />
    <glyph glyph-name="uni2070" unicode="&#x2070;" horiz-adv-x="382" 
d="M191 368q-84 0 -125 55.5t-41 150.5t41 150.5t125 55.5t125 -55.5t41 -150.5t-41 -150.5t-125 -55.5zM191 452q23 0 32 29t9 93t-9 93t-32 29t-32 -29t-9 -93t9 -93t32 -29z" />
    <glyph glyph-name="uni2074" unicode="&#x2074;" horiz-adv-x="363" 
d="M16 446v75l189 245h101v-236h44v-84h-44v-72h-111v72h-179zM115 530h80v106z" />
    <glyph glyph-name="uni2075" unicode="&#x2075;" horiz-adv-x="369" 
d="M39 538l16 228h267v-88h-175l-4 -63q30 23 72 23q60 0 97 -36t37 -94q0 -66 -45.5 -105t-121.5 -39q-69 0 -111 31t-48 87h116q7 -35 41 -35q43 0 43 57q0 28 -11.5 44t-30.5 16q-30 0 -47 -26h-95z" />
    <glyph glyph-name="uni2076" unicode="&#x2076;" horiz-adv-x="373" 
d="M197 368q-83 0 -127.5 54t-44.5 159q0 88 43 143.5t134 55.5q56 0 95 -27t49 -79h-121q-6 30 -31 30q-44 0 -49 -95q31 31 81 31q56 0 92.5 -35t36.5 -94q0 -65 -44.5 -104t-113.5 -39zM190 445q45 0 45 59t-45 59t-45 -59q0 -28 12 -43.5t33 -15.5z" />
    <glyph glyph-name="uni2077" unicode="&#x2077;" horiz-adv-x="324" 
d="M8 688v88h305v-88q-66 -79 -100.5 -151.5t-40.5 -152.5h-118q11 88 46.5 159.5t102.5 144.5h-195z" />
    <glyph glyph-name="uni2078" unicode="&#x2078;" horiz-adv-x="380" 
d="M190 368q-76 0 -124 33t-48 89q0 35 21 60t58 39q-31 13 -48 35.5t-17 51.5q0 46 42.5 75t115.5 29q72 0 115 -29t43 -75q0 -29 -17 -51.5t-48 -35.5q37 -14 58 -39t21 -60q0 -56 -48 -89t-124 -33zM190 623q37 0 37 44t-37 44t-37 -44t37 -44zM190 440q18 0 31.5 14
t13.5 43t-13.5 43t-31.5 14t-31.5 -14t-13.5 -43t13.5 -43t31.5 -14z" />
    <glyph glyph-name="uni2079" unicode="&#x2079;" horiz-adv-x="373" 
d="M182 780q47 0 84.5 -20.5t59.5 -65t22 -115.5q0 -94 -42.5 -152.5t-133.5 -58.5q-57 0 -96.5 27t-49.5 79h122q5 -29 31 -29q44 0 49 93q-29 -29 -77 -29q-59 0 -96 34.5t-37 92.5q0 66 45 105t119 39zM183 703q-45 0 -45 -59t45 -59t45 59q0 28 -12 43.5t-33 15.5z" />
    <glyph glyph-name="uni2080" unicode="&#x2080;" horiz-adv-x="382" 
d="M191 -110q-84 0 -125 55.5t-41 150.5t41 150.5t125 55.5t125 -55.5t41 -150.5t-41 -150.5t-125 -55.5zM191 -26q23 0 32 29t9 93t-9 93t-32 29t-32 -29t-9 -93t9 -93t32 -29z" />
    <glyph glyph-name="uni2081" unicode="&#x2081;" horiz-adv-x="290" 
d="M17 144v95q35 6 65.5 18t55.5 35h91v-392h-121v264q-47 -16 -91 -20z" />
    <glyph glyph-name="uni2082" unicode="&#x2082;" horiz-adv-x="373" 
d="M29 -100v14q0 51 23.5 89t75.5 75l45 32q25 18 36 32t11 33q0 45 -35 45q-19 0 -29.5 -16t-12.5 -51h-115q4 71 48 110t117 39q67 0 108.5 -33.5t41.5 -88.5q0 -37 -18 -67.5t-59 -57.5l-53 -35q-30 -19 -37 -31h170v-89h-317z" />
    <glyph glyph-name="uni2083" unicode="&#x2083;" horiz-adv-x="367" 
d="M186 -110q-76 0 -120 35t-51 103h113q4 -57 52 -57q47 0 47 46q0 29 -18.5 42.5t-58.5 13.5h-11v70h11q38 0 53.5 9.5t15.5 30.5q0 40 -39 40q-32 0 -37 -39h-113q9 58 49.5 88t107.5 30t108.5 -30.5t41.5 -80.5q0 -60 -67 -85q79 -26 79 -94q0 -56 -44 -89t-119 -33z
" />
    <glyph glyph-name="uni2084" unicode="&#x2084;" horiz-adv-x="363" 
d="M16 -28v75l189 245h101v-236h44v-84h-44v-72h-111v72h-179zM115 56h80v106z" />
    <glyph glyph-name="uni2085" unicode="&#x2085;" horiz-adv-x="369" 
d="M39 63l16 228h267v-88h-175l-4 -63q30 23 72 23q60 0 97 -36t37 -94q0 -66 -45.5 -105t-121.5 -39q-69 0 -111 31t-48 87h116q7 -35 41 -35q43 0 43 57q0 28 -11.5 44t-30.5 16q-30 0 -47 -26h-95z" />
    <glyph glyph-name="uni2086" unicode="&#x2086;" horiz-adv-x="373" 
d="M197 -110q-83 0 -127.5 54t-44.5 159q0 88 43 143.5t134 55.5q56 0 95 -27t49 -79h-121q-6 30 -31 30q-44 0 -49 -95q31 31 81 31q56 0 92.5 -35t36.5 -94q0 -65 -44.5 -104t-113.5 -39zM190 -33q45 0 45 59t-45 59t-45 -59q0 -28 12 -43.5t33 -15.5z" />
    <glyph glyph-name="uni2087" unicode="&#x2087;" horiz-adv-x="324" 
d="M8 204v88h305v-88q-66 -79 -100.5 -151.5t-40.5 -152.5h-118q11 88 46.5 159.5t102.5 144.5h-195z" />
    <glyph glyph-name="uni2088" unicode="&#x2088;" horiz-adv-x="380" 
d="M190 -110q-76 0 -124 33t-48 89q0 35 21 60t58 39q-31 13 -48 35.5t-17 51.5q0 46 42.5 75t115.5 29q72 0 115 -29t43 -75q0 -29 -17 -51.5t-48 -35.5q37 -14 58 -39t21 -60q0 -56 -48 -89t-124 -33zM190 145q37 0 37 44t-37 44t-37 -44t37 -44zM190 -38q18 0 31.5 14
t13.5 43t-13.5 43t-31.5 14t-31.5 -14t-13.5 -43t13.5 -43t31.5 -14z" />
    <glyph glyph-name="uni2089" unicode="&#x2089;" horiz-adv-x="373" 
d="M182 302q47 0 84.5 -20.5t59.5 -65t22 -115.5q0 -94 -42.5 -152.5t-133.5 -58.5q-57 0 -96.5 27t-49.5 79h122q5 -29 31 -29q44 0 49 93q-29 -29 -77 -29q-59 0 -96 34.5t-37 92.5q0 66 45 105t119 39zM183 225q-45 0 -45 -59t45 -59t45 59q0 28 -12 43.5t-33 15.5z" />
    <glyph glyph-name="Euro" unicode="&#x20ac;" horiz-adv-x="590" 
d="M338 -16q-108 0 -175.5 65t-88.5 176h-55v80h46v22v21h-46v80h55q21 110 88.5 176t174.5 66q58 0 106.5 -25t81.5 -70t45 -106h-167q-5 33 -23 55t-46 22q-70 0 -88 -118h172l-14 -80h-165v-21v-22h159l-14 -80h-138q18 -117 90 -117q27 0 46 20.5t24 58.5h167
q-9 -61 -42 -106.5t-83 -71t-110 -25.5z" />
    <glyph glyph-name="uni20B9" unicode="&#x20b9;" horiz-adv-x="590" 
d="M72 497h231q-10 35 -42 56t-88 21h-101v80h499l-14 -80h-134q32 -34 43 -77h96l-14 -80h-81q-13 -62 -66.5 -103.5t-147.5 -50.5l274 -263h-175l-280 260v80h101q56 0 88 20.5t43 56.5h-232v80z" />
    <glyph glyph-name="uni20BA" unicode="&#x20ba;" horiz-adv-x="590" 
d="M27 297l58 21v55l-58 -21v86l58 21v195h162v-137l114 41v-86l-114 -41v-55l114 41v-86l-114 -41v-169h31q68 0 96 44t33 146h144q-3 -115 -35 -183.5t-93.5 -98t-151.5 -29.5h-186v232l-58 -21v86z" />
    <glyph glyph-name="trademark" unicode="&#x2122;" horiz-adv-x="934" 
d="M128 250v320h-122v100h371v-100h-121v-320h-128zM395 250l41 420h133l79 -241l83 241h132l41 -420h-130l-18 236l-68 -193h-78l-69 196l-19 -239h-127z" />
    <glyph glyph-name="minus" unicode="&#x2212;" horiz-adv-x="590" 
d="M77 272v116h436v-116h-436z" />
    <glyph glyph-name="uniFB00" unicode="&#xfb00;" horiz-adv-x="709" 
d="M10 504h71q1 95 48 152t146 57q29 0 59 -7t57 -21l-24 -100q-29 13 -57 13q-59 0 -59 -75v-19h163q1 95 48 152t146 57q28 0 58.5 -7t57.5 -21l-24 -100q-29 13 -57 13q-59 0 -59 -75v-19h108v-110h-108v-394h-170v394h-163v-394h-170v394h-71v110z" />
    <glyph glyph-name="uniFB01" unicode="&#xfb01;" horiz-adv-x="644" 
d="M404 652q0 38 27.5 64.5t67.5 26.5t67.5 -26.5t27.5 -64.5t-27.5 -64.5t-67.5 -26.5t-67.5 26.5t-27.5 64.5zM10 504h71q1 95 48 152t146 57q44 0 88 -16l-24 -103q-15 4 -29 4q-59 0 -59 -75v-19h90v-110h-90v-394h-170v394h-71v110zM414 504h170v-504h-170v504z" />
    <glyph glyph-name="uniFB02" unicode="&#xfb02;" horiz-adv-x="641" 
d="M10 504h71q1 95 48 152t146 57q44 0 88 -16l-24 -103q-15 4 -29 4q-59 0 -59 -75v-19h90v-110h-90v-394h-170v394h-71v110zM411 700h170v-700h-170v700z" />
    <glyph glyph-name="uniFB03" unicode="&#xfb03;" horiz-adv-x="977" 
d="M737 652q0 38 27.5 64.5t67.5 26.5t67.5 -26.5t27.5 -64.5t-27.5 -64.5t-67.5 -26.5t-67.5 26.5t-27.5 64.5zM10 504h71q1 95 48 152t146 57q29 0 59 -7t57 -21l-24 -100q-29 13 -57 13q-59 0 -59 -75v-19h163q1 95 48 152t146 57q44 0 88 -16l-24 -103q-15 4 -29 4
q-59 0 -59 -75v-19h90v-110h-90v-394h-170v394h-163v-394h-170v394h-71v110zM747 504h170v-504h-170v504z" />
    <glyph glyph-name="uniFB04" unicode="&#xfb04;" horiz-adv-x="974" 
d="M10 504h71q1 95 48 152t146 57q29 0 59 -7t57 -21l-24 -100q-29 13 -57 13q-59 0 -59 -75v-19h163q1 95 48 152t146 57q44 0 88 -16l-24 -103q-15 4 -29 4q-59 0 -59 -75v-19h90v-110h-90v-394h-170v394h-163v-394h-170v394h-71v110zM744 700h170v-700h-170v700z" />
    <glyph glyph-name="hyphen.case" horiz-adv-x="374" 
d="M25 274v130h324v-130h-324z" />
    <glyph glyph-name="uni2010.case" horiz-adv-x="374" 
d="M25 274v130h324v-130h-324z" />
    <glyph glyph-name="uni2011.case" horiz-adv-x="374" 
d="M25 274v130h324v-130h-324z" />
    <glyph glyph-name="endash.case" horiz-adv-x="500" 
d="M0 274v130h500v-130h-500z" />
    <glyph glyph-name="emdash.case" horiz-adv-x="1000" 
d="M0 274v130h1000v-130h-1000z" />
    <glyph glyph-name="parenleft.case" horiz-adv-x="353" 
d="M328 -75h-118q-150 189 -150 410q0 111 37.5 214.5t112.5 195.5h118q-56 -94 -80.5 -200.5t-24.5 -209.5t24.5 -208t80.5 -202z" />
    <glyph glyph-name="parenright.case" horiz-adv-x="353" 
d="M143 -75h-118q56 94 80.5 200.5t24.5 209.5t-24.5 208t-80.5 202h118q150 -189 150 -410q0 -111 -37.5 -214.5t-112.5 -195.5z" />
    <glyph glyph-name="slash.case" horiz-adv-x="366" 
d="M1 -60l218 789h145l-218 -789h-145z" />
    <glyph glyph-name="backslash.case" horiz-adv-x="366" 
d="M147 729l218 -789h-145l-218 789h145z" />
    <glyph glyph-name="bracketleft.case" horiz-adv-x="355" 
d="M70 -75v820h268v-110h-112v-600h112v-110h-268z" />
    <glyph glyph-name="bracketright.case" horiz-adv-x="355" 
d="M285 745v-820h-268v110h112v600h-112v110h268z" />
    <glyph glyph-name="braceleft.case" horiz-adv-x="389" 
d="M25 280v110h29q44 0 59.5 20.5t15.5 51.5q0 35 -8.5 66.5t-8.5 73.5q0 68 43 105.5t156 37.5h63v-110h-45q-35 0 -51 -15t-16 -50q0 -24 4.5 -43t9 -38.5t4.5 -46.5q0 -52 -31 -76.5t-69 -30.5q38 -6 69 -30.5t31 -76.5q0 -27 -4.5 -47t-9 -38.5t-4.5 -42.5q0 -35 16 -50
t51 -15h45v-110h-63q-113 0 -156 37.5t-43 105.5q0 42 8.5 73.5t8.5 66.5q0 31 -15.5 51.5t-59.5 20.5h-29z" />
    <glyph glyph-name="braceright.case" horiz-adv-x="389" 
d="M15 -75v110h45q34 0 50.5 15t16.5 50q0 24 -4.5 42.5t-9 38.5t-4.5 47q0 52 31 76.5t69 30.5q-38 6 -69 30.5t-31 76.5q0 27 4.5 46.5t9 38.5t4.5 43q0 35 -16.5 50t-50.5 15h-45v110h63q112 0 155.5 -37.5t43.5 -105.5q0 -42 -8.5 -73.5t-8.5 -66.5q0 -31 16 -51.5
t59 -20.5h29v-110h-29q-43 0 -59 -20.5t-16 -51.5q0 -35 8.5 -66.5t8.5 -73.5q0 -68 -43.5 -105.5t-155.5 -37.5h-63z" />
    <glyph glyph-name="bullet.case" horiz-adv-x="391" 
d="M195 189q-41 0 -74.5 20t-52.5 53t-19 73q0 42 19 75t52.5 52t74.5 19q42 0 75.5 -19t52.5 -52t19 -75q0 -40 -20.5 -73t-54 -53t-72.5 -20z" />
    <glyph glyph-name="guilsinglleft.case" horiz-adv-x="343" 
d="M168 134l-138 201l138 201h159l-131 -199l134 -203h-162z" />
    <glyph glyph-name="guilsinglright.case" horiz-adv-x="343" 
d="M175 536l138 -201l-138 -201h-159l131 199l-134 203h162z" />
    <glyph glyph-name="guillemotleft.case" horiz-adv-x="623" 
d="M168 134l-138 201l138 201h159l-131 -199l134 -203h-162zM448 134l-138 201l138 201h159l-131 -199l134 -203h-162z" />
    <glyph glyph-name="guillemotright.case" horiz-adv-x="623" 
d="M175 536l138 -201l-138 -201h-159l131 199l-134 203h162zM455 536l138 -201l-138 -201h-159l131 199l-134 203h162z" />
    <glyph glyph-name="at.case" horiz-adv-x="955" 
d="M477 -131q-135 0 -235.5 54t-156 154t-55.5 237q0 97 32 178.5t92 142t142.5 93.5t183.5 33q110 0 194.5 -31t142.5 -86t88 -128.5t30 -158.5q0 -136 -63.5 -209.5t-166.5 -73.5q-27 0 -54.5 8t-49.5 28t-32 57q-19 -35 -58.5 -56t-92.5 -21q-56 0 -96 28t-62 76.5
t-22 110.5q0 63 23 111.5t64 76t96 27.5q40 0 76 -19t58 -55l9 71h135v-288q0 -40 12.5 -55.5t34.5 -15.5q21 0 43.5 18.5t37.5 61.5t15 119q0 87 -41 160.5t-121.5 117.5t-199.5 44q-78 0 -143 -28t-112.5 -77.5t-73.5 -116t-26 -143.5q0 -84 28 -151t77 -114.5t113 -72.5
t136 -25q67 0 120 11.5t114 41.5l20 -78q-61 -30 -122 -43.5t-134 -13.5zM466 200q34 0 56 25.5t22 70.5v18q0 44 -22 69.5t-56 25.5t-51.5 -30t-17.5 -74t17.5 -74.5t51.5 -30.5z" />
    <glyph glyph-name="periodcentered.case" horiz-adv-x="270" 
d="M134 245q-38 0 -64 26.5t-26 63.5q0 40 26 65t64 25q39 0 65 -25t26 -65q0 -37 -27 -63.5t-64 -26.5z" />
    <glyph glyph-name="questiondown.case" horiz-adv-x="475" 
d="M266 500q-39 0 -65 25t-26 65q0 37 27 63.5t64 26.5q38 0 64 -26.5t26 -63.5q0 -40 -26 -65t-64 -25zM318 193h164q-5 -96 -67.5 -152.5t-173.5 -56.5q-71 0 -124.5 22.5t-83.5 64t-30 98.5q0 59 27 95.5t74 70.5l45 33q25 18 32.5 37t7.5 43v10h153v-30q0 -45 -17 -74.5
t-60 -63.5l-38 -30q-28 -22 -37.5 -40t-9.5 -48q0 -28 16.5 -48t47.5 -20q32 0 51.5 21.5t22.5 67.5z" />
    <glyph glyph-name="exclamdown.case" horiz-adv-x="275" 
d="M138 500q-39 0 -65 25t-26 65q0 37 27 63.5t64 26.5q38 0 64 -26.5t26 -63.5q0 -40 -26 -65t-64 -25zM227 0h-179l30 458h118z" />
    <glyph glyph-name="zero.tnum" horiz-adv-x="590" 
d="M295 -16q-89 0 -147.5 42t-87 119t-28.5 182t28.5 182t87 119t147.5 42t147.5 -42t87 -119t28.5 -182t-28.5 -182t-87 -119t-147.5 -42zM295 106q44 0 63.5 54t19.5 167t-19.5 167t-63.5 54t-63.5 -54t-19.5 -167t19.5 -167t63.5 -54z" />
    <glyph glyph-name="one.tnum" horiz-adv-x="590" 
d="M94 425v138q55 10 105.5 31t91.5 60h131v-654h-174v464q-38 -14 -77 -24t-77 -15z" />
    <glyph glyph-name="two.tnum" horiz-adv-x="590" 
d="M47 0v22q0 84 37.5 145.5t119.5 120.5l81 58q43 31 61 57.5t18 61.5q0 41 -18 63t-52 22q-38 0 -58 -29.5t-25 -91.5h-166q6 114 76 177.5t184 63.5q71 0 124 -24.5t82.5 -69t29.5 -104.5q0 -62 -29.5 -111t-94.5 -95l-92 -65q-32 -23 -49.5 -39t-22.5 -33h291v-129h-497
z" />
    <glyph glyph-name="three.tnum" horiz-adv-x="590" 
d="M295 -16q-129 0 -195 61.5t-75 162.5h164q4 -56 30.5 -81t68.5 -25t65.5 23.5t23.5 69.5q0 43 -28.5 71t-108.5 28h-23v105h22q63 0 88.5 21t25.5 56q0 34 -18.5 55t-52.5 21q-66 0 -75 -70h-163q11 87 72.5 137.5t170.5 50.5q72 0 126 -22t84.5 -62.5t30.5 -98.5
q0 -42 -20 -80t-72 -62q46 -18 71.5 -44t35 -56t9.5 -59q0 -64 -32 -109t-89.5 -69t-135.5 -24z" />
    <glyph glyph-name="four.tnum" horiz-adv-x="590" 
d="M25 125v114l308 414h147v-403h78v-125h-78v-125h-160v125h-295zM173 250h147v200z" />
    <glyph glyph-name="five.tnum" horiz-adv-x="590" 
d="M66 275l26 379h421v-129h-287l-9 -125q24 18 53.5 28.5t65.5 10.5q66 0 115 -27.5t76 -76.5t27 -114q0 -73 -33 -126.5t-93 -82t-141 -28.5q-106 0 -171.5 51.5t-75.5 141.5h167q7 -37 26.5 -55t56.5 -18q39 0 61 28.5t22 81.5q0 58 -24 86.5t-60 28.5q-58 0 -87 -54
h-136z" />
    <glyph glyph-name="six.tnum" horiz-adv-x="590" 
d="M307 -16q-129 0 -198.5 88.5t-69.5 262.5q0 99 29 174.5t90 118t158 42.5q89 0 151.5 -44t77.5 -129h-175q-5 29 -22 45t-42 16q-45 0 -68.5 -43.5t-27.5 -137.5q52 56 140 56q61 0 108 -26.5t74 -75t27 -114.5q0 -71 -32 -123.5t-89 -81t-131 -28.5zM300 97
q41 0 64 29.5t23 82.5t-23 82.5t-64 29.5t-64 -29.5t-23 -82.5t23 -82.5t64 -29.5z" />
    <glyph glyph-name="seven.tnum" horiz-adv-x="590" 
d="M56 525v129h483v-129q-107 -135 -164.5 -260t-68.5 -265h-171q12 101 42.5 188.5t81.5 169.5t125 167h-328z" />
    <glyph glyph-name="eight.tnum" horiz-adv-x="590" 
d="M295 -16q-80 0 -141.5 24.5t-95.5 69.5t-34 107q0 59 35 101.5t96 63.5q-51 21 -80 59t-29 89q0 53 31 91.5t87 59.5t131 21t131 -21t87 -59.5t31 -91.5q0 -51 -29 -89t-80 -59q61 -21 96 -63.5t35 -101.5q0 -62 -34 -107t-95.5 -69.5t-141.5 -24.5zM295 400
q34 0 54 21.5t20 62.5t-20 62.5t-54 21.5t-54 -21.5t-20 -62.5t20 -62.5t54 -21.5zM295 89q38 0 63.5 26.5t25.5 78.5t-25.5 78.5t-63.5 26.5t-63.5 -26.5t-25.5 -78.5t25.5 -78.5t63.5 -26.5z" />
    <glyph glyph-name="nine.tnum" horiz-adv-x="590" 
d="M290 670q73 0 132 -34.5t94 -108t35 -189.5q0 -105 -29.5 -184.5t-90.5 -124.5t-157 -45q-89 0 -151.5 44t-77.5 129h175q5 -29 22 -45t42 -16q44 0 67.5 42.5t27.5 136.5q-50 -54 -133 -54q-64 0 -112 26.5t-75.5 74.5t-27.5 113q0 72 32.5 124.5t90.5 81.5t136 29z
M293 557q-42 0 -64.5 -29.5t-22.5 -82.5t22.5 -82.5t64.5 -29.5q39 0 61.5 29.5t22.5 82.5t-22.5 82.5t-61.5 29.5z" />
    <glyph glyph-name="zero.dnom" horiz-adv-x="382" 
d="M191 -10q-84 0 -125 55.5t-41 150.5t41 150.5t125 55.5t125 -55.5t41 -150.5t-41 -150.5t-125 -55.5zM191 74q23 0 32 29t9 93t-9 93t-32 29t-32 -29t-9 -93t9 -93t32 -29z" />
    <glyph glyph-name="one.dnom" horiz-adv-x="290" 
d="M17 244v95q35 6 65.5 18t55.5 35h91v-392h-121v264q-47 -16 -91 -20z" />
    <glyph glyph-name="two.dnom" horiz-adv-x="373" 
d="M29 0v14q0 51 23.5 89t75.5 75l45 32q25 18 36 32t11 33q0 45 -35 45q-19 0 -29.5 -16t-12.5 -51h-115q4 71 48 110t117 39q67 0 108.5 -33.5t41.5 -88.5q0 -37 -18 -67.5t-59 -57.5l-53 -35q-30 -19 -37 -31h170v-89h-317z" />
    <glyph glyph-name="three.dnom" horiz-adv-x="367" 
d="M186 -10q-76 0 -120 35t-51 103h113q4 -57 52 -57q47 0 47 46q0 29 -18.5 42.5t-58.5 13.5h-11v70h11q38 0 53.5 9.5t15.5 30.5q0 40 -39 40q-32 0 -37 -39h-113q9 58 49.5 88t107.5 30t108.5 -30.5t41.5 -80.5q0 -60 -67 -85q79 -26 79 -94q0 -56 -44 -89t-119 -33z" />
    <glyph glyph-name="four.dnom" horiz-adv-x="363" 
d="M16 72v75l189 245h101v-236h44v-84h-44v-72h-111v72h-179zM115 156h80v106z" />
    <glyph glyph-name="five.dnom" horiz-adv-x="369" 
d="M39 164l16 228h267v-88h-175l-4 -63q30 23 72 23q60 0 97 -36t37 -94q0 -66 -45.5 -105t-121.5 -39q-69 0 -111 31t-48 87h116q7 -35 41 -35q43 0 43 57q0 28 -11.5 44t-30.5 16q-30 0 -47 -26h-95z" />
    <glyph glyph-name="six.dnom" horiz-adv-x="373" 
d="M197 -10q-83 0 -127.5 54t-44.5 159q0 88 43 143.5t134 55.5q56 0 95 -27t49 -79h-121q-6 30 -31 30q-44 0 -49 -95q31 31 81 31q56 0 92.5 -35t36.5 -94q0 -65 -44.5 -104t-113.5 -39zM190 67q45 0 45 59t-45 59t-45 -59q0 -28 12 -43.5t33 -15.5z" />
    <glyph glyph-name="seven.dnom" horiz-adv-x="324" 
d="M8 304v88h305v-88q-66 -79 -100.5 -151.5t-40.5 -152.5h-118q11 88 46.5 159.5t102.5 144.5h-195z" />
    <glyph glyph-name="eight.dnom" horiz-adv-x="380" 
d="M190 -10q-76 0 -124 33t-48 89q0 35 21 60t58 39q-31 13 -48 35.5t-17 51.5q0 46 42.5 75t115.5 29q72 0 115 -29t43 -75q0 -29 -17 -51.5t-48 -35.5q37 -14 58 -39t21 -60q0 -56 -48 -89t-124 -33zM190 245q37 0 37 44t-37 44t-37 -44t37 -44zM190 62q18 0 31.5 14
t13.5 43t-13.5 43t-31.5 14t-31.5 -14t-13.5 -43t13.5 -43t31.5 -14z" />
    <glyph glyph-name="nine.dnom" horiz-adv-x="373" 
d="M182 402q47 0 84.5 -20.5t59.5 -65t22 -115.5q0 -94 -42.5 -152.5t-133.5 -58.5q-57 0 -96.5 27t-49.5 79h122q5 -29 31 -29q44 0 49 93q-29 -29 -77 -29q-59 0 -96 34.5t-37 92.5q0 66 45 105t119 39zM183 325q-45 0 -45 -59t45 -59t45 59q0 28 -12 43.5t-33 15.5z" />
    <glyph glyph-name="zero.numr" horiz-adv-x="382" 
d="M191 258q-84 0 -125 55.5t-41 150.5t41 150.5t125 55.5t125 -55.5t41 -150.5t-41 -150.5t-125 -55.5zM191 342q23 0 32 29t9 93t-9 93t-32 29t-32 -29t-9 -93t9 -93t32 -29z" />
    <glyph glyph-name="one.numr" horiz-adv-x="290" 
d="M17 512v95q35 6 65.5 18t55.5 35h91v-392h-121v264q-47 -16 -91 -20z" />
    <glyph glyph-name="two.numr" horiz-adv-x="373" 
d="M29 268v14q0 51 23.5 89t75.5 75l45 32q25 18 36 32t11 33q0 45 -35 45q-19 0 -29.5 -16t-12.5 -51h-115q4 71 48 110t117 39q67 0 108.5 -33.5t41.5 -88.5q0 -37 -18 -67.5t-59 -57.5l-53 -35q-30 -19 -37 -31h170v-89h-317z" />
    <glyph glyph-name="three.numr" horiz-adv-x="367" 
d="M186 258q-76 0 -120 35t-51 103h113q4 -57 52 -57q47 0 47 46q0 29 -18.5 42.5t-58.5 13.5h-11v70h11q38 0 53.5 9.5t15.5 30.5q0 40 -39 40q-32 0 -37 -39h-113q9 58 49.5 88t107.5 30t108.5 -30.5t41.5 -80.5q0 -60 -67 -85q79 -26 79 -94q0 -56 -44 -89t-119 -33z" />
    <glyph glyph-name="four.numr" horiz-adv-x="363" 
d="M16 336v75l189 245h101v-236h44v-84h-44v-72h-111v72h-179zM115 420h80v106z" />
    <glyph glyph-name="five.numr" horiz-adv-x="369" 
d="M39 428l16 228h267v-88h-175l-4 -63q30 23 72 23q60 0 97 -36t37 -94q0 -66 -45.5 -105t-121.5 -39q-69 0 -111 31t-48 87h116q7 -35 41 -35q43 0 43 57q0 28 -11.5 44t-30.5 16q-30 0 -47 -26h-95z" />
    <glyph glyph-name="six.numr" horiz-adv-x="373" 
d="M197 258q-83 0 -127.5 54t-44.5 159q0 88 43 143.5t134 55.5q56 0 95 -27t49 -79h-121q-6 30 -31 30q-44 0 -49 -95q31 31 81 31q56 0 92.5 -35t36.5 -94q0 -65 -44.5 -104t-113.5 -39zM190 335q45 0 45 59t-45 59t-45 -59q0 -28 12 -43.5t33 -15.5z" />
    <glyph glyph-name="seven.numr" horiz-adv-x="324" 
d="M8 578v88h305v-88q-66 -79 -100.5 -151.5t-40.5 -152.5h-118q11 88 46.5 159.5t102.5 144.5h-195z" />
    <glyph glyph-name="eight.numr" horiz-adv-x="380" 
d="M190 258q-76 0 -124 33t-48 89q0 35 21 60t58 39q-31 13 -48 35.5t-17 51.5q0 46 42.5 75t115.5 29q72 0 115 -29t43 -75q0 -29 -17 -51.5t-48 -35.5q37 -14 58 -39t21 -60q0 -56 -48 -89t-124 -33zM190 513q37 0 37 44t-37 44t-37 -44t37 -44zM190 330q18 0 31.5 14
t13.5 43t-13.5 43t-31.5 14t-31.5 -14t-13.5 -43t13.5 -43t31.5 -14z" />
    <glyph glyph-name="nine.numr" horiz-adv-x="373" 
d="M182 670q47 0 84.5 -20.5t59.5 -65t22 -115.5q0 -94 -42.5 -152.5t-133.5 -58.5q-57 0 -96.5 27t-49.5 79h122q5 -29 31 -29q44 0 49 93q-29 -29 -77 -29q-59 0 -96 34.5t-37 92.5q0 66 45 105t119 39zM183 593q-45 0 -45 -59t45 -59t45 59q0 28 -12 43.5t-33 15.5z" />
    <glyph glyph-name="dotlessij" horiz-adv-x="591" 
d="M51 -53h160q6 -32 24 -50t48 -18q36 0 57 27.5t21 84.5v81q-21 -33 -57.5 -52.5t-84.5 -19.5q-74 0 -118.5 49.5t-44.5 133.5v321h170v-295q0 -41 15.5 -64t46.5 -23q29 0 51 26.5t22 83.5v272h170v-462q0 -131 -63.5 -198t-184.5 -67q-90 0 -154.5 42.5t-77.5 127.5z
" />
    <glyph glyph-name="periodcentered.loclCAT.cap" 
d="M-113 294q-38 0 -64 26.5t-26 63.5q0 40 26 65t64 25q39 0 65 -25t26 -65q0 -37 -27 -63.5t-64 -26.5z" />
    <glyph glyph-name="periodcentered.loclCAT" horiz-adv-x="123" 
d="M61 250q-38 0 -64 26.5t-26 63.5q0 40 26 65t64 25q39 0 65 -25t26 -65q0 -37 -27 -63.5t-64 -26.5z" />
    <glyph glyph-name="uni0327.cap" 
d="M-42 0h76l-6 -58q7 2 18 2q46 0 75.5 -27.5t29.5 -73.5q0 -56 -37.5 -88.5t-105.5 -32.5q-18 0 -42 3t-43 10l7 79q19 -6 37.5 -8t32.5 -2q48 0 48 37q0 16 -9.5 26t-25.5 10q-20 0 -37 -11h-32z" />
    <glyph glyph-name="uni0326.cap" 
d="M-96 -359v67q37 9 59 25.5t31 44.5q-28 1 -53 23t-25 60q0 36 24 59t59 23q36 0 61.5 -27.5t25.5 -77.5q0 -76 -50 -130t-132 -67z" />
    <glyph glyph-name="commabelow" horiz-adv-x="500" 
d="M149 -347v62q73 19 87 70q-27 1 -50.5 22.5t-23.5 57.5q0 34 23.5 56t55.5 22q33 0 58 -26.5t25 -74.5q0 -46 -22 -86t-61 -67t-92 -36z" />
    <glyph glyph-name="uni0328.cap" 
d="M5 -268q-73 0 -113 37t-40 89q0 38 19.5 72.5t71.5 69.5h124q-49 -8 -68 -37.5t-19 -58.5q0 -34 17.5 -52t45.5 -18q27 0 56 12v-99q-23 -8 -45.5 -11.5t-48.5 -3.5z" />
    <glyph glyph-name="uni0328.round" 
d="M8 -262q-71 0 -110.5 36t-39.5 85q0 38 19.5 72.5t69.5 68.5l122 29q-51 -37 -70 -64.5t-19 -64.5q0 -30 19 -48t45 -18q31 0 55 10v-92q-41 -14 -91 -14z" />
    <glyph glyph-name="uni0328.round.cap" 
d="M8 -265q-73 0 -113 36.5t-40 87.5q0 39 20 74t72 70l131 20q-55 -31 -75 -60.5t-20 -62.5q0 -28 18.5 -45.5t42.5 -17.5q26 0 58 12v-99q-22 -8 -45 -11.5t-49 -3.5z" />
    <glyph glyph-name="acutecomb.cap" 
d="M-123 795l225 145l69 -131l-252 -97z" />
    <glyph glyph-name="acutecomb.asc" 
d="M-97 826l178 128l66 -121l-201 -88z" />
    <glyph glyph-name="acutecomb.narrow" 
d="M-88 615l114 166l104 -92l-146 -133z" />
    <glyph glyph-name="uni030B.cap" 
d="M-166 782l176 185l80 -97l-207 -150zM30 790l207 148l60 -111l-231 -107z" />
    <glyph glyph-name="IJacute" horiz-adv-x="671" 
d="M336 -16q-122 0 -193 64.5t-81 176.5h177q5 -49 30.5 -80.5t66.5 -31.5q45 0 70 35.5t25 100.5v421h178v-406q0 -132 -72.5 -206t-200.5 -74zM240 312h-178v358h178v-358zM28 795l225 145l69 -131l-252 -97zM397 795l225 145l69 -131l-252 -97z" />
    <glyph glyph-name="ijacute" horiz-adv-x="602" 
d="M59 -53h160q6 -32 24 -50t48 -18q36 0 57 27.5t21 84.5v81q-21 -33 -57.5 -52.5t-84.5 -19.5q-74 0 -118.5 49.5t-44.5 133.5v321h170v-295q0 -41 15.5 -64t46.5 -23q29 0 51 26.5t22 83.5v272h170v-462q0 -131 -63.5 -198t-184.5 -67q-90 0 -154.5 42.5t-77.5 127.5z
M49 625l150 156l88 -105l-179 -120zM354 625l150 156l88 -105l-179 -120z" />
    <glyph glyph-name="gravecomb.cap" 
d="M-102 940l225 -145l-42 -83l-252 97z" />
    <glyph glyph-name="gravecomb.narrow" 
d="M-26 781l114 -166l-72 -59l-146 133z" />
    <glyph glyph-name="uni0302.cap" 
d="M36 915l162 -125l-53 -80l-145 90l-145 -90l-53 80l162 125h72z" />
    <glyph glyph-name="uni0302.narrow" 
d="M41 755l122 -151l-62 -62l-101 98l-101 -98l-62 62l122 151h82z" />
    <glyph glyph-name="tildecomb.cap" 
d="M-23 777q-15 11 -26 17t-21 6q-12 0 -21.5 -13.5t-16.5 -47.5h-99q5 47 22 85.5t44 61.5t61 23q29 0 53 -12t50 -32q15 -11 26 -17t21 -6q12 0 21.5 13.5t16.5 47.5h99q-5 -47 -22 -85.5t-44 -61.5t-61 -23q-29 0 -53 12t-50 32z" />
    <glyph glyph-name="tildecomb.narrow" 
d="M-19 614q-14 14 -23 18.5t-17 4.5q-11 0 -20 -13.5t-12 -45.5h-84q5 66 32.5 112t76.5 46q26 0 45.5 -11.5t39.5 -30.5q14 -14 23 -18.5t17 -4.5q11 0 20 13.5t12 45.5h84q-5 -66 -32.5 -112t-76.5 -46q-26 0 -45.5 11.5t-39.5 30.5z" />
    <glyph glyph-name="uni030C.cap" 
d="M-36 725l-162 125l53 80l145 -90l145 90l53 -80l-162 -125h-72z" />
    <glyph glyph-name="uni0315.cap" 
d="M44 464h-82v206h132v-11q0 -27 -6.5 -65t-17.5 -74t-26 -56z" />
    <glyph glyph-name="uni0315.short" 
d="M32 549h-82v151h120v-8q0 -34 -10 -74t-28 -69z" />
    <glyph glyph-name="uni0304.cap" 
d="M-188 752v118h376v-118h-376z" />
    <glyph glyph-name="uni0304.narrow" 
d="M-157 589v106h314v-106h-314z" />
    <glyph glyph-name="uni0308.cap" 
d="M115 736q-35 0 -59 24t-24 60t24 60t59 24t59 -24t24 -60t-24 -60t-59 -24zM-115 736q-35 0 -59 24t-24 60t24 60t59 24t59 -24t24 -60t-24 -60t-59 -24z" />
    <glyph glyph-name="uni0308.narrow" 
d="M-89 561q-33 0 -56.5 23t-23.5 57q0 32 23.5 55t56.5 23q32 0 56 -23t24 -55q0 -34 -24 -57t-56 -23zM89 561q-33 0 -56.5 23t-23.5 57q0 32 23.5 55t56.5 23q32 0 56 -23t24 -55q0 -34 -24 -57t-56 -23z" />
    <glyph glyph-name="uni0306.cap" 
d="M0 739q-55 0 -94.5 21.5t-61.5 58.5t-25 81h105q4 -22 23 -39.5t53 -17.5q33 0 51.5 17.5t22.5 39.5h105q-3 -44 -24 -81t-60 -58.5t-95 -21.5z" />
    <glyph glyph-name="uni0307.cap" 
d="M0 727q-40 0 -68.5 27.5t-28.5 65.5t28.5 65.5t68.5 27.5t68.5 -27.5t28.5 -65.5t-28.5 -65.5t-68.5 -27.5z" />
    <glyph glyph-name="dotbelowcomb.cap" 
d="M0 -242q-40 0 -66.5 26t-26.5 63t26.5 63t66.5 26t66.5 -26t26.5 -63t-26.5 -63t-66.5 -26z" />
    <glyph glyph-name="uni030A.cap" 
d="M0 718q-55 0 -90 34.5t-35 87.5q0 56 35 89t90 33q56 0 91.5 -33t35.5 -89q0 -53 -35.5 -87.5t-91.5 -34.5zM0 788q21 0 35 14.5t14 37.5q0 22 -13.5 37t-35.5 15t-35.5 -15t-13.5 -37q0 -23 13.5 -37.5t35.5 -14.5z" />
    </font>
</defs>
</svg>
